<?xml version="1.0" standalone="no"?>
<!DOCTYPE svg PUBLIC "-//W3C//DTD SVG 1.1//EN" "http://www.w3.org/Graphics/SVG/1.1/DTD/svg11.dtd" >
<svg xmlns="http://www.w3.org/2000/svg">
<metadata></metadata>
<defs>
<font id="museo_cyrl_500regular" horiz-adv-x="577" >
<font-face units-per-em="1000" ascent="750" descent="-250" />
<missing-glyph horiz-adv-x="269" />
<glyph unicode="&#xfb01;" horiz-adv-x="585" d="M22 428v78h63v17q0 48 14 83.5t34.5 55t48 31t49.5 15t45 3.5l37 -3v-83q-11 2 -27 2q-17 0 -32.5 -4t-33 -14t-28 -33t-10.5 -56v-14h255q34 0 49 -15t15 -49v-337q0 -22 22 -22h41v-83h-95q-34 0 -49.5 15t-15.5 49v342q0 22 -22 22h-200v-428h-97v428h-63zM406 605 v101h88v-101h-88z" />
<glyph unicode="&#xfb02;" horiz-adv-x="580" d="M22 428v78h63v17q0 47 14 82.5t34 54t48.5 29.5t49.5 14t45 3h154q34 0 49.5 -15t15.5 -49v-537q0 -22 22 -22h41v-83h-96q-34 0 -49 15t-15 49v537q0 22 -22 22h-88q-106 0 -106 -102v-15h120v-78h-120v-428h-97v428h-63z" />
<glyph unicode="&#xfb03;" horiz-adv-x="899" d="M22 428v78h63v17q0 48 14 83.5t34.5 55t48 31t49.5 15t45 3.5l37 -3v-83q-11 2 -27 2q-17 0 -32.5 -4t-33 -14t-28 -33t-10.5 -56v-14h218v17q0 48 14 83.5t34.5 55t48 31t49.5 15t45 3.5l37 -3v-83q-11 2 -27 2q-17 0 -32.5 -4t-33 -14t-28 -33t-10.5 -56v-14h255 q34 0 49 -15t15 -49v-337q0 -22 22 -22h41v-83h-96q-34 0 -49 15t-15 49v342q0 22 -22 22h-200v-428h-97v428h-218v-428h-97v428h-63zM721 605v101h87v-101h-87z" />
<glyph unicode="&#xfb04;" horiz-adv-x="894" d="M22 428v78h63v19q0 47 14 82.5t33.5 54.5t47 30.5t49.5 15t45 3.5l39 -3v-83q-12 2 -27 2q-17 0 -32.5 -4t-33 -14t-28 -33t-10.5 -55v-15h218v17q0 47 14 82.5t34 54t48 29.5t49.5 14t44.5 3h155q34 0 49 -15t15 -49v-537q0 -22 22 -22h41v-83h-95q-34 0 -49 15t-15 49 v537q0 22 -22 22h-88q-106 0 -106 -102v-15h119v-78h-119v-428h-97v428h-218v-428h-97v428h-63z" />
<glyph horiz-adv-x="1000" />
<glyph horiz-adv-x="1000" />
<glyph unicode="&#xd;" horiz-adv-x="1000" />
<glyph unicode=" "  horiz-adv-x="269" />
<glyph unicode="&#x09;" horiz-adv-x="269" />
<glyph unicode="&#xa0;" horiz-adv-x="269" />
<glyph unicode="!" horiz-adv-x="268" d="M84 706h100l-6 -512h-87zM85 0v97h99v-97h-99z" />
<glyph unicode="&#x22;" horiz-adv-x="345" d="M64 530v188h76v-188h-76zM204 530v188h77v-188h-77z" />
<glyph unicode="#" horiz-adv-x="707" d="M37 191l12 74h131l30 168h-130l12 73h130l35 200h81l-35 -200h155l35 200h82l-35 -200h130l-12 -73h-131l-30 -168h130l-12 -74h-130l-33 -191h-82l34 191h-155l-34 -191h-81l34 191h-131zM261 265h155l30 168h-155z" />
<glyph unicode="$" d="M53 125l71 59q2 -4 7 -11t21 -25.5t34 -32t47.5 -25t61.5 -11.5q54 0 87.5 29.5t33.5 75.5q0 41 -35 71t-85.5 52t-100.5 48t-85 71.5t-35 108.5q0 70 51 119.5t133 60.5v94h73v-93q40 -5 75 -17.5t62.5 -41.5t27.5 -69v-58h-92v33q0 27 -30.5 45.5t-73.5 18.5 q-56 0 -90 -26t-34 -65q0 -30 19 -53t49 -39.5t66 -32t72.5 -34.5t66.5 -42.5t49 -61.5t19 -86q0 -74 -51 -130t-135 -66v-93h-73v92q-40 5 -76 20.5t-58.5 34.5t-39.5 37t-25 30z" />
<glyph unicode="%" horiz-adv-x="748" d="M41 570q0 61 44.5 104.5t107.5 43.5q62 0 107 -43.5t45 -104.5t-45 -104.5t-107 -43.5q-64 0 -108 43t-44 105zM57 0l540 706h94l-540 -706h-94zM119 570q0 -32 21.5 -53t52.5 -21t52.5 21.5t21.5 52.5t-21.5 53t-52.5 22t-52.5 -22t-21.5 -53zM404 136q0 61 44 104.5 t107 43.5t107.5 -43.5t44.5 -104.5t-44.5 -104.5t-107.5 -43.5t-107 43t-44 105zM482 136q0 -31 21 -52.5t52 -21.5t52.5 21t21.5 53q0 31 -21.5 53t-52.5 22t-52 -22t-21 -53z" />
<glyph unicode="&#x26;" horiz-adv-x="638" d="M43 202q0 58 33 109t90 67v2q-4 1 -10 4t-22 15.5t-28 28.5t-22 45t-10 63q0 82 58.5 132t153.5 50q21 0 43.5 -3t34.5 -5l12 -3l-25 -79q-30 7 -54 7q-54 0 -88.5 -31t-34.5 -78q0 -19 5.5 -36.5t18.5 -35.5t40 -28.5t66 -10.5h127v91h97v-91h90v-86h-90v-94 q0 -117 -63.5 -182t-175.5 -65q-108 0 -177 61t-69 153zM145 203q0 -52 39 -88t105 -36q67 0 104.5 39.5t37.5 120.5v90h-126q-77 0 -118.5 -33t-41.5 -93z" />
<glyph unicode="'" horiz-adv-x="205" d="M64 530v188h77v-188h-77z" />
<glyph unicode="(" horiz-adv-x="271" d="M41 329q0 232 113 406h85q-110 -184 -110 -399q0 -230 115 -431h-85q-118 182 -118 424z" />
<glyph unicode=")" horiz-adv-x="271" d="M27 -95q115 201 115 431q0 215 -111 399h86q113 -174 113 -406q0 -240 -118 -424h-85z" />
<glyph unicode="*" horiz-adv-x="483" d="M43 530l27 84l133 -50l-8 142h91l-8 -142l134 50l28 -84l-138 -37v-2l89 -110l-72 -52l-77 118h-2l-77 -118l-72 52l89 110v2z" />
<glyph unicode="+" d="M24 246v78h224v246h82v-246h223v-78h-223v-246h-82v246h-224z" />
<glyph unicode="," horiz-adv-x="249" d="M24 -101l62 206h97l-84 -206h-75z" />
<glyph unicode="-" horiz-adv-x="410" d="M59 242v86h292v-86h-292z" />
<glyph unicode="." horiz-adv-x="217" d="M59 0v103h99v-103h-99z" />
<glyph unicode="/" horiz-adv-x="413" d="M37 -42l254 786h86l-254 -786h-86z" />
<glyph unicode="0" horiz-adv-x="599" d="M50 354q0 364 249 364q250 0 250 -364q0 -366 -250 -366q-249 0 -249 366zM151 354q0 -275 148 -275q149 0 149 275q0 273 -149 273q-148 0 -148 -273z" />
<glyph unicode="1" horiz-adv-x="465" d="M39 542l168 164h92v-620h153v-86h-408v86h155v456l1 43h-2q-8 -15 -33 -40l-67 -65z" />
<glyph unicode="2" horiz-adv-x="570" d="M37 81q0 53 20 95.5t51.5 71t69.5 52.5t76.5 45.5t70 44t51.5 54t20 70.5q0 49 -34 80.5t-90 31.5q-46 0 -77.5 -20t-31.5 -47v-31h-92v60q0 43 35 74t80 43.5t90 12.5q97 0 159.5 -56.5t62.5 -146.5q0 -67 -37 -119t-89.5 -84.5t-105 -61t-89.5 -65t-37 -80.5 q0 -19 25 -19h251q22 0 22 22v45h92v-89q0 -34 -15 -49t-49 -15h-362q-40 0 -53.5 18t-13.5 63z" />
<glyph unicode="3" horiz-adv-x="556" d="M34 87l54 75q8 -9 23 -22.5t61.5 -35.5t94.5 -22q59 0 100 36.5t41 92.5q0 57 -44.5 91.5t-108.5 34.5h-49l-22 53l147 185q9 13 19.5 24.5t16.5 16.5l6 5v2q-21 -3 -60 -3h-137q-22 0 -22 -22v-45h-91v89q0 34 13.5 49t46.5 15h372v-63l-185 -224q79 -9 139.5 -61 t60.5 -146q0 -92 -68 -158t-175 -66q-41 0 -80 10t-65.5 24.5t-47 29.5t-30.5 25z" />
<glyph unicode="4" horiz-adv-x="586" d="M18 187v64l319 455h114v-433h110v-86h-110v-187h-100v187h-333zM127 270q29 3 60 3h165v243l4 72h-2q-17 -33 -35 -59l-156 -212l-36 -45v-2z" />
<glyph unicode="5" horiz-adv-x="548" d="M37 87l55 73q2 -3 6.5 -8.5t20 -19t33 -23.5t46 -18.5t58.5 -8.5q66 0 109 40.5t43 100.5q0 64 -48.5 104t-118.5 40q-35 0 -69 -9t-50 -18l-16 -9l-41 19l28 292q3 35 17 49.5t47 14.5h247q33 0 48 -15t15 -49v-89h-91v45q0 22 -22 22h-148q-19 0 -22 -22l-14 -129 l-5 -37h2q39 21 91 21q113 0 182.5 -66.5t69.5 -165.5q0 -96 -71 -164.5t-183 -68.5q-41 0 -78.5 10t-62 24.5t-43 29.5t-26.5 25z" />
<glyph unicode="6" horiz-adv-x="571" d="M44 313q0 72 19.5 141.5t57 129.5t100.5 97t141 37q37 0 71.5 -7t50.5 -15l15 -7l-32 -85q-44 23 -100 23q-91 0 -145 -70.5t-67 -171.5h2q20 31 64 50t92 19q98 0 160 -66t62 -164q0 -104 -64 -170t-163 -66q-114 0 -189 89.5t-75 235.5zM149 271q0 -71 47 -131.5 t112 -60.5q59 0 94 41t35 104q0 65 -39 105.5t-106 40.5q-58 0 -100.5 -30t-42.5 -69z" />
<glyph unicode="7" horiz-adv-x="528" d="M33 553v89q0 34 13.5 49t46.5 15h430v-68l-343 -638h-110l299 556l41 65v2q-16 -3 -51 -3h-213q-22 0 -22 -22v-45h-91z" />
<glyph unicode="8" horiz-adv-x="579" d="M43 202q0 32 12 63t29.5 51.5t34.5 36t29 23.5l12 7v2q-4 2 -9.5 5.5t-20.5 17t-26.5 28.5t-21 40.5t-9.5 52.5q0 78 59 133.5t161 55.5q100 0 160.5 -53.5t60.5 -137.5q0 -46 -21.5 -88t-42.5 -61l-22 -19v-2q106 -61 106 -162q0 -85 -69.5 -146t-175.5 -61 q-102 0 -174 59.5t-72 154.5zM144 207q0 -57 42.5 -92.5t102.5 -35.5q58 0 100.5 34t42.5 85q0 42 -29.5 67t-88.5 49q-64 26 -73 26q-24 0 -60.5 -41.5t-36.5 -91.5zM171 527q0 -42 28.5 -65t87.5 -46q37 -17 54 -17q20 0 47.5 39t27.5 83q0 48 -34 77t-89 29 q-56 0 -89 -28.5t-33 -71.5z" />
<glyph unicode="9" horiz-adv-x="571" d="M36 482q0 104 64 170t163 66q114 0 189 -89.5t75 -235.5q0 -72 -19.5 -141.5t-57 -129.5t-100 -97t-141.5 -37q-37 0 -71.5 7t-49.5 15l-16 7l32 86q45 -24 101 -24q90 0 145 71t67 172h-2q-21 -32 -64.5 -50.5t-91.5 -18.5q-99 0 -161 65.5t-62 163.5zM134 482 q0 -64 39 -105t106 -41q58 0 100.5 30t42.5 69q0 71 -46.5 131.5t-111.5 60.5q-60 0 -95 -41t-35 -104z" />
<glyph unicode=":" horiz-adv-x="217" d="M59 0v103h99v-103h-99zM59 403v103h99v-103h-99z" />
<glyph unicode=";" horiz-adv-x="268" d="M46 -101l51 206h97l-73 -206h-75zM99 403v103h99v-103h-99z" />
<glyph unicode="&#x3c;" d="M43 252v66l466 208v-89l-357 -151v-2l357 -151v-89z" />
<glyph unicode="=" d="M50 151v78h477v-78h-477zM50 340v78h477v-78h-477z" />
<glyph unicode="&#x3e;" d="M67 44v89l357 151v2l-357 151v89l466 -208v-66z" />
<glyph unicode="?" horiz-adv-x="463" d="M37 656q7 7 21 17.5t59.5 28.5t93.5 18q88 0 148.5 -51t60.5 -132q0 -46 -18 -82.5t-44 -61t-52.5 -47t-44.5 -50.5t-18 -61v-41h-94v47q0 42 17.5 76.5t42.5 58.5t50 46t42.5 49.5t17.5 58.5q0 42 -33 70.5t-82 28.5q-28 0 -56.5 -10.5t-43.5 -20.5l-14 -11zM146 0v97 h100v-97h-100z" />
<glyph unicode="@" horiz-adv-x="782" d="M48 241q0 155 106 262.5t259 107.5q135 0 197.5 -57.5t62.5 -145.5v-283h72v-73h-273q-91 0 -149 55.5t-58 133.5q0 77 57.5 132t149.5 55h108q-2 45 -44.5 74t-117.5 29q-115 0 -194 -85.5t-79 -204.5q0 -121 79.5 -204t204.5 -83v-79q-166 0 -273.5 105.5t-107.5 260.5 zM363 242q0 -49 33 -83t83 -34h101v236h-99q-52 0 -85 -34.5t-33 -84.5z" />
<glyph unicode="A" horiz-adv-x="665" d="M12 0v86h14q26 0 33 22l221 598h105l221 -598q7 -22 33 -22h14v-86h-55q-37 0 -53.5 11.5t-29.5 46.5l-53 145h-259l-53 -145q-13 -35 -29.5 -46.5t-53.5 -11.5h-55zM227 287h211l-77 215l-28 99h-2q-15 -62 -27 -99z" />
<glyph unicode="B" horiz-adv-x="609" d="M33 620v86h303q91 0 148 -48t57 -132q0 -55 -25 -94t-63 -58v-2q54 -16 85 -63t31 -108q0 -96 -64.5 -148.5t-162.5 -52.5h-179q-34 0 -49.5 15t-15.5 49v556h-65zM198 108q0 -22 22 -22h127q55 0 87 33t32 87t-33 87.5t-87 33.5h-148v-219zM198 409h138q47 0 75 30 t28 77t-28 75.5t-77 28.5h-136v-211z" />
<glyph unicode="C" horiz-adv-x="698" d="M35 359q0 153 101.5 256t252.5 103q39 0 82 -8.5t85.5 -25t70 -48t27.5 -71.5v-69h-92v40q0 41 -55 65t-116 24q-108 0 -180 -74t-72 -192q0 -116 73.5 -196.5t181.5 -80.5q39 0 76.5 10t63 24t45 28t29.5 24l9 10l54 -72q-4 -5 -12 -13t-34.5 -28t-56.5 -35.5 t-77.5 -28.5t-97.5 -13q-156 0 -257 106.5t-101 264.5z" />
<glyph unicode="D" horiz-adv-x="714" d="M33 620v86h286q163 0 260.5 -93.5t97.5 -258.5q0 -166 -97.5 -260t-260.5 -94h-156q-34 0 -49.5 15t-15.5 49v556h-65zM198 108q0 -22 22 -22h92q121 0 191 70t70 198q0 127 -70.5 196.5t-190.5 69.5h-114v-512z" />
<glyph unicode="E" horiz-adv-x="571" d="M33 620v86h416q34 0 49 -15t15 -49v-89h-92v45q0 22 -22 22h-201v-221h248v-86h-248v-205q0 -22 22 -22h207q22 0 22 22v45h91v-89q0 -34 -15 -49t-49 -15h-313q-34 0 -49.5 15t-15.5 49v556h-65z" />
<glyph unicode="F" horiz-adv-x="511" d="M33 620v86h390q34 0 49 -15t15 -49v-89h-91v45q0 22 -22 22h-176v-232h242v-86h-242v-302h-100v620h-65z" />
<glyph unicode="G" horiz-adv-x="728" d="M35 356q0 153 102 257.5t254 104.5q75 0 138 -22t89 -44l25 -21l-57 -73q-9 8 -24.5 19t-66 30t-102.5 19q-107 0 -180.5 -76.5t-73.5 -193.5q0 -121 73 -197.5t183 -76.5q35 0 69 9t56.5 22t40.5 26t27 22l8 9v71q0 22 -22 22h-43v86h92q34 0 49.5 -15t15.5 -49v-285 h-88v44l1 30h-2q-3 -3 -9.5 -9t-27.5 -21t-44.5 -26t-61.5 -20.5t-77 -9.5q-145 0 -244.5 103t-99.5 265z" />
<glyph unicode="H" horiz-adv-x="757" d="M34 620v86h101q34 0 49 -15t15 -49v-247h359v247q0 34 15.5 49t49.5 15h100v-86h-43q-22 0 -22 -22v-598h-100v310h-359v-310h-100v598q0 22 -22 22h-43z" />
<glyph unicode="I" horiz-adv-x="318" d="M42 0v86h69v534h-69v86h233v-86h-68v-534h68v-86h-233z" />
<glyph unicode="J" horiz-adv-x="511" d="M16 203v35h100v-27q0 -68 32.5 -98.5t79.5 -30.5q46 0 78 30.5t32 94.5v391q0 22 -22 22h-173v86h230q34 0 49.5 -15t15.5 -49v-439q0 -107 -62 -161t-149 -54t-149 54.5t-62 160.5z" />
<glyph unicode="K" horiz-adv-x="612" d="M34 620v86h101q34 0 49 -15t15 -49v-233h67q44 0 58 24l157 273h112l-171 -293q-9 -16 -19 -27.5t-15 -15.5l-6 -3v-2q20 -5 40 -44l106 -212q11 -23 50 -23h19v-86h-55q-43 0 -62.5 10t-35.5 43l-122 245q-14 26 -63 26h-60v-324h-100v598q0 22 -22 22h-43z" />
<glyph unicode="L" horiz-adv-x="541" d="M33 620v86h101q34 0 49 -15t15 -49v-534q0 -22 22 -22h196q22 0 22 22v45h91v-89q0 -34 -15 -49t-49 -15h-302q-34 0 -49.5 15t-15.5 49v534q0 22 -22 22h-43z" />
<glyph unicode="M" horiz-adv-x="862" d="M23 0v86h33q20 0 22 22l48 598h103l166 -373l35 -90h2q18 51 35 90l166 373h103l48 -598q2 -22 22 -22h34v-86h-89q-34 0 -48 14.5t-17 49.5l-28 373l-2 104h-2q-21 -66 -38 -104l-143 -310h-84l-142 310q-8 16 -17.5 42.5t-15.5 44.5l-5 18h-2q1 -63 -2 -105l-29 -373 q-2 -34 -16.5 -49t-47.5 -15h-89z" />
<glyph unicode="N" horiz-adv-x="757" d="M34 0v86h43q22 0 22 22v598h91l314 -447l59 -96h2q-7 57 -7 96v383q0 34 15.5 49t49.5 15h100v-86h-43q-22 0 -22 -22v-598h-90l-315 447l-58 96h-2q6 -57 6 -96v-383q0 -34 -15 -49t-49 -15h-101z" />
<glyph unicode="O" horiz-adv-x="793" d="M34 358q0 152 104.5 256t257.5 104t258 -104t105 -256q0 -156 -105 -263t-258 -107t-257.5 107t-104.5 263zM138 358q0 -116 75 -196t183 -80t183.5 80t75.5 196q0 113 -75.5 190t-183.5 77t-183 -77t-75 -190z" />
<glyph unicode="P" horiz-adv-x="585" d="M33 620v86h311q98 0 160 -60.5t62 -160.5t-62 -162t-160 -62h-146v-261h-100v620h-65zM198 347h130q63 0 99 37t36 101q0 63 -35.5 99t-98.5 36h-131v-273z" />
<glyph unicode="Q" horiz-adv-x="793" d="M34 357q0 153 104 257t257 104q154 0 259 -104t105 -257q0 -131 -83 -232l81 -79l-60 -64l-81 81q-93 -75 -221 -75q-153 0 -257 107t-104 262zM138 357q0 -116 74.5 -195.5t182.5 -79.5q41 0 78.5 12t54.5 24l16 13l-78 76l60 65l77 -79q52 71 52 164q0 114 -75 190.5 t-185 76.5q-109 0 -183 -76.5t-74 -190.5z" />
<glyph unicode="R" horiz-adv-x="622" d="M33 620v86h309q94 0 152.5 -56t58.5 -151q0 -80 -41 -128.5t-87 -58.5v-2q18 -9 30 -32l85 -169q12 -23 51 -23h13v-86h-49q-44 0 -63 10t-36 43l-96 190q-12 24 -25.5 31t-43.5 7h-93v-281h-100v620h-65zM198 367h131q57 0 89 34t32 94q0 59 -32 92t-88 33h-132v-253z " />
<glyph unicode="S" horiz-adv-x="525" d="M29 93l58 71q3 -3 8.5 -9t24 -20.5t38 -26t49 -20.5t58.5 -9q50 0 85 29t35 76q0 40 -35 70t-85 52t-100 47.5t-85 70t-35 105.5q0 81 63.5 135t162.5 54q43 0 86 -11.5t78.5 -42.5t35.5 -76v-58h-92v33q0 27 -32.5 45.5t-76.5 18.5q-55 0 -89.5 -27t-34.5 -68 q0 -33 25.5 -58.5t63 -41.5t82 -37.5t82 -44t63 -64.5t25.5 -97q0 -84 -61 -142.5t-163 -58.5q-42 0 -82 11t-66 26t-46.5 30.5t-30.5 26.5z" />
<glyph unicode="T" horiz-adv-x="632" d="M13 553v93q0 34 13 47t47 13h486q34 0 47 -13t13 -47v-93h-89v45q0 22 -22 22h-142v-620h-100v620h-141q-22 0 -22 -22v-45h-90z" />
<glyph unicode="U" horiz-adv-x="720" d="M26 620v86h100q34 0 49.5 -15t15.5 -49v-391q0 -79 45.5 -124t123.5 -45q77 0 123 45.5t46 124.5v390q0 34 15 49t49 15h101v-86h-43q-22 0 -22 -22v-351q0 -116 -74 -187.5t-194 -71.5q-121 0 -195.5 71.5t-74.5 187.5v351q0 22 -22 22h-43z" />
<glyph unicode="V" horiz-adv-x="667" d="M11 620v86h57q38 0 54 -11.5t28 -46.5l155 -435l27 -97h2q14 59 27 97l155 435q13 35 29 46.5t54 11.5h57v-86h-14q-25 0 -34 -22l-222 -598h-106l-221 598q-9 22 -34 22h-14z" />
<glyph unicode="W" horiz-adv-x="967" d="M16 620v86h58q39 0 58.5 -12t27.5 -46l110 -454l13 -75h2q7 36 17 75l143 510h89l132 -510l15 -75h2q5 37 14 75l110 454q8 34 27 46t59 12h58v-86h-15q-29 0 -35 -22l-154 -598h-117l-120 446l-20 97h-2q-9 -51 -22 -96l-129 -447h-117l-154 598q-6 22 -35 22h-15z" />
<glyph unicode="X" horiz-adv-x="595" d="M12 0l222 364l-142 231q-10 16 -19.5 20.5t-27.5 4.5h-25v86h58q38 0 57 -10.5t38 -43.5l79 -134l45 -83h2q20 44 43 83l80 134q19 33 38 43.5t56 10.5h59v-86h-26q-31 0 -46 -25l-143 -231l223 -364h-113l-129 215l-44 80h-2q-21 -42 -43 -81l-128 -214h-112z" />
<glyph unicode="Y" horiz-adv-x="606" d="M11 620v86h46q37 0 56 -10t39 -44l107 -178l43 -79h2q20 40 43 79l106 178q20 34 39 44t56 10h47v-86h-20q-29 0 -44 -25l-178 -287v-308h-100v308l-179 287q-14 25 -43 25h-20z" />
<glyph unicode="Z" horiz-adv-x="600" d="M32 0v66l348 490q12 17 25 33.5t21 24.5l7 7v2q-19 -3 -53 -3h-227q-22 0 -22 -22v-45h-91v89q0 34 15 49t49 15h452v-65l-348 -491q-12 -17 -25.5 -33t-20.5 -23l-7 -8v-2q19 2 53 2h249q22 0 22 22v45h91v-89q0 -34 -15 -49t-49 -15h-474z" />
<glyph unicode="[" horiz-adv-x="282" d="M78 -31v702q0 34 15 49t49 15h102v-73h-59q-22 0 -22 -22v-639q0 -22 22 -22h59v-74h-102q-34 0 -49 15t-15 49z" />
<glyph unicode="\" horiz-adv-x="413" d="M36 744h86l254 -786h-86z" />
<glyph unicode="]" horiz-adv-x="282" d="M39 -21h58q22 0 22 22v639q0 22 -22 22h-58v73h101q34 0 49.5 -15t15.5 -49v-702q0 -34 -15.5 -49t-49.5 -15h-101v74z" />
<glyph unicode="^" horiz-adv-x="613" d="M69 247l200 459h63l200 -459h-88l-144 352l-143 -352h-88z" />
<glyph unicode="_" horiz-adv-x="565" d="M14 0h538v-78h-538v78z" />
<glyph unicode="`" horiz-adv-x="379" d="M83 882h98l73 -127h-76z" />
<glyph unicode="a" horiz-adv-x="529" d="M28 138q0 177 306 177h22v7q0 64 -26.5 91.5t-85.5 27.5q-28 0 -55.5 -8.5t-27.5 -30.5v-29h-92v51q0 28 20 48.5t50.5 29.5t55.5 12.5t47 3.5q117 0 164 -52t47 -146v-215q0 -22 22 -22h41v-83h-92q-62 0 -62 58l1 30h-2q1 0 -4.5 -10.5t-18 -25t-30.5 -29t-47 -25 t-63 -10.5q-70 0 -120 40.5t-50 109.5zM125 147q0 -33 25 -57.5t70 -24.5q60 0 98 50t38 111v19h-26q-205 0 -205 -98z" />
<glyph unicode="b" horiz-adv-x="583" d="M4 623v83h95q34 0 49.5 -15t15.5 -49v-165l-2 -42h2q2 3 5.5 9t17.5 20t31 25t46 20t62 9q101 0 162 -73t61 -192t-65 -192t-166 -73q-32 0 -60 9t-45 21t-30 24.5t-19 21.5l-5 9h-2q2 -16 2 -38v-35h-92v601q0 22 -22 22h-41zM161 251q0 -73 37.5 -126.5t105.5 -53.5 q62 0 104 48.5t42 132.5q0 82 -39.5 131.5t-103.5 49.5q-62 0 -104 -45.5t-42 -136.5z" />
<glyph unicode="c" horiz-adv-x="530" d="M33 253q0 113 75.5 189t196.5 76q26 0 55 -5.5t58.5 -17.5t49 -35t19.5 -53v-52h-88v28q0 25 -30.5 38.5t-63.5 13.5q-75 0 -124.5 -50.5t-49.5 -130.5q0 -83 52 -131.5t127 -48.5q42 0 81.5 17.5t57.5 34.5l18 18l41 -69q-3 -4 -8.5 -9.5t-25 -20.5t-41.5 -26.5t-57 -21 t-73 -9.5q-119 0 -194.5 75t-75.5 190z" />
<glyph unicode="d" horiz-adv-x="601" d="M35 253q0 120 63.5 192.5t164.5 72.5q33 0 61 -8t44.5 -19.5t29 -23t16.5 -19.5l5 -8h2q-1 15 -1 34v127q0 22 -22 22h-41v83h95q34 0 49.5 -15t15.5 -49v-537q0 -22 22 -22h41v-83h-93q-62 0 -62 54l1 26h-2q-2 -4 -5.5 -10t-17.5 -22t-31 -28t-47 -22t-65 -10 q-102 0 -162.5 73t-60.5 192zM133 253q0 -82 40 -131.5t104 -49.5q62 0 103.5 45.5t41.5 136.5q0 74 -37 127t-106 53q-62 0 -104 -49t-42 -132z" />
<glyph unicode="e" horiz-adv-x="539" d="M33 253q0 119 72 192t182 73q103 0 160.5 -67.5t57.5 -169.5q0 -17 -3 -41h-369q4 -79 54 -123.5t121 -44.5q16 0 31.5 2.5t29 7.5t24.5 9.5t22.5 11.5t17.5 11l15 10l9 7l41 -71q-17 -14 -40 -28t-67.5 -29t-88.5 -15q-118 0 -193.5 75.5t-75.5 189.5zM137 310h271 q-2 63 -36.5 98t-86.5 35q-57 0 -97.5 -35.5t-50.5 -97.5z" />
<glyph unicode="f" horiz-adv-x="316" d="M22 428v78h63v17q0 48 14 83.5t34.5 55t48 31t49.5 15t45 3.5l37 -3v-83q-10 2 -25 2q-13 0 -25.5 -2t-28 -8.5t-26.5 -17.5t-18.5 -31t-7.5 -47v-15h120v-78h-120v-428h-97v428h-63z" />
<glyph unicode="g" horiz-adv-x="594" d="M35 265q0 112 59.5 182.5t162.5 70.5q36 0 65.5 -8t47 -20t29.5 -23.5t17 -19.5l4 -8h2q-1 8 -1 16q0 51 57 51h94v-83h-41q-22 0 -22 -20v-382q0 -60 -21.5 -106t-58 -72.5t-81 -39.5t-94.5 -13q-90 0 -172 42l32 78q63 -34 138 -34q72 0 116.5 34.5t44.5 106.5v34l1 32 h-2q-47 -77 -150 -77t-165 73.5t-62 185.5zM134 267q0 -80 39.5 -128.5t107.5 -48.5q59 0 96.5 41t37.5 133q0 170 -143 170q-65 0 -101.5 -44.5t-36.5 -122.5z" />
<glyph unicode="h" horiz-adv-x="605" d="M4 623v83h95q65 0 65 -62v-197l-2 -42h2q20 44 69 78.5t118 34.5q174 0 174 -194v-219q0 -22 22 -22h41v-83h-96q-34 0 -49 15t-15 49v238q0 61 -19.5 94t-75.5 33q-57 0 -101 -35t-60 -90q-8 -27 -8 -67v-237h-97v601q0 22 -22 22h-41z" />
<glyph unicode="i" horiz-adv-x="265" d="M21 423v83h95q34 0 49.5 -15t15.5 -49v-337q0 -22 22 -22h41v-83h-96q-34 0 -49 15t-15 49v337q0 22 -22 22h-41zM86 605v101h87v-101h-87z" />
<glyph unicode="j" horiz-adv-x="245" d="M-47 -121q9 -1 22 -1q18 0 34 4t34.5 14t29.5 34t11 59v412q0 22 -22 22h-41v83h96q34 0 49 -15t15 -49v-459q0 -48 -14.5 -84t-35 -55.5t-49 -31.5t-50.5 -15t-45 -3l-34 2v83zM86 605v101h87v-101h-87z" />
<glyph unicode="k" horiz-adv-x="513" d="M4 623v83h95q35 0 50 -12.5t15 -45.5v-328h45q36 0 52 22l117 164h112l-138 -188q-10 -14 -19.5 -23.5t-14.5 -12.5l-4 -2v-2q17 -6 34 -38l75 -137q11 -20 44 -20h30v-83h-70q-35 0 -51 9t-32 38l-93 170q-11 21 -50 21h-37v-238h-97v601q0 22 -22 22h-41z" />
<glyph unicode="l" horiz-adv-x="249" d="M5 623v83h95q34 0 49 -15t15 -49v-537q0 -22 22 -22h41v-83h-95q-34 0 -49.5 15t-15.5 49v537q0 22 -22 22h-40z" />
<glyph unicode="m" horiz-adv-x="934" d="M22 423v83h93q64 0 64 -56v-19l-1 -29h2q19 47 67.5 81.5t105.5 34.5q126 0 153 -115h2q21 48 70.5 81.5t108.5 33.5q167 0 167 -194v-219q0 -22 22 -22h41v-83h-96q-34 0 -49 15t-15 49v239q0 61 -18.5 94t-70.5 33q-66 0 -108 -59t-42 -140v-231h-97v303 q0 60 -17.5 93.5t-69.5 33.5t-91 -38.5t-54 -95.5q-7 -28 -7 -65v-231h-97v401q0 22 -22 22h-41z" />
<glyph unicode="n" horiz-adv-x="623" d="M22 423v83h93q64 0 64 -56v-19l-2 -29h2q20 43 68.5 79.5t122.5 36.5q173 0 173 -194v-219q0 -22 22 -22h41v-83h-96q-34 0 -49 15t-15 49v238q0 61 -19.5 94t-75.5 33q-74 0 -121.5 -54t-47.5 -138v-237h-97v401q0 22 -22 22h-41z" />
<glyph unicode="o" horiz-adv-x="611" d="M33 254q0 114 79 189t193 75q115 0 194 -75t79 -189t-79.5 -190t-193.5 -76t-193 76t-79 190zM131 254q0 -78 51 -130t123 -52q73 0 123.5 51.5t50.5 130.5q0 78 -50.5 129t-123.5 51q-72 0 -123 -51t-51 -129z" />
<glyph unicode="p" horiz-adv-x="601" d="M22 423v83h91q62 0 62 -51l-1 -27h2q2 4 5.5 10t17.5 21.5t31.5 27.5t48 21.5t65.5 9.5q102 0 162.5 -73t60.5 -192t-64.5 -192t-165.5 -73q-31 0 -58.5 8.5t-44.5 20t-29.5 23.5t-17.5 20l-5 9h-2q2 -18 2 -44v-225h-97v601q0 22 -22 22h-41zM179 251q0 -73 38.5 -126.5 t105.5 -53.5q62 0 103.5 49t41.5 132q0 82 -39.5 131.5t-103.5 49.5q-62 0 -104 -45.5t-42 -136.5z" />
<glyph unicode="q" horiz-adv-x="602" d="M35 253q0 120 63.5 192.5t164.5 72.5q34 0 63 -9t46.5 -21.5t30.5 -25t18 -21.5l5 -9h2q-1 11 -1 26q0 48 62 48h91v-83h-41q-22 0 -22 -22v-601h-97v229l2 44h-2q-2 -3 -5.5 -9t-17.5 -20.5t-30.5 -26t-46 -20.5t-62.5 -9q-102 0 -162.5 73t-60.5 192zM133 253 q0 -82 40 -131.5t104 -49.5q62 0 103.5 45.5t41.5 136.5q0 74 -37 127t-106 53q-62 0 -104 -49t-42 -132z" />
<glyph unicode="r" horiz-adv-x="376" d="M22 423v83h93q64 0 64 -59v-32l-2 -35h2q19 58 61.5 95t98.5 37l26 -2v-96q-13 3 -28 3q-48 0 -86.5 -31.5t-56.5 -87.5q-12 -39 -12 -91v-207h-97v401q0 22 -22 22h-41z" />
<glyph unicode="s" horiz-adv-x="449" d="M28 77l49 65q2 -3 7 -8t20.5 -18t32 -23t42.5 -18t52 -8q37 0 62 17t25 48q0 25 -28.5 44t-68.5 34.5t-80.5 34.5t-69 52.5t-28.5 78.5q0 69 53 105.5t135 36.5q59 0 112.5 -23.5t53.5 -74.5v-48h-87v25q0 20 -24.5 31.5t-51.5 11.5q-44 0 -69.5 -15.5t-25.5 -44.5 q0 -26 28.5 -45.5t69.5 -34t81.5 -32.5t69 -51.5t28.5 -80.5q0 -67 -52.5 -107.5t-133.5 -40.5q-38 0 -72.5 9t-57 22t-40 26.5t-24.5 22.5z" />
<glyph unicode="t" horiz-adv-x="328" d="M17 428v78h68v139h95v-139h122v-78h-122v-232q0 -29 8 -50.5t19.5 -33.5t27 -19t28 -9t25.5 -2l23 2v-86q-14 -2 -34 -2q-24 0 -46 3t-50 15t-48.5 31.5t-35 55.5t-14.5 84v243h-66z" />
<glyph unicode="u" horiz-adv-x="617" d="M17 423v83h95q34 0 49 -15t15 -47v-240q0 -60 20 -93t75 -33q75 0 120 56t45 135v237h97v-401q0 -22 22 -22h41v-83h-93q-64 0 -64 56v19l1 29h-2q-19 -44 -68.5 -80t-117.5 -36q-86 0 -129 47.5t-43 146.5v219q0 22 -22 22h-41z" />
<glyph unicode="v" horiz-adv-x="534" d="M14 423v83h50q34 0 50 -10.5t27 -40.5l109 -291l18 -66h2q8 38 18 66l108 291q11 30 27.5 40.5t49.5 10.5h47v-83h-10q-25 0 -32 -20l-155 -403h-112l-156 403q-7 20 -31 20h-10z" />
<glyph unicode="w" horiz-adv-x="845" d="M15 423v83h61q34 0 50 -11t26 -43l89 -301l12 -54h2q6 28 14 54l109 353h90l109 -353l13 -54h2q5 28 13 54l89 301q10 32 25.5 43t49.5 11h61v-83h-14q-24 0 -31 -20l-133 -403h-109l-105 325l-14 55h-2q-6 -29 -14 -55l-105 -325h-109l-133 403q-8 20 -32 20h-14z" />
<glyph unicode="x" horiz-adv-x="505" d="M20 0l171 260l-97 144q-13 19 -42 19h-29v83h62q35 0 52 -9.5t37 -41.5l61 -98l16 -32h2q9 19 17 32l61 98q20 32 37 41.5t52 9.5h62v-83h-29q-29 0 -42 -18l-97 -145l171 -260h-110l-106 165l-16 27h-2q-7 -15 -15 -27l-106 -165h-110z" />
<glyph unicode="y" horiz-adv-x="543" d="M2 -160l40 70q1 -3 10 -11t27 -16.5t37 -8.5q58 0 89 73l23 55l-173 401q-9 20 -31 20h-13v83h57q31 0 46 -10.5t27 -40.5l114 -285l18 -61h2q8 35 17 61l106 285q10 30 26 40.5t47 10.5h58v-83h-13q-23 0 -32 -20l-199 -494q-24 -58 -67 -88.5t-97 -30.5q-33 0 -63 12.5 t-43 25.5z" />
<glyph unicode="z" horiz-adv-x="515" d="M37 0v56l259 320l41 47v2q-15 -2 -48 -2h-139q-22 0 -22 -22v-34h-89v75q0 34 15.5 49t49.5 15h361v-56l-259 -321l-42 -46v-2q16 2 49 2h161q22 0 22 22v34h89v-75q0 -34 -15 -49t-49 -15h-384z" />
<glyph unicode="{" horiz-adv-x="323" d="M25 282v86q3 0 9 1t20.5 8t26 18t20.5 33t9 51v84q0 45 12.5 78.5t30 51t42 28.5t42 13.5t35.5 2.5l23 -1v-74h-14q-13 0 -24.5 -3.5t-27 -13t-25 -32t-9.5 -56.5v-103q0 -28 -8.5 -51t-20.5 -36.5t-23.5 -23t-20.5 -13.5l-8 -3v-2q3 -1 8.5 -3t19.5 -12t24.5 -23 t19.5 -36.5t9 -52.5v-115q0 -34 9.5 -56.5t25 -32t27 -13t24.5 -3.5h14v-74q-9 -2 -23 -2q-18 0 -35.5 2.5t-42 13.5t-42 28.5t-30 51.5t-12.5 79v96q0 29 -9 50.5t-21 32t-24.5 17t-21.5 7.5z" />
<glyph unicode="|" horiz-adv-x="239" d="M77 -159v951h85v-951h-85z" />
<glyph unicode="}" horiz-adv-x="323" d="M28 -22h14q13 0 24.5 3.5t27 13t25 32t9.5 56.5v115q0 29 8.5 52.5t20 37t23.5 22.5t20 12l9 3v2q-3 1 -8.5 3.5t-19.5 12.5t-24.5 23t-19.5 36.5t-9 51.5v103q0 34 -9.5 56.5t-25 32t-27 13t-24.5 3.5h-14v74q9 1 23 1q18 0 35.5 -2.5t42 -13.5t42 -28.5t30 -51 t12.5 -78.5v-84q0 -29 9 -51t21 -33t24.5 -17.5t21.5 -7.5l9 -2v-86q-3 0 -9 -1t-20.5 -8t-26 -17.5t-20.5 -32t-9 -50.5v-96q0 -45 -12.5 -79t-30 -51.5t-42 -28.5t-42 -13.5t-35.5 -2.5l-23 2v74z" />
<glyph unicode="~" horiz-adv-x="591" d="M58 204q0 85 37 127t103 42q35 0 63.5 -15.5t43.5 -33.5t37.5 -33.5t47.5 -15.5q35 0 50.5 28t15.5 66h79q0 -169 -139 -169q-35 0 -63.5 15t-43.5 33.5t-37.5 33.5t-47.5 15q-35 0 -50.5 -28t-15.5 -65h-80z" />
<glyph unicode="&#xa1;" horiz-adv-x="243" d="M71 -200l7 512h87l7 -512h-101zM71 409v97h100v-97h-100z" />
<glyph unicode="&#xa2;" d="M59 353q0 111 55 189.5t149 91.5v110h73v-110q126 -19 182 -155l-89 -34q-41 99 -126 99q-68 0 -106.5 -53.5t-38.5 -137.5q0 -86 38 -138t107 -52q86 0 126 99l89 -35q-26 -61 -72 -104t-110 -50v-111h-73v111q-94 13 -149 91.5t-55 188.5z" />
<glyph unicode="&#xa3;" d="M46 0v86h61v233h-44v70h44v136q0 83 61.5 138t155.5 55q45 0 86.5 -16t61.5 -32l19 -16l-57 -69q-48 43 -109 43q-54 0 -86 -30.5t-32 -76.5v-132h184v-70h-184v-233h216q22 0 22 22v45h92v-89q0 -34 -15 -49t-49 -15h-427z" />
<glyph unicode="&#xa4;" horiz-adv-x="617" d="M57 170v70h71v70h-71v79h71v237h-65v80h297q99 0 160.5 -53t61.5 -144q0 -92 -61.5 -145.5t-160.5 -53.5h-132v-70h250v-70h-250v-170h-100v170h-71zM228 389h116q63 0 99 33t36 87t-35.5 85.5t-98.5 31.5h-117v-237z" />
<glyph unicode="&#xa5;" horiz-adv-x="617" d="M16 620v86h44q38 0 58 -10t40 -44l106 -178l43 -78h2q20 39 43 78l107 178q19 34 39 44t58 10h44v-86h-17q-31 0 -45 -22l-111 -181v-2h91v-63h-132l-28 -44v-41h160v-63h-160v-204h-100v204h-160v63h160v41l-27 44h-136v63h94v2l-112 181q-13 22 -44 22h-17z" />
<glyph unicode="&#xa7;" horiz-adv-x="437" d="M46 -11l44 67q42 -37 97 -37q46 0 76 27.5t30 77.5q0 20 -6 45l-66 376h79l70 -390q5 -20 5 -45q0 -76 -51 -124t-137 -48q-39 0 -74 12.5t-51 25.5zM61 547q0 75 51 123t138 48q39 0 74 -13t51 -25l16 -13l-46 -64q-40 34 -95 34q-47 0 -76.5 -26t-29.5 -75q0 -21 5 -40 l68 -385h-79l-71 390q-6 23 -6 46z" />
<glyph unicode="&#xa8;" horiz-adv-x="501" d="M142 781v101h74v-101h-74zM307 781v101h73v-101h-73z" />
<glyph unicode="&#xa9;" horiz-adv-x="803" d="M44 353q0 152 104 258.5t251 106.5q150 0 254.5 -106.5t104.5 -258.5t-104.5 -258.5t-254.5 -106.5q-147 0 -251 106.5t-104 258.5zM118 353q0 -125 81 -211t200 -86q121 0 203.5 86t82.5 211t-82.5 211t-203.5 86q-119 0 -200 -86t-81 -211zM210 352q0 82 54.5 141 t142.5 59q32 0 60.5 -10t46.5 -24.5t31.5 -29.5t18.5 -25l6 -10l-61 -33q-4 7 -11.5 17.5t-33.5 28t-55 17.5q-56 0 -90 -38.5t-34 -92.5q0 -56 33 -93.5t91 -37.5q30 0 55 16t35 31l10 16l61 -33q-2 -4 -6 -10.5t-18.5 -24t-32 -30.5t-46 -23.5t-60.5 -10.5 q-88 0 -142.5 58.5t-54.5 141.5z" />
<glyph unicode="&#xaa;" horiz-adv-x="440" d="M66 265v57h312v-57h-312zM67 482q0 107 184 107h14q-1 37 -15 51.5t-46 14.5q-43 0 -43 -17v-19h-69v40q0 17 13 29.5t32.5 18t36 7.5t31.5 2q132 0 132 -126v-126q0 -10 10 -10h28v-65h-58q-42 0 -46 37l-1 10h-2q-3 -6 -9.5 -15t-30 -23.5t-52.5 -14.5q-45 0 -77 26.5 t-32 72.5zM141 485q0 -18 13 -30.5t36 -12.5q33 0 53 28t22 68h-11q-113 0 -113 -53z" />
<glyph unicode="&#xab;" horiz-adv-x="549" d="M41 282l164 206h97l-164 -206l164 -205h-97zM243 282l164 206h97l-164 -206l164 -205h-97z" />
<glyph unicode="&#xac;" horiz-adv-x="604" d="M62 340v78h477v-267h-81v189h-396z" />
<glyph unicode="&#xad;" horiz-adv-x="410" d="M59 242v86h292v-86h-292z" />
<glyph unicode="&#xae;" horiz-adv-x="803" d="M44 353q0 152 104 258.5t251 106.5q150 0 254.5 -106.5t104.5 -258.5t-104.5 -258.5t-254.5 -106.5q-147 0 -251 106.5t-104 258.5zM118 353q0 -125 81 -211t200 -86q121 0 203.5 86t82.5 211t-82.5 211t-203.5 86q-119 0 -200 -86t-81 -211zM244 489v54h179 q54 0 86.5 -31.5t32.5 -83.5q0 -40 -21.5 -66.5t-47.5 -33.5v-2q12 -3 21 -20l39 -75q7 -13 24 -13h11v-52h-39q-22 0 -33.5 5t-20.5 23l-51 99q-10 19 -35 19h-41v-146h-71v323h-33zM348 364h60q29 0 45 17t16 47q0 29 -16 45t-44 16h-61v-125z" />
<glyph unicode="&#xaf;" horiz-adv-x="464" d="M108 784v68h254v-68h-254z" />
<glyph unicode="&#xb0;" horiz-adv-x="384" d="M40 570q0 61 44.5 104.5t107.5 43.5q62 0 107 -43.5t45 -104.5t-45 -104.5t-107 -43.5q-63 0 -107.5 43.5t-44.5 104.5zM118 570q0 -31 21.5 -52.5t52.5 -21.5t52.5 21.5t21.5 52.5t-21.5 53t-52.5 22t-52.5 -22t-21.5 -53z" />
<glyph unicode="&#xb1;" d="M24 246v78h224v246h82v-246h223v-78h-223v-246h-82v246h-224zM40 -95h497v-78h-497v78z" />
<glyph unicode="&#xb2;" horiz-adv-x="376" d="M30 325q0 31 10 55.5t31 44t38 31t45 27.5q31 17 47 28t30.5 31t14.5 43q0 26 -18 42.5t-48 16.5q-25 0 -41.5 -10.5t-16.5 -24.5v-24h-71v44q0 41 43 63.5t87 22.5q63 0 102.5 -36t39.5 -94q0 -31 -10.5 -55t-34 -44.5t-38.5 -30t-47 -27.5q-28 -16 -43 -26t-28.5 -27 t-13.5 -36q0 -6 9 -6h148q6 0 6 7v34h71v-62q0 -46 -46 -46h-218q-27 0 -37.5 12t-10.5 47z" />
<glyph unicode="&#xb3;" horiz-adv-x="376" d="M31 338l52 49q5 -6 14 -16t36 -26t54 -16q31 0 53.5 20.5t22.5 51.5t-23.5 49t-57.5 18h-35l-12 44l85 106l21 23v2q-16 -2 -33 -2h-76q-9 0 -9 -10v-26h-71v53q0 27 10 37.5t37 10.5h233v-51l-105 -127q46 -6 79.5 -41.5t33.5 -86.5q0 -62 -45 -102t-108 -40 q-42 0 -81 20t-57 40z" />
<glyph unicode="&#xb4;" horiz-adv-x="388" d="M119 755l73 127h98l-95 -127h-76z" />
<glyph unicode="&#xb6;" horiz-adv-x="592" d="M35 474q0 97 69.5 164.5t167.5 67.5h271v-86h-196v-670h-75v291q-97 0 -167 67.5t-70 165.5zM409 -50v613h75v-613h-75z" />
<glyph unicode="&#xb7;" horiz-adv-x="217" d="M59 239v103h99v-103h-99z" />
<glyph unicode="&#xb8;" horiz-adv-x="416" d="M112 -142q20 -7 43 -7q47 0 47 31t-53 31l-17 -1l28 111l49 -10v-8l-11 -55q31 -4 51 -23t20 -50q0 -43 -29 -63.5t-73 -20.5q-14 0 -27.5 1.5t-20.5 3.5l-7 2v58z" />
<glyph unicode="&#xb9;" horiz-adv-x="376" d="M62 601l109 105h66v-373h92v-67h-261v67h93v241l1 33h-2q-5 -10 -12 -17l-40 -38z" />
<glyph unicode="&#xba;" horiz-adv-x="466" d="M61 552q0 71 50 118t121 47q72 0 122 -47t50 -118q0 -73 -50 -120.5t-122 -47.5t-121.5 47.5t-49.5 120.5zM77 265v57h313v-57h-313zM134 552q0 -45 28.5 -74t69.5 -29q42 0 70.5 29t28.5 74q0 44 -28.5 72.5t-70.5 28.5q-41 0 -69.5 -28.5t-28.5 -72.5z" />
<glyph unicode="&#xbb;" horiz-adv-x="549" d="M45 77l164 205l-164 206h97l164 -206l-164 -205h-97zM247 77l164 205l-164 206h97l164 -206l-164 -205h-97z" />
<glyph unicode="&#xbc;" horiz-adv-x="874" d="M48 601l109 105h66v-373h89v-67h-258v67h93v241l1 33h-2q-5 -10 -12 -17l-40 -38zM261 0l287 706h80l-287 -706h-80zM493 113v46l192 282h87v-261h66v-67h-66v-113h-76v113h-203zM575 179q13 1 20 1h102v137l1 36h-2q-6 -14 -15 -27l-92 -129l-14 -16v-2z" />
<glyph unicode="&#xbd;" horiz-adv-x="866" d="M45 601l108 105h67v-373h89v-67h-258v67h93v241l1 33h-2q-5 -10 -12 -17l-40 -38zM246 0l287 706h80l-286 -706h-81zM516 59q0 31 10 55.5t31 44.5t37.5 31t45.5 28q22 12 35 20.5t28 21t22 27t7 32.5q0 26 -18 43t-48 17q-25 0 -41.5 -10.5t-16.5 -24.5v-24h-71v43 q0 41 43 63.5t87 22.5q63 0 102.5 -36t39.5 -93q0 -31 -10.5 -55.5t-34 -45t-38.5 -30t-47 -27.5q-28 -16 -43 -26t-28.5 -27t-13.5 -35q0 -7 9 -7h148q6 0 6 7v34h71v-61q0 -47 -46 -47h-218q-27 0 -37.5 12.5t-10.5 46.5z" />
<glyph unicode="&#xbe;" horiz-adv-x="877" d="M40 338l52 49q5 -6 14 -16t36 -26t53 -16q32 0 54.5 20.5t22.5 51.5t-23.5 49t-57.5 18h-35l-12 44l84 106l22 23v2q-16 -2 -33 -2h-76q-10 0 -10 -10v-26h-70v53q0 27 10 37.5t37 10.5h233v-51l-105 -127q46 -6 79.5 -41.5t33.5 -86.5q0 -62 -45 -102t-108 -40 q-42 0 -81 20t-57 40zM262 0l287 706h80l-286 -706h-81zM496 113v46l192 282h87v-261h66v-67h-66v-113h-76v113h-203zM578 179q13 1 20 1h102v137l1 36h-2q-6 -14 -15 -27l-91 -129l-15 -16v-2z" />
<glyph unicode="&#xbf;" horiz-adv-x="457" d="M40 -28q0 46 18 82.5t44 61t52.5 47t44.5 51t18 61.5v37h94v-43q0 -42 -17.5 -77t-42.5 -58.5t-49.5 -45.5t-42 -49.5t-17.5 -58.5q0 -42 32.5 -71t81.5 -29q28 0 56.5 11t43.5 21l14 11l53 -69q-3 -3 -8 -7t-22 -15t-36 -19.5t-48 -15.5t-60 -7q-88 0 -148.5 50.5 t-60.5 131.5zM214 409v97h100v-97h-100z" />
<glyph unicode="&#xc0;" horiz-adv-x="665" d="M12 0v86h14q26 0 33 22l221 598h105l221 -598q7 -22 33 -22h14v-86h-55q-37 0 -53.5 11.5t-29.5 46.5l-53 145h-259l-53 -145q-13 -35 -29.5 -46.5t-53.5 -11.5h-55zM198 882h98l73 -127h-76zM227 287h211l-77 215l-28 99h-2q-15 -62 -27 -99z" />
<glyph unicode="&#xc1;" horiz-adv-x="665" d="M12 0v86h14q26 0 33 22l221 598h105l221 -598q7 -22 33 -22h14v-86h-55q-37 0 -53.5 11.5t-29.5 46.5l-53 145h-259l-53 -145q-13 -35 -29.5 -46.5t-53.5 -11.5h-55zM227 287h211l-77 215l-28 99h-2q-15 -62 -27 -99zM293 755l73 127h98l-95 -127h-76z" />
<glyph unicode="&#xc2;" horiz-adv-x="665" d="M12 0v86h14q26 0 33 22l221 598h105l221 -598q7 -22 33 -22h14v-86h-55q-37 0 -53.5 11.5t-29.5 46.5l-53 145h-259l-53 -145q-13 -35 -29.5 -46.5t-53.5 -11.5h-55zM201 755l87 127h89l88 -127h-79l-52 80h-2l-53 -80h-78zM227 287h211l-77 215l-28 99h-2 q-15 -62 -27 -99z" />
<glyph unicode="&#xc3;" horiz-adv-x="665" d="M12 0v86h14q26 0 33 22l221 598h105l221 -598q7 -22 33 -22h14v-86h-55q-37 0 -53.5 11.5t-29.5 46.5l-53 145h-259l-53 -145q-13 -35 -29.5 -46.5t-53.5 -11.5h-55zM162 756q0 127 103 127q29 0 52 -17t40.5 -34t35.5 -17q21 0 31 20t10 45h65q0 -127 -103 -127 q-29 0 -51.5 17t-40.5 34t-36 17q-21 0 -30.5 -19.5t-9.5 -45.5h-66zM227 287h211l-77 215l-28 99h-2q-15 -62 -27 -99z" />
<glyph unicode="&#xc4;" horiz-adv-x="665" d="M12 0v86h14q26 0 33 22l221 598h105l221 -598q7 -22 33 -22h14v-86h-55q-37 0 -53.5 11.5t-29.5 46.5l-53 145h-259l-53 -145q-13 -35 -29.5 -46.5t-53.5 -11.5h-55zM214 781v101h74v-101h-74zM227 287h211l-77 215l-28 99h-2q-15 -62 -27 -99zM379 781v101h73v-101h-73z " />
<glyph unicode="&#xc5;" horiz-adv-x="665" d="M12 0v86h14q26 0 33 22l221 598h105l221 -598q7 -22 33 -22h14v-86h-55q-37 0 -53.5 11.5t-29.5 46.5l-53 145h-259l-53 -145q-13 -35 -29.5 -46.5t-53.5 -11.5h-55zM227 287h211l-77 215l-28 99h-2q-15 -62 -27 -99zM252 817q0 34 23.5 54.5t57.5 20.5q33 0 57 -20.5 t24 -54.5q0 -33 -24 -53.5t-57 -20.5q-34 0 -57.5 20.5t-23.5 53.5zM299 817q0 -14 9.5 -23.5t24.5 -9.5t24.5 9.5t9.5 23.5q0 16 -9.5 25.5t-24.5 9.5t-24.5 -9.5t-9.5 -25.5z" />
<glyph unicode="&#xc6;" horiz-adv-x="863" d="M10 0v86h11q25 0 34 22l237 598h448q34 0 49 -15t15 -49v-89h-91v45q0 22 -22 22h-195v-221h242v-86h-242v-205q0 -22 26 -22h196q22 0 22 22v45h92v-89q0 -34 -15 -49t-49 -15h-301q-39 0 -55.5 13.5t-16.5 50.5v249h-159l-95 -255q-13 -35 -29.5 -46.5t-53.5 -11.5h-48 zM269 399h126v221h-43z" />
<glyph unicode="&#xc7;" horiz-adv-x="698" d="M35 359q0 153 101.5 256t252.5 103q39 0 82.5 -8.5t86 -25.5t70 -48t27.5 -71v-69h-92v40q0 41 -55 65t-117 24q-107 0 -179 -74t-72 -192q0 -116 72 -196.5t180 -80.5q62 0 118.5 24t81.5 48l26 23l54 -71q-4 -5 -11.5 -12.5t-33.5 -27t-55 -35t-75.5 -29t-95.5 -14.5 l-7 -38q31 -4 51 -23t20 -50q0 -43 -29.5 -63.5t-72.5 -20.5q-14 0 -27.5 1.5t-20.5 3.5l-7 2v58q20 -7 43 -7q47 0 47 31t-53 31l-18 -1l20 78q-139 15 -225.5 118.5t-86.5 250.5z" />
<glyph unicode="&#xc8;" horiz-adv-x="571" d="M33 620v86h416q34 0 49 -15t15 -49v-89h-92v45q0 22 -22 22h-201v-221h248v-86h-248v-205q0 -22 22 -22h207q22 0 22 22v45h91v-89q0 -34 -15 -49t-49 -15h-313q-34 0 -49.5 15t-15.5 49v556h-65zM156 882h98l73 -127h-76z" />
<glyph unicode="&#xc9;" horiz-adv-x="571" d="M33 620v86h416q34 0 49 -15t15 -49v-89h-92v45q0 22 -22 22h-201v-221h248v-86h-248v-205q0 -22 22 -22h207q22 0 22 22v45h91v-89q0 -34 -15 -49t-49 -15h-313q-34 0 -49.5 15t-15.5 49v556h-65zM251 755l73 127h98l-95 -127h-76z" />
<glyph unicode="&#xca;" horiz-adv-x="571" d="M33 620v86h416q34 0 49 -15t15 -49v-89h-92v45q0 22 -22 22h-201v-221h248v-86h-248v-205q0 -22 22 -22h207q22 0 22 22v45h91v-89q0 -34 -15 -49t-49 -15h-313q-34 0 -49.5 15t-15.5 49v556h-65zM159 755l87 127h89l88 -127h-79l-52 80h-2l-53 -80h-78z" />
<glyph unicode="&#xcb;" horiz-adv-x="571" d="M33 620v86h416q34 0 49 -15t15 -49v-89h-92v45q0 22 -22 22h-201v-221h248v-86h-248v-205q0 -22 22 -22h207q22 0 22 22v45h91v-89q0 -34 -15 -49t-49 -15h-313q-34 0 -49.5 15t-15.5 49v556h-65zM172 781v101h74v-101h-74zM337 781v101h73v-101h-73z" />
<glyph unicode="&#xcc;" horiz-adv-x="318" d="M25 882h98l73 -127h-76zM42 0v86h69v534h-69v86h233v-86h-68v-534h68v-86h-233z" />
<glyph unicode="&#xcd;" horiz-adv-x="318" d="M42 0v86h69v534h-69v86h233v-86h-68v-534h68v-86h-233zM119 755l73 127h98l-95 -127h-76z" />
<glyph unicode="&#xce;" horiz-adv-x="318" d="M27 755l87 127h89l88 -127h-79l-52 80h-2l-53 -80h-78zM42 0v86h69v534h-69v86h233v-86h-68v-534h68v-86h-233z" />
<glyph unicode="&#xcf;" horiz-adv-x="318" d="M40 781v101h74v-101h-74zM42 0v86h69v534h-69v86h233v-86h-68v-534h68v-86h-233zM205 781v101h73v-101h-73z" />
<glyph unicode="&#xd0;" horiz-adv-x="716" d="M35 620v86h286q163 0 260.5 -93.5t97.5 -258.5q0 -166 -97.5 -260t-260.5 -94h-156q-34 0 -49.5 15t-15.5 49v248h-48v82h48v226h-65zM200 108q0 -22 22 -22h92q121 0 191 70t70 198q0 127 -70.5 196.5t-190.5 69.5h-114v-226h144v-82h-144v-204z" />
<glyph unicode="&#xd1;" horiz-adv-x="757" d="M34 0v86h43q22 0 22 22v598h91l314 -447l59 -96h2q-7 57 -7 96v383q0 34 15.5 49t49.5 15h100v-86h-43q-22 0 -22 -22v-598h-90l-315 447l-58 96h-2q6 -57 6 -96v-383q0 -34 -15 -49t-49 -15h-101zM218 756q0 127 103 127q29 0 52 -17t40.5 -34t35.5 -17q21 0 31 20 t10 45h65q0 -127 -103 -127q-29 0 -51.5 17t-40.5 34t-36 17q-21 0 -30.5 -19.5t-9.5 -45.5h-66z" />
<glyph unicode="&#xd2;" horiz-adv-x="793" d="M34 358q0 152 104.5 256t257.5 104t258 -104t105 -256q0 -156 -105 -263t-258 -107t-257.5 107t-104.5 263zM138 358q0 -116 75 -196t183 -80t183.5 80t75.5 196q0 113 -75.5 190t-183.5 77t-183 -77t-75 -190zM259 882h98l73 -127h-76z" />
<glyph unicode="&#xd3;" horiz-adv-x="793" d="M34 358q0 152 104.5 256t257.5 104t258 -104t105 -256q0 -156 -105 -263t-258 -107t-257.5 107t-104.5 263zM138 358q0 -116 75 -196t183 -80t183.5 80t75.5 196q0 113 -75.5 190t-183.5 77t-183 -77t-75 -190zM354 755l73 127h98l-95 -127h-76z" />
<glyph unicode="&#xd4;" horiz-adv-x="793" d="M34 358q0 152 104.5 256t257.5 104t258 -104t105 -256q0 -156 -105 -263t-258 -107t-257.5 107t-104.5 263zM138 358q0 -116 75 -196t183 -80t183.5 80t75.5 196q0 113 -75.5 190t-183.5 77t-183 -77t-75 -190zM262 755l87 127h89l88 -127h-79l-52 80h-2l-53 -80h-78z " />
<glyph unicode="&#xd5;" horiz-adv-x="793" d="M34 358q0 152 104.5 256t257.5 104t258 -104t105 -256q0 -156 -105 -263t-258 -107t-257.5 107t-104.5 263zM138 358q0 -116 75 -196t183 -80t183.5 80t75.5 196q0 113 -75.5 190t-183.5 77t-183 -77t-75 -190zM223 756q0 127 103 127q29 0 52 -17t40.5 -34t35.5 -17 q21 0 31 20t10 45h65q0 -127 -103 -127q-29 0 -51.5 17t-40.5 34t-36 17q-21 0 -30.5 -19.5t-9.5 -45.5h-66z" />
<glyph unicode="&#xd6;" horiz-adv-x="793" d="M34 358q0 152 104.5 256t257.5 104t258 -104t105 -256q0 -156 -105 -263t-258 -107t-257.5 107t-104.5 263zM138 358q0 -116 75 -196t183 -80t183.5 80t75.5 196q0 113 -75.5 190t-183.5 77t-183 -77t-75 -190zM275 781v101h74v-101h-74zM440 781v101h73v-101h-73z" />
<glyph unicode="&#xd7;" d="M29 55l206 230l-206 230l54 55l205 -228l205 228l55 -55l-208 -230l208 -230l-55 -55l-205 227l-205 -227z" />
<glyph unicode="&#xd8;" horiz-adv-x="793" d="M34 358q0 152 104.5 256t257.5 104q102 0 188 -51l47 65l49 -34l-47 -65q59 -51 92.5 -122t33.5 -153q0 -156 -105 -263t-258 -107q-104 0 -188 53l-47 -66l-50 34l48 66q-59 52 -92 125t-33 158zM138 358q0 -121 80 -201l309 431q-61 37 -131 37q-108 0 -183 -77 t-75 -190zM264 119q60 -37 132 -37q108 0 183.5 80t75.5 196q0 115 -82 192z" />
<glyph unicode="&#xd9;" horiz-adv-x="720" d="M26 620v86h100q34 0 49.5 -15t15.5 -49v-391q0 -79 45.5 -124t123.5 -45q77 0 123 45.5t46 124.5v390q0 34 15 49t49 15h101v-86h-43q-22 0 -22 -22v-351q0 -116 -74 -187.5t-194 -71.5q-121 0 -195.5 71.5t-74.5 187.5v351q0 22 -22 22h-43zM220 882h98l73 -127h-76z " />
<glyph unicode="&#xda;" horiz-adv-x="720" d="M26 620v86h100q34 0 49.5 -15t15.5 -49v-391q0 -79 45.5 -124t123.5 -45q77 0 123 45.5t46 124.5v390q0 34 15 49t49 15h101v-86h-43q-22 0 -22 -22v-351q0 -116 -74 -187.5t-194 -71.5q-121 0 -195.5 71.5t-74.5 187.5v351q0 22 -22 22h-43zM321 755l73 127h98l-95 -127 h-76z" />
<glyph unicode="&#xdb;" horiz-adv-x="720" d="M26 620v86h100q34 0 49.5 -15t15.5 -49v-391q0 -79 45.5 -124t123.5 -45q77 0 123 45.5t46 124.5v390q0 34 15 49t49 15h101v-86h-43q-22 0 -22 -22v-351q0 -116 -74 -187.5t-194 -71.5q-121 0 -195.5 71.5t-74.5 187.5v351q0 22 -22 22h-43zM229 755l87 127h89l88 -127 h-79l-52 80h-2l-53 -80h-78z" />
<glyph unicode="&#xdc;" horiz-adv-x="720" d="M26 620v86h100q34 0 49.5 -15t15.5 -49v-391q0 -79 45.5 -124t123.5 -45q77 0 123 45.5t46 124.5v390q0 34 15 49t49 15h101v-86h-43q-22 0 -22 -22v-351q0 -116 -74 -187.5t-194 -71.5q-121 0 -195.5 71.5t-74.5 187.5v351q0 22 -22 22h-43zM242 781v101h74v-101h-74z M407 781v101h73v-101h-73z" />
<glyph unicode="&#xdd;" horiz-adv-x="606" d="M11 620v86h46q37 0 56 -10t39 -44l107 -178l43 -79h2q20 40 43 79l106 178q20 34 39 44t56 10h47v-86h-20q-29 0 -44 -25l-178 -287v-308h-100v308l-179 287q-14 25 -43 25h-20zM264 755l73 127h98l-95 -127h-76z" />
<glyph unicode="&#xde;" horiz-adv-x="585" d="M34 620v86h101q34 0 49 -15t15 -49v-56h146q98 0 159.5 -60.5t61.5 -160.5t-62 -162t-160 -62h-145v-141h-100v598q0 22 -22 22h-43zM199 227h130q62 0 98 37t36 101q0 63 -35.5 99t-97.5 36h-131v-273z" />
<glyph unicode="&#xdf;" horiz-adv-x="590" d="M25 0v83h37q22 0 22 22v425q0 87 64.5 137.5t151.5 50.5q82 0 136.5 -46.5t54.5 -114.5q0 -32 -16 -59.5t-34.5 -44t-34.5 -37.5t-16 -40q0 -18 18.5 -37t45 -37.5t52.5 -40t44.5 -53t18.5 -68.5q0 -73 -49.5 -112.5t-121.5 -39.5q-43 0 -81 12.5t-54 25.5l-16 12l27 75 q50 -41 112 -41q36 0 60.5 17.5t24.5 54.5q0 23 -18.5 45t-44.5 41t-52.5 38.5t-45 46.5t-18.5 58q0 27 15.5 52.5t34.5 42.5t34.5 40.5t15.5 47.5q0 32 -25 55t-70 23q-47 0 -81.5 -29t-34.5 -82v-459q0 -34 -15 -49t-49 -15h-92z" />
<glyph unicode="&#xe0;" horiz-adv-x="529" d="M28 138q0 177 306 177h22v7q0 64 -26.5 91.5t-85.5 27.5q-28 0 -55.5 -8.5t-27.5 -30.5v-29h-92v51q0 28 20 48.5t50.5 29.5t55.5 12.5t47 3.5q117 0 164 -52t47 -146v-215q0 -22 22 -22h41v-83h-92q-62 0 -62 58l1 30h-2q1 0 -4.5 -10.5t-18 -25t-30.5 -29t-47 -25 t-63 -10.5q-70 0 -120 40.5t-50 109.5zM122 707h98l73 -127h-76zM125 147q0 -33 25 -57.5t70 -24.5q60 0 98 50t38 111v19h-26q-205 0 -205 -98z" />
<glyph unicode="&#xe1;" horiz-adv-x="529" d="M28 138q0 177 306 177h22v7q0 64 -26.5 91.5t-85.5 27.5q-28 0 -55.5 -8.5t-27.5 -30.5v-29h-92v51q0 28 20 48.5t50.5 29.5t55.5 12.5t47 3.5q117 0 164 -52t47 -146v-215q0 -22 22 -22h41v-83h-92q-62 0 -62 58l1 30h-2q1 0 -4.5 -10.5t-18 -25t-30.5 -29t-47 -25 t-63 -10.5q-70 0 -120 40.5t-50 109.5zM125 147q0 -33 25 -57.5t70 -24.5q60 0 98 50t38 111v19h-26q-205 0 -205 -98zM217 580l73 127h98l-95 -127h-76z" />
<glyph unicode="&#xe2;" horiz-adv-x="529" d="M28 138q0 177 306 177h22v7q0 64 -26.5 91.5t-85.5 27.5q-28 0 -55.5 -8.5t-27.5 -30.5v-29h-92v51q0 28 20 48.5t50.5 29.5t55.5 12.5t47 3.5q117 0 164 -52t47 -146v-215q0 -22 22 -22h41v-83h-92q-62 0 -62 58l1 30h-2q1 0 -4.5 -10.5t-18 -25t-30.5 -29t-47 -25 t-63 -10.5q-70 0 -120 40.5t-50 109.5zM125 147q0 -33 25 -57.5t70 -24.5q60 0 98 50t38 111v19h-26q-205 0 -205 -98zM125 580l87 127h89l88 -127h-79l-52 80h-2l-53 -80h-78z" />
<glyph unicode="&#xe3;" horiz-adv-x="529" d="M28 138q0 177 306 177h22v7q0 64 -26.5 91.5t-85.5 27.5q-28 0 -55.5 -8.5t-27.5 -30.5v-29h-92v51q0 28 20 48.5t50.5 29.5t55.5 12.5t47 3.5q117 0 164 -52t47 -146v-215q0 -22 22 -22h41v-83h-92q-62 0 -62 58l1 30h-2q1 0 -4.5 -10.5t-18 -25t-30.5 -29t-47 -25 t-63 -10.5q-70 0 -120 40.5t-50 109.5zM87 581q0 127 103 127q29 0 52 -17t40.5 -34t35.5 -17q21 0 31 20t10 45h65q0 -127 -103 -127q-29 0 -51.5 17t-40.5 34t-36 17q-21 0 -30.5 -19.5t-9.5 -45.5h-66zM125 147q0 -33 25 -57.5t70 -24.5q60 0 98 50t38 111v19h-26 q-205 0 -205 -98z" />
<glyph unicode="&#xe4;" horiz-adv-x="529" d="M28 138q0 177 306 177h22v7q0 64 -26.5 91.5t-85.5 27.5q-28 0 -55.5 -8.5t-27.5 -30.5v-29h-92v51q0 28 20 48.5t50.5 29.5t55.5 12.5t47 3.5q117 0 164 -52t47 -146v-215q0 -22 22 -22h41v-83h-92q-62 0 -62 58l1 30h-2q1 0 -4.5 -10.5t-18 -25t-30.5 -29t-47 -25 t-63 -10.5q-70 0 -120 40.5t-50 109.5zM125 147q0 -33 25 -57.5t70 -24.5q60 0 98 50t38 111v19h-26q-205 0 -205 -98zM139 606v101h74v-101h-74zM304 606v101h73v-101h-73z" />
<glyph unicode="&#xe5;" horiz-adv-x="529" d="M28 138q0 177 306 177h22v7q0 64 -26.5 91.5t-85.5 27.5q-28 0 -55.5 -8.5t-27.5 -30.5v-29h-92v51q0 28 20 48.5t50.5 29.5t55.5 12.5t47 3.5q117 0 164 -52t47 -146v-215q0 -22 22 -22h41v-83h-92q-62 0 -62 58l1 30h-2q1 0 -4.5 -10.5t-18 -25t-30.5 -29t-47 -25 t-63 -10.5q-70 0 -120 40.5t-50 109.5zM125 147q0 -33 25 -57.5t70 -24.5q60 0 98 50t38 111v19h-26q-205 0 -205 -98zM176 642q0 34 23.5 54.5t57.5 20.5q33 0 57 -20.5t24 -54.5q0 -33 -24 -53.5t-57 -20.5q-34 0 -57.5 20.5t-23.5 53.5zM223 642q0 -14 9.5 -23.5 t24.5 -9.5t24.5 9.5t9.5 23.5q0 16 -9.5 25.5t-24.5 9.5t-24.5 -9.5t-9.5 -25.5z" />
<glyph unicode="&#xe6;" horiz-adv-x="849" d="M29 141q0 172 298 172h29v11q0 64 -26.5 90.5t-85.5 26.5q-29 0 -56 -8.5t-27 -30.5v-29h-92v51q0 34 29.5 56t66.5 30t79 8q132 0 172 -89h2q62 89 180 89q100 0 158.5 -67t58.5 -168l-2 -41h-364q4 -82 51 -126t118 -44q39 0 76 15t54 30l18 15l41 -70q-8 -8 -24 -20.5 t-67 -33t-104 -20.5q-152 0 -217 126h-2q-5 -14 -16 -31t-33 -40t-59 -38.5t-83 -15.5q-73 0 -123 40.5t-50 111.5zM127 147q0 -34 25 -57.5t71 -23.5q59 0 96.5 50.5t37.5 111.5v14h-47q-183 0 -183 -95zM453 313h263q-3 60 -37 93.5t-82 33.5q-57 0 -95 -33t-49 -94z" />
<glyph unicode="&#xe7;" horiz-adv-x="532" d="M33 253q0 113 76 189t196 76q37 0 75.5 -9t72.5 -35.5t34 -66.5v-52h-87v28q0 25 -31 38.5t-64 13.5q-74 0 -123.5 -51t-49.5 -130q0 -83 52 -131.5t127 -48.5q42 0 81 17.5t57 34.5l18 18l42 -69q-3 -3 -8.5 -9t-25 -21t-41.5 -26.5t-57 -21t-73 -9.5l-8 -38 q32 -4 52 -23t20 -50q0 -43 -29.5 -63.5t-72.5 -20.5q-14 0 -28 1.5t-20 3.5l-7 2v58q20 -7 42 -7q48 0 48 31t-53 31l-18 -1l21 81q-98 16 -158 87.5t-60 172.5z" />
<glyph unicode="&#xe8;" horiz-adv-x="539" d="M33 253q0 119 72 192t182 73q103 0 160.5 -67.5t57.5 -169.5q0 -17 -3 -41h-369q4 -79 54 -123.5t121 -44.5q16 0 31.5 2.5t29 7.5t24.5 9.5t22.5 11.5t17.5 11l15 10l9 7l41 -71q-17 -14 -40 -28t-67.5 -29t-88.5 -15q-118 0 -193.5 75.5t-75.5 189.5zM137 310h271 q-2 63 -36.5 98t-86.5 35q-57 0 -97.5 -35.5t-50.5 -97.5zM159 686h98l73 -127h-76z" />
<glyph unicode="&#xe9;" horiz-adv-x="539" d="M33 253q0 119 72 192t182 73q103 0 160.5 -67.5t57.5 -169.5q0 -17 -3 -41h-369q4 -79 54 -123.5t121 -44.5q16 0 31.5 2.5t29 7.5t24.5 9.5t22.5 11.5t17.5 11l15 10l9 7l41 -71q-17 -14 -40 -28t-67.5 -29t-88.5 -15q-118 0 -193.5 75.5t-75.5 189.5zM137 310h271 q-2 63 -36.5 98t-86.5 35q-57 0 -97.5 -35.5t-50.5 -97.5zM243 580l73 127h98l-95 -127h-76z" />
<glyph unicode="&#xea;" horiz-adv-x="539" d="M33 253q0 119 72 192t182 73q103 0 160.5 -67.5t57.5 -169.5q0 -17 -3 -41h-369q4 -79 54 -123.5t121 -44.5q16 0 31.5 2.5t29 7.5t24.5 9.5t22.5 11.5t17.5 11l15 10l9 7l41 -71q-17 -14 -40 -28t-67.5 -29t-88.5 -15q-118 0 -193.5 75.5t-75.5 189.5zM137 310h271 q-2 63 -36.5 98t-86.5 35q-57 0 -97.5 -35.5t-50.5 -97.5zM150 580l87 127h89l88 -127h-79l-52 80h-2l-53 -80h-78z" />
<glyph unicode="&#xeb;" horiz-adv-x="539" d="M33 253q0 119 72 192t182 73q103 0 160.5 -67.5t57.5 -169.5q0 -17 -3 -41h-369q4 -79 54 -123.5t121 -44.5q16 0 31.5 2.5t29 7.5t24.5 9.5t22.5 11.5t17.5 11l15 10l9 7l41 -71q-17 -14 -40 -28t-67.5 -29t-88.5 -15q-118 0 -193.5 75.5t-75.5 189.5zM137 310h271 q-2 63 -36.5 98t-86.5 35q-57 0 -97.5 -35.5t-50.5 -97.5zM163 606v101h74v-101h-74zM328 606v101h73v-101h-73z" />
<glyph unicode="&#xec;" horiz-adv-x="265" d="M-10 706h98l73 -127h-76zM21 423v83h95q34 0 49.5 -15t15.5 -49v-337q0 -22 22 -22h41v-83h-96q-34 0 -49 15t-15 49v337q0 22 -22 22h-41z" />
<glyph unicode="&#xed;" horiz-adv-x="265" d="M21 423v83h95q34 0 49.5 -15t15.5 -49v-337q0 -22 22 -22h41v-83h-96q-34 0 -49 15t-15 49v337q0 22 -22 22h-41zM85 579l73 127h99l-96 -127h-76z" />
<glyph unicode="&#xee;" horiz-adv-x="265" d="M-7 579l87 127h89l88 -127h-79l-52 81h-2l-53 -81h-78zM21 423v83h95q34 0 49.5 -15t15.5 -49v-337q0 -22 22 -22h41v-83h-96q-34 0 -49 15t-15 49v337q0 22 -22 22h-41z" />
<glyph unicode="&#xef;" horiz-adv-x="265" d="M16 605v101h74v-101h-74zM21 423v83h95q34 0 49.5 -15t15.5 -49v-337q0 -22 22 -22h41v-83h-96q-34 0 -49 15t-15 49v337q0 22 -22 22h-41zM156 605v101h73v-101h-73z" />
<glyph unicode="&#xf0;" horiz-adv-x="562" d="M34 235q0 94 63.5 162.5t173.5 68.5q36 0 66.5 -10.5t43.5 -21.5l13 -10h2q-30 80 -109 133l-180 -80l-10 62l123 55q-61 31 -129 46l27 79q116 -26 207 -80l139 61l10 -61l-93 -42q144 -120 144 -322q0 -53 -14.5 -102t-43.5 -91.5t-80 -68t-116 -25.5 q-108 0 -172.5 73.5t-64.5 173.5zM133 233q0 -66 37.5 -113.5t103.5 -47.5q75 0 113.5 56.5t38.5 129.5q0 57 -38.5 93.5t-102.5 36.5q-73 0 -112.5 -45.5t-39.5 -109.5z" />
<glyph unicode="&#xf1;" horiz-adv-x="623" d="M22 423v83h93q64 0 64 -56v-19l-2 -29h2q20 43 68.5 79.5t122.5 36.5q173 0 173 -194v-219q0 -22 22 -22h41v-83h-96q-34 0 -49 15t-15 49v238q0 61 -19.5 94t-75.5 33q-74 0 -121.5 -54t-47.5 -138v-237h-97v401q0 22 -22 22h-41zM152 581q0 127 103 127q29 0 52 -17 t40.5 -34t35.5 -17q21 0 31 20t10 45h65q0 -127 -103 -127q-29 0 -51.5 17t-40.5 34t-36 17q-21 0 -30.5 -19.5t-9.5 -45.5h-66z" />
<glyph unicode="&#xf2;" horiz-adv-x="611" d="M33 254q0 114 79 189t193 75q115 0 194 -75t79 -189t-79.5 -190t-193.5 -76t-193 76t-79 190zM131 254q0 -78 51 -130t123 -52q73 0 123.5 51.5t50.5 130.5q0 78 -50.5 129t-123.5 51q-72 0 -123 -51t-51 -129zM171 707h98l73 -127h-76z" />
<glyph unicode="&#xf3;" horiz-adv-x="611" d="M33 254q0 114 79 189t193 75q115 0 194 -75t79 -189t-79.5 -190t-193.5 -76t-193 76t-79 190zM131 254q0 -78 51 -130t123 -52q73 0 123.5 51.5t50.5 130.5q0 78 -50.5 129t-123.5 51q-72 0 -123 -51t-51 -129zM266 580l73 127h98l-95 -127h-76z" />
<glyph unicode="&#xf4;" horiz-adv-x="611" d="M33 254q0 114 79 189t193 75q115 0 194 -75t79 -189t-79.5 -190t-193.5 -76t-193 76t-79 190zM131 254q0 -78 51 -130t123 -52q73 0 123.5 51.5t50.5 130.5q0 78 -50.5 129t-123.5 51q-72 0 -123 -51t-51 -129zM173 580l87 127h89l88 -127h-79l-52 80h-2l-53 -80h-78z " />
<glyph unicode="&#xf5;" horiz-adv-x="611" d="M33 254q0 114 79 189t193 75q115 0 194 -75t79 -189t-79.5 -190t-193.5 -76t-193 76t-79 190zM131 254q0 -78 51 -130t123 -52q73 0 123.5 51.5t50.5 130.5q0 78 -50.5 129t-123.5 51q-72 0 -123 -51t-51 -129zM135 581q0 127 103 127q29 0 52 -17t40.5 -34t35.5 -17 q21 0 31 20t10 45h65q0 -127 -103 -127q-29 0 -51.5 17t-40.5 34t-36 17q-21 0 -30.5 -19.5t-9.5 -45.5h-66z" />
<glyph unicode="&#xf6;" horiz-adv-x="611" d="M33 254q0 114 79 189t193 75q115 0 194 -75t79 -189t-79.5 -190t-193.5 -76t-193 76t-79 190zM131 254q0 -78 51 -130t123 -52q73 0 123.5 51.5t50.5 130.5q0 78 -50.5 129t-123.5 51q-72 0 -123 -51t-51 -129zM186 606v101h74v-101h-74zM351 606v101h73v-101h-73z" />
<glyph unicode="&#xf7;" d="M35 246v78h505v-78h-505zM240 44v91h95v-91h-95zM240 435v91h95v-91h-95z" />
<glyph unicode="&#xf8;" horiz-adv-x="611" d="M33 254q0 114 79 189t193 75q75 0 135 -34l40 56l48 -34l-39 -54q89 -79 89 -198q0 -114 -79.5 -190t-193.5 -76q-70 0 -127 30l-39 -56l-48 35l38 52q-96 76 -96 205zM131 254q0 -76 52 -130l206 288q-39 22 -84 22q-72 0 -123 -51t-51 -129zM230 90q34 -18 75 -18 q73 0 123.5 51.5t50.5 130.5q0 72 -46 120z" />
<glyph unicode="&#xf9;" horiz-adv-x="618" d="M17 423v83h95q34 0 49 -15t15 -47v-240q0 -60 20 -93t75 -33q75 0 120 56t45 135v237h97v-401q0 -22 22 -22h41v-83h-93q-64 0 -64 56v19l1 29h-2q-19 -44 -68.5 -80t-117.5 -36q-86 0 -129 47.5t-43 146.5v219q0 22 -22 22h-41zM166 707h98l73 -127h-76z" />
<glyph unicode="&#xfa;" horiz-adv-x="618" d="M17 423v83h95q34 0 49 -15t15 -47v-240q0 -60 20 -93t75 -33q75 0 120 56t45 135v237h97v-401q0 -22 22 -22h41v-83h-93q-64 0 -64 56v19l1 29h-2q-19 -44 -68.5 -80t-117.5 -36q-86 0 -129 47.5t-43 146.5v219q0 22 -22 22h-41zM261 580l73 127h98l-95 -127h-76z" />
<glyph unicode="&#xfb;" horiz-adv-x="618" d="M17 423v83h95q34 0 49 -15t15 -47v-240q0 -60 20 -93t75 -33q75 0 120 56t45 135v237h97v-401q0 -22 22 -22h41v-83h-93q-64 0 -64 56v19l1 29h-2q-19 -44 -68.5 -80t-117.5 -36q-86 0 -129 47.5t-43 146.5v219q0 22 -22 22h-41zM169 580l87 127h89l88 -127h-79l-52 80 h-2l-53 -80h-78z" />
<glyph unicode="&#xfc;" horiz-adv-x="618" d="M17 423v83h95q34 0 49 -15t15 -47v-240q0 -60 20 -93t75 -33q75 0 120 56t45 135v237h97v-401q0 -22 22 -22h41v-83h-93q-64 0 -64 56v19l1 29h-2q-19 -44 -68.5 -80t-117.5 -36q-86 0 -129 47.5t-43 146.5v219q0 22 -22 22h-41zM182 606v101h74v-101h-74zM347 606v101 h73v-101h-73z" />
<glyph unicode="&#xfd;" horiz-adv-x="543" d="M2 -160l40 70q0 -1 9 -9.5t27.5 -17.5t37.5 -9q58 0 89 73l23 55l-173 401q-9 20 -31 20h-13v83h57q31 0 46 -10.5t27 -40.5l114 -285l18 -61h2q8 35 17 61l106 285q10 30 26 40.5t47 10.5h58v-83h-13q-23 0 -32 -20l-199 -494q-24 -58 -67 -88.5t-97 -30.5 q-33 0 -63 12.5t-43 25.5zM231 580l73 127h98l-95 -127h-76z" />
<glyph unicode="&#xfe;" horiz-adv-x="584" d="M5 623v83h95q34 0 49.5 -15t15.5 -49v-163l-2 -44h2q48 83 159 83q102 0 163.5 -73.5t61.5 -191.5q0 -117 -61.5 -191t-163.5 -74q-33 0 -62 8.5t-46 20t-29 23.5t-17 20l-5 9h-2q2 -18 2 -44v-225h-97v801q0 22 -22 22h-41zM162 253q0 -93 41.5 -137t105.5 -44t103 50 t39 131t-39 131t-103 50q-65 0 -106 -43.5t-41 -137.5z" />
<glyph unicode="&#xff;" horiz-adv-x="543" d="M2 -160l40 70q0 -1 9 -9.5t27.5 -17.5t37.5 -9q58 0 89 73l23 55l-173 401q-9 20 -31 20h-13v83h57q31 0 46 -10.5t27 -40.5l114 -285l18 -61h2q8 35 17 61l106 285q10 30 26 40.5t47 10.5h58v-83h-13q-23 0 -32 -20l-199 -494q-24 -58 -67 -88.5t-97 -30.5 q-33 0 -63 12.5t-43 25.5zM151 606v101h74v-101h-74zM316 606v101h73v-101h-73z" />
<glyph unicode="&#x152;" horiz-adv-x="938" d="M34 354q0 153 100 257t248 104q29 0 77 -4.5t66 -4.5h290q34 0 49 -15t15 -49v-89h-91v45q0 22 -22 22h-195v-221h241v-86h-241v-227h222q22 0 22 22v45h92v-89q0 -34 -14.5 -49t-46.5 -15h-320q-18 0 -66.5 -4.5t-77.5 -4.5q-148 0 -248 105t-100 258zM139 354 q0 -117 67.5 -193.5t175.5 -76.5q54 0 89 8v522q-35 8 -89 8q-108 0 -175.5 -76t-67.5 -192z" />
<glyph unicode="&#x153;" horiz-adv-x="988" d="M33 252q0 117 78.5 191.5t192.5 74.5q74 0 131 -32t91 -88h2q63 120 209 120q103 0 160.5 -67.5t57.5 -169.5l-3 -41h-370q6 -81 55.5 -124.5t119.5 -43.5q39 0 76 15t55 30l17 15l42 -70q-9 -8 -24.5 -20.5t-66.5 -33t-104 -20.5q-154 0 -222 123h-2q-72 -123 -224 -123 q-114 0 -192.5 73.5t-78.5 190.5zM131 252q0 -80 50.5 -130t122.5 -50q73 0 124 50.5t51 132.5q0 79 -51.5 129t-123.5 50t-122.5 -50.5t-50.5 -131.5zM587 311h268q-3 61 -36 95.5t-83 34.5q-58 0 -98.5 -34t-50.5 -96z" />
<glyph unicode="&#x178;" horiz-adv-x="606" d="M11 620v86h46q37 0 56 -10t39 -44l107 -178l43 -79h2q20 40 43 79l106 178q20 34 39 44t56 10h47v-86h-20q-29 0 -44 -25l-178 -287v-308h-100v308l-179 287q-14 25 -43 25h-20zM185 781v101h74v-101h-74zM350 781v101h73v-101h-73z" />
<glyph unicode="&#x2c6;" horiz-adv-x="485" d="M111 755l87 127h89l88 -127h-79l-52 80h-2l-53 -80h-78z" />
<glyph unicode="&#x2dc;" horiz-adv-x="519" d="M92 756q0 127 103 127q29 0 52 -17t40.5 -34t35.5 -17q21 0 31 20t10 45h65q0 -127 -103 -127q-29 0 -51.5 17t-40.5 34t-36 17q-21 0 -30.5 -19.5t-9.5 -45.5h-66z" />
<glyph unicode="&#x2000;" horiz-adv-x="446" />
<glyph unicode="&#x2001;" horiz-adv-x="892" />
<glyph unicode="&#x2002;" horiz-adv-x="446" />
<glyph unicode="&#x2003;" horiz-adv-x="892" />
<glyph unicode="&#x2004;" horiz-adv-x="297" />
<glyph unicode="&#x2005;" horiz-adv-x="223" />
<glyph unicode="&#x2006;" horiz-adv-x="148" />
<glyph unicode="&#x2007;" horiz-adv-x="148" />
<glyph unicode="&#x2008;" horiz-adv-x="111" />
<glyph unicode="&#x2009;" horiz-adv-x="178" />
<glyph unicode="&#x200a;" horiz-adv-x="49" />
<glyph unicode="&#x2010;" horiz-adv-x="410" d="M59 242v86h292v-86h-292z" />
<glyph unicode="&#x2011;" horiz-adv-x="410" d="M59 242v86h292v-86h-292z" />
<glyph unicode="&#x2012;" horiz-adv-x="410" d="M59 242v86h292v-86h-292z" />
<glyph unicode="&#x2013;" horiz-adv-x="647" d="M60 246v78h527v-78h-527z" />
<glyph unicode="&#x2014;" horiz-adv-x="847" d="M60 246v78h727v-78h-727z" />
<glyph unicode="&#x2018;" horiz-adv-x="222" d="M48 522l66 195h69l-43 -195h-92z" />
<glyph unicode="&#x2019;" horiz-adv-x="217" d="M53 523l43 195h92l-65 -195h-70z" />
<glyph unicode="&#x201a;" horiz-adv-x="238" d="M39 -90l43 195h92l-65 -195h-70z" />
<glyph unicode="&#x201c;" horiz-adv-x="360" d="M48 522l66 195h69l-43 -195h-92zM187 522l65 195h70l-43 -195h-92z" />
<glyph unicode="&#x201d;" horiz-adv-x="355" d="M53 523l43 195h92l-65 -195h-70zM192 523l43 195h91l-65 -195h-69z" />
<glyph unicode="&#x201e;" horiz-adv-x="377" d="M39 -90l43 195h92l-65 -195h-70zM178 -90l43 195h91l-65 -195h-69z" />
<glyph unicode="&#x2022;" horiz-adv-x="456" d="M73 291q0 65 45.5 110t109.5 45t109 -45.5t45 -109.5t-45 -109.5t-109 -45.5t-109.5 45t-45.5 110z" />
<glyph unicode="&#x2026;" horiz-adv-x="736" d="M59 0v103h99v-103h-99zM318 0v103h100v-103h-100zM578 0v103h99v-103h-99z" />
<glyph unicode="&#x202f;" horiz-adv-x="178" />
<glyph unicode="&#x2039;" horiz-adv-x="348" d="M41 282l164 206h97l-164 -206l164 -205h-97z" />
<glyph unicode="&#x203a;" horiz-adv-x="348" d="M45 77l164 205l-164 206h97l164 -206l-164 -205h-97z" />
<glyph unicode="&#x205f;" horiz-adv-x="223" />
<glyph unicode="&#x20ac;" d="M25 258v63h60q-2 18 -2 33l2 39h-60v64h71q31 116 124 188.5t215 72.5q24 0 47.5 -3t35.5 -6l12 -3l-23 -91q-35 11 -74 11q-83 0 -145 -46t-87 -123h277l-13 -64h-278q-3 -17 -3 -37l3 -35h265l-13 -63h-235q23 -80 86 -128t146 -48q23 0 46.5 3.5t35.5 6.5l11 4l20 -91 q-49 -17 -114 -17q-127 0 -219 74.5t-121 195.5h-70z" />
<glyph unicode="&#x2122;" horiz-adv-x="1002" d="M58 600v61q0 26 9.5 35.5t37.5 9.5h286q27 0 37 -9.5t10 -35.5v-61h-66v30q0 9 -9 9h-77v-373h-76v373h-76q-9 0 -9 -9v-30h-67zM442 266v67h23q10 0 11 9l28 364h70l104 -230l14 -42h2q5 24 13 42l104 230h70l29 -364q0 -9 10 -9h24v-67h-59q-27 0 -37.5 9t-11.5 36 l-17 218l1 30h-2l-95 -212h-61l-95 212h-2l1 -30l-17 -218q-1 -27 -11.5 -36t-37.5 -9h-58z" />
<glyph unicode="&#xe000;" horiz-adv-x="505" d="M0 0v505h505v-505h-505z" />
</font>
</defs>
</svg>
