<?xml version="1.0" standalone="no"?>
<!DOCTYPE svg PUBLIC "-//W3C//DTD SVG 1.1//EN" "http://www.w3.org/Graphics/SVG/1.1/DTD/svg11.dtd" >
<svg xmlns="http://www.w3.org/2000/svg">
<metadata>Generated by IcoMoon</metadata>
<defs>
<font id="Starwood" horiz-adv-x="1024">
<font-face units-per-em="1024" ascent="960" descent="-64" />
<missing-glyph horiz-adv-x="1024" />
<glyph unicode="&#x20;" d="" horiz-adv-x="512" />
<glyph unicode="&#xe000;" d="M185.443 805.376h64.525v-143.011h-64.525zM540.285 805.376h64.547v-143.011h-64.547zM733.885 719.549h-129.037v-57.194h-64.525v57.194h-290.339v-57.194h-64.525v57.194h-129.037c-17.808 0-32.269-12.851-32.269-28.602v-57.203h742.010v57.203c-0.010 15.773-14.448 28.602-32.278 28.602zM24.131 118.902c0-15.808 14.458-28.602 32.269-28.602h677.469c17.843 0 32.256 12.794 32.256 28.602v486.259h-741.994v-486.259zM572.56 547.946h129.037v-114.41h-129.037v114.41zM572.56 404.934h129.037v-114.397h-129.037v114.397zM572.56 261.914h129.037v-114.41h-129.037v114.41zM411.27 547.946h129.037v-114.41h-129.037v114.41zM411.27 404.934h129.037v-114.397h-129.037v114.397zM411.27 261.914h129.037v-114.41h-129.037v114.41zM249.968 547.946h129.037v-114.41h-129.037v114.41zM249.968 404.934h129.037v-114.397h-129.037v114.397zM249.968 261.914h129.037v-114.41h-129.037v114.41zM88.653 547.946h129.037v-114.41h-129.037v114.41zM88.653 404.934h129.037v-114.397h-129.037v114.397zM88.653 261.914h129.037v-114.41h-129.037v114.41z" horiz-adv-x="790" />
<glyph unicode="&#xe001;" d="M156.95 299.542v237.878c0 32.829-26.611 59.475-59.475 59.475h-59.443v-356.816h59.443c32.89-0.003 59.475 26.63 59.475 59.462zM692.246 656.358h-356.851c0 32.829-26.611 59.475-59.475 59.475h-59.475c-32.829 0-59.411-26.643-59.475-59.475h-59.411c-32.829 0-59.498-26.611-59.498-59.475h59.443c32.851 0 59.475-26.643 59.475-59.475v-237.878c0-32.829-26.611-59.475-59.475-59.475h-59.443c0-32.829 26.643-59.475 59.498-59.475h594.694c32.851 0 59.475 26.643 59.475 59.475v356.816c-0.019 32.909-26.63 59.488-59.482 59.488zM424.63 269.805c-82.128 0-148.675 66.547-148.675 148.73 0 82.163 66.547 148.675 148.675 148.675 82.096 0 148.675-66.515 148.675-148.675 0-82.182-66.55-148.73-148.675-148.73zM647.638 477.955c-24.678 0-44.605 19.984-44.605 44.605 0 24.557 19.92 44.605 44.605 44.605 24.624 0 44.605-20.038 44.605-44.605 0.003-24.621-19.981-44.605-44.605-44.605zM513.83 418.48c0-49.245-39.968-89.203-89.235-89.203-49.245 0-89.203 39.968-89.203 89.203 0 49.299 39.968 89.203 89.203 89.203 49.267 0.010 89.235-39.904 89.235-89.203z" horiz-adv-x="790" />
<glyph unicode="&#xe002;" d="M692.707 553.946l-59.581 153.936c-11.187 29.472-35.523 54.566-81.68 54.755h-313.293c-45.904-0.208-70.285-25.283-81.635-54.755l-59.626-153.936c-23.686-3.066-65.555-30.87-65.488-83.587v-196.016h58.205v-62.57c-0.166-77.162 109.002-76.234 109.002 0v62.57h392.49v-62.57c0.23-76.234 109.398-77.162 109.466 0v62.57h58.205v196.016c-0.24 52.717-42.179 80.544-66.064 83.587zM145.77 392.656c-27.872-0.109-50.445 23.168-50.336 51.766-0.122 28.819 22.451 52.099 50.336 51.856 27.808 0.253 50.4-23.034 50.358-51.856 0.067-28.608-22.525-51.853-50.358-51.766zM395.062 555.379h-236.048l44.957 121.235c5.443 17.216 13.853 29.526 33.738 29.846h314.774c19.606-0.32 28.016-12.608 33.715-29.846l44.979-121.235h-236.115zM644.323 392.656c-28.083-0.109-50.675 23.168-50.819 51.766 0.144 28.819 22.736 52.099 50.819 51.856 27.597 0.253 50.192-23.034 50.358-51.856-0.166-28.608-22.742-51.853-50.358-51.766z" horiz-adv-x="790" />
<glyph unicode="&#xe003;" d="M458.208 357.626c6.474 13.552 23.098 31.446 49.904 53.744 51.776 43.027 85.581 77.075 101.392 102.061 15.818 24.966 23.706 51.491 23.706 79.494 0 50.592-21.523 94.899-64.586 133.005-43.046 38.064-100.998 57.136-173.885 57.136-69.258 0-125.19-18.822-167.786-56.445-42.614-37.651-65.578-83.408-68.88-137.312l116.515-14.454c8.141 37.616 23.037 65.619 44.72 84.003 21.686 18.362 48.627 27.539 80.838 27.539 33.411 0 60.003-8.81 79.709-26.429s29.571-38.774 29.571-63.446c0-17.786-5.571-34.038-16.72-48.768-7.238-9.344-29.37-29.062-66.394-59.174-37.043-30.131-61.734-57.206-74.064-81.296-12.342-24.099-18.528-54.806-18.528-92.125 0-3.606 0.141-13.712 0.47-30.272h115.158c-0.557 34.982 2.381 59.222 8.858 72.739zM461.152 114.214v126.906l-126.906-0.003v-126.906l126.906 0.003z" horiz-adv-x="790" />
<glyph unicode="&#xe004;" d="M758.714 456.048c0.554-24.842-1.382-49.261-5.798-73.552l-77.238 19.837c2.906 17.971 4.054 35.766 3.558 53.734l79.478-0.019zM739.629 331.181l-77.274 19.882c-6.285-17.373-14.237-33.942-23.648-49.562l64.89-46.147c14.787 23.616 26.963 49.008 36.032 75.827zM606.838 152.314c24.211 17.373 46.202 37.642 65.475 60.285l-65.091 46.269c-12.304-13.795-25.923-26.365-40.691-37.578l40.307-68.976zM31.27 448.093c0-200.925 162.851-363.789 363.789-363.789 60.042 0 116.672 14.547 166.595 40.326l-40.16 68.755c-38.083-18.963-81.018-29.622-126.458-29.622-157.021 0-284.33 127.286-284.33 284.33 0 157.021 127.309 284.307 284.33 284.307 77.338 0 154.49-30.883 205.731-80.963l-63.322-63.322 222.816-40.656-40.669 222.794-62.605-62.605c-65.642 64.461-162.675 104.234-261.949 104.234-200.909 0-363.77-162.906-363.77-363.789zM488.57 342.986v46.246h-84.541v42.205l88.717 119.091h41.994v-120.25h26.576v-41.043h-26.576v-46.246l-46.17-0.003zM488.57 430.269v55.261l-41.165-55.261h41.165zM235.35 342.986c0 31.312 8.992 55.667 40.272 78.842 36.803 27.261 64.87 37.952 64.87 63.178 0 16.688-10.006 27.040-26.189 27.040-22.486 0-27.878-23.558-27.878-46.003h-46.336c-1.978 58.086 31.005 88.474 76.224 88.474 41.949 0 72.368-27.901 72.368-66.371 0-19.187-5.965-34.384-18.755-47.891-20.269-21.363-50.621-32.131-70.57-54.838h90.461v-42.47l-154.467 0.042z" horiz-adv-x="790" />
<glyph unicode="&#xe005;" d="M599.882 507.357v87.971c0 0-0.042 205.2-205.222 205.2-205.2 0-205.242-205.2-205.242-205.2v-87.994h-87.93v-410.419h586.342v410.419l-87.949 0.022zM423.981 280.954v-96.118h-58.634v96.118c-17.45 10.147-29.318 28.838-29.318 50.47 0 32.378 26.224 58.656 58.634 58.656 32.355 0 58.634-26.301 58.634-58.656 0-21.632-11.898-40.32-29.315-50.47zM511.888 507.357h-234.538v87.952c0.33 24.528-0.022 117.27 117.27 117.27 117.27 0 116.96-93.123 117.248-117.27l0.019-87.952z" horiz-adv-x="790" />
<glyph unicode="&#xe006;" d="M679.626 202.077l-139.744 139.744c39.216 43.603 63.091 101.264 63.091 164.515 0 135.888-110.176 246.064-246.080 246.064s-246.064-110.176-246.064-246.064c0-135.904 110.157-246.064 246.064-246.064 43.28 0 83.968 11.184 119.299 30.79l146.234-146.214 57.2 57.229zM192.602 506.333c0 90.752 73.565 164.301 164.301 164.301 90.752 0 164.32-73.549 164.32-164.301 0-90.736-73.565-164.336-164.32-164.336-90.733 0-164.301 73.6-164.301 164.336z" horiz-adv-x="790" />
<glyph unicode="&#xe007;" d="M732.909 617.779h-112.762v-451.126h112.762c15.53 0 28.202 12.672 28.202 28.202v394.736c0.003 15.526-12.672 28.189-28.202 28.189zM563.786 617.802v0 28.215c0 54.96-43.629 84.595-84.573 84.595h-169.277c-54.87 0-84.595-43.597-84.595-84.595v-28.202h-56.394v-451.184h422.947v451.184l-28.109-0.013zM507.421 617.802v0h-225.67v28.202c0 0 0 28.202 28.202 28.202h169.277c0 0 28.202 0 28.202-28.202l-0.010-28.202zM140.816 617.779h-84.595c-15.485 0-28.202-12.685-28.202-28.202v-394.736c0-15.53 12.707-28.202 28.202-28.202h84.595v451.139z" horiz-adv-x="790" />
<glyph unicode="&#xe008;" d="M395.501 792.998l-89.846-258.336-273.363-5.514 217.962-165.2-79.174-261.725 224.422 156.176 224.4-156.176-79.216 261.725 217.853 165.2-273.245 5.514z" horiz-adv-x="790" />
<glyph unicode="&#xe009;" d="M106.294 168.752h-52.582v43.389h-16.374v-104.646h16.374v46.384h52.582v-46.384h16.483v104.646h-16.483zM221.638 214.595c-26.33 0-52.771-17.005-52.771-54.822 0-32.909 21.043-54.877 52.282-54.877 32.259 0 52.966 21.856 52.966 55.853 0.032 32.294-20.979 53.846-52.477 53.846zM256.707 160.598c0-8.262-1.366-23.248-11.402-33.344-5.808-5.84-13.702-8.87-23.498-8.87-26.058 0-35.277 21.174-35.277 41.261 0 25.68 13.072 41.152 35.114 41.152 21.798-0.003 34.813-15.094 35.062-40.198zM309.728 197.267h30.531v-89.773h16.538v89.773h30.349v14.874h-77.418zM454.931 153.715h49.542v14.819h-49.542v28.602h57.024v14.896h-73.018v-104.538h74.714v14.678h-58.72zM585.302 212.141h-16.397v-104.646h65.712v14.95h-49.315zM735.466 164.854c-3.462 1.498-6.982 2.182-12.8 3.626l-14.714 3.712c-8.49 1.987-18.861 4.419-18.861 14.483 0 10.749 11.629 14.518 21.661 14.518 7.341 0 13.018-1.498 17.35-4.691 7.069-5.126 7.45-12.931 7.613-15.69l0.032-1.366 16.592 1.117-0.195 1.334c-0.87 5.539-2.704 16.896-13.67 24.973-9.501 6.906-20.653 7.699-28.294 7.699-4.31 0-17.654 0-28.026-8.893-4.528-3.898-9.904-10.509-9.904-20.88 0-22.65 23.334-27.59 37.418-30.458l8.435-1.693c11.325-2.128 18.285-5.59 18.285-15.386 0-13.997-12.301-19.024-23.984-19.024-8.403 0-15.037 2.214-19.978 6.33-7.178 6.547-7.45 14.928-7.613 18.611l-0.109 1.606-17.382-2.291 0.054-1.334c2.237-32.659 31.923-36.234 44.474-36.234 11.706 0 21.043 2.454 28.544 7.373 8.838 6.134 13.562 15.005 13.562 25.808-0.019 7.152-2.387 20.038-18.49 26.749zM103.539 775.501h78.285l96.787-230.829 115.648 246.051 116.461-246.051 98.97 230.688 78.013 0.141-177.971-403.414-115.126 254.15-117.091-253.36-173.974 402.624z" horiz-adv-x="790" />
<glyph unicode="&#xe00a;" d="M395.197 815.757c-202.8 0-367.19-164.39-367.19-367.19s164.39-367.19 367.19-367.19c202.778 0 367.19 164.39 367.19 367.19s-164.41 367.19-367.19 367.19zM420.445 174.384v117.558h-48.448v-117.725c-132.778 11.126-239.043 116.845-251.014 249.402h119.36v48.448h-119.482c11.306 133.235 117.846 239.686 251.136 250.848v-119.171h48.448v119.005c132.323-12.083 237.808-118.157 249.069-250.682h-117.411v-48.448h117.302c-11.898-131.878-117.136-237.194-248.96-249.235z" horiz-adv-x="790" />
<glyph unicode="&#xe00b;" d="M674.637 217.802l-151.318 180.486 232.154 41.046c0.154 6.070 0.154 12.166 0 18.39l-232.154 41.069 151.318 180.333c-3.952 5.107-7.77 9.91-11.731 14.451l-204.406-117.907v235.818c-2.986 0.422-5.939 1.155-9.091 1.686-3.12 0.432-6.339 1.011-9.056 1.555l-80.682-221.507-151.472 180.742c-5.661-3.264-10.899-6.381-16.006-9.622l80.259-221.389-232.096 40.886c-1.974-5.674-4.362-11.754-6.515-17.427l204.416-117.754-204.416-118.064c2.131-5.805 4.25-11.754 6.394-17.536l232.253 41.046-80.381-221.677c5.216-3.12 10.477-6.381 16.138-9.344l151.472 180.877 80.682-221.811c5.939 0.989 12.186 2.131 18.125 3.264v235.971l204.406-118.064c4.080 4.701 7.763 9.507 11.709 14.48z" horiz-adv-x="790" />
<glyph unicode="&#xe00c;" d="M262.979 525.21h-43.258c4.64-2.282 7.322-7.875 7.322-13.974 0-5.552-1.469-13.296-4.851-21.885l-21.562-59.811-38.938 95.667h-34.858c9.734-7.398 14.33-22.573 7.21-39.382l-25.645-59.075-38.627 98.461h-40.765c6.509-4.416 11.325-14.72 17.267-28.88l39.763-99.894c5.35-13.462 11.382-20.448 24.208-26.467l41.421 93.286 28.458-66.842c5.795-13.238 11.571-20.448 24.355-26.467l58.499 155.264zM355.347 396.666c-10.134-7.398-20.528-10.691-35.146-10.691-7.91 0-14.918 0.678-19.994 1.891v38.182h10.592c13.005 0 17.51-0.957 20.928-4.838v22.253h-31.53v31.341c0 0 4.896 0.714 14.842 0.714 11.648 0 19.77-1.891 24.432-6.931v23.062h-75.776c5.942-3.315 6.918-8.112 6.918-28.416v-65.018c0-20.16-0.979-25.11-6.918-28.269h83.098l8.554 26.72zM453.462 410.717c0 37.226-56.374 34.71-56.374 57.475 0 6.765 5.974 12.65 16.477 12.65 11.114 0 20.771-4.006 31.139-14.051v26.49c-10.637 2.816-19.293 4.474-29.984 4.474-23.376 0-47.050-13.962-47.050-36.938 0-42.010 56.506-35.923 56.506-59.434 0-8.422-7.322-14.384-20.214-14.384-14.419 0-28.416 5.795-42.8 18.435l7.654-29.248c11.603-4.106 21.373-6.218 32.064-6.218 29.898 0.006 52.582 16.317 52.582 40.749zM561.667 491.699h-99.494l-6.653-23.062c7.453 5.018 14.128 6.931 26.544 6.931h11.738v-77.312c0-20.16-0.845-25.11-7.155-28.269h43.613c-6.141 3.158-6.986 8.112-6.986 28.269v77.312h10.413c11.037 0 18.435-1.613 22.163-6.931l5.818 23.062zM618.666 369.974c-5.997 3.158-6.931 8.112-6.931 28.269v65.018c0 20.304 0.934 25.11 6.931 28.416h-43.501c6.029-3.315 7.098-8.112 7.098-28.416v-65.018c0-20.16-1.069-25.11-7.098-28.269h43.501zM763.296 492.602h-39.84c7.965-4.16 8.922-12.982 8.922-26.49v-49.386l-51.021 60.499c-5.13 6.33-8.678 10.96-11.917 15.354h-35.091c7.155-4.16 10.592-12.048 10.592-28.605v-66.563c0-13.552-0.867-22.362-8.778-26.502h39.818c-7.933 4.138-8.922 12.928-8.922 26.502v50.266l52.646-62.413c7.453-8.867 16.957-12.56 34.768-15.341v96.157c-0.013 13.536 1.133 22.381 8.822 26.522z" horiz-adv-x="790" />
<glyph unicode="&#xe00d;" d="M392.298 694.874c38.253 0 77.219 36.141 77.219 74.397 0 38.218-37.094 77.21-75.36 77.21-38.218 0-76.253-39.872-76.253-78.125s36.141-73.482 74.394-73.482zM542.96 473.408c0 37.299 0 76.81 0 114.726 0 37.52 2.486 33.907 0 57.379-9.552 28.704-28.704 38.253-47.818 38.253-40.899 0-54.432 0-86.048 0-38.413 0-57.069 0.134-95.322 0.134-19.114 0-31.574 1.258-45.754-11.629-19.366-21.939-17.414-23.821-17.414-85.043 0-30.246 0-83.002 0-116.752 0-30.211-5.107-77.219 25.142-77.219 28.714 0 28.451 20.48 28.451 50.992 0 43.123-0.096 54.288-0.096 79.757 0 27.83-1.606 32.563 3.984 32.563 5.651 0 5.59-0.374 5.59-29.958 0-27.408-0.192-413.341-0.192-435.67 0-19.126 10.192-39.61 38.989-39.61 28.726 0 40.707 16.806 40.707 35.936 0 34.451 0 184.448 0 200.784 0 19.114 0.637 28.387 5.389 28.387 4.819 0 4.176-9.277 4.176-28.387 0-17.27 0-165.456 0-200.784 0-11.891 12.608-37.744 41.306-37.744 19.126 0 36.698 24.586 36.698 37.322 0 76.483 0.445 416.832 0.445 440.899 0 13.053-1.107 29.606 3.754 29.606s4.781-4.493 4.781-23.302c0-21.555 0-43.398 0-73.645 0-50.272 7.827-63.491 26.928-63.491 28.733 0.013 26.304 49.133 26.304 76.496z" horiz-adv-x="790" />
<glyph unicode="&#xe00e;" d="M754.899 288.816c-33.712 42.294-91.27 63.83-141.555 78.438-20.758 6.051-41.824 10.941-63.066 14.966-7.485-17.549-14.906-34.701-22.192-51.187 21.584-5.334 42.714-12.288 62.819-21.622 20.534-9.546 40.32-21.869 54.778-39.539 5.558-7.149 14.854-19.498 9.77-28.403-6.237-10.806-15.709-19.549-25.773-26.784-44.886-32.39-105.114-44.022-159.040-50.026-59.779-6.63-121.091-5.286-180.426 4.902-29.117 5.002-58.026 12.214-85.526 23.155-23.686 9.485-48.458 22.006-65.152 41.888-4.483 5.446-10.448 11.83-8.051 19.030 0.963 3.088 2.333 6.138 3.901 9.014 6.077 11.053 15.126 20.102 25.082 27.699 28.106 21.61 63.274 34.131 98.666 42.246-7.261 16.522-14.682 33.664-22.141 51.187-56.026-9.878-113.792-25.389-162.496-55.667-21.92-13.61-43.702-31.651-54.31-55.853-4.864-11.162-6.384-23.066-5.136-34.986 1.974-14.461 2.755-29.587 7.446-43.456 15.178-44.826 64.595-83.155 105.434-100.816 94.739-40.973 203.123-51.84 305.446-47.827 92.566 3.654 194.605 19.165 274.128 69.834 27.229 17.731 55.446 53.546 60.694 87.366 1.68 9.706 2.963 19.523 4.432 29.293 3.114 20.803-4.755 40.845-17.731 57.146zM754.899 288.816c14.717-18.448-14.115 17.722 0 0zM393.978 207.648c0 0 179.907 375.549 179.907 471.782s-79.094 176.685-176.723 176.685c-0.963 0-1.706 0.061-2.579 0.061-0.221 0-0.47 0-0.666 0h-0.384c-0.915 0-2.013-0.086-2.89-0.086-97.581 0-176.685-80.131-176.685-176.685 0.029-96.566 180.019-471.757 180.019-471.757zM393.51 775.91c44.691 0 80.909-36.243 80.909-80.909 0-44.739-36.218-80.957-80.909-80.957-44.714 0-80.957 36.218-80.957 80.957-0.003 44.666 36.243 80.909 80.957 80.909z" horiz-adv-x="790" />
<glyph unicode="&#xe00f;" d="M567.677 515.718c15.792 0 28.72 12.928 28.72 28.72v38.285c0 15.766-12.928 28.72-28.72 28.72h-19.763c-15.792 0-32.109 10.429-36.214 23.235-4.131 12.781-11.149 52.614 0.061 63.789l14.074 14.074c11.174 11.174 11.174 29.414 0 40.611l-27.027 27.062c-11.174 11.197-29.475 11.197-40.637 0l-14.074-14.099c-11.149-11.149-29.901-15.254-41.648-9.187-11.722 6.118-45.267 29.523-45.267 45.328v19.85c0 15.792-12.893 28.72-28.72 28.72h-38.358c-15.827 0-28.72-12.928-28.72-28.72v-19.85c0-15.792-10.429-32.083-23.296-36.214-12.72-4.083-52.566-11.027-63.677 0.109l-14.182 14.099c-11.114 11.174-29.414 11.174-40.611 0l-26.966-27.027c-11.235-11.235-11.235-29.475 0-40.672l14.048-14.074c11.197-11.174 15.28-29.901 9.222-41.587-6.118-11.747-29.523-45.376-45.328-45.376l-19.91 0.026c-15.827 0-28.72-12.928-28.72-28.72v-38.32c0-15.766 12.893-28.72 28.72-28.72h19.91c15.792 0 32.083-10.429 36.163-23.235 4.192-12.758 11.114-52.566-0.109-63.738l-14.118-14.163c-11.235-11.114-11.235-29.379-0.026-40.55l27.053-27.088c11.197-11.174 29.501-11.174 40.611 0l14.134 14.074c11.114 11.174 29.962 15.254 41.674 9.187 11.686-6.118 45.328-29.501 45.267-45.328v-19.85c-0.026-15.766 12.893-28.72 28.694-28.72h38.32c15.827 0 28.72 12.954 28.72 28.72v19.85c0 15.766 10.454 32.083 23.322 36.189 12.781 4.106 52.614 11.114 63.763-0.109l14.074-14.013c11.174-11.174 29.475-11.174 40.637 0l27.027 27.027c11.174 11.174 11.174 29.44 0 40.611l-14.074 14.074c-11.197 11.174-15.254 29.901-9.187 41.622 6.118 11.747 29.562 45.376 45.354 45.354l19.786 0.026zM309.187 439.149c-68.797 0-124.518 55.722-124.518 124.458 0 68.797 55.722 124.48 124.518 124.48s124.541-55.696 124.541-124.48c-0.013-68.739-55.782-124.458-124.541-124.458zM754.339 166.314c7.872 0 14.365 6.458 14.365 14.365v19.13c0 7.894-6.493 14.365-14.365 14.365h-9.821c-7.872 0-16.061 5.229-18.179 11.6-2.035 6.41-5.52 26.307 0.061 31.914l7.043 7.005c5.568 5.606 5.568 14.768 0 20.31l-13.475 13.587c-5.629 5.546-14.768 5.546-20.31 0l-7.066-7.066c-5.606-5.546-14.963-7.638-20.848-4.595-5.862 3.072-22.662 14.768-22.662 22.662l0.026 9.901c0 7.894-6.458 14.365-14.365 14.365h-19.13c-7.872 0-14.365-6.458-14.365-14.365v-9.942c0-7.894-5.229-16.061-11.574-18.118-6.435-2.010-26.342-5.485-31.914 0.109l-7.043 7.005c-5.52 5.606-14.707 5.606-20.275 0l-13.562-13.526c-5.568-5.606-5.568-14.768 0-20.362l7.005-7.005c5.52-5.606 7.616-14.963 4.57-20.822-3.072-5.885-14.794-22.662-22.662-22.662h-9.968c-7.872 0-14.365-6.458-14.365-14.365v-19.19c0-7.894 6.493-14.365 14.365-14.365h9.968c7.872 0 16.022-5.229 18.118-11.6 2.070-6.349 5.485-26.259-0.061-31.853l-7.066-7.066c-5.606-5.546-5.606-14.707 0.026-20.25l13.587-13.648c5.606-5.546 14.794-5.546 20.336 0.061l6.982 7.005c5.606 5.606 14.963 7.699 20.822 4.595 5.862-3.021 22.602-14.707 22.602-22.602v-9.901c0-7.894 6.493-14.365 14.365-14.365h19.242c7.894 0 14.365 6.458 14.365 14.365v9.942c0 7.894 5.251 16.061 11.6 18.070 6.435 2.070 26.282 5.546 31.888-0.061l7.066-7.005c5.546-5.606 14.682-5.606 20.31 0l13.475 13.526c5.568 5.546 5.568 14.707 0 20.31l-7.043 7.066c-5.568 5.546-7.616 14.938-4.57 20.822 3.072 5.885 14.682 22.662 22.579 22.662l9.923-0.010zM673.053 190.246c0-26.429-21.395-47.91-47.85-47.91-26.477 0-47.91 21.482-47.91 47.91s21.421 47.85 47.91 47.85c26.429 0.026 47.85-21.434 47.85-47.85z" horiz-adv-x="790" />
<glyph unicode="&#xe010;" d="M629.939 749.424l-286.218-603.296v296.819l-286.218 0.995 572.435 305.482z" horiz-adv-x="790" />
<glyph unicode="&#xe011;" d="M232.496 383.386h65.261v-97.875h-65.261v97.875zM363.014 383.386h65.238v-97.875h-65.238v97.875zM493.501 383.386h65.261v-97.875h-65.261v97.875zM232.496 513.91h65.261v-97.939h-65.261v97.939zM363.014 513.91h65.238v-97.939l-65.238-0.006v97.946zM493.501 513.91h65.261v-97.939h-65.261v97.939zM232.496 644.397h65.261v-97.875h-65.261v97.875zM363.014 644.397h65.238v-97.875h-65.238v97.875zM493.501 644.397h65.261v-97.875h-65.261v97.875zM232.496 774.874h65.261v-97.875h-65.261v97.875zM363.014 774.874h65.238v-97.875h-65.238v97.875zM493.501 774.874h65.261v-97.875h-65.261v97.875zM167.264 840.144v-782.998h163.114v130.477h130.509v-130.474h163.114v782.998l-456.736-0.003z" horiz-adv-x="790" />
<glyph unicode="&#xe012;" d="M245.299 308.451c-1.757-0.742-3.571-1.085-5.354-1.085-5.498 0-10.749 3.274-12.973 8.714-2.941 7.178 0.442 15.382 7.632 18.304 3.994 1.638 8.051 3.472 12.23 5.418 2.797 1.315 5.741 1.395 8.55 0.861l0.010 402.426-224.586-84.269v-505.261l224.586 84.237v75.146c-3.398-1.594-6.79-3.152-10.096-4.49zM86.768 500.378l-13.414-4.4c-1.414-0.464-2.877-0.675-4.301-0.675-5.962 0-11.434 3.782-13.347 9.709-2.4 7.411 1.658 15.306 9.034 17.661l13.27 4.4c7.453 2.378 15.328-1.638 17.706-8.992 2.422-7.341-1.571-15.28-8.947-17.702zM136.49 514.454c-6.813 0-12.806 4.998-13.824 11.955-1.184 7.654 4.080 14.829 11.766 15.968 5.219 0.797 10.394 1.338 15.45 1.558 7.674 0.045 14.288-5.696 14.608-13.469 0.32-7.731-5.696-14.266-13.446-14.586-4.080-0.154-8.25-0.598-12.429-1.238-0.73-0.131-1.45-0.189-2.125-0.189zM147.318 375.578c1.482 5.133 3.517 10.173 5.971 15.229 3.418 6.989 11.757 9.93 18.746 6.515 6.979-3.373 9.875-11.789 6.534-18.746-1.757-3.616-3.242-7.21-4.336-10.893-1.814-6.093-7.411-10.074-13.469-10.074-1.283 0-2.643 0.198-3.981 0.563-7.366 2.176-11.648 9.974-9.466 17.405zM198.979 308.717c-1.837-6.070-7.398-9.952-13.446-9.952-1.315 0-2.72 0.198-4.080 0.576-6.534 2.022-12.451 5.354-17.462 9.93-5.718 5.219-6.138 14.090-0.918 19.805 5.254 5.718 14.090 6.17 19.84 0.918 1.914-1.757 4.138-2.976 6.736-3.782 7.389-2.291 11.571-10.109 9.331-17.494zM215.386 437.872c-2.256-4.435-4.832-8.835-7.597-13.194-2.643-4.259-7.232-6.592-11.888-6.592-2.554 0-5.12 0.698-7.43 2.134-6.579 4.115-8.592 12.794-4.48 19.363 2.323 3.715 4.499 7.398 6.435 11.171 3.539 6.877 12.054 9.587 18.899 6.016 6.918-3.571 9.616-12.042 6.061-18.899zM213.226 485.315c-1.802-0.797-3.76-1.194-5.638-1.194-5.376 0-10.528 3.139-12.851 8.394-1.517 3.472-3.341 6.592-5.376 9.258-4.678 6.17-3.517 14.986 2.698 19.664 6.192 4.678 14.973 3.494 19.642-2.675 3.373-4.435 6.272-9.478 8.691-14.95 3.168-7.062-0.064-15.376-7.165-18.496zM507.315 362.816c-2.72 0-5.498 0.819-7.917 2.477-3.782 2.576-7.574 5.098-11.27 7.475-6.557 4.179-8.515 12.851-4.336 19.408 4.157 6.515 12.829 8.438 19.408 4.301 1.616-1.018 3.261-2.157 4.877-3.242v265.613l-224.605 84.24v-505.302l224.582-84.227v209.434c-0.24-0.022-0.493-0.176-0.739-0.176zM321.606 348.042l-12.275-6.912c-2.157-1.216-4.534-1.802-6.835-1.802-4.931 0-9.686 2.576-12.275 7.178-3.782 6.778-1.36 15.35 5.418 19.11l12.154 6.858c6.714 3.782 15.35 1.459 19.12-5.318 3.827-6.726 1.446-15.277-5.306-19.114zM382.653 380.058c-4.035-1.779-8.118-3.715-12.253-5.741-2.022-0.982-4.080-1.437-6.17-1.437-5.219 0-10.208 2.896-12.63 7.853-3.418 6.957-0.563 15.382 6.394 18.768 4.48 2.179 8.858 4.278 13.194 6.237 7.078 3.139 15.405-0.022 18.525-7.101 3.19-7.11 0.016-15.405-7.059-18.579zM444.592 393.107c-0.819 0-1.638 0.077-2.499 0.221-2.976 0.541-5.917 0.819-8.813 0.819-7.674 0-15.251 6.138-15.373 13.789-0.099 7.674 4.602 13.968 12.288 14.234 0.154 0 2.918 0.045 3.053 0.045 4.499 0 9.091-0.419 13.747-1.261 7.654-1.36 12.73-8.669 11.347-16.269-1.165-6.8-7.082-11.578-13.75-11.578zM536.138 658.819v-505.261l224.563 84.237v505.293l-224.563-84.269zM723.43 415.866c2.842-7.2-0.742-15.373-7.952-18.17-1.68-0.662-3.395-0.982-5.098-0.982-5.619 0-10.915 3.395-13.094 8.934-1.603 4.138-3.363 8.25-5.155 12.307-3.174 7.078-0.045 15.382 7.056 18.566 7.056 3.242 15.382 0.045 18.566-7.056 1.978-4.486 3.917-9.021 5.677-13.6zM575.040 326.653c-2.742-3.715-6.989-5.674-11.27-5.674-2.918 0-5.818 0.896-8.339 2.755l-11.347 8.493c-6.214 4.656-7.43 13.446-2.774 19.642 4.634 6.17 13.469 7.453 19.642 2.774l11.171-8.339c6.218-4.621 7.539-13.392 2.918-19.651zM575.162 584.237c3.040 7.078 11.29 10.406 18.426 7.376l51.622-22.019 22.285 37.59c3.936 6.637 12.573 8.893 19.219 4.922 6.656-3.936 8.858-12.573 4.899-19.21l-20.358-34.394 35.29-15.072c7.11-3.040 10.451-11.27 7.398-18.426-2.234-5.318-7.453-8.515-12.893-8.515-1.878 0-3.738 0.365-5.539 1.117l-38.73 16.512-24.563-41.472c-2.643-4.413-7.299-6.89-12.109-6.89-2.422 0-4.877 0.621-7.11 1.981-6.691 3.936-8.893 12.573-4.931 19.219l22.704 38.275-48.205 20.56c-7.126 3.062-10.445 11.29-7.405 18.445zM636.221 292.502c-2.301-5.318-7.453-8.438-12.874-8.438-1.878 0-3.76 0.397-5.638 1.184-4.499 2-9.014 4.214-13.568 6.614-6.858 3.616-9.478 12.109-5.84 18.966 3.683 6.835 12.154 9.488 18.989 5.818 3.914-2.080 7.818-3.981 11.712-5.674 7.075-3.075 10.314-11.37 7.219-18.47zM661.798 496.064c6.413 4.435 15.152 2.877 19.565-3.472 2.522-3.693 5.274-7.754 8.074-12.086 4.192-6.515 2.333-15.229-4.157-19.421-2.355-1.536-5.021-2.234-7.597-2.234-4.602 0-9.136 2.256-11.834 6.413-2.643 4.080-5.174 7.875-7.533 11.248-4.394 6.358-2.877 15.094 3.482 19.552zM697.952 285.747c-4.998-3.040-10.394-5.453-15.846-7.155-1.395-0.442-2.819-0.621-4.179-0.621-5.971 0-11.533 3.859-13.414 9.853-2.301 7.411 1.837 15.283 9.235 17.584 3.363 1.040 6.592 2.499 9.654 4.358 6.637 4.035 15.251 1.901 19.309-4.71 3.987-6.659 1.875-15.306-4.758-19.309zM735.376 340.166c-1.062-6.957-7.078-11.955-13.846-11.955-0.72 0-1.437 0.045-2.134 0.154-7.654 1.162-12.928 8.317-11.789 15.968 0.541 3.594 0.819 7.299 0.819 11.050 0 7.773 6.259 14.454 14.032 14.454 7.754 0 14.045-5.84 14.045-13.59-0.026-6.048-0.41-11.123-1.126-16.080z" horiz-adv-x="790" />
<glyph unicode="&#xe013;" d="M768.314 333.958c0-21.722-15.203-39.322-33.92-39.322h-20.141c-18.762 0-33.942 17.61-33.942 39.322v228.682c0 21.722 15.216 39.322 33.942 39.322h20.141c18.73 0 33.92-17.61 33.92-39.322v-228.682zM22.8 333.958c0-21.722 15.181-39.322 33.91-39.322h20.118c18.762 0 33.942 17.61 33.942 39.322v228.682c0 21.722-15.181 39.322-33.942 39.322h-20.106c-18.739 0-33.92-17.61-33.92-39.322l-0.003-228.682zM626.077 642.019c21.869 0 39.603-20.525 39.603-45.872v-295.686c0-25.338-17.734-45.872-39.603-45.872h-23.485c-21.856 0-39.568 20.534-39.568 45.872v91.824h-334.915v-91.824c0-25.338-17.734-45.872-39.603-45.872h-23.462c-21.856 0-39.603 20.534-39.603 45.872v295.686c0 25.347 17.734 45.872 39.603 45.872h23.462c21.869 0 39.603-20.525 39.603-45.872v-91.856h334.915v91.856c0 25.347 17.712 45.872 39.568 45.872h23.485zM566.506 478.019h-336.803v-48.176h336.803v48.176z" horiz-adv-x="790" />
<glyph unicode="&#xe014;" d="M84.384 137.478h29.61l0.029-29.635h-29.61l-0.029 29.635zM143.632 137.478h29.635l0.003-29.635h-29.635l-0.003 29.635zM84.384 196.778h29.61v-29.674h-29.61v29.674zM143.632 196.778h29.635v-29.674h-29.635v29.674zM84.384 256.026h29.61v-29.61h-29.61v29.61zM143.632 256.026h29.635v-29.61h-29.635v29.61zM84.384 315.299h29.61v-29.635h-29.61v29.635zM143.632 315.299h29.635v-29.635h-29.635v29.635zM84.384 374.525h29.61v-29.61h-29.61v29.61zM143.632 374.525h29.635v-29.61h-29.635v29.61zM84.384 433.773h29.61v-29.635h-29.61v29.635zM143.632 433.773h29.635v-29.635h-29.635v29.635zM84.384 493.11h29.61v-29.635h-29.61v29.635zM143.632 493.11h29.635v-29.635h-29.635v29.635zM84.384 552.336h29.61v-29.61h-29.61v29.61zM143.632 552.336h29.635v-29.61h-29.635v29.61zM84.384 611.629h29.61v-29.635h-29.61v29.635zM143.632 611.629h29.635v-29.635h-29.635v29.635zM84.384 759.763v-59.296h-29.635v-651.846h148.17v651.846h-29.661v59.296h-88.874zM439.907 137.504h29.661v-29.61h-29.661v29.61zM499.2 137.504h29.635v-29.61h-29.635v29.61zM439.907 196.778h29.661v-29.674h-29.661v29.674zM499.2 196.778h29.635v-29.674h-29.635v29.674zM439.907 256.026h29.661v-29.61h-29.661v29.61zM499.2 256.026h29.635v-29.61h-29.635v29.61zM439.907 315.299h29.661v-29.635h-29.661v29.635zM499.2 315.299h29.635v-29.635h-29.635v29.635zM439.907 374.547h29.661v-29.61h-29.661v29.61zM499.2 374.547h29.635v-29.61h-29.635v29.61zM439.907 433.811h29.661v-29.635h-29.661v29.635zM499.2 433.811h29.635v-29.635h-29.635v29.635zM439.907 493.056h29.661v-29.61h-29.661v29.61zM499.2 493.056h29.635v-29.61h-29.635v29.61zM439.907 552.336h29.661v-29.635h-29.661v29.635zM499.2 552.336h29.635v-29.635h-29.635v29.635zM439.907 611.581h29.661v-29.61h-29.661v29.61zM499.2 611.581h29.635v-29.61h-29.635v29.61zM439.907 670.854h29.661v-29.635h-29.661v29.635zM499.2 670.854h29.635v-29.635h-29.635v29.635zM439.907 730.102h29.661v-29.635h-29.661v29.635zM499.2 730.102h29.635v-29.635h-29.635v29.635zM558.467 848.624l-148.16-88.886v-711.12h148.16v800.006zM262.15 167.139h29.635v-29.635h-29.635v29.635zM321.43 167.139h29.61v-29.635h-29.61v29.635zM262.15 226.413h29.635v-29.61h-29.635v29.61zM321.43 226.413h29.61v-29.61h-29.61v29.61zM262.15 285.661h29.635v-29.635h-29.635v29.635zM321.43 285.661h29.61v-29.635h-29.61v29.635zM262.15 344.925h29.635v-29.61h-29.635v29.61zM321.43 344.925h29.61v-29.61h-29.61v29.61zM262.15 404.186h29.635v-29.635h-29.635v29.635zM321.43 404.186h29.61v-29.635h-29.61v29.635zM262.15 463.446h29.635v-29.661h-29.635v29.661zM321.43 463.446h29.61v-29.661h-29.61v29.661zM262.15 522.694h29.635v-29.635h-29.635v29.635zM321.43 522.694h29.61v-29.635h-29.61v29.635zM262.15 581.968h29.635v-29.61h-29.635v29.61zM321.43 581.968h29.61v-29.61h-29.61v29.61zM232.544 48.618h148.112v562.963h-148.112v-562.963zM617.718 167.139h29.635v-29.635h-29.635v29.635zM677.005 167.139h29.61v-29.635h-29.61v29.635zM617.718 226.413h29.635v-29.61h-29.635v29.61zM677.005 226.413h29.61v-29.61h-29.61v29.61zM617.718 285.661h29.635v-29.635h-29.635v29.635zM677.005 285.661h29.61v-29.635h-29.61v29.635zM617.718 344.925h29.635v-29.61h-29.635v29.61zM677.005 344.925h29.61v-29.61h-29.61v29.61zM617.718 404.186h29.635v-29.635h-29.635v29.635zM677.005 404.186h29.61v-29.635h-29.61v29.635zM617.718 463.446h29.635v-29.661h-29.635v29.661zM677.005 463.446h29.61v-29.661h-29.61v29.661zM617.718 522.694h29.635v-29.635h-29.635v29.635zM677.005 522.694h29.61v-29.635h-29.61v29.635zM677.005 581.968v-29.61h-29.635v29.61h-29.635v-29.61h-29.61v-503.718h148.17v503.718h-29.661v29.61h-29.629z" horiz-adv-x="790" />
<glyph unicode="&#xe015;" d="M49.27 694.25c1.901 0.336 3.61 1.126 5.478 1.126h680.336c1.981 0 3.69-0.787 5.498-1.126l-345.648-287.978-345.664 287.978zM765.994 664.429c0 3.238-0.899 6.253-1.821 9.2l-245.075-204.234 245.424-245.424c0.675 2.464 1.485 4.87 1.485 7.523l-0.013 432.934zM25.763 673.683c-0.957-2.979-1.968-5.926-1.968-9.232v-432.934c0-2.71 0.934-5.072 1.574-7.558l245.482 245.459-245.088 204.266zM495.232 449.526l-90.438-75.312c-2.835-2.406-6.352-3.578-9.862-3.578s-7.062 1.158-9.85 3.578l-90.349 75.277-247.437-247.392c2.464-0.662 4.902-1.552 7.491-1.552h680.336c2.71 0 5.126 0.89 7.603 1.552l-247.494 247.427z" horiz-adv-x="790" />
<glyph unicode="&#xe016;" d="M397.139 497.2c-4.944-7.331-11.99-10.47-18.474-11.056-11.136-0.922-20.4 4.966-26.006 9.885 0.045-1.453-0.202-3.501-0.621-6.688-2.816 1.667-5.427 2.646-7.318 3.299 0.688 8.016 0.586 14.736 0.506 17.562v4.198h3.67c1.802-6.71 8.704-13.014 16.291-16.291 7.194-3.12 15.142-2.691 21.254 2.467 4.378 3.613 6.25 13.667 1.722 20.413-0.934 1.274-2.182 2.544-3.613 3.725h13.059c1.194-1.734 2.352-4.154 2.768-5.776 1.536-6.662 1.008-15.523-3.238-21.738zM357.872 465.405c-5.933 9.907-17.226 18.451-25.523 15.469-2.848-0.989-4.31-3.613-4.243-6.138 0.013-3.402 2.397-6.733 7.43-6.304 0.989 0.067 2.566 0.608 3.514 1.373 1.846 1.418 2.624 3.581 3.018 4.944 1.622-0.822 3.818-2.419 5.629-4.189-3.242-7.363-13.702-9.661-20.298-5.696-3.725 2.208-6.429 6.461-5.629 12.71 0.586 4.672 3.478 7.699 6.845 9.693 4.029 2.499 8.893 2.893 14.861 1.373 6.653-1.69 12.397-5.901 14.445-8.848 1.149 1.453 2.499 3.738 3.514 5.584 2.182-1.114 5.786-2.646 9.661-3.072-1.898-4.582-9.136-14.288-13.222-16.899zM351.171 570.445c9.469 11.619 27.11 10.909 37.558 3.389 0.394-0.317 2.893-2.182 3.309-2.477l12.451 3.818c0 0-14.637-15.030-14.762-15.030-6.138 10.528-25.117 14.986-30.835 3.402-2.835-5.955-2.15-12.63 4.918-17.034v-11.28c-1.181 0.528-2.387 0.989-3.546 1.622-17.526 9.386-15.229 26.093-9.094 33.59zM421.683 556.442v-4.998h-6.742v-7.926h-9.974v7.926h-8.195l18.17 18.125v-13.126h6.742zM355.664 602.813c1.114-4.435 5.315-9.661 22-9.661 18.262 0 32.726-0.125 36.115-0.090 30.128 0.035 33.19-26.074 33.19-31.76 0-7.139-1.149-22.336-16.166-29.53-2.611-1.206-4.378-2.106-7.824-2.96 5.674-3.376 10.717-14.749 15.482-26.726 3.299-7.712 6.090-15.29 9.322-20.346 1.834-2.893 4.538-6.090 7.229-7.363 1.238-0.554 2.973-0.72 4.243-0.8 2.928-0.067 4.944 1.542 5.808 3.107-2.995-1.542-6.112 0.317-7.082 2.848-1.014 2.374-0.72 4.57 0.528 6.461 1.306 2.352 3.581 3.299 6.496 3.13 8.445-0.461 8.589-10.166 8.589-10.166-0.147-5.459-1.878-9.232-5.619-12.058-2.32-1.811-5.19-2.995-9.165-3.197-9.197-0.349-20.266 5.382-29.699 34.237-3.421 10.64-8.893 21.558-14.829 26.074-2.736 2.048-7.747 5.123-14.57 5.123l-21.018 0.045c0 0-0.317-5.821-0.304-7.283 0.090-3.264-1.014-19.568-2.016-21.594-2.342-0.474-8.826 0.912-9.942 2.182 1.43 5.651 1.802 12.554 2.016 24.531 0 1.587 0 2.32 0 2.32s-0.035 36.275-0.035 36.32c1.779 0.912 8.128 0.125 10.131-1.654l0.035-24.531c0 0 25.139 0.035 35.926 0.035 15.030 0 22.157 9.174 22.157 21.795 0 12.598-8.096 21.414-22.912 21.414h-41.923c-9.69-0.010-20.474 8.883-16.163 20.096zM454.762 518.454l-8.15-8.038-8.173 8.038 8.173 8.096 8.15-8.096zM404.918 469.178v54.48c2.995-0.067 9.165-4.502 9.974-6.282v-29.699l6.81 6.586 4.346-4.278-21.13-20.806zM414.4 425.798c11.584 5.123 24.486 5.405 33.978 1.014 0.384 1.587 0.81 3.197 0.81 3.197 2.374 4.109 6.598 6.496 11.235 6.496 6.138 0 10.819-4.301 12.214-9.987 14.173 2.656 28.224 18.598 32.784 32.998 2.15 6.474 4.166 17.485 4.166 25.613 0 0.922-0.035 1.766-0.112 2.611-0.269 4.378-0.957 8.016-1.766 10.787-0.349-0.035-0.72-0.224-1.104-0.224-6.979 0-12.79 5.808-12.79 12.915 0 2.454 0.621 4.762 1.811 6.666-2.893 1.645-5.843 3.862-8.387 6.666-8.656 9.165-12.013 22.944-13.296 32.931-0.496 3.658-0.72 7.059-0.72 10.346 0 5.347 0.621 10.211 1.926 14.477 1.014 3.478 2.419 6.518 3.974 9.254-7.139 1.283-14.704 5.664-20.592 14.243v0c-5.923 8.285-7.542 16.595-6.586 23.405-3.187-0.157-6.89 0.416-11.485 2.352-5.315 2.32-8.422 4.403-10.899 6.090 0 0-8.118 4.762-8.118 4.784-1.891 0.912-3.581 1.453-5.155 1.914-1.891-4.426-6.429-7.51-11.507-7.51-3.107 0-5.731 1.126-7.984 3.072-2.23-1.936-4.806-3.072-7.926-3.072-5.123 0-9.546 3.085-11.485 7.51-1.395-0.384-2.928-0.845-4.582-1.654 0 0-8.669-5.034-8.32-4.851-3.005-1.958-6.035-3.997-11.405-6.282-4.435-1.936-8.173-2.512-11.28-2.352 0.934-6.81-0.653-15.098-6.474-23.405-6.035-8.557-13.747-12.947-20.806-14.243 1.587-2.736 2.96-5.776 3.942-9.254 2.048-6.902 2.397-15.222 1.149-24.835-1.206-9.987-4.57-23.766-13.027-32.963-2.646-2.768-5.494-4.998-8.522-6.63 1.181-1.914 1.859-4.211 1.859-6.666 0-7.114-5.853-12.915-12.97-12.915-0.336 0-0.666 0.192-1.037 0.224-0.778-2.768-1.498-6.394-1.766-10.752-0.045-0.877-0.067-1.722-0.067-2.611 0-8.173 1.958-19.174 4.077-25.648 4.694-14.4 18.858-30.342 32.784-32.998 1.373 5.696 6.25 9.987 12.362 9.987 4.662 0 8.893-2.387 11.235-6.496 0 0 0.384-1.587 0.8-3.197 9.254 4.378 22.416 4.109 33.968-1.014 7.386-3.242 13.702-9.053 17.53-16.202 3.907 7.149 10.054 12.957 17.565 16.211zM523.459 488.63c-0.688 10.077-3.354 20.57-8.771 25.488-1.926 1.699-4.944 3.242-8.307 2.938-3.402-0.259-5.459-2.669-5.459-5.808 0-3.21 2.419-5.808 5.651-5.808 1.994 0 3.693 0.922 4.739 2.342 2.768-3.59 4.842-10.854 5.392-19.533 0.554-9.277-1.811-22.957-4.435-30.915-6.058-18.138-24.406-37.93-42.941-38.48-1.994-0.045-3.613 0.224-4.864 0.688 1.069 1.014 1.744 2.467 1.744 4.109 0 3.232-2.611 5.776-5.808 5.776-2.070 0-3.93-1.114-4.976-2.893-0.506-0.934-0.698-2.477-0.81-3.299 0-0.778 0-1.622 0.474-2.96 0.394-1.341 1.341-2.861 2.893-4.346 2.477-2.646 6.518-3.885 11.584-3.725 22.022 0.608 42.355 22.81 49.133 43.053 2.816 8.448 5.427 22.992 4.762 33.373zM333.293 429.402c-3.232 0-5.776-2.544-5.776-5.776 0-1.622 0.621-3.072 1.654-4.109-1.149-0.461-2.803-0.733-5.011-0.688-18.15 0.554-36.816 20.346-42.781 38.48-2.624 7.958-4.931 21.638-4.378 30.915 0.554 8.691 2.646 15.942 5.405 19.533 0.957-1.418 2.669-2.342 4.547-2.342 3.21 0 5.843 2.589 5.843 5.808 0 3.13-2.195 5.571-5.584 5.808-3.322 0.317-6.304-1.238-8.23-2.938-5.302-4.918-8.003-15.434-8.656-25.488-0.586-10.368 1.936-24.915 4.73-33.392 6.598-20.253 27.2-42.445 48.906-43.053 5.19-0.157 9.254 1.082 11.901 3.725 1.51 1.498 2.454 3.005 2.803 4.346 0.461 1.341 0.461 2.182 0.384 2.96 0 0.81-0.237 2.352-0.733 3.299-1.082 1.786-2.874 2.912-5.024 2.912zM281.27 525.434c0.72-0.957 1.654-1.734 2.803-2.195 1.318-0.621 2.736-0.97 4.301-0.822 1.395 0.067 2.803 0.349 4.211 0.877 2.995 1.104 6.138 3.242 8.749 6.138 7.206 7.766 10.131 20.061 11.315 28.989 1.114 8.624 0.765 15.974-0.934 21.907-2.624 8.736-7.114 14.208-12.026 15.098-1.206 0.259-2.307 0.282-3.85-0.259-1.958-0.733-3.725-2.883-3.725-5.315 0-3.085 2.477-5.629 5.651-5.629 1.834 0 3.456 0.89 4.47 2.24 1.373-1.958 2.736-4.672 3.658-7.926 1.51-5.034 1.779-11.562 0.778-19.363-1.069-8.051-3.626-19.050-9.75-25.658-1.846-1.971-3.725-3.322-5.392-4.109v0c0 3.165-2.566 5.808-5.808 5.808-2.781 0-6.17-2.208-5.664-6.97 0.221-1.085 0.627-1.987 1.213-2.81zM376.358 419.334c-9.898 4.39-21.539 4.627-28.89 0.688-3.974-2.24-6.461-5.056-7.52-8.387-0.371-1.082-0.621-2.307-0.586-3.536-0.035-0.045 0.080-2.566 1.587-4.211 1.046-1.149 2.544-1.926 4.166-1.926 3.264 0 5.866 2.544 5.866 5.731 0 2.262-1.261 4.198-3.107 5.133 0.653 0.573 1.498 1.181 2.512 1.744 5.709 3.085 15.414 2.691 23.61-0.922 5.382-2.387 10.099-7.206 12.362-12.858 0.778-1.891 1.238-3.862 1.373-5.619-0.336 0.090-0.586 0.125-0.989 0.125-3.165 0-5.776-2.611-5.776-5.808 0-3.21 2.611-5.853 5.776-5.843 3.242 0 5.056 2.083 5.674 3.040 2.499 3.862 1.722 11.325-0.317 16.438-2.886 7.206-8.704 13.107-15.741 16.211zM336.726 637.894c2.307-1.555 6.461-2.803 13.568 0.224 4.762 2.083 7.475 3.84 10.256 5.674l8.656 5.043c5.901 2.915 11.629 3.818 15.334 3.309-0.541-0.778-0.989-1.744-0.989-2.883 0-2.938 2.307-5.302 5.347-5.302 2.973 0 5.19 2.352 5.19 5.302 0 1.475-0.192 2.749-0.742 3.84-0.586 1.181-1.453 2.208-2.938 3.053-5.235 3.12-14.682 2.262-23.722-2.275l-9.197-5.325c-2.835-1.811-5.19-3.376-9.446-5.248-2.23-0.934-4.131-1.386-5.651-1.318 0.8 0.89 1.226 1.859 1.226 3.12 0 2.893-2.32 4.931-5.267 4.931-2.579 0-5.088-2.048-5.19-5.696-0.093-2.496 1.437-4.803 3.565-6.448zM302.806 600.304c0.845-0.653 1.859-1.181 3.232-1.587 6.304-1.766 16.256 0.989 23.485 11.213 6.858 9.83 6.509 20.131 2.624 25.117-0.957 1.181-2.24 2.128-3.546 2.656-1.622 0.586-3.232 0.554-4.403 0-2.070-0.989-3.344-2.803-3.344-5.155 0-2.915 2.397-5.222 5.302-5.222 1.037 0 1.994 0.384 2.861 0.97 0.778-3.706 0-9.322-4.109-15.13-4.595-6.554-10.131-9.008-14.195-9.29 0.112 0.461 0.336 1.341 0.336 1.878 0 3.053-2.512 5.347-5.571 5.347-1.082 0-2.512-0.349-3.725-1.475-0.81-0.81-1.51-2.24-1.51-4.010-0.080-1.274 0.541-3.040 1.181-3.917 0.426-0.55 0.842-1.002 1.382-1.395zM482.016 580.32c-1.734-5.933-2.083-13.286-0.934-21.907 1.126-8.928 4.122-21.222 11.373-28.989 2.512-2.893 5.651-5.034 8.611-6.138 1.306-0.506 2.736-0.81 4.166-0.877 1.578-0.147 2.995 0.202 4.346 0.822 1.206 0.451 2.115 1.238 2.768 2.195 0.64 0.822 1.046 1.722 1.206 2.848 0.586 4.762-2.835 6.97-5.651 6.97-3.232 0-5.901-2.646-5.901-5.808v0c-1.418 0.778-3.376 2.128-5.19 4.109-6.045 6.621-8.557 17.629-9.693 25.658-0.97 7.792-0.666 14.32 0.81 19.363 0.989 3.242 2.262 5.968 3.782 7.926 0.934-1.35 2.352-2.24 4.234-2.24 3.13 0 5.619 2.534 5.619 5.629 0 2.432-1.699 4.582-3.693 5.315-1.555 0.541-2.624 0.496-3.818 0.259-4.794-0.928-9.411-6.4-12.035-15.136zM464.163 609.939c7.046-10.234 17.213-12.982 23.517-11.213 1.462 0.394 2.477 0.934 3.354 1.587 0.429 0.394 0.989 0.845 1.306 1.395 0.608 0.877 1.149 2.646 1.149 3.917 0 1.766-0.688 3.197-1.462 4.010-1.274 1.114-2.611 1.475-3.725 1.475-3.072 0-5.674-2.275-5.674-5.347 0-0.541 0.202-1.418 0.304-1.878-4.010 0.282-9.613 2.736-14.275 9.29-3.974 5.808-4.762 11.427-4.010 15.13 0.89-0.573 1.834-0.97 2.928-0.97 2.723 0 5.155 2.32 5.155 5.222 0 2.352-1.274 4.166-3.434 5.155-1.069 0.554-2.566 0.586-4.154 0-1.373-0.528-2.646-1.475-3.581-2.656-3.76-4.998-4.157-15.277 2.602-25.117zM446.17 420.022c-7.398 3.942-18.947 3.706-28.854-0.688-7.139-3.107-12.915-9.008-15.75-16.166-1.958-5.11-2.835-12.563-0.237-16.438 0.586-0.97 2.374-3.040 5.494-3.040 3.264-0.013 5.923 2.624 5.923 5.843 0 3.197-2.656 5.808-5.923 5.808-0.336 0-0.621-0.035-0.989-0.125 0.157 1.734 0.554 3.706 1.373 5.619 2.374 5.629 7.082 10.448 12.643 12.858 8.096 3.613 17.61 4.010 23.44 0.922 1.037-0.573 1.891-1.181 2.544-1.744-1.859-0.957-3.13-2.883-3.13-5.133 0-3.187 2.624-5.731 5.843-5.731 1.667 0 3.264 0.778 4.301 1.926 1.587 1.645 1.622 4.166 1.622 4.211 0 1.226-0.237 2.432-0.554 3.536-1.114 3.277-3.661 6.093-7.747 8.342zM404.784 643.997c2.915 0 5.347 2.352 5.347 5.302 0 1.114-0.461 2.106-1.014 2.883 3.725 0.506 9.613-0.394 15.526-3.309l8.522-5.043c2.669-1.846 5.36-3.613 10.234-5.674 7.114-3.018 11.347-1.766 13.68-0.224 2.115 1.645 3.568 3.942 3.469 6.474-0.067 3.648-2.374 5.696-5.133 5.696-2.915 0-5.302-2.048-5.302-4.931 0-1.261 0.461-2.24 1.274-3.12-1.53-0.067-3.456 0.384-5.709 1.318-4.403 1.878-6.81 3.434-9.546 5.248l-9.062 5.325c-8.973 4.515-18.611 5.392-23.734 2.275-1.51-0.854-2.342-1.878-2.893-3.053-0.528-1.082-0.81-2.352-0.765-3.84 0.019-2.976 2.214-5.328 5.107-5.328zM305.645 290.912h-16.099v30.454h16.099c16.304 0 22.371-1.014 22.371-15.21-0.003-14.208-6.070-15.245-22.371-15.245zM337.741 276.365l-14.378 8.611c16.842 0.621 28.349 3.885 28.349 20.669 0 16.032-15.795 21.888-37.558 21.888h-54.378l10.042-8.973v-60.378l-10.042-9.974h39.808l-10.042 9.965v26.682h20.829l21.683-36.634h27.098l-11.181 9.974-10.23 18.17zM416.202 254.301v30.544h22.326l9.987-8.928v23.923l-9.987-8.941h-22.326v30.512h34.080l18.035-15.446v21.558h-83.875l11.101-10.019v-59.331l-11.101-9.965h83.875v21.539l-18.035-15.446-34.080 0.022zM660.336 327.536h-40.621l9.93-8.906v-61.494l-9.93-8.928h40.621l-9.974 8.928v61.494l9.974 8.906zM707.014 314.317c0 8.816 11.472 11.44 21.379 11.44 13.171 0 24.182-8.691 26.694-21.098h9.085l0.090 24.454-9.974-5.315c-5.11 3.818-15.875 7.363-26.029 7.363-16.842 0-37.277-4.998-37.277-24.915 0-25.533 62.384-22.81 62.384-43.21 0-9.965-12.397-13.027-24.499-13.027-15.626 0-24.947 12.026-27.446 24.848h-10.246v-28.237l10.403 5.843c9.062-4.944 16.877-7.792 26.726-7.792 22.461 0 40.090 7.363 40.090 25.725 0.013 30.941-61.379 27.834-61.379 43.92zM554.32 287.398l9.738-8.016v-13.949c0-7.363-10.435-13.318-18.182-13.318-24.374 0-27.334 21.84-27.334 35.814 0 19.523 7.51 36.499 27.392 36.499 17.203 0 24.419-9.446 30.195-23.002h8.579v26.118l-10.234-5.11c-3.478 2.208-12.013 7.331-28.474 7.331-29.958 0-51.146-13.082-51.146-41.475 0-30.106 20.874-42.141 50.573-42.141 8.522 0 18.666 2.938 27.955 8.589l11.347-6.518v31.197l9.782 8.016h-40.192zM152.477 248.208l13.184-11.629 13.184 11.629-13.184 11.664-13.184-11.664zM123.574 305.974l18.218 15.446h13.712v-43.085l-10.131-8.893h40.541l-10.077 8.893v43.085h13.747l18.182-15.446v21.558h-84.211v-21.558zM41.379 314.317c0 8.816 11.347 11.44 21.322 11.44 13.171 0 24.070-8.691 26.49-21.098h9.242l0.035 24.454-10.019-5.315c-5.043 3.818-15.862 7.363-25.882 7.363-16.797 0-37.21-4.998-37.21-24.915 0-25.533 62.17-22.81 62.17-43.21 0-9.965-12.17-13.027-24.339-13.027-15.661 0-25.117 12.026-27.494 24.848h-10.166v-28.237l10.278 5.843c9.13-4.944 16.931-7.792 26.794-7.792 22.403 0 40.013 7.363 40.013 25.725 0.003 30.941-61.232 27.834-61.232 43.92z" horiz-adv-x="790" />
<glyph unicode="&#xe017;" d="M297.491 350.538l9.69-39.658-125.715-76.531 76.531 125.814 39.494-9.626zM307.155 585.251l-125.693 76.522 76.522-125.715 39.514 9.626 9.658 39.568zM483.091 310.902l125.693-76.477-76.531 125.738-39.491-9.626-9.67-39.635zM532.259 536.013l76.621 125.76-125.882-76.531 9.648-39.571 39.613-9.658zM466.499 376.771l-71.315-293.331-71.437 293.331-293.187 71.315 293.187 71.315 71.437 293.331 71.194-293.331 293.309-71.315-293.187-71.315zM430.678 447.888c0 19.658-15.914 35.613-35.59 35.613-19.658 0-35.613-15.955-35.613-35.613s15.955-35.59 35.613-35.59c19.68 0 35.59 15.933 35.59 35.59z" horiz-adv-x="790" />
<glyph unicode="&#xe018;" d="M324.864 815.018v-225.36h-28.176v225.36h-56.333v-225.36h-28.176v225.36h-56.253l-0.077-253.67c0.112-31.062 25.27-56.221 56.333-56.221v-394.39c0-15.558 12.63-28.154 28.176-28.154h56.333c15.558 0 28.176 12.595 28.176 28.154v394.387c31.139 0 56.333 25.248 56.333 56.355v-28.154 281.702l-56.336-0.010zM550.224 815.018c-46.634 0-84.522-37.821-84.522-84.486v-309.882h56.365v-309.869c0-15.581 12.618-28.176 28.154-28.176h56.333c15.558 0 28.154 12.595 28.154 28.176v619.75c0 46.666-37.814 84.486-84.483 84.486z" horiz-adv-x="790" />
<glyph unicode="&#xe019;" d="M495.338 445.949l253.338 288.458h-190.538l-160.045-190.845-163.29 190.845h-192.214l252.198-284.048h1.133l-253.331-288.416h190.531l160.048 190.803 163.286-190.803h192.221l-252.205 284.006z" horiz-adv-x="790" />
<glyph unicode="&#xe01a;" d="M16.797 448c-0.013-1.18-0.021-2.574-0.021-3.97 0-209.237 169.62-378.858 378.858-378.858 205.050 0 372.053 162.899 378.655 366.344 0.195 17.664 0.203 19.058 0.203 20.454 0 209.237-169.62 378.858-378.858 378.858-205.050 0-372.053-162.899-378.655-366.344z" horiz-adv-x="790" />
<glyph unicode="&#xe01b;" d="M38.445 475.232c12.963-17.347 125.587-115.213 250.483-346.678 11.955-14.586 23.629 0 23.629 0s118.298 384.429 440.624 650.528c-41.411 2.966-277.456-120.054-478.547-403.997-196.88 127.408-236.189 100.147-236.189 100.147z" horiz-adv-x="790" />
<glyph unicode="&#xe01c;" d="M640.973 256.397l-0.522 1.379c-0.266 0.384-0.774 0.384-1.066 0.106-1.181-0.73-3.891-1.61-6.128-1.61-5.558 0-6.522 3.661-6.522 8.432v28.352l12.15-0.208c0.499 0 0.902 0.208 0.902 0.858v3.475c0 0.592-0.278 0.787-1.043 0.787h-12.022v14.083c0 0.95-0.544 1.296-0.995 1.296-0.544 0-0.87-0.451-1.030-0.995l-4.957-11.814c-0.65-1.658-1.805-2.573-2.896-2.573h-6.093c-0.65 0-1.030-0.394-1.030-0.995v-2.954c0-0.544 0.531-0.973 1.030-0.973h8.326v-30.426c0-6.845 4.448-9.507 12.973-9.507 3.059 0 6.893 1.053 8.72 2.419 0.307 0.256 0.368 0.451 0.202 0.867zM606.102 266.093c0 15.405-26.627 13.84-26.627 23.046 0 4.17 3.613 6.23 8.259 6.23 8.259 0 12.182-1.344 14.778-9.325 0.23-0.531 0.429-1.008 0.845-1.008 0.65 0 0.65 0.915 0.65 1.389l-0.221 10.342c0 0.509-0.438 0.87-1.066 0.995 0 0-8.755 1.322-14.339 1.322-10.816 0-14.662-5.222-14.662-12.346 0-15.194 26.256-12.080 26.256-23.222 0-4.493-5.072-6.797-8.998-6.797-8.627 0-13.482 1.958-16.56 10.838-0.080 0.627-0.509 1.216-1.146 1.216-0.752 0-0.835-0.717-0.752-1.344 0.221-1.574 0.416-3.891 0.509-5.674 0.256-1.958 0.358-3.984 0.464-5.536 0.106-0.742 0.614-1.216 1.354-1.379 2.733-0.752 9.082-2.154 14.87-2.154 9.008 0.003 16.387 2.794 16.387 13.405zM557.446 283.709c0-1.69-0.707-2.941-2.675-3.45-1.123-0.451-3.626-0.592-5.616-0.592h-3.162c-2.304 0-7.482 0.15-7.482 0.15-1.146 0-1.702 0.742-1.597 1.91 1.088 8.454 5.293 13.875 11.306 13.875 4.803-0.026 9.226-3.776 9.226-11.894zM565.696 279.248c0 14.246-9.242 19.875-17.466 19.875-10.714 0-19.85-9.034-19.85-22.918 0-17.002 9.936-23.498 19.517-23.498 7.203 0 13.203 3.994 16.064 9.264 0.080 0.278 0.080 0.486-0.208 0.787l-1.715 1.424c-0.266 0.173-0.592 0.093-0.787-0.349-1.933-3.034-6.915-6.243-11.245-6.243-5.882 0-12.88 4.077-13.424 16.47-0.106 1.158 1.066 2.141 2.224 2.141h24.381c1.302-0.010 2.509 1.6 2.509 3.046zM525.6 254.614c0 0.509-0.822 0.95-1.75 1.171l-2.989 0.614c-1.875 0.451-3.603 2.003-3.603 4.598v28.976l0.429 6.81c0 0.787-0.522 1.181-1.366 1.181h-12.336c-0.95 0-1.68-0.195-1.68-0.787 0-0.522 0.73-0.835 1.68-1.136l2.246-0.614c1.84-0.509 3.44-2.061 3.44-4.726v-24.16c0-5.014-7.158-8.269-11.488-8.269-6.128 0-9.869 3.347-9.869 9.555v21.914c0 4.134 0.531 5.421 1.296 6.080 0.614 0.627 1.366 0.835 1.366 1.437 0 0.509-0.429 0.707-1.366 0.707h-14.57c-0.973 0-1.645-0.195-1.645-0.787 0-0.522 0.672-0.835 1.645-1.136l2.237-0.614c1.91-0.509 3.475-2.061 3.475-4.726v-21.101c0-11.014 6.115-16.922 14.883-16.922 4.006 0 9.59 1.274 13.226 6 0.291 0.499 0.81 0.336 1.053-0.093l1.69-3.718c0.291-0.717 0.707-1.136 1.68-1.136h10.678c0.906 0.016 1.638 0.234 1.638 0.883zM472.982 283.558c0 0.531-0.499 1.066-1.354 1.066h-15.683c-0.973 0-1.379-0.195-1.379-0.717 0-0.659 0.592-0.752 1.379-1.494 0.602-0.637 1.146-1.632 1.146-3.811v-10.179c0-6.544-7.446-11.062-13.261-11.062-14.454 0-18.346 14.963-18.346 26.464 0 11.27 1.805 29.962 16.771 29.962 10.598 0 14.698-4.634 17.21-15.219 0.208-0.752 0.557-1.146 1.066-1.146 0.451 0 0.88 0.464 0.88 1.494v16.378c0 0.474-0.659 1.286-1.286 1.286-5.917 0.438-12.15 1.517-18.045 1.517-14.49 0-26.627-12.358-26.627-32.592 0-22.515 13.098-32.8 27.946-32.8 4.4 0 9.264 1.482 11.571 3.29 0.752 0.707 1.472 0.707 2.397 0.243l6.531-2.896c0.323-0.115 0.973-0.301 1.389-0.301 0.544 0 0.938 0.195 0.938 0.938 0 0.429-0.23 0.752-0.522 0.915-0.637 0.659-0.845 1.84-0.845 2.896v19.517c0 2.627 1.587 4.413 3.485 4.714l3.267 0.637c1.002 0.17 1.373 0.602 1.373 0.902zM766.218 351.402c0-0.774-0.291-1.472-0.717-2.166-2.432-3.846-6.65-6.173-9.856-6.173-6.218 0-11.93 4.541-11.93 18.218 0 11.629 4.541 19.181 11.722 19.181 8.246 0 10.771-3.718 10.771-10.758l0.010-18.301zM782.189 339.693c0 0.544-0.742 0.915-1.69 1.146l-3.302 0.557c-1.888 0.301-3.347 2.154-3.347 4.899v53.034l0.429 6.902c0 0.858-0.627 1.238-1.494 1.238h-14.384c-0.915 0-1.68-0.173-1.68-0.774 0-0.659 0.87-1.136 1.68-1.206l4.333-0.592c2.038-0.301 3.498-2.083 3.498-4.678v-16.829c0-0.566-0.291-0.995-0.902-0.787-2.826 1.008-6.138 1.715-10.285 1.715-10.272 0-19.389-9.197-19.389-23.024 0-16.989 8.502-23.581 18.138-23.581 3.67 0 8.016 1.667 11.27 5.165 0.358 0.314 0.627 0.544 0.858 0.544 0.291 0 0.531-0.221 0.742-0.544l1.366-2.733c0.429-0.774 0.87-1.322 1.68-1.322h10.771c0.954-0.010 1.709 0.224 1.709 0.87zM721.36 368.912c0-1.795-0.637-2.954-2.618-3.51-1.171-0.464-3.626-0.566-5.638-0.566h-3.197c-2.317 0-7.472 0.106-7.472 0.106-1.158 0-1.702 0.774-1.632 1.875 1.101 8.189 5.306 13.84 11.36 13.84 4.752 0 9.197-3.914 9.197-11.744zM729.584 364.362c0 14.176-9.219 19.942-17.408 19.942-10.701 0-19.898-9.418-19.898-23.126 0-16.896 9.904-23.488 19.549-23.488 7.229 0 13.216 3.882 16.064 9.437 0.106 0.266 0.106 0.474-0.221 0.787l-1.702 1.424c-0.301 0.221-0.637 0.106-0.822-0.291-1.901-3.091-6.88-6.486-11.178-6.486-5.965 0-12.915 4.25-13.424 16.55-0.128 1.181 1.043 2.083 2.224 2.083h24.39c1.267-0.016 2.426 1.616 2.426 3.168zM689.558 381.933c0.070 0.88-1.078 1.45-1.667 1.667-0.995 0.349-2.573 0.717-3.661 0.717-5.862 0-10.387-2.547-13.827-7.654-0.221-0.195-0.291-0.301-0.544-0.301-0.256 0-0.592 0.221-0.717 0.557l-1.587 4.944c-0.208 0.752-0.742 1.261-1.667 1.261h-10.55c-0.973 0-1.68-0.173-1.68-0.8 0-0.544 0.717-0.982 1.68-1.136l3.267-0.627c1.866-0.291 3.462-2.003 3.462-4.771v-29.488c0-2.755-1.459-4.355-3.37-4.899l-2.176-0.579c-0.982-0.314-1.725-0.579-1.725-1.261 0-0.499 0.752-0.752 1.725-0.752h18.842c0.95 0 1.725 0.256 1.725 0.88 0 0.544-0.774 0.8-1.725 1.123l-2.211 0.579c-1.853 0.544-3.462 2.154-3.462 4.899v22.493c0 1.494 0.509 3.184 1.261 4.227 1.84 2.976 5.014 5.293 8.675 5.293 3.277 0 5.2-0.707 6.243-3.427 0.429-0.995 0.522-3.024 1.552-3.024 0.8 0 0.982 0.659 1.088 1.587l1.050 8.493zM653.238 381.933c0.106 0.88-1.053 1.45-1.702 1.667-0.982 0.349-2.525 0.717-3.59 0.717-5.907 0-10.422-2.547-13.84-7.654-0.221-0.195-0.301-0.301-0.531-0.301-0.278 0-0.672 0.221-0.752 0.557l-1.574 4.944c-0.243 0.752-0.742 1.261-1.68 1.261h-10.563c-0.973 0-1.68-0.173-1.68-0.8 0-0.544 0.717-0.982 1.68-1.136l3.277-0.627c1.875-0.291 3.475-2.003 3.475-4.771v-29.488c0-2.755-1.459-4.355-3.382-4.899l-2.202-0.579c-0.938-0.314-1.667-0.579-1.667-1.261 0-0.499 0.73-0.752 1.667-0.752h18.867c0.982 0 1.75 0.256 1.75 0.88 0 0.544-0.765 0.8-1.75 1.123l-2.211 0.579c-1.91 0.544-3.475 2.154-3.475 4.899v22.493c0 1.494 0.531 3.184 1.274 4.227 1.76 2.976 4.922 5.293 8.627 5.293 3.29 0 5.2-0.707 6.243-3.427 0.464-0.995 0.566-3.024 1.597-3.024 0.765 0 0.982 0.659 1.088 1.587l1.056 8.493zM606.576 368.912c0-1.795-0.707-2.954-2.675-3.51-1.171-0.464-3.59-0.566-5.584-0.566h-3.197c-2.294 0-7.504 0.106-7.504 0.106-1.158 0-1.645 0.774-1.539 1.875 1.053 8.189 5.258 13.84 11.28 13.84 4.784 0 9.219-3.914 9.219-11.744zM614.778 364.362c0 14.176-9.162 19.942-17.408 19.942-10.678 0-19.862-9.418-19.862-23.126 0-16.896 9.891-23.488 19.549-23.488 7.181 0 13.181 3.882 16.042 9.437 0.093 0.266 0.093 0.474-0.221 0.787l-1.667 1.424c-0.349 0.221-0.627 0.106-0.822-0.291-1.933-3.091-6.893-6.486-11.235-6.486-5.93 0-12.915 4.25-13.398 16.55-0.106 1.181 1.043 2.083 2.224 2.083h24.426c1.216-0.016 2.374 1.616 2.374 3.168zM576.883 404.422c0.106 0.557 0.195 1.123-0.336 1.597-1.379 1.181-4.563 2.269-8.976 2.269-8.442 0-14.64-3.498-14.64-13.296v-11.894h-5.501c-0.672 0-1.066-0.394-1.066-1.066v-2.698c0-0.659 0.384-1.123 1.066-1.123h5.501v-31.722c0-3.325-0.566-4.806-1.296-5.514-0.614-0.579-1.414-0.752-1.414-1.437 0-0.499 0.474-0.752 1.414-0.752h15.67c1.008 0 1.76 0.256 1.76 0.88 0 0.544-0.752 0.915-1.76 1.123l-3.267 0.579c-1.875 0.301-3.533 2.154-3.533 4.899v31.942l14.442-0.336c0.531 0 1.078 0.243 1.078 0.8v3.718c0 0.544-0.544 0.717-1.078 0.717h-14.442v14.406c0 3.683 2.016 7.552 6.093 7.552 2.339 0 5.466-2.237 7.494-5.616 0.106-0.323 0.557-0.451 0.915-0.451 0.774 0 1.158 0.314 1.286 0.938l0.589 4.483zM532.813 368.912c0-1.795-0.614-2.954-2.662-3.51-1.136-0.464-3.568-0.566-5.584-0.566h-3.206c-2.294 0-7.459 0.106-7.459 0.106-1.171 0-1.715 0.774-1.622 1.875 1.053 8.189 5.315 13.84 11.35 13.84 4.726 0 9.184-3.914 9.184-11.744zM541.050 364.362c0 14.176-9.184 19.942-17.418 19.942-10.656 0-19.875-9.418-19.875-23.126 0-16.896 9.914-23.488 19.517-23.488 7.203 0 13.203 3.882 16.086 9.437 0.106 0.266 0.106 0.474-0.208 0.787l-1.69 1.424c-0.323 0.221-0.65 0.106-0.88-0.291-1.91-3.091-6.81-6.486-11.2-6.486-5.917 0-12.867 4.25-13.366 16.55-0.15 1.181 1.053 2.083 2.176 2.083h24.403c1.261-0.016 2.454 1.616 2.454 3.168zM501.002 381.933c0.115 0.88-1.053 1.45-1.69 1.667-0.982 0.349-2.538 0.717-3.578 0.717-5.907 0-10.47-2.547-13.827-7.654-0.256-0.195-0.323-0.301-0.531-0.301-0.358 0-0.659 0.221-0.752 0.557l-1.587 4.944c-0.195 0.752-0.73 1.261-1.69 1.261h-10.55c-0.938 0-1.715-0.173-1.715-0.8 0-0.544 0.774-0.982 1.715-1.136l3.302-0.627c1.866-0.291 3.485-2.003 3.485-4.771v-29.488c0-2.755-1.494-4.355-3.37-4.899l-2.246-0.579c-0.928-0.314-1.702-0.579-1.702-1.261 0-0.499 0.765-0.752 1.702-0.752h18.89c0.915 0 1.69 0.256 1.69 0.88 0 0.544-0.774 0.8-1.69 1.123l-2.224 0.579c-1.866 0.544-3.485 2.154-3.485 4.899v22.493c0 1.494 0.509 3.184 1.261 4.227 1.805 2.976 4.992 5.293 8.675 5.293 3.277 0 5.165-0.707 6.218-3.427 0.451-0.995 0.566-3.024 1.61-3.024 0.752 0 0.95 0.659 1.053 1.587l1.037 8.493zM454.87 384.944c0-12.451-8.026-14.95-17.882-14.95h-5.363c-0.938 0-2.016 0.845-2.016 1.715v23.731c0 1.437 1.206 2.547 2.64 2.547h5.792c11.939-0.003 16.829-4.314 16.829-13.043zM464.227 384.618c0 12.819-10.342 17.523-22.374 17.523h-28.816c-0.928 0-1.69-0.195-1.69-0.845 0-0.522 0.752-0.995 1.69-1.078l4.32-0.557c1.923-0.336 3.462-2.154 3.462-4.864l0.128-23.29-0.128-25.885c0-2.768-1.344-4.426-3.232-4.816-0.982-0.208-1.725-0.579-1.725-1.261 0-0.499 0.742-0.752 1.725-0.752h18.982c0.928 0 1.658 0.256 1.658 0.752 0 0.694-0.8 1.066-1.658 1.261l-3.277 0.579c-1.91 0.301-3.578 2.246-3.578 4.899l-0.115 17.779c0 0.995 1.078 1.888 2.016 1.888h6.765c17.414 0.006 25.846 7.814 25.846 18.666zM770.851 436.422c0-0.835-0.336-1.632-0.774-2.282-2.419-3.834-6.624-6.218-9.843-6.218-6.208 0-11.894 4.541-11.894 18.39 0 11.997 4.493 19.12 11.696 19.12 8.259 0 10.816-3.485 10.816-10.864v-18.147zM786.774 424.794c0 0.557-0.73 0.928-1.69 1.181l-3.277 0.627c-1.901 0.23-3.347 1.795-3.347 4.563v53.066l0.416 6.893c0 0.822-0.65 1.296-1.482 1.296h-14.362c-0.915 0-1.702-0.195-1.702-0.893 0-0.627 0.845-0.938 1.702-1.066l4.333-0.742c1.994-0.266 3.498-2.096 3.498-4.528v-16.931c0-0.531-0.336-0.995-0.973-0.774-2.838 1.018-6.173 1.658-10.285 1.658-10.227 0-19.283-8.65-19.283-22.826 0-17.139 8.419-23.475 18.032-23.475 3.741 0 8.016 1.597 11.293 4.864 0.349 0.349 0.65 0.544 0.835 0.544 0.336 0 0.557-0.195 0.717-0.544l1.414-2.48c0.416-0.787 0.835-1.344 1.667-1.344h10.784c0.989-0.003 1.709 0.24 1.709 0.912zM725.741 444.774c0-7.632-2.096-18.090-11.814-18.090-10.378 0-12.496 13.088-12.496 20.592 0 8.176 2.224 17.616 11.939 17.616 10.47 0.010 12.371-12.198 12.371-20.118zM733.962 446.115c0 12.346-7.283 23.014-20.394 23.014-12.938 0-20.384-10.678-20.384-23.014 0-12.218 7.296-23.28 20.384-23.28 13.133 0.003 20.394 11.062 20.394 23.28zM678.602 444.774c0-7.632-2.083-18.090-11.789-18.090-10.342 0-12.496 13.088-12.496 20.592 0 8.176 2.282 17.616 12.022 17.616 10.374 0.010 12.262-12.198 12.262-20.118zM686.87 446.115c0 12.346-7.309 23.014-20.384 23.014-12.947 0-20.384-10.678-20.384-23.014 0-12.218 7.309-23.28 20.384-23.28 13.078 0.003 20.384 11.062 20.384 23.28zM644.829 467.274c0 0.544-0.81 0.774-1.795 0.774h-12.358c-0.902 0-1.562-0.23-1.562-0.627 0-0.474 0.301-0.752 0.822-0.973l2.698-1.030c1.251-0.509 1.414-1.853 1.030-3.578l-7.296-28.259c-0.128-0.557-1.043-0.557-1.286 0l-11.094 32.8c-0.070 0.451-1.066 0.566-1.994 0.566-0.973 0-1.91-0.115-2.003-0.566l-11.629-32.013c-0.208-0.566-1.146-0.566-1.274 0l-6.614 27.482c-0.323 1.261-0.115 2.989 1.146 3.578l2.118 1.030c0.394 0.221 0.694 0.499 0.694 0.973 0 0.394-0.566 0.627-1.552 0.627h-14.998c-0.928 0-1.69-0.23-1.69-0.893 0-0.486 0.637-0.774 1.482-0.982l1.981-0.742c1.181-0.358 1.933-0.752 2.339-2.118l11.744-39.424c0.221-0.752 1.587-1.043 2.931-1.043 1.389 0 2.768 0.278 2.989 1.043l10.656 28.688c0.208 0.557 1.366 0.707 1.552 0l9.763-28.688c0.195-0.637 1.552-1.043 2.963-1.043 1.459 0 2.826 0.278 3.082 1.043l13.062 39.587c0.474 1.437 1.76 2.189 2.755 2.605 0.784 0.179 1.338 0.56 1.338 1.184zM576.41 466.883c0.128 0.835-1.030 1.366-1.68 1.61-0.928 0.323-2.538 0.637-3.626 0.637-5.917 0-10.422-2.445-13.818-7.296-0.208-0.173-0.301-0.243-0.566-0.243-0.291 0-0.592 0.106-0.717 0.394l-1.622 4.816c-0.163 0.659-0.707 1.216-1.632 1.216h-10.598c-0.893 0-1.68-0.23-1.68-0.893 0-0.451 0.774-0.858 1.68-0.982l3.312-0.614c1.875-0.358 3.462-1.888 3.462-4.39v-29.984c0-2.755-1.472-4.182-3.36-4.563l-2.246-0.627c-0.928-0.323-1.702-0.627-1.702-1.296 0-0.557 0.774-0.8 1.702-0.8h18.89c0.915 0 1.738 0.256 1.738 0.915 0 0.557-0.81 0.845-1.738 1.181l-2.211 0.627c-1.888 0.371-3.52 1.795-3.52 4.563v22.573c0 1.517 0.592 3.498 1.296 4.726 1.795 2.851 4.992 5.005 8.675 5.005 3.242 0 5.178-0.822 6.243-3.117 0.384-1.008 0.531-3.254 1.574-3.254 0.742 0 0.982 0.774 1.101 1.782l1.043 8.016zM525.389 434.79c0-4.726-5.363-7.981-11.952-7.981-5.664 0-8.224 3.59-8.224 9.254 0 3.059 1.923 5.293 5.187 6.128l13.85 3.926c0.752 0.291 1.146 0 1.146-0.672l0.006-10.656zM541.258 424.794c0 0.637-0.742 0.928-1.715 1.181l-3.162 0.627c-1.923 0.278-3.395 1.795-3.395 4.563v22.294c0 12.218-6.381 15.683-16.989 15.683-4.563 0-8.838-0.995-13.283-1.322-0.637 0-1.088-0.394-1.088-0.995l0.106-12.566c0-0.451 0.336-0.659 0.637-0.659 0.336 0 0.65 0.221 0.742 0.557 1.69 7.818 4.678 11.027 12.682 11.027 3.798 0 9.6-1.622 9.6-6.637v-4.298c0-3.37-2.512-4.483-5.558-5.501-4.992-1.552-10.816-2.166-14.72-3.613-5.258-2.502-7.261-6.915-7.261-11.002 0-7.376 5.686-11.293 12.973-11.293 5.072 0 9.472 1.366 13.216 3.904 0.384 0.243 0.73 0.384 1.331 0.384 0.464 0 0.774-0.163 1.078-0.531l0.81-1.482c0.336-0.579 0.893-1.251 1.853-1.251h10.413c0.976 0.013 1.731 0.256 1.731 0.928zM494.016 426.602l-0.522 1.008c-0.195 0.451-0.73 0.451-1.088 0.093-1.146-0.566-3.869-1.158-6.045-1.158-5.674 0-6.624 3.395-6.624 8.246v28.422l12.195-0.243c0.486 0 0.95 0.243 0.95 0.902v3.267c0 0.672-0.349 0.893-1.066 0.893h-12.080v14.154c0 1.018-0.474 1.354-0.902 1.354-0.509 0-0.835-0.451-1.066-1.043l-4.979-12.080c-0.579-1.482-1.76-2.384-2.803-2.384h-6.138c-0.627 0-1.078-0.429-1.078-1.078v-2.755c0-0.544 0.579-0.995 1.078-0.995h8.374v-30.541c0-6.682 4.426-9.418 12.96-9.418 3.046 0 6.867 1.11 8.662 2.49 0.288 0.253 0.413 0.474 0.17 0.867zM459.283 440.998c0 23.674-35.59 17.453-35.59 34.326 0 5.616 4.643 8.454 10.691 8.454 11.514 0 17.475-3.846 19.978-15.635 0.080-0.531 0.509-0.87 0.774-0.87 0.464 0 0.893 0.464 0.893 1.238l-0.115 16.48c0 0.742-0.659 1.206-1.354 1.206-5.827 0.486-10.899 2.038-20.419 2.038-10.55 0-18.15-6.045-18.15-16.922 0-21.334 35.728-15.162 35.728-33.53 0-7.389-6.301-10.656-13.574-10.656-10.621 0-16.874 3.36-21.091 15.635-0.208 0.566-0.544 0.893-0.982 0.893-0.522 0-0.717-0.694-0.717-1.251l1.69-16.202c0-0.486 0.707-1.414 1.482-1.414 5.93-0.451 10.736-1.958 18.659-1.958 11.974 0.006 22.099 4.685 22.099 18.166zM369.283 492.038c0-21.242-25.978-25.133-42.086-25.133-17.302 0-44.438 6.346-44.438 27.286 0 6.035 2.061 15.866 9.219 18.218 5.674 0 27.773 0.87 43.002 0.87 25.050-0.003 34.304-5.642 34.304-21.242zM351.619 593.885c0-18.23-9.808-30.646-28.909-30.646-22.966 0-34.003 15.194-34.003 37.222 0 18.518 10.435 29.59 29.232 29.59 22.96 0.016 33.68-13.757 33.68-36.166zM399.107 628.816v7.459c0 2.109-1.194 2.41-3.277 2.41l-49.571-2.118c-7.725 3.312-16.365 5.072-25.92 5.072-29.859 0-53.414-17.581-53.414-44.416 0-17.962 10.448-31.987 25.92-38.797 1.216-0.614 1.83-1.261 1.83-2.141s-0.614-1.482-2.109-2.074c-7.76-3.312-13.725-11.686-13.725-21.53 0-5.094 2.675-10.758 7.168-14.291-11.93-6.544-19.725-18.461-19.725-31.744 0-26.787 25.677-36.678 48.957-36.678 29.267 0 70.717 11.082 70.717 46.915 0 28.352-18.16 35.219-44.438 35.219-13.747 0-29.834-1.11-35.242-1.11-8.941 0-12.531 4.749-12.531 10.086 0 7.203 7.747 11.651 17.939 11.651h8.65c29.869 0 53.114 17.894 53.114 44.509 0 10.979-3.277 20.234-10.17 27.728l32.531 0.902c2.102 0.003 3.296 0.861 3.296 2.947zM231.715 575.101c0-33.45-12.854-53.981-33.158-53.981-23.254 0-30.448 10.134-30.448 30.691v51.318c0 2.419 0.915 4.461 2.131 6.301 6.867 10.806 18.797 17.014 27.728 17.014 17.603 0.006 33.747-12.582 33.747-51.344zM254.394 575.101c0 48.051-23.834 66.538-51.053 66.538-10.435 0-22.701-4.435-31.952-14.605-0.858-0.87-1.795-1.45-2.374-1.45-0.915 0-1.482 0.579-2.083 1.45l-3.603 8.106c-0.87 2.074-2.374 3.555-4.762 3.555h-33.725c-2.71 0-4.806-0.614-4.806-2.41 0-1.45 2.109-2.976 4.806-3.277l12.208-1.795c5.443-0.87 9.6-5.93 9.6-13.424v-142.592c0-8.826-1.539-13.158-3.626-15.021-1.725-1.866-3.846-2.49-3.846-4.342 0-1.587 1.194-2.202 3.846-2.202h44.496c2.71 0 4.771 0.614 4.771 2.48 0 1.574-2.083 2.803-4.771 3.45l-9.254 1.782c-5.373 0.717-10.17 5.594-10.17 13.226v38.486c0 1.539 0.915 2.723 2.733 2.083 8.051-2.698 17.293-4.794 28.931-4.794 28.899-0.032 54.634 25.402 54.634 64.755zM117.686 548.288c0 43.581-75.2 39.088-75.2 64.73 0 11.952 10.134 17.894 23.28 17.894 23.28 0 34.326-3.882 41.741-26.266 0.627-1.517 1.216-2.64 2.432-2.64 1.795 0 1.795 2.317 1.795 3.542l-0.627 29.568c0 1.437-1.171 2.662-2.976 2.941 0 0-24.784 3.568-40.56 3.568-30.461 0-41.542-14.906-41.542-35.184 0-42.944 74.33-33.994 74.33-65.366 0-12.845-14.326-19.398-25.35-19.398-24.496 0-38.195 5.674-46.893 30.39-0.266 1.888-1.437 3.334-3.29 3.334-2.083 0-2.432-1.76-2.083-3.59 0.717-4.17 1.206-10.736 1.574-15.808 0.509-5.373 0.822-11.315 1.194-15.83 0.243-2.118 1.75-3.277 3.834-3.846 7.747-2.109 25.619-6.022 42.086-6.022 25.408 0.010 46.256 7.779 46.256 37.984zM444.214 520.586l-10.63 12.717 16.294 2.883c0.013 0.371 0.013 0.822 0 1.251l-16.294 2.931 10.63 12.682c-0.278 0.394-0.557 0.742-0.87 1.043l-14.339-8.349v16.608c-0.23 0.013-0.384 0.080-0.614 0.128-0.243 0.022-0.464 0.058-0.65 0.128l-5.674-15.658-10.656 12.739c-0.394-0.208-0.774-0.394-1.123-0.627l5.651-15.565-16.342 2.816c-0.128-0.394-0.266-0.8-0.464-1.171l14.406-8.326-14.406-8.282c0.195-0.438 0.301-0.858 0.438-1.261l16.352 2.906-5.651-15.555c0.336-0.23 0.73-0.486 1.123-0.717l10.656 12.726 5.674-15.565c0.416 0.070 0.87 0.15 1.274 0.243v16.528l14.339-8.198c0.32 0.272 0.598 0.563 0.877 0.944z" horiz-adv-x="790" />
<glyph unicode="&#xe01d;" d="M551.437 83.763l68.39 47.002v553.68l-355.67 105.094-74.474-55.488 362.022-98.813zM656.262 723.136l-395.165 114.675c-4.445 1.235-9.059 0.416-12.79-2.394l-116.819-88.928c-5.133-3.875-6.806-10.374-5.133-16.195v-555.107l408.982-118.49v563.235l-377.619 109.478 102.378 77.904 377.549-109.667v-552.070c0-8.202 6.531-14.842 14.486-14.842 8.202 0 14.707 6.637 14.707 14.842v563.235c0.022 6.688-4.317 12.483-10.576 14.323z" horiz-adv-x="790" />
<glyph unicode="&#xe01e;" d="M361.069 389.75c-9.795 0-17.61-3.878-22.922-5.136-2.842-0.781-11.206-2.986-18.138 0-1.312 0.486-5.389 0.826-0.486-4.739 1.389-1.686 3.955-3.283 7.12-4.848 16.749-8.198 31.814-4.848 49.907 3.414 4.506 2.106 12.134 1.984 11.968 4.32-0.086 2.336-4.067 3.834-6.701 7.558-10.051 14.115-22.502 25.763-37.267 31.562-8.045 3.053-11.571 0.861-9.222-1.344 5.894-5.52 8.595-15.757 16.288-24.563 2.333-2.512 5.85-5.146 9.453-6.224zM386.877 397.318c0 5.686 8.275 14.074 9.818 18.899 2.006-4.826 9.818-13.213 9.818-18.899 0-5.52-4.154-9.917-9.818-9.917-5.331 0.013-9.818 4.419-9.818 9.917zM386.877 370.013c0-5.389 8.275-14.115 9.818-19.174 2.006 5.059 9.818 13.776 9.818 19.174 0 5.565-4.154 10.15-9.818 10.15-5.331 0.010-9.818-4.608-9.818-10.15zM311.437 410.477c-8.97 3.139-17.421 2.15-22.81 2.886-3.053 0.419-11.142 0.781-16.365 5.754-1.114 1.158-4.618 3.053-2.15-4.23 0.573-1.52 2.336-3.626 4.717-6.214 12.573-13.421 27.571-14.678 46.493-13.421 5.078 0.298 13.19-1.597 13.754 0.694 0.374 2.214-3.626 4.32-4.826 8.275-4.762 16.134-11.626 31.12-23.341 41.312-6.070 5.136-10.403 4.23-8.938 1.642 3.648-6.909 2.525-17.19 6.822-27.683 1.274-3.283 3.744-6.688 6.643-9.014zM270.595 447.648c-7.12 5.478-15.206 6.822-19.946 8.848-2.886 1.245-9.917 3.978-13.379 10.006-0.803 1.366-4.109 3.955-3.328-3.12 0.045-1.686 1.158-4.275 2.8-7.648 7.648-15.418 21.126-20.541 38.822-25.046 4.595-0.992 11.549-4.739 12.726-3.008 1.2 1.642-2.038 4.739-1.984 8.848 0.781 16.054-2.634 31.517-10.173 44.202-3.978 6.656-7.834 7.162-7.328 3.878 1.411-6.954-2.314-16.176-1.498-27.030 0.291-3.507 1.514-7.133 3.286-9.93zM245.968 492.278c-5.059 7.075-11.779 11.021-15.594 14.115-2.214 1.939-7.418 6.909-9.101 13.213-0.442 1.344-3.35 4.573-4.189-2.029-0.23-1.52 0-4.189 0.419-7.734 2.547-16.541 13.267-25.302 27.936-34.358 3.978-2.547 9.29-7.99 10.854-6.787 1.542 1.2-0.528 4.848 0.739 8.64 5.222 14.678 7.184 29.744 3.878 43.517-1.786 7.251-5.078 8.64-5.434 5.754-0.717-6.822-6.864-14.195-9.478-24.397-0.771-2.848-0.794-6.749-0.032-9.933zM237.437 543.024c-1.709 7.459-6.845 13.379-8.848 17.654-1.069 2.259-4.067 8.112-3.459 14.646 0.144 1.037-0.605 4.893-4.176-0.486-0.803-1.312-1.75-3.978-2.358-6.864-3.581-15.142 2.842-26.822 12.826-39.837 2.678-3.283 5.222-9.962 6.864-9.29 1.75 0.694 1.542 4.406 3.955 6.954 9.456 11.229 16.099 24.077 17.565 37.158 0.826 6.742-1.475 9.542-2.547 7.030-2.723-6.051-10.656-10.534-16.365-18.259-1.626-2.426-3.456-5.885-3.456-8.707zM244.070 590.573c0 7.517-3.008 14.237-4.022 18.435-0.506 2.547-1.312 8.509 0.573 14.16 0.464 1.245 0.022 5.312-4.154 0.781-0.925-0.947-2.17-3.12-3.648-5.795-7.162-12.915-3.856-25.51 2.128-39.67 1.52-3.67 2.269-10.15 3.901-10.282 1.786-0.122 2.502 3.67 5.222 5.754 11.12 8.55 20.861 17.776 25.578 29.533 2.426 6.083 0.717 9.181-0.826 7.251-3.901-4.925-11.734-7.459-19.405-13.123-2.227-1.61-4.486-4.496-5.347-7.043zM263.014 632.826c2.403 7.328 1.475 14.512 1.664 18.954 0.067 2.547 0.067 9.222 4.131 13.542 0.762 0.992 1.872 4.022-3.395 1.686-1.389-0.528-3.184-2.192-5.267-4.528-10.051-10.909-11.098-23.45-9.222-38.547 0.464-4.275-0.486-10.701 0.992-11.062 1.939-0.374 3.472 2.886 6.909 4.154 12.826 4.739 24.861 11.318 32.298 20.982 4.067 5.357 3.581 8.938 1.366 7.482-5.222-3.414-13.654-3.67-22.371-7.206-2.518-0.963-5.44-3.088-7.104-5.456zM292.25 666.534c4.109 5.61 5.357 11.603 7.030 15.107 0.883 1.984 3.437 6.954 7.856 9.632 1.114 0.65 2.909 2.886-2.336 2.547-1.069 0-3.414-0.65-5.84-1.731-11.571-5.61-16.451-15.802-19.594-29.050-0.861-3.414-3.814-8.685-2.426-9.421 1.312-0.826 3.702 1.344 6.557 1.344 12.298-0.166 24.221 1.597 33.478 7.283 4.906 3.098 5.542 6.051 3.35 5.642-5.52-1.069-12.365 1.555-20.496 1.312-2.733-0.118-5.542-1.024-7.581-2.666zM325.322 688.861c4.464 3.702 6.701 8.685 8.97 11.44 0.947 1.344 3.856 5.754 8.342 6.909 1.114 0.253 2.931 1.808-1.555 2.723-1.2 0.166-2.931 0-5.267-0.573-10.976-2.547-17.005-10.579-22.371-21.555-1.178-2.723-4.784-6.822-3.67-7.693 0.947-0.694 3.414 0.694 6.083 0 10.192-2.886 20.861-3.12 29.997 0.253 4.573 1.686 5.686 3.955 3.856 3.955-4.87-0.122-10.304 3.702-17.523 5.136-2.202 0.397-5.043 0.189-6.861-0.595zM376.806 706.394c-3.414-7.283-12.067-9.632-14.678-10.448-2.17-0.694-11.062-3.075-17.542 1.29 3.35 7.373 11.968 9.84 14.371 10.534 2.288 0.685 11.050 3.197 17.85-1.376zM450.726 631.523c5.875-2.029 10.867 0.573 13.037 5.222 1.069 2.106 1.686 3.414 1.686 5.52h7.648v-61.645h-5.587c-9.542 25.722-32.838 51.507-61.027 56.586-26.854 5.181-58.714 3.67-74.637-20.157-4.442-6.512-2.061-19.824 6.304-24.685 28.419-16.541 58.858-9.181 96.291-14.413 18.624-2.634 39.693-13.379 47.99-34.403 8.154-20.243 6.512-41.014-1.52-54.768-19.405-32.717-54.877-35.958-77.92-35.958-23.824 0-47.738 11.021-66.714 17.952-5.818 2.061-10.611-0.528-12.784-5.267-0.925-2.214-1.456-3.834-1.456-5.642h-7.734l-0.003 65.216c2.006 0 4.406 0 7.734-0.253 7.184-29.83 30.867-51.926 54.515-58.88 27.197-8.067 54.669-6.656 75.837 8.198 8.464 5.84 11.693 18.39 8.486 29.389-4.762 16.573-30.083 20.982-48.707 21.322-39.373 0.861-88.333 0.045-101.283 43.77-6.106 20.73-2.358 43.99 12.806 59.318 24.333 24.474 66.042 23.485 97.811 15.229 11.36-2.966 18.922-8.49 29.226-11.651zM432.762 389.75c9.565 0 17.235-3.792 22.755-5.136 3.030-0.781 11.098-2.986 18.096 0 1.389 0.486 5.52 0.826 0.528-4.739-1.411-1.597-3.955-3.283-7.12-4.848-17.046-8.198-31.683-4.618-49.821 3.414-4.717 2.259-12.067 1.984-11.923 4.32 0.086 2.336 3.693 3.834 6.381 7.558 10.192 14.115 22.71 25.763 37.203 31.562 8.067 3.053 11.757 0.861 9.379-1.344-6.051-5.52-8.486-15.757-16.243-24.563-2.39-2.512-5.718-5.146-9.235-6.224zM482.176 410.477c8.87 3.139 17.235 2.15 22.832 2.886 2.886 0.419 11.526 0.826 16.541 5.754 1.069 1.158 4.365 3.053 2.106-4.23-0.627-1.52-2.358-3.626-4.717-6.214-12.826-13.421-27.891-14.678-46.602-13.421-5.059 0.298-13.213-1.597-13.798 0.694-0.672 2.15 3.517 4.32 4.717 8.275 4.97 16.134 11.837 31.12 23.405 41.312 5.875 5.181 10.237 4.23 8.784 1.642-3.693-6.909-2.611-17.28-6.656-27.683-1.299-3.283-3.702-6.688-6.611-9.014zM523.069 447.648c6.954 5.478 15.021 6.822 19.715 8.848 2.976 1.245 10.304 3.978 13.61 10.006 0.762 1.366 4.090 3.955 3.459-3.12-0.208-1.686-1.267-4.275-2.976-7.648-7.715-15.418-21.28-20.541-38.746-25.046-4.65-0.992-11.734-4.739-12.848-3.008-0.97 1.555 2.038 4.739 1.894 8.848-0.672 16.054 2.426 31.683 10.381 44.202 4.154 6.701 7.77 7.162 7.251 3.878-1.322-6.954 2.259-16.176 1.498-27.030-0.294-3.507-1.517-7.133-3.238-9.93zM547.546 492.278c5.059 7.075 12.067 10.909 15.968 14.115 2.17 1.853 7.901 6.701 9.146 13.213 0.144 1.29 2.336 4.486 3.923-2.029 0.352-1.52 0.166-4.189-0.166-7.734-2.029-16.662-13.443-25.302-28.31-34.358-4.045-2.547-9.29-7.946-10.634-6.787-1.498 1.2 0.275 4.848-1.059 8.64-4.848 14.678-7.283 29.786-3.702 43.517 1.83 7.251 5.014 8.64 5.357 5.754 0.573-6.822 6.57-14.326 9.498-24.397 0.842-2.893 1.050-6.749-0.019-9.933zM556.141 543.024c2.038 7.459 7.021 13.379 8.938 17.654 1.2 2.259 3.955 8.112 3.373 14.646-0.166 1.037 0.826 4.848 4.32-0.486 0.902-1.312 1.52-3.978 2.192-6.864 3.693-15.142-2.525-27.11-12.451-39.837-2.909-3.414-5.619-9.962-7.229-9.29-1.773 0.694-1.366 4.406-3.77 6.954-9.84 11.274-16.266 23.955-17.699 37.158-0.902 6.787 1.344 9.542 2.314 7.030 2.656-6.051 10.47-10.832 16.432-18.259 1.917-2.47 3.581-5.885 3.581-8.707zM549.651 590.573c-0.253 7.517 2.822 14.237 3.834 18.435 0.595 2.547 2.15 8.717-0.342 14.16-0.528 1.29-0.528 4.97 4 0.781 1.114-0.992 2.214-3.12 3.77-5.795 7.206-12.915 4.090-25.555-1.808-39.67-1.597-3.702-2.723-10.403-4.342-10.282-1.853 0.122-2.336 3.67-5.357 5.754-11.184 8.198-20.893 17.654-25.344 29.533-2.259 6.051-0.595 9.29 0.947 7.251 3.923-4.65 11.814-7.206 19.382-13.123 1.888-1.485 4.422-4.496 5.261-7.043zM530.499 632.826c-2.336 7.328-1.069 14.602-1.29 18.954-0.189 2.678-0.97 8.848-4.419 13.542-0.528 0.947-1.597 4.365 3.648 1.686 1.059-0.486 2.864-2.192 5.078-4.528 9.885-10.909 10.867-23.45 8.97-38.547-0.528-4.275 0.506-10.701-1.037-11.062-1.939-0.374-3.373 2.931-6.512 4.154-12.726 4.925-24.938 11.318-32.554 20.982-4.189 5.434-3.414 8.938-1.434 7.482 5.29-3.581 13.862-3.67 22.579-7.206 2.483-0.963 5.37-3.088 6.97-5.456zM501.869 666.81c-4.090 5.52-5.357 11.603-6.998 15.021-0.925 2.106-3.626 7.12-7.715 9.709-1.091 0.65-2.909 2.259 2.445 2.589 0.902 0.086 2.931-0.694 5.565-1.808 11.968-5.312 16.563-15.846 19.76-29.005 0.826-3.702 3.878-8.595 2.634-9.421-1.366-0.992-3.792 1.344-6.954 1.29-12.275-0.208-24.122 1.475-32.883 7.075-5.357 3.242-5.709 6.304-3.834 5.917 5.709-1.158 12.474 1.037 20.387 1.267 2.458 0.077 5.722-1.014 7.594-2.634zM468.611 688.861c-4.55 3.702-6.765 8.717-9.082 11.734-1.014 1.312-3.978 5.754-8.55 6.864-0.992 0.298-2.755 1.555 1.555 2.467 1.114 0.166 3.206-0.086 5.411-0.573 11.12-2.755 17.379-10.49 22.394-21.322 1.312-2.976 4.947-6.909 3.626-7.693-0.826-1.037-3.283 0.464-5.773-0.253-10.381-2.886-21.168-2.8-30.019 0.253-4.739 1.686-5.853 3.747-4.022 4.23 4.618 1.245 10.051 3.702 17.523 5.059 2.176 0.477 5.062 0.016 6.938-0.768zM416.598 706.394c3.648-7.283 12.342-9.632 14.998-10.448 2.214-0.694 10.909-3.075 17.235 1.29-3.162 7.373-11.757 9.84-14.115 10.534-2.23 0.685-11.056 3.197-18.118-1.376zM82.534 184.618c-7.693 0-14.326 0.902-19.846 2.976-8.176 2.842-14.787 8.112-19.44 8.112-3.206 0-5.222-2.547-5.795-8.112h-4.211v40.531h4.211c6.358-25.027 21.357-38.173 44.067-38.173 21.907 0 33.325 8.32 33.325 21.677 0 13.501-9.29 17.19-41.645 18.877-25.488 1.366-38.547 14.723-38.547 35.562 0 21.19 16.749 36.906 39.626 36.906h1.344c6.448 0.122 12.573-1.069 18.282-2.755 5.136-1.475 17.93-8.234 19.968-8.234 2.986 0 3.923 1.52 4.23 8.234h4.387v-36.906h-4.387c-5.123 20.771-21.885 34.48-42.426 34.48-18.413 0-27.638-8.55-27.638-19.085 0-17.28 21.718-15.274 41.136-17.005 24.563-2.291 40.509-12.992 40.509-37.984 0.026-23.091-18.81-39.101-47.149-39.101zM191.638 187.558v5.222h9.754v54.096c0 10.656-5.29 16.87-15.462 16.87-8.234 0-17.443-8.595-17.443-16.87v-54.096h10.006v-5.222h-46.141v5.222h9.754v102.131h-9.754v5.267h36.122v-40.112c5.101 5.962 12.342 11.021 24.73 11.021 26.822 0 34.57-13.245 34.57-29.786v-48.518h9.962v-5.222l-46.096-0.003zM300.483 233.312c0 16.451-2.525 33.114-16.816 33.114-10.746 0-18.976-16.662-18.976-33.114h35.792zM238.176 226.954c0 27.45 18.877 44.157 45.776 44.157 25.302 0 38.989-16.794 39.728-42.998h-59.197c0-23.661 9.498-35.958 25.091-35.958 10.579 0 29.466 6.557 29.466 26.502v0.528h4.618v-1.114c0-17.654-14.678-33.456-40.806-33.456-25.821 0.003-44.675 14.845-44.675 42.339zM392.077 264.73c0.397 0 0.627 0 1.059-0.122-1.366 0.902-3.075 1.853-5.498 1.853-18.624 0-24.883-18.182-24.883-35.958v-37.686h9.962v-5.222h-46.096v5.222h9.84v70.195h-9.84v5.357h36.122v-8.275c5.136 5.962 11.318 11.021 23.846 11.021 8 0 17.587-5.357 17.587-18.688 0-6.742-5.389-12.266-12.112-12.266-6.634 0-12.112 5.52-12.112 12.266 0.016 6.573 5.491 12.304 12.125 12.304zM457.549 234.227c-1.894-1.894-6.192-4.189-11.318-6.557-12.067-5.731-14.899-9.917-14.899-19.504 0-8.387 3.242-16.054 11.968-16.054 6.656 0 14.237 6.701 14.237 13.501l0.013 28.614zM434.064 248.102c0-6.909-5.478-12.013-12.266-12.013-8.275 0-12.429 6.17-12.429 13.818 0 12.707 15.206 21.19 37.578 21.19 32.586 0 38.493-11.648 38.493-35.747v-30.16c0-6.742 0.442-10.832 5.795-10.832 5.2 0 6.954 5.84 6.954 17.402v1.642h4.442v-2.467c0-23.616-10.093-26.336-23.107-26.336-9.565 0-16.176 4.109-19.526 13.501-4.486-8.806-15.802-13.501-27.11-13.501-20.333 0-28.333 10.192-28.333 22.922 0 22.272 23.824 22.061 40.134 26.416 9.082 2.547 13.696 7.373 13.696 15.021 0 10.403-7.734 16.451-19.427 16.451-6.49 0-12.685-2.886-16.112-5.389 6.336-0.557 11.219-5.635 11.219-11.917zM510.256 210.944v51.968h-9.885v5.434c15.318 0 26.16 10.867 29.488 27.978h6.051v-27.978h15.062v-5.434h-15.062v-57.722c0-7.206 3.923-10.832 9.334-10.832 5.136 0 9.379 5.84 9.379 17.402v1.642h4.573v-2.467c0-20.982-9.84-26.336-25.258-26.336-15.485 0.019-23.683 5.363-23.683 26.346zM607.242 266.448c-13.19 0-18.669-14.512-18.669-39.494 0-25.466 5.478-37.434 18.669-37.434 12.531 0 18.832 11.968 18.832 37.434 0 24.96-6.294 39.494-18.832 39.494zM607.437 184.618c-25.389 0-44.739 14.854-44.739 42.339 0 27.45 19.363 44.157 44.554 44.157 28.234 0 44.685-16.707 44.685-44.157-0.010-27.498-18.742-42.339-44.499-42.339zM714.387 187.558v5.222h9.664v54.096c0 10.656-5.434 16.87-15.274 16.87-8.55 0-17.523-8.595-17.523-16.87v-54.096h9.754v-5.222h-46.096v5.222h9.885v70.109h-9.885v5.434h36.342v-8.275c4.848 5.962 12.266 11.021 24.861 11.021 26.416 0 34.339-13.245 34.339-29.786v-48.518h10.093v-5.222l-46.16-0.006z" horiz-adv-x="790" />
<glyph unicode="&#xe01f;" d="M93.91 517.046c-1.382 6.16-3.098 10.038-5.162 12.182-2.054 2.064-5.162 2.835-11.946 2.835h-5.478v-55.965c0-10.038 1.168-10.707 11.558-11.546v-4.15h-38.531v4.15c9.923 0.838 11.149 1.53 11.149 11.546v55.965h-4.096c-9.629 0-11.741-1.306-13.533-3.187-1.917-2.006-3.459-6.102-5.014-11.99h-4.186c0.464 8.63 1.146 17.229 1.382 23.277h2.803c1.85-2.688 3.414-2.902 6.806-2.902h47.437c3.302 0 4.944 0.704 6.851 2.902h2.858c0.147-4.944 0.736-15.36 1.293-22.877l-4.192-0.24zM190.438 533.066c-9.098-0.794-9.878-1.51-9.878-11.523v-45.53c0-9.891 0.954-10.685 9.878-11.456v-4.15h-35.968v4.15c9.379 0.794 10.198 1.658 10.198 11.546v22.038h-32.214v-22.038c0-9.981 0.963-10.752 9.686-11.546v-4.15h-35.232v4.15c8.576 0.794 9.731 1.587 9.731 11.546v45.462c0 10.026-1.158 10.742-10.141 11.523v4.186h35.411v-4.186c-8.461-0.794-9.45-1.51-9.45-11.523v-17.376h32.214v17.376c0 10.026-0.909 10.742-9.629 11.523v4.186h35.389l0.003-4.208zM262.941 479.99c-0.714-5.286-3.21-16.051-4.141-19.6h-60.31v4.15c10.051 0.794 11.309 1.53 11.309 11.546v45.418c0 10.301-1.28 10.845-9.674 11.626v4.128h55.67c0.134-2.166 0.781-10.435 1.203-17.741l-4.298-0.634c-1.088 4.186-2.701 8.099-4.845 10.23-2.006 2.144-5.139 2.95-11.786 2.95h-5.693c-4.31 0-4.765-0.262-4.765-4.186v-25.021h7.827c9.981 0 11.491 0.557 13.181 8.848h4.253v-23.901h-4.253c-1.667 8.509-3.098 8.982-13.181 8.982h-7.827v-20.429c0-5.558 0.454-8.528 2.79-9.744 2.099-0.883 6.102-1.11 10.672-1.11 6 0 10.208 0.781 13.101 3.744 2.246 2.608 4.413 6.352 6.637 11.594l4.128-0.851zM357.254 480.374c-0.931-4.979-3.414-16.755-4.39-19.987h-57.6v4.15c10.288 0.794 11.478 1.658 11.478 11.546v45.325c0 10.141-1.19 10.854-10.128 11.648v4.186h36.173v-4.186c-9.098-0.794-10.186-1.51-10.186-11.648v-46.122c0-5.514 0.41-7.69 2.938-8.758 2.064-0.883 5.229-1.088 8.88-1.088 4.957 0 9.2 0.838 12.058 4.003 2.202 2.528 4.355 6.339 6.614 12.24l4.163-1.309zM441.533 533.066c-6.477-0.317-9.494-2.79-10.096-6.976-0.566-3.642-0.998-8.029-0.998-16.426v-12.886c0-12.522-1.952-22.448-8.541-29.571-5.443-5.683-13.498-8.656-21.802-8.656-7.882 0-15.334 1.712-21.018 6.227-6.704 5.242-9.811 13.93-9.811 27.811v27.722c0 11.149-1.158 11.955-9.904 12.749v4.186h35.558v-4.186c-8.611-0.794-9.754-1.6-9.754-12.749v-25.648c0-17.706 6.339-28.029 19.146-28.029 14.032 0 20.202 10.672 20.202 30.467v12.579c0 8.394-0.589 12.896-1.168 16.426-0.557 4.186-3.437 6.499-11.446 6.976v4.186h29.661l-0.016-4.202zM487.958 460.368v4.15c7.827 1.44 7.35 3.062 5.229 6.998-1.19 2.042-3.856 6.544-12.534 21.142-5.616-8.394-10.435-16.128-12.998-20.826-2.858-5.059-1.757-6.045 6.262-7.328v-4.15h-29.683v4.15c6.432 0.704 10.605 2.586 14.054 6.499 4.253 5.434 12.522 16.128 19.283 26.192-5.728 9.379-10.525 17.501-16.832 27.312-3.392 5.616-6.579 7.702-14.496 8.509v4.186h35.706v-4.186c-6.579-1.51-6.387-2.79-4.899-5.661 1.997-3.709 5.786-9.904 10.56-17.83 3.686 4.832 7.827 11.331 10.672 16.582 2.256 4.23 1.894 5.398-5.661 6.909v4.186h28.493v-4.186c-7.632-0.998-10.752-2.304-15.584-8.054-4.186-4.787-9.174-11.786-14.79-19.59 6.941-11.024 12.771-20.429 19.622-31.034 4.832-7.587 7.43-9.008 15.584-9.846v-4.15l-37.987 0.013zM612.003 533.066c-6.557-0.317-9.507-2.79-10.061-6.976-0.634-3.642-1.043-8.029-1.043-16.426v-12.886c0-12.522-1.894-22.448-8.554-29.571-5.366-5.683-13.498-8.656-21.802-8.656-7.85 0-15.325 1.712-21.018 6.227-6.691 5.242-9.754 13.93-9.754 27.811v27.722c0 11.149-1.235 11.955-9.949 12.749v4.186h35.558v-4.186c-8.611-0.794-9.789-1.6-9.789-12.749v-25.648c0-17.706 6.397-28.029 19.203-28.029 14.042 0 20.179 10.672 20.179 30.467v12.579c0 8.394-0.634 12.896-1.203 16.426-0.602 4.186-3.437 6.499-11.434 6.976v4.186h29.683l-0.006-4.202zM691.008 459.344c-0.646 0-2.086 0.147-3.504 0.147-14.938 0.682-19.52 4.003-24.218 11.411-3.098 4.89-6.339 11.197-9.709 17.389-1.917 3.642-4.003 5.139-7.862 5.206h-2.189v-17.331c0-9.642 1.168-10.81 10.051-11.648v-4.15h-35.706v4.15c8.848 0.838 10.186 2.006 10.186 11.648v45.45c0 9.405-1.088 10.65-9.709 11.434v4.186h33.235c10.275 0 16.323-1.235 20.986-4.502 4.797-3.040 8.131-8.429 8.131-15.699 0-10.435-6.886-15.926-14.781-19.306 1.645-3.379 6.058-11.299 9.552-16.742 4.243-6.499 6.704-10.288 9.098-12.784 2.563-2.755 4.458-4.096 7.216-5.082l-0.778-3.776zM646.576 498.128c5.002 0 9.008 0.806 11.523 3.21 4.096 3.302 5.795 7.962 5.795 14.042 0 12.499-7.338 17.152-13.93 17.152-3.062 0-4.685-0.531-5.354-1.203-0.838-0.736-1.088-1.85-1.088-4.4v-28.81l3.053 0.010zM762.387 533.066c-7.542-0.794-9.891-2.893-14.144-9.856-4.355-7.011-7.43-12.080-13.261-23.219-1.61-3.2-2.144-4.502-2.144-8.202v-15.075c0-10.605 0.954-11.389 11.546-12.272v-4.061h-38.486v4.061c10.096 0.794 11.126 1.658 11.126 12.272v13.123c0 2.938-0.454 4.106-1.498 6.387-3.2 6.477-7.613 14.384-14.723 26.848-4.355 7.792-6.307 9.085-12.896 10.003v4.186h33.882v-4.186c-7.792-1.056-7.645-2.554-5.558-6.886 4.128-8.112 8.858-16.877 13.533-25.59 3.379 6.762 9.424 17.853 12.227 25.078 1.917 4.707 1.792 6.25-6.998 7.395v4.186h27.414l-0.019-4.192zM95.056 379.014c-1.542-5.648-4.605-14.643-6.557-18.771-3.142-0.691-13.974-3.062-22.131-3.062-31.386 0-44.531 20.451-44.531 39.27 0 24.218 18.704 41.13 46.96 41.13 9.584 0 18.33-2.451 21.632-3.245 1.056-6.432 1.85-11.91 2.643-19.395l-4.355-0.806c-3.914 14.086-12.989 18.227-22.198 18.227-17.037 0-26.563-16.141-26.563-33.587 0-21.722 11.661-35.99 27.779-35.99 9.856 0 17.082 6.227 23.219 18.17l4.102-1.939zM145.962 437.389c21.437 0 39.030-15.824 39.030-39.178 0-25.565-18.298-41.040-40.528-41.040-23.616 0-40.016 17.402-40.016 40.064 0 20.326 14.349 40.154 41.424 40.154l0.090-0.013zM143.568 432.621c-11.808 0-21.12-12.682-21.12-33.066 0-20.291 8.96-37.43 24.093-37.43 11.274 0 20.349 11.024 20.349 32.768 0 23.526-9.606 37.715-23.219 37.715l-0.102 0.003zM254.467 378.986c-0.941-5.014-3.379-16.845-4.298-20.054h-57.654v4.186c10.288 0.816 11.456 1.658 11.456 11.546v45.28c0 10.186-1.168 10.854-10.096 11.773v4.128h36.205v-4.128c-9.2-0.909-10.253-1.565-10.253-11.773v-46.122c0-5.514 0.486-7.658 3.005-8.71 1.952-0.861 5.184-1.146 8.88-1.146 4.957 0 9.21 0.909 12.022 4.003 2.211 2.554 4.378 6.339 6.637 12.25l4.096-1.232zM320.701 378.986c-0.909-5.014-3.437-16.845-4.355-20.054h-57.578v4.186c10.23 0.816 11.411 1.658 11.411 11.546v45.28c0 10.186-1.19 10.854-10.141 11.773v4.128h36.115v-4.128c-9.085-0.909-10.106-1.565-10.106-11.773v-46.122c0-5.514 0.486-7.658 2.995-8.71 1.997-0.861 5.162-1.146 8.835-1.146 5.002 0 9.21 0.909 12.022 4.003 2.256 2.554 4.39 6.339 6.646 12.25l4.154-1.232zM389.686 378.608c-0.714-5.354-3.187-16.109-4.048-19.693h-60.323v4.208c10.051 0.794 11.251 1.53 11.251 11.523v45.427c0 10.243-1.203 10.832-9.606 11.626v4.048h55.706c0.147-2.131 0.682-10.378 1.203-17.706l-4.31-0.614c-1.19 4.186-2.733 8.099-4.832 10.243-1.997 2.099-5.184 2.915-11.875 2.915h-5.638c-4.346 0-4.832-0.262-4.832-4.15v-25.021h7.939c9.923 0 11.411 0.512 13.078 8.858h4.198v-23.901h-4.198c-1.645 8.528-3.062 8.995-13.078 8.995h-7.939v-20.474c0-5.558 0.486-8.541 2.835-9.686 2.131-0.963 6.102-1.203 10.595-1.203 6.035 0 10.301 0.861 13.136 3.766 2.246 2.598 4.378 6.397 6.691 11.594l4.048-0.755zM470.003 379.014c-1.53-5.648-4.65-14.643-6.614-18.771-3.098-0.691-13.952-3.062-22.038-3.062-31.386 0-44.531 20.451-44.531 39.27 0 24.218 18.694 41.13 46.915 41.13 9.629 0 18.317-2.451 21.494-3.245 1.066-6.432 1.984-11.91 2.778-19.395l-4.39-0.806c-3.936 14.086-13.043 18.227-22.131 18.227-17.082 0-26.576-16.141-26.576-33.587 0-21.722 11.696-35.99 27.779-35.99 9.802 0 17.082 6.227 23.152 18.17l4.163-1.939zM541.555 415.574c-1.485 6.147-3.107 10.083-5.296 12.195-1.997 2.099-5.094 2.835-11.91 2.835h-5.443v-55.898c0-10.051 1.203-10.774 11.638-11.558v-4.208h-38.576v4.208c9.949 0.794 11.126 1.53 11.126 11.558v55.898h-4.038c-9.674 0-11.808-1.315-13.587-3.21-1.894-2.006-3.459-6.035-4.957-11.955h-4.266c0.544 8.678 1.19 17.299 1.408 23.344h2.858c1.917-2.755 3.402-3.005 6.736-3.005h47.549c3.2 0 4.81 0.749 6.829 3.005h2.835c0.147-5.046 0.714-15.405 1.306-22.947l-4.211-0.262zM554.349 358.973v4.15c8.746 0.794 9.776 1.555 9.776 11.558v45.235c0 10.083-1.030 10.854-9.776 11.728v4.096h35.456v-4.096c-8.746-0.861-9.789-1.645-9.789-11.728v-45.235c0-10.003 1.043-10.774 9.789-11.558v-4.15h-35.456zM641.098 437.389c21.405 0 39.043-15.824 39.043-39.178 0-25.565-18.33-41.040-40.563-41.040-23.683 0-40.086 17.402-40.086 40.064 0 20.326 14.371 40.154 41.469 40.154l0.138-0.013zM638.784 432.621c-11.843 0-21.142-12.682-21.142-33.066 0-20.291 8.906-37.43 24.115-37.43 11.242 0 20.304 11.024 20.304 32.768 0 23.526-9.539 37.715-23.174 37.715l-0.102 0.003zM770.464 431.658c-6.442-0.384-8.893-1.894-9.482-7.293-0.339-3.709-1.030-9.277-1.030-19.68v-46.925h-5.706l-49.216 58.915h-0.307v-26.589c0-10.435 0.531-15.61 0.931-19.181 0.614-5.184 2.598-7.453 11.354-7.792v-4.128h-28.982v4.128c6.614 0.486 9.379 2.336 9.776 7.43 0.486 3.936 1.203 9.107 1.203 19.542v24.65c0 7.68-0.205 9.923-2.496 12.659-2.131 2.835-4.787 3.811-9.802 4.266v4.163h21.891l45.133-51.917h0.486v20.781c0 10.403-0.749 15.971-0.998 19.395-0.557 5.059-3.040 7.101-11.661 7.578v4.163h28.89l0.003-4.166z" horiz-adv-x="790" />
<glyph unicode="&#xe020;" d="M27.35 657.309c0 0 0 14.979 31.952 14.979s32.944-17.974 32.944-17.974l0.026-254.672h670.154v-176.774h-62.906v111.853h-608.243v-111.853h-63.907l-0.019 434.442zM762.4 529.482c-91.872 78.899-495.373 69.91-495.373 69.91v-103.891h-126.835c0 0-15.971-1.002-15.971-22.954 0-21.997 15.971-24.992 15.971-24.992h622.208v81.926zM237.949 580.493c0 31.408-25.437 56.845-56.845 56.845-31.386 0-56.845-25.427-56.845-56.845 0-31.373 25.459-56.845 56.845-56.845s56.845 25.459 56.845 56.845z" horiz-adv-x="790" />
<glyph unicode="&#xe021;" d="M319.942 562.477c10.029-33.587 16.717-59.827 19.952-77.923 3.344-18.938 9.958-69.12 19.68-149.053l2.291-18.384h67.405l2.067 18.605c7.101 63.958 12.32 106.867 15.485 127.67 3.142 20.499 9.014 46.557 17.661 77.52 14.954 54.438 24.938 92.17 30.573 115.373 6.026 25.139 8.979 43.898 8.979 57.27 0 42.845-11.366 74.733-33.76 94.816-21.747 19.469-47.197 29.357-75.568 29.357-29.168 0-54.781-10.051-76.246-29.818-21.949-20.186-33.075-53.136-33.075-97.885 0-14.803 3.082-34.026 9.344-58.854 3.818-15.014 12.266-44.842 25.213-88.694zM394.678 276.707c-30.173 0-56.208-10.73-77.418-31.955-21.162-21.184-31.907-47.197-31.907-77.37 0-30.198 10.752-56.234 31.907-77.418 21.232-21.184 47.219-31.907 77.418-31.907s56.198 10.73 77.418 31.907c21.162 21.232 31.907 47.242 31.907 77.418 0 30.128-10.752 56.173-31.907 77.37-21.21 21.194-47.248 31.955-77.418 31.955z" horiz-adv-x="790" />
<glyph unicode="&#xe022;" d="M645.6 783.062v55.734h-55.709v-55.734h-55.734v55.734h-55.734v-55.734h-55.709v55.734h-55.734v-55.734h-55.734v55.734h-55.734v-55.734h-55.734v55.734h-55.709v-55.734c-30.627 0-55.734-25.050-55.734-55.709v-612.963c0-30.627 25.082-55.734 55.734-55.734h501.491c30.675 0 55.734 25.082 55.734 55.734l0.054 612.976c0 30.65-25.053 55.696-55.747 55.696zM144.138 657.709c0 7.67 6.253 13.926 13.926 13.926h473.632c7.67 0 13.926-6.253 13.926-13.926 0-7.715-6.253-13.949-13.926-13.949h-473.632c-7.677 0.013-13.926 6.256-13.926 13.949zM631.699 197.994h-473.632c-7.67 0-13.926 6.23-13.926 13.949 0 7.693 6.253 13.926 13.926 13.926h473.632c7.715 0 13.926-6.23 13.926-13.926-0.026-7.709-6.23-13.949-13.926-13.949zM631.699 309.424h-473.632c-7.67 0-13.926 6.23-13.926 13.949 0 7.693 6.253 13.926 13.926 13.926h473.632c7.715 0 13.926-6.23 13.926-13.926-0.026-7.712-6.23-13.949-13.926-13.949zM631.699 420.874h-473.632c-7.67 0-13.926 6.218-13.926 13.926s6.253 13.949 13.926 13.949h473.632c7.715 0 13.926-6.23 13.926-13.949s-6.23-13.926-13.926-13.926zM631.699 532.33h-473.632c-7.67 0-13.926 6.218-13.926 13.926 0 7.693 6.253 13.926 13.926 13.926h473.632c7.715 0 13.926-6.23 13.926-13.926-0.026-7.699-6.23-13.926-13.926-13.926z" horiz-adv-x="790" />
<glyph unicode="&#xe023;" d="M284.416 86.106h-251.171v251.19l61.597-61.533 100.618 100.618 128.070-128.070-100.618-100.595 61.504-61.61zM195.478 519.814l-100.618 100.595-61.597-61.498v251.19h251.171l-61.498-61.597 100.618-100.618-128.077-128.074zM757.267 86.106h-251.19l61.498 61.619-98.554 98.554 128.070 128.093 98.554-98.576 61.619 61.533 0.003-251.222zM757.267 558.934l-61.619 61.498-98.554-98.554-128.070 128.093 98.554 98.554-61.498 61.597h251.19l-0.003-251.187z" horiz-adv-x="790" />
<glyph unicode="&#xe024;" d="M69.12 741.59c-24.186-30.115-77.773-173.626 151.888-408.57 241.958-247.578 398.042-194.573 424.883-166.733l-161.757 161.562c-22.605-22.586-51.709-2.515-107.568 42.982-36.909 30.083-79.507 70.483-116.419 116.166-25.875 31.99-48.778 65.565-25.13 89.203l-165.898 165.389zM704.374 224.122c10.483 10.518 9.43 26.426-0.099 36.054v0.154c0 0-126.221 125.792-126.275 125.846-9.99 9.926-25.965 9.702-35.888-0.064l-45.757-45.792 162.163-161.923c0 0 45.824 45.594 45.77 45.648l0.086 0.077zM293.312 634.406c10.483 10.496 9.52 26.448 0 35.99v0.176c0 0-129.853 129.382-129.92 129.44-10 10.022-25.997 9.715-35.888-0.064l-45.757-45.824 165.776-165.459c0 0 45.77 45.562 45.77 45.629l0.019 0.112z" horiz-adv-x="790" />
<glyph unicode="&#xe025;" d="M704.925 397.616v65.139l67.424-67.366 0.298 99.942-14.186-0.147v-65.69l-67.411 67.437 0.307-99.418zM459.709 495.331h15.363v-97.75h-15.363zM586.4 495.331h15.363v-97.75h-15.363zM366.598 496.291h-55.043v-98.698h57.6v12.998h-42.112v30.438h37.213v12.829h-37.213v29.261h39.555zM675.824 496.291h-55.043v-98.698h57.6v12.998h-42.157v30.438h37.258v12.829h-37.258v29.261h39.6zM203.504 397.709l6.282 58.653 33.866-58.848 33.763 58.56 6.214-58.48 14.723 0.115-13.363 99.76-41.165-72.461-40.995 72.426-13.603-99.725zM402.118 448.022h-4.672v35.386h5.242c13.434 0 20.205-6.144 20.205-17.866 0.013-11.318-6.918-17.52-20.774-17.52zM420.339 439.946c3.645 1.29 7.094 3.667 11.034 8.611 3.917 5.014 6.557 11.478 6.557 18.4 0 8.842-3.677 16.23-9.958 21.667-5.802 4.797-15.363 6.957-28.234 6.957h-17.213v-97.75h14.643v38.8h7.834l26.944-38.8h17.35l-28.957 42.115zM542.666 420.586c-3.542-3.174-7.504-5.504-11.914-7.037-4.352-1.382-9.926-2.054-16.515-2.054h-6.669v69.926h6.669c12.576 0 22.102-2.982 28.579-8.909 7.162-6.659 11.366-15.341 11.366-26.006-0.003-10.682-4.208-19.283-11.517-25.92zM553.152 482.71c-4.97 4.57-10.486 7.722-16.595 9.686-5.699 1.907-13.421 2.947-23.187 2.947h-20.467v-97.75h20.227c9.891 0 17.475 0.88 22.934 2.752 5.686 1.792 11.718 4.682 16.982 9.309 10.461 9.286 16.275 21.827 16.275 36.848-0.019 14.95-6.131 27.002-16.17 36.208zM163.069 415.171c0 0 0.195 0.262 0.25 0.342l-1.862-0.093-0.138-0.138c-3.725-4.912-13.27-16.435-24.237-16.435-1.178 0-2.365 0.147-3.482 0.41-1.792 0.902-3.014 2.272-3.565 3.997-1.395 4.112 1.018 9.642 3.725 14.461 5.837 0 18.64 4.272 25.197 10.861 2.752 2.867 4.122 5.779 4.067 8.726-0.64 3.232-3.152 5.002-7.277 5.002-2.192 0-4.317-0.502-5.632-0.947-12.163-3.462-21.907-18-24.685-22.432-3.382-5.504-7.917-9.251-13.843-11.434-5.562-2.022-11.661-3.072-17.968-3.072-3.357 0-6.694 0.32-9.994 0.822-5.254 0.938-7.309 1.395-15.968 3.507 0 0-0.89 0.218-1.072 0.262 8.669 6.931 14.368 15.968 20.378 25.162 1.6 2.432 3.187 4.707 4.602 6.957 14.061 1.84 39.747 8.909 54.403 35.75 3.005 5.299 5.082 13.066 2.64 18.458-1.52 2.912-4.272 4.832-8.314 5.562-1.072 0.195-2.134 0.275-3.174 0.275-6.077 0-11.683-3.29-16.608-6.659-19.222-13.408-29.114-32.986-38.458-51.878-1.565-0.182-3.050-0.275-4.682-0.275-2.832 0-5.574 0.23-8.131 0.778-2.298 0.493-8.339 1.712-16.746 7.094-7.629 4.81-14.506 16.070-13.523 30.211 0.218 1.85 0.525 3.837 1.018 5.904 0 0 0.058 0.285 0.115 0.4l-2.81-1.2c-2.592-7.549-1.12-18.435 3.597-26.957 4.294-7.459 9.722-11.821 19.542-15.718 2.774-1.072 6.842-2.694 18.378-3.027l1.987-0.058-2.022-3.93c-2.774-5.322-5.424-10.349-9.709-16.47l-1.008-1.498c-2.205-3.014-3.872-5.082-6.010-7.654-8.864 2.342-17.51 3.699-24.65 3.699-4.672 0-8.656-0.627-11.763-1.77-0.25-0.115-6.246-1.885-6.499-7.117-0.342-7.014 10.246-8.611 10.669-8.637 1.92-0.285 3.77-0.4 5.574-0.4 8.246 0 16.528 2.912 26.624 9.722 2.81-0.97 5.619-2.272 8.691-3.645 7.344-3.21 15.453-6.694 23.747-6.694 1.245 0 2.422 0.058 3.667 0.275 3.77 0.41 6.739 1.165 10.144 3.005 1.92 0.96 3.85 1.987 5.562 3.414 2.89 2.317 6.659 5.597 8.954 9.274 0.538 0.81 0.947 1.325 1.395 2.010-1.395-4.419-0.96-7.254-0.342-9.616 0.88-3.254 3.779-5.939 7.411-6.762 1.658-0.33 3.29-0.538 4.832-0.538 10.074 0 17.99 7.299 23.69 14.528 1.178 1.344 2.272 2.771 3.312 4.186zM155.453 440.323c1.77 0 3.12-0.81 3.667-2.080 0.675-1.862 1.018-3.814-2.867-7.834-1.907-2-8.931-7.037-16.813-9.434-1.578-0.4-3.21-0.835-4.694-0.938 5.814 10.189 12.131 16.95 18.458 19.818 0.707 0.285 1.472 0.467 2.25 0.467zM93.030 443.875c0.32 0.675 3.885 7.517 5.424 10.256 7.597 14.093 15.27 28.669 28.099 39.45 3.187 2.56 8.042 4.365 11.776 4.365 2.57 0 4.614-0.81 5.939-2.342 1.645-1.92 2.080-5.107 1.29-9.478-5.174-18.813-29.184-38.685-50.496-41.93l-2.032-0.32zM58.33 407.347l-3.21-1.93c-4.134-2.525-13.363-6.864-21.027-6.864-0.947 0-1.84 0.067-2.774 0.195-0.96 0.138-9.558 1.325-10.029 5.232-0.627 4.659 4.122 6.259 8.451 7.069 1.462 0.298 3.232 0.422 5.162 0.422 8.202-0.013 19.008-2.25 23.427-4.125z" horiz-adv-x="790" />
<glyph unicode="&#xe026;" d="M395.645 824.554l129.667-236.538 263.766-50.957-183.59-197.123 33.322-268.026-243.165 114.682-243.165-114.682 33.322 268.026-183.59 197.123 263.766 50.957 129.667 236.538z" horiz-adv-x="790" />
<glyph unicode="&#xe027;" d="M394.986 748.442c165.933 0 300.23-134.266 300.23-300.23 0-165.91-134.266-300.23-300.23-300.23-165.91 0-300.23 134.275-300.23 300.23 0 165.933 134.285 300.23 300.23 300.23zM394.986 820.781c-205.766 0-372.579-166.781-372.579-372.566 0-205.766 166.813-372.566 372.579-372.566s372.576 166.797 372.576 372.563c0 205.789-166.81 372.57-372.576 372.57zM388.774 238.755c-51.030-17.917-93.088 2.64-84.643 51.642s56.858 153.92 63.766 173.77c6.909 19.827-6.333 25.267-20.515 17.194-8.186-4.72-20.333-14.182-30.787-23.37-2.902 5.827-6.966 12.486-10.026 18.867 17.037 17.072 45.51 39.955 79.226 48.256 40.285 9.946 107.597-5.949 78.672-82.938-20.672-54.883-35.27-92.726-44.496-120.941-9.19-28.214 1.738-34.118 17.85-23.123 12.579 8.592 25.99 20.278 35.814 29.344 4.55-7.382 6.016-9.744 10.499-18.234-17.059-17.494-61.696-58.422-95.36-70.467zM494.483 578.208c-23.146-19.69-57.446-19.274-76.637 0.97-19.181 20.23-15.987 52.589 7.158 72.291 23.146 19.69 57.456 19.274 76.637-0.97 19.197-20.208 15.965-52.589-7.158-72.291z" horiz-adv-x="790" />
<glyph unicode="&#xe028;" d="M747.379 613.77l-68.512-68.765c-0.022 0 80.755-53.725 68.512 68.765zM597.728 463.216l68.49 68.643c0.003-0.010-81.027 53.626-68.49-68.643zM747.776 463.59l-68.787 68.48c0 0-53.779-80.81 68.787-68.48zM597.254 613.35l68.81-68.512c0.013 0 53.472 80.918-68.81 68.512zM47.968 599.171v-53.264h57.648v-13.651h-57.648v-68.787h-15.558v149.651h81.946v-13.949zM413.514 463.469v23.37c-4.122-5.398-18.048-25.936-48.358-25.936-29.44 0-48.931 22.080-48.931 53.549v98.659h15.658v-98.659c0-23.789 13.872-40.15 35.456-40.15 27.635 0 40.483 23.622 46.189 32.944v105.875h15.536v-149.651h-15.549zM558.781 460.912c-12.88 0-17.84 6.566-23.491 14.666l-34.067 50.915h-17.606v-63.024h-15.581v149.651h34.72c31.744 0 50.707-16.87 50.707-43.19 0-23.68-17.146-37.462-35.104-41.747l31.139-45.427c4.307-6.125 8.298-9.52 12.659-9.52 4.893 0 8.109 2.886 10.048 5.024l5.718-5.696c-1.238-2.131-6.56-11.651-19.142-11.651zM501.197 599.459h-17.606v-60.534h16.528c17.683 0 37.021 7.603 37.021 31.216 0 19.51-12.042 29.318-35.942 29.318zM211.955 459.027c-46.333 0-80.886 35.632-80.886 79.366 0 43.885 34.554 79.408 80.886 79.408 46.378 0 80.995-35.523 80.995-79.408 0-43.754-34.598-79.366-80.995-79.366zM211.955 604.195c-37.232 0-64.778-29.661-64.778-65.792 0-36.051 27.568-65.626 64.778-65.626s64.778 29.574 64.778 65.626c0.022 36.131-27.546 65.792-64.778 65.792zM70.093 338.819h-22.147v-64.822h-15.536v149.696h37.254c31.28 0 49.462-16.253 49.462-42.234 0-29.696-25.818-42.64-49.034-42.64zM68.528 409.875h-20.582v-58.387h19.459c16.87 0 35.632 7.536 35.632 30.269 0.022 18.698-11.898 28.118-34.509 28.118zM211.955 269.402c-46.419 0-81.008 35.712-81.008 79.366 0 43.821 34.598 79.408 81.008 79.408 46.378 0 80.995-35.59 80.995-79.408 0-43.632-34.598-79.366-80.995-79.366zM211.955 414.426c-37.232 0-64.842-29.485-64.842-65.67 0-36.163 27.613-65.581 64.842-65.581s64.778 29.44 64.778 65.581c0.022 36.186-27.546 65.67-64.778 65.67zM327.526 423.67h15.469v-149.696h-15.469zM493.341 273.974v31.094l-91.453 91.485v-122.579h-15.325v149.696h9.331l97.446-97.491v97.491h15.901v-149.696zM599.603 409.875v-135.901h-15.789v135.901h-52.835v13.795h121.203v-13.795zM700.96 269.734c-13.872 0-28.394 4.243-40.272 10.81v17.078c6.589-3.968 24.55-13.85 40.272-13.85 17.286 0 31.216 9.178 31.216 24.691 0 12.032-12.605 22.016-21.597 27.866l-22.963 15.171c-11.504 7.382-25.034 18.422-25.034 37.296 0 25.674 18.653 39.158 42.342 39.158 15.725 0 27.523-5.254 34.211-8.803v-15.702c-8.045 4.662-21.066 10.698-34.211 10.698-16.253 0-27.203-9.917-27.203-24.109 0-12.262 10.643-19.843 20.749-26.666l21.994-14.611c11.162-7.306 27.424-18.874 27.424-39.92 0.022-24.058-19.69-39.107-46.928-39.107z" horiz-adv-x="790" />
<glyph unicode="&#xe029;" d="M328.624 349.136h132.093v-264.237h-132.093zM394.662 811.526l-363.312-363.27h66.054v-363.357h198.182v297.277h198.189v-297.277h198.141v363.357h66.054l-99.072 99.075v231.155h-132.106v-99.075z" horiz-adv-x="790" />
<glyph unicode="&#xe02a;" d="M662.093 503.517c0-19.456-15.757-35.213-35.213-35.213h-462.995c-19.478 0-35.235 15.757-35.235 35.213v236.259c0 19.443 15.757 35.213 35.235 35.213h462.995c19.456 0 35.213-15.779 35.213-35.213v-236.259zM726.816 431.626h-662.854c-19.456 0-35.235-15.789-35.235-35.235l0.003-125.277v-113.28c0-19.443 15.779-35.213 35.235-35.213h9.466c19.443 0 35.235 15.779 35.235 35.213v20.899h573.475v-20.899c0-19.443 15.789-35.213 35.235-35.213h9.466c19.456 0 35.235 15.779 35.235 35.213v56.134l-0.032 57.146v125.29c0 19.434-15.776 35.222-35.229 35.222zM627.936 538.618h-19.334c7.222 5.856 11.299 16.144 11.299 33.478 0 60.080-48.723 60.678-108.781 60.678s-108.781-0.598-108.781-60.678c0-17.322 4.054-27.613 11.267-33.478h-35.546c7.2 5.856 11.267 16.144 11.267 33.478 0 60.080-48.701 60.678-108.781 60.678s-108.768-0.598-108.768-60.678c0-17.322 4.054-27.613 11.277-33.478h-20.134c-13.232 0-46.813-68.224-79.258-106.989h623.619c-32.538 38.752-66.128 106.989-79.347 106.989z" horiz-adv-x="790" />
<glyph unicode="&#xe02b;" d="M639.549 460.819h9.709v381.267h-127.133v-378.877zM150.749 460.819l117.264 2.39v378.877h-127.126v-381.267h0.035zM395.078 755.219l63.581-182.861v269.728h-127.178v-269.987zM395.078 658.416l78.592-226 239.139-4.861-190.614-144.576 69.293-228.976-196.41 136.707-196.39-136.707 69.232 228.976-190.525 144.576 239.21 4.861z" horiz-adv-x="790" />
<glyph unicode="&#xe02c;" d="M669.776 366.154c-45.405 45.443-386.045 386.045-386.045 386.045h-272.438v-272.499l386.010-386.010c0 0 45.405-45.405 90.813 0l181.686 181.626c-0.026 0.026 45.382 45.43-0.026 90.838zM192.922 570.512c-25.075-25.050-65.728-25.075-90.813 0-25.050 25.050-25.050 65.728 0 90.813 25.075 25.075 65.728 25.050 90.813 0 25.046-25.075 25.046-65.702 0-90.813zM733.968 462.493c-45.405 45.443-386.010 386.010-386.010 386.010h-272.464v-64.224h221.539l9.408-9.347c0 0 340.506-340.579 385.984-386.010 10.986-10.755 18.563-22.989 23.411-35.392l18.138 18.138c-0.006 0.013 45.402 45.421-0.006 90.826z" horiz-adv-x="790" />
<glyph unicode="&#xe02d;" d="M394.195 195.933l136.688-135.734 17.434 191.802 191.962-16.099-109.955 158.157 157.469 111.024-185.901 50.496 49.162 186.221-174.851-80.778-82.006 174.259-82.010-174.259-174.854 80.778 49.219-186.221-185.907-50.496 157.478-111.024-109.965-158.157 191.965 16.099 17.427-191.802z" horiz-adv-x="790" />
<glyph unicode="&#xe02e;" d="M158.317 307.498c71.194 309.923 425.648 382.109 425.648 382.109v95.418l211.389-211.037-211.389-211.037v95.443c-0.003-0.067-274.106 11.306-425.648-150.896zM585.699 268.557v-77.741h-510.87v330.896h111.763c22.333 28.784 47.709 55.36 75.693 79.645h-267.136v-490.221h670.182v236.934l-79.632-79.514z" horiz-adv-x="790" />
<glyph unicode="&#xe02f;" d="M736.192 204.23c0-53.917-43.757-97.674-97.674-97.674h-488.349c-53.917 0-97.674 43.757-97.674 97.674v488.349c0 53.917 43.757 97.674 97.674 97.674h488.349c53.917 0 97.674-43.757 97.674-97.674v-488.349zM345.062 523.955c6.64-22.166 11.034-39.456 13.136-51.421 2.25-12.451 6.589-45.562 12.989-98.163l1.51-12.211h44.442l1.315 12.253c4.733 42.192 8.15 70.474 10.202 84.24 2.106 13.427 5.955 30.672 11.622 51.082 9.859 35.798 16.461 60.704 20.17 76.090 4.006 16.502 5.866 28.912 5.866 37.658 0 28.278-7.427 49.322-22.221 62.506-14.358 12.794-31.107 19.341-49.814 19.341-19.238 0-36.141-6.64-50.253-19.629-14.502-13.28-21.782-35.014-21.782-64.515 0-9.77 2.051-22.365 6.154-38.723 2.557-9.965 8.118-29.594 16.666-58.506zM394.339 335.594c-19.923 0-37.066-7.126-51.030-21.101-13.92-13.962-21.050-31.107-21.050-50.989 0-19.923 7.126-37.014 21.050-51.030 13.962-13.962 31.107-20.998 51.030-20.998 19.882 0 37.014 7.034 51.030 20.998 13.92 14.016 20.998 31.107 20.998 51.030 0 19.882-7.085 37.014-20.998 50.989-14.019 13.974-31.152 21.101-51.030 21.101z" horiz-adv-x="790" />
<glyph unicode="&#xe030;" d="M579.174 944.602v-994.374c-213.638 64.365-369.261 262.576-369.261 497.187-0.016 234.598 155.622 432.794 369.261 497.187z" horiz-adv-x="790" />
</font>
</defs>
</svg>
