<?xml version="1.0" encoding="utf-8"?>
<!-- Generator: Adobe Illustrator 16.0.4, SVG Export Plug-In . SVG Version: 6.00 Build 0)  -->
<!DOCTYPE svg PUBLIC "-//W3C//DTD SVG 1.1//EN" "http://www.w3.org/Graphics/SVG/1.1/DTD/svg11.dtd">
<svg version="1.1" id="Layer_2" xmlns="http://www.w3.org/2000/svg" xmlns:xlink="http://www.w3.org/1999/xlink" x="0px" y="0px"
	 width="62px" height="68px" viewBox="0 0 62 68" enable-background="new 0 0 62 68" xml:space="preserve">
<path fill="#FFFFFF" d="M13.675,6.618L7.786,0.346C7.352-0.115,6.648-0.115,6.214,0.349l-5.89,6.27C0.126,6.833,0,7.13,0,7.456
	C0,8.108,0.5,8.637,1.111,8.64c0.187,0,0.363-0.051,0.516-0.137l3.15-1.927l0.558,9.228c0,0.654,0.5,1.176,1.111,1.176
	c0.179,0.014,0.36,0.021,0.541,0.021c0.181,0,0.386-0.006,0.566-0.021c0.612,0,1.112-0.523,1.112-1.175l0.557-9.229l3.151,1.927
	C12.526,8.591,12.7,8.64,12.889,8.64c0.611,0,1.107-0.531,1.111-1.184C13.998,7.129,13.875,6.833,13.675,6.618z"/>
<path fill="#33353A" d="M13.675,23.618l-5.889-6.272c-0.434-0.461-1.137-0.461-1.571,0.003l-5.89,6.27
	C0.126,23.833,0,24.13,0,24.456c0,0.652,0.5,1.181,1.111,1.184c0.187,0,0.363-0.051,0.516-0.137l3.15-1.927l0.558,9.229
	c0,0.653,0.5,1.176,1.111,1.176c0.179,0.014,0.36,0.021,0.541,0.021c0.181,0,0.386-0.007,0.566-0.021
	c0.612,0,1.112-0.523,1.112-1.175l0.557-9.229l3.151,1.927c0.154,0.088,0.327,0.137,0.517,0.137c0.611,0,1.107-0.531,1.111-1.184
	C13.998,24.129,13.875,23.833,13.675,23.618z"/>
<path fill="#0078CA" d="M13.675,40.618l-5.889-6.272c-0.434-0.461-1.137-0.461-1.571,0.003l-5.89,6.27
	C0.126,40.832,0,41.131,0,41.456c0,0.652,0.5,1.181,1.111,1.184c0.187,0,0.363-0.052,0.516-0.137l3.15-1.927l0.558,9.229
	c0,0.653,0.5,1.176,1.111,1.176c0.179,0.014,0.36,0.021,0.541,0.021c0.181,0,0.386-0.007,0.566-0.021
	c0.612,0,1.112-0.523,1.112-1.175l0.557-9.229l3.151,1.927c0.154,0.088,0.327,0.137,0.517,0.137c0.611,0,1.107-0.531,1.111-1.184
	C13.998,41.129,13.875,40.832,13.675,40.618z"/>
<path fill="#953CAC" d="M13.675,57.617l-5.889-6.272c-0.434-0.461-1.137-0.461-1.571,0.003l-5.89,6.27
	C0.126,57.831,0,58.13,0,58.455c0,0.652,0.5,1.181,1.111,1.184c0.187,0,0.363-0.052,0.516-0.137l3.15-1.927l0.558,9.229
	c0,0.653,0.5,1.176,1.111,1.176C6.625,67.993,6.806,68,6.986,68c0.181,0,0.386-0.007,0.566-0.021c0.612,0,1.112-0.523,1.112-1.175
	l0.557-9.229l3.151,1.927c0.154,0.088,0.327,0.137,0.517,0.137c0.611,0,1.107-0.531,1.111-1.184
	C13.998,58.128,13.875,57.831,13.675,57.617z"/>
<path fill="#FFFFFF" d="M28,9.546c-0.004-0.652-0.5-1.184-1.111-1.184c-0.189,0-0.362,0.049-0.516,0.137l-3.151,1.927l-0.557-9.229
	c0-0.651-0.5-1.175-1.112-1.175c-0.18-0.014-0.385-0.021-0.566-0.021c-0.181,0-0.362,0.006-0.541,0.021
	c-0.611,0-1.111,0.522-1.111,1.176l-0.558,9.228l-3.15-1.927c-0.153-0.085-0.329-0.137-0.516-0.137C14.5,8.365,14,8.894,14,9.546
	c0,0.326,0.126,0.624,0.324,0.838l5.89,6.27c0.434,0.464,1.137,0.464,1.571,0.003l5.889-6.272C27.875,10.169,27.998,9.873,28,9.546z
	"/>
<path fill="#33353A" d="M28,26.546c-0.004-0.652-0.5-1.184-1.111-1.184c-0.189,0-0.362,0.049-0.516,0.137l-3.151,1.927l-0.557-9.229
	c0-0.651-0.5-1.175-1.112-1.175c-0.18-0.014-0.385-0.021-0.566-0.021c-0.181,0-0.362,0.007-0.541,0.021
	c-0.611,0-1.111,0.522-1.111,1.176l-0.558,9.229l-3.15-1.927c-0.153-0.085-0.329-0.137-0.516-0.137C14.5,25.365,14,25.894,14,26.546
	c0,0.326,0.126,0.624,0.324,0.838l5.89,6.27c0.434,0.464,1.137,0.464,1.571,0.003l5.889-6.272
	C27.875,27.169,27.998,26.873,28,26.546z"/>
<path fill="#0078CA" d="M28,43.545c-0.004-0.652-0.5-1.184-1.111-1.184c-0.189,0-0.362,0.049-0.516,0.137l-3.151,1.927l-0.557-9.229
	c0-0.651-0.5-1.174-1.112-1.174C21.373,34.007,21.167,34,20.986,34c-0.181,0-0.362,0.007-0.541,0.021
	c-0.611,0-1.111,0.522-1.111,1.175l-0.558,9.229l-3.15-1.927c-0.153-0.085-0.329-0.137-0.516-0.137C14.5,42.364,14,42.893,14,43.545
	c0,0.325,0.126,0.624,0.324,0.838l5.89,6.27c0.434,0.464,1.137,0.464,1.571,0.003l5.889-6.272
	C27.875,44.169,27.998,43.872,28,43.545z"/>
<path fill="#953CAC" d="M28,60.545c-0.004-0.652-0.5-1.184-1.111-1.184c-0.189,0-0.362,0.049-0.516,0.137l-3.151,1.927l-0.557-9.229
	c0-0.651-0.5-1.175-1.112-1.175C21.373,51.007,21.167,51,20.986,51c-0.181,0-0.362,0.007-0.541,0.021
	c-0.611,0-1.111,0.522-1.111,1.176l-0.558,9.229l-3.15-1.927c-0.153-0.085-0.329-0.137-0.516-0.137C14.5,59.364,14,59.893,14,60.545
	c0,0.325,0.126,0.624,0.324,0.838l5.89,6.27c0.434,0.464,1.137,0.464,1.571,0.003l5.889-6.272
	C27.875,61.169,27.998,60.872,28,60.545z"/>
<path fill="#FFFFFF" d="M37.545,0c-0.652,0.004-1.184,0.5-1.184,1.111c0,0.189,0.049,0.362,0.137,0.516l1.928,3.151l-9.229,0.557
	c-0.651,0-1.175,0.5-1.175,1.112c-0.015,0.18-0.021,0.385-0.021,0.566c0,0.181,0.006,0.361,0.021,0.541
	c0,0.611,0.522,1.111,1.177,1.111l9.228,0.558l-1.928,3.149c-0.086,0.153-0.137,0.33-0.137,0.516C36.363,13.5,36.893,14,37.545,14
	c0.326,0,0.623-0.126,0.838-0.324l6.27-5.891c0.465-0.434,0.465-1.137,0.004-1.57l-6.273-5.89C38.168,0.125,37.873,0.002,37.545,0z"
	/>
<path fill="#33353A" d="M37.545,17c-0.652,0.004-1.184,0.5-1.184,1.111c0,0.189,0.049,0.362,0.137,0.516l1.928,3.151l-9.229,0.557
	c-0.651,0-1.175,0.5-1.175,1.112c-0.014,0.18-0.021,0.385-0.021,0.566c0,0.181,0.007,0.361,0.021,0.541
	c0,0.611,0.522,1.111,1.176,1.111l9.229,0.558l-1.928,3.149c-0.086,0.153-0.137,0.33-0.137,0.516C36.363,30.5,36.893,31,37.545,31
	c0.326,0,0.623-0.126,0.838-0.324l6.27-5.891c0.465-0.434,0.465-1.137,0.004-1.57l-6.273-5.89
	C38.168,17.125,37.873,17.002,37.545,17z"/>
<path fill="#0078CA" d="M37.545,34c-0.652,0.004-1.184,0.5-1.184,1.111c0,0.189,0.049,0.362,0.137,0.516l1.926,3.151l-9.229,0.557
	c-0.651,0-1.175,0.5-1.175,1.112C28.007,40.627,28,40.832,28,41.014c0,0.181,0.007,0.361,0.021,0.541
	c0,0.611,0.522,1.111,1.176,1.111l9.228,0.558l-1.926,3.149c-0.086,0.153-0.137,0.33-0.137,0.516C36.363,47.5,36.893,48,37.545,48
	c0.324,0,0.623-0.126,0.838-0.324l6.27-5.891c0.463-0.434,0.463-1.137,0.002-1.57l-6.271-5.889
	C38.168,34.125,37.871,34.002,37.545,34z"/>
<path fill="#953CAC" d="M37.545,51c-0.652,0.004-1.184,0.5-1.184,1.111c0,0.189,0.049,0.362,0.137,0.516l1.928,3.151l-9.229,0.557
	c-0.651,0-1.175,0.5-1.175,1.112c-0.014,0.18-0.021,0.385-0.021,0.566c0,0.181,0.007,0.361,0.021,0.541
	c0,0.611,0.522,1.111,1.176,1.111l9.229,0.558l-1.928,3.149c-0.084,0.153-0.137,0.33-0.137,0.516C36.365,64.5,36.893,65,37.545,65
	c0.326,0,0.625-0.126,0.838-0.324l6.27-5.891c0.465-0.434,0.465-1.137,0.004-1.57l-6.273-5.89C38.17,51.125,37.873,51.002,37.545,51
	z"/>
<path fill="#FFFFFF" d="M51.617,0.325l-6.273,5.89c-0.461,0.434-0.461,1.137,0.004,1.57l6.27,5.891
	C51.832,13.874,52.129,14,52.455,14c0.652,0,1.182-0.5,1.184-1.111c0-0.186-0.051-0.362-0.137-0.516l-1.928-3.149l9.228-0.558
	c0.654,0,1.177-0.5,1.177-1.111c0.015-0.18,0.021-0.36,0.021-0.541c0-0.182-0.006-0.387-0.021-0.566
	c0-0.612-0.523-1.112-1.175-1.112l-9.229-0.557l1.928-3.151c0.088-0.153,0.137-0.326,0.137-0.516c0-0.611-0.531-1.107-1.184-1.111
	C52.127,0.002,51.832,0.125,51.617,0.325z"/>
<path fill="#33353A" d="M51.617,17.325l-6.273,5.89c-0.461,0.434-0.461,1.137,0.004,1.57l6.27,5.891
	C51.832,30.874,52.129,31,52.455,31c0.652,0,1.182-0.5,1.184-1.111c0-0.186-0.051-0.362-0.137-0.516l-1.928-3.149l9.229-0.558
	c0.653,0,1.176-0.5,1.176-1.111c0.014-0.18,0.021-0.36,0.021-0.541c0-0.182-0.007-0.387-0.021-0.566
	c0-0.612-0.523-1.112-1.175-1.112l-9.229-0.557l1.928-3.151c0.088-0.153,0.137-0.326,0.137-0.516c0-0.611-0.531-1.107-1.184-1.111
	C52.127,17.002,51.832,17.125,51.617,17.325z"/>
<path fill="#0078CA" d="M51.617,34.326l-6.271,5.889c-0.461,0.434-0.461,1.137,0.002,1.57l6.27,5.891
	C51.832,47.874,52.131,48,52.455,48c0.652,0,1.182-0.5,1.184-1.111c0-0.186-0.051-0.362-0.137-0.516l-1.926-3.149l9.228-0.558
	c0.653,0,1.176-0.5,1.176-1.111c0.014-0.18,0.021-0.36,0.021-0.541c0-0.182-0.007-0.387-0.021-0.566
	c0-0.612-0.523-1.112-1.175-1.112l-9.229-0.557l1.926-3.151c0.088-0.153,0.137-0.326,0.137-0.516c0-0.611-0.531-1.107-1.184-1.111
	C52.129,34.002,51.832,34.125,51.617,34.326z"/>
<path fill="#953CAC" d="M51.617,51.325l-6.273,5.89c-0.461,0.434-0.461,1.137,0.004,1.57l6.27,5.891
	C51.83,64.874,52.129,65,52.455,65c0.652,0,1.18-0.5,1.184-1.111c0-0.186-0.053-0.362-0.137-0.516l-1.928-3.149l9.229-0.558
	c0.653,0,1.176-0.5,1.176-1.111c0.014-0.18,0.021-0.36,0.021-0.541c0-0.182-0.007-0.387-0.021-0.566
	c0-0.612-0.523-1.112-1.175-1.112l-9.229-0.557l1.928-3.151c0.088-0.153,0.137-0.326,0.137-0.516c0-0.611-0.531-1.107-1.184-1.111
	C52.127,51.002,51.83,51.125,51.617,51.325z"/>
</svg>
