<?xml version="1.0" encoding="utf-8"?>
<!-- Generator: Adobe Illustrator 16.0.4, SVG Export Plug-In . SVG Version: 6.00 Build 0)  -->
<!DOCTYPE svg PUBLIC "-//W3C//DTD SVG 1.1//EN" "http://www.w3.org/Graphics/SVG/1.1/DTD/svg11.dtd">
<svg version="1.1" id="Layer_2" xmlns="http://www.w3.org/2000/svg" xmlns:xlink="http://www.w3.org/1999/xlink" x="0px" y="0px"
	 width="160px" height="40px" viewBox="0 0 160 40" enable-background="new 0 0 160 40" xml:space="preserve">
<g>
	<path fill="#FFFFFF" d="M56.34,7v23.326L61.714,32V12.438c0-0.916,0.415-1.529,1.091-1.317c0.875,0.24,1.048,1.083,1.048,2v7.814
		c3.349,1.585,5.987-0.002,5.987-4.195c0-4.302-1.544-6.212-6.096-7.746C61.953,8.4,58.625,7.416,56.34,7"/>
	<path fill="#FFFFFF" d="M62.734,28.591l8.646-3.025c0.983-0.345,1.131-0.834,0.335-1.09c-0.799-0.256-2.238-0.183-3.219,0.164
		l-5.762,1.992v-3.17l0.331-0.111c0,0,1.665-0.578,4.006-0.832c2.341-0.253,5.208,0.035,7.458,0.872
		c2.537,0.787,2.82,1.945,2.177,2.745c-0.645,0.798-2.224,1.367-2.224,1.367l-11.748,4.142V28.591"/>
	<path fill="#FFFFFF" d="M46.477,28.271c-2.604-0.72-3.035-2.219-1.85-3.084c1.097-0.798,2.96-1.397,2.96-1.397l7.707-2.689v3.065
		l-5.543,1.949c-0.981,0.345-1.133,0.832-0.335,1.09c0.796,0.254,2.238,0.183,3.219-0.164l2.659-0.948v2.743
		c-0.169,0.032-0.356,0.06-0.53,0.087C52.104,29.353,49.27,29.173,46.477,28.271"/>
	<path fill="#FFFFFF" d="M74.994,31.957c0.336,0,0.65-0.127,0.889-0.361c0.237-0.233,0.368-0.542,0.368-0.875
		c0-0.328-0.132-0.637-0.368-0.872c-0.238-0.235-0.553-0.363-0.889-0.363c-0.694,0-1.257,0.555-1.257,1.233
		c0,0.333,0.13,0.643,0.365,0.876C74.342,31.829,74.658,31.957,74.994,31.957 M73.947,30.72c0-0.274,0.108-0.532,0.306-0.725
		c0.197-0.195,0.462-0.301,0.741-0.301c0.282,0,0.543,0.106,0.74,0.301c0.198,0.193,0.309,0.45,0.309,0.725
		c0,0.567-0.471,1.028-1.049,1.028c-0.279,0-0.544-0.105-0.741-0.302C74.056,31.254,73.947,30.996,73.947,30.72"/>
	<path fill="#FFFFFF" d="M75.614,31.295c-0.02-0.008-0.032-0.028-0.042-0.059c-0.005-0.022-0.01-0.059-0.012-0.105l-0.007-0.178
		c-0.002-0.082-0.02-0.143-0.051-0.18c-0.021-0.028-0.052-0.052-0.084-0.068c0.044-0.029,0.081-0.06,0.107-0.102
		c0.034-0.055,0.055-0.125,0.055-0.208c0-0.166-0.07-0.279-0.207-0.339c-0.069-0.031-0.16-0.046-0.267-0.046h-0.649v1.376h0.243
		v-0.565h0.382c0.067,0,0.121,0.007,0.15,0.021c0.05,0.024,0.075,0.072,0.078,0.147l0.012,0.22c0.003,0.052,0.007,0.088,0.012,0.107
		c0.004,0.021,0.007,0.039,0.018,0.054l0.008,0.016h0.271v-0.08L75.614,31.295z M75.337,30.41c0,0.076-0.022,0.127-0.061,0.156
		c-0.045,0.03-0.106,0.044-0.187,0.044h-0.388v-0.387h0.413c0.057,0,0.102,0.007,0.133,0.022
		C75.309,30.273,75.337,30.329,75.337,30.41"/>
</g>
<g>
	<g id="handles_18_">
		<path fill="#FFFFFF" d="M19.962,6.133c-1.466,0.516-2.538,0.956-2.538,3.757v1.348l0.878-0.177V9.897
			c-0.021-1.9,0.472-2.297,1.753-2.851C20.051,6.688,20.018,6.384,19.962,6.133z"/>
		<path fill="#FFFFFF" d="M22.516,5.534c0.059,0.271,0.104,0.567,0.135,0.884c2.298-0.331,2.252,0.617,2.252,2.594v0.73l0.871-0.179
			V9.012C25.773,5.941,25.293,5.119,22.516,5.534z"/>
		<path fill="#FFFFFF" d="M13.469,12.03V7.991c-0.027-2.501,1.264-3.268,3.649-3.828c3.592-0.843,3.819,1.474,3.819,2.948v3.424
			l0.881-0.178v-3.17c-0.01-2.79-0.879-4.878-4.877-3.972c-2.152,0.488-4.351,1.038-4.351,4.693v4.297L13.469,12.03z"/>
	</g>
	<path fill="#FFFFFF" d="M30.167,9.75L6,14.583v17.583L30.167,37L35,35.242V11.507L30.167,9.75z M16.559,28.529l-5.363-0.756V23.32
		h5.363V28.529z M16.559,22.645h-5.363V18.55l5.363-0.758V22.645z M23.993,29.561l-6.761-0.988V23.32h6.761V29.561z M23.993,22.645
		h-6.761v-4.893l6.761-0.99V22.645z"/>
</g>
<g>
	<path fill="#FFFFFF" d="M104.706,8.116C106.788,5.605,106.354,3,106.354,3s-2.912,0.013-5.008,2.785
		c-1.863,2.464-1.389,4.572-1.389,4.572S102.482,10.795,104.706,8.116z"/>
	<path fill="#FFFFFF" d="M108.702,19.958c0-4.294,3.45-6.063,3.45-6.063s-1.764-3.2-6.248-3.2c-2.604,0-4.604,1.486-5.682,1.486
		c-1.256,0-3.131-1.397-5.546-1.397c-3.715,0-7.677,3.338-7.677,9.702C87,26.954,91.68,35,95.385,35
		c1.295,0,3.279-1.307,5.279-1.307c1.964,0,3.411,1.259,5.275,1.259c4.057,0,7.061-8.482,7.061-8.482S108.702,24.801,108.702,19.958
		z"/>
</g>
<g>
	<path fill="#FFFFFF" d="M149.18,12.757c0-2.99-1.838-5.595-4.551-6.926l1.49-2.591c0,0,0.07-0.138-0.064-0.215
		c-0.133-0.077-0.223,0.055-0.223,0.055l-1.514,2.614c-1.152-0.513-2.449-0.803-3.818-0.803s-2.666,0.29-3.818,0.802l-1.514-2.614
		c0,0-0.084-0.132-0.219-0.055c-0.135,0.077-0.066,0.216-0.066,0.216l1.489,2.591c-2.713,1.331-4.552,3.937-4.552,6.926h8.68H149.18
		z M144.629,8.26c0.453,0,0.824,0.371,0.824,0.825c0,0.455-0.371,0.814-0.824,0.814c-0.455,0-0.826-0.359-0.826-0.814
		S144.174,8.26,144.629,8.26z M136.372,9.898c-0.454,0-0.825-0.359-0.825-0.814c0-0.454,0.371-0.825,0.825-0.825
		s0.826,0.371,0.826,0.825C137.198,9.54,136.826,9.898,136.372,9.898z"/>
	<path fill="#FFFFFF" d="M131.75,26.938c0,0.653,0.791,1.51,1.443,1.51h2.065v4.49c0,1.143,0.833,2.062,1.868,2.062
		c1.036,0,1.869-0.921,1.869-2.062v-4.49h3.005v4.49c0,1.143,0.832,2.062,1.869,2.062c1.034,0,1.879-0.921,1.879-2.062v-4.49h2.056
		c0.653,0,1.442-0.855,1.442-1.51V13.768H131.75V26.938z"/>
	<path fill="#FFFFFF" d="M128.872,13.492c-1.034,0-1.872,0.924-1.872,2.063v7.814c0,1.139,0.838,2.062,1.872,2.062
		c1.03,0,1.869-0.924,1.869-2.062v-7.814C130.741,14.416,129.902,13.492,128.872,13.492z"/>
	<path fill="#FFFFFF" d="M152.129,13.492c-1.031,0-1.869,0.924-1.869,2.063v7.814c0,1.139,0.838,2.062,1.869,2.062
		c1.033,0,1.871-0.924,1.871-2.062v-7.814C154,14.416,153.162,13.492,152.129,13.492z"/>
</g>
</svg>
