<?xml version="1.0" encoding="utf-8"?>
<!-- Generator: Adobe Illustrator 17.1.0, SVG Export Plug-In . SVG Version: 6.00 Build 0)  -->
<!DOCTYPE svg PUBLIC "-//W3C//DTD SVG 1.1//EN" "http://www.w3.org/Graphics/SVG/1.1/DTD/svg11.dtd">
<svg version="1.1" id="Layer_2" xmlns="http://www.w3.org/2000/svg" xmlns:xlink="http://www.w3.org/1999/xlink" x="0px" y="0px"
	 width="15px" height="25px" viewBox="0 0 15 25" enable-background="new 0 0 15 25" xml:space="preserve">
<g id="Decline_cancel">
	<path fill="#FFFFFF" d="M10.5,17.5l3.9-3.9c0.8-0.8,0.8-2.1,0-3c-0.8-0.8-2.1-0.8-3,0l-3.9,3.9l-3.9-3.9c-0.8-0.8-2.1-0.8-3,0
		s-0.8,2.1,0,3l3.9,3.9l-3.9,3.9c-0.8,0.8-0.8,2.1,0,3c0.8,0.8,2.1,0.8,3,0l3.9-3.9l3.9,3.9c0.8,0.8,2.1,0.8,3,0s0.8-2.1,0-3
		L10.5,17.5z"/>
	<path fill="#FFFFFF" d="M5.6,4l2.1-2.1c0.4-0.4,0.4-1.1,0-1.6c-0.4-0.4-1.1-0.4-1.6,0L4,2.4L1.9,0.3c-0.4-0.4-1.1-0.4-1.6,0
		s-0.4,1.1,0,1.6L2.4,4L0.3,6.1c-0.4,0.4-0.4,1.1,0,1.6s1.1,0.4,1.6,0L4,5.6l2.1,2.1c0.4,0.4,1.1,0.4,1.6,0c0.4-0.4,0.4-1.1,0-1.6
		L5.6,4z"/>
</g>
</svg>
