<?xml version="1.0" encoding="utf-8"?>
<!-- Generator: Adobe Illustrator 17.1.0, SVG Export Plug-In . SVG Version: 6.00 Build 0)  -->
<!DOCTYPE svg PUBLIC "-//W3C//DTD SVG 1.1//EN" "http://www.w3.org/Graphics/SVG/1.1/DTD/svg11.dtd">
<svg version="1.1" id="Layer_1" xmlns="http://www.w3.org/2000/svg" xmlns:xlink="http://www.w3.org/1999/xlink" x="0px" y="0px"
	 width="91px" height="290px" viewBox="0 0 91 290" enable-background="new 0 0 91 290" xml:space="preserve">
<g id="KDhhyS.tif" display="none">
</g>
<g>
	<path fill="#FFFFFF" d="M79.2,1.7c1.2-0.7,2.6-0.8,3.9-0.5c0,0.8,0,1.5,0,2.3c-0.6-0.3-1.3-0.4-2-0.2c-0.5,0.2-0.8,0.7-0.9,1.2
		c-0.1,0.7,0,1.3-0.1,2c1.3,0,2.6,0,4,0c0-0.8,0-1.7,0-2.5c0.9-0.3,1.8-0.5,2.7-0.8c0,1.1,0,2.2,0,3.3c0.9,0,1.8,0,2.7,0v2.2
		c-0.9,0-1.8,0-2.7,0c0,1.2,0,2.5,0,3.7c0,0.7,0,1.4,0,2.1c0.1,0.4,0.2,0.9,0.6,1.1c0.6,0.4,1.5,0.2,2.1-0.2v2.2
		C88.7,17.9,87.9,18,87,18c-0.8-0.1-1.6-0.3-2.1-1c-0.6-0.7-0.8-1.7-0.8-2.6c0-1.9,0-3.8,0-5.7c-1.3,0-2.6,0-4,0c0,3,0,6,0,9
		c-0.9,0-1.8,0-2.7,0c0-3,0-6,0-9c-0.6,0-1.3,0-1.9,0c0-0.7,0-1.4,0-2.1c0.6,0,1.2,0,1.9,0c0-0.9-0.1-1.9,0.2-2.8
		C77.9,2.9,78.4,2.1,79.2,1.7L79.2,1.7z"/>
	<path fill="#FFFFFF" d="M21.2,1.8c0.5-0.1,1.1,0.1,1.5,0.5c0.4,0.5,0.5,1.2,0.2,1.7c-0.3,0.6-1.1,0.9-1.8,0.7
		c-0.7-0.1-1.3-0.8-1.3-1.5C19.8,2.6,20.5,1.9,21.2,1.8L21.2,1.8z"/>
	<path fill="#FFFFFF" d="M0.5,2.1c1.3,0,2.6,0,3.9,0c1.2,3.1,2.5,6.1,3.7,9.2c0.3,0.8,0.6,1.5,0.9,2.3c1.6-3.8,3.2-7.7,4.7-11.5
		c1.3,0,2.5,0,3.8,0c0,5.2,0,10.4,0,15.6c-0.9,0-1.8,0-2.7,0c0-3.8,0-7.7,0-11.5c0-0.2,0-0.3,0-0.5c-0.1,0.1-0.1,0.2-0.1,0.2
		c-1.6,3.9-3.2,7.8-4.7,11.8c-0.6,0-1.3,0-1.9,0C6.4,13.8,4.8,9.9,3.2,6c0-0.1-0.1-0.2-0.1-0.2c0,1.7,0,3.4,0,5c0,2.3,0,4.7,0,7
		c-0.9,0-1.7,0-2.6,0C0.5,12.5,0.5,7.3,0.5,2.1L0.5,2.1z"/>
	<path fill="#FFFFFF" d="M28.7,6.6c1.3-0.4,2.7-0.4,4,0c0.3,0.1,0.5,0.2,0.8,0.3c0,0.9,0,1.7,0,2.6c-0.9-0.7-2-1.1-3.1-0.9
		c-0.9,0.1-1.7,0.5-2.2,1.2c-0.7,0.9-0.8,2-0.7,3.1c0.1,0.8,0.4,1.7,1.1,2.2c0.7,0.6,1.6,0.8,2.5,0.7c0.9-0.1,1.7-0.5,2.4-1
		c0,0.8,0,1.6,0,2.4C32.4,17.9,31,18,29.8,18c-1.3-0.1-2.6-0.6-3.5-1.5c-1-1-1.6-2.4-1.6-3.7c-0.1-1.4,0.2-2.9,1.1-4.1
		C26.4,7.6,27.5,6.9,28.7,6.6L28.7,6.6z"/>
	<path fill="#FFFFFF" d="M58.2,6.4c1.3-0.2,2.6-0.1,3.7,0.4c0,0.8,0,1.6,0,2.5c-0.8-0.6-1.8-0.9-2.8-0.8c-0.5,0-1.1,0.2-1.3,0.7
		c-0.2,0.5-0.1,1.1,0.4,1.4c0.8,0.5,1.7,0.7,2.5,1.2c0.6,0.3,1.2,0.8,1.6,1.5c0.6,1.2,0.3,2.8-0.7,3.8c-1,0.9-2.4,1.2-3.8,1.1
		c-0.9-0.1-1.9-0.2-2.8-0.6c0-0.9,0-1.7,0-2.6c0.7,0.5,1.6,0.9,2.5,1c0.6,0.1,1.3,0.1,1.9-0.2c0.6-0.3,0.7-1,0.3-1.5
		c-0.3-0.4-0.8-0.6-1.2-0.8c-0.8-0.4-1.6-0.6-2.3-1.2c-0.5-0.4-0.9-0.9-1-1.5C55,9.8,55,8.8,55.5,8C56.1,7.1,57.2,6.6,58.2,6.4
		L58.2,6.4z"/>
	<path fill="#FFFFFF" d="M39.5,6.7c0.7-0.4,1.7-0.5,2.5-0.2c0,0.9,0,1.8,0,2.7c-0.5-0.3-1.2-0.5-1.8-0.4c-0.8,0.1-1.4,0.7-1.7,1.3
		c-0.3,0.7-0.4,1.5-0.4,2.3c0,1.8,0,3.6,0,5.3c-0.9,0-1.8,0-2.7,0c0-3.7,0-7.4,0-11.2c0.9,0,1.8,0,2.7,0c0,0.6,0,1.3,0,1.9
		C38.4,7.8,38.8,7.1,39.5,6.7L39.5,6.7z"/>
	<path fill="#FFFFFF" d="M20.1,6.6c0.9,0,1.8,0,2.7,0c0,3.7,0,7.4,0,11.2c-0.9,0-1.8,0-2.7,0C20.1,14,20.1,10.3,20.1,6.6L20.1,6.6z"
		/>
	<path fill="#FFFFFF" d="M53.2,9.2c-0.5-1-1.3-1.9-2.4-2.4c-1.2-0.5-2.6-0.6-3.9-0.5c-1.4,0.2-2.7,0.8-3.6,1.9
		c-0.8,1-1.2,2.2-1.2,3.4c-0.1,1.4,0.1,3,1,4.2c0.7,1,1.9,1.7,3.1,2c1,0.2,2.1,0.2,3.2,0c1.2-0.2,2.4-0.9,3.1-1.9
		c0.7-0.9,1.1-2.1,1.2-3.3C53.9,11.5,53.8,10.3,53.2,9.2z M50.6,14.3c-0.3,0.6-0.7,1.1-1.3,1.3c-0.7,0.3-1.5,0.3-2.2,0.1
		c-0.7-0.2-1.4-0.7-1.7-1.4c-0.4-0.9-0.5-1.9-0.4-2.8c0.1-0.9,0.4-1.7,1-2.3c0.5-0.4,1.1-0.7,1.8-0.7c0.8-0.1,1.7,0.2,2.3,0.8
		c0.6,0.6,0.9,1.5,0.9,2.3C51.1,12.5,51,13.4,50.6,14.3z"/>
	<path fill="#FFFFFF" d="M74.9,9.5c-0.4-1.1-1.2-2.1-2.3-2.6c-1.2-0.6-2.7-0.7-4-0.5c-1.1,0.1-2.2,0.5-3,1.3c-1,0.9-1.6,2.1-1.8,3.4
		c-0.2,1.3-0.1,2.7,0.4,3.9c0.5,1.2,1.5,2.2,2.7,2.6c1.2,0.5,2.5,0.5,3.8,0.3c1.3-0.2,2.5-0.9,3.3-1.9c0.9-1.1,1.2-2.5,1.2-3.8
		C75.4,11.3,75.2,10.3,74.9,9.5z M72.5,13.3c-0.1,0.6-0.3,1.2-0.7,1.6c-0.4,0.5-1,0.8-1.6,0.8c-0.6,0.1-1.3,0.1-1.9-0.2
		c-0.7-0.3-1.2-0.8-1.4-1.5c-0.3-0.8-0.4-1.6-0.3-2.4c0.1-0.8,0.3-1.6,0.8-2.2c0.5-0.6,1.2-0.9,2-0.9c0.8-0.1,1.6,0.1,2.2,0.6
		c0.5,0.4,0.8,1.1,1,1.8C72.6,11.7,72.6,12.5,72.5,13.3z"/>
</g>
<g>
	<path fill="#FFFFFF" d="M59.7,31.5c0.9-0.6,2-0.6,3-0.3c0,0.6,0,1.2,0,1.8c-0.5-0.2-1-0.3-1.5-0.1c-0.4,0.2-0.6,0.6-0.7,1
		c-0.1,0.5,0,1,0,1.5c1,0,2,0,3,0c0-0.6,0-1.3,0-1.9c0.7-0.2,1.3-0.4,2-0.6c0,0.9,0,1.7,0,2.6c0.7,0,1.3,0,2,0v1.7c-0.7,0-1.4,0-2,0
		c0,1,0,1.9,0,2.9c0,0.5,0,1.1,0,1.6c0,0.3,0.1,0.7,0.4,0.8c0.5,0.3,1.1,0.2,1.5-0.1v1.7c-0.6,0.3-1.2,0.3-1.9,0.3
		c-0.6,0-1.2-0.3-1.6-0.7c-0.4-0.5-0.6-1.3-0.6-2c0-1.5,0-2.9,0-4.4c-1,0-2,0-3,0c0,2.3,0,4.6,0,6.9c-0.7,0-1.4,0-2,0
		c0-2.3,0-4.6,0-6.9c-0.5,0-0.9,0-1.4,0c0-0.5,0-1.1,0-1.6c0.5,0,0.9,0,1.4,0c0-0.7-0.1-1.5,0.1-2.2C58.8,32.4,59.2,31.9,59.7,31.5
		L59.7,31.5z"/>
	<path fill="#FFFFFF" d="M16.1,31.6c0.4-0.1,0.9,0.1,1.1,0.4c0.3,0.4,0.4,0.9,0.1,1.3c-0.3,0.5-0.8,0.7-1.4,0.6
		c-0.5-0.1-1-0.6-0.9-1.1C15.1,32.2,15.5,31.7,16.1,31.6L16.1,31.6z"/>
	<path fill="#FFFFFF" d="M0.5,31.9c1,0,2,0,3,0c0.9,2.3,1.9,4.7,2.8,7c0.2,0.6,0.5,1.2,0.7,1.8c1.2-2.9,2.4-5.9,3.6-8.8
		c0.9,0,1.9,0,2.9,0c0,4,0,7.9,0,11.9c-0.7,0-1.4,0-2.1,0c0-2.9,0-5.9,0-8.8c0-0.1,0-0.3,0-0.4c0,0.1-0.1,0.1-0.1,0.2
		c-1.2,3-2.4,6-3.5,9c-0.5,0-1,0-1.5,0c-1.2-3-2.4-6-3.6-9c0-0.1-0.1-0.1-0.1-0.2c0,1.3,0,2.6,0,3.9c0,1.8,0,3.6,0,5.3
		c-0.6,0-1.3,0-1.9,0C0.5,39.8,0.5,35.9,0.5,31.9L0.5,31.9z"/>
	<path fill="#FFFFFF" d="M21.7,35.2c1-0.3,2-0.3,3,0c0.2,0.1,0.4,0.1,0.6,0.2c0,0.7,0,1.3,0,2c-0.7-0.5-1.5-0.8-2.3-0.7
		c-0.7,0.1-1.3,0.4-1.7,0.9c-0.5,0.7-0.6,1.6-0.5,2.4c0.1,0.6,0.3,1.3,0.8,1.7c0.5,0.5,1.2,0.6,1.9,0.6c0.7-0.1,1.3-0.4,1.8-0.8
		c0,0.6,0,1.2,0,1.9c-0.8,0.5-1.8,0.6-2.8,0.6c-1-0.1-1.9-0.4-2.7-1.1c-0.8-0.7-1.2-1.8-1.2-2.9c0-1.1,0.2-2.3,0.8-3.2
		C20,36.1,20.8,35.5,21.7,35.2L21.7,35.2z"/>
	<path fill="#FFFFFF" d="M44,35.1c0.9-0.2,1.9,0,2.8,0.3c0,0.6,0,1.3,0,1.9c-0.6-0.4-1.4-0.7-2.1-0.6c-0.4,0-0.8,0.2-1,0.5
		c-0.1,0.4,0,0.8,0.3,1c0.6,0.4,1.3,0.6,1.9,0.9c0.5,0.3,0.9,0.6,1.2,1.1c0.4,0.9,0.3,2.2-0.5,2.9c-0.8,0.7-1.8,0.9-2.8,0.9
		c-0.7,0-1.4-0.2-2.1-0.5c0-0.7,0-1.3,0-2c0.5,0.4,1.2,0.7,1.8,0.8c0.5,0.1,1,0.1,1.4-0.1c0.4-0.2,0.5-0.8,0.2-1.2
		c-0.2-0.3-0.6-0.4-0.9-0.6c-0.6-0.3-1.2-0.5-1.8-0.9c-0.4-0.3-0.7-0.7-0.8-1.2c-0.2-0.7-0.1-1.4,0.3-2C42.4,35.7,43.2,35.3,44,35.1
		L44,35.1z"/>
	<path fill="#FFFFFF" d="M29.9,35.4c0.6-0.3,1.3-0.4,1.9-0.2c0,0.7,0,1.4,0,2c-0.4-0.3-0.9-0.4-1.4-0.3c-0.6,0.1-1,0.5-1.3,1
		c-0.3,0.5-0.3,1.2-0.3,1.7c0,1.4,0,2.7,0,4.1c-0.7,0-1.3,0-2,0c0-2.8,0-5.7,0-8.5c0.7,0,1.3,0,2,0c0,0.5,0,1,0,1.5
		C29,36.2,29.4,35.7,29.9,35.4L29.9,35.4z"/>
	<path fill="#FFFFFF" d="M15.3,35.3c0.7,0,1.4,0,2,0c0,2.8,0,5.7,0,8.5c-0.7,0-1.3,0-2,0C15.3,41,15.3,38.1,15.3,35.3L15.3,35.3z"/>
	<path fill="#FFFFFF" d="M40.2,37.2c-0.4-0.8-1-1.4-1.8-1.8c-0.9-0.4-1.9-0.5-2.9-0.3c-1,0.1-2,0.6-2.7,1.4
		c-0.6,0.7-0.9,1.7-0.9,2.6c-0.1,1.1,0.1,2.3,0.7,3.2c0.5,0.8,1.4,1.3,2.4,1.5c0.8,0.2,1.6,0.2,2.4,0c0.9-0.2,1.8-0.7,2.3-1.4
		c0.6-0.7,0.8-1.6,0.9-2.5C40.7,39,40.6,38.1,40.2,37.2z M38.2,41.2c-0.2,0.4-0.6,0.8-1,1c-0.5,0.2-1.1,0.2-1.7,0.1
		c-0.6-0.1-1-0.5-1.3-1.1C34,40.5,33.9,39.8,34,39c0.1-0.7,0.3-1.3,0.8-1.8c0.4-0.3,0.9-0.5,1.3-0.5c0.6,0,1.3,0.1,1.7,0.6
		c0.5,0.5,0.7,1.1,0.7,1.8C38.6,39.8,38.5,40.5,38.2,41.2z"/>
	<path fill="#FFFFFF" d="M56.5,37.5c-0.3-0.8-0.9-1.6-1.8-2c-0.9-0.5-2-0.5-3-0.4c-0.8,0.1-1.6,0.4-2.2,1c-0.8,0.7-1.2,1.6-1.3,2.6
		c-0.1,1-0.1,2,0.3,3c0.4,0.9,1.1,1.7,2.1,2c0.9,0.4,1.9,0.4,2.9,0.2c1-0.2,1.9-0.7,2.5-1.5c0.6-0.8,0.9-1.9,0.9-2.9
		C56.9,38.8,56.8,38.1,56.5,37.5z M54.7,40.4c-0.1,0.5-0.2,0.9-0.5,1.3c-0.3,0.4-0.7,0.6-1.2,0.6c-0.5,0.1-1,0-1.5-0.2
		c-0.5-0.2-0.9-0.6-1.1-1.1c-0.2-0.6-0.3-1.2-0.2-1.9c0-0.6,0.2-1.2,0.6-1.7c0.4-0.4,0.9-0.7,1.5-0.7c0.6,0,1.2,0.1,1.6,0.5
		c0.4,0.3,0.6,0.8,0.7,1.4C54.8,39.2,54.8,39.8,54.7,40.4z"/>
</g>
<path fill="#00BEFA" d="M0.5,63.8l8.2-1.1l0,7.9l-8.2,0L0.5,63.8z M8.7,71.5l0,7.9l-8.2-1.1v-6.8L8.7,71.5z M9.7,62.6L20.5,61v9.5
	L9.7,70.6V62.6z M20.5,71.6l0,9.4L9.7,79.5l0-7.9L20.5,71.6z"/>
<path fill="#FF8B00" d="M0.5,123.8l8.2-1.1l0,7.9l-8.2,0L0.5,123.8z M8.7,131.5l0,7.9l-8.2-1.1v-6.8L8.7,131.5z M9.7,122.6l10.8-1.6
	v9.5l-10.8,0.1V122.6z M20.5,131.6l0,9.4l-10.8-1.5l0-7.9L20.5,131.6z"/>
<g>
	<polygon fill="#E73F24" points="13.4,91 0.5,96 0.5,110.4 0.5,110.4 5.1,108.5 5.1,97.1 13.4,95.2 13.4,112.1 0.5,110.4 13.4,115 
		20.5,112.7 20.5,93.4 	"/>
</g>
<g>
	<path fill="#3BC829" d="M37.6,66.5C37.6,66.5,37.6,66.5,37.6,66.5C37.6,66.4,37.6,66.4,37.6,66.5c-3.4-3.4-4.2-2.6-4.1-2.6v0
		c-1.8,1.8-3,4.3-3,7.1c0,2.3,0.8,4.4,2,6.1c0,0,0,0,0.1,0s0,0,0-0.1C31.8,74.7,35.6,68.9,37.6,66.5"/>
	<path fill="#3BC829" d="M47.5,63.9L47.5,63.9c0,0-0.7-0.8-4.1,2.5c0,0,0,0,0,0c0,0,0,0,0,0c2,2.4,5.8,8.2,5,10.6c0,0,0,0,0,0.1
		c0,0,0,0,0.1,0c1.3-1.7,2-3.8,2-6.1C50.5,68.2,49.4,65.7,47.5,63.9"/>
	<path fill="#3BC829" d="M35.5,62.4c1.7-0.4,4.7,1.4,5,1.6c0,0,0,0,0,0c0,0,0,0,0,0c0.3-0.2,3.2-2,5-1.6c0,0,0,0,0,0c0,0,0,0,0,0
		c-1.5-0.9-3.2-1.4-5-1.4S36.9,61.5,35.5,62.4C35.4,62.4,35.4,62.4,35.5,62.4C35.5,62.4,35.5,62.4,35.5,62.4"/>
	<path fill="#3BC829" d="M40.5,68.9C40.5,68.9,40.5,68.9,40.5,68.9C40.5,68.9,40.5,68.9,40.5,68.9c-3.1,2.3-8.2,8-6.6,9.6h0
		c1.8,1.5,4.1,2.5,6.6,2.5s4.8-0.9,6.6-2.5l0,0C48.6,76.9,43.5,71.2,40.5,68.9"/>
</g>
<g>
	<path fill="#F25022" d="M30.5,121h9c0,3,0,6,0,9c-3,0-6,0-9,0V121L30.5,121z"/>
	<path fill="#80BA01" d="M41.5,121h9c0,3,0,6,0,9c-3,0-6,0-9,0C41.5,127,41.5,124,41.5,121L41.5,121z"/>
	<path fill="#00B8FA" d="M30.5,132c3,0,6,0,9,0c0,3,0,6,0,9h-9V132L30.5,132z"/>
	<path fill="#FFB902" d="M41.5,132c3,0,6,0,9,0c0,3,0,6,0,9h-9C41.5,138,41.5,135,41.5,132L41.5,132z"/>
</g>
<path fill="#FFFFFF" d="M10.5,181c-5.5,0-10,4.5-10,10s4.5,10,10,10s10-4.5,10-10S16,181,10.5,181z M8.4,195
	c-0.9,0.8-2.1,1.2-3.4,1.2c-0.1,0-0.3,0-0.4,0c0,0-0.1,0-0.1,0c-0.3,0-0.6-0.2-0.8-0.5c-0.3-0.5-0.6-1-0.9-1.6
	c-0.1-0.1-0.1-0.3-0.1-0.4c0-0.2,0.1-0.4,0.2-0.6c0.4-0.5,0.7-1.1,0.9-1.7c0.4-1.2,1.6-2.1,2.9-2.1c0,0,0,0,0,0
	c0.4,0,0.7,0.3,0.7,0.7c0,0.1,0,0.2,0,0.2c0,0.2-0.1,0.3-0.1,0.5c0,0.6,0.3,1.2,0.8,1.5c0.5,0.3,0.9,0.9,0.9,1.5
	C9.1,194.2,8.8,194.7,8.4,195z M13.9,198.5c-0.1,0-0.2,0.1-0.3,0.1c-0.5,0-0.9-0.4-0.9-0.9c0-0.1,0-0.3,0.1-0.4
	c0.1-0.3,0.2-0.7,0.2-1.1c0-0.7-0.2-1.3-0.6-1.7c-0.4-0.5-0.6-1.1-0.6-1.8c0-0.7,0.3-1.4,0.7-1.9c0.3-0.3,0.5-0.7,0.5-1.2
	c0-0.7-0.4-1.3-1-1.6c-0.5-0.2-1.1-0.4-1.7-0.4c-0.5,0-1,0.1-1.4,0.2c-0.1,0-0.2,0.1-0.3,0.1c-0.5,0-0.9-0.4-0.9-0.9
	c0-0.4,0.2-0.7,0.5-0.9c0.3-0.2,0.5-0.5,0.5-0.8c0-0.4-0.3-0.8-0.7-0.9c-0.3-0.1-0.5-0.3-0.5-0.7c0-0.3,0.2-0.6,0.5-0.7
	c0.8-0.3,1.7-0.4,2.6-0.4c2.6,0,4.9,1.2,6.4,3c0.1,0.1,0.1,0.3,0.1,0.4c0,0.4-0.3,0.7-0.7,0.7c0,0-0.1,0-0.1,0c-0.2,0-0.4,0-0.6,0
	c-0.3,0-0.5,0-0.8,0.1c-0.3,0.1-0.6,0.3-0.6,0.7c0,0.4,0.3,0.7,0.7,0.7c0.1,0,0.1,0,0.2,0c0.3-0.1,0.7-0.1,1.1-0.1
	c0.5,0,0.9,0.1,1.4,0.2c0.6,0.2,1,0.7,1.1,1.4c0.1,0.4,0.1,0.8,0.1,1.3C18.8,194.4,16.8,197.2,13.9,198.5z"/>
<g>
	<path fill="#FFFFFF" d="M42.5,181c0.6,0,1,0.4,1,1c0,0.3-0.1,0.5-0.3,0.7l-5.5,5.1c-0.4,0.4-1.1,0.4-1.5,0l-5.5-5.1
		c-0.2-0.2-0.3-0.4-0.3-0.7c0-0.5,0.5-1,1-1H42.5z"/>
</g>
<path fill="#B0C5D1" d="M12.9,234.2L12.9,234.2c-0.4,0.8-1.4,1-2.1,0.6c-0.8-0.4-1-1.4-0.6-2.1l11.7-20.9c0.4-0.8,1.4-1,2.1-0.6
	c0.8,0.4,1,1.4,0.6,2.1L12.9,234.2z M32.7,224.1L32.7,224.1c-2.5-2.5-5.5-4.3-8.8-5.4l-2.5,4.4c0.7,0.2,1.3,0.5,2,0.8l-0.2,0.3
	c-0.8,1.3-0.3,3,1,3.7l4,2.3c0.9,0.5,2,0.5,2.9-0.1c0.7-0.4,1.3-1,1.7-1.8c0.5-0.8,0.7-1.6,0.7-2.5
	C33.5,225.3,33.2,224.6,32.7,224.1z M10.8,224.3l-0.2-0.3c0.9-0.4,1.8-0.8,2.8-1.1l2.9-5.2c-5.9,0.2-11.1,2.6-15,6.4l0,0
	c-0.5,0.5-0.8,1.2-0.8,1.8c0,0.8,0.2,1.7,0.7,2.5c0.4,0.7,1,1.3,1.7,1.8c0.8,0.5,1.9,0.6,2.9,0.1l4-2.3
	C11.1,227.2,11.6,225.6,10.8,224.3z"/>
<path fill="#B0C5D1" d="M49.9,228.4L49.9,228.4c-0.3,0.6-1,0.8-1.6,0.5c-0.6-0.3-0.8-1-0.5-1.6l8.9-15.7c0.3-0.6,1-0.8,1.6-0.5
	c0.6,0.3,0.8,1,0.5,1.6L49.9,228.4z M64.9,220.8L64.9,220.8c-1.9-1.8-4.1-3.2-6.7-4.1l-1.9,3.3c0.5,0.2,1,0.4,1.5,0.6l-0.1,0.2
	c-0.6,1-0.2,2.2,0.8,2.8l3.1,1.7c0.7,0.4,1.5,0.4,2.2-0.1c0.5-0.3,1-0.8,1.3-1.3c0.3-0.6,0.5-1.2,0.5-1.9
	C65.5,221.7,65.3,221.2,64.9,220.8z M48.3,220.9l-0.1-0.2c0.7-0.3,1.4-0.6,2.1-0.8l2.2-3.9c-4.4,0.1-8.4,1.9-11.4,4.8l0,0
	c-0.4,0.4-0.6,0.9-0.6,1.4c0,0.6,0.2,1.3,0.5,1.9c0.3,0.6,0.8,1,1.3,1.3c0.6,0.4,1.5,0.4,2.2,0.1l3.1-1.7
	C48.6,223.2,48.9,221.9,48.3,220.9z"/>
<g>
	<path fill="#B0C5D1" d="M47.1,151.7v7.6H33.9v-7.6H47.1 M47.8,151H33.3v8.9h14.5V151L47.8,151z"/>
	<polygon fill="#B0C5D1" points="33.3,161.3 47.8,161.3 50.5,165.6 30.5,165.6 	"/>
</g>
<polygon fill="#F3BD24" points="30.5,91.1 36.2,92.9 36.2,107 30.7,112 44.2,104.8 40.5,103.1 37.9,97.6 50.5,101.5 50.5,107.6 
	36.2,116.1 30.5,112.1 "/>
<path fill="#FFFFFF" d="M12.9,246.1c-0.2-0.1-0.4-0.1-0.6-0.1c-0.7,0-1.2,0.6-1.2,1.2c0,0.3,0.1,0.6,0.4,0.9l6.3,6.5
	c0.5,0.5,1.2,0.5,1.7,0l6.3-6.5c0.2-0.2,0.3-0.5,0.3-0.9c0-0.7-0.5-1.2-1.2-1.2c-0.2,0-0.4,0.1-0.6,0.1l-5.8,3.4L12.9,246.1z"/>
<path fill="#FFFFFF" d="M46.3,254.9c0.2,0.1,0.4,0.1,0.6,0.1c0.7,0,1.2-0.6,1.2-1.2c0-0.3-0.1-0.6-0.3-0.9l-6.3-6.5
	c-0.5-0.5-1.2-0.5-1.7,0l-6.3,6.5c-0.2,0.2-0.3,0.5-0.3,0.9c0,0.7,0.5,1.2,1.2,1.2c0.2,0,0.4-0.1,0.6-0.1l5.8-3.4L46.3,254.9z"/>
<g>
	<g>
		<path fill="#00B193" d="M12.6,275.3c0.5-1.1,1-2.2,1.7-3.2c0.3-0.5,0.7-0.9,1.2-1.3c0.4-0.3,1-0.8,1.5-0.5c0.5,0.2,0.4,1,0.4,1.5
			c-0.1,0.6-0.3,1.1-0.5,1.7c-0.6,1.4-1.6,2.7-2.6,3.9c-0.2,0.2-0.4,0.4-0.6,0.7c0,0.4-0.1,0.7-0.1,1.1c-0.2,1.2-0.6,2.3-1.4,3.3
			c-0.3,0.4-0.9,1-1.4,0.9c-0.6-0.1-0.6-1-0.6-1.4c0.1-0.6,0.2-1.2,0.4-1.7C11.5,278,12.4,275.9,12.6,275.3"/>
		<path fill="#00B193" d="M11.4,276.9c-0.6,2.1-1.9,5-3.7,6.3c-0.8,0.6-2,1-3,0.6c-1.1-0.4-1.4-1.6-1.2-2.7c0.2-1.2,0.8-2.2,1.6-3.1
			c0.3-0.3,0.9-0.8,1.4-1.1c0.8,0.5,1.9,1,2.7,1.3c-0.7-0.5-1.4-1.1-2-1.6c-0.6-0.8-1.7-2.2-2-3.4c-0.3-1.2-0.6-2.4-0.6-3.7
			c0-1.1,0.3-2.3,1-3.2c0.7-1,1.8-1.5,3-1.1c1.1,0.3,1.9,1.2,2.5,2.2c0.6,1,0.9,2.2,1,3.3C12.2,271.8,12.2,274.2,11.4,276.9
			L11.4,276.9z"/>
	</g>
</g>
<path fill="#B0C5D1" d="M15.8,151H6.5c-0.5,0-0.9,0.4-0.9,0.9v18.3c0,0.5,0.4,0.9,0.9,0.9h9.3c0.5,0,0.9-0.4,0.9-0.9v-18.3
	C16.6,151.4,16.3,151,15.8,151z M11.9,170.1h-1.5c-0.4,0-0.4-0.2-0.4-0.6s0.1-0.6,0.4-0.6h1.5c0.4,0,0.4,0.2,0.4,0.6
	C12.3,169.8,12.3,170.1,11.9,170.1z M15.3,168.2H6.9v-15.5h8.4V168.2L15.3,168.2z"/>
</svg>
