<?xml version="1.0" encoding="utf-8"?>
<!-- Generator: Adobe Illustrator 17.1.0, SVG Export Plug-In . SVG Version: 6.00 Build 0)  -->
<!DOCTYPE svg PUBLIC "-//W3C//DTD SVG 1.1 Tiny//EN" "http://www.w3.org/Graphics/SVG/1.1/DTD/svg11-tiny.dtd">
<svg version="1.1" baseProfile="tiny" xmlns="http://www.w3.org/2000/svg" xmlns:xlink="http://www.w3.org/1999/xlink" x="0px"
	 y="0px" width="40px" height="40px" viewBox="0 0 40 40" xml:space="preserve">
<g id="Layer_2">
	<rect x="8.6" y="8.6" fill="#FFFFFF" width="23.3" height="23.4"/>
</g>
<g id="Tail">
	<g>
		<path fill="none" d="M20.6,15.7c-0.3-0.1-0.5-0.1-0.8-0.1c-1.1,0-2.1,0.4-2.9,1.2c-1,1-1.4,2.4-1.1,3.7c0,0.1,0.1,0.2,0.2,0.3
			c0.1,0.1,0.3,0.2,0.4,0.2c0.2,0,0.3-0.1,0.4-0.2c0.1-0.1,0.2-0.3,0.2-0.4c0-0.9,0.4-1.8,1.1-2.5c0.7-0.7,1.5-1,2.5-1.1
			c0.2,0,0.3-0.1,0.4-0.2c0.1-0.1,0.2-0.3,0.2-0.4c0-0.2-0.1-0.3-0.2-0.4C20.8,15.8,20.7,15.8,20.6,15.7z"/>
		<path fill="#FE1252" d="M23.5,15.1c-1-0.7-2.3-1.1-3.5-1.1c-0.3,0-0.7,0-1,0.1c-1.6,0.3-3,1.1-3.9,2.5c-0.9,1.3-1.3,2.9-1.1,4.5
			c0.3,1.6,1.1,3,2.5,3.9c1,0.7,2.3,1.1,3.5,1.1c0.3,0,0.7,0,1-0.1c1.6-0.3,3-1.1,3.9-2.5c0.9-1.3,1.3-2.9,1.1-4.5
			C25.7,17.4,24.8,16,23.5,15.1z M20.9,16.8c-0.1,0.1-0.3,0.2-0.4,0.2c-0.9,0-1.8,0.4-2.5,1.1c-0.7,0.7-1,1.5-1.1,2.5
			c0,0.2-0.1,0.3-0.2,0.4c-0.1,0.1-0.3,0.2-0.4,0.2c-0.2,0-0.3-0.1-0.4-0.2c-0.1-0.1-0.2-0.2-0.2-0.3c-0.3-1.3,0.2-2.7,1.1-3.7
			c0.8-0.8,1.8-1.2,2.9-1.2c0.3,0,0.5,0,0.8,0.1c0.1,0,0.2,0.1,0.3,0.2c0.1,0.1,0.2,0.3,0.2,0.4C21.1,16.5,21,16.7,20.9,16.8z"/>
		<path fill="#FE1252" d="M38.6,23.4c0.2-1.1,0.3-2.2,0.3-3.4C38.9,9.6,30.4,1.1,20,1.1c-1.2,0-2.3,0.1-3.4,0.3
			C15,0.5,13.1,0,11.2,0C5,0,0,5,0,11.2c0,2,0.5,3.8,1.4,5.4c-0.2,1.1-0.3,2.2-0.3,3.4c0,10.4,8.5,18.9,18.9,18.9
			c1.2,0,2.3-0.1,3.4-0.3c1.6,0.9,3.5,1.4,5.4,1.4C35,40,40,35,40,28.8C40,26.9,39.5,25,38.6,23.4z M30.8,28
			c-0.1,0.2-0.2,0.4-0.4,0.6c-1.2,1.1-2.8,1.7-4.5,1.3c-0.4-0.1-0.8-0.2-1.2-0.4c-0.9,0.5-2,0.8-3,1c-0.6,0.1-1.2,0.1-1.7,0.1
			c-2.2,0-4.3-0.7-6.2-2c-2.3-1.6-3.8-4.1-4.3-6.9c-0.5-2.8,0.2-5.6,1.8-7.9c1.6-2.3,4.1-3.8,6.9-4.3c0.6-0.1,1.2-0.1,1.7-0.1
			c2.2,0,4.3,0.7,6.2,2c2.3,1.6,3.8,4.1,4.3,6.9c0.4,2.6-0.1,5.1-1.4,7.3l0,0c0.3,0.6,0.7,1,1.1,1.1C30.7,26.9,30.9,27.4,30.8,28z"
			/>
	</g>
</g>
</svg>
