<?xml version="1.0" encoding="utf-8"?>
<!-- Generator: Adobe Illustrator 17.1.0, SVG Export Plug-In . SVG Version: 6.00 Build 0)  -->
<!DOCTYPE svg PUBLIC "-//W3C//DTD SVG 1.1//EN" "http://www.w3.org/Graphics/SVG/1.1/DTD/svg11.dtd">
<svg version="1.1" id="Layer_1" xmlns="http://www.w3.org/2000/svg" xmlns:xlink="http://www.w3.org/1999/xlink" x="0px" y="0px"
	 width="250px" height="25px" viewBox="66 62 250 25" enable-background="new 66 62 250 25" xml:space="preserve">
<g opacity="0.8">
	<path fill="#FFFFFF" d="M67.5,69.7c-0.8,0-1.5,0.7-1.5,1.5v5.9c0,0.9,0.7,1.5,1.5,1.5c0.8,0,1.5-0.7,1.5-1.5v-5.9
		C69,70.4,68.3,69.7,67.5,69.7z"/>
	<path fill="#FFFFFF" d="M85.3,69.7c-0.8,0-1.5,0.7-1.5,1.5v5.9c0,0.9,0.7,1.5,1.5,1.5s1.5-0.7,1.5-1.5v-5.9
		C86.8,70.4,86.1,69.7,85.3,69.7z"/>
	<path fill="#FFFFFF" d="M69.9,80.7c0,0.7,0.5,1.2,1.2,1.2h1.3v3.4c0,0.9,0.7,1.5,1.5,1.5c0.8,0,1.5-0.7,1.5-1.5v-3.4h2.3v3.4
		c0,0.9,0.7,1.5,1.5,1.5s1.5-0.7,1.5-1.5v-3.4h1.3c0.6,0,1.2-0.5,1.2-1.2V69.8H69.9V80.7z"/>
	<path fill="#FFFFFF" d="M79.4,64.1l1.2-1.8c0.1-0.1,0.1-0.2,0-0.3c-0.1-0.1-0.2,0-0.3,0.1L79,64c-0.8-0.3-1.8-0.5-2.8-0.5
		s-1.9,0.2-2.8,0.5l-1.3-1.9C72.1,62,72,62,71.9,62c-0.1,0.1-0.1,0.2,0,0.3l1.2,1.8c-2,0.9-3.3,2.7-3.5,4.6h13.1
		C82.7,66.8,81.4,65,79.4,64.1z M73.6,67c-0.4,0-0.7-0.4-0.7-0.8c0-0.4,0.3-0.7,0.7-0.7s0.7,0.3,0.7,0.7C74.3,66.6,74,67,73.6,67z
		 M79.2,67c-0.4,0-0.7-0.3-0.7-0.7s0.3-0.7,0.7-0.7s0.7,0.3,0.7,0.7C79.9,66.6,79.6,67,79.2,67z"/>
</g>
<g opacity="0.8">
	<path fill="#FFFFFF" d="M132.6,75.4c0-3.2,2.5-4.6,2.6-4.7c-1.4-2.1-3.7-2.4-4.4-2.5c-1.9-0.2-3.7,1.2-4.6,1.2s-2.5-1.1-4.1-1.1
		c-2.1,0-4,1.2-5,3.1c-2.2,3.8-0.5,9.4,1.6,12.5c1,1.5,2.3,3.2,3.9,3.2c1.6-0.1,2.1-1,4-1c1.9,0,2.4,1,4.1,1s2.7-1.6,3.8-3.1
		c1.2-1.8,1.7-3.5,1.7-3.6C135.9,80.4,132.6,79.2,132.6,75.4z"/>
	<path fill="#FFFFFF" d="M129.7,66.2c0.9-1.1,1.4-2.5,1.3-4c-1.2,0.1-2.7,0.8-3.6,1.9c-0.7,0.9-1.4,2.4-1.2,3.9
		C127.5,68.1,129,67.2,129.7,66.2z"/>
</g>
<g opacity="0.8">
	<path fill="#FFFFFF" d="M240.8,83.5h-0.6H216c0,1.6,1.2,1.3,2.8,1.3h21.4h2.4h5.2c1.5,0,2.8,0.3,2.8-1.3H240.8z"/>
	<path fill="#FFFFFF" d="M220.4,82.7h25.4c1,0,1.8-0.8,1.8-1.9V65.9c0-1.1-0.9-1.9-1.8-1.9h-4.2h-1.3h-19.9c-1,0-1.8,0.8-1.8,1.9
		v14.9C218.7,81.8,219.5,82.7,220.4,82.7z M233.1,64.3c0.2,0,0.4,0.2,0.4,0.5c0,0.3-0.2,0.5-0.4,0.5s-0.4-0.2-0.4-0.5
		C232.7,64.5,232.9,64.3,233.1,64.3z M219.5,66.6c0-0.6,0.5-1.1,1.1-1.1h24.9c0.6,0,1.1,0.5,1.1,1.1v14c0,0.6-0.5,1.1-1.1,1.1h-24.9
		c-0.6,0-1.1-0.5-1.1-1.1V66.6z"/>
</g>
<path opacity="0.8" fill="#FFFFFF" d="M290.4,66.1c-3.7,0-4.4,2.4-8.3,2.4h-0.5h-0.4v-3.7c0-0.4-0.3-0.8-0.8-0.8
	c-0.4,0-0.8,0.3-0.8,0.8v3.7h-0.5h-0.6c-3.9,0-4.6-2.4-8.3-2.4s-4.2,3-4.2,6.6s0.3,12.1,4.1,12.1s3.2-9,5.7-9c1.1,0,2.3,0,3.4,0
	c1.4,0,2.5,0,2.5,0c1,0,2.3,0,3.4,0c2.5,0,1.9,9,5.7,9c3.8,0,4.1-8.4,4.1-12.1S294.2,66.1,290.4,66.1z M270.9,74.1
	c-1.4,0-2.5-1.1-2.5-2.5s1.1-2.5,2.5-2.5s2.5,1.1,2.5,2.5S272.3,74.1,270.9,74.1z M289.5,68.6c0.6,0,1.1,0.5,1.1,1.1
	c0,0.6-0.5,1.1-1.1,1.1s-1.1-0.5-1.1-1.1C288.4,69,288.9,68.6,289.5,68.6z M286.8,71.4c0-0.6,0.5-1.1,1.1-1.1s1.1,0.5,1.1,1.1
	c-0.1,0.6-0.5,1.1-1.1,1.1C287.1,72.5,286.8,72,286.8,71.4z M289.5,74.3c-0.6,0-1.1-0.5-1.1-1.1s0.5-1.1,1.1-1.1s1.1,0.5,1.1,1.1
	C290.6,73.9,290.1,74.3,289.5,74.3z M291.3,72.5c-0.6,0-1.1-0.5-1.1-1.1c0-0.6,0.5-1.1,1.1-1.1s1.1,0.5,1.1,1.1
	C292.4,72,291.9,72.5,291.3,72.5z"/>
<g opacity="0.8">
	<polygon opacity="0.8" fill="#FFFFFF" enable-background="new    " points="190.7,62.3 177.4,64.3 177.4,74.2 190.7,74 	"/>
	<polygon opacity="0.8" fill="#FFFFFF" enable-background="new    " points="166,75.1 166,83.5 176.2,84.9 176.1,75.2 	"/>
	<polygon opacity="0.8" fill="#FFFFFF" enable-background="new    " points="177.4,75.3 177.4,85.1 190.7,87 190.7,75.3 	"/>
	<polygon opacity="0.8" fill="#FFFFFF" enable-background="new    " points="166,65.8 166,74.2 176.2,74.2 176.2,64.4 	"/>
</g>
</svg>
