<?xml version="1.0" encoding="utf-8"?>
<!-- Generator: Adobe Illustrator 17.1.0, SVG Export Plug-In . SVG Version: 6.00 Build 0)  -->
<!DOCTYPE svg PUBLIC "-//W3C//DTD SVG 1.1//EN" "http://www.w3.org/Graphics/SVG/1.1/DTD/svg11.dtd">
<svg version="1.1" id="Isolation_Mode" xmlns="http://www.w3.org/2000/svg" xmlns:xlink="http://www.w3.org/1999/xlink" x="0px"
	 y="0px" viewBox="0 0 358 35" enable-background="new 0 0 358 35" xml:space="preserve">
<g>
	<path fill="#25ADE5" d="M42,22L42,22c0,0.6-0.3,1.1-0.8,1.4c-0.5,0.3-1.1,0.3-1.6,0l0,0L32,19.2v-7.5l7.4-4.3c0,0,0,0,0,0
		c0,0,0,0,0,0l0.1,0l0,0C40.4,7,41.3,7.2,41.8,8C41.9,8.2,42,8.5,42,8.8l0,0V22z M28.7,21.6V9.2c0-0.1,0-0.1,0-0.2
		c0-0.1,0-0.1,0-0.2c-0.1-1.8-1.4-3.2-3-3.6c-0.1,0-0.1,0-0.2,0c-3.3-0.5-6.7-0.8-10.1-0.8h-0.3C11.5,4.4,8,4.7,4.6,5.3
		c-0.2,0-0.4,0.1-0.6,0.1C2.9,5.7,1.9,6.5,1.4,7.6c0,0.1-0.1,0.2-0.1,0.3C0.5,10.3,0,12.8,0,15.4c0,2.6,0.4,5.1,1.3,7.4
		c0,0.2,0.1,0.3,0.2,0.5c0.5,1.1,1.5,1.9,2.7,2.2c0.1,0,0.1,0,0.2,0c3.5,0.6,7.1,0.9,10.8,0.9h0.3c3.5,0,6.9-0.3,10.2-0.9
		c0,0,0.1,0,0.1,0c1.7-0.4,3-1.8,3.1-3.6c0-0.1,0-0.1,0-0.2C28.7,21.7,28.7,21.6,28.7,21.6z"/>
</g>
<g>
	<g>
		<g>
			<g>
				<g>
					<path fill="#25ADE5" d="M79.3,29.4c-0.1-0.5-0.5-0.9-1-1.1c-0.6-0.2-1.3-0.5-1.9-0.6c-0.5-0.1-1.1-0.2-1.6-0.2
						c-1.7,0-3.2,0.7-4.3,1.7c-0.2,0.2-0.6,0.4-0.9,0.4c-0.4,0-0.7-0.1-0.9-0.4c0,0,0,0,0,0v0c0,0-0.1-0.1-0.1-0.1
						c-0.1-0.1-0.2-0.2-0.3-0.3c0,0,0,0,0,0c-0.9-0.7-2-1.2-3.2-1.3c-0.2,0-0.4,0-0.6,0c-0.6,0-1.1,0.1-1.6,0.2
						c-0.7,0.2-1.3,0.4-1.9,0.6c-0.5,0.2-0.9,0.6-1,1.1L59,32.6c0,0.1,0,0.1,0,0.2c0,0,0,0,0,0.1c0,0.1,0,0.1,0,0.2c0,0,0,0.1,0,0.1
						c0,0,0,0.1,0,0.1c0,0,0,0.1,0,0.1c0,0,0,0,0,0.1c0.2,0.3,0.4,0.6,0.8,0.7c0,0,0.1,0,0.1,0c3.1,0.6,6.3,0.9,9.6,0.9
						c3.3,0,6.5-0.3,9.6-0.9c0,0,0.1,0,0.1,0c0.7-0.2,1.1-0.8,0.9-1.5L79.3,29.4z"/>
				</g>
				<g>
					<path fill="#25ADE5" d="M69.6,26.7c1,0,1.9-0.4,2.6-1c1.6-1.5,2.6-3.5,2.6-5.8c0-0.7-0.1-1.3-0.3-1.9c-0.5-2.2-2.5-3.8-5-3.8
						c-2.4,0-4.4,1.6-5,3.8c-0.2,0.6-0.3,1.3-0.3,1.9c0,2.3,1,4.3,2.6,5.8C67.6,26.3,68.5,26.7,69.6,26.7z"/>
				</g>
				<g>
					<path fill="#25ADE5" d="M53.6,27c-0.7,0.2-1.4,0.4-2,0.7c-0.4,0.2-0.7,0.5-0.9,0.9l-0.6,2.1c-0.3,0.9,0.3,1.8,1.2,2.1
						c1.7,0.4,3.4,0.7,5.2,0.9c-0.1-0.5-0.1-1.1,0-1.7l0.9-3.2c0.1-0.4,0.3-0.7,0.5-1.1C56.6,26.9,55,26.6,53.6,27z"/>
				</g>
				<g>
					<path fill="#25ADE5" d="M59.6,25.9c0.9,0,1.8-0.4,2.4-0.9c0.3-0.2,0.5-0.5,0.8-0.8c-0.6-1.3-0.9-2.8-0.9-4.2
						c0-0.8,0.1-1.7,0.3-2.5c0.1-0.5,0.3-1,0.5-1.5c-0.8-0.8-1.9-1.2-3.1-1.2c-1.8,0-3.4,1-4,2.5c-0.4,0.9-0.7,1.8-0.7,2.8
						c0,1.9,0.9,3.7,2.3,4.9C57.8,25.5,58.6,25.9,59.6,25.9z"/>
				</g>
			</g>
		</g>
		<g>
			<g>
				<path fill="#25ADE5" d="M85.4,27.1c0.7,0.2,1.4,0.4,2,0.7c0.4,0.2,0.7,0.5,0.9,0.9l0.6,2.1c0.3,0.9-0.3,1.8-1.2,2.1
					c-1.7,0.4-3.4,0.7-5.2,0.9c0.1-0.5,0.1-1.1,0-1.7l-0.9-3.2c-0.1-0.4-0.3-0.7-0.5-1.1C82.4,27,84,26.7,85.4,27.1z"/>
			</g>
			<g>
				<path fill="#25ADE5" d="M79.4,26c-0.9,0-1.8-0.4-2.4-0.9c-0.3-0.2-0.5-0.5-0.8-0.8c0.6-1.3,0.9-2.8,0.9-4.2
					c0-0.8-0.1-1.7-0.3-2.5c-0.1-0.5-0.3-1-0.5-1.5c0.8-0.8,1.9-1.2,3.1-1.2c1.8,0,3.4,1,4,2.5c0.4,0.9,0.7,1.8,0.7,2.8
					c0,1.9-0.9,3.7-2.3,4.9C81.2,25.6,80.4,26,79.4,26z"/>
			</g>
		</g>
	</g>
	<g>
		<path fill="#25ADE5" d="M79,6.9L79,6.9c0,0.2-0.1,0.4-0.3,0.6c-0.2,0.1-0.4,0.1-0.6,0l0,0l-3.1-1.7V2.8l3-1.7c0,0,0,0,0,0
			c0,0,0,0,0,0l0,0l0,0c0.3-0.2,0.7,0,0.9,0.2C79,1.5,79,1.6,79,1.7l0,0V6.9z M73.6,6.7V1.9c0,0,0,0,0-0.1c0,0,0,0,0-0.1
			c0-0.7-0.6-1.3-1.2-1.4c0,0-0.1,0-0.1,0C70.9,0.1,69.6,0,68.2,0h-0.1c-1.5,0-2.9,0.1-4.3,0.4c-0.1,0-0.2,0-0.2,0
			c-0.5,0.1-0.9,0.4-1.1,0.9c0,0,0,0.1,0,0.1c-0.3,0.9-0.5,1.9-0.5,2.9c0,1,0.2,2,0.5,2.9c0,0.1,0,0.1,0.1,0.2
			c0.2,0.4,0.6,0.8,1.1,0.9c0,0,0.1,0,0.1,0c1.4,0.2,2.9,0.4,4.4,0.4h0.1c1.4,0,2.8-0.1,4.1-0.3c0,0,0,0,0,0
			c0.7-0.1,1.2-0.7,1.2-1.4C73.6,6.8,73.6,6.8,73.6,6.7C73.6,6.8,73.6,6.7,73.6,6.7z"/>
	</g>
</g>
<path fill="#25ADE5" d="M127.9,25.1c-0.2-1.1-1-2-2.2-2.3l-4.9-1.3c-1.6-0.4-3.3,0.5-3.7,2.1l-0.1,0.4c-2.2-0.7-4.3-1.9-6.1-3.7
	c-1.8-1.8-3-3.9-3.7-6.1l0.4-0.1c1.6-0.4,2.6-2.1,2.1-3.7l-1.3-4.9c-0.3-1.1-1.2-1.9-2.3-2.2c-0.9-0.2-1.8-0.2-2.7,0.1
	c-1,0.3-1.8,0.8-2.5,1.4C100.3,5.2,100,6,100,6.8l0,0.1c0,6.2,2.3,12.4,7.1,17.2l0,0c4.7,4.7,11,7.1,17.2,7.1l0.1,0
	c0.8,0,1.5-0.3,2.1-0.8c0.7-0.7,1.1-1.5,1.4-2.5C128.1,26.9,128.1,25.9,127.9,25.1z"/>
<path fill="#25ADE5" d="M183.4,8.1c-0.9-3.8-4.1-6.7-8.1-7.4C172.7,0.2,169.9,0,167,0c-2.9,0-5.7,0.2-8.4,0.7
	c-4,0.7-7.2,3.6-8.1,7.4c-0.4,1.3-0.6,2.7-0.6,4.1v0c0,1.4,0.2,2.8,0.6,4.1c0.9,3.8,4.1,6.7,8.1,7.4c2.7,0.5,5.5,0.4,8.4,0.4v4.6
	c0,0.7,0.6,1.2,1.3,1.2c0.3,0,0.6-0.1,0.8-0.3l0,0l10.2-7.5c2.1-1.4,3.6-3.4,4.2-5.9c0.4-1.3,0.6-2.7,0.6-4.1v0
	C184,10.8,183.8,9.4,183.4,8.1z M170.4,16.1h-11c-0.7,0-1.3-0.5-1.3-1.2c0-0.7,0.6-1.2,1.3-1.2h11c0.7,0,1.3,0.5,1.3,1.2
	C171.7,15.6,171.1,16.1,170.4,16.1z M174.6,10.8h-15.3c-0.7,0-1.3-0.5-1.3-1.2c0-0.7,0.6-1.2,1.3-1.2h15.3c0.7,0,1.3,0.5,1.3,1.2
	C175.9,10.3,175.4,10.8,174.6,10.8z"/>
<g>
	<path fill="#25ADE5" d="M220.7,15.4V22c0,0.6-0.4,1-1,1c-0.4,0-0.8-0.3-0.9-0.6c-0.3-0.7-0.6-1.4-1-2.1l-4.4,3.4
		c-0.5,0.3-1.2,0.2-1.6-0.2c-0.4-0.4-0.5-1.1-0.2-1.6l3.3-4.5c-0.6-0.4-1.3-0.8-2-1c-0.4-0.1-0.6-0.5-0.6-0.9c0-0.6,0.4-1,1-1h6.5
		C220.2,14.4,220.7,14.8,220.7,15.4z M223.5,13.4c0-0.9-0.6-1.7-1.5-1.9c-3.3-0.7-6.7-1-10.2-1c-3.5,0-6.9,0.3-10.2,1
		c-0.9,0.2-1.5,1-1.5,1.9v12.5c0,0.9,0.6,1.7,1.5,1.9c3.3,0.7,6.7,1,10.2,1c3.5,0,6.9-0.3,10.2-1c0.9-0.2,1.5-1,1.5-1.9L223.5,13.4
		L223.5,13.4z M231,5.7c0-0.9-0.6-1.7-1.5-1.9c-3.3-0.7-6.7-1-10.2-1s-6.9,0.3-10.2,1c-0.9,0.2-1.5,1-1.5,1.9v2.1
		c1.4-0.1,2.8-0.2,4.2-0.2c3.6,0,7.2,0.4,10.8,1.1c2.2,0.5,3.8,2.4,3.8,4.7l0,0.1v7.2c1.1-0.1,2.1-0.3,3.2-0.5
		c0.9-0.2,1.5-1,1.5-1.9L231,5.7L231,5.7z"/>
</g>
<path fill="#25ADE5" d="M265.9,17.7c0.5,0.4,0.5,1.2,0,1.6l-5.5,5.4c-0.5,0.5-1.2,0.4-1.7,0l-5.5-5.4c-0.5-0.5-0.5-1.2,0-1.6
	c0.4-0.3,0.9-0.4,1.3-0.2c0.8,0.4,1.7,0.7,2.6,0.8l0.9-3.3c0.2-0.7,0.8-1.1,1.5-1.1c0.7,0,1.3,0.5,1.5,1.1l0.9,3.3
	c0.9-0.2,1.8-0.5,2.6-0.8C265,17.3,265.5,17.4,265.9,17.7z M269,12.6c0-0.7-0.5-1.3-1.1-1.5c-1.3-0.4-2.7-0.6-4.2-0.6
	c-0.9,0-1.6-0.7-1.6-1.5c0,0,0-0.1,0-0.1c0.1-0.5,0.1-0.9,0.1-1.4c0-1.1-0.2-2.1-0.5-3.1h0c-0.2-0.6-0.8-1-1.5-1l0,0
	c-0.2,0-0.5,0-0.7,0c-2.8,0-5.6,0.3-8.2,0.7c-0.7,0.1-1.3,0.8-1.3,1.5l0,21.5c0,0.7,0.6,1.4,1.3,1.5c2.7,0.5,5.4,0.7,8.2,0.7
	c2.8,0,5.6-0.3,8.2-0.7c0.7-0.1,1.3-0.8,1.3-1.5V12.6z"/>
<g>
	<g>
		<g>
			<path fill="#25ADE5" d="M336.9,10.1L336.9,10.1c-4.6-4.6-11-7.4-18-7.4h0c-7,0-13.4,2.8-17.9,7.3l-0.1,0.1
				c-0.6,0.6-0.9,1.3-0.9,2.1c0,1,0.3,1.9,0.8,2.8c0.5,0.9,1.2,1.5,2,2c1,0.6,2.2,0.7,3.3,0.1l4.6-2.6c1.5-0.9,2-2.8,1.2-4.2
				l-0.2-0.4c2.2-1.1,4.7-1.7,7.3-1.8c2.6,0,5.1,0.6,7.3,1.8l-0.2,0.4c-0.9,1.5-0.4,3.4,1.2,4.2l4.6,2.6c1.1,0.6,2.3,0.5,3.3-0.1
				c0.8-0.5,1.5-1.2,2-2c0.5-0.9,0.8-1.9,0.8-2.8C337.8,11.4,337.5,10.6,336.9,10.1z"/>
		</g>
		<g>
			<path fill="#25ADE5" d="M334.1,27l-0.6-4.4c0,0,0,0,0,0c-0.1-0.5-0.4-1-0.9-1.2l-2.9-1.7l-4.4-2.5c-1.9-1.1-2.9-3.1-2.8-5.1
				c-1.2-0.4-2.5-0.6-3.7-0.6h0c0,0,0,0,0,0h0c-1.3,0-2.5,0.2-3.7,0.6c0.1,2-0.9,4-2.8,5.1l-4.4,2.5l-2.9,1.7
				c-0.5,0.2-0.8,0.7-0.9,1.2c0,0,0,0,0,0l-0.6,4.4c-0.1,0.8,0.5,1.5,1.2,1.8c0.2,0.1,0.5,0.2,0.9,0.3c4.3,0.9,8.6,1.2,13.1,1.2h0
				c0,0,0,0,0,0h0c4.5,0,8.8-0.4,13.1-1.2c0.3-0.1,0.6-0.2,0.9-0.3C333.6,28.6,334.3,27.8,334.1,27z M318.9,25.4
				c-1.7,0-3.2-1.4-3.2-3.1c0-1.7,1.4-3.1,3.2-3.1c1.7,0,3.2,1.4,3.2,3.1C322.1,24,320.7,25.4,318.9,25.4z"/>
		</g>
	</g>
	<path fill-rule="evenodd" clip-rule="evenodd" fill="#25ADE5" d="M343.7,21.5V6.7c1.9-0.1,3.9-0.2,5.8-0.2c2,0,3.9,0.1,5.8,0.2
		v14.8H343.7z M351.6,26.1c0,1.1-0.9,2-2,2c-1.1,0-2-0.9-2-2c0-1.1,0.9-2,2-2C350.7,24.1,351.6,25,351.6,26.1z M358,13.1V6.4
		c0-1.2-0.8-2.3-1.9-2.7c-0.9-0.3-1.8-0.6-2.8-0.7c-1.2-0.2-2.4-0.3-3.7-0.3c-1.3,0-2.5,0.1-3.7,0.3c-1,0.2-1.9,0.4-2.8,0.7
		c-1.1,0.4-1.9,1.5-1.9,2.7v18.3c0,2.7,2.6,5,6.1,5.7c0.7,0.2,1.5,0.2,2.3,0.2c0.8,0,1.6-0.1,2.3-0.2c3.5-0.7,6.1-3,6.1-5.7V13.1z"
		/>
</g>
</svg>
