<?xml version="1.0" encoding="utf-8"?>
<!-- Generator: Adobe Illustrator 16.0.3, SVG Export Plug-In . SVG Version: 6.00 Build 0)  -->
<!DOCTYPE svg PUBLIC "-//W3C//DTD SVG 1.1//EN" "http://www.w3.org/Graphics/SVG/1.1/DTD/svg11.dtd" [
	<!ENTITY ns_extend "http://ns.adobe.com/Extensibility/1.0/">
	<!ENTITY ns_ai "http://ns.adobe.com/AdobeIllustrator/10.0/">
	<!ENTITY ns_graphs "http://ns.adobe.com/Graphs/1.0/">
	<!ENTITY ns_vars "http://ns.adobe.com/Variables/1.0/">
	<!ENTITY ns_imrep "http://ns.adobe.com/ImageReplacement/1.0/">
	<!ENTITY ns_sfw "http://ns.adobe.com/SaveForWeb/1.0/">
	<!ENTITY ns_custom "http://ns.adobe.com/GenericCustomNamespace/1.0/">
	<!ENTITY ns_adobe_xpath "http://ns.adobe.com/XPath/1.0/">
]>
<svg version="1.1" id="Layer_1" xmlns:x="&ns_extend;" xmlns:i="&ns_ai;" xmlns:graph="&ns_graphs;"
	 xmlns="http://www.w3.org/2000/svg" xmlns:xlink="http://www.w3.org/1999/xlink" x="0px" y="0px" width="640px" height="480px"
	 viewBox="0 0 640 480" enable-background="new 0 0 640 480" xml:space="preserve">
<metadata>
	<sfw  xmlns="&ns_sfw;">
		<slices></slices>
		<sliceSourceBounds  height="320.578" width="409.803" y="158.922" x="0.5" bottomLeftOrigin="true"></sliceSourceBounds>
		<optimizationSettings>
			<targetSettings  fileFormat="PNG24Format" targetSettingsID="0">
				<PNG24Format  transparency="true" filtered="false" matteColor="#FFFFFF" noMatteColor="false" interlaced="false">
					</PNG24Format>
			</targetSettings>
		</optimizationSettings>
	</sfw>
</metadata>
<g>
	<path fill="#2CADE3" d="M33.439,1C15.548,1,1,15.548,1,33.439C1,51.33,15.548,65.878,33.439,65.878
		c17.891,0,32.439-14.548,32.439-32.439C65.78,15.548,51.33,1,33.439,1z"/>
	<path fill="#FFFFFF" d="M46.513,32.456c0-0.492-0.394-0.983-0.885-1.081l0,0l-1.474-0.393c-1.278-0.394-2.064-1.671-1.671-2.949
		c0.098-0.197,0.098-0.393,0.295-0.59l0.787-1.278l0,0c0.295-0.492,0.196-0.983-0.099-1.376c-0.196-0.196-0.393-0.491-0.59-0.688
		c-0.196-0.196-0.393-0.393-0.688-0.59c-0.393-0.295-0.983-0.393-1.376-0.098l-1.278,0.786c-0.197,0.099-0.393,0.197-0.59,0.295
		c-1.278,0.394-2.654-0.393-2.949-1.671l-0.393-1.475l0,0c-0.099-0.492-0.59-0.885-1.082-0.885c-0.295,0-0.59,0-0.885,0
		s-0.59,0-0.885,0c-0.492,0-0.983,0.393-1.081,0.885l0,0l-0.59,1.278c-0.393,1.278-1.671,2.064-2.949,1.671
		c-0.197-0.099-0.393-0.099-0.59-0.295l-1.278-0.787c-0.492-0.295-0.983-0.196-1.376,0.099c-0.197,0.196-0.492,0.393-0.688,0.59
		c-0.197,0.196-0.394,0.393-0.59,0.688c-0.295,0.393-0.394,0.983-0.099,1.376l0,0l0.787,1.278c0.098,0.197,0.196,0.394,0.295,0.59
		c0.393,1.278-0.393,2.654-1.671,2.949l-1.475,0.393l0,0c-0.491,0.099-0.885,0.59-0.885,1.081c0,0.295,0,0.59,0,0.885
		s0,0.59,0,0.885c0,0.492,0.394,0.983,0.885,1.082l0,0l1.475,0.393c1.278,0.394,2.064,1.671,1.671,2.949
		c-0.099,0.196-0.099,0.393-0.295,0.59l-0.983,1.573l0,0c-0.295,0.492-0.197,0.983,0.098,1.376c0.197,0.196,0.393,0.491,0.59,0.688
		s0.393,0.393,0.688,0.59c0.393,0.295,0.983,0.393,1.376,0.098l1.278-0.786c0.197-0.099,0.394-0.197,0.59-0.295
		c1.278-0.394,2.654,0.393,2.949,1.671l0.394,1.474l0,0c0.098,0.492,0.589,0.885,1.081,0.885c0.295,0,0.59,0,0.885,0s0.59,0,0.885,0
		c0.491,0,0.983-0.393,1.081-0.885l0,0l0.394-1.474c0.393-1.278,1.671-2.064,2.949-1.671c0.197,0.098,0.393,0.098,0.59,0.295
		l1.278,0.786c0.492,0.295,0.983,0.197,1.376-0.098c0.196-0.197,0.491-0.393,0.688-0.59s0.393-0.393,0.59-0.688
		c0.295-0.394,0.393-0.983,0.098-1.376l0,0l-0.491-1.278c-0.099-0.196-0.197-0.393-0.295-0.589
		c-0.394-1.278,0.393-2.654,1.671-2.949l1.475-0.393l0,0c0.491-0.098,0.884-0.59,0.884-1.082c0-0.295,0-0.59,0-0.885
		C46.611,33.144,46.611,32.751,46.513,32.456z M33.439,38.256c-2.654,0-4.816-2.163-4.816-4.817c0-2.654,2.163-4.816,4.816-4.816
		c2.654,0,4.817,2.163,4.817,4.816C38.256,36.093,36.093,38.256,33.439,38.256z"/>
</g>
<g>
	<circle fill="#696868" cx="102.25" cy="33.439" r="25.951"/>
	<circle fill="#2CADE3" cx="102.25" cy="33.439" r="32.439"/>
	<path fill="#FFFFFF" d="M115.226,40.91c-0.197-0.983-0.983-1.868-2.064-2.163l-4.62-1.18c-1.475-0.393-3.047,0.491-3.44,1.966
		l-0.099,0.393c-2.064-0.688-4.03-1.868-5.701-3.44c-1.671-1.671-2.851-3.638-3.44-5.702l0.393-0.098
		c1.475-0.394,2.359-1.966,1.966-3.441l-1.179-4.62c-0.295-1.081-1.18-1.868-2.163-2.064c-0.787-0.196-1.671-0.196-2.556,0
		c-0.885,0.197-1.671,0.688-2.359,1.278c-0.492,0.491-0.787,1.18-0.787,1.966v0.099c0,5.8,2.163,11.698,6.586,16.121l0,0
		c4.423,4.423,10.321,6.685,16.121,6.586h0.098c0.688,0,1.376-0.295,1.966-0.786c0.59-0.59,1.081-1.376,1.278-2.359
		C115.422,42.582,115.422,41.697,115.226,40.91z"/>
</g>
<g>
	<circle fill="#2CADE3" cx="171.159" cy="32.456" r="31.456"/>
	<g>
		<path fill="#FFFFFF" d="M185.117,26.755c0.59-0.295,1.278-0.099,1.573,0.491c0.099,0.197,0.197,0.394,0.197,0.59l0,0v9.241l0,0
			c0,0.393-0.197,0.884-0.59,1.081c-0.393,0.196-0.787,0.196-1.18,0l0,0l-6.095-2.556v-6.39 M177.057,37.273V27.64v-0.099v-0.098
			c-0.098-1.376-0.983-2.458-2.261-2.752c-0.688-0.098-1.671-0.098-3.637-0.098c-0.491,0-7.667,0-7.864,0
			c-3.933,0-4.719,0.098-4.817,0.098c-0.885,0.197-1.573,0.885-1.966,1.671c0,0.099-0.099,0.197-0.099,0.197
			c-0.688,1.77-0.983,3.834-0.983,5.8s0.295,3.932,0.983,5.701c0,0.099,0.099,0.197,0.099,0.394
			c0.393,0.884,1.081,1.475,2.064,1.671c-0.295,0,0.786,0.099,4.719,0.099c2.654,0,5.406,0,7.864,0c2.261,0,3.244,0,3.637,0
			c1.278-0.197,2.261-1.376,2.261-2.654c0-0.098,0-0.098,0-0.196C177.057,37.372,177.057,37.372,177.057,37.273z"/>
	</g>
</g>
<g>
	<path fill="#2CADE3" d="M240.068,1c-17.891,0-32.439,14.548-32.439,32.439c0,17.891,14.548,32.439,32.439,32.439
		c17.891,0,32.439-14.548,32.439-32.439C272.409,15.548,257.958,1,240.068,1z"/>
	<path fill="#FFFFFF" d="M249.701,30.392c-0.688-0.099-1.278-0.295-1.966-0.393V25.28c0-4.227-3.44-7.667-7.667-7.667
		s-7.667,3.44-7.667,7.667v4.719c-0.688,0.098-1.278,0.196-1.966,0.393c-0.688,0.196-1.278,0.786-1.278,1.572v10.617
		c0,0.786,0.492,1.376,1.278,1.572c3.146,0.688,6.389,1.082,9.634,1.082l0,0c3.342,0,6.586-0.393,9.633-1.082
		c0.688-0.196,1.277-0.786,1.277-1.572V31.964C250.979,31.178,250.389,30.49,249.701,30.392z M241.05,37.666l0.688,2.752
		c0.197,0.688-0.197,1.278-0.885,1.475h-0.098c-0.197,0-0.492,0-0.688,0c-0.295,0-0.491,0-0.688,0h-0.099
		c-0.688-0.196-1.081-0.885-0.884-1.475l0.688-2.752c-0.885-0.393-1.475-1.179-1.475-2.261c0-1.376,1.082-2.458,2.458-2.458
		c1.376,0,2.458,1.081,2.458,2.458C242.427,36.388,241.837,37.273,241.05,37.666z M244.491,29.507
		c-1.474-0.098-2.949-0.197-4.423-0.197l0,0c-1.475,0-2.949,0.099-4.424,0.197V25.28c0-2.458,1.966-4.424,4.424-4.424
		c2.458,0,4.423,1.966,4.423,4.424V29.507z"/>
</g>
<g>
	<g>
		<circle fill="#2CADE3" cx="308.878" cy="33.439" r="32.439"/>
	</g>
	<path fill="#FFFFFF" d="M324.607,28.229c-0.885-3.736-3.934-6.685-7.668-7.373c-2.556-0.491-5.21-0.688-7.963-0.688
		c-2.752,0-5.406,0.197-7.962,0.688c-3.833,0.688-6.88,3.637-7.667,7.373c-0.393,1.278-0.491,2.654-0.491,4.128l0,0
		c0,1.376,0.196,2.752,0.491,4.129c0.885,3.735,3.933,6.685,7.667,7.372c2.556,0.492,5.21,0.394,7.962,0.394v4.522
		c0,0.688,0.59,1.179,1.18,1.179c0.295,0,0.492-0.098,0.688-0.294l0,0l9.634-7.373c1.965-1.376,3.44-3.441,4.03-5.8
		c0.295-1.278,0.492-2.654,0.492-4.129l0,0C325.098,30.883,324.902,29.507,324.607,28.229z M312.122,36.192h-10.519
		c-0.688,0-1.18-0.59-1.18-1.18c0-0.688,0.59-1.18,1.18-1.18h10.519c0.688,0,1.18,0.59,1.18,1.18
		C313.4,35.602,312.811,36.192,312.122,36.192z M316.152,30.883h-14.549c-0.688,0-1.18-0.59-1.18-1.179c0-0.688,0.59-1.18,1.18-1.18
		h14.549c0.688,0,1.18,0.59,1.18,1.18C317.43,30.293,316.841,30.883,316.152,30.883z"/>
</g>
<g>
	<path fill="#2CADE3" d="M377.787,1c-17.891,0-32.439,14.548-32.439,32.439c0,17.891,14.549,32.439,32.439,32.439
		s32.439-14.548,32.439-32.439C410.227,15.548,395.678,1,377.787,1z"/>
	<path fill="#FFFFFF" d="M374.15,23.806c0-1.77,1.475-3.244,3.244-3.244s3.244,1.475,3.244,3.244s-1.475,3.244-3.244,3.244
		S374.15,25.575,374.15,23.806z M382.014,42.188c-0.785-0.098-1.277-0.786-1.18-1.573l0.492-6.292
		c0.197-2.556-1.672-4.62-4.227-4.62c-1.672,0-3.244,0.884-4.129,2.26c-0.1,0.197-0.197,0.394-0.197,0.59
		c0,0.59,0.295,1.082,0.885,1.18c0.787,0.099,1.277,0.787,1.18,1.573l-0.492,6.291c-0.195,2.556,1.672,4.62,4.229,4.62
		c1.67,0,3.242-0.885,4.127-2.261c0.1-0.197,0.197-0.393,0.197-0.59C382.996,42.778,382.604,42.287,382.014,42.188z"/>
</g>
<g>
	<path fill="#2CADE3" d="M33.485,70.752C15.569,70.752,1,85.321,1,103.236c0,17.916,14.569,32.485,32.485,32.485
		s32.485-14.569,32.485-32.485C65.871,85.222,51.401,70.752,33.485,70.752z"/>
	<path fill="#FFFFFF" d="M46.578,102.252c0-0.492-0.395-0.984-0.886-1.083l0,0l-1.477-0.394c-1.28-0.394-2.067-1.674-1.673-2.954
		c0.098-0.197,0.098-0.394,0.295-0.59l0.788-1.28l0,0c0.295-0.492,0.197-0.984-0.098-1.378c-0.197-0.197-0.394-0.492-0.591-0.689
		c-0.197-0.197-0.394-0.394-0.689-0.59c-0.394-0.295-0.984-0.394-1.378-0.099l-1.28,0.788c-0.197,0.099-0.394,0.197-0.59,0.295
		c-1.28,0.394-2.658-0.394-2.953-1.673l-0.394-1.477l0,0c-0.099-0.492-0.591-0.886-1.083-0.886c-0.295,0-0.591,0-0.886,0
		c-0.296,0-0.591,0-0.886,0c-0.493,0-0.984,0.394-1.083,0.886l0,0l-0.394,1.477c-0.394,1.28-1.673,2.067-2.953,1.673
		c-0.197-0.098-0.394-0.098-0.591-0.295l-1.28-0.788c-0.492-0.295-0.984-0.197-1.378,0.099c-0.197,0.197-0.493,0.394-0.689,0.59
		c-0.197,0.197-0.394,0.394-0.591,0.689c-0.295,0.394-0.394,0.984-0.099,1.378l0,0l0.788,1.28c0.098,0.197,0.197,0.394,0.295,0.59
		c0.394,1.28-0.394,2.658-1.673,2.954l-1.477,0.394l0,0c-0.493,0.099-0.886,0.591-0.886,1.083c0,0.295,0,0.591,0,0.886
		s0,0.591,0,0.886c0,0.492,0.393,0.984,0.886,1.083l0,0l1.477,0.394c1.28,0.394,2.067,1.674,1.673,2.954
		c-0.099,0.197-0.099,0.394-0.295,0.59l-0.788,1.28l0,0c-0.295,0.492-0.197,0.984,0.099,1.378c0.197,0.197,0.394,0.492,0.591,0.689
		c0.196,0.197,0.394,0.394,0.689,0.591c0.394,0.295,0.984,0.394,1.378,0.098l1.28-0.788c0.197-0.098,0.394-0.197,0.591-0.295
		c1.28-0.394,2.658,0.394,2.953,1.674l0.394,1.477l0,0c0.098,0.492,0.59,0.886,1.083,0.886c0.295,0,0.59,0,0.886,0
		c0.295,0,0.59,0,0.886,0c0.492,0,0.984-0.394,1.083-0.886l0,0l0.394-1.477c0.394-1.28,1.673-2.067,2.953-1.674
		c0.197,0.099,0.394,0.099,0.59,0.295l1.28,0.788c0.493,0.295,0.985,0.197,1.378-0.098c0.197-0.197,0.492-0.394,0.689-0.591
		s0.394-0.394,0.591-0.689c0.295-0.394,0.394-0.985,0.098-1.378l0,0l-0.788-1.28c-0.098-0.197-0.197-0.394-0.295-0.59
		c-0.394-1.28,0.394-2.658,1.673-2.954l1.477-0.394l0,0c0.492-0.099,0.886-0.591,0.886-1.083c0-0.295,0-0.591,0-0.886
		C46.676,102.843,46.676,102.547,46.578,102.252z M33.485,108.061c-2.658,0-4.824-2.166-4.824-4.824
		c0-2.658,2.166-4.823,4.824-4.823c2.658,0,4.824,2.166,4.824,4.823C38.309,105.895,36.143,108.061,33.485,108.061z"/>
</g>
<g>
	<circle fill="#696868" cx="102.393" cy="103.237" r="25.988"/>
	<circle fill="#2CADE3" cx="102.393" cy="103.237" r="32.485"/>
	<path fill="#FFFFFF" d="M89.398,110.718c0.197-0.984,0.984-1.87,2.067-2.166l4.626-1.181c1.477-0.394,3.052,0.492,3.445,1.969
		l0.099,0.394c2.067-0.689,4.036-1.871,5.709-3.446c1.673-1.673,2.854-3.642,3.445-5.709l-0.394-0.099
		c-1.477-0.393-2.362-1.969-1.969-3.445l1.181-4.626c0.295-1.083,1.181-1.871,2.166-2.067c0.788-0.197,1.673-0.197,2.559,0
		c0.886,0.196,1.674,0.688,2.363,1.279c0.492,0.492,0.788,1.181,0.788,1.969v0.098c0,5.808-2.165,11.714-6.595,16.144l0,0
		c-4.43,4.43-10.336,6.694-16.145,6.595h-0.098c-0.689,0-1.378-0.295-1.969-0.787c-0.591-0.591-1.083-1.378-1.28-2.363
		C89.202,112.392,89.202,111.506,89.398,110.718z"/>
</g>
<g>
	<circle fill="#2CADE3" cx="171.398" cy="102.252" r="31.5"/>
	<g>
		<path fill="#FFFFFF" d="M163.523,99.102v6.398l-6.104,2.56l0,0c-0.393,0.196-0.787,0.196-1.181,0
			c-0.394-0.197-0.59-0.689-0.59-1.083l0,0v-9.253l0,0c0-0.197,0-0.394,0.196-0.59c0.296-0.591,1.083-0.788,1.575-0.493
			 M165.492,107.174c0,0.098,0,0.098,0,0.197c0.099,1.378,0.985,2.56,2.265,2.658c0.394,0,1.378,0,3.642,0c2.461,0,5.217,0,7.875,0
			c3.938,0,5.119-0.098,4.725-0.098c0.886-0.197,1.673-0.788,2.067-1.674c0.099-0.099,0.099-0.196,0.099-0.394
			c0.59-1.772,0.984-3.741,0.984-5.709s-0.394-4.036-0.984-5.808c0-0.098-0.099-0.197-0.099-0.197
			c-0.394-0.788-1.083-1.477-1.969-1.673c-0.098,0-0.886-0.099-4.823-0.099c-0.296,0-7.383,0-7.875,0c-1.968,0-2.953,0-3.642,0.099
			c-1.279,0.295-2.265,1.378-2.265,2.756v0.098v0.099v9.646V107.174z"/>
	</g>
</g>
<g>
	<path fill="#2CADE3" d="M240.405,70.752c-17.917,0-32.485,14.569-32.485,32.484c0,17.916,14.568,32.485,32.485,32.485
		c17.916,0,32.485-14.569,32.485-32.485C272.792,85.222,258.321,70.752,240.405,70.752z"/>
	<path fill="#FFFFFF" d="M250.052,100.185c-0.689-0.098-1.279-0.295-1.968-0.394v-4.725c0-4.233-3.446-7.678-7.679-7.678
		s-7.678,3.445-7.678,7.678v4.725c-0.689,0.098-1.28,0.196-1.969,0.394c-0.689,0.197-1.28,0.788-1.28,1.575v10.631
		c0,0.788,0.493,1.378,1.28,1.575c3.15,0.689,6.398,1.083,9.647,1.083l0,0c3.347,0,6.596-0.394,9.647-1.083
		c0.688-0.196,1.279-0.787,1.279-1.575V101.76C251.331,100.973,250.74,100.284,250.052,100.185z M241.389,107.371l0.689,2.756
		c0.197,0.689-0.197,1.28-0.886,1.477h-0.098c-0.198,0-0.493,0-0.689,0c-0.296,0-0.492,0-0.689,0h-0.099
		c-0.689-0.197-1.083-0.886-0.886-1.477l0.689-2.756c-0.886-0.394-1.476-1.182-1.476-2.264c0-1.378,1.083-2.461,2.461-2.461
		c1.378,0,2.461,1.083,2.461,2.461C242.768,106.189,242.177,107.075,241.389,107.371z M244.834,99.299
		c-1.476-0.099-2.953-0.197-4.429-0.197l0,0c-1.477,0-2.953,0.099-4.43,0.197v-4.233c0-2.461,1.969-4.43,4.43-4.43
		c2.461,0,4.429,1.969,4.429,4.43V99.299z"/>
</g>
<g>
	<g>
		<circle fill="#2CADE3" cx="309.313" cy="103.138" r="32.485"/>
	</g>
	<path fill="#FFFFFF" d="M293.07,102.055L293.07,102.055c0,1.378,0.197,2.757,0.492,4.134c0.59,2.461,2.067,4.528,4.036,5.808
		l9.647,7.383l0,0c0.197,0.197,0.492,0.295,0.689,0.295c0.688,0,1.181-0.591,1.181-1.181v-4.528c2.756,0,5.414,0.099,7.974-0.394
		c3.838-0.689,6.889-3.642,7.678-7.383c0.393-1.279,0.492-2.658,0.492-4.134l0,0c0-1.378-0.197-2.756-0.492-4.134
		c-0.887-3.741-3.938-6.694-7.678-7.383c-2.56-0.492-5.218-0.688-7.974-0.688c-2.756,0-5.414,0.196-7.974,0.688
		c-3.839,0.689-6.792,3.643-7.678,7.383C293.267,99.299,293.07,100.677,293.07,102.055z M304.883,104.713
		c0-0.689,0.59-1.181,1.181-1.181h10.533c0.689,0,1.182,0.591,1.182,1.181c0,0.689-0.591,1.182-1.182,1.182h-10.533
		C305.375,105.895,304.883,105.402,304.883,104.713z M300.846,99.496c0-0.689,0.59-1.182,1.181-1.182h14.569
		c0.689,0,1.182,0.591,1.182,1.182c0,0.689-0.591,1.181-1.182,1.181h-14.569C301.338,100.677,300.846,100.087,300.846,99.496z"/>
</g>
<g>
	<path fill="#2CADE3" d="M378.318,70.752c-17.916,0-32.486,14.569-32.486,32.484c0,17.916,14.57,32.485,32.486,32.485
		s32.484-14.569,32.484-32.485C410.803,85.222,396.234,70.752,378.318,70.752z"/>
	<path fill="#FFFFFF" d="M374.676,93.59c0-1.772,1.477-3.249,3.248-3.249s3.25,1.477,3.25,3.249c0,1.771-1.479,3.248-3.25,3.248
		S374.676,95.361,374.676,93.59z M382.551,111.998c-0.787-0.098-1.279-0.788-1.182-1.575l0.492-6.3
		c0.197-2.56-1.672-4.626-4.232-4.626c-1.674,0-3.248,0.886-4.135,2.264c-0.098,0.196-0.195,0.394-0.195,0.59
		c0,0.59,0.295,1.083,0.885,1.181c0.787,0.099,1.279,0.788,1.182,1.575l-0.492,6.3c-0.197,2.559,1.674,4.626,4.232,4.626
		c1.674,0,3.25-0.886,4.135-2.264c0.1-0.197,0.197-0.394,0.197-0.591C383.535,112.588,383.141,112.096,382.551,111.998z"/>
</g>
<g>
	<path fill="#2CADE3" d="M25.06,142.076c-13.074,0-23.563,10.945-23.563,24.322c0,13.53,10.489,24.324,23.563,24.324
		c13.073,0,23.563-10.945,23.563-24.324C48.623,153.021,37.981,142.076,25.06,142.076z"/>
	<path fill="#FFFFFF" d="M34.484,165.791c0-0.305-0.304-0.76-0.608-0.76l0,0l-1.064-0.305c-0.912-0.304-1.521-1.216-1.216-2.279
		c0-0.152,0.152-0.305,0.152-0.457l0.608-0.912l0,0c0.152-0.304,0.152-0.76-0.152-1.064c-0.152-0.151-0.304-0.303-0.456-0.455
		c-0.152-0.152-0.304-0.305-0.456-0.457c-0.304-0.304-0.608-0.304-1.064-0.151l-0.912,0.608c-0.152,0.151-0.304,0.151-0.456,0.151
		c-0.912,0.304-1.976-0.304-2.128-1.216l-0.304-1.064l0,0c-0.152-0.456-0.456-0.607-0.76-0.607c-0.152,0-0.456,0-0.608,0
		c-0.152,0-0.456,0-0.608,0c-0.304,0-0.608,0.304-0.76,0.607l0,0l-0.304,1.064c-0.304,0.912-1.216,1.52-2.128,1.216
		c-0.152,0-0.304-0.151-0.456-0.151l-0.912-0.608c-0.304-0.152-0.76-0.152-1.064,0.151c-0.152,0.152-0.304,0.305-0.456,0.457
		s-0.304,0.304-0.456,0.455c-0.304,0.305-0.304,0.761-0.152,1.064l0,0l0.608,0.912c0.152,0.152,0.152,0.305,0.152,0.457
		c0.304,0.912-0.304,1.976-1.216,2.279l-1.064,0.305l0,0c-0.304,0.152-0.608,0.455-0.608,0.76c0,0.152,0,0.456,0,0.76
		c0,0.305,0,0.457,0,0.76c0,0.305,0.304,0.761,0.608,0.761l0,0l1.064,0.304c0.912,0.305,1.52,1.217,1.216,2.281
		c0,0.151-0.152,0.303-0.152,0.455l-0.608,0.912l0,0c-0.152,0.305-0.152,0.76,0.152,1.064c0.152,0.152,0.304,0.305,0.456,0.456
		s0.304,0.304,0.456,0.456c0.304,0.305,0.608,0.305,1.064,0.152l0.912-0.608c0.152-0.151,0.304-0.151,0.456-0.151
		c0.912-0.305,1.977,0.303,2.128,1.367l0.304,1.064l0,0c0.152,0.456,0.456,0.607,0.76,0.607c0.152,0,0.456,0,0.608,0
		c0.152,0,0.456,0,0.608,0c0.304,0,0.608-0.303,0.76-0.607l0,0l0.304-1.064c0.304-0.912,1.216-1.52,2.128-1.367
		c0.152,0,0.304,0.151,0.456,0.151l0.912,0.608c0.304,0.152,0.76,0.152,1.064-0.152c0.152-0.152,0.304-0.305,0.456-0.456
		c0.152-0.151,0.304-0.304,0.456-0.456c0.304-0.305,0.304-0.76,0.152-1.064l0,0l-0.608-0.912c-0.152-0.152-0.152-0.304-0.152-0.455
		c-0.304-0.912,0.304-1.977,1.216-2.281l1.064-0.304l0,0c0.304-0.151,0.608-0.456,0.608-0.761c0-0.151,0-0.455,0-0.76
		C34.637,166.247,34.637,165.943,34.484,165.791z M25.06,170.047c-1.977,0-3.497-1.672-3.497-3.648c0-1.976,1.52-3.648,3.497-3.648
		c1.976,0,3.496,1.673,3.496,3.648C28.556,168.527,26.884,170.047,25.06,170.047z"/>
</g>
<g>
	<ellipse fill="#696868" cx="78.114" cy="166.399" rx="18.85" ry="19.458"/>
	<ellipse fill="#2CADE3" cx="78.114" cy="166.399" rx="23.563" ry="24.323"/>
	<path fill="#FFFFFF" d="M87.691,172.023c-0.152-0.76-0.76-1.367-1.521-1.672l-3.344-0.912c-1.064-0.305-2.28,0.305-2.584,1.52
		l-0.152,0.305c-1.52-0.456-3.041-1.368-4.104-2.584c-1.216-1.217-2.128-2.736-2.584-4.257l0.304-0.152
		c1.064-0.304,1.824-1.521,1.52-2.584l-0.912-3.497c-0.152-0.76-0.76-1.367-1.52-1.52c-0.608-0.152-1.216-0.152-1.824,0
		c-0.608,0.152-1.216,0.456-1.672,1.064c-0.304,0.455-0.608,0.912-0.608,1.52l0,0c0,4.408,1.52,8.817,4.864,12.162l0,0
		c3.192,3.344,7.449,5.016,11.706,5.016l0,0c0.608,0,1.064-0.151,1.368-0.607c0.456-0.456,0.76-1.064,0.912-1.672
		C87.843,173.393,87.843,172.632,87.691,172.023z"/>
</g>
<g>
	<ellipse fill="#2CADE3" cx="131.321" cy="165.791" rx="22.955" ry="23.715"/>
	<g>
		<path fill="#FFFFFF" d="M141.506,161.383c0.456-0.305,0.912,0,1.216,0.304c0.152,0.151,0.152,0.304,0.152,0.456l0,0v6.992l0,0
			c0,0.305-0.152,0.609-0.456,0.761c-0.304,0.151-0.608,0.151-0.912,0l0,0l-4.409-1.976v-4.865 M135.729,169.287v-7.297
			c0,0,0,0,0-0.152c0,0,0,0,0-0.151c0-1.064-0.76-1.824-1.672-1.977c-0.456,0-1.216,0-2.584,0c-0.304,0-5.473,0-5.777,0
			c-2.888,0-3.344,0.152-3.496,0.152c-0.608,0.151-1.216,0.608-1.368,1.216v0.152c-0.456,1.368-0.76,2.889-0.76,4.408
			c0,1.521,0.304,3.041,0.76,4.257c0,0.151,0,0.151,0.152,0.304c0.304,0.608,0.76,1.064,1.52,1.217
			c-0.304,0,0.608,0.152,3.497,0.152c1.976,0,3.953,0,5.777,0c1.672,0,2.28,0,2.584,0c0.912-0.152,1.672-1.064,1.672-1.977
			C135.729,169.592,135.729,169.439,135.729,169.287C135.729,169.439,135.729,169.439,135.729,169.287z"/>
	</g>
</g>
<g>
	<path fill="#2CADE3" d="M184.527,142.076c-13.074,0-23.563,10.945-23.563,24.322c0,13.53,10.489,24.324,23.563,24.324
		s23.563-10.945,23.563-24.324C208.09,153.021,197.601,142.076,184.527,142.076z"/>
	<path fill="#FFFFFF" d="M191.672,164.119c-0.456-0.152-0.912-0.152-1.368-0.305v-3.496c0-3.192-2.433-5.777-5.625-5.777
		c-3.04,0-5.625,2.585-5.625,5.777v3.496c-0.456,0.152-0.912,0.152-1.368,0.305s-0.912,0.607-0.912,1.216v7.905
		c0,0.607,0.456,1.064,0.912,1.216c2.28,0.456,4.561,0.761,6.993,0.761l0,0c2.433,0,4.713-0.305,6.993-0.761
		c0.456-0.151,0.912-0.608,0.912-1.216v-7.905C192.584,164.727,192.128,164.271,191.672,164.119z M185.288,169.592l0.608,1.977
		c0.152,0.455-0.152,1.063-0.608,1.063c0,0,0,0-0.152,0c-0.152,0-0.304,0-0.608,0c-0.152,0-0.304,0-0.608,0c0,0,0,0-0.152,0
		c-0.456-0.151-0.76-0.608-0.608-1.063l0.608-1.977c-0.608-0.305-1.064-0.912-1.064-1.672c0-1.064,0.76-1.824,1.824-1.824
		c0.912,0,1.824,0.76,1.824,1.824C186.352,168.68,185.896,169.287,185.288,169.592z M187.872,163.511
		c-1.064-0.151-2.128-0.151-3.192-0.151l0,0c-1.064,0-2.128,0-3.192,0.151v-3.192c0-1.824,1.521-3.345,3.192-3.345
		c1.672,0,3.192,1.521,3.192,3.345V163.511z"/>
</g>
<g>
	<g>
		<ellipse fill="#2CADE3" cx="237.734" cy="166.399" rx="23.563" ry="24.323"/>
	</g>
	<path fill="#FFFFFF" d="M249.135,162.599c-0.608-2.888-2.888-5.017-5.625-5.473c-1.824-0.304-3.801-0.456-5.777-0.456
		s-3.953,0.152-5.777,0.456c-2.736,0.456-5.017,2.736-5.625,5.473c-0.304,0.912-0.456,1.976-0.456,3.04l0,0
		c0,1.064,0.152,2.129,0.456,3.041c0.608,2.889,2.888,5.016,5.625,5.473c1.824,0.304,3.801,0.304,5.777,0.304v3.497
		c0,0.455,0.456,0.912,0.912,0.912c0.152,0,0.456,0,0.608-0.152l0,0l6.993-5.625c1.52-1.064,2.584-2.584,2.888-4.408
		c0.304-0.912,0.456-1.977,0.456-3.041l0,0C249.591,164.574,249.439,163.511,249.135,162.599z M240.167,168.527h-7.601
		c-0.456,0-0.912-0.456-0.912-0.912s0.456-0.912,0.912-0.912h7.601c0.456,0,0.912,0.456,0.912,0.912
		C241.078,168.071,240.623,168.527,240.167,168.527z M243.055,164.574h-10.642c-0.456,0-0.912-0.455-0.912-0.912
		c0-0.455,0.456-0.912,0.912-0.912h10.642c0.456,0,0.912,0.457,0.912,0.912C243.967,164.119,243.511,164.574,243.055,164.574z"/>
</g>
<g>
	<path fill="#2CADE3" d="M290.94,142.076c-13.073,0-23.563,10.945-23.563,24.322c0,13.379,10.49,24.324,23.563,24.324
		c13.074,0,23.563-10.945,23.563-24.324C314.503,153.021,304.014,142.076,290.94,142.076z"/>
	<path fill="#FFFFFF" d="M288.356,159.254c0-1.368,1.064-2.432,2.432-2.432s2.432,1.063,2.432,2.432s-1.064,2.433-2.432,2.433
		S288.356,160.622,288.356,159.254z M293.981,173.088c-0.608-0.152-0.912-0.607-0.912-1.217l0.304-4.712
		c0.152-1.976-1.216-3.497-3.041-3.497c-1.216,0-2.432,0.609-3.041,1.673c-0.152,0.151-0.152,0.304-0.152,0.456
		c0,0.456,0.304,0.76,0.608,0.912c0.608,0.152,0.912,0.607,0.912,1.217l-0.304,4.712c-0.152,1.976,1.216,3.497,3.04,3.497
		c1.216,0,2.433-0.608,3.041-1.673c0.152-0.151,0.152-0.304,0.152-0.456C294.741,173.544,294.437,173.088,293.981,173.088z"/>
</g>
<g>
	<path fill="#2CADE3" d="M25.06,195.283c-13.074,0-23.563,10.945-23.563,24.322c0,13.53,10.489,24.323,23.563,24.323
		c13.073,0,23.563-10.945,23.563-24.323C48.623,206.076,37.981,195.283,25.06,195.283z"/>
	<path fill="#FFFFFF" d="M34.484,218.846c0-0.304-0.304-0.76-0.608-0.76l0,0l-1.064-0.305c-0.912-0.304-1.521-1.216-1.216-2.28
		c0-0.151,0.152-0.304,0.152-0.456l0.608-0.912l0,0c0.152-0.304,0.152-0.76-0.152-1.063c-0.152-0.152-0.304-0.305-0.456-0.456
		c-0.152-0.152-0.304-0.305-0.456-0.456c-0.304-0.305-0.608-0.305-1.064-0.152l-0.912,0.608c-0.152,0.151-0.304,0.151-0.456,0.151
		c-0.912,0.305-1.976-0.304-2.128-1.216l-0.304-1.064l0,0c-0.152-0.456-0.456-0.607-0.76-0.607c-0.152,0-0.456,0-0.608,0
		c-0.152,0-0.456,0-0.608,0c-0.304,0-0.608,0.304-0.76,0.607l0,0l-0.304,1.064c-0.304,0.912-1.216,1.521-2.128,1.216
		c-0.152,0-0.304-0.151-0.456-0.151l-0.912-0.608c-0.304-0.152-0.76-0.152-1.064,0.152c-0.152,0.151-0.304,0.304-0.456,0.456
		c-0.152,0.151-0.304,0.304-0.456,0.456c-0.304,0.304-0.304,0.76-0.152,1.063l0,0l0.608,0.912c0.152,0.152,0.152,0.305,0.152,0.456
		c0.304,0.912-0.304,1.977-1.216,2.28l-1.064,0.305l0,0c-0.304,0.151-0.608,0.456-0.608,0.76c0,0.152,0,0.456,0,0.76
		c0,0.305,0,0.456,0,0.761c0,0.304,0.304,0.76,0.608,0.76l0,0l1.064,0.304c0.912,0.305,1.52,1.217,1.216,2.28
		c0,0.152-0.152,0.305-0.152,0.456l-0.608,0.912l0,0c-0.152,0.305-0.152,0.761,0.152,1.064c0.152,0.152,0.304,0.304,0.456,0.456
		s0.304,0.304,0.456,0.456c0.304,0.304,0.608,0.304,1.064,0.152l0.912-0.608c0.152-0.152,0.304-0.152,0.456-0.152
		c0.912-0.304,1.977,0.305,2.128,1.368l0.304,1.064l0,0c0.152,0.456,0.456,0.608,0.76,0.608c0.152,0,0.456,0,0.608,0
		c0.152,0,0.456,0,0.608,0c0.304,0,0.608-0.305,0.76-0.608l0,0l0.304-1.064c0.304-0.912,1.216-1.52,2.128-1.368
		c0.152,0,0.304,0.152,0.456,0.152l0.912,0.608c0.304,0.151,0.76,0.151,1.064-0.152c0.152-0.152,0.304-0.304,0.456-0.456
		c0.152-0.152,0.304-0.304,0.456-0.456c0.304-0.304,0.304-0.76,0.152-1.064l0,0l-0.608-0.912c-0.152-0.151-0.152-0.304-0.152-0.456
		c-0.304-0.912,0.304-1.976,1.216-2.28l1.064-0.304l0,0c0.304-0.152,0.608-0.456,0.608-0.76c0-0.152,0-0.456,0-0.761
		C34.637,219.302,34.637,219.149,34.484,218.846z M25.06,223.254c-1.977,0-3.497-1.672-3.497-3.648c0-1.976,1.52-3.648,3.497-3.648
		c1.976,0,3.496,1.673,3.496,3.648C28.556,221.582,26.884,223.254,25.06,223.254z"/>
</g>
<g>
	<ellipse fill="#696868" cx="78.57" cy="219.606" rx="18.85" ry="19.458"/>
	<ellipse fill="#2CADE3" cx="78.57" cy="219.606" rx="23.563" ry="24.323"/>
	<path fill="#FFFFFF" d="M69.145,225.23c0.152-0.76,0.76-1.368,1.52-1.672l3.344-0.912c1.064-0.305,2.28,0.304,2.584,1.52
		l0.152,0.305c1.521-0.456,3.041-1.368,4.105-2.585c1.216-1.216,2.128-2.736,2.584-4.256l-0.304-0.152
		c-1.064-0.304-1.824-1.521-1.521-2.584l0.912-3.497c0.152-0.76,0.76-1.368,1.521-1.52c0.608-0.152,1.216-0.152,1.824,0
		c0.608,0.151,1.216,0.455,1.672,1.063c0.304,0.456,0.608,0.912,0.608,1.521l0,0c0,4.408-1.521,8.817-4.865,12.161l0,0
		c-3.192,3.345-7.449,5.017-11.706,5.017l0,0c-0.608,0-1.064-0.151-1.368-0.607c-0.456-0.456-0.76-1.064-0.912-1.673
		C68.993,226.446,68.993,225.839,69.145,225.23z"/>
</g>
<g>
	<ellipse fill="#2CADE3" cx="131.321" cy="218.846" rx="22.955" ry="23.715"/>
	<g>
		<path fill="#FFFFFF" d="M125.696,216.413v4.865l-4.408,1.976l0,0c-0.304,0.152-0.608,0.152-0.912,0
			c-0.304-0.151-0.456-0.456-0.456-0.76l0,0v-6.993l0,0c0-0.151,0-0.304,0.152-0.456c0.304-0.456,0.76-0.607,1.216-0.304
			 M127.064,222.646L127.064,222.646c0,1.063,0.76,1.976,1.672,2.128c0.304,0,1.064,0,2.584,0c1.824,0,3.8,0,5.776,0
			c2.889,0,3.649-0.152,3.497-0.152c0.608-0.151,1.216-0.607,1.521-1.216c0-0.152,0-0.152,0.152-0.304
			c0.456-1.368,0.76-2.889,0.76-4.257c0-1.521-0.304-3.04-0.76-4.408v-0.152c-0.304-0.608-0.76-1.064-1.368-1.216
			c-0.152,0-0.608-0.152-3.497-0.152c-0.152,0-5.321,0-5.777,0c-1.368,0-2.128,0-2.584,0c-0.912,0.152-1.672,1.063-1.672,1.977
			c0,0,0,0,0,0.151c0,0,0,0,0,0.152L127.064,222.646C127.064,222.494,127.064,222.646,127.064,222.646z"/>
	</g>
</g>
<g>
	<path fill="#2CADE3" d="M184.527,195.283c-13.074,0-23.563,10.945-23.563,24.322c0,13.53,10.489,24.323,23.563,24.323
		s23.563-10.945,23.563-24.323C208.09,206.076,197.601,195.283,184.527,195.283z"/>
	<path fill="#FFFFFF" d="M191.672,217.325c-0.456-0.151-0.912-0.151-1.368-0.304v-3.496c0-3.192-2.433-5.777-5.625-5.777
		c-3.04,0-5.625,2.585-5.625,5.777v3.496c-0.456,0.152-0.912,0.152-1.368,0.304c-0.456,0.152-0.912,0.608-0.912,1.217v7.904
		c0,0.608,0.456,1.064,0.912,1.217c2.28,0.456,4.561,0.76,6.993,0.76l0,0c2.433,0,4.713-0.304,6.993-0.76
		c0.456-0.152,0.912-0.608,0.912-1.217v-7.904C192.584,217.934,192.128,217.478,191.672,217.325z M185.288,222.798l0.608,1.977
		c0.152,0.456-0.152,1.064-0.608,1.064c0,0,0,0-0.152,0c-0.152,0-0.304,0-0.608,0c-0.152,0-0.304,0-0.608,0c0,0,0,0-0.152,0
		c-0.456-0.152-0.76-0.608-0.608-1.064l0.608-1.977c-0.608-0.304-1.064-0.912-1.064-1.672c0-1.064,0.76-1.824,1.824-1.824
		c0.912,0,1.824,0.76,1.824,1.824C186.352,221.886,185.896,222.494,185.288,222.798z M187.872,216.718
		c-1.064-0.152-2.128-0.152-3.192-0.152l0,0c-1.064,0-2.128,0-3.192,0.152v-3.192c0-1.824,1.521-3.345,3.192-3.345
		c1.672,0,3.192,1.521,3.192,3.345V216.718z"/>
</g>
<g>
	<g>
		<ellipse fill="#2CADE3" cx="237.734" cy="219.606" rx="23.563" ry="24.323"/>
	</g>
	<path fill="#FFFFFF" d="M226.028,218.693L226.028,218.693c0,1.064,0.152,2.129,0.456,3.041c0.456,1.824,1.521,3.344,2.889,4.408
		l6.993,5.625l0,0c0.152,0.151,0.304,0.151,0.608,0.151c0.456,0,0.912-0.456,0.912-0.912v-3.344c1.977,0,3.953,0,5.777-0.305
		c2.736-0.456,5.017-2.736,5.625-5.473c0.304-0.912,0.456-1.976,0.456-3.04l0,0c0-1.064-0.152-2.128-0.456-3.04
		c-0.608-2.889-2.889-5.017-5.625-5.473c-1.824-0.305-3.8-0.456-5.777-0.456c-1.976,0-3.952,0.151-5.776,0.456
		c-2.736,0.456-5.017,2.736-5.625,5.473C226.181,216.718,226.028,217.63,226.028,218.693z M234.542,220.67
		c0-0.456,0.456-0.912,0.912-0.912h7.601c0.456,0,0.912,0.456,0.912,0.912s-0.456,0.912-0.912,0.912h-7.601
		C234.998,221.582,234.542,221.278,234.542,220.67z M231.653,216.718c0-0.456,0.456-0.912,0.912-0.912h10.641
		c0.456,0,0.912,0.456,0.912,0.912s-0.456,0.912-0.912,0.912h-10.641C231.957,217.63,231.653,217.325,231.653,216.718z"/>
</g>
<g>
	<path fill="#2CADE3" d="M290.94,195.283c-13.073,0-23.563,10.945-23.563,24.322c0,13.378,10.49,24.323,23.563,24.323
		c13.074,0,23.563-10.945,23.563-24.323C314.503,206.076,304.014,195.283,290.94,195.283z"/>
	<path fill="#FFFFFF" d="M288.356,212.309c0-1.368,1.064-2.432,2.432-2.432s2.432,1.063,2.432,2.432s-1.064,2.433-2.432,2.433
		S288.356,213.677,288.356,212.309z M293.981,226.143c-0.608-0.152-0.912-0.608-0.912-1.216l0.304-4.713
		c0.152-1.977-1.216-3.496-3.041-3.496c-1.216,0-2.432,0.607-3.041,1.672c-0.152,0.152-0.152,0.304-0.152,0.456
		c0,0.456,0.304,0.76,0.608,0.912c0.608,0.152,0.912,0.608,0.912,1.216l-0.304,4.713c-0.152,1.977,1.216,3.496,3.04,3.496
		c1.216,0,2.433-0.607,3.041-1.672c0.152-0.152,0.152-0.304,0.152-0.456C294.741,226.599,294.437,226.295,293.981,226.143z"/>
</g>
<path fill="#2CADE3" d="M18.022,250.147c-9.169,0-16.525,7.676-16.525,17.058c0,9.49,7.356,17.06,16.525,17.06
	c9.168,0,16.525-7.676,16.525-17.06C34.547,257.823,27.084,250.147,18.022,250.147"/>
<path fill="#FFFFFF" d="M24.631,266.779c0-0.215-0.213-0.532-0.426-0.532l0,0l-0.746-0.214c-0.64-0.213-1.067-0.852-0.853-1.599
	c0-0.106,0.106-0.214,0.106-0.321l0.427-0.64l0,0c0.107-0.213,0.107-0.533-0.107-0.746c-0.106-0.106-0.213-0.213-0.32-0.319
	c-0.106-0.107-0.213-0.214-0.32-0.32c-0.213-0.213-0.426-0.213-0.746-0.106l-0.64,0.427c-0.105,0.105-0.213,0.105-0.319,0.105
	c-0.64,0.214-1.386-0.213-1.493-0.853l-0.212-0.746l0,0c-0.107-0.319-0.319-0.426-0.533-0.426c-0.107,0-0.32,0-0.426,0
	c-0.107,0-0.32,0-0.427,0c-0.213,0-0.427,0.213-0.533,0.426l0,0l-0.213,0.746c-0.213,0.64-0.853,1.066-1.493,0.853
	c-0.106,0-0.213-0.105-0.319-0.105l-0.64-0.427c-0.213-0.106-0.533-0.106-0.746,0.106c-0.107,0.106-0.213,0.213-0.32,0.32
	c-0.106,0.106-0.213,0.213-0.319,0.319c-0.213,0.213-0.213,0.533-0.107,0.746l0,0l0.426,0.64c0.107,0.107,0.107,0.215,0.107,0.321
	c0.213,0.64-0.213,1.386-0.853,1.599l-0.748,0.214l0,0c-0.212,0.105-0.426,0.317-0.426,0.532c0,0.106,0,0.32,0,0.531
	c0,0.215,0,0.321,0,0.534c0,0.215,0.213,0.534,0.426,0.534l0,0l0.748,0.212c0.639,0.215,1.065,0.854,0.853,1.6
	c0,0.107-0.107,0.213-0.107,0.32l-0.426,0.639l0,0c-0.106,0.214-0.106,0.533,0.107,0.747c0.106,0.106,0.213,0.214,0.319,0.32
	c0.107,0.105,0.213,0.212,0.32,0.319c0.213,0.214,0.427,0.214,0.746,0.106l0.64-0.426c0.106-0.106,0.213-0.106,0.319-0.106
	c0.64-0.214,1.386,0.212,1.493,0.96l0.213,0.745l0,0c0.106,0.319,0.32,0.425,0.533,0.425c0.107,0,0.32,0,0.427,0
	c0.106,0,0.319,0,0.426,0c0.214,0,0.426-0.211,0.533-0.425l0,0l0.212-0.745c0.214-0.642,0.853-1.067,1.493-0.96
	c0.106,0,0.214,0.106,0.319,0.106l0.64,0.426c0.213,0.107,0.533,0.107,0.746-0.106c0.107-0.107,0.214-0.214,0.32-0.319
	c0.107-0.106,0.214-0.214,0.32-0.32c0.214-0.214,0.214-0.533,0.107-0.747l0,0l-0.427-0.639c-0.106-0.107-0.106-0.213-0.106-0.32
	c-0.214-0.639,0.213-1.385,0.853-1.6l0.746-0.212l0,0c0.213-0.106,0.426-0.319,0.426-0.534c0-0.106,0-0.319,0-0.534
	C24.738,267.1,24.738,266.886,24.631,266.779z M18.022,269.763c-1.386,0-2.453-1.172-2.453-2.558c0-1.385,1.066-2.559,2.453-2.559
	c1.386,0,2.452,1.174,2.452,2.559C20.474,268.699,19.301,269.763,18.022,269.763z"/>
<path fill="#696868" d="M55.23,253.56c7.301,0,13.22,6.108,13.22,13.646c0,7.538-5.918,13.647-13.22,13.647
	c-7.302,0-13.221-6.109-13.221-13.647C42.01,259.668,47.928,253.56,55.23,253.56"/>
<path fill="#2CADE3" d="M55.23,250.147c9.125,0,16.524,7.637,16.524,17.058c0,9.422-7.398,17.06-16.524,17.06
	c-9.127,0-16.525-7.638-16.525-17.06C38.705,257.784,46.103,250.147,55.23,250.147"/>
<path fill="#FFFFFF" d="M61.946,271.149c-0.106-0.532-0.533-0.959-1.065-1.172l-2.346-0.64c-0.747-0.214-1.6,0.214-1.813,1.065
	l-0.106,0.214c-1.066-0.319-2.133-0.958-2.879-1.812c-0.853-0.854-1.493-1.92-1.813-2.985l0.213-0.108
	c0.747-0.212,1.28-1.065,1.066-1.812l-0.64-2.452c-0.106-0.533-0.533-0.959-1.066-1.065c-0.426-0.107-0.853-0.107-1.279,0
	c-0.426,0.106-0.853,0.319-1.172,0.746c-0.214,0.319-0.426,0.641-0.426,1.065l0,0c0,3.093,1.066,6.185,3.411,8.529l0,0
	c2.239,2.347,5.225,3.517,8.209,3.517l0,0c0.427,0,0.747-0.105,0.96-0.425c0.32-0.319,0.533-0.745,0.64-1.173
	C62.053,272.11,62.053,271.576,61.946,271.149z"/>
<path fill="#2CADE3" d="M92.544,250.147c8.891,0,16.099,7.446,16.099,16.632c0,9.185-7.208,16.631-16.099,16.631
	s-16.098-7.446-16.098-16.631C76.446,257.594,83.654,250.147,92.544,250.147"/>
<g>
	<path fill="#FFFFFF" d="M99.688,263.687c0.319-0.213,0.64,0,0.854,0.214c0.105,0.106,0.105,0.213,0.105,0.32l0,0v4.903l0,0
		c0,0.214-0.105,0.428-0.319,0.535c-0.213,0.104-0.427,0.104-0.64,0l0,0l-3.091-1.387v-3.412 M95.636,269.231v-5.118
		c0,0,0,0,0-0.106c0,0,0,0,0-0.106c0-0.747-0.533-1.279-1.172-1.387c-0.321,0-0.853,0-1.813,0c-0.214,0-3.838,0-4.052,0
		c-2.025,0-2.345,0.107-2.452,0.107c-0.426,0.106-0.853,0.427-0.959,0.853v0.107c-0.32,0.959-0.533,2.026-0.533,3.091
		c0,1.066,0.213,2.134,0.533,2.987c0,0.104,0,0.104,0.106,0.211c0.213,0.428,0.533,0.747,1.066,0.854
		c-0.213,0,0.427,0.105,2.452,0.105c1.386,0,2.772,0,4.052,0c1.172,0,1.599,0,1.812,0c0.64-0.105,1.172-0.745,1.172-1.384
		C95.636,269.445,95.636,269.338,95.636,269.231C95.636,269.338,95.636,269.338,95.636,269.231z"/>
</g>
<path fill="#2CADE3" d="M167.174,250.147c9.127,0,16.525,7.637,16.525,17.058c0,9.422-7.398,17.06-16.525,17.06
	c-9.126,0-16.525-7.638-16.525-17.06C150.649,257.784,158.048,250.147,167.174,250.147"/>
<path fill="#FFFFFF" d="M175.169,264.54c-0.426-2.025-2.025-3.518-3.944-3.838c-1.279-0.213-2.665-0.319-4.051-0.319
	c-1.387,0-2.772,0.106-4.052,0.319c-1.919,0.32-3.519,1.919-3.945,3.838c-0.213,0.642-0.319,1.386-0.319,2.132l0,0
	c0,0.747,0.106,1.493,0.319,2.134c0.426,2.023,2.025,3.517,3.945,3.837c1.28,0.215,2.665,0.215,4.052,0.215v2.451
	c0,0.319,0.319,0.64,0.639,0.64c0.107,0,0.32,0,0.427-0.107l0,0l4.904-3.944c1.067-0.747,1.813-1.813,2.025-3.091
	c0.214-0.641,0.321-1.387,0.321-2.134l0,0C175.491,265.926,175.384,265.182,175.169,264.54z M168.88,268.699h-5.331
	c-0.319,0-0.639-0.32-0.639-0.64c0-0.321,0.319-0.641,0.639-0.641h5.331c0.32,0,0.639,0.319,0.639,0.641
	C169.519,268.379,169.2,268.699,168.88,268.699z M170.906,265.926h-7.463c-0.32,0-0.64-0.318-0.64-0.639s0.32-0.641,0.64-0.641
	h7.463c0.319,0,0.64,0.32,0.64,0.641S171.225,265.926,170.906,265.926z"/>
<path fill="#2CADE3" d="M204.489,250.147c-9.169,0-16.525,7.676-16.525,17.058c0,9.384,7.356,17.06,16.525,17.06
	c9.168,0,16.526-7.676,16.526-17.06C221.015,257.823,213.657,250.147,204.489,250.147"/>
<path fill="#FFFFFF" d="M202.677,262.194c0-0.959,0.745-1.705,1.706-1.705c0.959,0,1.706,0.746,1.706,1.705
	s-0.747,1.706-1.706,1.706C203.422,263.9,202.677,263.153,202.677,262.194z M206.621,271.896c-0.426-0.107-0.639-0.426-0.639-0.854
	l0.213-3.305c0.107-1.386-0.854-2.451-2.133-2.451c-0.853,0-1.705,0.426-2.132,1.172c-0.106,0.105-0.106,0.213-0.106,0.32
	c0,0.32,0.213,0.531,0.426,0.64c0.427,0.106,0.64,0.426,0.64,0.854l-0.213,3.304c-0.106,1.386,0.853,2.453,2.131,2.453
	c0.854,0,1.707-0.427,2.133-1.172c0.105-0.107,0.105-0.215,0.105-0.321C207.154,272.217,206.941,271.896,206.621,271.896z"/>
<g>
	<path fill="#2CADE3" d="M18.022,287.462c-9.169,0-16.525,7.676-16.525,17.059c0,9.488,7.356,17.058,16.525,17.058
		c9.168,0,16.525-7.675,16.525-17.058C34.547,295.03,27.084,287.462,18.022,287.462z"/>
	<path fill="#FFFFFF" d="M24.631,303.987c0-0.212-0.213-0.533-0.426-0.533l0,0l-0.746-0.214c-0.64-0.213-1.067-0.853-0.853-1.599
		c0-0.105,0.106-0.213,0.106-0.319l0.427-0.641l0,0c0.107-0.213,0.107-0.531-0.107-0.746c-0.106-0.106-0.213-0.213-0.32-0.32
		c-0.106-0.106-0.213-0.213-0.32-0.318c-0.213-0.214-0.426-0.214-0.746-0.107l-0.64,0.426c-0.105,0.107-0.213,0.107-0.319,0.107
		c-0.64,0.213-1.386-0.214-1.493-0.854l-0.212-0.745l0,0c-0.107-0.32-0.319-0.427-0.533-0.427c-0.107,0-0.32,0-0.426,0
		c-0.107,0-0.32,0-0.427,0c-0.213,0-0.427,0.213-0.533,0.427l0,0l-0.213,0.745c-0.213,0.64-0.853,1.066-1.493,0.854
		c-0.106,0-0.213-0.107-0.319-0.107l-0.64-0.426c-0.213-0.106-0.533-0.106-0.746,0.107c-0.107,0.105-0.213,0.212-0.32,0.318
		c-0.106,0.107-0.213,0.214-0.319,0.32c-0.213,0.215-0.213,0.533-0.107,0.746l0,0l0.426,0.641c0.107,0.106,0.107,0.214,0.107,0.319
		c0.213,0.639-0.213,1.386-0.853,1.599l-0.748,0.214l0,0c-0.212,0.106-0.426,0.321-0.426,0.533c0,0.107,0,0.319,0,0.533
		s0,0.319,0,0.533c0,0.213,0.213,0.532,0.426,0.532l0,0l0.748,0.214c0.639,0.214,1.065,0.853,0.853,1.599
		c0,0.105-0.107,0.214-0.107,0.319l-0.426,0.64l0,0c-0.106,0.216-0.106,0.535,0.107,0.747c0.106,0.107,0.213,0.213,0.319,0.32
		c0.107,0.106,0.213,0.213,0.32,0.32c0.213,0.211,0.427,0.211,0.746,0.107l0.64-0.428c0.106-0.107,0.213-0.107,0.319-0.107
		c0.64-0.213,1.386,0.214,1.493,0.96l0.213,0.747l0,0c0.106,0.319,0.32,0.427,0.533,0.427c0.107,0,0.32,0,0.427,0
		c0.106,0,0.319,0,0.426,0c0.214,0,0.426-0.215,0.533-0.427l0,0l0.212-0.747c0.214-0.64,0.853-1.065,1.493-0.96
		c0.106,0,0.214,0.107,0.319,0.107l0.64,0.428c0.213,0.104,0.533,0.104,0.746-0.107c0.107-0.107,0.214-0.214,0.32-0.32
		c0.107-0.107,0.214-0.213,0.32-0.32c0.214-0.212,0.214-0.531,0.107-0.747l0,0l-0.427-0.64c-0.106-0.105-0.106-0.214-0.106-0.319
		c-0.214-0.64,0.213-1.385,0.853-1.599l0.746-0.214l0,0c0.213-0.105,0.426-0.319,0.426-0.532c0-0.106,0-0.319,0-0.533
		C24.738,304.307,24.738,304.201,24.631,303.987z M18.022,307.079c-1.386,0-2.453-1.174-2.453-2.559
		c0-1.386,1.066-2.559,2.453-2.559c1.386,0,2.452,1.173,2.452,2.559C20.474,305.905,19.301,307.079,18.022,307.079z"/>
</g>
<g>
	<ellipse fill="#696868" cx="55.55" cy="304.521" rx="13.221" ry="13.646"/>
	<ellipse fill="#2CADE3" cx="55.55" cy="304.52" rx="16.525" ry="17.058"/>
	<path fill="#FFFFFF" d="M48.939,308.465c0.107-0.533,0.534-0.961,1.066-1.173l2.345-0.64c0.747-0.214,1.599,0.213,1.812,1.065
		l0.107,0.214c1.066-0.319,2.132-0.958,2.879-1.813c0.853-0.853,1.493-1.918,1.813-2.984l-0.213-0.107
		c-0.747-0.212-1.279-1.065-1.066-1.813l0.64-2.452c0.107-0.532,0.534-0.959,1.066-1.065c0.426-0.106,0.853-0.106,1.279,0
		s0.853,0.318,1.173,0.746c0.213,0.319,0.426,0.64,0.426,1.065l0,0c0,3.093-1.066,6.185-3.411,8.53l0,0
		c-2.239,2.346-5.225,3.516-8.209,3.516l0,0c-0.427,0-0.747-0.104-0.959-0.425c-0.32-0.319-0.533-0.745-0.64-1.174
		C48.833,309.317,48.833,308.893,48.939,308.465z"/>
</g>
<g>
	<ellipse fill="#2CADE3" cx="92.544" cy="303.987" rx="16.099" ry="16.632"/>
	<g>
		<path fill="#FFFFFF" d="M88.6,302.28v3.413l-3.092,1.386l0,0c-0.213,0.106-0.426,0.106-0.639,0c-0.213-0.105-0.32-0.32-0.32-0.534
			l0,0v-4.903l0,0c0-0.105,0-0.213,0.107-0.319c0.213-0.319,0.533-0.426,0.853-0.213 M89.559,306.652L89.559,306.652
			c0,0.746,0.533,1.387,1.173,1.492c0.214,0,0.746,0,1.813,0c1.279,0,2.666,0,4.052,0c2.025,0,2.559-0.105,2.452-0.105
			c0.427-0.107,0.853-0.427,1.066-0.854c0-0.106,0-0.106,0.107-0.212c0.32-0.96,0.533-2.026,0.533-2.986
			c0-1.066-0.213-2.132-0.533-3.091v-0.107c-0.214-0.427-0.534-0.747-0.96-0.854c-0.106,0-0.426-0.106-2.452-0.106
			c-0.106,0-3.731,0-4.051,0c-0.96,0-1.493,0-1.813,0c-0.64,0.106-1.174,0.747-1.174,1.386c0,0,0,0,0,0.107c0,0,0,0,0,0.106
			L89.559,306.652C89.559,306.545,89.559,306.652,89.559,306.652z"/>
	</g>
</g>
<g>
	<path fill="#2CADE3" d="M129.859,287.462c-9.169,0-16.525,7.676-16.525,17.059c0,9.488,7.356,17.058,16.525,17.058
		c9.169,0,16.525-7.675,16.525-17.058C146.384,295.03,139.028,287.462,129.859,287.462z"/>
	<path fill="#FFFFFF" d="M134.87,302.921c-0.319-0.105-0.64-0.105-0.959-0.214v-2.45c0-2.24-1.706-4.052-3.945-4.052
		c-2.133,0-3.945,1.812-3.945,4.052v2.45c-0.319,0.108-0.639,0.108-0.959,0.214c-0.32,0.106-0.64,0.427-0.64,0.854v5.542
		c0,0.428,0.32,0.747,0.64,0.854c1.6,0.32,3.198,0.533,4.904,0.533l0,0c1.706,0,3.306-0.213,4.904-0.533
		c0.32-0.106,0.639-0.426,0.639-0.854v-5.542C135.509,303.348,135.19,303.027,134.87,302.921z M130.392,306.759l0.427,1.386
		c0.106,0.32-0.106,0.748-0.427,0.748c0,0,0,0-0.106,0s-0.213,0-0.427,0c-0.106,0-0.213,0-0.426,0c0,0,0,0-0.106,0
		c-0.321-0.106-0.533-0.428-0.426-0.748l0.426-1.386c-0.426-0.214-0.747-0.64-0.747-1.173c0-0.746,0.533-1.279,1.279-1.279
		c0.641,0,1.28,0.533,1.28,1.279C131.139,306.119,130.819,306.545,130.392,306.759z M132.205,302.495
		c-0.747-0.107-1.492-0.107-2.239-0.107l0,0c-0.746,0-1.492,0-2.239,0.107v-2.238c0-1.28,1.067-2.347,2.239-2.347
		c1.173,0,2.239,1.066,2.239,2.347V302.495z"/>
</g>
<g>
	<g>
		<ellipse fill="#2CADE3" cx="167.174" cy="304.52" rx="16.525" ry="17.058"/>
	</g>
	<path fill="#FFFFFF" d="M158.965,303.88L158.965,303.88c0,0.747,0.107,1.495,0.32,2.134c0.319,1.278,1.066,2.344,2.026,3.091
		l4.904,3.946l0,0c0.107,0.105,0.213,0.105,0.426,0.105c0.32,0,0.64-0.32,0.64-0.641v-2.345c1.386,0,2.771,0,4.05-0.215
		c1.92-0.318,3.52-1.917,3.945-3.837c0.215-0.639,0.321-1.385,0.321-2.132l0,0c0-0.747-0.106-1.492-0.321-2.132
		c-0.425-2.026-2.025-3.519-3.945-3.839c-1.279-0.213-2.665-0.319-4.05-0.319c-1.385,0-2.771,0.106-4.051,0.319
		c-1.919,0.32-3.518,1.919-3.945,3.839C159.072,302.495,158.965,303.135,158.965,303.88z M164.935,305.267
		c0-0.319,0.32-0.64,0.639-0.64h5.332c0.319,0,0.64,0.32,0.64,0.64s-0.321,0.639-0.64,0.639h-5.332
		C165.255,305.905,164.935,305.693,164.935,305.267z M162.91,302.495c0-0.32,0.319-0.64,0.639-0.64h7.463
		c0.319,0,0.64,0.319,0.64,0.64s-0.321,0.64-0.64,0.64h-7.463C163.123,303.135,162.91,302.921,162.91,302.495z"/>
</g>
<g>
	<path fill="#2CADE3" d="M204.489,287.462c-9.169,0-16.525,7.676-16.525,17.059s7.356,17.058,16.525,17.058
		c9.168,0,16.526-7.675,16.526-17.058C221.015,295.03,213.657,287.462,204.489,287.462z"/>
	<path fill="#FFFFFF" d="M202.677,299.402c0-0.959,0.745-1.705,1.706-1.705c0.959,0,1.706,0.746,1.706,1.705
		c0,0.96-0.747,1.707-1.706,1.707C203.422,301.109,202.677,300.362,202.677,299.402z M206.621,309.104
		c-0.426-0.106-0.639-0.426-0.639-0.852l0.213-3.306c0.107-1.387-0.854-2.452-2.133-2.452c-0.853,0-1.705,0.426-2.132,1.172
		c-0.106,0.108-0.106,0.213-0.106,0.32c0,0.319,0.213,0.533,0.426,0.64c0.427,0.107,0.64,0.427,0.64,0.854l-0.213,3.306
		c-0.106,1.385,0.853,2.45,2.131,2.45c0.854,0,1.707-0.426,2.133-1.172c0.105-0.108,0.105-0.212,0.105-0.319
		C207.154,309.425,206.941,309.212,206.621,309.104z"/>
</g>
<g>
	<path fill="#2CADE3" d="M129.965,250.613c-9.169,0-16.525,7.676-16.525,17.059c0,9.488,7.356,17.058,16.525,17.058
		c9.169,0,16.526-7.675,16.526-17.058C146.491,258.182,139.135,250.613,129.965,250.613z"/>
	<path fill="#FFFFFF" d="M134.977,266.072c-0.319-0.105-0.64-0.105-0.96-0.214v-2.45c0-2.24-1.705-4.052-3.944-4.052
		c-2.133,0-3.945,1.812-3.945,4.052v2.45c-0.319,0.108-0.639,0.108-0.959,0.214c-0.32,0.106-0.64,0.427-0.64,0.854v5.542
		c0,0.428,0.32,0.747,0.64,0.854c1.6,0.32,3.198,0.533,4.904,0.533l0,0c1.706,0,3.306-0.213,4.904-0.533
		c0.32-0.106,0.64-0.426,0.64-0.854v-5.542C135.616,266.499,135.297,266.179,134.977,266.072z M130.499,269.91l0.427,1.386
		c0.106,0.32-0.106,0.748-0.427,0.748c0,0,0,0-0.106,0s-0.213,0-0.427,0c-0.106,0-0.213,0-0.426,0c0,0,0,0-0.106,0
		c-0.321-0.106-0.533-0.428-0.426-0.748l0.426-1.386c-0.426-0.214-0.747-0.64-0.747-1.173c0-0.746,0.533-1.279,1.279-1.279
		c0.641,0,1.28,0.533,1.28,1.279C131.245,269.271,130.925,269.696,130.499,269.91z M132.312,265.646
		c-0.747-0.107-1.492-0.107-2.239-0.107l0,0c-0.746,0-1.492,0-2.239,0.107v-2.238c0-1.28,1.067-2.347,2.239-2.347
		c1.173,0,2.239,1.066,2.239,2.347V265.646z"/>
</g>
</svg>
