<?xml version="1.0" standalone="no"?>
<!DOCTYPE svg PUBLIC "-//W3C//DTD SVG 1.1//EN" "http://www.w3.org/Graphics/SVG/1.1/DTD/svg11.dtd" >
<svg xmlns="http://www.w3.org/2000/svg">
<metadata>Generated by IcoMoon</metadata>
<defs>
<font id="icomoon" horiz-adv-x="1024">
<font-face units-per-em="1024" ascent="960" descent="-64" />
<missing-glyph horiz-adv-x="1024" />
<glyph unicode="&#x20;" horiz-adv-x="512" d="" />
<glyph unicode="&#xe000;" glyph-name="home" d="M1024 348.221l-512 397.428-512-397.428v162.038l512 397.426 512-397.428zM896 362.667v-384h-768v384l384 288z" />
<glyph unicode="&#xe001;" glyph-name="home2" d="M1024 348.223l-512 397.426-512-397.428v162.038l512 397.426 512-397.428zM896 362.667v-384h-256v256h-256v-256h-256v384l384 288z" />
<glyph unicode="&#xe002;" glyph-name="home3" d="M1024 330.667l-192 192v288h-128v-160l-192 192-512-512v-32h128v-320h320v192h128v-192h320v320h128z" />
<glyph unicode="&#xe23a;" glyph-name="dashboard" d="M512 938.667c-282.77 0-512-229.23-512-512s229.23-512 512-512 512 229.23 512 512-229.23 512-512 512zM512 42.667c-212.078 0-384 171.922-384 384s171.922 384 384 384c212.078 0 384-171.922 384-384s-171.922-384-384-384zM448 682.667c0 35.346 28.654 64 64 64s64-28.654 64-64c0-35.346-28.654-64-64-64s-64 28.654-64 64zM640 618.667c0 35.346 28.654 64 64 64s64-28.654 64-64c0-35.346-28.654-64-64-64s-64 28.654-64 64zM256 618.667c0 35.346 28.654 64 64 64s64-28.654 64-64c0-35.346-28.654-64-64-64s-64 28.654-64 64zM448 234.667v-64h128v64l-64 320z" />
<glyph unicode="&#xe274;" glyph-name="glasses" d="M729.112 239.343c-33.118 0-80.456 2.286-109.106 22.050-35.892 24.762-64.5 124.372-78.36 181.542-2.45 10.096-9.338 14.734-16.756 16.658l-12.884 1.090-13.052-1.128c-7.356-1.95-14.166-6.594-16.596-16.618-13.864-57.176-42.478-156.79-78.356-181.544-28.656-19.766-75.994-22.050-109.108-22.050-7.398 0-14.232 0.12-20.262 0.222-4.59 0.080-8.69 0.152-12.152 0.152-137.916 0-183.728 46.694-197.872 85.864-10.918 30.232-17.858 62.26-23.98 90.518-8.038 37.092-16.35 75.448-29.796 83.402l-4.526 2.68-1.964 4.878c-8.37 20.784-2.298 72.114-0.996 82.194l1.552 12.020 12.038 1.402c60.138 7.012 150.232 11.316 188.348 11.316 1.47 0 148.978-0.944 192.298-21.94 5.946-2.88 11.94-6.004 17.738-9.024 27.292-14.216 55.514-28.918 96.77-29.17 41.066 0.254 69.284 14.954 96.576 29.17 5.794 3.020 11.79 6.142 17.732 9.024 43.326 20.996 190.834 21.94 192.304 21.94 38.126 0 128.226-4.304 188.35-11.316l12.038-1.402 1.552-12.020c1.302-10.078 7.38-61.408-0.978-82.19l-1.962-4.882-4.532-2.68c-13.448-7.958-21.758-46.312-29.796-83.406-6.122-28.256-13.060-60.284-23.976-90.514-14.148-39.172-59.96-85.864-197.874-85.864-3.468 0-7.568-0.072-12.156-0.152-6.026-0.104-12.858-0.222-20.256-0.222zM827.854 547.691c-101.002 0-170.518-13.52-192.366-26.082-25.328-14.562-30.128-29.346-30.128-51.532 0-17.78 19.814-96.294 34.728-126.126 13.146-26.288 29.79-38.928 53.964-40.982 9.368-0.796 23.348-1.254 38.352-1.254 59.1 0 109.84 5.99 129.27 15.262 25.358 12.102 51.578 24.616 60.066 139.548 0.38 5.148 0.876 10.292 1.358 15.27 2.35 24.318 4.38 45.322-6.718 57.82-9.85 11.092-31.332 17.080-63.846 17.8-8.22 0.184-16.522 0.276-24.68 0.276zM196.134 547.697c-8.158 0-16.462-0.092-24.68-0.274-32.512-0.72-53.992-6.71-63.84-17.802-11.102-12.502-9.070-33.508-6.718-57.832 0.482-4.972 0.978-10.116 1.358-15.262 8.488-114.936 34.706-127.45 60.064-139.55 19.424-9.272 70.16-15.262 129.252-15.262 15.010 0 28.992 0.458 38.36 1.256 24.186 2.052 40.83 14.692 53.97 40.982 10.9 21.798 34.722 101.794 34.72 126.132 0 22.186-4.8 36.97-30.124 51.532-21.846 12.562-91.364 26.080-192.362 26.080z" />
<glyph unicode="&#xe279;" glyph-name="target" d="M512 938.667c-282.312 0-512-229.676-512-512.002 0-282.322 229.688-511.998 512-511.998 282.31 0 512 229.676 512 511.998 0 282.326-229.688 512.002-512 512.002zM512 28.445c-219.578 0-398.22 178.646-398.22 398.22 0 219.58 178.644 398.224 398.22 398.224s398.22-178.644 398.22-398.224c0.006-219.574-178.644-398.22-398.22-398.22zM512 711.113c-156.844 0-284.448-127.602-284.448-284.448 0-156.842 127.602-284.448 284.448-284.448s284.446 127.606 284.446 284.448c0 156.846-127.6 284.448-284.446 284.448zM512 255.999c-94.116 0-170.668 76.554-170.668 170.666 0 94.116 76.552 170.67 170.668 170.67 94.112 0 170.67-76.554 170.67-170.67 0-94.112-76.558-170.666-170.67-170.666zM448 426.667c0 35.346 28.654 64 64 64s64-28.654 64-64c0-35.346-28.654-64-64-64s-64 28.654-64 64z" />
<glyph unicode="&#xe2a5;" glyph-name="grid" d="M0 938.667v-1024h1024v1024h-1024zM960 618.667h-256v256h256v-256zM384 298.667v256h256v-256h-256zM640 234.667v-256h-256v256h256zM320 298.667h-256v256h256v-256zM384 618.667v256h256v-256h-256zM704 554.667h256v-256h-256v256zM320 874.667v-256h-256v256h256zM64 234.667h256v-256h-256v256zM704-21.333v256h256v-256h-256z" />
<glyph unicode="&#xe2a7;" glyph-name="tree" d="M976 170.667h-16v208c0 61.756-50.242 112-112 112h-272v128h16c26.4 0 48 21.6 48 48v160c0 26.4-21.6 48-48 48h-160c-26.4 0-48-21.6-48-48v-160c0-26.4 21.6-48 48-48h16v-128h-272c-61.756 0-112-50.244-112-112v-208h-16c-26.4 0-48-21.6-48-48v-160c0-26.4 21.6-48 48-48h160c26.4 0 48 21.6 48 48v160c0 26.4-21.6 48-48 48h-16v192h256v-192h-16c-26.4 0-48-21.6-48-48v-160c0-26.4 21.6-48 48-48h160c26.4 0 48 21.6 48 48v160c0 26.4-21.6 48-48 48h-16v192h256v-192h-16c-26.4 0-48-21.6-48-48v-160c0-26.4 21.6-48 48-48h160c26.4 0 48 21.6 48 48v160c0 26.4-21.6 48-48 48z" />
<glyph unicode="&#xe2ab;" glyph-name="circle-small" d="M320 426.667c0 106.039 85.961 192 192 192s192-85.961 192-192c0-106.039-85.961-192-192-192s-192 85.961-192 192z" />
<glyph unicode="&#xe2af;" glyph-name="menu" d="M64 746.667h896v-192h-896zM64 490.667h896v-192h-896zM64 234.667h896v-192h-896z" />
<glyph unicode="&#xe36d;" glyph-name="close" d="M512 874.667c-247.422 0-448-200.576-448-448s200.578-448 448-448c247.424 0 448 200.576 448 448s-200.576 448-448 448zM781.256 247.923l-90.512-90.512-178.744 178.746-178.746-178.744-90.51 90.51 178.746 178.744-178.744 178.746 90.508 90.508 178.746-178.744 178.744 178.746 90.512-90.51-178.746-178.746 178.746-178.744z" />
<glyph unicode="&#xe36e;" glyph-name="close2" d="M761.256 267.923l-90.512-90.512-158.744 158.746-158.746-158.744-90.51 90.51 158.746 158.744-158.744 158.746 90.508 90.508 158.746-158.744 158.744 158.746 90.512-90.51-158.746-158.746 158.746-158.744zM512 790.667c-97.228 0-188.636-37.862-257.386-106.614-68.752-68.75-106.614-160.158-106.614-257.386s37.864-188.636 106.614-257.386c68.75-68.75 160.158-106.614 257.386-106.614s188.636 37.864 257.386 106.614c68.75 68.75 106.614 160.158 106.614 257.386s-37.864 188.636-106.614 257.386c-68.75 68.752-160.158 106.614-257.386 106.614zM512 874.667v0c247.424 0 448-200.576 448-448s-200.576-448-448-448c-247.422 0-448 200.576-448 448s200.578 448 448 448z" />
<glyph unicode="&#xe36f;" glyph-name="close3" d="M573.49 578.667l-16-16h-90.98l-16.002 16zM621.488 626.667h-218.98l-16 16h250.98zM589.49 594.667h-154.982l-16 16h186.98zM653.488 658.667h-282.98l-16 16h314.98zM498.51 530.667l-16 16h58.98l-16-16zM482.51 306.667l16 16h26.98l16-16zM418.508 242.667l16 16h154.982l15.998-16zM370.508 194.667h282.98l16-16h-314.98zM402.508 226.667h218.98l16-16h-250.98zM466.51 290.667h90.98l16-16h-122.982zM512 874.667c-247.422 0-448-200.576-448-448s200.578-448 448-448c247.424 0 448 200.576 448 448s-200.576 448-448 448zM896 426.667c0-2.672-0.042-5.336-0.098-8h-285.392l16-16h268.728c-0.328-5.356-0.756-10.69-1.3-16h-251.428l16-16h233.45c-0.778-5.364-1.686-10.694-2.686-16h-214.764l16.002-16h195.388c-1.252-5.368-2.606-10.706-4.086-16h-175.302l16-16h154.452c-1.764-5.378-3.656-10.71-5.656-16h-132.794l16-16h110.32c-2.322-5.388-4.772-10.722-7.342-16h-86.978l10.744-10.744-5.258-5.256h73.218c-2.958-5.402-6.046-10.736-9.272-16h-79.946l-16-16h85.592c-3.704-5.42-7.552-10.754-11.546-16h-90.046l-16-16h93.182c-4.62-5.442-9.388-10.784-14.334-16h-94.848l-5.256-5.256-5.256 5.256h-346.98l-5.254-5.254-5.254 5.254h-94.846c-4.946 5.216-9.716 10.558-14.334 16h93.18l-16 16h-90.044c-3.994 5.246-7.844 10.58-11.546 16h85.59l-16 16h-79.948c-3.224 5.264-6.314 10.598-9.272 16h73.22l-5.256 5.256 10.744 10.744h-86.978c-2.572 5.278-5.020 10.612-7.342 16h110.32l16 16h-132.794c-2 5.29-3.894 10.622-5.656 16h154.452l16 16h-175.304c-1.48 5.294-2.834 10.632-4.086 16h195.39l16 16h-214.766c-1 5.306-1.908 10.636-2.686 16h233.452l16 16h-251.426c-0.546 5.31-0.974 10.644-1.302 16h268.728l16 16h-285.392c-0.054 2.664-0.098 5.328-0.098 8s0.042 5.336 0.098 8h285.392l-16 16h-268.728c0.328 5.354 0.754 10.69 1.302 16h251.426l-16 16h-233.452c0.78 5.364 1.686 10.694 2.686 16h214.766l-16 16h-195.392c1.252 5.368 2.606 10.704 4.086 16h175.306l-16 16h-154.452c1.762 5.378 3.658 10.71 5.658 16h132.798l-16 16h-110.326c2.324 5.388 4.772 10.722 7.342 16h86.982l-10.746 10.746 5.254 5.254h-73.218c2.958 5.402 6.048 10.736 9.272 16h79.946l16 16h-85.59c3.702 5.42 7.552 10.754 11.546 16h90.044l16 16h-93.18c4.618 5.442 9.388 10.784 14.334 16h94.846l5.254 5.254 5.254-5.254h346.98l5.256 5.256 5.256-5.256h94.848c4.946-5.216 9.714-10.558 14.334-16h-93.182l16-16h90.042c3.994-5.246 7.846-10.58 11.546-16h-85.588l16-16h79.946c3.224-5.264 6.314-10.598 9.272-16h-73.216l5.254-5.254-10.746-10.746h86.978c2.572-5.278 5.022-10.612 7.344-16h-110.322l-16-16h132.796c2-5.29 3.892-10.622 5.656-16h-154.454l-16-16h175.304c1.48-5.296 2.834-10.632 4.086-16h-195.39l-16-16h214.766c1-5.306 1.908-10.636 2.686-16h-233.45l-16-16h251.428c0.544-5.31 0.972-10.646 1.3-16h-268.728l-16-16h285.392c0.056-2.664 0.098-5.328 0.098-8zM377.868 66.667c-12.578 4.68-24.9 10.010-36.918 16h342.1c-12.020-5.99-24.342-11.32-36.918-16h-268.264zM590.462 50.667c-25.534-5.274-51.788-8-78.462-8s-52.93 2.726-78.462 8h156.924zM312.084 98.667c-8.192 5.014-16.212 10.352-24.048 16h447.926c-7.834-5.648-15.854-10.986-24.046-16h-399.832zM267.348 130.667c-6.176 5.124-12.212 10.46-18.106 16h525.518c-5.894-5.54-11.93-10.876-18.108-16h-489.304zM646.132 786.667c12.576-4.678 24.898-10.010 36.918-16h-342.1c12.018 5.99 24.34 11.322 36.918 16h268.264zM433.538 802.667c25.534 5.274 51.788 8 78.462 8s52.93-2.726 78.462-8h-156.924zM711.916 754.667c8.194-5.014 16.212-10.35 24.046-16h-447.924c7.836 5.65 15.856 10.986 24.048 16h399.83zM756.652 722.667c6.178-5.124 12.212-10.46 18.108-16h-525.518c5.894 5.54 11.93 10.876 18.106 16h489.304z" />
<glyph unicode="&#xe370;" glyph-name="checkmark" d="M864 810.667l-480-480-224 224-160-160 384-384 640 640z" />
<glyph unicode="&#xe371;" glyph-name="checkmark2" d="M397.434 20.971l-397.868 391.6 197.378 194.27 200.49-197.332 429.62 422.852 197.378-194.27-626.998-617.12zM107.912 412.571l289.524-284.962 518.656 510.482-89.036 87.632-429.62-422.852-200.49 197.334-89.034-87.634z" />
<glyph unicode="&#xe466;" glyph-name="table" d="M0 874.667v-896h1024v896h-1024zM384 298.667v192h256v-192h-256zM640 234.667v-192h-256v192h256zM640 746.667v-192h-256v192h256zM320 746.667v-192h-256v192h256zM64 490.667h256v-192h-256v192zM704 490.667h256v-192h-256v192zM704 554.667v192h256v-192h-256zM64 234.667h256v-192h-256v192zM704 42.667v192h256v-192h-256z" />
<glyph unicode="&#xe4e2;" glyph-name="file-pdf" d="M842.012 349.187c-13.648 13.446-43.914 20.566-89.972 21.172-31.178 0.344-68.702-2.402-108.17-7.928-17.674 10.198-35.892 21.294-50.188 34.658-38.462 35.916-70.568 85.772-90.576 140.594 1.304 5.12 2.414 9.62 3.448 14.212 0 0 21.666 123.060 15.93 164.666-0.79 5.706-1.274 7.362-2.808 11.796l-1.882 4.834c-5.896 13.592-17.448 27.994-35.566 27.208l-10.916 0.344c-20.2 0-36.664-10.332-40.986-25.774-13.138-48.434 0.418-120.892 24.982-214.738l-6.288-15.286c-17.588-42.876-39.63-86.060-59.078-124.158l-2.528-4.952c-20.46-40.038-39.024-74.026-55.854-102.822l-17.376-9.188c-1.264-0.668-31.044-16.418-38.028-20.644-59.256-35.382-98.522-75.54-105.036-107.416-2.072-10.17-0.53-23.186 10.014-29.214l16.806-8.458c7.29-3.652 14.978-5.502 22.854-5.502 42.204 0 91.2 52.572 158.696 170.366 77.93 25.368 166.654 46.456 244.414 58.090 59.258-33.368 132.142-56.546 178.142-56.546 8.168 0 15.212 0.778 20.932 2.296 8.822 2.336 16.258 7.366 20.792 14.192 8.926 13.432 10.734 31.932 8.312 50.876-0.722 5.624-5.212 12.576-10.070 17.322zM211.646 124.619c7.696 21.042 38.16 62.644 83.204 99.556 2.832 2.296 9.808 8.832 16.194 14.902-47.102-75.124-78.646-105.066-99.398-114.458zM478.434 738.981c13.566 0 21.284-34.194 21.924-66.254s-6.858-54.56-16.158-71.208c-7.702 24.648-11.426 63.5-11.426 88.904 0 0-0.566 48.558 5.66 48.558zM398.852 301.173c9.45 16.916 19.282 34.756 29.33 53.678 24.492 46.316 39.958 82.556 51.478 112.346 22.91-41.684 51.444-77.12 84.986-105.512 4.184-3.542 8.618-7.102 13.274-10.65-68.21-13.496-127.164-29.91-179.068-49.862zM828.904 305.015c-4.154-2.598-16.054-4.1-23.708-4.1-24.706 0-55.272 11.294-98.126 29.666 16.468 1.218 31.562 1.838 45.1 1.838 24.782 0 32.12 0.108 56.35-6.072s24.538-18.734 20.384-21.332zM903.432 739.237l-142.864 142.862c-31.112 31.112-92.568 56.568-136.568 56.568h-480c-44 0-80-36-80-80v-864c0-44 36-80 80-80h736c44 0 80 36 80 80v608c0 44-25.456 105.458-56.568 136.57zM858.178 693.981c3.13-3.13 6.25-6.974 9.28-11.314h-163.458v163.456c4.34-3.030 8.184-6.15 11.314-9.28l142.864-142.862zM896-5.333c0-8.672-7.328-16-16-16h-736c-8.672 0-16 7.328-16 16v864c0 8.672 7.328 16 16 16h480c4.832 0 10.254-0.61 16-1.704v-254.296h254.296c1.094-5.746 1.704-11.166 1.704-16v-608z" />
<glyph unicode="&#xe4e4;" glyph-name="file-word" d="M639.778 462.775h44.212l-51.012-226.178-66.326 318.010h-106.55l-77.114-318.010-57.816 318.010h-111.394l113.092-511.882h108.838l76.294 302.708 68.256-302.708h100.336l129.63 511.882h-170.446zM903.432 739.237l-142.864 142.862c-31.112 31.112-92.568 56.568-136.568 56.568h-480c-44 0-80-36-80-80v-864c0-44 36-80 80-80h736c44 0 80 36 80 80v608c0 44-25.456 105.458-56.568 136.57zM858.178 693.981c3.13-3.13 6.25-6.974 9.28-11.314h-163.458v163.456c4.34-3.030 8.184-6.15 11.314-9.28l142.864-142.862zM896-5.333c0-8.672-7.328-16-16-16h-736c-8.672 0-16 7.328-16 16v864c0 8.672 7.328 16 16 16h480c4.832 0 10.254-0.61 16-1.704v-254.296h254.296c1.094-5.746 1.704-11.166 1.704-16v-608z" />
<glyph unicode="&#xe4e5;" glyph-name="file-excel" d="M743.028 554.667h-135.294l-95.732-141.032-95.74 141.032h-135.288l162.162-242.464-182.974-269.536h262.24v91.576h-60.556l50.156 74.994 111.396-166.57h140.442l-182.976 269.536zM903.432 739.237l-142.864 142.862c-31.112 31.112-92.568 56.568-136.568 56.568h-480c-44 0-80-36-80-80v-864c0-44 36-80 80-80h736c44 0 80 36 80 80v608c0 44-25.456 105.458-56.568 136.57zM858.178 693.981c3.13-3.13 6.25-6.974 9.28-11.314h-163.458v163.456c4.34-3.030 8.184-6.15 11.314-9.28l142.864-142.862zM896-5.333c0-8.672-7.328-16-16-16h-736c-8.672 0-16 7.328-16 16v864c0 8.672 7.328 16 16 16h480c4.832 0 10.254-0.61 16-1.704v-254.296h254.296c1.094-5.746 1.704-11.166 1.704-16v-608z" />
<glyph unicode="&#xe4e6;" glyph-name="file-zip" d="M416 810.667h96v-64h-96zM320 746.667h96v-64h-96zM416 682.667h96v-64h-96zM320 618.667h96v-64h-96zM416 554.667h96v-64h-96zM320 490.667h96v-64h-96zM416 426.667v-64h-96v-224c0-17.674 14.326-32 32-32h128c17.674 0 32 14.326 32 32v288h-96zM480 170.667h-128v64h128v-64zM903.432 739.237l-142.864 142.862c-31.112 31.112-92.568 56.568-136.568 56.568h-480c-44 0-80-36-80-80v-864c0-44 36-80 80-80h736c44 0 80 36 80 80v608c0 44-25.456 105.458-56.568 136.57zM858.178 693.981c3.13-3.13 6.25-6.974 9.28-11.314h-163.458v163.456c4.34-3.030 8.184-6.15 11.314-9.28l142.864-142.862zM896-5.333c0-8.672-7.328-16-16-16h-736c-8.672 0-16 7.328-16 16v864c0 8.672 7.328 16 16 16h480c4.832 0 10.254-0.61 16-1.704v-254.296h254.296c1.094-5.746 1.704-11.166 1.704-16v-608z" />
<glyph unicode="&#xe4e7;" glyph-name="file-powerpoint" d="M192 426.667h192v-64h-192v64zM192 298.667h192v-64h-192v64zM192 170.667h192v-64h-192v64zM903.432 739.237l-142.864 142.862c-31.112 31.112-92.568 56.568-136.568 56.568h-480c-44 0-80-36-80-80v-864c0-44 36-80 80-80h736c44 0 80 36 80 80v608c0 44-25.456 105.458-56.568 136.57zM858.178 693.981c3.13-3.13 6.25-6.974 9.28-11.314h-163.458v163.456c4.34-3.030 8.184-6.15 11.314-9.28l142.864-142.862zM896-5.333c0-8.672-7.328-16-16-16h-736c-8.672 0-16 7.328-16 16v864c0 8.672 7.328 16 16 16h480c4.832 0 10.254-0.61 16-1.704v-254.296h254.296c1.094-5.746 1.704-11.166 1.704-16v-608zM576 234.667h188.792c-14.826-73.032-79.386-128-156.792-128-88.366 0-160 71.634-160 160 0 77.406 54.97 141.966 128 156.792v-188.792zM672 490.667c88.366 0 160-71.634 160-160 0-10.958-1.108-21.66-3.208-32h-188.792v188.792c10.34 2.1 21.042 3.208 32 3.208z" />
<glyph unicode="&#xe4e8;" glyph-name="file-xml" d="M448 362.667l-64 64-192-192 192-192 64 64-128 128zM576 106.667l64-64 192 192-192 192-64-64 128-128zM903.432 739.237l-142.864 142.862c-31.112 31.112-92.568 56.568-136.568 56.568h-480c-44 0-80-36-80-80v-864c0-44 36-80 80-80h736c44 0 80 36 80 80v608c0 44-25.456 105.458-56.568 136.57zM858.178 693.981c3.13-3.13 6.25-6.974 9.28-11.314h-163.458v163.456c4.34-3.030 8.184-6.15 11.314-9.28l142.864-142.862zM896-5.333c0-8.672-7.328-16-16-16h-736c-8.672 0-16 7.328-16 16v864c0 8.672 7.328 16 16 16h480c4.832 0 10.254-0.61 16-1.704v-254.296h254.296c1.094-5.746 1.704-11.166 1.704-16v-608z" />
<glyph unicode="&#xe600;" glyph-name="cancel" d="M512 32c-229.76 0-416 186.24-416 416s186.24 416 416 416 416-186.24 416-416-186.24-416-416-416zM702.752 569.312c7.808 7.808 7.808 20.512 0 28.32l-42.496 42.464c-7.808 7.808-20.512 7.808-28.32 0l-120.352-120.352-120.352 120.352c-7.808 7.808-20.512 7.808-28.32 0l-42.496-42.464c-7.808-7.808-7.808-20.512 0-28.32l120.384-120.384-120.384-120.32c-7.808-7.808-7.808-20.512 0-28.32l42.496-42.496c7.808-7.808 20.512-7.808 28.32 0l120.352 120.384 120.352-120.384c7.808-7.808 20.512-7.808 28.32 0l42.496 42.496c7.808 7.808 7.808 20.512 0 28.32l-120.384 120.32 120.384 120.384z" />
<glyph unicode="&#xe601;" glyph-name="cancel2" d="M512 32c-229.76 0-416 186.24-416 416s186.24 416 416 416 416-186.24 416-416-186.24-416-416-416zM512 768c-176.704 0-320-143.296-320-320s143.296-320 320-320c176.736 0 320 143.296 320 320s-143.264 320-320 320zM657.184 334.88l-32.448-32.448c-5.952-5.952-15.616-5.952-21.6 0l-91.84 91.84-91.84-91.84c-5.984-5.952-15.616-5.952-21.6 0l-32.448 32.448c-5.952 5.952-5.952 15.616 0 21.6l91.872 91.808-91.872 91.84c-5.952 5.984-5.952 15.648 0 21.632l32.448 32.416c5.984 5.984 15.616 5.984 21.6 0l91.84-91.84 91.84 91.84c5.984 5.984 15.648 5.984 21.6 0l32.448-32.416c5.952-5.984 5.952-15.648 0-21.632l-91.872-91.84 91.872-91.808c5.952-5.984 5.952-15.68 0-21.6z" />
<glyph unicode="&#xe602;" glyph-name="plus" d="M496 16c-229.76 0-416 186.24-416 416s186.24 416 416 416 416-186.24 416-416-186.24-416-416-416zM702.016 449.984c0 17.664-14.336 32-32 32h-128v128c0 17.664-14.304 32-32 32h-32c-17.696 0-32-14.336-32-32v-128h-128c-17.696 0-32-14.336-32-32v-32c0-17.696 14.304-32 32-32h128v-128c0-17.696 14.304-32 32-32h32c17.696 0 32 14.304 32 32v128h128c17.664 0 32 14.304 32 32v32z" />
<glyph unicode="&#xe603;" glyph-name="plus2" d="M512 32c-229.76 0-416 186.24-416 416s186.24 416 416 416 416-186.24 416-416-186.24-416-416-416zM512 768c-176.704 0-320-143.264-320-320 0-176.704 143.296-320 320-320 176.736 0 320 143.296 320 320 0 176.736-143.264 320-320 320zM639.616 416h-96v-96c0-17.696-14.336-32-32-32-17.696 0-32 14.304-32 32v96h-96c-17.696 0-32 14.336-32 32s14.304 32 32 32h96v96c0 17.696 14.304 32 32 32 17.664 0 32-14.304 32-32v-96h96c17.664 0 32-14.336 32-32s-14.336-32-32-32z" />
<glyph unicode="&#xe604;" glyph-name="minus" d="M496 848c-229.76 0-416-186.24-416-416s186.24-416 416-416c229.76 0 416 186.24 416 416s-186.24 416-416 416zM704 420c0-17.696-14.336-32-32-32h-352c-17.696 0-32 14.304-32 32v32c0 17.664 14.304 32 32 32h352c17.664 0 32-14.336 32-32v-32z" />
<glyph unicode="&#xe605;" glyph-name="minus2" d="M512 864c-229.76 0-416-186.24-416-416s186.24-416 416-416 416 186.24 416 416-186.24 416-416 416zM512 128c-176.704 0-320 143.296-320 320 0 176.736 143.296 320 320 320 176.736 0 320-143.264 320-320 0-176.704-143.264-320-320-320zM631.616 480h-256c-17.696 0-32-14.336-32-32 0-17.696 14.304-32 32-32h256c17.696 0 32 14.304 32 32 0 17.664-14.304 32-32 32z" />
<glyph unicode="&#xe607;" glyph-name="bank2" d="M960 512h-128v-448h-128v448h-128v-448h-128v448h-128v-448h-128v448h-128v-512h-64v-64h1024v64h-64v512zM544 960h-64l-480-320v-64h1024v64l-480 320zM512 704c-35.346 0-64 28.654-64 64s28.654 64 64 64 64-28.654 64-64-28.654-64-64-64z" />
<glyph unicode="&#xe608;" glyph-name="download" horiz-adv-x="1120" d="M941.632 462.88c0 0 20.736 279.776-235.552 311.68-219.712 22.432-286.56-181.728-286.56-181.728s-66.144 63.616-155.936 11.648c-80.32-49.6-66.144-140.416-66.144-140.416s-178.432-34.656-178.432-216.576c4-181.664 193.76-183.488 193.76-183.488h363.232l-160 160h96v192h128v-192h96l-160-160h334.944c0 0 176.64-0.192 201.44 172.64 11.808 188.992-170.752 226.24-170.752 226.24z" />
<glyph unicode="&#xe609;" glyph-name="cloud-upload" d="M512 416l-224-224h160v-192h128v192h160l-224 224zM892.216 445.458c2.49 11.29 3.784 22.87 3.784 34.542 0 88.224-71.776 160-160 160-13.956 0-27.796-1.83-41.164-5.378-24.838 77.286-97.404 133.378-182.836 133.378-86.654 0-160.886-58.042-184.312-138.118-22.982 6.66-47.052 10.118-71.688 10.118-141.158 0-256-114.84-256-256 0-61.986 22.444-121.798 63.2-168.42 40.354-46.164 95.852-76.346 156.266-84.988 1.538-0.218 3.064-0.326 4.572-0.326 15.666 0 29.354 11.514 31.638 27.472 2.502 17.496-9.652 33.708-27.146 36.208-45.262 6.474-86.864 29.116-117.144 63.754-30.558 34.956-47.386 79.81-47.386 126.3 0 105.87 86.13 192 192 192 52.024 0 100.73-20.466 137.146-57.63 12.368-12.624 32.63-12.83 45.252-0.458 12.624 12.37 12.83 32.628 0.458 45.252-15.676 15.998-33.070 29.66-51.76 40.848 12.84 57.42 64.304 99.988 124.904 99.988 70.58 0 128-57.42 128-128 0-8.706-0.876-17.398-2.602-25.832-3.542-17.316 7.624-34.222 24.938-37.764 2.164-0.444 4.32-0.656 6.448-0.656 14.884 0 28.218 10.442 31.318 25.592 2.218 10.854 3.494 21.972 3.812 33.126 10.244 3.624 21.096 5.534 32.086 5.534 52.936 0 96-43.066 96-96 0-10.964-1.88-21.784-5.484-32h-26.516c-17.674 0-32-14.326-32-32s14.326-32 32-32h64c52.934 0 96-43.066 96-96s-43.066-96-96-96h-64c-17.674 0-32-14.326-32-32s14.326-32 32-32h64c88.224 0 160 71.776 160 160 0 78.594-56.976 144.086-131.784 157.458z" />
<glyph unicode="&#xe60a;" glyph-name="cloud-download" d="M576 384h-128v-192h-160l224-224 224 224h-160zM892.216 445.458c2.49 11.29 3.784 22.87 3.784 34.542 0 88.224-71.776 160-160 160-13.956 0-27.796-1.83-41.164-5.378-24.838 77.286-97.404 133.378-182.836 133.378-86.654 0-160.886-58.042-184.312-138.118-22.982 6.66-47.052 10.118-71.688 10.118-141.158 0-256-114.84-256-256 0-61.986 22.444-121.798 63.2-168.42 40.354-46.164 95.852-76.346 156.266-84.988 1.538-0.218 3.064-0.326 4.572-0.326 15.666 0 29.354 11.514 31.638 27.472 2.502 17.496-9.652 33.708-27.146 36.208-45.262 6.474-86.864 29.116-117.144 63.754-30.558 34.956-47.386 79.81-47.386 126.3 0 105.87 86.13 192 192 192 52.024 0 100.73-20.466 137.146-57.63 12.368-12.624 32.63-12.83 45.252-0.458 12.624 12.37 12.83 32.628 0.458 45.252-15.676 15.998-33.070 29.66-51.76 40.848 12.84 57.42 64.304 99.988 124.904 99.988 70.58 0 128-57.42 128-128 0-8.706-0.876-17.398-2.602-25.832-3.542-17.316 7.624-34.222 24.938-37.764 2.164-0.444 4.32-0.656 6.448-0.656 14.884 0 28.218 10.442 31.318 25.592 2.218 10.854 3.494 21.972 3.812 33.126 10.244 3.624 21.096 5.534 32.086 5.534 52.936 0 96-43.066 96-96 0-10.964-1.88-21.784-5.484-32h-26.516c-17.674 0-32-14.326-32-32s14.326-32 32-32h64c52.934 0 96-43.066 96-96s-43.066-96-96-96h-64c-17.674 0-32-14.326-32-32s14.326-32 32-32h64c88.224 0 160 71.776 160 160 0 78.594-56.976 144.086-131.784 157.458z" />
<glyph unicode="&#xe60b;" glyph-name="arrow-back" d="M853.333 469.334h-519.253l238.293 238.293-60.373 60.373-341.333-341.333 341.333-341.333 60.373 60.373-238.293 238.293h519.253v85.333z" />
<glyph unicode="&#xe60c;" glyph-name="cog" d="M1024 351.906v192.188l-146.774 24.462c-5.958 18.132-13.222 35.668-21.694 52.5l86.454 121.034-135.896 135.898-120.826-86.304c-16.91 8.554-34.538 15.888-52.768 21.902l-24.402 146.414h-192.188l-24.402-146.416c-18.23-6.014-35.858-13.348-52.766-21.902l-120.828 86.304-135.898-135.898 86.454-121.036c-8.47-16.83-15.734-34.366-21.692-52.498l-146.774-24.46v-192.188l147.118-24.52c5.96-17.968 13.21-35.348 21.642-52.030l-86.748-121.448 135.898-135.896 121.654 86.894c16.602-8.35 33.89-15.528 51.764-21.434l24.578-147.472h192.188l24.578 147.474c17.874 5.906 35.162 13.084 51.766 21.432l121.652-86.892 135.896 135.896-86.744 121.446c8.432 16.682 15.678 34.062 21.64 52.032l147.118 24.518zM512 320c-70.692 0-128 57.306-128 128 0 70.692 57.308 128 128 128 70.694 0 128-57.308 128-128 0-70.694-57.306-128-128-128z" />
<glyph unicode="&#xe60d;" glyph-name="bubble" horiz-adv-x="1008" d="M398.441 717.222c0-72.467-58.69-131.293-131.295-131.293s-131.293 58.69-131.293 131.293 58.69 131.293 131.293 131.293 131.295-58.827 131.295-131.293zM398.441 312.457c0-72.467-58.69-131.295-131.295-131.295s-131.293 58.69-131.293 131.295 58.69 131.293 131.293 131.293 131.295-58.965 131.295-131.293zM907.637 508.501c0-72.467-58.69-131.293-131.293-131.293s-131.293 58.69-131.293 131.293 58.69 131.293 131.293 131.293 131.293-58.827 131.293-131.293zM447.076 358.195l182.131 82.248zM433.159 645.995l167.665-63.235zM267.148 160.497c-83.764 0-151.959 68.196-151.959 151.959s68.196 151.959 151.959 151.959c83.764 0 151.959-68.196 151.959-151.959s-68.196-151.959-151.959-151.959zM267.148 422.947c-61.032 0-110.628-49.596-110.628-110.628s49.596-110.628 110.628-110.628c61.032 0 110.628 49.596 110.628 110.628s-49.596 110.628-110.628 110.628zM455.616 339.46l-16.946 37.611 182.131 82.248 16.946-37.611-182.131-82.248zM776.48 356.543c-83.764 0-151.959 68.196-151.959 151.959s68.196 151.959 151.959 151.959c83.764 0 151.959-68.196 151.959-151.959-0.137-83.764-68.196-151.959-151.959-151.959zM776.48 618.992c-61.032 0-110.628-49.596-110.628-110.628s49.596-110.628 110.628-110.628c61.032 0 110.628 49.596 110.628 110.628-0.137 61.032-49.735 110.628-110.628 110.628zM593.523 563.472l-167.665 63.235 14.603 38.713 167.665-63.374-14.603-38.575zM267.148 565.263c-83.764 0-151.959 68.196-151.959 151.959s68.196 151.959 151.959 151.959c83.764 0 151.959-68.196 151.959-151.959s-68.196-151.959-151.959-151.959zM267.148 827.713c-61.032 0-110.628-49.596-110.628-110.628s49.596-110.628 110.628-110.628c61.032 0 110.628 49.596 110.628 110.628s-49.596 110.628-110.628 110.628z" />
<glyph unicode="&#xe60e;" glyph-name="timeline" d="M362.5 486.167c0-90.2-73.1-163.4-163.4-163.4s-163.4 73.1-163.4 163.4 73.1 163.4 163.4 163.4 163.4-73.1 163.4-163.4zM977.9 486.167c0-90.2-73.1-163.4-163.4-163.4s-163.4 73.1-163.4 163.4 73.1 163.4 163.4 163.4 163.4-73.1 163.4-163.4zM477.6 347.267l-23.4 14.4 64.1 104.3-61.5 101.7 23.5 14.2 70.2-116-72.9-118.6z" />
<glyph unicode="&#xe60f;" glyph-name="external" d="M803.84 393.387c8.192 0 15.36-3.072 21.163-8.875 6.144-6.144 8.875-12.971 8.875-21.163v-242.347c0-25.259-8.875-46.763-26.624-64.512s-39.253-26.624-64.512-26.624h-544.768c-25.259 0-46.763 8.875-64.512 26.624s-26.624 39.253-26.624 64.512v544.768c0 25.259 8.875 46.763 26.624 64.512s39.253 26.624 64.512 26.624h242.347c8.192 0 15.36-3.072 21.163-8.875 6.144-6.144 8.875-12.971 8.875-21.163s-3.072-15.36-8.875-21.163c-6.144-6.144-12.971-8.875-21.163-8.875h-242.347c-8.192 0-15.36-3.072-21.163-8.875-6.144-6.144-8.875-12.971-8.875-21.163v-545.451c0-8.192 3.072-15.36 8.875-21.163 6.144-6.144 12.971-8.875 21.163-8.875h545.451c8.192 0 15.36 3.072 21.163 8.875 6.144 6.144 8.875 12.971 8.875 21.163v242.347c0 8.192 2.731 15.36 8.875 21.163 5.803 5.461 12.971 8.533 21.504 8.533zM710.656 878.080h244.736v-244.736c0-8.192-3.072-15.36-8.875-21.163-6.144-6.144-12.971-8.875-21.163-8.875-8.192 0.341-15.36 3.413-21.163 9.557s-8.875 12.971-8.875 20.821v140.629l-356.011-354.987c-6.144-6.144-12.971-8.875-21.163-8.875s-15.36 3.072-21.163 8.875c-6.144 6.144-8.875 12.971-8.875 21.163s3.072 15.36 8.875 21.163l354.987 355.328h-140.971c-7.851 0-15.019 3.072-21.163 8.875-6.144 6.144-9.216 12.971-9.216 21.163s3.072 15.36 8.875 21.163c5.803 6.827 12.971 9.899 21.163 9.899z" />
<glyph unicode="&#xe610;" glyph-name="change" d="M832 416v256h-128v-256h-128v480h-160v-480h-160v160h-128v-160h-96v-64h224v-128h128v128h192v-352h128v352h256v64z" />
<glyph unicode="&#xe611;" glyph-name="view-check" d="M768 608v-64h160v-416h-832v416h64v64h-128v-544h960v544zM512 416h288v-64h-288v64zM384 320h416v-64h-416v64zM246.4 380.8l86.4 86.4c35.2-22.4 73.6-35.2 118.4-35.2 121.6 0 220.8 99.2 220.8 220.8s-99.2 220.8-220.8 220.8-220.8-99.2-220.8-220.8c0-44.8 12.8-83.2 35.2-118.4l-86.4-86.4c-6.4-6.4-6.4-16 0-22.4l44.8-44.8c6.4-6.4 16-6.4 22.4 0zM294.4 652.8c0 86.4 70.4 156.8 156.8 156.8s156.8-70.4 156.8-156.8-70.4-156.8-156.8-156.8-156.8 70.4-156.8 156.8z" />
<glyph unicode="&#xe612;" glyph-name="info" d="M448 656c0 26.4 21.6 48 48 48h32c26.4 0 48-21.6 48-48v-32c0-26.4-21.6-48-48-48h-32c-26.4 0-48 21.6-48 48v32zM640 192h-256v64h64v192h-64v64h192v-256h64zM512 960c-282.77 0-512-229.23-512-512s229.23-512 512-512 512 229.23 512 512-229.23 512-512 512zM512 32c-229.75 0-416 186.25-416 416s186.25 416 416 416 416-186.25 416-416-186.25-416-416-416z" />
<glyph unicode="&#xe613;" glyph-name="arrow-up" d="M0 288l64-64 448 448 448-448 64 64-511.998 512-512.002-512z" />
<glyph unicode="&#xe614;" glyph-name="arrow-down" d="M1024 608l-64 64-448-448-448 448-64-64 511.998-512 512.002 512z" />
<glyph unicode="&#xe615;" glyph-name="search" d="M992.262 88.604l-242.552 206.294c-25.074 22.566-51.89 32.926-73.552 31.926 57.256 67.068 91.842 154.078 91.842 249.176 0 212.078-171.922 384-384 384-212.076 0-384-171.922-384-384s171.922-384 384-384c95.098 0 182.108 34.586 249.176 91.844-1-21.662 9.36-48.478 31.926-73.552l206.294-242.552c35.322-39.246 93.022-42.554 128.22-7.356s31.892 92.898-7.354 128.22zM384 320c-141.384 0-256 114.616-256 256s114.616 256 256 256 256-114.616 256-256-114.614-256-256-256z" />
<glyph unicode="&#xe616;" glyph-name="gte" d="M192.4 111h656.4v-71h-656.4v71zM820.2 497l-587-302.4v87.2l494.6 248v2.6l-494.6 248v87.2l587-302.4v-68.2z" />
<glyph unicode="&#xe617;" glyph-name="arrow-download" d="M320 960h384v-64h-384zM320 832h384v-64h-384zM320 704h384v-64h-384zM512-64l448 448h-256v192h-384v-192h-256z" />
<glyph unicode="&#xe618;" glyph-name="embed" horiz-adv-x="1280" d="M832 224l96-96 320 320-320 320-96-96 224-224zM448 672l-96 96-320-320 320-320 96 96-224 224zM701.298 809.481l69.468-18.944-191.987-704.026-69.468 18.944 191.987 704.026z" />
<glyph unicode="&#xe619;" glyph-name="lte" d="M192.4 111h656.4v-71h-656.4v71zM221 497v68.2l587 302.4v-87.2l-494.6-248v-2.6l494.6-248v-87.2l-587 302.4z" />
<glyph unicode="&#xe61a;" glyph-name="calendar" d="M320 576h128v-128h-128zM512 576h128v-128h-128zM704 576h128v-128h-128zM128 192h128v-128h-128zM320 192h128v-128h-128zM512 192h128v-128h-128zM320 384h128v-128h-128zM512 384h128v-128h-128zM704 384h128v-128h-128zM128 384h128v-128h-128zM832 960v-64h-128v64h-448v-64h-128v64h-128v-1024h960v1024h-128zM896 0h-832v704h832v-704z" />
<glyph unicode="&#xe900;" glyph-name="assault" d="M682.667 780.8c-8.533 0-64-29.867-72.533-34.133l-55.467-29.867 59.733-76.8 93.867 64c25.6 12.8 29.867 42.667 17.067 59.733-8.533 12.8-25.6 17.067-42.667 17.067zM460.8 759.467c-29.867 0-59.733-12.8-85.333-34.133l-149.333-89.6c-76.8-55.467-115.2-234.667-89.6-281.6 29.867-68.267 72.533-136.533 119.467-209.067 21.333-34.133 76.8-38.4 110.933-25.6l337.067 110.933c-51.2 12.8-76.8 51.2-64 110.933-64 8.533-55.467 76.8-34.133 119.467 4.267 12.8 0 21.333-12.8 25.6-17.067 0-55.467 21.333-64 29.867l-68.267 81.067c0-4.267 0-17.067 0-25.6-12.8-89.6-38.4-179.2-106.667-256-21.333-21.333-38.4-25.6-64-38.4-8.533-4.267-17.067-4.267-21.333 4.267s0 17.067 4.267 21.333c187.733 162.133 128 268.8 157.867 307.2 8.533 17.067 25.6 29.867 51.2 21.333 34.133-29.867 55.467-68.267 85.333-93.867 34.133-34.133 85.333 0 64 38.4l-119.467 157.867c-17.067 17.067-34.133 25.6-51.2 25.6zM755.2 674.133c-8.533 0-21.333-4.267-29.867-8.533l-85.333-51.2 25.6-38.4c-29.867-55.467 0-64 29.867-46.933l81.067 51.2c25.6 17.067 34.133 46.933 21.333 72.533v0c-12.8 12.8-25.6 21.333-42.667 21.333zM819.2 546.133c-8.533 0-21.333 0-29.867-8.533l-140.8-72.533c-25.6-12.8-38.4-46.933-25.6-68.267 12.8-25.6 46.933-29.867 72.533-17.067l140.8 72.533c25.6 12.8 38.4 46.933 25.6 68.267-8.533 12.8-25.6 25.6-42.667 25.6zM849.067 405.333c-8.533 0-21.333 0-29.867-4.267l-115.2-51.2c-25.6-12.8-38.4-42.667-29.867-68.267 12.8-25.6 42.667-34.133 72.533-21.333l115.2 51.2c25.6 12.8 38.4 42.667 25.6 68.267-4.267 12.8-21.333 25.6-38.4 25.6z" />
<glyph unicode="&#xe901;" glyph-name="breaking-and-entering" d="M691.2 392.533l187.733 119.467-179.2 21.333 51.2 213.333-128-132.267-34.133 153.6-55.467-140.8-153.6 183.467 46.933-238.933-132.267 29.867c0 0 38.4-76.8 64-123.733l-213.333 12.8 192-110.933-55.467-55.467 89.6 17.067-64-221.867 187.733 157.867 46.933-119.467 51.2 98.133 162.133-166.4-81.067 221.867 179.2-17.067-162.133 98.133z" />
<glyph unicode="&#xe902;" glyph-name="close4" d="M755.2 145.067l59.733 59.733-243.2 243.2 243.2 243.2-59.733 59.733-243.2-243.2-243.2 243.2-59.733-59.733 243.2-243.2-243.2-243.2 59.733-59.733 243.2 243.2 243.2-243.2z" />
<glyph unicode="&#xe903;" glyph-name="contract" d="M759.467 302.933l-46.933-46.933-192 192 192 192 46.933-46.933-149.333-145.067 149.333-145.067zM354.133 448l145.067 145.067-46.933 46.933-187.733-192 192-192 46.933 46.933-149.333 145.067z" />
<glyph unicode="&#xe904;" glyph-name="email-reverse" d="M942.933 960h-853.333c-46.933 0-89.6-34.133-89.6-81.067v-857.6c0-42.667 42.667-85.333 89.6-85.333h853.333c46.933 0 81.067 42.667 81.067 89.6v853.333c0 46.933-34.133 81.067-81.067 81.067zM200.533 661.333h627.2c17.067 0 21.333-4.267 17.067-17.067-4.267-8.533-12.8-12.8-21.333-17.067-17.067-8.533-268.8-149.333-277.333-153.6s-17.067-8.533-34.133-8.533-25.6 4.267-34.133 8.533c-8.533 4.267-256 145.067-277.333 153.6-4.267 4.267-17.067 8.533-17.067 17.067-4.267 12.8 0 17.067 17.067 17.067zM853.333 268.8c0-17.067-17.067-34.133-34.133-34.133h-610.133c-17.067 0-38.4 21.333-38.4 34.133 0 0 0 332.8 0 341.333s0 17.067 17.067 8.533c12.8-8.533 136.533-93.867 213.333-145.067l-136.533-153.6c-4.267-4.267-4.267-8.533-4.267-8.533s8.533 0 8.533 4.267l162.133 140.8c25.6-17.067 42.667-25.6 42.667-29.867 12.8-8.533 21.333-8.533 34.133-8.533s21.333 0 34.133 8.533c4.267 0 21.333 12.8 42.667 29.867l162.133-140.8c4.267-4.267 8.533-4.267 8.533-4.267s0 4.267-4.267 8.533l-136.533 153.6c81.067 51.2 200.533 140.8 213.333 145.067 25.6 8.533 25.6 0 25.6-8.533 0-4.267 0-341.333 0-341.333z" />
<glyph unicode="&#xe905;" glyph-name="email" d="M200.533 661.333h627.2c17.067 0 21.333-4.267 17.067-17.067-4.267-8.533-12.8-12.8-21.333-17.067-17.067-8.533-268.8-149.333-277.333-153.6s-17.067-8.533-34.133-8.533-25.6 4.267-34.133 8.533c-8.533 4.267-256 145.067-277.333 153.6-4.267 4.267-17.067 8.533-17.067 17.067-4.267 12.8 0 17.067 17.067 17.067zM853.333 268.8c0-17.067-17.067-34.133-34.133-34.133h-610.133c-17.067 0-38.4 21.333-38.4 34.133 0 0 0 332.8 0 341.333s0 17.067 17.067 8.533c12.8-8.533 136.533-93.867 213.333-145.067l-136.533-153.6c-4.267-4.267-4.267-8.533-4.267-8.533s8.533 0 8.533 4.267l162.133 140.8c25.6-17.067 42.667-25.6 42.667-29.867 12.8-8.533 21.333-8.533 34.133-8.533s21.333 0 34.133 8.533c4.267 0 21.333 12.8 42.667 29.867l162.133-140.8c4.267-4.267 8.533-4.267 8.533-4.267s0 4.267-4.267 8.533l-136.533 153.6c81.067 51.2 200.533 140.8 213.333 145.067 25.6 8.533 25.6 0 25.6-8.533 0-4.267 0-341.333 0-341.333z" />
<glyph unicode="&#xe906;" glyph-name="emergency" d="M768 524.8h-179.2v179.2h-153.6v-179.2h-179.2v-153.6h179.2v-179.2h153.6v179.2h179.2z" />
<glyph unicode="&#xe907;" glyph-name="expand" d="M413.867 448l-149.333 145.067 46.933 46.933 192-192-192-192-46.933 46.933 149.333 145.067zM520.533 302.933l46.933-46.933 192 192-192 192-46.933-46.933 145.067-145.067-145.067-145.067z" />
<glyph unicode="&#xe908;" glyph-name="facebook-reverse" d="M942.933 960h-853.333c-46.933 0-89.6-34.133-89.6-81.067v-857.6c0-42.667 42.667-85.333 89.6-85.333h439.467v426.667h-102.4v140.8h98.133v98.133c0 119.467 51.2 187.733 200.533 187.733h128v-140.8h-72.533c-59.733 0-68.267-21.333-68.267-55.467v-85.333h140.8l-17.067-145.067h-123.733v-426.667h230.4c46.933 0 81.067 42.667 81.067 89.6v853.333c0 46.933-34.133 81.067-81.067 81.067z" />
<glyph unicode="&#xe909;" glyph-name="facebook" d="M524.8-64v426.667h-98.133v140.8h98.133v98.133c0 119.467 51.2 187.733 200.533 187.733h128v-140.8h-72.533c-59.733 0-68.267-21.333-68.267-55.467v-85.333h140.8l-17.067-145.067h-123.733v-426.667h-187.733z" />
<glyph unicode="&#xe90a;" glyph-name="fire" d="M516.267 68.267c337.067 29.867 204.8 460.8 145.067 563.2-68.267 115.2-157.867 192-157.867 192 25.6-174.933-46.933-298.667-46.933-298.667l-76.8 93.867c-25.6-213.333-140.8-298.667-68.267-430.933s204.8-119.467 204.8-119.467zM473.6 396.8l29.867-38.4c0 0 68.267 98.133 55.467 174.933 0 0 42.667-59.733 59.733-115.2s59.733-251.733-89.6-264.533c0 0-59.733-4.267-89.6 51.2-29.867 64 21.333 98.133 34.133 192z" />
<glyph unicode="&#xe90b;" glyph-name="google-reverse" d="M942.933 960h-853.333c-46.933 0-89.6-34.133-89.6-81.067v-857.6c0-42.667 42.667-85.333 89.6-85.333h853.333c46.933 0 81.067 42.667 81.067 89.6v853.333c0 46.933-34.133 81.067-81.067 81.067zM733.867 640c0-81.067-51.2-119.467-89.6-149.333v0c-12.8-12.8-21.333-21.333-21.333-34.133s8.533-21.333 21.333-29.867v0l38.4-25.6c42.667-34.133 89.6-72.533 89.6-149.333 0-98.133-93.867-196.267-277.333-196.267-157.867 0-230.4 76.8-230.4 153.6 0 21.333 4.267 85.333 85.333 132.267 55.467 29.867 123.733 42.667 170.667 42.667-8.533 12.8-17.067 29.867-17.067 51.2 0 8.533 0 12.8 4.267 21.333-4.267 0-4.267 0-8.533 0-38.4 0-89.6 8.533-132.267 51.2-42.667 29.867-59.733 72.533-59.733 115.2 0 51.2 25.6 106.667 68.267 140.8v0c64 51.2 136.533 55.467 187.733 55.467h268.8l-119.467-64h-25.6c21.333-25.6 46.933-59.733 46.933-115.2zM550.4 324.267c-12.8 0-64-4.267-98.133-12.8-34.133-12.8-76.8-34.133-76.8-85.333 0-59.733 64-102.4 162.133-102.4 81.067 0 132.267 34.133 132.267 89.6 0 38.4-25.6 64-98.133 110.933-8.533 0-12.8 0-21.333 0zM593.067 533.333c21.333 21.333 21.333 51.2 21.333 59.733 0 34.133-12.8 76.8-29.867 106.667-12.8 25.6-42.667 55.467-81.067 55.467-21.333 0-46.933-8.533-59.733-25.6-12.8-12.8-17.067-34.133-17.067-59.733s8.533-68.267 29.867-102.4c12.8-25.6 38.4-55.467 81.067-55.467 17.067 0 42.667 8.533 55.467 21.333z" />
<glyph unicode="&#xe90c;" glyph-name="google" d="M678.4 396.8l-38.4 29.867c-12.8 8.533-21.333 17.067-21.333 29.867s8.533 25.6 21.333 34.133v0c38.4 29.867 89.6 68.267 89.6 149.333 0 55.467-25.6 89.6-46.933 115.2h25.6l119.467 64h-268.8c-51.2 0-123.733-8.533-187.733-55.467v0c-42.667-34.133-68.267-89.6-68.267-140.8 0-42.667 17.067-85.333 46.933-115.2 42.667-42.667 98.133-51.2 132.267-51.2 4.267 0 4.267 0 8.533 0 0-4.267-4.267-12.8-4.267-21.333 0-21.333 8.533-38.4 17.067-51.2-46.933-4.267-115.2-12.8-170.667-42.667-76.8-46.933-85.333-110.933-85.333-132.267 0-76.8 72.533-153.6 230.4-153.6 183.467 0 277.333 98.133 277.333 196.267 12.8 72.533-34.133 110.933-76.8 145.067zM452.267 567.467c-21.333 34.133-25.6 76.8-25.6 102.4s4.267 46.933 17.067 59.733c12.8 17.067 38.4 25.6 59.733 25.6 38.4 0 64-29.867 81.067-55.467 17.067-29.867 29.867-72.533 29.867-106.667 0-8.533 0-38.4-21.333-59.733-12.8-12.8-38.4-21.333-55.467-21.333-42.667 0-68.267 29.867-85.333 55.467zM537.6 123.733c-98.133 0-162.133 42.667-162.133 102.4 0 51.2 42.667 72.533 76.8 85.333 38.4 12.8 89.6 12.8 98.133 12.8s12.8 0 17.067 0c72.533-51.2 98.133-72.533 98.133-110.933 4.267-55.467-46.933-89.6-128-89.6z" />
<glyph unicode="&#xe90d;" glyph-name="homicide" d="M891.733 256c4.267-21.333-12.8-38.4-29.867-38.4s-38.4 12.8-38.4 29.867l-17.067 153.6-123.733 51.2 68.267-123.733c4.267-8.533 4.267-21.333 4.267-29.867l-72.533-192c-4.267-12.8-17.067-21.333-34.133-21.333-4.267 0-8.533 0-12.8 4.267-17.067 8.533-25.6 25.6-21.333 46.933l64 162.133-85.333 115.2-187.733 149.333-115.2-29.867c-4.267 0-8.533 0-8.533 0-12.8-4.267-21.333 0-25.6 4.267l-110.933 93.867c-12.8 12.8-17.067 34.133-4.267 46.933s34.133 17.067 51.2 4.267l93.867-81.067c0 0 123.733 21.333 170.667 51.2s149.333 81.067 149.333 81.067c8.533 17.067 21.333 17.067 34.133 12.8l149.333-68.267c21.333-8.533 29.867-29.867 21.333-46.933s-29.867-25.6-46.933-17.067l-128 55.467-55.467-29.867 85.333-68.267 174.933-110.933c17.067-4.267 25.6-17.067 29.867-29.867l21.333-174.933zM482.133 729.6c0-42.667-34.133-76.8-76.8-76.8s-76.8 34.133-76.8 76.8c0 42.667 34.133 76.8 76.8 76.8 42.667 4.267 76.8-34.133 76.8-76.8z" />
<glyph unicode="&#xe90e;" glyph-name="kidnapping" d="M823.467 832c-21.333 0-55.467-17.067-55.467-42.667v-157.867c4.267 0 21.333-8.533 29.867-17.067 21.333-21.333 21.333-64 0-85.333l-76.8-85.333-21.333 21.333 64 72.533c17.067 17.067 25.6 42.667 4.267 64-4.267 4.267-17.067 8.533-25.6 8.533-25.6 0-46.933-25.6-51.2-34.133-46.933-46.933-68.267-68.267-115.2-115.2-12.8-12.8-21.333-42.667-21.333-72.533 0-25.6 0-51.2 0-76.8-4.267 4.267-12.8 8.533-21.333 8.533-25.6 4.267-46.933-8.533-55.467-29.867h-8.533c0 4.267 0 12.8 0 21.333 0 25.6 0 51.2 0 76.8s-8.533 59.733-21.333 72.533c-46.933 46.933-68.267 68.267-115.2 115.2-4.267 8.533-25.6 34.133-51.2 34.133-8.533 0-21.333-4.267-25.6-8.533-21.333-21.333-12.8-46.933 4.267-64l64-72.533-21.333-17.067-76.8 85.333c-21.333 21.333-21.333 64 0 85.333 12.8 4.267 25.6 12.8 29.867 12.8v157.867c0 21.333-34.133 42.667-55.467 42.667s-51.2-17.067-51.2-42.667v-290.133c0-8.533 4.267-17.067 8.533-25.6l166.4-183.467h-12.8c-25.6 0-51.2-21.333-51.2-51.2 0-17.067 8.533-34.133 25.6-42.667-12.8-8.533-25.6-25.6-25.6-42.667 0-25.6 21.333-51.2 51.2-51.2h17.067v-29.867h136.533c8.533-8.533 17.067-12.8 25.6-12.8 4.267 0 4.267 0 8.533 0 25.6 0 42.667 17.067 46.933 42.667v0h8.533c0-8.533 0-17.067 0-29.867h140.8v34.133h17.067c25.6 0 51.2 21.333 51.2 51.2 0 17.067-8.533 34.133-25.6 42.667 12.8 8.533 25.6 25.6 25.6 42.667 0 25.6-21.333 51.2-51.2 51.2h-12.8l166.4 183.467c4.267 8.533 8.533 17.067 8.533 25.6v285.867c0 25.6-29.867 42.667-51.2 42.667zM452.267 132.267h-140.8c-12.8 0-25.6 12.8-25.6 25.6s12.8 25.6 25.6 25.6h149.333l-8.533-51.2zM311.467 213.333c-12.8 0-25.6 12.8-25.6 25.6s12.8 25.6 25.6 25.6h162.133l-8.533-51.2h-153.6zM524.8 110.933c-4.267-12.8-17.067-21.333-29.867-21.333-8.533 0-12.8 4.267-17.067 8.533s-4.267 12.8-4.267 17.067l25.6 157.867c0 12.8 12.8 21.333 25.6 21.333 0 0 4.267 0 4.267 0 12.8-4.267 21.333-17.067 21.333-29.867l-25.6-153.6zM738.133 157.867c0-12.8-12.8-25.6-25.6-25.6h-162.133l8.533 51.2h153.6c12.8-4.267 25.6-12.8 25.6-25.6zM712.533 264.533c12.8 0 25.6-12.8 25.6-25.6s-12.8-25.6-25.6-25.6h-145.067l8.533 46.933c0 0 0 0 0 0h136.533z" />
<glyph unicode="&#xe90f;" glyph-name="locate" d="M840.533 486.4c-17.067 153.6-140.8 273.067-290.133 290.133v55.467h-72.533v-55.467c-153.6-17.067-273.067-140.8-290.133-290.133h-59.733v-72.533h55.467c17.067-153.6 140.8-273.067 290.133-290.133v-59.733h72.533v55.467c153.6 17.067 273.067 140.8 290.133 290.133h59.733v72.533l-55.467 4.267zM512 192c-140.8 0-256 115.2-256 256s115.2 256 256 256c140.8 0 256-115.2 256-256s-115.2-256-256-256z" />
<glyph unicode="&#xe910;" glyph-name="minus3" d="M853.333 405.333v85.333h-682.667v-85.333h682.667z" />
<glyph unicode="&#xe911;" glyph-name="other" d="M785.067 371.2l-136.533 76.8 136.533 76.8c34.133 17.067 42.667 59.733 25.6 93.867s-59.733 42.667-93.867 25.6l-136.533-76.8v157.867c0 38.4-29.867 68.267-68.267 68.267s-68.267-29.867-68.267-68.267v-157.867l-136.533 76.8c-34.133 21.333-76.8 8.533-93.867-21.333s-8.533-76.8 25.6-93.867l136.533-81.067-136.533-76.8c-34.133-17.067-42.667-59.733-25.6-93.867s59.733-42.667 93.867-25.6l136.533 76.8v-157.867c0-38.4 29.867-68.267 68.267-68.267s68.267 29.867 68.267 68.267v157.867l136.533-76.8c34.133-17.067 76.8-8.533 93.867 25.6 21.333 29.867 8.533 72.533-25.6 93.867z" />
<glyph unicode="&#xe912;" glyph-name="plus3" d="M853.333 405.333v85.333h-298.667v298.667h-85.333v-298.667h-298.667v-85.333h298.667v-298.667h85.333v298.667h298.667z" />
<glyph unicode="&#xe913;" glyph-name="proactive-policing" d="M810.667 354.133c0 0-85.333-204.8-298.667-204.8s-298.667 204.8-298.667 204.8 153.6-38.4 294.4-38.4 302.933 38.4 302.933 38.4zM861.867 580.267c-157.867 46.933-281.6 166.4-349.867 166.4s-187.733-119.467-345.6-166.4c-25.6-8.533-38.4-38.4-21.333-59.733 34.133-42.667 72.533-46.933 72.533-102.4 0 0 149.333-38.4 298.667-38.4s298.667 38.4 298.667 38.4c0 51.2 38.4 55.467 68.267 102.4 8.533 21.333 0 51.2-21.333 59.733zM512 448c-42.667 0-72.533 72.533-72.533 110.933 0 0 34.133 38.4 72.533 38.4s72.533-38.4 72.533-38.4c4.267-38.4-29.867-110.933-72.533-110.933z" />
<glyph unicode="&#xe914;" glyph-name="property" d="M780.8 614.4l-226.133 128c-21.333 12.8-59.733 12.8-81.067 0l-226.133-128c-21.333-12.8-38.4-42.667-38.4-68.267v-354.133c0-25.6 21.333-46.933 46.933-46.933h524.8c25.6 0 46.933 21.333 46.933 46.933v354.133c-8.533 25.6-25.6 55.467-46.933 68.267zM469.333 362.667h-128v128h128v-128zM554.667 362.667v128h128c0 0 0-128 0-128z" />
<glyph unicode="&#xe915;" glyph-name="quality-of-life" d="M819.2 686.933v68.267h-614.4v-68.267l273.067-273.067v-204.8h-170.667v-68.267h409.6v68.267h-170.667v204.8l273.067 273.067zM358.4 618.667l-68.267 68.267h443.733l-68.267-68.267h-307.2z" />
<glyph unicode="&#xe916;" glyph-name="robbery" d="M759.467 640h-490.667c-102.4 0-196.267-85.333-196.267-192s85.333-192 192-192c64 0 119.467 29.867 153.6 76.8 21.333 29.867 55.467 42.667 89.6 42.667v0c38.4 0 72.533-17.067 98.133-46.933 34.133-46.933 89.6-72.533 153.6-72.533 106.667 0 192 85.333 192 192s-85.333 192-192 192zM174.933 499.2c34.133 34.133 72.533 46.933 110.933 51.2 55.467 4.267 110.933-25.6 153.6-64-76.8-42.667-174.933-72.533-264.533 12.8zM584.533 486.4c46.933 38.4 98.133 68.267 153.6 64 38.4 0 76.8-17.067 110.933-51.2-89.6-85.333-187.733-55.467-264.533-12.8z" />
<glyph unicode="&#xe917;" glyph-name="sex-offender" d="M921.6 132.267c0 0 0 4.267-4.267 34.133-4.267 21.333 17.067 51.2-140.8 98.133-153.6 46.933-145.067 25.6-145.067 110.933 0 55.467 34.133-25.6 55.467 81.067 8.533 42.667 17.067 12.8 34.133 81.067 8.533 34.133-8.533 38.4-4.267 55.467 0 17.067 4.267 29.867 8.533 68.267 4.267 42.667-42.667 153.6-213.333 153.6s-217.6-110.933-213.333-153.6c4.267-34.133 4.267-51.2 8.533-68.267s-17.067-21.333-4.267-55.467c17.067-68.267 25.6-38.4 34.133-81.067 21.333-106.667 55.467-25.6 55.467-81.067 0-85.333 8.533-64-145.067-110.933-157.867-46.933-136.533-76.8-140.8-98.133-4.267-29.867-4.267-34.133-4.267-34.133s115.2-196.267 409.6-196.267 409.6 196.267 409.6 196.267z" />
<glyph unicode="&#xe918;" glyph-name="sexual-offense" d="M405.333 644.267l29.867 140.8h-85.333l29.867-140.8h25.6zM320 665.6l-76.8 119.467-64-64 119.467-76.8 21.333 21.333zM320 588.8l-140.8 29.867v-85.333l140.8 29.867v25.6zM913.067 644.267c0 46.933-38.4 85.333-85.333 85.333-38.4 0-68.267-25.6-76.8-55.467-17.067 8.533-34.133 17.067-55.467 21.333-153.6 42.667-247.467-85.333-251.733-93.867v0 0l-332.8-328.533 162.133-162.133 213.333 162.133c25.6-21.333 55.467-34.133 85.333-42.667 123.733-34.133 251.733 42.667 290.133 170.667 12.8 55.467 8.533 110.933-12.8 162.133 34.133 8.533 64 42.667 64 81.067zM529.067 426.667l-89.6 89.6 38.4 38.4 89.6-89.6-38.4-38.4zM827.733 618.667c-17.067 0-29.867 12.8-29.867 29.867s12.8 29.867 29.867 29.867 29.867-12.8 29.867-29.867c0-21.333-12.8-29.867-29.867-29.867z" />
<glyph unicode="&#xe919;" glyph-name="theft" d="M358.4 738.133l106.667-145.067c17.067 4.267 29.867 4.267 46.933 4.267s29.867 0 46.933-4.267l106.667 145.067zM550.4 759.467h115.2l-55.467 55.467zM593.067 832h-162.133l72.533-72.533h17.067l72.533 72.533zM413.867 814.933l-55.467-55.467h115.2zM618.667 571.733c72.533-38.4 123.733-115.2 123.733-200.533 0-123.733-102.4-226.133-226.133-226.133s-226.133 102.4-226.133 226.133c0 85.333 46.933 162.133 115.2 200.533 0 0-46.933 59.733-46.933 59.733-89.6-55.467-149.333-153.6-149.333-264.533 0-166.4 136.533-302.933 302.933-302.933s302.933 136.533 302.933 302.933c0 110.933-59.733 209.067-149.333 264.533l-46.933-59.733z" />
<glyph unicode="&#xe91a;" glyph-name="traffic" d="M887.467 332.8c-4.267 46.933-17.067 76.8-55.467 102.4-8.533 4.267-12.8 12.8-17.067 21.333v0c-17.067 42.667-34.133 85.333-51.2 128-12.8 21.333-25.6 34.133-51.2 34.133-132.267 12.8-268.8 12.8-401.067 0-25.6 0-42.667-8.533-51.2-34.133-17.067-42.667-34.133-89.6-51.2-132.267v0c-8.533-8.533-12.8-17.067-21.333-21.333-21.333-17.067-46.933-29.867-51.2-59.733-4.267-38.4 0-81.067 0-119.467 251.733 0 499.2 0 746.667 0 4.267 4.267 4.267 81.067 4.267 81.067zM281.6 567.467c4.267 8.533 17.067 12.8 25.6 12.8 72.533 4.267 136.533 8.533 209.067 8.533 64 0 145.067-8.533 209.067-8.533 8.533-4.267 8.533-4.267 12.8-12.8 12.8-34.133 38.4-81.067 55.467-115.2-192 0-379.733 0-571.733 0 21.333 38.4 42.667 81.067 59.733 115.2zM324.267 315.733c0-12.8-8.533-21.333-21.333-21.333h-106.667c-12.8 0-21.333 8.533-21.333 21.333v29.867c0 12.8 8.533 21.333 21.333 21.333h106.667c12.8 0 21.333-8.533 21.333-21.333v-29.867zM844.8 315.733c0-12.8-8.533-21.333-21.333-21.333h-106.667c-12.8 0-21.333 8.533-21.333 21.333v29.867c0 12.8 8.533 21.333 21.333 21.333h106.667c12.8 0 21.333-8.533 21.333-21.333v-29.867zM896 238.933c-128 0-256 0-384 0 0 0 0 0 0 0-128 0-256 0-384 0-4.267-25.6 8.533-42.667 34.133-51.2 0-8.533 0-17.067 0-21.333 0-68.267-4.267-59.733 64-59.733 51.2 0 46.933 0 46.933 46.933 0 4.267 0 4.267 0 8.533 76.8 0 153.6 0 230.4 0 0 0 162.133 0 238.933 0 0-4.267 0-4.267 0-8.533 4.267-46.933 0-46.933 46.933-46.933 68.267 0 64-8.533 64 59.733 0 8.533 0 12.8 0 21.333 34.133 4.267 42.667 21.333 42.667 51.2zM512 721.067c-34.133 0-59.733-17.067-59.733-38.4v-25.6h119.467v21.333c0 25.6-25.6 42.667-59.733 42.667zM512 789.333c-8.533 0-17.067-4.267-17.067-12.8v-25.6c0-4.267 8.533-12.8 17.067-12.8s17.067 4.267 17.067 12.8v29.867c0 4.267-8.533 8.533-17.067 8.533zM640 746.667c0 4.267 0 8.533-4.267 8.533-8.533 4.267-17.067 4.267-25.6 0l-25.6-21.333c-4.267-4.267-4.267-4.267-4.267-8.533s0-8.533 4.267-8.533 8.533-4.267 12.8-4.267 8.533 0 12.8 4.267l25.6 21.333c0 4.267 4.267 8.533 4.267 8.533zM413.867 759.467c-8.533 4.267-21.333 4.267-25.6 0s-4.267-8.533-4.267-8.533 0-8.533 4.267-8.533l29.867-17.067c4.267-4.267 8.533-4.267 12.8-4.267s8.533 0 12.8 4.267c4.267 4.267 4.267 4.267 4.267 8.533s0 8.533-4.267 8.533l-29.867 17.067zM396.8 691.2h-34.133c-8.533 0-17.067-8.533-17.067-12.8s8.533-17.067 17.067-17.067h34.133c8.533 0 17.067 8.533 17.067 12.8 0 8.533-4.267 17.067-17.067 17.067zM661.333 691.2h-34.133c-8.533 0-17.067-8.533-17.067-12.8s4.267-17.067 17.067-17.067h34.133c8.533 0 17.067 8.533 17.067 12.8 0 8.533-8.533 17.067-17.067 17.067z" />
<glyph unicode="&#xe91b;" glyph-name="twitter-reverse" d="M942.933 960h-853.333c-46.933 0-89.6-34.133-89.6-81.067v-857.6c0-42.667 42.667-85.333 89.6-85.333h853.333c46.933 0 81.067 42.667 81.067 89.6v853.333c0 46.933-34.133 81.067-81.067 81.067zM768 580.267c0-4.267 0-12.8 0-17.067 0-174.933-132.267-375.467-375.467-375.467-76.8 0-145.067 21.333-204.8 59.733 8.533 0 21.333 0 29.867 0 64 0 119.467 21.333 166.4 55.467-59.733 0-106.667 38.4-123.733 93.867 8.533 0 17.067-4.267 25.6-4.267 12.8 0 25.6 0 34.133 4.267-59.733 8.533-106.667 64-106.667 128 0 0 0 0 0 0 17.067-8.533 38.4-17.067 59.733-17.067-34.133 25.6-55.467 68.267-55.467 110.933 0 25.6 8.533 46.933 17.067 68.267 64-81.067 162.133-132.267 273.067-140.8-4.267 8.533-4.267 21.333-4.267 29.867 0 72.533 59.733 132.267 132.267 132.267 38.4 0 72.533-17.067 98.133-42.667 29.867 4.267 59.733 17.067 85.333 34.133-8.533-29.867-29.867-55.467-59.733-72.533 25.6 4.267 51.2 8.533 76.8 21.333-21.333-25.6-42.667-51.2-68.267-68.267z" />
<glyph unicode="&#xe91c;" glyph-name="twitter" d="M768 580.267c0-4.267 0-12.8 0-17.067 0-174.933-132.267-375.467-375.467-375.467-76.8 0-145.067 21.333-204.8 59.733 8.533 0 21.333 0 29.867 0 64 0 119.467 21.333 166.4 55.467-59.733 0-106.667 38.4-123.733 93.867 8.533 0 17.067-4.267 25.6-4.267 12.8 0 25.6 0 34.133 4.267-59.733 8.533-106.667 64-106.667 128 0 0 0 0 0 0 17.067-8.533 38.4-17.067 59.733-17.067-34.133 25.6-55.467 68.267-55.467 110.933 0 25.6 8.533 46.933 17.067 68.267 64-81.067 162.133-132.267 273.067-140.8-4.267 8.533-4.267 21.333-4.267 29.867 0 72.533 59.733 132.267 132.267 132.267 38.4 0 72.533-17.067 98.133-42.667 29.867 4.267 59.733 17.067 85.333 34.133-8.533-29.867-29.867-55.467-59.733-72.533 25.6 4.267 51.2 8.533 76.8 21.333-21.333-25.6-42.667-51.2-68.267-68.267z" />
<glyph unicode="&#xe91d;" glyph-name="vehicle" d="M951.467 379.733c0 4.267 0 8.533 0 12.8 4.267 0 8.533 4.267 8.533 4.267l8.533 42.667c0 4.267-8.533 8.533-8.533 8.533 0 12.8 0 17.067 0 21.333l-51.2 38.4-93.867 123.733c0 0 0 21.333-38.4 25.6 0 0-153.6 21.333-358.4 0l-110.933-136.533c0 0-226.133-29.867-251.733-55.467-4.267-4.267-8.533-17.067-8.533-29.867 0-17.067 8.533-29.867 17.067-29.867 4.267-17.067 8.533-25.6 12.8-42.667-12.8 0-8.533-17.067-8.533-17.067s4.267-12.8 17.067-12.8c4.267-12.8 8.533-21.333 17.067-34.133h12.8c8.533 0 4.267 12.8 4.267 17.067 0 55.467 46.933 102.4 106.667 102.4s106.667-46.933 106.667-102.4c0-4.267 0-17.067 4.267-17.067h354.133c8.533 0 4.267 12.8 4.267 17.067 0 55.467 46.933 102.4 106.667 102.4 55.467 0 98.133-42.667 102.4-93.867 8.533 0 21.333-4.267 25.6 0 0 0 8.533 4.267 12.8 17.067 0 0 0 4.267 0 8.533 0 0 4.267 0 4.267 0 8.533 0 17.067 8.533 17.067 17.067 4.267 4.267 0 12.8-12.8 12.8zM571.733 516.267c0-8.533-8.533-12.8-12.8-12.8h-192c-8.533 0-12.8 8.533-12.8 12.8l72.533 98.133c8.533 12.8 12.8 12.8 21.333 12.8h110.933c8.533 0 12.8-8.533 12.8-12.8v-98.133zM836.267 503.467h-217.6c-8.533 0-12.8 8.533-12.8 12.8v98.133c0 8.533 8.533 12.8 12.8 12.8h153.6c8.533 0 12.8 0 21.333-12.8l59.733-93.867c0-12.8-8.533-17.067-17.067-17.067zM802.133 388.267c-42.667 0-76.8-34.133-76.8-76.8s34.133-76.8 76.8-76.8 76.8 34.133 76.8 76.8c0 42.667-34.133 76.8-76.8 76.8zM802.133 264.533c-25.6 0-46.933 21.333-46.933 46.933s21.333 46.933 46.933 46.933c25.6 0 46.933-21.333 46.933-46.933s-21.333-46.933-46.933-46.933zM226.133 388.267c-42.667 0-76.8-34.133-76.8-76.8s34.133-76.8 76.8-76.8c42.667 0 76.8 34.133 76.8 76.8s-34.133 76.8-76.8 76.8zM226.133 264.533c-25.6 0-46.933 21.333-46.933 46.933s21.333 46.933 46.933 46.933c25.6 0 46.933-21.333 46.933-46.933s-21.333-46.933-46.933-46.933z" />
<glyph unicode="&#xe91e;" glyph-name="agency" d="M512 102.4c-29.867 76.8-115.2 93.867-183.467 110.933-55.467 12.8-98.133 46.933-119.467 93.867-46.933 106.667 46.933 187.733 59.733 290.133 8.533 46.933-21.333 85.333-46.933 123.733l46.933 51.2c72.533-38.4 179.2-29.867 243.2 21.333 64-51.2 170.667-59.733 247.467-21.333l46.933-51.2c-25.6-38.4-55.467-76.8-46.933-123.733 12.8-98.133 106.667-179.2 59.733-290.133-21.333-51.2-64-81.067-119.467-93.867-72.533-17.067-157.867-34.133-187.733-110.933z" />
<glyph unicode="&#xe91f;" glyph-name="sheriff" d="M614.4 277.333l-98.133-170.667-106.667 170.667h-204.8l102.4 166.4-102.4 174.933h196.267l106.667 170.667 106.667-170.667h196.267l-98.133-174.933 106.667-166.4z" />
<glyph unicode="&#xe920;" glyph-name="refresh" d="M832 256l192 223.8h-129.4c-4.6 55.8-21 108-47 154.6-54.8 98.4-151.6 170.2-266 191.2-1.4 0.2-3 0.6-4.4 0.8-1 0.2-1.8 0.4-2.8 0.4-20.2 3.4-41.2 5.2-62.4 5.2-0.2 0-0.6 0-0.8 0 0 0 0 0 0 0-181.8-0.4-334-127.2-373.4-297.2 0 0 0-0.2 0-0.2-0.6-2.2-1-4.4-1.4-6.6-0.2-1-0.4-1.8-0.6-2.8-0.2-1.4-0.6-2.8-0.8-4.2-0.4-1.8-0.6-3.4-1-5.2-0.2-0.8-0.2-1.4-0.4-2.2-0.4-2.4-0.8-4.8-1.2-7.2 0-0.2 0-0.2 0-0.4-2-12.6-3.2-25.4-3.8-38.2 0-0.6 0-1.2 0-1.6-0.2-2.8-0.2-5.4-0.4-8.2 0-3.2-0.2-6.6-0.2-10s0-6.6 0.2-10c0-2.8 0.2-5.4 0.4-8.2 0-0.6 0-1.2 0-1.8 0.6-13 2-25.8 3.8-38.2 0-0.2 0-0.2 0-0.4 0.4-2.4 0.8-4.8 1.2-7.2 0.2-0.8 0.2-1.4 0.4-2.2 0.4-1.8 0.6-3.6 1-5.2 0.2-1.4 0.6-2.8 0.8-4.2 0.2-1 0.4-2 0.6-2.8 0.4-2.2 1-4.4 1.4-6.4 0 0 0-0.2 0-0.2 39.4-170 192.2-296.8 374.2-297.2 85.8 0.2 166.2 28.4 233.8 81.4l15 11.8-86.4 92.4-12.4-9.2c-44.2-32.6-95-48.4-150-48.4-141.2 0-256 114-256 256s114.8 256 256 256c132.8 0 245.6-93.2 259-224h-147l208-224z" />
<glyph unicode="&#xe921;" glyph-name="bank3" horiz-adv-x="1088" d="M1024 0v64h-64v384h64v64h-192v-64h64v-384h-192v384h64v64h-192v-64h64v-384h-192v384h64v64h-192v-64h64v-384h-192v384h64v64h-192v-64h64v-384h-64v-64h-64v-64h1088v64h-64zM512 960h64l512-320v-64h-1088v64l512 320z" />
<glyph unicode="&#xe922;" glyph-name="android-time" d="M512 874c-236.422 0-426-191.702-426-426s189.578-426 426-426 426 191.702 426 426-191.702 426-426 426zM512 107.2c-187.436 0-340.8 153.366-340.8 340.8s153.364 340.8 340.8 340.8 340.8-153.364 340.8-340.8-153.364-340.8-340.8-340.8zM533.3 661h-63.9v-255.6l223.65-134.186 31.95 53.25-191.7 112.888z" />
<glyph unicode="&#xe923;" glyph-name="android-print" d="M799.9 640h-575.8c-70.452 0-128.1-57.606-128.1-128v-277.334h159.798v-170.666h512.402v170.666h159.8v277.334c0 70.394-57.65 128-128.1 128zM704 128h-384v256h384v-256zM768.202 832h-512.404v-160h512.402v160z" />
<glyph unicode="&#xe924;" glyph-name="alert-circled" d="M953.4 115.6l-413.2 699c-5.8 10-16.6 17.4-28.2 17.4-11.8 0-22.6-7.4-28.2-17.4l-413.2-699c-5.6-10-9.6-26-3.8-35.8s16.4-15.8 28-15.8h834.2c11.6 0 22.2 6 28 15.8 6 9.8 2 26-3.6 35.8zM576 160h-128v96h128v-96zM576 320h-128v288h128v-288z" />
<glyph unicode="&#xe925;" glyph-name="drugs" d="M670.72 834.56c-71.68 71.68-194.56 66.56-271.36-12.8l-337.92-335.36c-79.36-79.36-84.48-199.68-12.8-271.36s194.56-66.56 271.36 12.8l335.36 335.36c81.92 76.8 87.040 199.68 15.36 271.36zM632.32 588.8l-168.96-168.96-207.36 209.92 168.96 168.96c64 64 163.84 69.12 220.16 12.8 58.88-58.88 51.2-158.72-12.8-222.72zM972.8 460.8c-58.88 58.88-153.6 66.56-220.16 17.92l238.080-238.080c48.64 66.56 43.52 158.72-17.92 220.16zM732.16 217.6c58.88-58.88 153.6-66.56 220.16-17.92l-238.080 238.080c-48.64-66.56-43.52-161.28 17.92-220.16z" />
<glyph unicode="&#xe926;" glyph-name="icon_QoL" horiz-adv-x="731" d="M478.354 643.291v148.48h-200.411v-148.48c-15.36-8.046-184.32-42.423-184.32-101.669v-397.166c0-39.497 55.589-99.474 95.817-99.474h348.891c40.229 0 99.474 59.977 99.474 99.474v398.629c0 59.246-144.091 92.16-159.451 100.206zM590.994 199.314h-448.366v292.571h447.634v-292.571h0.731zM239.177 244.663l22.674 49.737 27.063-49.737h49.737l-49.737 99.474 49.006 100.206h-49.737l-27.063-49.737-21.943 49.737h-49.737l49.737-100.206-49.737-99.474h49.737zM438.857 244.663l22.674 49.737 27.063-49.737h49.737l-49.737 99.474 49.006 100.206h-49.737l-27.063-50.469-21.943 49.737h-49.737l49.737-98.743-49.737-99.474 49.737-0.731zM478.354 890.514c0 21.943-195.291 21.943-195.291 0v-54.857h195.291v54.857z" />
<glyph unicode="&#xe927;" glyph-name="QoL" horiz-adv-x="922" d="M719.872 744.277c0-51.653-41.873-93.525-93.525-93.525s-93.525 41.873-93.525 93.525c0 51.653 41.873 93.525 93.525 93.525s93.525-41.873 93.525-93.525zM917.504 623.787c-4.096 19.456-23.552 32.085-43.008 27.989l-278.869-60.416-226.645 105.813 33.109 136.875 19.797-5.461c29.355-8.192 37.205 13.995 50.859 10.24s41.301-10.923 41.301-10.923l9.557 35.157c0 0-26.965 9.216-40.619 12.971s-8.875 26.965-38.229 35.157c-29.013 8.533-146.773 41.643-168.277 47.445s-22.187-8.875-28.331-31.744l-2.389-9.216c-6.485-22.869-13.653-35.84 7.851-41.984l78.165-21.845c-0.683-2.389-1.707-4.437-1.707-6.485l-45.739-187.733 171.349-82.261-189.099-383.317 13.653-204.117c1.365-22.869 21.504-40.619 44.373-38.912 22.869 1.365 40.619 21.504 38.912 44.373l-11.947 181.589 59.733 115.371 9.899-4.779 4.779-113.323 125.611-217.429c11.605-19.797 37.205-26.965 57.003-15.36s26.965 37.205 15.36 57.003l-106.837 185.003-7.168 108.885 115.029 232.789 264.533 55.637c19.456 4.096 32.085 23.552 27.989 43.008z" />
<glyph unicode="&#xe928;" glyph-name="android_fullscreen" d="M439.040 569.856l-112.128 112.128 73.472 73.216h-195.584v-195.584l73.216 73.472 112.128-112.128 48.896 48.896zM390.144 375.040l-112.128-112.128-73.216 73.472v-195.584h195.584l-73.472 73.216 112.128 112.128-48.896 48.896zM633.856 520.96l112.128 112.128 73.216-73.472v195.584h-195.584l73.472-73.216-112.128-112.128 48.896-48.896zM584.96 326.144l112.128-112.128-73.472-73.216h195.584v195.584l-73.216-73.472-112.128 112.128-48.896-48.896z" />
<glyph unicode="&#xe929;" glyph-name="android_minscreen" d="M226.56 684.544l112.128-112.128-73.472-73.216h195.584v195.584l-73.216-73.472-112.128 112.128-48.896-48.896zM275.456 162.56l112.128 112.128 73.216-73.472v195.584h-195.584l73.472-73.216-112.128-112.128 48.896-48.896zM748.544 733.44l-112.128-112.128-73.216 73.472v-195.584h195.584l-73.472 73.216 112.128 112.128-48.896 48.896zM797.44 211.456l-112.128 112.128 73.472 73.216h-195.584v-195.584l73.216 73.472 112.128-112.128 48.896 48.896z" />
<glyph unicode="&#xe92a;" glyph-name="ic_menu_48px" d="M128 192h768v85.333h-768v-85.333zM128 405.333h768v85.333h-768v-85.333zM128 704v-85.333h768v85.333h-768z" />
<glyph unicode="&#xe92b;" glyph-name="android_back" d="M665.6 665.344l-45.056 72.192-289.536-289.536 289.536-289.536 45.056 72.192-217.344 217.344z" />
<glyph unicode="&#xe92c;" glyph-name="android_filter" d="M438.528 217.6h147.2v204.8l233.472 256h-614.4l233.728-256v-204.8z" />
<glyph unicode="&#xe92d;" glyph-name="android_forward" d="M358.4 230.656l45.056-72.448 289.536 289.792-289.536 289.536-45.056-72.192 217.344-217.344z" />
<glyph unicode="&#xe92e;" glyph-name="android_fullscreen2" d="M439.040 569.856l-112.128 112.128 73.472 73.216h-195.584v-195.584l73.216 73.472 112.128-112.128 48.896 48.896zM390.144 375.040l-112.128-112.128-73.216 73.472v-195.584h195.584l-73.472 73.216 112.128 112.128-48.896 48.896zM633.856 520.96l112.128 112.128 73.216-73.472v195.584h-195.584l73.472-73.216-112.128-112.128 48.896-48.896zM584.96 326.144l112.128-112.128-73.472-73.216h195.584v195.584l-73.216-73.472-112.128 112.128-48.896-48.896z" />
<glyph unicode="&#xe92f;" glyph-name="android_list" d="M755.2 755.2h-486.4c-35.346 0-64-28.654-64-64v-486.4c0-35.346 28.654-64 64-64h486.4c35.346 0 64 28.654 64 64v486.4c0 35.346-28.654 64-64 64zM588.8 243.2h-256v76.8h256v-76.8zM691.2 396.8h-358.4v76.8h358.4v-76.8zM691.2 550.4h-358.4v76.8h358.4v-76.8z" />
<glyph unicode="&#xe930;" glyph-name="android_map" d="M802.048 755.2c-5.497-1.106-10.38-2.878-14.888-5.263l-172.76-66.417-204.8 71.68-192.768-64.768c-7.033-2.149-12.059-8.582-12.059-16.189 0-0.339 0.010-0.675 0.030-1.009l-0.002-515.282c-0.022-0.317-0.035-0.686-0.035-1.059 0-8.907 7.221-16.128 16.128-16.128 0.373 0 0.742 0.013 1.108 0.037 5.532 1.429 10.387 3.268 14.97 5.568l172.628 66.11 204.8-71.68 192.768 64.768c7.033 2.149 12.059 8.582 12.059 16.189 0 0.339-0.010 0.675-0.030 1.009l0.002 515.282c0.022 0.317 0.035 0.686 0.035 1.059 0 8.907-7.221 16.128-16.128 16.128-0.373 0-0.742-0.013-1.108-0.037zM614.4 209.152l-204.8 71.68v406.016l204.8-71.68v-406.016z" />
<glyph unicode="&#xe931;" glyph-name="android_minscreen2" d="M226.56 684.544l112.128-112.128-73.472-73.216h195.584v195.584l-73.216-73.472-112.128 112.128-48.896-48.896zM275.456 162.56l112.128 112.128 73.216-73.472v195.584h-195.584l73.472-73.216-112.128-112.128 48.896-48.896zM748.544 733.44l-112.128-112.128-73.216 73.472v-195.584h195.584l-73.472 73.216 112.128 112.128-48.896 48.896zM797.44 211.456l-112.128 112.128 73.472 73.216h-195.584v-195.584l73.216 73.472 112.128-112.128 48.896 48.896z" />
<glyph unicode="&#xe932;" glyph-name="android_refresh" d="M512 217.6c-127.246 0-230.4 103.154-230.4 230.4s103.154 230.4 230.4 230.4c63.4-0.064 120.602-26.549 161.199-69.035l-109.999-110.165h256v256l-90.112-90.368c-55.631 55.825-132.588 90.368-217.613 90.368-169.662 0-307.2-137.538-307.2-307.2s137.538-307.2 307.2-307.2c0.185 0 0.369 0 0.554 0 141.539 0 258.019 76.8 295.651 230.4h-81.152c-26.889-89.617-108.634-153.796-205.369-153.796-3.221 0-6.426 0.071-9.612 0.212z" />
<glyph unicode="&#xe933;" glyph-name="android_search" d="M642.304 368.896h-27.904l-10.496 8.704c33.751 40.073 54.263 92.264 54.272 149.246-0.728 124.716-101.996 225.536-226.812 225.536-125.267 0-226.816-101.549-226.816-226.816s101.549-226.816 226.816-226.816c0.359 0 0.717 0.001 1.076 0.002 56.753 0.401 108.688 20.939 149.042 54.823l10.135-7.975v-28.16l175.104-176.64 52.48 52.736zM432.128 368.896c-0.38-0.003-0.83-0.005-1.28-0.005-87.234 0-157.952 70.718-157.952 157.952s70.718 157.952 157.952 157.952c87.143 0 157.803-70.569 157.952-157.677 0.002-0.319 0.003-0.679 0.003-1.040 0-86.541-69.938-156.748-156.378-157.182z" />
<glyph unicode="&#xe934;" glyph-name="android_trends" d="M256 243.2v512h-102.4v-614.4h716.8v102.4h-614.4zM332.8 601.6h102.4v-307.2h-102.4v307.2zM512 755.2h102.4v-460.8h-102.4v460.8zM691.2 499.2h102.4v-204.8h-102.4v204.8z" />
<glyph unicode="&#xe935;" glyph-name="ic_person_48px" d="M512 448c94.293 0 170.667 76.587 170.667 170.667 0 94.293-76.373 170.667-170.667 170.667s-170.667-76.373-170.667-170.667c0-94.080 76.373-170.667 170.667-170.667zM512 362.667c-113.707 0-341.333-56.96-341.333-170.667v-85.333h682.667v85.333c0 113.707-227.627 170.667-341.333 170.667z" />
<glyph unicode="&#xea38;" glyph-name="location" d="M512 960c-176.732 0-320-143.268-320-320 0-320 320-704 320-704s320 384 320 704c0 176.732-143.27 320-320 320zM512 448c-106.040 0-192 85.96-192 192s85.96 192 192 192 192-85.96 192-192-85.96-192-192-192z" />
<glyph unicode="&#xed62;" glyph-name="cancel-circle" d="M512 960c-282.77 0-512-229.23-512-512s229.23-512 512-512 512 229.23 512 512-229.23 512-512 512zM512 32c-229.75 0-416 186.25-416 416s186.25 416 416 416 416-186.25 416-416-186.25-416-416-416zM672 704l-160-160-160 160-96-96 160-160-160-160 96-96 160 160 160-160 96 96-160 160 160 160z" />
<glyph unicode="&#xed63;" glyph-name="cancel-circle2" d="M512 960c-282.77 0-512-229.23-512-512s229.23-512 512-512 512 229.23 512 512-229.23 512-512 512zM768 288l-96-96-160 160-160-160-96 96 160 160-160 160 96 96 160-160 160 160 96-96-160-160 160-160z" />
<glyph unicode="&#xede4;" glyph-name="circle-up2" d="M0 448c0-282.77 229.23-512 512-512s512 229.23 512 512-229.23 512-512 512-512-229.23-512-512zM928 448c0-229.75-186.25-416-416-416s-416 186.25-416 416 186.25 416 416 416 416-186.25 416-416zM706.744 290.744l90.512 90.512-285.256 285.254-285.254-285.256 90.508-90.508 194.746 194.744z" />
<glyph unicode="&#xede5;" glyph-name="circle-right2" d="M512 960c-282.77 0-512-229.23-512-512s229.23-512 512-512 512 229.23 512 512-229.23 512-512 512zM512 32c-229.75 0-416 186.25-416 416s186.25 416 416 416 416-186.25 416-416-186.25-416-416-416zM354.744 253.256l90.512-90.512 285.254 285.256-285.256 285.254-90.508-90.508 194.744-194.746z" />
<glyph unicode="&#xede6;" glyph-name="circle-down2" d="M1024 448c0 282.77-229.23 512-512 512s-512-229.23-512-512 229.23-512 512-512 512 229.23 512 512zM96 448c0 229.75 186.25 416 416 416s416-186.25 416-416-186.25-416-416-416-416 186.25-416 416zM317.256 605.256l-90.512-90.512 285.256-285.254 285.254 285.256-90.508 90.508-194.746-194.744z" />
<glyph unicode="&#xede7;" glyph-name="circle-left2" d="M512-64c282.77 0 512 229.23 512 512s-229.23 512-512 512-512-229.23-512-512 229.23-512 512-512zM512 864c229.75 0 416-186.25 416-416s-186.25-416-416-416-416 186.25-416 416 186.25 416 416 416zM669.256 642.744l-90.512 90.512-285.254-285.256 285.256-285.254 90.508 90.508-194.744 194.746z" />
<glyph unicode="" glyph-name="circle-left2" d="M512-64c282.77 0 512 229.23 512 512s-229.23 512-512 512-512-229.23-512-512 229.23-512 512-512zM512 864c229.75 0 416-186.25 416-416s-186.25-416-416-416-416 186.25-416 416 186.25 416 416 416zM669.256 642.744l-90.512 90.512-285.254-285.256 285.256-285.254 90.508 90.508-194.744 194.746z" />
<glyph unicode="up10" glyph-name="circle-up2" d="M0 448c0-282.77 229.23-512 512-512s512 229.23 512 512-229.23 512-512 512-512-229.23-512-512zM928 448c0-229.75-186.25-416-416-416s-416 186.25-416 416 186.25 416 416 416 416-186.25 416-416zM706.744 290.744l90.512 90.512-285.256 285.254-285.254-285.256 90.508-90.508 194.746 194.744z" />
<glyph unicode="right12" glyph-name="circle-right2" d="M512 960c-282.77 0-512-229.23-512-512s229.23-512 512-512 512 229.23 512 512-229.23 512-512 512zM512 32c-229.75 0-416 186.25-416 416s186.25 416 416 416 416-186.25 416-416-186.25-416-416-416zM354.744 253.256l90.512-90.512 285.254 285.256-285.256 285.254-90.508-90.508 194.744-194.746z" />
<glyph unicode="map-marker" glyph-name="location" d="M512 960c-176.732 0-320-143.268-320-320 0-320 320-704 320-704s320 384 320 704c0 176.732-143.27 320-320 320zM512 448c-106.040 0-192 85.96-192 192s85.96 192 192 192 192-85.96 192-192-85.96-192-192-192z" />
<glyph unicode="location" glyph-name="location" d="M512 960c-176.732 0-320-143.268-320-320 0-320 320-704 320-704s320 384 320 704c0 176.732-143.27 320-320 320zM512 448c-106.040 0-192 85.96-192 192s85.96 192 192 192 192-85.96 192-192-85.96-192-192-192z" />
<glyph unicode="library2" glyph-name="bank3" horiz-adv-x="1088" d="M1024 0v64h-64v384h64v64h-192v-64h64v-384h-192v384h64v64h-192v-64h64v-384h-192v384h64v64h-192v-64h64v-384h-192v384h64v64h-192v-64h64v-384h-64v-64h-64v-64h1088v64h-64zM512 960h64l512-320v-64h-1088v64l512 320z" />
<glyph unicode="left13" glyph-name="circle-left2" d="M512-64c282.77 0 512 229.23 512 512s-229.23 512-512 512-512-229.23-512-512 229.23-512 512-512zM512 864c229.75 0 416-186.25 416-416s-186.25-416-416-416-416 186.25-416 416 186.25 416 416 416zM669.256 642.744l-90.512 90.512-285.254-285.256 285.256-285.254 90.508 90.508-194.744 194.746z" />
<glyph unicode="down10" glyph-name="circle-down2" d="M1024 448c0 282.77-229.23 512-512 512s-512-229.23-512-512 229.23-512 512-512 512 229.23 512 512zM96 448c0 229.75 186.25 416 416 416s416-186.25 416-416-186.25-416-416-416-416 186.25-416 416zM317.256 605.256l-90.512-90.512 285.256-285.254 285.254 285.256-90.508 90.508-194.746-194.744z" />
<glyph unicode="close2" glyph-name="cancel-circle2" d="M512 960c-282.77 0-512-229.23-512-512s229.23-512 512-512 512 229.23 512 512-229.23 512-512 512zM768 288l-96-96-160 160-160-160-96 96 160 160-160 160 96 96 160-160 160 160 96-96-160-160 160-160z" />
<glyph unicode="close" glyph-name="cancel-circle" d="M512 960c-282.77 0-512-229.23-512-512s229.23-512 512-512 512 229.23 512 512-229.23 512-512 512zM512 32c-229.75 0-416 186.25-416 416s186.25 416 416 416 416-186.25 416-416-186.25-416-416-416zM672 704l-160-160-160 160-96-96 160-160-160-160 96-96 160 160 160-160 96 96-160 160 160 160z" />
<glyph unicode="circle-up2" glyph-name="circle-up2" d="M0 448c0-282.77 229.23-512 512-512s512 229.23 512 512-229.23 512-512 512-512-229.23-512-512zM928 448c0-229.75-186.25-416-416-416s-416 186.25-416 416 186.25 416 416 416 416-186.25 416-416zM706.744 290.744l90.512 90.512-285.256 285.254-285.254-285.256 90.508-90.508 194.746 194.744z" />
<glyph unicode="circle-right2" glyph-name="circle-right2" d="M512 960c-282.77 0-512-229.23-512-512s229.23-512 512-512 512 229.23 512 512-229.23 512-512 512zM512 32c-229.75 0-416 186.25-416 416s186.25 416 416 416 416-186.25 416-416-186.25-416-416-416zM354.744 253.256l90.512-90.512 285.254 285.256-285.256 285.254-90.508-90.508 194.744-194.746z" />
<glyph unicode="circle-left2" glyph-name="circle-left2" d="M512-64c282.77 0 512 229.23 512 512s-229.23 512-512 512-512-229.23-512-512 229.23-512 512-512zM512 864c229.75 0 416-186.25 416-416s-186.25-416-416-416-416 186.25-416 416 186.25 416 416 416zM669.256 642.744l-90.512 90.512-285.254-285.256 285.256-285.254 90.508 90.508-194.744 194.746z" />
<glyph unicode="circle-down2" glyph-name="circle-down2" d="M1024 448c0 282.77-229.23 512-512 512s-512-229.23-512-512 229.23-512 512-512 512 229.23 512 512zM96 448c0 229.75 186.25 416 416 416s416-186.25 416-416-186.25-416-416-416-416 186.25-416 416zM317.256 605.256l-90.512-90.512 285.256-285.254 285.254 285.256-90.508 90.508-194.746-194.744z" />
<glyph unicode="cancel-circle2" glyph-name="cancel-circle2" d="M512 960c-282.77 0-512-229.23-512-512s229.23-512 512-512 512 229.23 512 512-229.23 512-512 512zM768 288l-96-96-160 160-160-160-96 96 160 160-160 160 96 96 160-160 160 160 96-96-160-160 160-160z" />
<glyph unicode="cancel-circle" glyph-name="cancel-circle" d="M512 960c-282.77 0-512-229.23-512-512s229.23-512 512-512 512 229.23 512 512-229.23 512-512 512zM512 32c-229.75 0-416 186.25-416 416s186.25 416 416 416 416-186.25 416-416-186.25-416-416-416zM672 704l-160-160-160 160-96-96 160-160-160-160 96-96 160 160 160-160 96 96-160 160 160 160z" />
<glyph unicode="bank" glyph-name="bank3" horiz-adv-x="1088" d="M1024 0v64h-64v384h64v64h-192v-64h64v-384h-192v384h64v64h-192v-64h64v-384h-192v384h64v64h-192v-64h64v-384h-192v384h64v64h-192v-64h64v-384h-64v-64h-64v-64h1088v64h-64zM512 960h64l512-320v-64h-1088v64l512 320z" />
</font>
</defs>
</svg>
