<?xml version="1.0" standalone="no"?>
<!DOCTYPE svg PUBLIC "-//W3C//DTD SVG 1.1//EN" "http://www.w3.org/Graphics/SVG/1.1/DTD/svg11.dtd" >
<svg>
<metadata>
Created by FontForge 20090914 at Wed Oct  2 11:28:27 2013
 By www-data
Copyright (C) 2006, 2007 Hoefler &#38; Frere-Jones. http://www.typography.com
</metadata>
<defs>
<font id="GothamRounded-Book" horiz-adv-x="664" >
  <font-face 
    font-family="Gotham Rounded Book"
    font-weight="325"
    font-stretch="normal"
    units-per-em="1000"
    panose-1="0 0 0 0 0 0 0 0 0 0"
    ascent="800"
    descent="-200"
    x-height="517.001"
    cap-height="705"
    bbox="-48 -243.001 1159 1040"
    underline-thickness="50"
    underline-position="-50"
    unicode-range="U+0020-U+FB04"
  />
<missing-glyph horiz-adv-x="500" 
d="M0 -200v1000h500v-1000h-500zM71 750l179 -390l179 390h-358zM50 -76l172 376l-172 376v-752zM450 676l-172 -376l172 -376v752zM250 240l-179 -390h358z" />
    <glyph glyph-name="f_f" unicode="ff" horiz-adv-x="735" 
d="M115 34v414.998h-42c-9.33301 0 -17.166 3.33301 -23.499 10s-9.5 14.667 -9.5 24c0 8.66699 3.33301 16.334 10 23.001s14.334 10 23.001 10h42v45c0 58.667 15 103 45 133c26.667 26.667 63.667 40 111 40c23.333 0 43.666 -2 60.999 -6c18.667 -4 28 -15 28 -33
c0 -10 -3.66699 -18.333 -11 -25s-16 -9.33398 -26 -8.00098c-21.333 3.33301 -35.333 5 -42 5c-60 0 -90 -36.667 -90 -110v-42h134c9.33301 0 17.333 -3.16699 24 -9.5s10 -14.166 10 -23.499s-3.33301 -17.166 -10 -23.499s-14.667 -9.5 -24 -9.5h-133v-415
c0 -10.667 -3.66699 -19.834 -11 -27.501s-16.333 -11.5 -27 -11.5s-19.834 3.83301 -27.501 11.5s-11.5 16.834 -11.5 27.501zM482 33.998l0.000976562 414.998h-42c-9.33301 0 -17.166 3.33301 -23.499 10s-9.5 14.667 -9.5 24c0 8.66699 3.16699 16.334 9.5 23.001
s14.166 10 23.499 10h42v45c0 58.667 15 103 45 133c26.667 26.667 63.667 40 111 40c24 0 44.333 -2 61 -6c18.667 -4 28 -15 28 -33c0 -10 -3.66699 -18.333 -11 -25s-16 -9.33398 -26 -8.00098c-21.333 3.33301 -35.333 5 -42 5c-60 0 -90 -36.667 -90 -110v-42h134
c9.33301 0 17.333 -3.16699 24 -9.5s10 -14.166 10 -23.499s-3.33301 -17.166 -10 -23.499s-14.667 -9.5 -24 -9.5h-133v-415c0 -10.667 -3.66699 -19.834 -11 -27.501s-16.333 -11.5 -27 -11.5s-19.834 3.83301 -27.501 11.5s-11.5 16.834 -11.5 27.501z" />
    <glyph glyph-name="fi" unicode="fi" horiz-adv-x="631" 
d="M453 666v13c0 12 4.33301 21.833 13 29.5s19.334 11.5 32.001 11.5c13.333 0 24.333 -3.83301 33 -11.5s13 -17.5 13 -29.5v-13c0 -12 -4.33301 -21.833 -13 -29.5s-19.667 -11.5 -33 -11.5c-12.667 0 -23.334 3.83301 -32.001 11.5s-13 17.5 -13 29.5zM460 34
l-0.00195312 448.996c0 10.667 3.66699 19.834 11 27.501s16.333 11.5 27 11.5s19.834 -3.66699 27.501 -11s11.5 -16.666 11.5 -27.999v-449c0 -11.333 -3.66699 -20.666 -11 -27.999s-16.333 -11 -27 -11c-11.333 0 -20.666 3.83301 -27.999 11.5s-11 16.834 -11 27.501z
M114.998 33.9961v414.998h-42c-9.33301 0 -17.166 3.33301 -23.499 10s-9.5 14.667 -9.5 24c0 8.66699 3.33301 16.334 10 23.001s14.334 10 23.001 10h42v45c0 58.667 15 103 45 133c26.667 26.667 63.667 40 111 40c23.333 0 43.666 -2 60.999 -6c18.667 -4 28 -15 28 -33
c0 -10 -3.66699 -18.333 -11 -25s-16 -9.33398 -26 -8.00098c-21.333 3.33301 -35.333 5 -42 5c-60 0 -90 -36.667 -90 -110v-42h134c9.33301 0 17.333 -3.16699 24 -9.5s10 -14.166 10 -23.499s-3.33301 -17.166 -10 -23.499s-14.667 -9.5 -24 -9.5h-133v-415
c0 -10.667 -3.66699 -19.834 -11 -27.501s-16.333 -11.5 -27 -11.5s-19.834 3.83301 -27.501 11.5s-11.5 16.834 -11.5 27.501z" />
    <glyph glyph-name="fl" unicode="fl" horiz-adv-x="631" 
d="M460 34l-0.00195312 661.998c0 10.667 3.66699 19.834 11 27.501s16.333 11.5 27 11.5s19.834 -3.83301 27.501 -11.5s11.5 -16.834 11.5 -27.501v-662c0 -11.333 -3.66699 -20.666 -11 -27.999s-16.333 -11 -27 -11c-11.333 0 -20.666 3.83301 -27.999 11.5
s-11 16.834 -11 27.501zM114.998 33.998v414.998h-42c-9.33301 0 -17.166 3.33301 -23.499 10s-9.5 14.667 -9.5 24c0 8.66699 3.33301 16.334 10 23.001s14.334 10 23.001 10h42v45c0 58.667 15 103 45 133c26.667 26.667 63.667 40 111 40c23.333 0 43.666 -2 60.999 -6
c18.667 -4 28 -15 28 -33c0 -10 -3.66699 -18.333 -11 -25s-16 -9.33398 -26 -8.00098c-21.333 3.33301 -35.333 5 -42 5c-60 0 -90 -36.667 -90 -110v-42h134c9.33301 0 17.333 -3.16699 24 -9.5s10 -14.166 10 -23.499s-3.33301 -17.166 -10 -23.499
s-14.667 -9.5 -24 -9.5h-133v-415c0 -10.667 -3.66699 -19.834 -11 -27.501s-16.333 -11.5 -27 -11.5s-19.834 3.83301 -27.501 11.5s-11.5 16.834 -11.5 27.501z" />
    <glyph glyph-name="f_f_i" unicode="ffi" horiz-adv-x="998" 
d="M820 666v13c0 12 4.33301 21.833 13 29.5s19.334 11.5 32.001 11.5c13.333 0 24.333 -3.83301 33 -11.5s13 -17.5 13 -29.5v-13c0 -12 -4.33301 -21.833 -13 -29.5s-19.667 -11.5 -33 -11.5c-12.667 0 -23.334 3.83301 -32.001 11.5s-13 17.5 -13 29.5zM827 34
l0.00195312 448.996c0 10.667 3.66699 19.834 11 27.501s16.333 11.5 27 11.5c11.333 0 20.666 -3.66699 27.999 -11s11 -16.666 11 -27.999v-449c0 -11.333 -3.66699 -20.666 -11 -27.999s-16.333 -11 -27 -11s-19.834 3.83301 -27.501 11.5s-11.5 16.834 -11.5 27.501z
M115.002 33.9961v414.998h-42c-9.33301 0 -17.166 3.33301 -23.499 10s-9.5 14.667 -9.5 24c0 8.66699 3.33301 16.334 10 23.001s14.334 10 23.001 10h42v45c0 58.667 15 103 45 133c26.667 26.667 63.667 40 111 40c23.333 0 43.666 -2 60.999 -6c18.667 -4 28 -15 28 -33
c0 -10 -3.66699 -18.333 -11 -25s-16 -9.33398 -26 -8.00098c-21.333 3.33301 -35.333 5 -42 5c-60 0 -90 -36.667 -90 -110v-42h134c9.33301 0 17.333 -3.16699 24 -9.5s10 -14.166 10 -23.499s-3.33301 -17.166 -10 -23.499s-14.667 -9.5 -24 -9.5h-133v-415
c0 -10.667 -3.66699 -19.834 -11 -27.501s-16.333 -11.5 -27 -11.5s-19.834 3.83301 -27.501 11.5s-11.5 16.834 -11.5 27.501zM482.002 33.9941l0.000976562 414.998h-42c-9.33301 0 -17.166 3.33301 -23.499 10s-9.5 14.667 -9.5 24c0 8.66699 3.16699 16.334 9.5 23.001
s14.166 10 23.499 10h42v45c0 58.667 15 103 45 133c26.667 26.667 63.667 40 111 40c24 0 44.333 -2 61 -6c18.667 -4 28 -15 28 -33c0 -10 -3.66699 -18.333 -11 -25s-16 -9.33398 -26 -8.00098c-21.333 3.33301 -35.333 5 -42 5c-60 0 -90 -36.667 -90 -110v-42h134
c9.33301 0 17.333 -3.16699 24 -9.5s10 -14.166 10 -23.499s-3.33301 -17.166 -10 -23.499s-14.667 -9.5 -24 -9.5h-133v-415c0 -10.667 -3.66699 -19.834 -11 -27.501s-16.333 -11.5 -27 -11.5s-19.834 3.83301 -27.501 11.5s-11.5 16.834 -11.5 27.501z" />
    <glyph glyph-name="f_f_l" unicode="ffl" horiz-adv-x="997" 
d="M115 34v414.998h-42c-9.33301 0 -17.166 3.33301 -23.499 10s-9.5 14.667 -9.5 24c0 8.66699 3.33301 16.334 10 23.001s14.334 10 23.001 10h42v45c0 58.667 15 103 45 133c26.667 26.667 63.667 40 111 40c23.333 0 43.666 -2 60.999 -6c18.667 -4 28 -15 28 -33
c0 -10 -3.66699 -18.333 -11 -25s-16 -9.33398 -26 -8.00098c-21.333 3.33301 -35.333 5 -42 5c-60 0 -90 -36.667 -90 -110v-42h134c9.33301 0 17.333 -3.16699 24 -9.5s10 -14.166 10 -23.499s-3.33301 -17.166 -10 -23.499s-14.667 -9.5 -24 -9.5h-133v-415
c0 -10.667 -3.66699 -19.834 -11 -27.501s-16.333 -11.5 -27 -11.5s-19.834 3.83301 -27.501 11.5s-11.5 16.834 -11.5 27.501zM482 33.998l0.000976562 414.998h-42c-9.33301 0 -17.166 3.33301 -23.499 10s-9.5 14.667 -9.5 24c0 8.66699 3.16699 16.334 9.5 23.001
s14.166 10 23.499 10h42v45c0 58.667 15 103 45 133c26.667 26.667 63.667 40 111 40c24 0 44.333 -2 61 -6c18.667 -4 28 -15 28 -33c0 -10 -3.66699 -18.333 -11 -25s-16 -9.33398 -26 -8.00098c-21.333 3.33301 -35.333 5 -42 5c-60 0 -90 -36.667 -90 -110v-42h134
c9.33301 0 17.333 -3.16699 24 -9.5s10 -14.166 10 -23.499s-3.33301 -17.166 -10 -23.499s-14.667 -9.5 -24 -9.5h-133v-415c0 -10.667 -3.66699 -19.834 -11 -27.501s-16.333 -11.5 -27 -11.5s-19.834 3.83301 -27.501 11.5s-11.5 16.834 -11.5 27.501zM827.001 33.9961
v661.998c0 10.667 3.66699 19.834 11 27.501s16.333 11.5 27 11.5s19.834 -3.83301 27.501 -11.5s11.5 -16.834 11.5 -27.501v-662c0 -11.333 -3.66699 -20.666 -11 -27.999s-16.333 -11 -27 -11s-19.834 3.83301 -27.501 11.5s-11.5 16.834 -11.5 27.501z" />
    <glyph glyph-name=".notdef" horiz-adv-x="500" 
d="M0 -200v1000h500v-1000h-500zM71 750l179 -390l179 390h-358zM50 -76l172 376l-172 376v-752zM450 676l-172 -376l172 -376v752zM250 240l-179 -390h358z" />
    <glyph glyph-name="space" unicode=" " horiz-adv-x="300" 
 />
    <glyph glyph-name="exclam" unicode="!" horiz-adv-x="271" 
d="M112 217l-23.002 454c-0.666992 8.66699 1.83301 16.167 7.5 22.5s12.834 9.5 21.501 9.5h35c8.66699 0 15.834 -3 21.501 -9s8.16699 -13.667 7.5 -23l-23 -454c-0.666992 -6.66699 -3.16699 -12.167 -7.5 -16.5s-9.5 -6.5 -15.5 -6.5c-14.667 0 -22.667 7.66699 -24 23
zM87.998 63c0 13.333 4.5 24.5 13.5 33.5s20.5 13.5 34.5 13.5c13.333 0 24.5 -4.5 33.5 -13.5s13.5 -20.167 13.5 -33.5v-20c0 -13.333 -4.5 -24.666 -13.5 -33.999s-20.167 -14 -33.5 -14c-14 0 -25.5 4.66699 -34.5 14s-13.5 20.666 -13.5 33.999v20z" />
    <glyph glyph-name="quotedbl" unicode="&#x22;" horiz-adv-x="440" 
d="M262 450l25.001 215.001c3.33301 25.333 16.666 38 39.999 38h26c15.333 0 23 -8 23 -24c0 -0.666992 -1.66699 -8.33398 -5 -23.001l-63 -209c-5.33301 -15.333 -13.333 -23 -24 -23c-16.667 0 -24 8.66699 -22 26zM67.001 450.001l25.001 215.001
c3.33301 25.333 16.666 38 39.999 38h26c15.333 0 23 -8 23 -24c0 -0.666992 -1.66699 -8.33398 -5 -23.001l-63 -209c-5.33301 -15.333 -13.333 -23 -24 -23c-16.667 0 -24 8.66699 -22 26z" />
    <glyph glyph-name="numbersign" unicode="#" horiz-adv-x="700" 
d="M131 37l23.9971 140.002h-80c-9.33301 0 -17.333 3.33301 -24 10s-10 14.667 -10 24s3.33301 17.5 10 24.5s14.667 10.5 24 10.5h92l37 212h-90c-9.33301 0 -17.5 3.33301 -24.5 10s-10.5 14.667 -10.5 24s3.5 17.5 10.5 24.5s15.167 10.5 24.5 10.5h102l25 147
c1.33301 9.33301 5.33301 16.833 12 22.5s14.334 8.5 23.001 8.5c11.333 0 20.166 -4.33301 26.499 -13s8.83301 -18.334 7.5 -29.001l-24 -136h188l25 147c1.33301 9.33301 5.33301 16.833 12 22.5s14.334 8.5 23.001 8.5c11.333 0 20.166 -4.33301 26.499 -13
s8.83301 -18.334 7.5 -29.001l-23 -136h79c9.33301 0 17.5 -3.33301 24.5 -10s10.5 -14.667 10.5 -24s-3.5 -17.5 -10.5 -24.5s-15.167 -10.5 -24.5 -10.5h-91l-37 -212h89c9.33301 0 17.5 -3.33301 24.5 -10s10.5 -14.667 10.5 -24s-3.5 -17.5 -10.5 -24.5
s-15.167 -10.5 -24.5 -10.5h-101l-26 -151c-0.666992 -8.66699 -4.33398 -16 -11.001 -22s-14.667 -9 -24 -9c-11.333 0 -20.166 4.33301 -26.499 13s-8.83301 18.334 -7.5 29.001l25 140h-188l-26 -151c-1.33301 -8.66699 -5.16602 -16 -11.499 -22s-14.166 -9 -23.499 -9
c-11.333 0 -20.166 4.16699 -26.499 12.5s-8.83301 18.166 -7.5 29.499zM237.997 246.002h187l37 212h-187z" />
    <glyph glyph-name="dollar" unicode="$" horiz-adv-x="636" 
d="M292 731c0 8.66699 3.16602 16.167 9.49902 22.5s13.833 9.5 22.5 9.5s16.167 -3.16699 22.5 -9.5s9.5 -13.833 9.5 -22.5v-33c60 -6.66699 116.333 -28 169 -64c13.333 -10 20 -21 20 -33c0 -10.667 -3.66699 -19.334 -11 -26.001s-16.333 -10 -27 -10
c-8.66699 0 -16 2.33301 -22 7c-44 32 -88 51.333 -132 58v-247c76 -16.667 131 -40.5 165 -71.5s51 -71.833 51 -122.5c0 -53.333 -19.667 -97.166 -59 -131.499s-90.666 -53.5 -153.999 -57.5v-71c0 -8.66699 -3.16699 -16.167 -9.5 -22.5s-13.833 -9.5 -22.5 -9.5
s-16.167 3.16699 -22.5 9.5s-9.5 13.833 -9.5 22.5v73c-77.333 6.66699 -149.666 36.334 -216.999 89.001c-11.333 8 -17 18.667 -17 32c0 10 3.66699 18.5 11 25.5s16 10.5 26 10.5c8.66699 0 16.334 -2.66699 23.001 -8c56 -47.333 115 -74.666 177 -81.999v251
c-74.667 18 -128.834 42 -162.501 72s-50.5 71 -50.5 123c0 51.333 19.667 94.166 59 128.499s89.666 53.166 150.999 56.499v31zM491.999 184c0 30.667 -10 55.501 -30 74.501s-56.333 35.167 -109 48.5v-241c42.667 2.66699 76.5 14.667 101.5 36s37.5 48.666 37.5 81.999
zM158.999 520.001c0 -30.667 9.66699 -55.333 29 -74s55 -35 107 -49v236c-41.333 -2 -74.333 -13.5 -99 -34.5s-37 -47.167 -37 -78.5z" />
    <glyph glyph-name="percent" unicode="%" horiz-adv-x="834" 
d="M210 350c-46 0 -83.833 17.333 -113.5 52s-44.5 76.334 -44.5 125.001v2c0 48.667 15 90.667 45 126s68.333 53 115 53c46 0 83.667 -17.333 113 -52s44 -76.334 44 -125.001v-2c0 -48.667 -15 -90.667 -45 -126s-68 -53 -114 -53zM149 23c0 6.66699 2 13 6 19l476 649
c7.33301 9.33301 15.666 14 24.999 14c8 0 14.833 -2.83301 20.5 -8.5s8.5 -12.167 8.5 -19.5c0 -6.66699 -2 -13 -6 -19l-476 -649c-7.33301 -9.33301 -15.666 -14 -24.999 -14c-8 0 -14.833 2.83301 -20.5 8.5s-8.5 12.167 -8.5 19.5zM622 -8
c-46 0 -83.666 17.333 -112.999 52s-44 76.334 -44 125.001v2c0 48.667 15 90.667 45 126s68 53 114 53s83.667 -17.333 113 -52s44 -76.334 44 -125.001v-2c0 -49.333 -14.833 -91.5 -44.5 -126.5s-67.834 -52.5 -114.501 -52.5zM212.001 406c26.667 0 48.5 11.667 65.5 35
s25.5 52 25.5 86v2c0 34.667 -9 63.834 -27 87.501s-40 35.5 -66 35.5c-26.667 0 -48.5 -11.667 -65.5 -35s-25.5 -52 -25.5 -86v-2c0 -34.667 9 -63.834 27 -87.501s40 -35.5 66 -35.5zM624.001 48c26.667 0 48.5 11.667 65.5 35s25.5 52 25.5 86v2
c0 34.667 -9 63.834 -27 87.501s-40 35.5 -66 35.5c-26.667 0 -48.5 -11.667 -65.5 -35s-25.5 -52 -25.5 -86v-2c0 -34.667 9 -63.834 27 -87.501s40 -35.5 66 -35.5z" />
    <glyph glyph-name="ampersand" unicode="&#x26;" horiz-adv-x="696" 
d="M618 -9c-10.667 0 -21.332 4.66797 -31.999 14.001l-91 95c-68 -73.333 -144.667 -110 -230 -110c-63.333 0 -115.833 18.167 -157.5 54.5s-62.5 83.5 -62.5 141.5v2c0 90.667 56.333 158 169 202c-46.667 54.667 -70 106 -70 154v2c0 46.667 17.167 86 51.5 118
s78.833 48 133.5 48c48.667 0 89.167 -15.333 121.5 -46s48.5 -68 48.5 -112v-2c0 -82.667 -55 -143.334 -165 -182.001l160 -163c27.333 40.667 51.666 85 72.999 133c7.33301 14 18 21 32 21c10 0 18.5 -3.5 25.5 -10.5s10.5 -15.5 10.5 -25.5
c0 -5.33301 -1.66699 -11.333 -5 -18c-28 -58.667 -57 -108.334 -87 -149.001l97 -99c10 -11.333 15 -21.666 15 -30.999c0 -10.667 -3.5 -19.5 -10.5 -26.5s-15.833 -10.5 -26.5 -10.5zM290.002 415.001c90 30.667 135.001 75 135.001 133v2c0 28 -9.33301 51.167 -28 69.5
s-42.334 27.5 -71.001 27.5c-31.333 0 -56.833 -9.66699 -76.5 -29s-29.5 -43.333 -29.5 -72v-2c0 -20.667 5 -40.167 15 -58.5s28.333 -41.833 55 -70.5zM271.003 57.001c62.667 0 121.333 30.667 176 92l-188 192c-44.667 -16.667 -78.167 -38.167 -100.5 -64.5
s-33.5 -54.833 -33.5 -85.5v-2c0 -38 13.667 -69.5 41 -94.5s62.333 -37.5 105 -37.5z" />
    <glyph glyph-name="quotesingle" unicode="'" horiz-adv-x="245" 
d="M67 450l25.001 215c3.33301 25.333 16.666 38 39.999 38h26c15.333 0 23 -8 23 -24c0 -3.33301 -1.33301 -11 -4 -23l-64 -209c-5.33301 -15.333 -13.333 -23 -24 -23c-16.667 0 -24 8.66699 -22 26z" />
    <glyph glyph-name="parenleft" unicode="(" horiz-adv-x="434" 
d="M349 -137c-9.33301 0 -15.333 1.33105 -18 3.99805c-175.333 103.333 -263 243.333 -263 420s87.667 316.667 263 420c2.66699 2.66699 8.66699 4 18 4c8 0 15 -3 21 -9s9 -13 9 -21c0 -11.333 -5 -20.333 -15 -27c-145.333 -95.333 -218 -217.666 -218 -366.999
s72.667 -271.666 218 -366.999c10 -6.66699 15 -15.667 15 -27c0 -8 -3 -15 -9 -21s-13 -9 -21 -9z" />
    <glyph glyph-name="parenright" unicode=")" horiz-adv-x="434" 
d="M85 -137c-8 0 -15 3.00195 -21 9.00195s-9 13 -9 21c0 11.333 5 20.333 15 27c145.333 95.333 218 217.666 218 366.999s-72.667 271.666 -218 366.999c-10 6.66699 -15 15.667 -15 27c0 8 3 15 9 21s13 9 21 9c9.33301 0 15.333 -1.33301 18 -4
c175.333 -103.333 263 -243.333 263 -420s-87.667 -316.667 -263 -420c-2.66699 -2.66699 -8.66699 -4 -18 -4z" />
    <glyph glyph-name="asterisk" unicode="*" horiz-adv-x="430" 
d="M191 420l8 102l-84 -59c-7.33301 -5.33301 -14 -8 -20 -8c-6.66699 0 -12.5 2.5 -17.5 7.5s-7.5 11.167 -7.5 18.5c0 11.333 6 19 18 23l97 45l-97 45c-12 6 -18 14 -18 24c0 6.66699 2.5 12.5 7.5 17.5s10.833 7.83301 17.5 8.5c6 0 12.667 -2.66699 20 -8l84 -59
l-8 101c-0.666992 8 1.33301 14.833 6 20.5s10.667 8.5 18 8.5s13.5 -2.83301 18.5 -8.5s6.83301 -12.167 5.5 -19.5l-8 -102l84 59c7.33301 5.33301 14 8 20 8c6.66699 0 12.5 -2.5 17.5 -7.5s7.5 -11.167 7.5 -18.5c0 -10.667 -6 -18.667 -18 -24l-97 -45l97 -45
c12 -4 18 -11.667 18 -23c0 -6.66699 -2.5 -12.667 -7.5 -18s-10.833 -8 -17.5 -8c-6 0 -12.667 2.66699 -20 8l-84 59l8 -102c1.33301 -7.33301 -0.5 -13.833 -5.5 -19.5s-11.167 -8.5 -18.5 -8.5s-13.5 2.83301 -18.5 8.5s-6.83301 12.167 -5.5 19.5z" />
    <glyph glyph-name="plus" unicode="+" horiz-adv-x="625" 
d="M275 143v173h-175c-10 0 -18.667 3.5 -26 10.5s-11 15.5 -11 25.5s3.66699 18.5 11 25.5s16 10.5 26 10.5h175v173c0 10.667 3.66699 19.5 11 26.5s16.333 10.5 27 10.5c10 0 18.667 -3.5 26 -10.5s11 -15.833 11 -26.5v-173h176c10 0 18.5 -3.5 25.5 -10.5
s10.5 -15.5 10.5 -25.5s-3.5 -18.5 -10.5 -25.5s-15.5 -10.5 -25.5 -10.5h-176v-173c0 -10.667 -3.66699 -19.5 -11 -26.5s-16 -10.5 -26 -10.5c-10.667 0 -19.667 3.5 -27 10.5s-11 15.833 -11 26.5z" />
    <glyph glyph-name="comma" unicode="," horiz-adv-x="245" 
d="M45 -100c0 8.66699 4.33301 14.668 13 18.001c39.333 17.333 58 44.666 56 81.999c-26 6 -39 22 -39 48v16c0 13.333 4.33301 24.333 13 33s19.667 13 33 13c14.667 0 26.5 -5 35.5 -15s13.5 -23.333 13.5 -40v-19c0 -56 -12 -96 -36 -120
c-10 -10 -21.833 -18.5 -35.5 -25.5s-24.5 -10.5 -32.5 -10.5c-14 0 -21 6.66699 -21 20z" />
    <glyph glyph-name="hyphen" unicode="-" horiz-adv-x="408" 
d="M100 260c-10.667 0 -20 4 -28 12s-12 17.667 -12 29c0 10.667 4 20 12 28s17.333 12 28 12h208c10.667 0 20 -4 28 -12s12 -17.333 12 -28c0 -11.333 -4 -21 -12 -29s-17.333 -12 -28 -12h-208z" />
    <glyph glyph-name="period" unicode="." horiz-adv-x="245" 
d="M75 63c0 13.333 4.5 24.5 13.5 33.5s20.5 13.5 34.5 13.5c13.333 0 24.5 -4.5 33.5 -13.5s13.5 -20.167 13.5 -33.5v-20c0 -13.333 -4.5 -24.666 -13.5 -33.999s-20.167 -14 -33.5 -14c-14 0 -25.5 4.66699 -34.5 14s-13.5 20.666 -13.5 33.999v20z" />
    <glyph glyph-name="slash" unicode="/" horiz-adv-x="508" 
d="M-4 -102c0 6.66699 1.66797 12.333 5.00098 17l435 868c6.66699 13.333 16.667 20 30 20c8.66699 0 16 -3 22 -9s9 -13.333 9 -22c0 -6 -1.33301 -11.667 -4 -17l-436 -868c-6.66699 -13.333 -16.334 -20 -29.001 -20c-8.66699 0 -16.167 3 -22.5 9s-9.5 13.333 -9.5 22z
" />
    <glyph glyph-name="zero" unicode="0" horiz-adv-x="715" 
d="M357 -12c-88 0 -159.167 34.833 -213.5 104.5s-81.5 154.834 -81.5 255.501v2c0 100.667 27.5 186.167 82.5 256.5s126.5 105.5 214.5 105.5s159 -34.833 213 -104.5s81 -154.834 81 -255.501v-2c0 -100.667 -27.333 -186.167 -82 -256.5s-126 -105.5 -214 -105.5z
M359 60c63.333 0 114.499 28.168 153.499 84.501s58.5 124.166 58.5 203.499v2c0 79.333 -19.833 147.5 -59.5 204.5s-91.167 85.5 -154.5 85.5s-114.666 -28 -153.999 -84s-59 -124 -59 -204v-2c0 -79.333 20 -147.5 60 -204.5s91.667 -85.5 155 -85.5z" />
    <glyph glyph-name="one" unicode="1" horiz-adv-x="358" 
d="M179 35l0.00390625 591.001l-98 -32c-6 -2 -11.667 -3 -17 -3c-9.33301 0 -17.333 3.33301 -24 10s-10 14.667 -10 24c0 16 9.33301 27.333 28 34l115 40c19.333 6 33.666 9 42.999 9h2c11.333 0 20.666 -3.83301 27.999 -11.5s11 -16.834 11 -27.501v-634
c0 -11.333 -3.83301 -20.833 -11.5 -28.5s-16.834 -11.5 -27.501 -11.5s-19.834 4 -27.501 12s-11.5 17.333 -11.5 28z" />
    <glyph glyph-name="two" unicode="2" horiz-adv-x="599" 
d="M44 37c0 14 6.33105 26.333 18.998 37l239 211c54.667 48.667 92.667 88.834 114 120.501s32 64.834 32 99.501c0 40 -13.667 72.333 -41 97s-60.666 37 -99.999 37c-35.333 0 -66.666 -8.33301 -93.999 -25s-54 -42.334 -80 -77.001c-7.33301 -9.33301 -17 -14 -29 -14
c-10 0 -18.5 3.5 -25.5 10.5s-10.5 15.5 -10.5 25.5c0 8 2.66699 15.333 8 22c31.333 43.333 65 75.666 101 96.999s81.333 32 136 32c62.667 0 114.5 -18.667 155.5 -56s61.5 -84.666 61.5 -141.999v-2c0 -48.667 -13 -91.834 -39 -129.501s-72 -85.167 -138 -142.5
l-187 -166h339c10 0 18.667 -3.5 26 -10.5s11 -15.5 11 -25.5s-3.66699 -18.5 -11 -25.5s-16 -10.5 -26 -10.5h-421c-11.333 0 -20.833 3.5 -28.5 10.5s-11.5 15.833 -11.5 26.5z" />
    <glyph glyph-name="three" unicode="3" horiz-adv-x="613" 
d="M311 -12c-100 0 -181.334 35.3311 -244.001 105.998c-8.66699 8.66699 -13 18 -13 28c0 10.667 3.83301 19.834 11.5 27.501s16.834 11.5 27.501 11.5c11.333 0 21 -4 29 -12c52 -59.333 115.333 -89 190 -89c43.333 0 79.666 12.667 108.999 38s44 58 44 98v2
c0 42.667 -18 75.834 -54 99.501s-83.333 35.5 -142 35.5h-25c-9.33301 0 -17.5 3.33301 -24.5 10s-10.5 14.667 -10.5 24c0 10 5.33301 20.333 16 31l204 231h-310c-10 0 -18.667 3.33301 -26 10s-11 15 -11 25s3.66699 18.5 11 25.5s16 10.5 26 10.5h382
c11.333 0 20.5 -3.16699 27.5 -9.5s10.5 -14.5 10.5 -24.5c0 -12 -6.33301 -25 -19 -39l-206 -229c66.667 -5.33301 121.834 -24.5 165.501 -57.5s65.5 -79.5 65.5 -139.5v-2c0 -61.333 -22.5 -111.833 -67.5 -151.5s-100.5 -59.5 -166.5 -59.5z" />
    <glyph glyph-name="four" unicode="4" horiz-adv-x="671" 
d="M432 33v133h-348c-11.333 0 -20.833 3.66699 -28.5 11s-11.5 16.333 -11.5 27c0 12 5 24.667 15 38l364 444c12.667 16 27.334 24 44.001 24c12 0 22 -4 30 -12s12 -17.667 12 -29v-437h79c9.33301 0 17.333 -3.33301 24 -10s10 -14.667 10 -24
c0 -8.66699 -3.33301 -16.167 -10 -22.5s-14.667 -9.5 -24 -9.5h-79v-133c0 -10.667 -3.83301 -19.667 -11.5 -27s-16.834 -11 -27.501 -11s-19.667 3.66699 -27 11s-11 16.333 -11 27zM138 232h294v361z" />
    <glyph glyph-name="five" unicode="5" horiz-adv-x="612" 
d="M304 -12c-84 0 -159.997 30.333 -227.997 91c-10.667 8.66699 -16 19.667 -16 33c0 9.33301 3.66699 17.833 11 25.5s16.333 11.5 27 11.5c10 0 19 -3.33301 27 -10c58 -52.667 118 -79 180 -79c49.333 0 89.666 14.5 120.999 43.5s47 66.167 47 111.5v2
c0 44 -16.167 79.5 -48.5 106.5s-74.166 40.5 -125.499 40.5c-32.667 0 -64.334 -5.66699 -95.001 -17s-46.334 -17 -47.001 -17c-11.333 0 -24.666 5 -39.999 15c-12.667 8.66699 -18.334 23 -17.001 43l16 274c0.666992 11.333 4.5 20.5 11.5 27.5s15.833 10.5 26.5 10.5
h336c10 0 18.5 -3.5 25.5 -10.5s10.5 -15.833 10.5 -26.5c0 -10 -3.5 -18.5 -10.5 -25.5s-15.5 -10.5 -25.5 -10.5h-302l-15 -224c47.333 20.667 93.333 31 138 31c70 0 127.833 -19.333 173.5 -58s68.5 -90.667 68.5 -156v-2c0 -67.333 -23.333 -122.5 -70 -165.5
s-106.334 -64.5 -179.001 -64.5z" />
    <glyph glyph-name="six" unicode="6" horiz-adv-x="647" 
d="M333 -12c-75.333 0 -136.668 23.666 -184.001 70.999c-30 30 -52.167 65.667 -66.5 107s-21.5 96 -21.5 164v2c0 109.333 26.167 200 78.5 272s123.166 108 212.499 108c66 0 126.667 -20.667 182 -62c12.667 -8.66699 19 -19.667 19 -33
c0 -10.667 -3.66699 -19.667 -11 -27s-16.333 -11 -27 -11c-8 0 -15.333 2.33301 -22 7c-47.333 36 -95.666 54 -144.999 54c-62.667 0 -112.667 -28.667 -150 -86s-55.666 -131.666 -54.999 -222.999c48.667 71.333 115 107 199 107c67.333 0 124.5 -19.833 171.5 -59.5
s70.5 -91.5 70.5 -155.5v-2c0 -67.333 -24 -123 -72 -167s-107.667 -66 -179 -66zM333.998 57.999c50.667 0 91.501 15.335 122.501 46.002s46.5 68.667 46.5 114v2c0 43.333 -16 79.166 -48 107.499s-73 42.5 -123 42.5c-50.667 0 -92.5 -15.333 -125.5 -46
s-49.5 -66.334 -49.5 -107.001v-2c0 -44.667 16.667 -82 50 -112s75.666 -45 126.999 -45z" />
    <glyph glyph-name="seven" unicode="7" horiz-adv-x="596" 
d="M157 32c0 6.66699 2.00098 14.667 6.00098 24l290 572h-353c-10 0 -18.667 3.5 -26 10.5s-11 15.5 -11 25.5s3.66699 18.5 11 25.5s16 10.5 26 10.5h410c11.333 0 20.5 -3.16699 27.5 -9.5s10.5 -14.833 10.5 -25.5c0 -10 -3.66699 -21.667 -11 -35l-302 -607
c-8.66699 -18.667 -21.334 -28 -38.001 -28c-10.667 0 -20 3.5 -28 10.5s-12 15.833 -12 26.5z" />
    <glyph glyph-name="eight" unicode="8" horiz-adv-x="630" 
d="M315 -10c-75.333 0 -138 18.501 -188 55.501s-75 84.5 -75 142.5v2c0 40 13 74.667 39 104s61 52 105 68c-80 36.667 -120 90.334 -120 161.001v2c0 52.667 23.5 96.667 70.5 132s103.167 53 168.5 53s121.5 -17.667 168.5 -53s70.5 -79.333 70.5 -132v-2
c0 -70.667 -40 -124.334 -120 -161.001c44 -16.667 79 -39.334 105 -68.001s39 -63 39 -103v-2c0 -58.667 -25 -106.5 -75 -143.5s-112.667 -55.5 -188 -55.5zM315 390.001c45.333 0 83.333 12 114 36s46 54.667 46 92v2c0 34.667 -15.333 63.5 -46 86.5
s-68.667 34.5 -114 34.5c-46 0 -84.167 -11.5 -114.5 -34.5s-45.5 -51.833 -45.5 -86.5v-2c0 -37.333 15.333 -68 46 -92s68.667 -36 114 -36zM315 59.001c56 0 100.499 12.667 133.499 38s49.5 56.333 49.5 93v2c0 38.667 -17.667 70.5 -53 95.5
s-78.666 37.5 -129.999 37.5s-94.666 -12.5 -129.999 -37.5s-53 -56.833 -53 -95.5v-2c0 -36.667 16.667 -67.667 50 -93s77.666 -38 132.999 -38z" />
    <glyph glyph-name="nine" unicode="9" horiz-adv-x="647" 
d="M295 -12c-68 0 -133.002 23.332 -195.002 69.999c-12 8.66699 -18 19.334 -18 32.001c0 10.667 3.66699 19.667 11 27s16.333 11 27 11c8 0 16.333 -2.66699 25 -8c48.667 -40 99.334 -60 152.001 -60c62.667 0 113.334 28.667 152.001 86s57.334 131 56.001 221
c-46.667 -74.667 -112.667 -112 -198 -112c-72 0 -130.667 20.333 -176 61s-68 92.667 -68 156v2c0 67.333 23.667 123.833 71 169.5s107.666 68.5 180.999 68.5c74.667 0 136 -24 184 -72c58 -58 87 -148.333 87 -271v-2c0 -111.333 -27 -202.333 -81 -273
s-124 -106 -210 -106zM315.998 322.999c51.333 0 93.168 15.835 125.501 47.502s48.5 68.5 48.5 110.5v2c0 45.333 -16.667 83.166 -50 113.499s-76 45.5 -128 45.5c-50.667 0 -91.334 -16 -122.001 -48s-46 -70.667 -46 -116v-2c0 -44.667 16 -81.334 48 -110.001
s73.333 -43 124 -43z" />
    <glyph glyph-name="colon" unicode=":" horiz-adv-x="255" 
d="M80 475c0 13.333 4.5 24.5 13.5 33.5s20.5 13.5 34.5 13.5c13.333 0 24.5 -4.5 33.5 -13.5s13.5 -20.167 13.5 -33.5v-21c0 -13.333 -4.5 -24.5 -13.5 -33.5s-20.167 -13.5 -33.5 -13.5c-14 0 -25.5 4.5 -34.5 13.5s-13.5 20.167 -13.5 33.5v21zM80 63
c0 13.333 4.5 24.5 13.5 33.5s20.5 13.5 34.5 13.5c13.333 0 24.5 -4.5 33.5 -13.5s13.5 -20.167 13.5 -33.5v-20c0 -13.333 -4.5 -24.666 -13.5 -33.999s-20.167 -14 -33.5 -14c-14 0 -25.5 4.66699 -34.5 14s-13.5 20.666 -13.5 33.999v20z" />
    <glyph glyph-name="semicolon" unicode=";" horiz-adv-x="255" 
d="M80 475c0 13.333 4.5 24.5 13.5 33.5s20.5 13.5 34.5 13.5c13.333 0 24.5 -4.5 33.5 -13.5s13.5 -20.167 13.5 -33.5v-21c0 -13.333 -4.5 -24.5 -13.5 -33.5s-20.167 -13.5 -33.5 -13.5c-14 0 -25.5 4.5 -34.5 13.5s-13.5 20.167 -13.5 33.5v21zM50 -100
c0 8.66699 4.33301 14.668 13 18.001c39.333 17.333 58 44.666 56 81.999c-26 6 -39 22 -39 48v16c0 13.333 4.33301 24.333 13 33s19.667 13 33 13c14.667 0 26.5 -5 35.5 -15s13.5 -23.333 13.5 -40v-19c0 -56 -12 -96 -36 -120c-10 -10 -21.833 -18.5 -35.5 -25.5
s-24.5 -10.5 -32.5 -10.5c-14 0 -21 6.66699 -21 20z" />
    <glyph glyph-name="less" unicode="&#x3c;" horiz-adv-x="625" 
d="M504 101c-4 0 -10.333 1.66504 -19 4.99805l-395 201c-19.333 10 -29 24.333 -29 43v4c0 18.667 9.66699 33 29 43l395 201c6.66699 3.33301 13.667 5 21 5c8.66699 0.666992 16.167 -2.5 22.5 -9.5s9.5 -15.167 9.5 -24.5c0 -15.333 -7.66699 -26.666 -23 -33.999
l-367 -182l367 -184c15.333 -7.33301 23 -18.666 23 -33.999c0 -9.33301 -3.16699 -17.333 -9.5 -24s-14.5 -10 -24.5 -10z" />
    <glyph glyph-name="equal" unicode="=" horiz-adv-x="625" 
d="M113 198c-10 0 -18.667 3.5 -26 10.5s-11 15.833 -11 26.5c0 10 3.66699 18.667 11 26s16 11 26 11h399c10.667 0 19.667 -3.66699 27 -11s11 -16 11 -26c0 -10.667 -3.66699 -19.5 -11 -26.5s-16.333 -10.5 -27 -10.5h-399zM113 432c-10 0 -18.667 3.5 -26 10.5
s-11 15.833 -11 26.5c0 10 3.66699 18.667 11 26s16 11 26 11h399c10.667 0 19.667 -3.66699 27 -11s11 -16 11 -26c0 -10.667 -3.66699 -19.5 -11 -26.5s-16.333 -10.5 -27 -10.5h-399z" />
    <glyph glyph-name="greater" unicode="&#x3e;" horiz-adv-x="625" 
d="M121 603c3.33301 0 10.001 -1.66699 20.001 -5l394 -201c20 -10 30 -24.333 30 -43v-4c0 -18.667 -10 -33 -30 -43l-394 -201c-8 -3.33301 -15 -5 -21 -5c-8.66699 -0.666992 -16.334 2.5 -23.001 9.5s-10 15.167 -10 24.5c0 14.667 7.66699 26 23 34l367 182l-367 184
c-15.333 8 -23 19.333 -23 34c0 9.33301 3.33301 17.333 10 24s14.667 10 24 10z" />
    <glyph glyph-name="question" unicode="?" horiz-adv-x="537" 
d="M248 193l-3.99805 0.00195312c-6.66699 0 -12.5 2.5 -17.5 7.5s-7.83301 11.5 -8.5 19.5l-11 112c-0.666992 9.33301 1.66602 17.166 6.99902 23.499s12.666 10.166 21.999 11.499c54 4 96.333 17.833 127 41.5s46 56.167 46 97.5v2c0 36.667 -13.333 67.5 -40 92.5
s-62 37.5 -106 37.5c-62 0 -117 -26 -165 -78c-8.66699 -7.33301 -17.667 -11 -27 -11c-10 0 -18.5 3.33301 -25.5 10s-10.5 15 -10.5 25s4 19 12 27c60 65.333 132.667 98 218 98c66.667 0 120.667 -18.667 162 -56s62 -84.666 62 -141.999v-2
c0 -59.333 -19.333 -105.833 -58 -139.5s-88.667 -54.834 -150 -63.501l-7 -86c-2 -18 -10.667 -27 -26 -27zM197.002 63.002c0 13.333 4.66699 24.5 14 33.5s20.666 13.5 33.999 13.5s24.666 -4.5 33.999 -13.5s14 -20.167 14 -33.5v-20
c0 -13.333 -4.66699 -24.666 -14 -33.999s-20.666 -14 -33.999 -14s-24.666 4.66699 -33.999 14s-14 20.666 -14 33.999v20z" />
    <glyph glyph-name="at" unicode="@" horiz-adv-x="980" 
d="M499 -162c-126.667 0 -232.669 42.498 -318.002 127.498s-128 187.833 -128 308.5c0 120 42.5 223 127.5 309s188.5 129 310.5 129c120.667 0 223.5 -39.5 308.5 -118.5s127.5 -171.5 127.5 -277.5c0 -79.333 -18.5 -140 -55.5 -182s-80.833 -63 -131.5 -63
c-35.333 0 -65 7.5 -89 22.5s-41 35.5 -51 61.5c-47.333 -56 -102.333 -84 -165 -84c-50 0 -92.333 16.833 -127 50.5s-52 77.5 -52 131.5c0 68.667 23.833 127.334 71.5 176.001s100.834 73 159.501 73c66 0 114.667 -27.667 146 -83l8 43c4 22.667 15.667 34 35 34
c10.667 0 19.334 -4.16699 26.001 -12.5s9 -18.166 7 -29.499l-36 -202c-4.66699 -26 -7 -46.333 -7 -61c0 -25.333 7.5 -45.166 22.5 -59.499s35.833 -21.5 62.5 -21.5c38.667 0 71.667 17.667 99 53s41 86.333 41 153c0 94.667 -38.833 178.667 -116.5 252
s-172.167 110 -283.5 110c-114 0 -209.5 -39.333 -286.5 -118s-115.5 -174 -115.5 -286c0 -112.667 38.667 -207.834 116 -285.501s175.333 -116.5 294 -116.5c86.667 0 167 21.333 241 64c2.66699 1.33301 6 2 10 2s7.5 -1.66699 10.5 -5s4.5 -7 4.5 -11
s-2.66699 -8.66699 -8 -14c-80 -46.667 -166 -70 -258 -70zM449.998 132.998c42.667 0 80.667 18.168 114 54.501s50 78.166 50 125.499c0 36.667 -11.5 67 -34.5 91s-52.167 36 -87.5 36c-43.333 0 -81.5 -17.667 -114.5 -53s-49.5 -78.333 -49.5 -129
c0 -38.667 11.333 -69.167 34 -91.5s52 -33.5 88 -33.5z" />
    <glyph glyph-name="A" unicode="A" horiz-adv-x="784" 
d="M51 31c0 7.33301 1.66699 14.333 5 21l284 621c10.667 23.333 27.334 35 50.001 35h4c23.333 0 39.666 -11.667 48.999 -35l284 -620c3.33301 -8 5 -14.667 5 -20c0 -10.667 -3.66699 -19.667 -11 -27s-16.333 -11 -27 -11c-17.333 0 -30.333 9.66699 -39 29l-73 161
h-384l-73 -163c-7.33301 -18 -20 -27 -38 -27c-10 0 -18.5 3.5 -25.5 10.5s-10.5 15.5 -10.5 25.5zM229 257h322l-161 358z" />
    <glyph glyph-name="B" unicode="B" horiz-adv-x="722" 
d="M99 40v619.999c0 10.667 3.83301 20 11.5 28s16.834 12 27.501 12h259c79.333 0 140.333 -20.667 183 -62c30 -31.333 45 -68.666 45 -111.999v-2c0 -76 -37 -130 -111 -162c100 -30 150 -86.333 150 -169v-2c0 -59.333 -23 -106 -69 -140s-107.667 -51 -185 -51h-272
c-10.667 0 -19.834 4 -27.501 12s-11.5 17.333 -11.5 28zM177 387.999l207 0.000976562c48.667 0 87.667 10.833 117 32.5s44 52.5 44 92.5v2c0 35.333 -13.5 63.166 -40.5 83.499s-65.167 30.5 -114.5 30.5h-213v-241zM177 71l235.001 -0.000976562
c53.333 0 95.333 11.167 126 33.5s46 52.833 46 91.5v2c0 38.667 -15.833 68.334 -47.5 89.001s-77.834 31 -138.501 31h-221v-247z" />
    <glyph glyph-name="C" unicode="C" horiz-adv-x="738" 
d="M419 -12c-100 0 -183.498 34.668 -250.498 104.001s-100.5 154.666 -100.5 255.999v2c0 100.667 33.667 186.167 101 256.5s151.666 105.5 252.999 105.5c52.667 0 98.5 -7.66699 137.5 -23s76.5 -38 112.5 -68c10.667 -9.33301 16 -20 16 -32
c0 -10.667 -4 -19.834 -12 -27.501s-17.333 -11.5 -28 -11.5c-8 0 -16.667 3 -26 9c-60 53.333 -127 80 -201 80c-77.333 0 -141.833 -27.667 -193.5 -83s-77.5 -123.333 -77.5 -204v-2c0 -81.333 26 -149.833 78 -205.5s116.333 -83.5 193 -83.5s146 28.333 208 85
c7.33301 7.33301 15.666 11 24.999 11c10 0 18.833 -3.83301 26.5 -11.5s11.5 -16.5 11.5 -26.5c0 -11.333 -4.33301 -20.666 -13 -27.999c-75.333 -68.667 -162 -103 -260 -103z" />
    <glyph glyph-name="D" unicode="D" horiz-adv-x="782" 
d="M99 40v619.999c0 10.667 3.83301 20 11.5 28s16.834 12 27.501 12h204c108.667 0 197.834 -33.167 267.501 -99.5s104.5 -149.166 104.5 -248.499v-2c0 -100 -34.833 -183.333 -104.5 -250s-158.834 -100 -267.501 -100h-204c-10.667 0 -19.834 4 -27.501 12
s-11.5 17.333 -11.5 28zM178 72.999h164c86.667 0 156.667 26 210 78s80 117.667 80 197v2c0 79.333 -26.667 145.333 -80 198s-123.333 79 -210 79h-164v-554z" />
    <glyph glyph-name="E" unicode="E" horiz-adv-x="670" 
d="M138 0c-10.667 0 -19.834 3.99902 -27.501 11.999s-11.5 17.333 -11.5 28v620c0 10.667 3.83301 20 11.5 28s16.834 12 27.501 12h435c10 0 18.5 -3.5 25.5 -10.5s10.5 -15.5 10.5 -25.5s-3.5 -18.5 -10.5 -25.5s-15.5 -10.5 -25.5 -10.5h-395v-239h350
c10 0 18.5 -3.66699 25.5 -11s10.5 -15.666 10.5 -24.999c0 -10 -3.5 -18.5 -10.5 -25.5s-15.5 -10.5 -25.5 -10.5h-350v-245h400c10 0 18.5 -3.5 25.5 -10.5s10.5 -15.5 10.5 -25.5s-3.5 -18.5 -10.5 -25.5s-15.5 -10.5 -25.5 -10.5h-440z" />
    <glyph glyph-name="F" unicode="F" horiz-adv-x="656" 
d="M99 35v625c0 10.667 3.83301 20 11.5 28s16.834 12 27.501 12h433c10 0 18.5 -3.5 25.5 -10.5s10.5 -15.5 10.5 -25.5s-3.5 -18.667 -10.5 -26s-15.5 -11 -25.5 -11h-393v-250h348c10 0 18.5 -3.5 25.5 -10.5s10.5 -15.5 10.5 -25.5s-3.5 -18.5 -10.5 -25.5
s-15.5 -10.5 -25.5 -10.5h-348v-270c0 -11.333 -4 -20.833 -12 -28.5s-17.333 -11.5 -28 -11.5s-19.834 4 -27.501 12s-11.5 17.333 -11.5 28z" />
    <glyph glyph-name="G" unicode="G" horiz-adv-x="784" 
d="M424 -12c-107.333 0 -193.499 34.333 -258.499 103s-97.5 154.334 -97.5 257.001v2c0 98.667 33 183.667 99 255s150 107 252 107c91.333 0 171 -25 239 -75c10.667 -8 16 -18.667 16 -32c0 -10.667 -3.83301 -20 -11.5 -28s-16.834 -12 -27.501 -12
c-8 0 -16.333 3.33301 -25 10c-56 42.667 -120.667 64 -194 64c-76 0 -139.333 -28 -190 -84s-76 -123.667 -76 -203v-2c0 -84.667 25.167 -154.334 75.5 -209.001s117.5 -82 201.5 -82c77.333 0 144.666 23.333 201.999 70v174h-188c-9.33301 0 -17.5 3.5 -24.5 10.5
s-10.5 15.167 -10.5 24.5c0 10 3.5 18.5 10.5 25.5s15.167 10.5 24.5 10.5h225c10.667 0 19.834 -4 27.501 -12s11.5 -17.333 11.5 -28v-213c0 -20 -9 -36 -27 -48c-77.333 -56.667 -162 -85 -254 -85z" />
    <glyph glyph-name="H" unicode="H" horiz-adv-x="760" 
d="M99 35v630c0 10.667 3.83301 20 11.5 28s16.834 12 27.501 12s20 -3.83301 28 -11.5s12 -17.167 12 -28.5v-276h404v276c0 11.333 4 20.833 12 28.5s17.333 11.5 28 11.5s19.834 -4 27.501 -12s11.5 -17.333 11.5 -28v-630c0 -10.667 -3.83301 -20 -11.5 -28
s-16.834 -12 -27.501 -12s-20 3.83301 -28 11.5s-12 17.167 -12 28.5v280h-404v-280c0 -11.333 -4 -20.833 -12 -28.5s-17.333 -11.5 -28 -11.5s-19.834 4 -27.501 12s-11.5 17.333 -11.5 28z" />
    <glyph glyph-name="I" unicode="I" horiz-adv-x="291" 
d="M106 35v630c0 10.667 3.83301 20 11.5 28s16.834 12 27.501 12c11.333 0 20.833 -3.83301 28.5 -11.5s11.5 -17.167 11.5 -28.5v-630c0 -11.333 -3.83301 -20.833 -11.5 -28.5s-17.167 -11.5 -28.5 -11.5c-10.667 0 -19.834 4 -27.501 12s-11.5 17.333 -11.5 28z" />
    <glyph glyph-name="J" unicode="J" horiz-adv-x="553" 
d="M247 -10c-82.667 0 -148.668 33.332 -198.001 99.999c-7.33301 7.33301 -11 16.333 -11 27s3.83301 19.834 11.5 27.501s16.834 11.5 27.501 11.5s20 -4.66699 28 -14c20 -27.333 41.167 -47.333 63.5 -60s49.166 -19 80.499 -19c40.667 0 73.667 14.5 99 43.5
s38 70.5 38 124.5v434c0 11.333 4 20.833 12 28.5s17.333 11.5 28 11.5s19.834 -3.83301 27.501 -11.5s11.5 -17.167 11.5 -28.5v-433c0 -80 -21.333 -141.333 -64 -184c-40 -38.667 -91.333 -58 -154 -58z" />
    <glyph glyph-name="K" unicode="K" horiz-adv-x="714" 
d="M99 35l0.000976562 630c0 10.667 3.83301 20 11.5 28s16.834 12 27.501 12s20 -3.83301 28 -11.5s12 -17.167 12 -28.5v-383l399 409c10.667 9.33301 21 14 31 14s18.833 -4 26.5 -12s11.5 -17 11.5 -27s-4.33301 -19.333 -13 -28l-248 -246l266 -328
c7.33301 -9.33301 11 -19 11 -29c0 -10.667 -4 -20 -12 -28s-17.333 -12 -28 -12c-12.667 0 -23.334 6 -32.001 18l-261 325l-151 -151v-152c0 -11.333 -4 -20.833 -12 -28.5s-17.333 -11.5 -28 -11.5s-19.834 4 -27.501 12s-11.5 17.333 -11.5 28z" />
    <glyph glyph-name="L" unicode="L" horiz-adv-x="619" 
d="M99 40v625c0 10.667 3.83301 20 11.5 28s16.834 12 27.501 12s20 -3.83301 28 -11.5s12 -17.167 12 -28.5v-592h363c10 0 18.5 -3.66699 25.5 -11s10.5 -16 10.5 -26s-3.5 -18.5 -10.5 -25.5s-15.5 -10.5 -25.5 -10.5h-403c-10.667 0 -19.834 4 -27.501 12
s-11.5 17.333 -11.5 28z" />
    <glyph glyph-name="M" unicode="M" horiz-adv-x="868" 
d="M99 34l-0.00195312 630c0 10.667 3.83301 19.834 11.5 27.501s16.834 11.5 27.501 11.5h9c15.333 0 27.666 -7 36.999 -21l250 -376l250 376c8.66699 14 21 21 37 21h9c10.667 0 19.834 -3.83301 27.501 -11.5s11.5 -16.834 11.5 -27.501v-629
c0 -10.667 -3.83301 -20 -11.5 -28s-16.834 -12 -27.501 -12s-20 4 -28 12s-12 17.333 -12 28v522l-224 -329c-9.33301 -13.333 -20.333 -20 -33 -20c-13.333 0 -24.666 6.66699 -33.999 20l-223 328v-522c0 -10.667 -3.66699 -19.834 -11 -27.501
s-16.666 -11.5 -27.999 -11.5c-10.667 0 -19.667 3.83301 -27 11.5s-11 16.834 -11 27.501z" />
    <glyph glyph-name="N" unicode="N" horiz-adv-x="790" 
d="M99 34v629.999c0 10.667 3.83301 19.834 11.5 27.501s16.834 11.5 27.501 11.5h11c14.667 0 28 -7.66699 40 -23l425 -542v528c0 10.667 3.83301 19.834 11.5 27.501s16.834 11.5 27.501 11.5s19.667 -3.83301 27 -11.5s11 -16.834 11 -27.501v-632
c0 -10.667 -3.33301 -19.5 -10 -26.5s-15.334 -10.5 -26.001 -10.5h-4c-13.333 0 -27 8 -41 24l-434 555v-542c0 -10.667 -3.83301 -19.834 -11.5 -27.501s-16.834 -11.5 -27.501 -11.5s-19.667 3.83301 -27 11.5s-11 16.834 -11 27.501z" />
    <glyph glyph-name="O" unicode="O" horiz-adv-x="850" 
d="M424 -12c-104 0 -189.333 35.167 -256 105.5s-100 155.166 -100 254.499v2c0 99.333 33.667 184.5 101 255.5s153 106.5 257 106.5s189.333 -35.167 256 -105.5s100 -155.166 100 -254.499v-2c0 -99.333 -33.667 -184.5 -101 -255.5s-153 -106.5 -257 -106.5zM426 61
c79.333 0 144.833 27.667 196.5 83s77.5 123.333 77.5 204v2c0 80.667 -26.167 149 -78.5 205s-118.166 84 -197.499 84s-144.833 -27.667 -196.5 -83s-77.5 -123.333 -77.5 -204v-2c0 -80.667 26.167 -149 78.5 -205s118.166 -84 197.499 -84z" />
    <glyph glyph-name="P" unicode="P" horiz-adv-x="668" 
d="M99 35v625.001c0 10.667 3.83301 20 11.5 28s16.834 12 27.501 12h223c79.333 0 142.833 -19.833 190.5 -59.5s71.5 -93.834 71.5 -162.501v-2c0 -72.667 -26.167 -129 -78.5 -169s-117.833 -60 -196.5 -60h-170v-212c0 -11.333 -4 -20.833 -12 -28.5
s-17.333 -11.5 -28 -11.5s-19.834 4 -27.501 12s-11.5 17.333 -11.5 28zM178 319.001h173c58 0 104.5 14.167 139.5 42.5s52.5 65.5 52.5 111.5v2c0 48.667 -16.833 86.167 -50.5 112.5s-79.5 39.5 -137.5 39.5h-177v-308z" />
    <glyph glyph-name="Q" unicode="Q" horiz-adv-x="850" 
d="M424 -12c-104 0 -189.333 35.168 -256 105.501s-100 155.166 -100 254.499v2c0 99.333 33.667 184.5 101 255.5s153 106.5 257 106.5s189.333 -35.167 256 -105.5s100 -155.166 100 -254.499v-2c0 -88.667 -27.667 -167 -83 -235l66 -55
c10.667 -9.33301 16 -20.333 16 -33c0 -10.667 -3.83301 -19.834 -11.5 -27.501s-16.834 -11.5 -27.501 -11.5c-10 0 -20 4.33301 -30 13l-68 61c-63.333 -49.333 -136.666 -74 -219.999 -74zM482 204.001c-11.333 9.33301 -17.001 20 -17.001 32
c0 10.667 3.83301 20 11.5 28s16.834 12 27.501 12c10 0 20 -4.33301 30 -13l107 -98c39.333 52 59 113 59 183v2c0 80.667 -26.167 149 -78.5 205s-118.166 84 -197.499 84s-144.833 -27.667 -196.5 -83s-77.5 -123.333 -77.5 -204v-2c0 -80.667 26.167 -149 78.5 -205
s118.166 -84 197.499 -84c62 0 116 17.333 162 52z" />
    <glyph glyph-name="R" unicode="R" horiz-adv-x="723" 
d="M99 35v625.002c0 10.667 3.83301 20 11.5 28s16.834 12 27.501 12h262c86 0 152.333 -23.333 199 -70c36 -36 54 -82 54 -138v-2c0 -55.333 -16.833 -100.333 -50.5 -135s-79.167 -57.334 -136.5 -68.001l174 -224c8.66699 -10 13 -19.667 13 -29
c0 -10.667 -4.16699 -19.834 -12.5 -27.501s-17.5 -11.5 -27.5 -11.5c-14 0 -26.333 7 -37 21l-197 256h-201v-237c0 -11.333 -4 -20.833 -12 -28.5s-17.333 -11.5 -28 -11.5s-19.834 4 -27.501 12s-11.5 17.333 -11.5 28zM178 343.002l215.001 0.000976562
c53.333 0 96.666 13 129.999 39s50 61 50 105v2c0 43.333 -15.833 77.166 -47.5 101.499s-75.5 36.5 -131.5 36.5h-216v-284z" />
    <glyph glyph-name="S" unicode="S" horiz-adv-x="640" 
d="M339 -10c-98 0 -186.332 31.332 -264.999 93.999c-10 6.66699 -15 16.667 -15 30c0 10.667 3.66699 19.834 11 27.501s16.333 11.5 27 11.5c10 0 18 -3 24 -9c65.333 -55.333 139 -83 221 -83c46.667 0 84.334 11.167 113.001 33.5s43 50.833 43 85.5v2
c0 34 -12.667 61 -38 81s-73.333 37.333 -144 52c-82.667 18 -142.5 42.167 -179.5 72.5s-55.5 73.5 -55.5 129.5v2c0 55.333 21.667 101 65 137s98.333 54 165 54c84.667 0 159 -23 223 -69c11.333 -8.66699 17 -19.334 17 -32.001c0 -10.667 -3.66699 -19.667 -11 -27
s-16.333 -11 -27 -11c-8.66699 0 -16.334 2.33301 -23.001 7c-56 40.667 -116.333 61 -181 61c-44.667 0 -80.667 -10.833 -108 -32.5s-41 -48.5 -41 -80.5v-2c0 -34.667 13.167 -62 39.5 -82s76.5 -38 150.5 -54c79.333 -17.333 137.166 -41.5 173.499 -72.5
s54.5 -72.833 54.5 -125.5v-2c0 -59.333 -22.333 -107.166 -67 -143.499s-102 -54.5 -172 -54.5z" />
    <glyph glyph-name="T" unicode="T" horiz-adv-x="648" 
d="M284 35v592h-203c-10 0 -18.667 3.5 -26 10.5s-11 15.5 -11 25.5s3.66699 18.667 11 26s16 11 26 11h486c10 0 18.667 -3.66699 26 -11s11 -16 11 -26s-3.66699 -18.5 -11 -25.5s-16 -10.5 -26 -10.5h-203v-592c0 -11.333 -4 -20.833 -12 -28.5s-17.333 -11.5 -28 -11.5
s-20 3.83301 -28 11.5s-12 17.167 -12 28.5z" />
    <glyph glyph-name="U" unicode="U" horiz-adv-x="759" 
d="M379 -11c-88.667 0 -159.335 26.501 -212.002 79.501s-79 127.833 -79 224.5v372c0 10.667 3.83301 20 11.5 28s16.834 12 27.501 12c11.333 0 20.833 -3.83301 28.5 -11.5s11.5 -17.167 11.5 -28.5v-367c0 -74.667 19 -132.667 57 -174s90.333 -62 157 -62
c66 0 117.667 19.667 155 59s56 96.666 56 171.999v372c0 11.333 4 20.833 12 28.5s17.333 11.5 28 11.5s19.834 -4 27.501 -12s11.5 -17.333 11.5 -28v-366c0 -100 -26.333 -176.667 -79 -230s-123.667 -80 -213 -80z" />
    <glyph glyph-name="V" unicode="V" horiz-adv-x="744" 
d="M370 -8c-22 0 -37.334 11 -46.001 33l-270 623c-2.66699 5.33301 -4 11.333 -4 18c0 10 4 19 12 27s17.333 12 28 12c19.333 0 33 -10 41 -30l242 -580l243 582c9.33301 18.667 22.333 28 39 28c10.667 0 19.834 -3.83301 27.501 -11.5s11.5 -16.5 11.5 -26.5
c0 -6 -1 -11.333 -3 -16l-271 -626c-10 -22 -25.333 -33 -46 -33h-4z" />
    <glyph glyph-name="W" unicode="W" horiz-adv-x="1101" 
d="M281 25l-224.001 622c-2.66699 8 -4 14 -4 18c0 10.667 4.16699 20 12.5 28s17.833 12 28.5 12c20 0 33.667 -11 41 -33l193 -556l183 558c6.66699 20.667 19.667 31 39 31h5c19.333 0 32.333 -10.333 39 -31l183 -558l194 558c6.66699 20.667 19.334 31 38.001 31
c10.667 0 20 -4 28 -12s12 -17 12 -27c0 -2.66699 -1.66699 -9 -5 -19l-224 -622c-8 -22.667 -21.667 -34 -41 -34h-6c-19.333 0 -33 11.333 -41 34l-182 538l-181 -538c-8 -22.667 -21.667 -34 -41 -34h-6c-20 0 -33.667 11.333 -41 34z" />
    <glyph glyph-name="X" unicode="X" horiz-adv-x="719" 
d="M66 32c0 10 3.66602 19.334 10.999 28.001l234 297l-222 280c-8.66699 11.333 -13 21.333 -13 30c0 10 3.83301 18.833 11.5 26.5s16.834 11.5 27.501 11.5c12 0 23.667 -6.66699 35 -20l211 -274l208 271c12.667 15.333 25.334 23 38.001 23c10 0 18.5 -3.5 25.5 -10.5
s10.5 -15.833 10.5 -26.5c0 -10 -3.66699 -19.333 -11 -28l-223 -282l231 -295c8.66699 -10 13 -19.667 13 -29c0 -10.667 -3.83301 -19.834 -11.5 -27.501s-16.834 -11.5 -27.501 -11.5c-12 0 -23.667 6.66699 -35 20l-221 287l-218 -284
c-12.667 -15.333 -25.667 -23 -39 -23c-9.33301 0 -17.5 3.66699 -24.5 11s-10.5 16 -10.5 26z" />
    <glyph glyph-name="Y" unicode="Y" horiz-adv-x="708" 
d="M314 35v240l-260 364c-6 9.33301 -9 18.333 -9 27c0 10.667 4 19.834 12 27.501s17.667 11.5 29 11.5c14 0 26.667 -8 38 -24l231 -333l233 333c11.333 16 23.666 24 36.999 24c10.667 0 19.834 -3.83301 27.501 -11.5s11.5 -16.834 11.5 -27.501
c0 -7.33301 -3.66699 -17 -11 -29l-259 -360v-242c0 -11.333 -4 -20.833 -12 -28.5s-17.333 -11.5 -28 -11.5s-20 3.83301 -28 11.5s-12 17.167 -12 28.5z" />
    <glyph glyph-name="Z" unicode="Z" horiz-adv-x="693" 
d="M104 0c-10 0 -18.666 3.33301 -25.999 10s-11 14.667 -11 24v2c0 12 4.66699 23.667 14 35l439 558h-406c-10 0 -18.5 3.5 -25.5 10.5s-10.5 15.167 -10.5 24.5c0 10 3.5 18.5 10.5 25.5s15.5 10.5 25.5 10.5h477c9.33301 0 17.666 -3.5 24.999 -10.5
s11 -14.833 11 -23.5v-2c0 -12 -4.66699 -23.667 -14 -35l-439 -558h422c10 0 18.5 -3.5 25.5 -10.5s10.5 -15.167 10.5 -24.5c0 -10 -3.5 -18.5 -10.5 -25.5s-15.5 -10.5 -25.5 -10.5h-492z" />
    <glyph glyph-name="bracketleft" unicode="[" horiz-adv-x="439" 
d="M94 -91v751.998c0 10.667 3.83301 19.834 11.5 27.501s16.834 11.5 27.501 11.5h222c8 0 15 -3 21 -9s9 -13 9 -21s-3 -15 -9 -21s-13 -9 -21 -9h-188v-710h188c8 0 15 -3 21 -9s9 -13 9 -21s-3 -15 -9 -21s-13 -9 -21 -9h-222c-10.667 0 -19.834 3.83301 -27.501 11.5
s-11.5 16.834 -11.5 27.501z" />
    <glyph glyph-name="backslash" unicode="\" horiz-adv-x="508" 
d="M512 -102c0 -8.66699 -3.16602 -16 -9.49902 -22s-13.833 -9 -22.5 -9c-12.667 0 -22.334 6.66699 -29.001 20l-436 868c-2.66699 5.33301 -4 11 -4 17c0 8.66699 3 16 9 22s13.333 9 22 9c13.333 0 23.333 -6.66699 30 -20l436 -868c2.66699 -5.33301 4 -11 4 -17z" />
    <glyph glyph-name="bracketright" unicode="]" horiz-adv-x="439" 
d="M346 661v-751.998c0 -10.667 -3.83301 -19.834 -11.5 -27.501s-16.834 -11.5 -27.501 -11.5h-222c-8.66699 0 -16 3 -22 9s-9 13 -9 21s3 15 9 21s13.333 9 22 9h188v710h-188c-8.66699 0 -16 3 -22 9s-9 13 -9 21s3 15 9 21s13.333 9 22 9h222
c10.667 0 19.834 -3.83301 27.501 -11.5s11.5 -16.834 11.5 -27.501z" />
    <glyph glyph-name="asciicircum" unicode="^" horiz-adv-x="500" 
d="M249 647l-101 -133c-13.333 -16.667 -30 -25 -50 -25c-5.33301 0 -9.83301 1.5 -13.5 4.5s-5.5 6.16699 -5.5 9.5c0 6 2.33301 12.333 7 19l119 159c13.333 16.667 27 25 41 25h8c14 0 27.667 -8.33301 41 -25l118 -159c5.33301 -6 8 -12.333 8 -19
c0 -9.33301 -6.66699 -14 -20 -14c-20.667 0 -37.667 8.33301 -51 25z" />
    <glyph glyph-name="underscore" unicode="_" horiz-adv-x="600" 
d="M-2 -160c-8.66699 0 -16.167 3.16699 -22.5 9.5s-9.5 13.833 -9.5 22.5s3.16699 16 9.5 22s13.833 9 22.5 9h604c8.66699 0 16.167 -3 22.5 -9s9.5 -13.333 9.5 -22s-3.16699 -16.167 -9.5 -22.5s-13.833 -9.5 -22.5 -9.5h-604z" />
    <glyph glyph-name="grave" unicode="`" horiz-adv-x="500" 
d="M289 591c-18.667 0 -34.333 6.33203 -47 18.999l-75 71c-9.33301 9.33301 -14 17 -14 23c0 6.66699 6 13.334 18 20.001s24 10 36 10c14 0 26 -7.66699 36 -23l60 -91c3.33301 -4.66699 5 -9.66699 5 -15c0 -9.33301 -6.33301 -14 -19 -14z" />
    <glyph glyph-name="a" unicode="a" horiz-adv-x="579" 
d="M240 -11c-52 0 -97.167 14.3311 -135.5 42.998s-57.5 68 -57.5 118v2c0 53.333 20 94.5 60 123.5s93.667 43.5 161 43.5c54 0 107 -7.33301 159 -22v18c0 46 -13.333 81 -40 105s-64.667 36 -114 36c-46 0 -90.667 -9.66699 -134 -29c-4.66699 -2 -9.33398 -3 -14.001 -3
c-9.33301 0 -17.333 3.33301 -24 10s-10 14.334 -10 23.001c0 16 7 26.667 21 32c54 23.333 110.333 35 169 35c73.333 0 129 -19 167 -57c35.333 -35.333 53 -85.666 53 -150.999v-283c0 -10.667 -3.5 -19.667 -10.5 -27s-15.833 -11 -26.5 -11s-19.5 3.5 -26.5 10.5
s-10.5 15.5 -10.5 25.5v47c-45.333 -59.333 -107.666 -89 -186.999 -89zM255 49.998c48 0 88.834 13.167 122.501 39.5s50.5 59.833 50.5 100.5v50c-50.667 14.667 -101.334 22 -152.001 22c-48 0 -85.167 -9.66699 -111.5 -29s-39.5 -45.333 -39.5 -78v-2
c0 -31.333 12.5 -56.333 37.5 -75s55.833 -28 92.5 -28z" />
    <glyph glyph-name="b" unicode="b" 
d="M86 34v662c0 10.667 3.66699 19.834 11 27.501s16.333 11.5 27 11.5s19.834 -3.83301 27.501 -11.5s11.5 -16.834 11.5 -27.501v-283c52 76.667 118 115 198 115c66 0 123.667 -24.333 173 -73s74 -113.667 74 -195v-2c0 -80.667 -24.667 -145.667 -74 -195
s-107 -74 -173 -74c-81.333 0 -147.333 36.667 -198 110v-65c0 -10.667 -3.66699 -19.834 -11 -27.501s-16.333 -11.5 -27 -11.5s-19.834 3.83301 -27.501 11.5s-11.5 16.834 -11.5 27.501zM347 58c52 0 95.333 18 130 54s52 84.333 52 145v2
c0 59.333 -17.667 107.5 -53 144.5s-78.333 55.5 -129 55.5c-50 0 -93.667 -18.833 -131 -56.5s-56 -85.167 -56 -142.5v-2c0 -58 18.667 -105.833 56 -143.5s81 -56.5 131 -56.5z" />
    <glyph glyph-name="c" unicode="c" horiz-adv-x="571" 
d="M319 -12c-74.667 0 -137.501 26.333 -188.501 79s-76.5 115.667 -76.5 189v2c0 74 25.5 137.5 76.5 190.5s113.833 79.5 188.5 79.5c72 0 135.333 -25 190 -75c8 -6.66699 12 -15.667 12 -27c0 -10.667 -3.66699 -19.5 -11 -26.5s-16 -10.5 -26 -10.5
c-9.33301 0 -17.666 3 -24.999 9c-44.667 41.333 -91.667 62 -141 62c-52 0 -95.833 -19.333 -131.5 -58s-53.5 -86 -53.5 -142v-2c0 -56 18.167 -103.5 54.5 -142.5s81.5 -58.5 135.5 -58.5c51.333 0 99.333 21 144 63c6.66699 6.66699 14 10 22 10
c9.33301 0 17.5 -3.5 24.5 -10.5s10.5 -15.167 10.5 -24.5s-3.33301 -17.333 -10 -24c-55.333 -55.333 -120.333 -83 -195 -83z" />
    <glyph glyph-name="d" unicode="d" 
d="M578 696l0.00195312 -661.998c0 -10.667 -3.66699 -19.834 -11 -27.501s-16.333 -11.5 -27 -11.5s-19.834 3.83301 -27.501 11.5s-11.5 16.834 -11.5 27.501v70c-52 -76.667 -118 -115 -198 -115c-66 0 -123.667 24.333 -173 73s-74 113.667 -74 195v2
c0 80.667 24.667 145.667 74 195s107 74 173 74c81.333 0 147.333 -36.667 198 -110v278c0 11.333 3.66699 20.666 11 27.999s16.333 11 27 11c11.333 0 20.666 -3.83301 27.999 -11.5s11 -16.834 11 -27.501zM317.002 459.002c-52 0 -95.333 -18 -130 -54
s-52 -84.333 -52 -145v-2c0 -59.333 17.833 -107.5 53.5 -144.5s78.5 -55.5 128.5 -55.5s93.667 18.833 131 56.5s56 85.5 56 143.5v2c0 57.333 -18.667 104.833 -56 142.5s-81 56.5 -131 56.5z" />
    <glyph glyph-name="e" unicode="e" horiz-adv-x="592" 
d="M132 287h333.001c-4 50.667 -20.333 92.667 -49 126s-67.334 50 -116.001 50c-44.667 0 -82.5 -16.667 -113.5 -50s-49.167 -75.333 -54.5 -126zM507.001 66c-54 -52 -118.995 -78.001 -194.995 -78.001c-72.667 0 -133.834 25.167 -183.501 75.5
s-74.5 114.833 -74.5 193.5v2c0 75.333 23.667 139 71 191s106.333 78 177 78c73.333 0 131.666 -25.667 174.999 -77s65 -113 65 -185c0 -10 -3.5 -18.5 -10.5 -25.5s-15.5 -10.5 -25.5 -10.5h-374c5.33301 -54.667 25.166 -97.5 59.499 -128.5s75.166 -46.5 122.499 -46.5
c56 0 105.667 20 149 60c7.33301 6 14.666 9 21.999 9c9.33301 0 17.333 -3.16699 24 -9.5s10 -14.166 10 -23.499c0 -10 -4 -18.333 -12 -25z" />
    <glyph glyph-name="f" unicode="f" horiz-adv-x="367" 
d="M115 34v414.998h-42c-9.33301 0 -17.166 3.33301 -23.499 10s-9.5 14.667 -9.5 24c0 8.66699 3.33301 16.334 10 23.001s14.334 10 23.001 10h42v45c0 58.667 15 103 45 133c26.667 26.667 63.667 40 111 40c23.333 0 43.666 -2 60.999 -6c18.667 -4 28 -15 28 -33
c0 -10 -3.66699 -18.333 -11 -25s-16 -9.33398 -26 -8.00098c-21.333 3.33301 -35.333 5 -42 5c-60 0 -90 -36.667 -90 -110v-42h134c9.33301 0 17.333 -3.16699 24 -9.5s10 -14.166 10 -23.499s-3.33301 -17.166 -10 -23.499s-14.667 -9.5 -24 -9.5h-133v-415
c0 -10.667 -3.66699 -19.834 -11 -27.501s-16.333 -11.5 -27 -11.5s-19.834 3.83301 -27.501 11.5s-11.5 16.834 -11.5 27.501z" />
    <glyph glyph-name="g" unicode="g" 
d="M315 -162c-78 0 -150.002 20.332 -216.002 60.999c-13.333 6.66699 -20 17.334 -20 32.001c0 8.66699 3.66699 16.5 11 23.5s15.333 10.5 24 10.5c6 0 11.667 -1.66699 17 -5c56 -37.333 117 -56 183 -56c58 0 103.833 15.833 137.5 47.5s50.5 77.167 50.5 136.5v61
c-54.667 -72.667 -122.334 -109 -203.001 -109c-65.333 0 -122.166 22.5 -170.499 67.5s-72.5 103.167 -72.5 174.5v2c0 72.667 24.333 131.5 73 176.5s105.334 67.5 170.001 67.5c82.667 0 150 -34.667 202 -104v59c0 10.667 3.66699 19.834 11 27.501s16.333 11.5 27 11.5
s19.834 -3.83301 27.501 -11.5s11.5 -16.834 11.5 -27.501v-393c0 -78 -22 -139 -66 -183c-46 -46 -111.667 -69 -197 -69zM313.998 107.999c50.667 0 95 16.5 133 49.5s57 74.833 57 125.5v2c0 51.333 -18.833 93.333 -56.5 126s-82.167 49 -133.5 49
c-50 0 -92.333 -16 -127 -48s-52 -74 -52 -126v-2c0 -50.667 17.5 -92.667 52.5 -126s77.167 -50 126.5 -50z" />
    <glyph glyph-name="h" unicode="h" horiz-adv-x="616" 
d="M86 34v661.998c0 10.667 3.66699 19.834 11 27.501s16.333 11.5 27 11.5s19.834 -3.83301 27.501 -11.5s11.5 -16.834 11.5 -27.501v-269c40.667 67.333 99.667 101 177 101c61.333 0 109.666 -18.833 144.999 -56.5s53 -87.834 53 -150.501v-287
c0 -10.667 -3.66699 -19.834 -11 -27.501s-16.333 -11.5 -27 -11.5s-19.834 3.83301 -27.501 11.5s-11.5 16.834 -11.5 27.501v268c0 48.667 -12.5 86.834 -37.5 114.501s-60.167 41.5 -105.5 41.5c-44.667 0 -81.667 -15 -111 -45s-44 -69 -44 -117v-262
c0 -11.333 -3.66699 -20.666 -11 -27.999s-16.333 -11 -27 -11c-11.333 0 -20.666 3.83301 -27.999 11.5s-11 16.834 -11 27.501z" />
    <glyph glyph-name="i" unicode="i" horiz-adv-x="263" 
d="M86 666v13c0 12 4.33301 21.833 13 29.5s19.334 11.5 32.001 11.5c13.333 0 24.333 -3.83301 33 -11.5s13 -17.5 13 -29.5v-13c0 -12 -4.33301 -21.833 -13 -29.5s-19.667 -11.5 -33 -11.5c-12.667 0 -23.334 3.83301 -32.001 11.5s-13 17.5 -13 29.5zM93 34
l0.00195312 448.996c0 10.667 3.66699 19.834 11 27.501s16.333 11.5 27 11.5c11.333 0 20.666 -3.66699 27.999 -11s11 -16.666 11 -27.999v-449c0 -11.333 -3.66699 -20.666 -11 -27.999s-16.333 -11 -27 -11s-19.834 3.83301 -27.501 11.5s-11.5 16.834 -11.5 27.501z
" />
    <glyph glyph-name="j" unicode="j" horiz-adv-x="263" 
d="M86 666v13c0 12 4.33301 21.833 13 29.5s19.334 11.5 32.001 11.5c13.333 0 24.333 -3.83301 33 -11.5s13 -17.5 13 -29.5v-13c0 -12 -4.33301 -21.833 -13 -29.5s-19.667 -11.5 -33 -11.5c-12.667 0 -23.334 3.83301 -32.001 11.5s-13 17.5 -13 29.5zM47 -163
c-8.66699 0 -14.665 0.331055 -17.998 0.998047c-26 1.33301 -39 12.333 -39 33c0 8.66699 3.16699 16.167 9.5 22.5s13.833 9.5 22.5 9.5c2 0 5 -0.166992 9 -0.5s6.66699 -0.5 8 -0.5c36 0 54 22 54 66v515c0 10.667 3.66699 19.834 11 27.501s16.333 11.5 27 11.5
c11.333 0 20.666 -3.66699 27.999 -11s11 -16.666 11 -27.999v-513c0 -44 -10.833 -77.167 -32.5 -99.5s-51.834 -33.5 -90.501 -33.5z" />
    <glyph glyph-name="k" unicode="k" horiz-adv-x="568" 
d="M86 34l-0.00195312 662c0 10.667 3.66699 19.834 11 27.501s16.333 11.5 27 11.5s19.834 -3.83301 27.501 -11.5s11.5 -16.834 11.5 -27.501v-474l280 285c8.66699 10 18.667 15 30 15c10 0 18.333 -3.5 25 -10.5s10 -15.5 10 -25.5s-5 -20 -15 -30l-169 -166l185 -233
c6.66699 -8.66699 10 -17.334 10 -26.001c0 -10.667 -3.5 -19.334 -10.5 -26.001s-15.833 -10 -26.5 -10c-12.667 0 -23.667 6 -33 18l-179 226l-107 -106v-99c0 -11.333 -3.66699 -20.666 -11 -27.999s-16.333 -11 -27 -11c-11.333 0 -20.666 3.83301 -27.999 11.5
s-11 16.834 -11 27.501z" />
    <glyph glyph-name="l" unicode="l" horiz-adv-x="263" 
d="M93 34v661.998c0 10.667 3.66699 19.834 11 27.501s16.333 11.5 27 11.5s19.834 -3.83301 27.501 -11.5s11.5 -16.834 11.5 -27.501v-662c0 -11.333 -3.66699 -20.666 -11 -27.999s-16.333 -11 -27 -11s-19.834 3.83301 -27.501 11.5s-11.5 16.834 -11.5 27.501z" />
    <glyph glyph-name="m" unicode="m" horiz-adv-x="951" 
d="M86 34v448.996c0 10.667 3.66699 19.834 11 27.501s16.333 11.5 27 11.5s19.834 -3.66699 27.501 -11s11.5 -16.666 11.5 -27.999v-53c43.333 65.333 99 98 167 98c77.333 0 132.666 -34.333 165.999 -103c44.667 68.667 105.334 103 182.001 103
c59.333 0 106.166 -18.667 140.499 -56s51.5 -88 51.5 -152v-286c0 -10.667 -3.66699 -19.834 -11 -27.501s-16.333 -11.5 -27 -11.5s-19.834 3.83301 -27.501 11.5s-11.5 16.834 -11.5 27.501v268c0 50 -11.833 88.5 -35.5 115.5s-56.5 40.5 -98.5 40.5
c-40.667 0 -74.5 -14.333 -101.5 -43s-40.5 -67.667 -40.5 -117v-264c0 -10.667 -3.83301 -19.834 -11.5 -27.501s-16.834 -11.5 -27.501 -11.5s-19.667 3.83301 -27 11.5s-11 16.834 -11 27.501v270c0 48 -11.833 85.667 -35.5 113s-56.167 41 -97.5 41
s-75.666 -15.333 -102.999 -46s-41 -69.667 -41 -117v-261c0 -11.333 -3.66699 -20.666 -11 -27.999s-16.333 -11 -27 -11c-11.333 0 -20.666 3.83301 -27.999 11.5s-11 16.834 -11 27.501z" />
    <glyph glyph-name="n" unicode="n" horiz-adv-x="616" 
d="M86 34v448.996c0 10.667 3.66699 19.834 11 27.501s16.333 11.5 27 11.5s19.834 -3.66699 27.501 -11s11.5 -16.666 11.5 -27.999v-56c40.667 67.333 99.667 101 177 101c61.333 0 109.666 -18.833 144.999 -56.5s53 -87.834 53 -150.501v-287
c0 -10.667 -3.66699 -19.834 -11 -27.501s-16.333 -11.5 -27 -11.5s-19.834 3.83301 -27.501 11.5s-11.5 16.834 -11.5 27.501v268c0 48.667 -12.5 86.834 -37.5 114.501s-60.167 41.5 -105.5 41.5c-44.667 0 -81.667 -15 -111 -45s-44 -69 -44 -117v-262
c0 -11.333 -3.66699 -20.666 -11 -27.999s-16.333 -11 -27 -11c-11.333 0 -20.666 3.83301 -27.999 11.5s-11 16.834 -11 27.501z" />
    <glyph glyph-name="o" unicode="o" horiz-adv-x="646" 
d="M322 -12c-76.667 0 -140.501 26.167 -191.501 78.5s-76.5 115.5 -76.5 189.5v2c0 74 25.833 137.5 77.5 190.5s115.834 79.5 192.501 79.5s140.667 -26.167 192 -78.5s77 -115.5 77 -189.5v-2c0 -74 -26 -137.5 -78 -190.5s-116.333 -79.5 -193 -79.5zM323.999 57
c55.333 0 100.834 19.333 136.501 58s53.5 85.667 53.5 141v2c0 56 -18.5 103.667 -55.5 143s-82.5 59 -136.5 59c-54.667 0 -99.834 -19.5 -135.501 -58.5s-53.5 -86.167 -53.5 -141.5v-2c0 -56 18.333 -103.5 55 -142.5s82 -58.5 136 -58.5z" />
    <glyph glyph-name="p" unicode="p" 
d="M86 -126l-0.00195312 608.996c0 10.667 3.66699 19.834 11 27.501s16.333 11.5 27 11.5s19.834 -3.66699 27.501 -11s11.5 -16.666 11.5 -27.999v-70c52 76.667 118 115 198 115c66 0 123.667 -24.333 173 -73s74 -113.667 74 -195v-2
c0 -80.667 -24.667 -145.667 -74 -195s-107 -74 -173 -74c-81.333 0 -147.333 36.667 -198 110v-225c0 -11.333 -3.66699 -20.666 -11 -27.999s-16.333 -11 -27 -11c-11.333 0 -20.666 3.83301 -27.999 11.5s-11 16.834 -11 27.501zM346.998 57.9961c52 0 95.333 18 130 54
s52 84.333 52 145v2c0 59.333 -17.667 107.5 -53 144.5s-78.333 55.5 -129 55.5c-50 0 -93.667 -18.833 -131 -56.5s-56 -85.167 -56 -142.5v-2c0 -58 18.667 -105.833 56 -143.5s81 -56.5 131 -56.5z" />
    <glyph glyph-name="q" unicode="q" 
d="M578 483v-609c0 -10.667 -3.66699 -19.834 -11 -27.501s-16.333 -11.5 -27 -11.5s-19.834 3.83301 -27.501 11.5s-11.5 16.834 -11.5 27.501v230c-52 -76.667 -118 -115 -198 -115c-66 0 -123.667 24.333 -173 73s-74 113.667 -74 195v2c0 80.667 24.667 145.667 74 195
s107 74 173 74c81.333 0 147.333 -36.667 198 -110v65c0 10.667 3.66699 19.834 11 27.501s16.333 11.5 27 11.5s19.834 -3.83301 27.501 -11.5s11.5 -16.834 11.5 -27.501zM317 459c-52 0 -95.333 -18 -130 -54s-52 -84.333 -52 -145v-2
c0 -59.333 17.833 -107.5 53.5 -144.5s78.5 -55.5 128.5 -55.5s93.667 18.833 131 56.5s56 85.5 56 143.5v2c0 57.333 -18.667 104.833 -56 142.5s-81 56.5 -131 56.5z" />
    <glyph glyph-name="r" unicode="r" horiz-adv-x="405" 
d="M86 34l-0.000976562 448.997c0 10.667 3.66699 19.834 11 27.501s16.333 11.5 27 11.5s19.834 -3.66699 27.501 -11s11.5 -16.666 11.5 -27.999v-97c18.667 42 44.667 75.5 78 100.5s66.666 37.5 99.999 37.5c11.333 0 20.5 -3.66699 27.5 -11s10.5 -16.666 10.5 -27.999
c0 -10.667 -3.16699 -19.5 -9.5 -26.5s-14.5 -11.167 -24.5 -12.5c-53.333 -6.66699 -97 -30 -131 -70s-51 -95.333 -51 -166v-176c0 -10.667 -3.66699 -19.834 -11 -27.501s-16.333 -11.5 -27 -11.5c-11.333 0 -20.666 3.83301 -27.999 11.5s-11 16.834 -11 27.501z" />
    <glyph glyph-name="s" unicode="s" horiz-adv-x="498" 
d="M257 -10c-72 0 -138.335 21.667 -199.002 65c-9.33301 6.66699 -14 16 -14 28c0 9.33301 3.33301 17.166 10 23.499s14.667 9.5 24 9.5c8 0 14.333 -2 19 -6c54 -36.667 108.667 -55 164 -55c31.333 0 57 7.5 77 22.5s30 34.833 30 59.5v2
c0 23.333 -10.833 41.333 -32.5 54s-53.834 25 -96.501 37c-26 7.33301 -46.667 14 -62 20s-32.666 14.5 -51.999 25.5s-33.666 24.833 -42.999 41.5s-14 36.334 -14 59.001v2c0 44 16.5 79.667 49.5 107s75.167 41 126.5 41c56 0 111 -14.667 165 -44
c12.667 -7.33301 19 -18 19 -32c0 -9.33301 -3.33301 -17.166 -10 -23.499s-14.667 -9.5 -24 -9.5c-6 0 -11.667 1.33301 -17 4c-46.667 26.667 -91.667 40 -135 40c-30 0 -54.167 -7 -72.5 -21s-27.5 -32 -27.5 -54v-2c0 -9.33301 2.66699 -18 8 -26s11.333 -14.667 18 -20
s17.167 -11 31.5 -17s25.833 -10.333 34.5 -13l41 -13c19.333 -6 35.5 -11.333 48.5 -16s27.667 -11.167 44 -19.5s29.333 -17.333 39 -27s17.834 -21.834 24.501 -36.501s10 -31 10 -49v-2c0 -48 -17.333 -85.833 -52 -113.5s-78.667 -41.5 -132 -41.5z" />
    <glyph glyph-name="t" unicode="t" horiz-adv-x="404" 
d="M259 -9c-44.667 0 -80.167 11.834 -106.5 35.501s-39.5 60.5 -39.5 110.5v312h-42c-8.66699 0 -16.5 3.5 -23.5 10.5s-10.5 14.833 -10.5 23.5c0 9.33301 3.33301 17.333 10 24s14.667 10 24 10h42v122c0 10.667 3.66699 19.834 11 27.501s16.333 11.5 27 11.5
s19.834 -3.83301 27.501 -11.5s11.5 -16.834 11.5 -27.501v-122h134c9.33301 0 17.5 -3.33301 24.5 -10s10.5 -14.667 10.5 -24s-3.5 -17.333 -10.5 -24s-15.167 -10 -24.5 -10h-134v-302c0 -57.333 29 -86 87 -86c10.667 0 21 1 31 3l16 4
c9.33301 0 17.166 -3.33301 23.499 -10s9.5 -14.334 9.5 -23.001c0 -14.667 -7.33301 -24.667 -22 -30c-22.667 -9.33301 -48 -14 -76 -14z" />
    <glyph glyph-name="u" unicode="u" horiz-adv-x="616" 
d="M529 483l-0.00195312 -448.996c0 -10.667 -3.66699 -19.834 -11 -27.501s-16.333 -11.5 -27 -11.5s-19.667 3.83301 -27 11.5s-11 16.834 -11 27.501v56c-42 -67.333 -101 -101 -177 -101c-61.333 0 -109.666 18.833 -144.999 56.5s-53 87.834 -53 150.501v287
c0 11.333 3.66699 20.666 11 27.999s16.333 11 27 11s19.834 -3.83301 27.501 -11.5s11.5 -16.834 11.5 -27.501v-268c0 -48.667 12.5 -86.834 37.5 -114.501s60.167 -41.5 105.5 -41.5c44.667 0 81.667 15 111 45s44 69 44 117v262c0 11.333 3.66699 20.666 11 27.999
s16.333 11 27 11s19.667 -3.83301 27 -11.5s11 -16.834 11 -27.501z" />
    <glyph glyph-name="v" unicode="v" horiz-adv-x="584" 
d="M337 25c-10 -22 -24.334 -33 -43.001 -33h-4c-19.333 0 -34 11 -44 33l-194 438c-3.33301 11.333 -5 18.333 -5 21c0 10 3.83301 18.833 11.5 26.5s16.834 11.5 27.501 11.5c18.667 0 31.667 -10 39 -30l167 -404l170 406c6 18.667 18 28 36 28
c10.667 0 19.667 -3.66699 27 -11s11 -16.333 11 -27c0 -6 -1.33301 -12.333 -4 -19z" />
    <glyph glyph-name="w" unicode="w" horiz-adv-x="858" 
d="M255 -8c-20.667 0 -35 11.667 -43 35l-157 437c-3.33301 10 -5 17 -5 21c0 10 3.66699 18.667 11 26s16.666 11 27.999 11c19.333 0 32.333 -10.667 39 -32l130 -388l131 389c6.66699 20.667 19.334 31 38.001 31h4c20 0 33.333 -10.333 40 -31l130 -389l132 390
c6 20 18.333 30 37 30c10.667 0 19.667 -3.5 27 -10.5s11 -15.5 11 -25.5c0 -4 -1.66699 -11 -5 -21l-158 -438c-8 -23.333 -22 -35 -42 -35h-3c-20.667 0 -34.667 11.667 -42 35l-129 377l-130 -377c-7.33301 -23.333 -21.333 -35 -42 -35h-2z" />
    <glyph glyph-name="x" unicode="x" horiz-adv-x="571" 
d="M60 30c0 10 3.33301 18.333 10 25l169 208l-159 195c-8 9.33301 -12 18.666 -12 27.999c0 10.667 3.5 19.334 10.5 26.001s15.5 10 25.5 10c12.667 0 24 -6 34 -18l149 -189l148 188c10.667 12.667 21.667 19 33 19c10 0 18.333 -3.33301 25 -10s10 -15 10 -25
c0 -8.66699 -3.33301 -17 -10 -25l-161 -197l168 -206c7.33301 -9.33301 11 -18.666 11 -27.999c0 -10.667 -3.5 -19.334 -10.5 -26.001s-15.5 -10 -25.5 -10c-12.667 0 -24 6 -34 18l-157 199l-156 -198c-10.667 -12.667 -21.667 -19 -33 -19c-10 0 -18.333 3.5 -25 10.5
s-10 15.167 -10 24.5z" />
    <glyph glyph-name="y" unicode="y" horiz-adv-x="587" 
d="M161 -163c-28 0 -56.335 5.00098 -85.002 15.001c-16 6.66699 -24 17.667 -24 33c0 9.33301 3.33301 17.166 10 23.499s14.334 9.5 23.001 9.5c4.66699 0 11 -1.33301 19 -4c18 -6 36.667 -9 56 -9c23.333 0 42.833 7.16699 58.5 21.5s30.834 37.833 45.501 70.5l4 8
l-216 458c-3.33301 8 -5 15 -5 21c0 10.667 3.83301 19.667 11.5 27s16.834 11 27.501 11c18 0 31 -10 39 -30l180 -406l160 407c7.33301 19.333 19.666 29 36.999 29c10.667 0 19.667 -3.66699 27 -11s11 -16.333 11 -27c0 -4.66699 -1.33301 -11 -4 -19l-202 -482
c-22 -52.667 -46.5 -90.167 -73.5 -112.5s-60.167 -33.5 -99.5 -33.5z" />
    <glyph glyph-name="z" unicode="z" horiz-adv-x="556" 
d="M93 0c-10 0 -18.6689 3.00195 -26.002 9.00195s-11 13.333 -11 22v2c0 12 5.33301 23.667 16 35l327 384h-302c-9.33301 0 -17.166 3.16699 -23.499 9.5s-9.5 13.833 -9.5 22.5c0 9.33301 3.33301 17.166 10 23.499s14.334 9.5 23.001 9.5h369c10.667 0 19.5 -3 26.5 -9
s10.5 -13.333 10.5 -22v-2c0 -12 -5.33301 -23.667 -16 -35l-327 -384h315c8.66699 0 16.334 -3.16699 23.001 -9.5s10 -13.833 10 -22.5s-3.33301 -16.334 -10 -23.001s-14.334 -10 -23.001 -10h-382z" />
    <glyph glyph-name="braceleft" unicode="{" horiz-adv-x="483" 
d="M398 -137c-77.333 16 -129.833 39.3311 -157.5 69.998s-41.5 73.334 -41.5 128.001c0 4.66699 0.166992 17 0.5 37s0.5 33 0.5 39c0 40 -8.33301 69.833 -25 89.5s-46.334 29.834 -89.001 30.501c-23.333 1.33301 -35 11.333 -35 30s11.667 28.667 35 30
c42.667 0.666992 72.334 10.834 89.001 30.501s25 49.5 25 89.5c0 6 -0.166992 19 -0.5 39s-0.5 32.333 -0.5 37c0 54.667 13.833 97.334 41.5 128.001s80.167 54 157.5 70c9.33301 2 17.333 0.5 24 -4.5s10 -11.833 10 -20.5c0 -12.667 -6 -21.334 -18 -26.001
c-60.667 -16.667 -99.5 -35.5 -116.5 -56.5s-25.5 -54.5 -25.5 -100.5c0 -6.66699 0.166992 -19 0.5 -37s0.5 -30.667 0.5 -38c0 -40 -8.83301 -70.833 -26.5 -92.5s-43.5 -37.834 -77.5 -48.501c35.333 -11.333 61.5 -27.666 78.5 -48.999s25.5 -52 25.5 -92
c0 -7.33301 -0.166992 -20 -0.5 -38s-0.5 -30.333 -0.5 -37c0 -46 8.5 -79.5 25.5 -100.5s55.833 -39.833 116.5 -56.5c12 -4.66699 18 -13.334 18 -26.001c0 -8.66699 -3.33301 -15.5 -10 -20.5s-14.667 -6.5 -24 -4.5z" />
    <glyph glyph-name="bar" unicode="|" horiz-adv-x="303" 
d="M119 -100v870.004c0 9.33301 3.16699 17.166 9.5 23.499s14.166 9.5 23.499 9.5c8.66699 0 16.167 -3.33301 22.5 -10s9.5 -14.334 9.5 -23.001v-870c0 -8.66699 -3.16699 -16.334 -9.5 -23.001s-13.833 -10 -22.5 -10c-9.33301 0 -17.166 3.16699 -23.499 9.5
s-9.5 14.166 -9.5 23.499z" />
    <glyph glyph-name="braceright" unicode="}" horiz-adv-x="483" 
d="M85 711c77.333 -16 129.833 -39.333 157.5 -70s41.5 -73.334 41.5 -128.001c0 -4.66699 -0.166992 -17 -0.5 -37s-0.5 -33 -0.5 -39c0 -40.667 8.33301 -70.667 25 -90s46.334 -29.333 89.001 -30c22.667 -1.33301 34 -11.333 34 -30s-11.333 -28.667 -34 -30
c-42.667 -0.666992 -72.334 -10.667 -89.001 -30s-25 -49.333 -25 -90c0 -6 0.166992 -19 0.5 -39s0.5 -32.333 0.5 -37c0 -54.667 -13.833 -97.334 -41.5 -128.001s-80.167 -54 -157.5 -70c-9.33301 -2 -17.333 -0.5 -24 4.5s-10 11.833 -10 20.5
c0 12.667 6 21.334 18 26.001c60 16.667 98.667 35.5 116 56.5s26 54.5 26 100.5c0 6.66699 -0.166992 19 -0.5 37s-0.5 30.667 -0.5 38c0 40 8.83301 70.833 26.5 92.5s43.5 37.834 77.5 48.501c-35.333 11.333 -61.5 27.666 -78.5 48.999s-25.5 52 -25.5 92
c0 7.33301 0.166992 20 0.5 38s0.5 30.333 0.5 37c0 46 -8.66699 79.5 -26 100.5s-56 39.833 -116 56.5c-12 4.66699 -18 13.334 -18 26.001c0 8.66699 3.33301 15.5 10 20.5s14.667 6.5 24 4.5z" />
    <glyph glyph-name="asciitilde" unicode="~" horiz-adv-x="474" 
d="M126 251c-5.33301 -10.667 -13.335 -16.001 -24.002 -16.001c-6.66699 0 -12.5 2.16699 -17.5 6.5s-7.5 9.83301 -7.5 16.5s1 12 3 16c10 29.333 21.833 50.333 35.5 63s31.167 19 52.5 19c15.333 0 38.833 -6.83301 70.5 -20.5s52.834 -20.5 63.501 -20.5
c18.667 0 33.667 12 45 36c6.66699 10.667 14.667 16 24 16c7.33301 0 13.333 -2.16699 18 -6.5s7 -9.83301 7 -16.5c0 -5.33301 -0.666992 -10.666 -2 -15.999c-18.667 -54.667 -48 -82 -88 -82c-16 0 -39.667 6.83301 -71 20.5s-52.333 20.5 -63 20.5
c-19.333 0 -34.666 -12 -45.999 -36z" />
    <glyph glyph-name="uni00A0" unicode="&#xa0;" horiz-adv-x="300" 
 />
    <glyph glyph-name="exclamdown" unicode="&#xa1;" horiz-adv-x="271" 
d="M159 483l23.002 -454c0.666992 -9.33301 -1.83301 -17 -7.5 -23s-12.834 -9 -21.501 -9h-35c-8.66699 0 -15.834 3.16699 -21.501 9.5s-8.16699 13.833 -7.5 22.5l23 454c1.33301 15.333 9.33301 23 24 23c6 0 11.167 -2.16699 15.5 -6.5s6.83301 -9.83301 7.5 -16.5z
M183.002 637c0 -13.333 -4.5 -24.5 -13.5 -33.5s-20.167 -13.5 -33.5 -13.5c-14 0 -25.5 4.5 -34.5 13.5s-13.5 20.167 -13.5 33.5v21c0 13.333 4.5 24.5 13.5 33.5s20.5 13.5 34.5 13.5c13.333 0 24.5 -4.5 33.5 -13.5s13.5 -20.167 13.5 -33.5v-21z" />
    <glyph glyph-name="cent" unicode="&#xa2;" horiz-adv-x="581" 
d="M219 29l14 70.999c-52 18.667 -94.167 51 -126.5 97s-48.5 98 -48.5 156v2c0 74 25.667 137.5 77 190.5s114 79.5 188 79.5h13l11 60c4 17.333 14.667 26 32 26c10 0 18.167 -4 24.5 -12s8.16602 -17.333 5.49902 -28l-11 -56c39.333 -10.667 78 -32.667 116 -66
c8.66699 -8.66699 13 -18 13 -28c0 -10.667 -3.5 -19.5 -10.5 -26.5s-15.5 -10.5 -25.5 -10.5s-18.333 3.33301 -25 10c-30 26.667 -58.333 44.334 -85 53.001l-76 -392c4.66699 -0.666992 11.667 -1 21 -1c52.667 0 101 21 145 63c6.66699 6.66699 14.667 10 24 10
c8.66699 0 16.334 -3.33301 23.001 -10s10 -14.667 10 -24c0 -10 -3.66699 -18 -11 -24c-54.667 -56 -119.667 -84 -195 -84c-12 0 -21 0.333008 -27 1l-14 -71c-4 -17.333 -14.333 -26 -31 -26c-10 0 -18.333 4 -25 12s-8.66699 17.333 -6 28zM136 354.999
c0 -42 10.332 -79.668 30.999 -113.001s48.334 -57.666 83.001 -72.999l74 387h-3c-52 0 -95.833 -19.333 -131.5 -58s-53.5 -85.667 -53.5 -141v-2z" />
    <glyph glyph-name="sterling" unicode="&#xa3;" horiz-adv-x="644" 
d="M63 25c0 12.667 6.66797 20.999 20.001 24.999l68 17v228h-53c-9.33301 0 -17.5 3.33301 -24.5 10s-10.5 14.667 -10.5 24s3.5 17.5 10.5 24.5s15.167 10.5 24.5 10.5h53v108c0 76.667 21 136 63 178c40 40 92.667 60 158 60c80 0 145.667 -29.333 197 -88
c8 -9.33301 12 -19 12 -29c0 -10.667 -3.66699 -19.667 -11 -27s-16.666 -11 -27.999 -11c-10.667 0 -20.334 4.33301 -29.001 13c-20 22.667 -40.833 39.834 -62.5 51.501s-48.167 17.5 -79.5 17.5c-39.333 0 -72 -12.333 -98 -37c-28.667 -30 -43 -72.667 -43 -128v-108
h249c9.33301 0 17.5 -3.5 24.5 -10.5s10.5 -15.167 10.5 -24.5s-3.5 -17.333 -10.5 -24s-15.167 -10 -24.5 -10h-249v-225h324c9.33301 0 17.666 -3.5 24.999 -10.5s11 -15.167 11 -24.5c0 -10 -3.5 -18.333 -10.5 -25s-15.5 -10 -25.5 -10h-465
c-7.33301 -0 -13.5 2.33301 -18.5 7s-7.5 10.667 -7.5 18z" />
    <glyph glyph-name="yen" unicode="&#xa5;" horiz-adv-x="686" 
d="M381 266v-88h179c8 0 15.167 -3 21.5 -9s9.5 -13.333 9.5 -22s-3.16699 -16 -9.5 -22s-13.5 -9 -21.5 -9h-179v-82c0 -10.667 -3.66699 -19.834 -11 -27.501s-16.333 -11.5 -27 -11.5s-19.667 3.83301 -27 11.5s-11 16.834 -11 27.501v82h-179c-8 0 -15.167 3 -21.5 9
s-9.5 13.333 -9.5 22s3.16699 16 9.5 22s13.5 9 21.5 9h179v88h-179c-8 0 -15.167 3 -21.5 9s-9.5 13.333 -9.5 22s3.16699 16 9.5 22s13.5 9 21.5 9h154l-219 311c-6 10 -9 19.333 -9 28c0 10 3.83301 18.833 11.5 26.5s16.834 11.5 27.501 11.5
c15.333 0 27.666 -8 36.999 -24l216 -322l217 323c10.667 15.333 23 23 37 23c10 0 18.667 -3.5 26 -10.5s11 -15.833 11 -26.5c0 -7.33301 -3.33301 -17 -10 -29l-221 -311h156c8 0 15.167 -3 21.5 -9s9.5 -13.333 9.5 -22s-3.16699 -16 -9.5 -22s-13.5 -9 -21.5 -9h-179z
" />
    <glyph glyph-name="section" unicode="&#xa7;" horiz-adv-x="632" 
d="M328 -10c-81.333 0 -152 26 -212 78c-8 6.66699 -12 15.667 -12 27c0 10 3.5 18.333 10.5 25s15.167 10 24.5 10c8.66699 0 17 -3.33301 25 -10c48 -42.667 103.333 -64 166 -64c33.333 0 58.833 6.16699 76.5 18.5s26.5 28.166 26.5 47.499v2
c0 18.667 -12.167 35.167 -36.5 49.5s-66.5 28.5 -126.5 42.5c-76 18 -129.667 37.667 -161 59s-47 49 -47 83v2c0 30 12 54.833 36 74.5s56 32.834 96 39.501c-49.333 25.333 -74 59 -74 101v2c0 40 16.667 72.167 50 96.5s78 36.5 134 36.5c81.333 0 152 -26 212 -78
c8 -6.66699 12 -15.667 12 -27c0 -10 -3.5 -18.333 -10.5 -25s-15.167 -10 -24.5 -10c-8.66699 0 -17 3.33301 -25 10c-48 42.667 -103.333 64 -166 64c-33.333 0 -58.833 -6 -76.5 -18s-26.5 -28 -26.5 -48v-2c0 -18.667 11.833 -35 35.5 -49s66.167 -28.333 127.5 -43
c76.667 -18 130.5 -37.5 161.5 -58.5s46.5 -48.833 46.5 -83.5v-2c0 -29.333 -12 -54 -36 -74s-56 -33.333 -96 -40c49.333 -24 74 -57.667 74 -101v-2c0 -40 -16.667 -72.167 -50 -96.5s-78 -36.5 -134 -36.5zM387 263c32 0 58.166 6.83301 78.499 20.5
s30.5 29.834 30.5 48.501v2c0 17.333 -10.5 33 -31.5 47s-57.833 27.333 -110.5 40c-43.333 10.667 -79.666 16 -108.999 16c-32 0 -58.167 -6.83301 -78.5 -20.5s-30.5 -29.834 -30.5 -48.501v-2c0 -17.333 10.5 -33 31.5 -47s57.833 -27.333 110.5 -40
c42.667 -10.667 79 -16 109 -16z" />
    <glyph glyph-name="dieresis" unicode="&#xa8;" horiz-adv-x="500" 
d="M339 695c13.333 0 24.5 -4.33301 33.5 -13s13.5 -19.334 13.5 -32.001v-15c0 -12.667 -4.5 -23.334 -13.5 -32.001s-20.167 -13 -33.5 -13s-24.5 4.33301 -33.5 13s-13.5 19.334 -13.5 32.001v15c0 12.667 4.5 23.334 13.5 32.001s20.167 13 33.5 13zM161 695
c13.333 0 24.5 -4.33301 33.5 -13s13.5 -19.334 13.5 -32.001v-15c0 -12.667 -4.5 -23.334 -13.5 -32.001s-20.167 -13 -33.5 -13s-24.5 4.33301 -33.5 13s-13.5 19.334 -13.5 32.001v15c0 12.667 4.5 23.334 13.5 32.001s20.167 13 33.5 13z" />
    <glyph glyph-name="copyright" unicode="&#xa9;" horiz-adv-x="830" 
d="M414 -12c-100.667 0 -186 35.167 -256 105.5s-105 155.166 -105 254.499v2c0 99.333 35.333 184.5 106 255.5s156.334 106.5 257.001 106.5s186 -35.167 256 -105.5s105 -155.166 105 -254.499v-2c0 -99.333 -35.333 -184.5 -106 -255.5s-156.334 -106.5 -257.001 -106.5
zM414 19c93.333 0 171.666 32.333 234.999 97s95 142.667 95 234v2c0 91.333 -31.5 169 -94.5 233s-140.833 96 -233.5 96c-93.333 0 -171.666 -32.333 -234.999 -97s-95 -142.667 -95 -234v-2c0 -91.333 31.5 -169 94.5 -233s140.833 -96 233.5 -96zM419 163
c-52.667 0 -96.833 18.668 -132.5 56.001s-53.5 82.333 -53.5 135v2c0 52.667 18 97.667 54 135s80.667 56 134 56c48.667 0 91.667 -15.667 129 -47c8 -6.66699 12 -14.334 12 -23.001c0 -7.33301 -2.83301 -13.666 -8.5 -18.999s-12.167 -8 -19.5 -8
c-4.66699 0 -11 2.66699 -19 8c-30.667 26 -62.334 39 -95.001 39c-37.333 0 -68.5 -13.667 -93.5 -41s-37.5 -60.333 -37.5 -99v-2c0 -38.667 12.833 -71.834 38.5 -99.501s56.834 -41.5 93.501 -41.5c35.333 0 68.666 13.667 99.999 41c5.33301 4 11 6 17 6
c7.33301 0 13.5 -2.5 18.5 -7.5s7.5 -10.833 7.5 -17.5c0 -8 -3 -14.333 -9 -19c-41.333 -36 -86.666 -54 -135.999 -54z" />
    <glyph glyph-name="ordfeminine" unicode="&#xaa;" horiz-adv-x="390" 
d="M168 408c-28.667 0 -53.667 8.00195 -75 24.002s-32 38 -32 66v2c0 29.333 11.333 52.166 34 68.499s52.334 24.5 89.001 24.5c26.667 0 53.334 -3.66699 80.001 -11v5c0 22.667 -6.83301 40.167 -20.5 52.5s-32.834 18.5 -57.501 18.5c-19.333 0 -42 -5 -68 -15
c-4.66699 -2 -9 -3 -13 -3c-6 0 -11.167 2 -15.5 6s-6.5 9.33301 -6.5 16c0 9.33301 5 16.333 15 21c30 13.333 61 20 93 20c39.333 0 70.333 -10.667 93 -32c19.333 -19.333 29 -47.333 29 -84v-154c0 -6.66699 -2.5 -12.334 -7.5 -17.001s-10.833 -7 -17.5 -7
s-12.334 2.16699 -17.001 6.5s-7 9.83301 -7 16.5v20c-24 -29.333 -56 -44 -96 -44zM177 450.002c24 0 44.499 6.5 61.499 19.5s25.5 29.833 25.5 50.5v24c-24.667 7.33301 -50 11 -76 11c-23.333 0 -41.666 -4.83301 -54.999 -14.5s-20 -22.5 -20 -38.5v-2
c0 -15.333 6.16699 -27.5 18.5 -36.5s27.5 -13.5 45.5 -13.5zM76.999 289.002c-6 0 -11.333 2.16699 -16 6.5s-7 9.83301 -7 16.5s2.33301 12.334 7 17.001s10 7 16 7h222c6 0 11.333 -2.33301 16 -7s7 -10.334 7 -17.001s-2.33301 -12.167 -7 -16.5s-10 -6.5 -16 -6.5h-222
z" />
    <glyph glyph-name="guillemotleft" unicode="&#xab;" horiz-adv-x="550" 
d="M450 42c-11.333 0 -20.667 5.33203 -28 15.999l-134 173c-8 10 -12 19.333 -12 28c0 8 4 17 12 27l133 172c7.33301 10.667 17 16 29 16c9.33301 0 17 -3 23 -9s9 -13.667 9 -23c0 -7.33301 -3 -15.333 -9 -24l-118 -158l119 -162c5.33301 -7.33301 8 -15 8 -23
c0 -9.33301 -3.16699 -17.166 -9.5 -23.499s-13.833 -9.5 -22.5 -9.5zM226.999 41.999c-10.667 0 -19.998 5.33398 -27.998 16.001l-133 173c-8 10 -12 19.333 -12 28c0 8 4 17 12 27l132 172c7.33301 10.667 17 16 29 16c9.33301 0 17.166 -3.16699 23.499 -9.5
s9.5 -13.833 9.5 -22.5c0 -7.33301 -3 -15.333 -9 -24l-118 -158l119 -162c5.33301 -7.33301 8 -15 8 -23c0 -8.66699 -3.33301 -16.334 -10 -23.001s-14.334 -10 -23.001 -10z" />
    <glyph glyph-name="registered" unicode="&#xae;" horiz-adv-x="403" 
d="M202 360c-48.667 0 -89.834 17 -123.501 51s-50.5 75 -50.5 123v1c0 48 17 89.167 51 123.5s75 51.5 123 51.5c48.667 0 89.834 -17 123.501 -51s50.5 -75 50.5 -123v-1c0 -48 -17 -89.167 -51 -123.5s-75 -51.5 -123 -51.5zM202 379c43.333 0 79.833 15.333 109.5 46
s44.5 67.334 44.5 110.001v1c0 42.667 -14.833 79.167 -44.5 109.5s-66.167 45.5 -109.5 45.5s-79.833 -15.333 -109.5 -46s-44.5 -67.334 -44.5 -110.001v-1c0 -42.667 14.833 -79.167 44.5 -109.5s66.167 -45.5 109.5 -45.5zM134 464v146.001
c0 4.66699 1.66699 8.66699 5 12s7.33301 5 12 5h63c20 0 36.333 -4.83301 49 -14.5s19 -23.5 19 -41.5c0 -26.667 -13 -45 -39 -55l34 -40c3.33301 -4 5 -8.33301 5 -13s-1.5 -8.66699 -4.5 -12s-6.83301 -5 -11.5 -5c-6 0 -11.333 3 -16 9l-46 56h-36v-47
c0 -4.66699 -1.66699 -8.83398 -5 -12.501s-7.33301 -5.5 -12 -5.5c-11.333 0 -17 6 -17 18zM168 539.001h43c24 0 36 9.66699 36 29s-12 29 -36 29h-43v-58z" />
    <glyph glyph-name="macron" unicode="&#xaf;" horiz-adv-x="500" 
d="M382 615h-264c-8.66699 0 -16.167 3.16699 -22.5 9.5s-9.5 13.833 -9.5 22.5s3.16699 16.167 9.5 22.5s13.833 9.5 22.5 9.5h264c8.66699 0 16.167 -3.16699 22.5 -9.5s9.5 -13.833 9.5 -22.5s-3.16699 -16.167 -9.5 -22.5s-13.833 -9.5 -22.5 -9.5z" />
    <glyph glyph-name="degree" unicode="&#xb0;" horiz-adv-x="458" 
d="M229 400c-41.333 0 -77.833 15.333 -109.5 46s-47.5 66 -47.5 106v2c0 40.667 15.833 76.167 47.5 106.5s68.167 45.5 109.5 45.5s77.833 -15.167 109.5 -45.5s47.5 -65.833 47.5 -106.5v-2c0 -40 -15.833 -75.333 -47.5 -106s-68.167 -46 -109.5 -46zM229 452
c28 0 51.5 10 70.5 30s28.5 43.333 28.5 70v2c0 26.667 -9.5 50 -28.5 70s-42.5 30 -70.5 30s-51.5 -10 -70.5 -30s-28.5 -43.333 -28.5 -70v-2c0 -26.667 9.5 -50 28.5 -70s42.5 -30 70.5 -30z" />
    <glyph glyph-name="plusminus" unicode="&#xb1;" horiz-adv-x="625" 
d="M276 200v164h-169c-9.33301 0 -17.5 3.5 -24.5 10.5s-10.5 15.167 -10.5 24.5s3.5 17.5 10.5 24.5s15.167 10.5 24.5 10.5h169v164c0 10 3.5 18.667 10.5 26s15.833 11 26.5 11c10 0 18.5 -3.66699 25.5 -11s10.5 -16 10.5 -26v-164h169c9.33301 0 17.5 -3.5 24.5 -10.5
s10.5 -15.167 10.5 -24.5s-3.5 -17.5 -10.5 -24.5s-15.167 -10.5 -24.5 -10.5h-169v-164c0 -10 -3.5 -18.667 -10.5 -26s-15.5 -11 -25.5 -11c-10.667 0 -19.5 3.66699 -26.5 11s-10.5 16 -10.5 26zM107 0c-9.33301 0 -17.5 3.5 -24.5 10.5s-10.5 15.167 -10.5 24.5
s3.5 17.333 10.5 24s15.167 10 24.5 10h412c9.33301 0 17.333 -3.33301 24 -10s10 -14.667 10 -24s-3.33301 -17.5 -10 -24.5s-14.667 -10.5 -24 -10.5h-412z" />
    <glyph glyph-name="acute" unicode="&#xb4;" horiz-adv-x="500" 
d="M211 591c-12.667 0 -18.999 4.66797 -18.999 14.001c0 5.33301 1.66699 10.333 5 15l60 91c10 15.333 22 23 36 23c12 0 24 -3.33301 36 -10s18 -13.334 18 -20.001c0 -6 -4.66699 -13.667 -14 -23l-75 -71c-12.667 -12.667 -28.334 -19 -47.001 -19z" />
    <glyph glyph-name="paragraph" unicode="&#xb6;" horiz-adv-x="510" 
d="M338 35v229h-11c-82 0 -149 19.167 -201 57.5s-78 91.5 -78 159.5v2c0 66.667 24.333 119.5 73 158.5s112.334 58.5 191.001 58.5h66c10.667 0 20 -4 28 -12s12 -17.333 12 -28v-625c0 -11.333 -3.83301 -20.833 -11.5 -28.5s-16.834 -11.5 -27.501 -11.5
c-11.333 0 -21 3.83301 -29 11.5s-12 17.167 -12 28.5z" />
    <glyph glyph-name="periodcentered" unicode="&#xb7;" horiz-adv-x="245" 
d="M75 311c0 13.333 4.66699 24.5 14 33.5s20.666 13.5 33.999 13.5s24.5 -4.5 33.5 -13.5s13.5 -20.167 13.5 -33.5v-20c0 -13.333 -4.5 -24.5 -13.5 -33.5s-20.167 -13.5 -33.5 -13.5s-24.666 4.5 -33.999 13.5s-14 20.167 -14 33.5v20z" />
    <glyph glyph-name="cedilla" unicode="&#xb8;" horiz-adv-x="500" 
d="M301 10l-63 -136c-8 -15.333 -18.333 -23 -31 -23c-10 0 -20.5 3.5 -31.5 10.5s-16.5 14.167 -16.5 21.5c0 4.66699 2 10.667 6 18l75 109h61z" />
    <glyph glyph-name="ordmasculine" unicode="&#xba;" horiz-adv-x="390" 
d="M194 407c-41.333 0 -76 14.333 -104 43s-42 63.334 -42 104.001v2c0 41.333 14.167 76.5 42.5 105.5s63.5 43.5 105.5 43.5c41.333 0 76 -14.333 104 -43s42 -63.334 42 -104.001v-2c0 -41.333 -14.167 -76.5 -42.5 -105.5s-63.5 -43.5 -105.5 -43.5zM70 289
c-6.66699 0 -12.334 2.16699 -17.001 6.5s-7 9.83301 -7 16.5s2.33301 12.334 7 17.001s10.334 7 17.001 7h250c6.66699 0 12.334 -2.33301 17.001 -7s7 -10.334 7 -17.001s-2.33301 -12.167 -7 -16.5s-10.334 -6.5 -17.001 -6.5h-250zM196 455
c26.667 0 48.667 9.66699 66 29s26 42.666 26 69.999v2c0 28 -9 51.833 -27 71.5s-40.333 29.5 -67 29.5s-48.667 -9.66699 -66 -29s-26 -42.666 -26 -69.999v-2c0 -28 9 -51.833 27 -71.5s40.333 -29.5 67 -29.5z" />
    <glyph glyph-name="guillemotright" unicode="&#xbb;" horiz-adv-x="550" 
d="M323 474c10.667 0 20.002 -5.00098 28.002 -15.001l134 -174c7.33301 -10.667 11 -19.667 11 -27s-3.66699 -16.333 -11 -27l-133 -172c-8 -11.333 -17.667 -17 -29 -17c-8.66699 0 -16.334 3.33301 -23.001 10s-10 14.334 -10 23.001c0 8 3 15.667 9 23l119 159
l-119 162c-6 7.33301 -9 15 -9 23c0 8.66699 3.16699 16.167 9.5 22.5s14.166 9.5 23.499 9.5zM101.002 473.999c11.333 0 20.334 -4.99902 27.001 -14.999l134 -174c8 -10 12 -19 12 -27s-4 -17 -12 -27l-132 -172c-9.33301 -11.333 -19.333 -17 -30 -17
c-8.66699 0 -16.167 3.16699 -22.5 9.5s-9.5 14.166 -9.5 23.499c0 8 3 15.667 9 23l118 159l-119 162c-6 9.33301 -8.66699 17 -8 23c0 9.33301 3.16699 17 9.5 23s14.166 9 23.499 9z" />
    <glyph glyph-name="questiondown" unicode="&#xbf;" horiz-adv-x="537" 
d="M289 507l2.99902 -0.00292969c6.66699 0 12.667 -2.5 18 -7.5s8.33301 -11.5 9 -19.5l10 -112c1.33301 -9.33301 -0.666992 -17.166 -6 -23.499s-13 -10.166 -23 -11.499c-54 -4 -96.167 -17.833 -126.5 -41.5s-45.5 -56.167 -45.5 -97.5v-2
c0 -36.667 13.333 -67.5 40 -92.5s62 -37.5 106 -37.5c61.333 0 116.333 26 165 78c8.66699 7.33301 17.667 11 27 11s17.5 -3.33301 24.5 -10s10.5 -15 10.5 -25c0 -10.667 -3.66699 -19.667 -11 -27c-60 -65.333 -132.667 -98 -218 -98c-67.333 0 -121.5 18.5 -162.5 55.5
s-61.5 84.5 -61.5 142.5v2c0 59.333 19.333 105.833 58 139.5s88.667 54.834 150 63.501l7 86c0.666992 8 3.33398 14.5 8.00098 19.5s10.667 7.5 18 7.5zM338.999 636.997c0 -13.333 -4.5 -24.5 -13.5 -33.5s-20.167 -13.5 -33.5 -13.5c-14 0 -25.5 4.5 -34.5 13.5
s-13.5 20.167 -13.5 33.5v21c0 13.333 4.5 24.5 13.5 33.5s20.5 13.5 34.5 13.5c13.333 0 24.5 -4.5 33.5 -13.5s13.5 -20.167 13.5 -33.5v-21z" />
    <glyph glyph-name="Agrave" unicode="&#xc0;" horiz-adv-x="784" 
d="M51 31c0 7.33301 1.66699 14.333 5 21l284 621c10.667 23.333 27.334 35 50.001 35h4c23.333 0 39.666 -11.667 48.999 -35l284 -620c3.33301 -8 5 -14.667 5 -20c0 -10.667 -3.66699 -19.667 -11 -27s-16.333 -11 -27 -11c-17.333 0 -30.333 9.66699 -39 29l-73 161
h-384l-73 -163c-7.33301 -18 -20 -27 -38 -27c-10 0 -18.5 3.5 -25.5 10.5s-10.5 15.5 -10.5 25.5zM229 257h322l-161 358zM393 768c-18.667 0 -34.333 6.33203 -47 18.999l-75 71c-9.33301 9.33301 -14 17 -14 23c0 6.66699 6 13.334 18 20.001s24 10 36 10
c14 0 26 -7.66699 36 -23l60 -91c3.33301 -4.66699 5 -9.66699 5 -15c0 -9.33301 -6.33301 -14 -19 -14z" />
    <glyph glyph-name="Aacute" unicode="&#xc1;" horiz-adv-x="784" 
d="M51 31c0 7.33301 1.66699 14.333 5 21l284 621c10.667 23.333 27.334 35 50.001 35h4c23.333 0 39.666 -11.667 48.999 -35l284 -620c3.33301 -8 5 -14.667 5 -20c0 -10.667 -3.66699 -19.667 -11 -27s-16.333 -11 -27 -11c-17.333 0 -30.333 9.66699 -39 29l-73 161
h-384l-73 -163c-7.33301 -18 -20 -27 -38 -27c-10 0 -18.5 3.5 -25.5 10.5s-10.5 15.5 -10.5 25.5zM229 257h322l-161 358zM389 768c-12.667 0 -18.999 4.66797 -18.999 14.001c0 5.33301 1.66699 10.333 5 15l60 91c10 15.333 22 23 36 23c12 0 24 -3.33301 36 -10
s18 -13.334 18 -20.001c0 -6 -4.66699 -13.667 -14 -23l-75 -71c-12.667 -12.667 -28.334 -19 -47.001 -19z" />
    <glyph glyph-name="Acircumflex" unicode="&#xc2;" horiz-adv-x="784" 
d="M51 31c0 7.33301 1.66699 14.333 5 21l284 621c10.667 23.333 27.334 35 50.001 35h4c23.333 0 39.666 -11.667 48.999 -35l284 -620c3.33301 -8 5 -14.667 5 -20c0 -10.667 -3.66699 -19.667 -11 -27s-16.333 -11 -27 -11c-17.333 0 -30.333 9.66699 -39 29l-73 161
h-384l-73 -163c-7.33301 -18 -20 -27 -38 -27c-10 0 -18.5 3.5 -25.5 10.5s-10.5 15.5 -10.5 25.5zM229 257h322l-161 358zM390 839l-59.001 -52c-13.333 -12.667 -29.333 -19 -48 -19c-12 0 -18 4.66699 -18 14c0 3.33301 2.33301 9 7 17l70 86c12.667 14.667 26 22 40 22
h18c14 0 27.333 -7.33301 40 -22l70 -86c4.66699 -8 7 -13.667 7 -17c0 -9.33301 -6.33301 -14 -19 -14c-19.333 0 -35.666 6.33301 -48.999 19z" />
    <glyph glyph-name="Atilde" unicode="&#xc3;" horiz-adv-x="784" 
d="M51 31c0 7.33301 1.66699 14.333 5 21l284 621c10.667 23.333 27.334 35 50.001 35h4c23.333 0 39.666 -11.667 48.999 -35l284 -620c3.33301 -8 5 -14.667 5 -20c0 -10.667 -3.66699 -19.667 -11 -27s-16.333 -11 -27 -11c-17.333 0 -30.333 9.66699 -39 29l-73 161
h-384l-73 -163c-7.33301 -18 -20 -27 -38 -27c-10 0 -18.5 3.5 -25.5 10.5s-10.5 15.5 -10.5 25.5zM229 257h322l-161 358zM284 777c-5.33301 -11.333 -13 -17 -23 -17c-7.33301 0 -13.5 2.33301 -18.5 7s-7.5 10.334 -7.5 17.001c0 2.66699 1 8 3 16
c10 28.667 21.833 49.334 35.5 62.001s31.167 19 52.5 19c16 0 39.667 -6.66699 71 -20s52.333 -20 63 -20c11.333 0 20.333 2.66699 27 8s13 14.333 19 27c5.33301 11.333 13 17 23 17c7.33301 0 13.5 -2.33301 18.5 -7s7.5 -10.334 7.5 -17.001c0 -0.666992 -1 -6 -3 -16
c-10 -28.667 -21.833 -49.334 -35.5 -62.001s-31.167 -19 -52.5 -19c-16 0 -39.667 6.66699 -71 20s-52.333 20 -63 20c-11.333 0 -20.333 -2.66699 -27 -8s-13 -14.333 -19 -27z" />
    <glyph glyph-name="Adieresis" unicode="&#xc4;" horiz-adv-x="784" 
d="M51 31c0 7.33301 1.66699 14.333 5 21l284 621c10.667 23.333 27.334 35 50.001 35h4c23.333 0 39.666 -11.667 48.999 -35l284 -620c3.33301 -8 5 -14.667 5 -20c0 -10.667 -3.66699 -19.667 -11 -27s-16.333 -11 -27 -11c-17.333 0 -30.333 9.66699 -39 29l-73 161
h-384l-73 -163c-7.33301 -18 -20 -27 -38 -27c-10 0 -18.5 3.5 -25.5 10.5s-10.5 15.5 -10.5 25.5zM229 257h322l-161 358zM480 872c13.333 0 24.5 -4.33301 33.5 -13s13.5 -19.334 13.5 -32.001v-15c0 -12.667 -4.5 -23.334 -13.5 -32.001s-20.167 -13 -33.5 -13
s-24.5 4.33301 -33.5 13s-13.5 19.334 -13.5 32.001v15c0 12.667 4.5 23.334 13.5 32.001s20.167 13 33.5 13zM302 872c13.333 0 24.5 -4.33301 33.5 -13s13.5 -19.334 13.5 -32.001v-15c0 -12.667 -4.5 -23.334 -13.5 -32.001s-20.167 -13 -33.5 -13
s-24.5 4.33301 -33.5 13s-13.5 19.334 -13.5 32.001v15c0 12.667 4.5 23.334 13.5 32.001s20.167 13 33.5 13z" />
    <glyph glyph-name="Aring" unicode="&#xc5;" horiz-adv-x="790" 
d="M444 680l288 -630c2 -6 3 -11.333 3 -16c0 -10 -3.83301 -19 -11.5 -27s-16.834 -12 -27.501 -12c-16 0 -28.667 9.66699 -38 29l-72 161h-385l-73 -163c-7.33301 -18 -19.666 -27 -36.999 -27c-10 0 -18.667 3.66699 -26 11s-11 16 -11 26c0 3.33301 1.33301 9 4 17
l288 631c-16.667 8 -30 19.833 -40 35.5s-15 32.5 -15 50.5v2c0 26.667 10.333 49.834 31 69.501s45 29.5 73 29.5s52.333 -9.83301 73 -29.5s31 -42.834 31 -69.501v-2c0 -18 -5 -34.833 -15 -50.5s-23.333 -27.5 -40 -35.5zM395 705c16.667 0 31.167 6 43.5 18
s18.5 26.333 18.5 43v2c0 16.667 -6.16699 31 -18.5 43s-26.833 18 -43.5 18s-31.167 -6 -43.5 -18s-18.5 -26.333 -18.5 -43v-2c0 -16.667 6.16699 -31 18.5 -43s26.833 -18 43.5 -18zM232 257h322l-160 358z" />
    <glyph glyph-name="AE" unicode="&#xc6;" horiz-adv-x="1045" 
d="M34 29c0 4 2.33105 11.332 6.99805 21.999l372 623c10.667 17.333 25.334 26 44.001 26h491c10 0 18.5 -3.5 25.5 -10.5s10.5 -15.5 10.5 -25.5s-3.5 -18.5 -10.5 -25.5s-15.5 -10.5 -25.5 -10.5h-377v-239h332c10 0 18.5 -3.66699 25.5 -11s10.5 -15.666 10.5 -24.999
c0 -10 -3.5 -18.5 -10.5 -25.5s-15.5 -10.5 -25.5 -10.5h-332v-245h382c10 0 18.5 -3.5 25.5 -10.5s10.5 -15.5 10.5 -25.5s-3.5 -18.5 -10.5 -25.5s-15.5 -10.5 -25.5 -10.5h-422c-11.333 0 -20.833 4 -28.5 12s-11.5 17.333 -11.5 28v145h-286l-101 -169
c-6.66699 -14 -18 -21 -34 -21c-9.33301 0 -17.666 3.33301 -24.999 10s-11 14.667 -11 24zM246.998 256.999h244v373h-23z" />
    <glyph glyph-name="Ccedilla" unicode="&#xc7;" horiz-adv-x="738" 
d="M679 91c-72 -65.333 -153.33 -99.667 -243.997 -103l-53 -114c-8 -15.333 -18.333 -23 -31 -23c-10 0 -20.5 3.5 -31.5 10.5s-16.5 14.167 -16.5 21.5c0 4.66699 2 10.667 6 18l62 90c-88.667 11.333 -161.334 50.5 -218.001 117.5s-85 146.833 -85 239.5v2
c0 100.667 33.667 186.167 101 256.5s151.666 105.5 252.999 105.5c52.667 0 98.5 -7.66699 137.5 -23s76.5 -38 112.5 -68c10.667 -9.33301 16 -20 16 -32c0 -10.667 -4 -19.834 -12 -27.501s-17.333 -11.5 -28 -11.5c-8 0 -16.667 3 -26 9c-60 53.333 -127 80 -201 80
c-77.333 0 -141.833 -27.667 -193.5 -83s-77.5 -123.333 -77.5 -204v-2c0 -81.333 26 -149.833 78 -205.5s116.333 -83.5 193 -83.5s146 28.333 208 85c7.33301 7.33301 15.666 11 24.999 11c10 0 18.833 -3.83301 26.5 -11.5s11.5 -16.5 11.5 -26.5
c0 -11.333 -4.33301 -20.666 -13 -27.999z" />
    <glyph glyph-name="Egrave" unicode="&#xc8;" horiz-adv-x="670" 
d="M138 0c-10.667 0 -19.834 3.99902 -27.501 11.999s-11.5 17.333 -11.5 28v620c0 10.667 3.83301 20 11.5 28s16.834 12 27.501 12h435c10 0 18.5 -3.5 25.5 -10.5s10.5 -15.5 10.5 -25.5s-3.5 -18.5 -10.5 -25.5s-15.5 -10.5 -25.5 -10.5h-395v-239h350
c10 0 18.5 -3.66699 25.5 -11s10.5 -15.666 10.5 -24.999c0 -10 -3.5 -18.5 -10.5 -25.5s-15.5 -10.5 -25.5 -10.5h-350v-245h400c10 0 18.5 -3.5 25.5 -10.5s10.5 -15.5 10.5 -25.5s-3.5 -18.5 -10.5 -25.5s-15.5 -10.5 -25.5 -10.5h-440zM355 757.999
c-18.667 0 -34.333 6.33203 -47 18.999l-75 71c-9.33301 9.33301 -14 17 -14 23c0 6.66699 6 13.334 18 20.001s24 10 36 10c14 0 26 -7.66699 36 -23l60 -91c3.33301 -4.66699 5 -9.66699 5 -15c0 -9.33301 -6.33301 -14 -19 -14z" />
    <glyph glyph-name="Eacute" unicode="&#xc9;" horiz-adv-x="670" 
d="M351 758c-12.667 0 -18.999 4.66797 -18.999 14.001c0 5.33301 1.66699 10.333 5 15l60 91c10 15.333 22 23 36 23c12 0 24 -3.33301 36 -10s18 -13.334 18 -20.001c0 -6 -4.66699 -13.667 -14 -23l-75 -71c-12.667 -12.667 -28.334 -19 -47.001 -19z
M138.001 0.000976562c-10.667 0 -19.834 3.99902 -27.501 11.999s-11.5 17.333 -11.5 28v620c0 10.667 3.83301 20 11.5 28s16.834 12 27.501 12h435c10 0 18.5 -3.5 25.5 -10.5s10.5 -15.5 10.5 -25.5s-3.5 -18.5 -10.5 -25.5s-15.5 -10.5 -25.5 -10.5h-395v-239h350
c10 0 18.5 -3.66699 25.5 -11s10.5 -15.666 10.5 -24.999c0 -10 -3.5 -18.5 -10.5 -25.5s-15.5 -10.5 -25.5 -10.5h-350v-245h400c10 0 18.5 -3.5 25.5 -10.5s10.5 -15.5 10.5 -25.5s-3.5 -18.5 -10.5 -25.5s-15.5 -10.5 -25.5 -10.5h-440z" />
    <glyph glyph-name="Ecircumflex" unicode="&#xca;" horiz-adv-x="670" 
d="M352 829l-59.001 -52c-13.333 -12.667 -29.333 -19 -48 -19c-12 0 -18 4.66699 -18 14c0 3.33301 2.33301 9 7 17l70 86c12.667 14.667 26 22 40 22h18c14 0 27.333 -7.33301 40 -22l70 -86c4.66699 -8 7 -13.667 7 -17c0 -9.33301 -6.33301 -14 -19 -14
c-19.333 0 -35.666 6.33301 -48.999 19zM137.999 0c-10.667 0 -19.834 3.99902 -27.501 11.999s-11.5 17.333 -11.5 28v620c0 10.667 3.83301 20 11.5 28s16.834 12 27.501 12h435c10 0 18.5 -3.5 25.5 -10.5s10.5 -15.5 10.5 -25.5s-3.5 -18.5 -10.5 -25.5
s-15.5 -10.5 -25.5 -10.5h-395v-239h350c10 0 18.5 -3.66699 25.5 -11s10.5 -15.666 10.5 -24.999c0 -10 -3.5 -18.5 -10.5 -25.5s-15.5 -10.5 -25.5 -10.5h-350v-245h400c10 0 18.5 -3.5 25.5 -10.5s10.5 -15.5 10.5 -25.5s-3.5 -18.5 -10.5 -25.5s-15.5 -10.5 -25.5 -10.5
h-440z" />
    <glyph glyph-name="Edieresis" unicode="&#xcb;" horiz-adv-x="670" 
d="M442 862c13.333 0 24.5 -4.33301 33.5 -13s13.5 -19.334 13.5 -32.001v-15c0 -12.667 -4.5 -23.334 -13.5 -32.001s-20.167 -13 -33.5 -13s-24.5 4.33301 -33.5 13s-13.5 19.334 -13.5 32.001v15c0 12.667 4.5 23.334 13.5 32.001s20.167 13 33.5 13zM264 862
c13.333 0 24.5 -4.33301 33.5 -13s13.5 -19.334 13.5 -32.001v-15c0 -12.667 -4.5 -23.334 -13.5 -32.001s-20.167 -13 -33.5 -13s-24.5 4.33301 -33.5 13s-13.5 19.334 -13.5 32.001v15c0 12.667 4.5 23.334 13.5 32.001s20.167 13 33.5 13zM138 0
c-10.667 0 -19.834 3.99902 -27.501 11.999s-11.5 17.333 -11.5 28v620c0 10.667 3.83301 20 11.5 28s16.834 12 27.501 12h435c10 0 18.5 -3.5 25.5 -10.5s10.5 -15.5 10.5 -25.5s-3.5 -18.5 -10.5 -25.5s-15.5 -10.5 -25.5 -10.5h-395v-239h350
c10 0 18.5 -3.66699 25.5 -11s10.5 -15.666 10.5 -24.999c0 -10 -3.5 -18.5 -10.5 -25.5s-15.5 -10.5 -25.5 -10.5h-350v-245h400c10 0 18.5 -3.5 25.5 -10.5s10.5 -15.5 10.5 -25.5s-3.5 -18.5 -10.5 -25.5s-15.5 -10.5 -25.5 -10.5h-440z" />
    <glyph glyph-name="Igrave" unicode="&#xcc;" horiz-adv-x="291" 
d="M106 35v630c0 10.667 3.83301 20 11.5 28s16.834 12 27.501 12c11.333 0 20.833 -3.83301 28.5 -11.5s11.5 -17.167 11.5 -28.5v-630c0 -11.333 -3.83301 -20.833 -11.5 -28.5s-17.167 -11.5 -28.5 -11.5c-10.667 0 -19.834 4 -27.501 12s-11.5 17.333 -11.5 28zM148 758
c-18.667 0 -34.333 6.33203 -47 18.999l-75 71c-9.33301 9.33301 -14 17 -14 23c0 6.66699 6 13.334 18 20.001s24 10 36 10c14 0 26 -7.66699 36 -23l60 -91c3.33301 -4.66699 5 -9.66699 5 -15c0 -9.33301 -6.33301 -14 -19 -14z" />
    <glyph glyph-name="Iacute" unicode="&#xcd;" horiz-adv-x="291" 
d="M106 35v630c0 10.667 3.83301 20 11.5 28s16.834 12 27.501 12c11.333 0 20.833 -3.83301 28.5 -11.5s11.5 -17.167 11.5 -28.5v-630c0 -11.333 -3.83301 -20.833 -11.5 -28.5s-17.167 -11.5 -28.5 -11.5c-10.667 0 -19.834 4 -27.501 12s-11.5 17.333 -11.5 28zM144 758
c-12.667 0 -18.999 4.66797 -18.999 14.001c0 5.33301 1.66699 10.333 5 15l60 91c10 15.333 22 23 36 23c12 0 24 -3.33301 36 -10s18 -13.334 18 -20.001c0 -6 -4.66699 -13.667 -14 -23l-75 -71c-12.667 -12.667 -28.334 -19 -47.001 -19z" />
    <glyph glyph-name="Icircumflex" unicode="&#xce;" horiz-adv-x="291" 
d="M106 35v630c0 10.667 3.83301 20 11.5 28s16.834 12 27.501 12c11.333 0 20.833 -3.83301 28.5 -11.5s11.5 -17.167 11.5 -28.5v-630c0 -11.333 -3.83301 -20.833 -11.5 -28.5s-17.167 -11.5 -28.5 -11.5c-10.667 0 -19.834 4 -27.501 12s-11.5 17.333 -11.5 28zM145 829
l-59.001 -52c-13.333 -12.667 -29.333 -19 -48 -19c-12 0 -18 4.66699 -18 14c0 3.33301 2.33301 9 7 17l70 86c12.667 14.667 26 22 40 22h18c14 0 27.333 -7.33301 40 -22l70 -86c4.66699 -8 7 -13.667 7 -17c0 -9.33301 -6.33301 -14 -19 -14
c-19.333 0 -35.666 6.33301 -48.999 19z" />
    <glyph glyph-name="Idieresis" unicode="&#xcf;" horiz-adv-x="291" 
d="M106 35v630c0 10.667 3.83301 20 11.5 28s16.834 12 27.501 12c11.333 0 20.833 -3.83301 28.5 -11.5s11.5 -17.167 11.5 -28.5v-630c0 -11.333 -3.83301 -20.833 -11.5 -28.5s-17.167 -11.5 -28.5 -11.5c-10.667 0 -19.834 4 -27.501 12s-11.5 17.333 -11.5 28zM235 862
c13.333 0 24.5 -4.33301 33.5 -13s13.5 -19.334 13.5 -32.001v-15c0 -12.667 -4.5 -23.334 -13.5 -32.001s-20.167 -13 -33.5 -13s-24.5 4.33301 -33.5 13s-13.5 19.334 -13.5 32.001v15c0 12.667 4.5 23.334 13.5 32.001s20.167 13 33.5 13zM57 862
c13.333 0 24.5 -4.33301 33.5 -13s13.5 -19.334 13.5 -32.001v-15c0 -12.667 -4.5 -23.334 -13.5 -32.001s-20.167 -13 -33.5 -13s-24.5 4.33301 -33.5 13s-13.5 19.334 -13.5 32.001v15c0 12.667 4.5 23.334 13.5 32.001s20.167 13 33.5 13z" />
    <glyph glyph-name="Eth" unicode="&#xd0;" horiz-adv-x="812" 
d="M85 388l44 -0.000976562v272c0 10.667 3.83301 20 11.5 28s16.834 12 27.501 12h204c108.667 0 197.834 -33.167 267.501 -99.5s104.5 -149.166 104.5 -248.499v-2c0 -100 -34.833 -183.333 -104.5 -250s-158.834 -100 -267.501 -100h-204
c-10.667 0 -19.834 4 -27.501 12s-11.5 17.333 -11.5 28v276h-44c-10 0 -18.5 3.5 -25.5 10.5s-10.5 15.5 -10.5 25.5s3.5 18.5 10.5 25.5s15.5 10.5 25.5 10.5zM208 626.999v-239h179c9.33301 0 17.666 -3.5 24.999 -10.5s11 -15.5 11 -25.5s-3.66699 -18.5 -11 -25.5
s-15.666 -10.5 -24.999 -10.5h-179v-243h164c86.667 0 156.667 26 210 78s80 117.667 80 197v2c0 79.333 -26.667 145.333 -80 198s-123.333 79 -210 79h-164z" />
    <glyph glyph-name="Ntilde" unicode="&#xd1;" horiz-adv-x="790" 
d="M99 34v629.999c0 10.667 3.83301 19.834 11.5 27.501s16.834 11.5 27.501 11.5h11c14.667 0 28 -7.66699 40 -23l425 -542v528c0 10.667 3.83301 19.834 11.5 27.501s16.834 11.5 27.501 11.5s19.667 -3.83301 27 -11.5s11 -16.834 11 -27.501v-632
c0 -10.667 -3.33301 -19.5 -10 -26.5s-15.334 -10.5 -26.001 -10.5h-4c-13.333 0 -27 8 -41 24l-434 555v-542c0 -10.667 -3.83301 -19.834 -11.5 -27.501s-16.834 -11.5 -27.501 -11.5s-19.667 3.83301 -27 11.5s-11 16.834 -11 27.501zM287 766.999
c-6 -11.333 -13.667 -17 -23 -17c-7.33301 0 -13.5 2.33301 -18.5 7s-7.5 10.334 -7.5 17.001c0 2.66699 1 8 3 16c10 28.667 21.833 49.334 35.5 62.001s31.167 19 52.5 19c16 0 39.667 -6.66699 71 -20s52.333 -20 63 -20c11.333 0 20.333 2.66699 27 8s13 14.333 19 27
c6 11.333 13.667 17 23 17c7.33301 0 13.5 -2.33301 18.5 -7s7.5 -10.334 7.5 -17.001c0 -0.666992 -1 -6 -3 -16c-10 -28.667 -21.833 -49.334 -35.5 -62.001s-31.167 -19 -52.5 -19c-16 0 -39.667 6.66699 -71 20s-52.333 20 -63 20c-11.333 0 -20.333 -2.66699 -27 -8
s-13 -14.333 -19 -27z" />
    <glyph glyph-name="Ograve" unicode="&#xd2;" horiz-adv-x="850" 
d="M424 -12c-104 0 -189.333 35.167 -256 105.5s-100 155.166 -100 254.499v2c0 99.333 33.667 184.5 101 255.5s153 106.5 257 106.5s189.333 -35.167 256 -105.5s100 -155.166 100 -254.499v-2c0 -99.333 -33.667 -184.5 -101 -255.5s-153 -106.5 -257 -106.5zM426 61
c79.333 0 144.833 27.667 196.5 83s77.5 123.333 77.5 204v2c0 80.667 -26.167 149 -78.5 205s-118.166 84 -197.499 84s-144.833 -27.667 -196.5 -83s-77.5 -123.333 -77.5 -204v-2c0 -80.667 26.167 -149 78.5 -205s118.166 -84 197.499 -84zM427 768
c-18.667 0 -34.333 6.33203 -47 18.999l-75 71c-9.33301 9.33301 -14 17 -14 23c0 6.66699 6 13.334 18 20.001s24 10 36 10c14 0 26 -7.66699 36 -23l60 -91c3.33301 -4.66699 5 -9.66699 5 -15c0 -9.33301 -6.33301 -14 -19 -14z" />
    <glyph glyph-name="Oacute" unicode="&#xd3;" horiz-adv-x="850" 
d="M422 768c-12.667 0 -18.999 4.66797 -18.999 14.001c0 5.33301 1.66699 10.333 5 15l60 91c10 15.333 22 23 36 23c12 0 24 -3.33301 36 -10s18 -13.334 18 -20.001c0 -6 -4.66699 -13.667 -14 -23l-75 -71c-12.667 -12.667 -28.334 -19 -47.001 -19zM424.001 -11.999
c-104 0 -189.333 35.167 -256 105.5s-100 155.166 -100 254.499v2c0 99.333 33.667 184.5 101 255.5s153 106.5 257 106.5s189.333 -35.167 256 -105.5s100 -155.166 100 -254.499v-2c0 -99.333 -33.667 -184.5 -101 -255.5s-153 -106.5 -257 -106.5zM426.001 61.001
c79.333 0 144.833 27.667 196.5 83s77.5 123.333 77.5 204v2c0 80.667 -26.167 149 -78.5 205s-118.166 84 -197.499 84s-144.833 -27.667 -196.5 -83s-77.5 -123.333 -77.5 -204v-2c0 -80.667 26.167 -149 78.5 -205s118.166 -84 197.499 -84z" />
    <glyph glyph-name="Ocircumflex" unicode="&#xd4;" horiz-adv-x="850" 
d="M424 839l-59.001 -52c-13.333 -12.667 -29.333 -19 -48 -19c-12 0 -18 4.66699 -18 14c0 3.33301 2.33301 9 7 17l70 86c12.667 14.667 26 22 40 22h18c14 0 27.333 -7.33301 40 -22l70 -86c4.66699 -8 7 -13.667 7 -17c0 -9.33301 -6.33301 -14 -19 -14
c-19.333 0 -35.666 6.33301 -48.999 19zM423.999 -12c-104 0 -189.333 35.167 -256 105.5s-100 155.166 -100 254.499v2c0 99.333 33.667 184.5 101 255.5s153 106.5 257 106.5s189.333 -35.167 256 -105.5s100 -155.166 100 -254.499v-2
c0 -99.333 -33.667 -184.5 -101 -255.5s-153 -106.5 -257 -106.5zM425.999 61c79.333 0 144.833 27.667 196.5 83s77.5 123.333 77.5 204v2c0 80.667 -26.167 149 -78.5 205s-118.166 84 -197.499 84s-144.833 -27.667 -196.5 -83s-77.5 -123.333 -77.5 -204v-2
c0 -80.667 26.167 -149 78.5 -205s118.166 -84 197.499 -84z" />
    <glyph glyph-name="Otilde" unicode="&#xd5;" horiz-adv-x="850" 
d="M424 -12c-104 0 -189.333 35.167 -256 105.5s-100 155.166 -100 254.499v2c0 99.333 33.667 184.5 101 255.5s153 106.5 257 106.5s189.333 -35.167 256 -105.5s100 -155.166 100 -254.499v-2c0 -99.333 -33.667 -184.5 -101 -255.5s-153 -106.5 -257 -106.5zM426 61
c79.333 0 144.833 27.667 196.5 83s77.5 123.333 77.5 204v2c0 80.667 -26.167 149 -78.5 205s-118.166 84 -197.499 84s-144.833 -27.667 -196.5 -83s-77.5 -123.333 -77.5 -204v-2c0 -80.667 26.167 -149 78.5 -205s118.166 -84 197.499 -84zM317 777
c-6 -11.333 -13.667 -17 -23 -17c-7.33301 0 -13.5 2.33301 -18.5 7s-7.5 10.334 -7.5 17.001c0 2.66699 1 8 3 16c10 28.667 21.833 49.334 35.5 62.001s31.167 19 52.5 19c16 0 39.667 -6.66699 71 -20s52.333 -20 63 -20c11.333 0 20.333 2.66699 27 8s13 14.333 19 27
c6 11.333 13.667 17 23 17c7.33301 0 13.5 -2.33301 18.5 -7s7.5 -10.334 7.5 -17.001c0 -0.666992 -1 -6 -3 -16c-10 -28.667 -21.833 -49.334 -35.5 -62.001s-31.167 -19 -52.5 -19c-16 0 -39.667 6.66699 -71 20s-52.333 20 -63 20c-11.333 0 -20.333 -2.66699 -27 -8
s-13 -14.333 -19 -27z" />
    <glyph glyph-name="Odieresis" unicode="&#xd6;" horiz-adv-x="850" 
d="M514 872c13.333 0 24.5 -4.33301 33.5 -13s13.5 -19.334 13.5 -32.001v-15c0 -12.667 -4.5 -23.334 -13.5 -32.001s-20.167 -13 -33.5 -13s-24.5 4.33301 -33.5 13s-13.5 19.334 -13.5 32.001v15c0 12.667 4.5 23.334 13.5 32.001s20.167 13 33.5 13zM336 872
c13.333 0 24.5 -4.33301 33.5 -13s13.5 -19.334 13.5 -32.001v-15c0 -12.667 -4.5 -23.334 -13.5 -32.001s-20.167 -13 -33.5 -13s-24.5 4.33301 -33.5 13s-13.5 19.334 -13.5 32.001v15c0 12.667 4.5 23.334 13.5 32.001s20.167 13 33.5 13zM424 -12
c-104 0 -189.333 35.167 -256 105.5s-100 155.166 -100 254.499v2c0 99.333 33.667 184.5 101 255.5s153 106.5 257 106.5s189.333 -35.167 256 -105.5s100 -155.166 100 -254.499v-2c0 -99.333 -33.667 -184.5 -101 -255.5s-153 -106.5 -257 -106.5zM426 61
c79.333 0 144.833 27.667 196.5 83s77.5 123.333 77.5 204v2c0 80.667 -26.167 149 -78.5 205s-118.166 84 -197.499 84s-144.833 -27.667 -196.5 -83s-77.5 -123.333 -77.5 -204v-2c0 -80.667 26.167 -149 78.5 -205s118.166 -84 197.499 -84z" />
    <glyph glyph-name="multiply" unicode="&#xd7;" horiz-adv-x="625" 
d="M515 505l-154 -152l154 -151c8 -8 12 -17.333 12 -28c0 -10 -3.5 -18.5 -10.5 -25.5s-15.5 -10.5 -25.5 -10.5c-10.667 0 -20 4 -28 12l-151 154l-152 -155c-8.66699 -7.33301 -17.667 -11 -27 -11s-17.5 3.5 -24.5 10.5s-10.5 15.167 -10.5 24.5s4 18 12 26l154 152
l-154 151c-8 8 -12 17.333 -12 28c0 10 3.66699 18.5 11 25.5s16 10.5 26 10.5s19 -4 27 -12l152 -154l152 155c7.33301 7.33301 16 11 26 11c9.33301 0 17.5 -3.5 24.5 -10.5s10.5 -15.167 10.5 -24.5s-4 -18 -12 -26z" />
    <glyph glyph-name="Oslash" unicode="&#xd8;" horiz-adv-x="850" 
d="M424 -12c-86 0 -160.667 25.333 -224 76l-60 -62c-8 -8 -16.333 -12 -25 -12s-15.834 2.83301 -21.501 8.5s-8.5 12.5 -8.5 20.5c0 9.33301 3.33301 17.333 10 24l60 64c-58 66 -87 146.333 -87 241v2c0 99.333 33.667 184.5 101 255.5s153 106.5 257 106.5
c86 0 160.667 -25.667 224 -77l60 63c8 8 16.333 12 25 12s15.834 -2.83301 21.501 -8.5s8.5 -12.5 8.5 -20.5c0 -9.33301 -3.33301 -17.333 -10 -24l-61 -65c58.667 -67.333 88 -147.333 88 -240v-2c0 -99.333 -33.667 -184.5 -101 -255.5s-153 -106.5 -257 -106.5z
M150 350c0 -70.667 20.333 -131.999 61 -183.999l387 411c-50.667 42 -108.667 63 -174 63c-78.667 0 -144 -27.833 -196 -83.5s-78 -123.834 -78 -204.501v-2zM426 60.001c78.667 0 144 27.832 196 83.499s78 123.834 78 204.501v2c0 70.667 -20.333 132 -61 184l-387 -412
c48.667 -41.333 106.667 -62 174 -62z" />
    <glyph glyph-name="Ugrave" unicode="&#xd9;" horiz-adv-x="759" 
d="M379 -11c-88.667 0 -159.335 26.501 -212.002 79.501s-79 127.833 -79 224.5v372c0 10.667 3.83301 20 11.5 28s16.834 12 27.501 12c11.333 0 20.833 -3.83301 28.5 -11.5s11.5 -17.167 11.5 -28.5v-367c0 -74.667 19 -132.667 57 -174s90.333 -62 157 -62
c66 0 117.667 19.667 155 59s56 96.666 56 171.999v372c0 11.333 4 20.833 12 28.5s17.333 11.5 28 11.5s19.834 -4 27.501 -12s11.5 -17.333 11.5 -28v-366c0 -100 -26.333 -176.667 -79 -230s-123.667 -80 -213 -80zM380.999 758.001
c-18.667 0 -34.333 6.33203 -47 18.999l-75 71c-9.33301 9.33301 -14 17 -14 23c0 6.66699 6 13.334 18 20.001s24 10 36 10c14 0 26 -7.66699 36 -23l60 -91c3.33301 -4.66699 5 -9.66699 5 -15c0 -9.33301 -6.33301 -14 -19 -14z" />
    <glyph glyph-name="Uacute" unicode="&#xda;" horiz-adv-x="759" 
d="M377 758c-12.667 0 -18.999 4.66797 -18.999 14.001c0 5.33301 1.66699 10.333 5 15l60 91c10 15.333 22 23 36 23c12 0 24 -3.33301 36 -10s18 -13.334 18 -20.001c0 -6 -4.66699 -13.667 -14 -23l-75 -71c-12.667 -12.667 -28.334 -19 -47.001 -19zM379.001 -10.999
c-88.667 0 -159.335 26.501 -212.002 79.501s-79 127.833 -79 224.5v372c0 10.667 3.83301 20 11.5 28s16.834 12 27.501 12c11.333 0 20.833 -3.83301 28.5 -11.5s11.5 -17.167 11.5 -28.5v-367c0 -74.667 19 -132.667 57 -174s90.333 -62 157 -62
c66 0 117.667 19.667 155 59s56 96.666 56 171.999v372c0 11.333 4 20.833 12 28.5s17.333 11.5 28 11.5s19.834 -4 27.501 -12s11.5 -17.333 11.5 -28v-366c0 -100 -26.333 -176.667 -79 -230s-123.667 -80 -213 -80z" />
    <glyph glyph-name="Ucircumflex" unicode="&#xdb;" horiz-adv-x="759" 
d="M378 829l-59.001 -52c-13.333 -12.667 -29.333 -19 -48 -19c-12 0 -18 4.66699 -18 14c0 3.33301 2.33301 9 7 17l70 86c12.667 14.667 26 22 40 22h18c14 0 27.333 -7.33301 40 -22l70 -86c4.66699 -8 7 -13.667 7 -17c0 -9.33301 -6.33301 -14 -19 -14
c-19.333 0 -35.666 6.33301 -48.999 19zM378.999 -11c-88.667 0 -159.335 26.501 -212.002 79.501s-79 127.833 -79 224.5v372c0 10.667 3.83301 20 11.5 28s16.834 12 27.501 12c11.333 0 20.833 -3.83301 28.5 -11.5s11.5 -17.167 11.5 -28.5v-367
c0 -74.667 19 -132.667 57 -174s90.333 -62 157 -62c66 0 117.667 19.667 155 59s56 96.666 56 171.999v372c0 11.333 4 20.833 12 28.5s17.333 11.5 28 11.5s19.834 -4 27.501 -12s11.5 -17.333 11.5 -28v-366c0 -100 -26.333 -176.667 -79 -230s-123.667 -80 -213 -80z
" />
    <glyph glyph-name="Udieresis" unicode="&#xdc;" horiz-adv-x="759" 
d="M468 862c13.333 0 24.5 -4.33301 33.5 -13s13.5 -19.334 13.5 -32.001v-15c0 -12.667 -4.5 -23.334 -13.5 -32.001s-20.167 -13 -33.5 -13s-24.5 4.33301 -33.5 13s-13.5 19.334 -13.5 32.001v15c0 12.667 4.5 23.334 13.5 32.001s20.167 13 33.5 13zM290 862
c13.333 0 24.5 -4.33301 33.5 -13s13.5 -19.334 13.5 -32.001v-15c0 -12.667 -4.5 -23.334 -13.5 -32.001s-20.167 -13 -33.5 -13s-24.5 4.33301 -33.5 13s-13.5 19.334 -13.5 32.001v15c0 12.667 4.5 23.334 13.5 32.001s20.167 13 33.5 13zM379 -11
c-88.667 0 -159.335 26.501 -212.002 79.501s-79 127.833 -79 224.5v372c0 10.667 3.83301 20 11.5 28s16.834 12 27.501 12c11.333 0 20.833 -3.83301 28.5 -11.5s11.5 -17.167 11.5 -28.5v-367c0 -74.667 19 -132.667 57 -174s90.333 -62 157 -62
c66 0 117.667 19.667 155 59s56 96.666 56 171.999v372c0 11.333 4 20.833 12 28.5s17.333 11.5 28 11.5s19.834 -4 27.501 -12s11.5 -17.333 11.5 -28v-366c0 -100 -26.333 -176.667 -79 -230s-123.667 -80 -213 -80z" />
    <glyph glyph-name="Yacute" unicode="&#xdd;" horiz-adv-x="708" 
d="M314 35v240l-260 364c-6 9.33301 -9 18.333 -9 27c0 10.667 4 19.834 12 27.501s17.667 11.5 29 11.5c14 0 26.667 -8 38 -24l231 -333l233 333c11.333 16 23.666 24 36.999 24c10.667 0 19.834 -3.83301 27.501 -11.5s11.5 -16.834 11.5 -27.501
c0 -7.33301 -3.66699 -17 -11 -29l-259 -360v-242c0 -11.333 -4 -20.833 -12 -28.5s-17.333 -11.5 -28 -11.5s-20 3.83301 -28 11.5s-12 17.167 -12 28.5zM352 758c-12.667 0 -18.999 4.66797 -18.999 14.001c0 5.33301 1.66699 10.333 5 15l60 91c10 15.333 22 23 36 23
c12 0 24 -3.33301 36 -10s18 -13.334 18 -20.001c0 -6 -4.66699 -13.667 -14 -23l-75 -71c-12.667 -12.667 -28.334 -19 -47.001 -19z" />
    <glyph glyph-name="Thorn" unicode="&#xde;" horiz-adv-x="673" 
d="M99 35v630c0 10.667 3.83301 20 11.5 28s16.834 12 27.501 12s20 -3.83301 28 -11.5s12 -17.167 12 -28.5v-85h183c79.333 0 142.833 -20 190.5 -60s71.5 -94 71.5 -162v-2c0 -72.667 -26.167 -129.167 -78.5 -169.5s-117.833 -60.5 -196.5 -60.5h-170v-91
c0 -11.333 -4 -20.833 -12 -28.5s-17.333 -11.5 -28 -11.5s-19.834 4 -27.501 12s-11.5 17.333 -11.5 28zM178 198h173c58 0 104.5 14.333 139.5 43s52.5 66 52.5 112v2c0 48.667 -16.833 86.167 -50.5 112.5s-79.5 39.5 -137.5 39.5h-177v-309z" />
    <glyph glyph-name="germandbls" unicode="&#xdf;" horiz-adv-x="620" 
d="M287 30c0 8.66699 2.83301 16 8.5 22s12.834 9.66699 21.501 11c50.667 4 91 16.667 121 38s45 51.666 45 90.999v2c0 36.667 -15 66 -45 88s-69.667 37 -119 45c-21.333 4.66699 -32 16.334 -32 35.001c0 15.333 7.66699 26.666 23 33.999
c86.667 35.333 130 86.666 130 153.999v2c0 34.667 -12.167 62.834 -36.5 84.501s-55.833 32.5 -94.5 32.5c-43.333 0 -78.5 -15.167 -105.5 -45.5s-40.5 -70.833 -40.5 -121.5v-469c0 -10.667 -3.83301 -19.667 -11.5 -27s-16.834 -11 -27.501 -11s-19.667 3.66699 -27 11
s-11 16.333 -11 27v468c0 70.667 20.5 127.667 61.5 171s96.167 65 165.5 65c62 0 111.833 -17.167 149.5 -51.5s56.5 -77.166 56.5 -128.499v-2c0 -44 -13.167 -81.167 -39.5 -111.5s-59.5 -54.166 -99.5 -71.499c52.667 -12 96.167 -32.667 130.5 -62s51.5 -68 51.5 -116
v-2c0 -60.667 -22.667 -107.834 -68 -141.501s-103 -51.167 -173 -52.5c-10 0 -18.167 3 -24.5 9s-9.5 13.667 -9.5 23z" />
    <glyph glyph-name="agrave" unicode="&#xe0;" horiz-adv-x="579" 
d="M240 -11c-52 0 -97.167 14.3311 -135.5 42.998s-57.5 68 -57.5 118v2c0 53.333 20 94.5 60 123.5s93.667 43.5 161 43.5c54 0 107 -7.33301 159 -22v18c0 46 -13.333 81 -40 105s-64.667 36 -114 36c-46 0 -90.667 -9.66699 -134 -29c-4.66699 -2 -9.33398 -3 -14.001 -3
c-9.33301 0 -17.333 3.33301 -24 10s-10 14.334 -10 23.001c0 16 7 26.667 21 32c54 23.333 110.333 35 169 35c73.333 0 129 -19 167 -57c35.333 -35.333 53 -85.666 53 -150.999v-283c0 -10.667 -3.5 -19.667 -10.5 -27s-15.833 -11 -26.5 -11s-19.5 3.5 -26.5 10.5
s-10.5 15.5 -10.5 25.5v47c-45.333 -59.333 -107.666 -89 -186.999 -89zM255 49.998c48 0 88.834 13.167 122.501 39.5s50.5 59.833 50.5 100.5v50c-50.667 14.667 -101.334 22 -152.001 22c-48 0 -85.167 -9.66699 -111.5 -29s-39.5 -45.333 -39.5 -78v-2
c0 -31.333 12.5 -56.333 37.5 -75s55.833 -28 92.5 -28zM292.001 590.998c-18.667 0 -34.333 6.33203 -47 18.999l-75 71c-9.33301 9.33301 -14 17 -14 23c0 6.66699 6 13.334 18 20.001s24 10 36 10c14 0 26 -7.66699 36 -23l60 -91c3.33301 -4.66699 5 -9.66699 5 -15
c0 -9.33301 -6.33301 -14 -19 -14z" />
    <glyph glyph-name="aacute" unicode="&#xe1;" horiz-adv-x="579" 
d="M240 -11c-52 0 -97.167 14.3311 -135.5 42.998s-57.5 68 -57.5 118v2c0 53.333 20 94.5 60 123.5s93.667 43.5 161 43.5c54 0 107 -7.33301 159 -22v18c0 46 -13.333 81 -40 105s-64.667 36 -114 36c-46 0 -90.667 -9.66699 -134 -29c-4.66699 -2 -9.33398 -3 -14.001 -3
c-9.33301 0 -17.333 3.33301 -24 10s-10 14.334 -10 23.001c0 16 7 26.667 21 32c54 23.333 110.333 35 169 35c73.333 0 129 -19 167 -57c35.333 -35.333 53 -85.666 53 -150.999v-283c0 -10.667 -3.5 -19.667 -10.5 -27s-15.833 -11 -26.5 -11s-19.5 3.5 -26.5 10.5
s-10.5 15.5 -10.5 25.5v47c-45.333 -59.333 -107.666 -89 -186.999 -89zM255 49.998c48 0 88.834 13.167 122.501 39.5s50.5 59.833 50.5 100.5v50c-50.667 14.667 -101.334 22 -152.001 22c-48 0 -85.167 -9.66699 -111.5 -29s-39.5 -45.333 -39.5 -78v-2
c0 -31.333 12.5 -56.333 37.5 -75s55.833 -28 92.5 -28zM287.001 590.998c-12.667 0 -18.999 4.66797 -18.999 14.001c0 5.33301 1.66699 10.333 5 15l60 91c10 15.333 22 23 36 23c12 0 24 -3.33301 36 -10s18 -13.334 18 -20.001c0 -6 -4.66699 -13.667 -14 -23l-75 -71
c-12.667 -12.667 -28.334 -19 -47.001 -19z" />
    <glyph glyph-name="acircumflex" unicode="&#xe2;" horiz-adv-x="579" 
d="M240 -11c-52 0 -97.167 14.3311 -135.5 42.998s-57.5 68 -57.5 118v2c0 53.333 20 94.5 60 123.5s93.667 43.5 161 43.5c54 0 107 -7.33301 159 -22v18c0 46 -13.333 81 -40 105s-64.667 36 -114 36c-46 0 -90.667 -9.66699 -134 -29c-4.66699 -2 -9.33398 -3 -14.001 -3
c-9.33301 0 -17.333 3.33301 -24 10s-10 14.334 -10 23.001c0 16 7 26.667 21 32c54 23.333 110.333 35 169 35c73.333 0 129 -19 167 -57c35.333 -35.333 53 -85.666 53 -150.999v-283c0 -10.667 -3.5 -19.667 -10.5 -27s-15.833 -11 -26.5 -11s-19.5 3.5 -26.5 10.5
s-10.5 15.5 -10.5 25.5v47c-45.333 -59.333 -107.666 -89 -186.999 -89zM255 49.998c48 0 88.834 13.167 122.501 39.5s50.5 59.833 50.5 100.5v50c-50.667 14.667 -101.334 22 -152.001 22c-48 0 -85.167 -9.66699 -111.5 -29s-39.5 -45.333 -39.5 -78v-2
c0 -31.333 12.5 -56.333 37.5 -75s55.833 -28 92.5 -28zM288.001 661.998l-59.001 -52c-13.333 -12.667 -29.333 -19 -48 -19c-12 0 -18 4.66699 -18 14c0 3.33301 2.33301 9 7 17l70 86c12.667 14.667 26 22 40 22h18c14 0 27.333 -7.33301 40 -22l70 -86
c4.66699 -8 7 -13.667 7 -17c0 -9.33301 -6.33301 -14 -19 -14c-19.333 0 -35.666 6.33301 -48.999 19z" />
    <glyph glyph-name="atilde" unicode="&#xe3;" horiz-adv-x="579" 
d="M240 -11c-52 0 -97.167 14.3311 -135.5 42.998s-57.5 68 -57.5 118v2c0 53.333 20 94.5 60 123.5s93.667 43.5 161 43.5c54 0 107 -7.33301 159 -22v18c0 46 -13.333 81 -40 105s-64.667 36 -114 36c-46 0 -90.667 -9.66699 -134 -29c-4.66699 -2 -9.33398 -3 -14.001 -3
c-9.33301 0 -17.333 3.33301 -24 10s-10 14.334 -10 23.001c0 16 7 26.667 21 32c54 23.333 110.333 35 169 35c73.333 0 129 -19 167 -57c35.333 -35.333 53 -85.666 53 -150.999v-283c0 -10.667 -3.5 -19.667 -10.5 -27s-15.833 -11 -26.5 -11s-19.5 3.5 -26.5 10.5
s-10.5 15.5 -10.5 25.5v47c-45.333 -59.333 -107.666 -89 -186.999 -89zM255 49.998c48 0 88.834 13.167 122.501 39.5s50.5 59.833 50.5 100.5v50c-50.667 14.667 -101.334 22 -152.001 22c-48 0 -85.167 -9.66699 -111.5 -29s-39.5 -45.333 -39.5 -78v-2
c0 -31.333 12.5 -56.333 37.5 -75s55.833 -28 92.5 -28zM182.001 599.998c-5.33301 -11.333 -13 -17 -23 -17c-7.33301 0 -13.5 2.33301 -18.5 7s-7.5 10.334 -7.5 17.001c0 2.66699 1 8 3 16c10 28.667 21.833 49.334 35.5 62.001s31.167 19 52.5 19
c16 0 39.667 -6.66699 71 -20s52.333 -20 63 -20c11.333 0 20.333 2.66699 27 8s13 14.333 19 27c5.33301 11.333 13 17 23 17c7.33301 0 13.5 -2.33301 18.5 -7s7.5 -10.334 7.5 -17.001c0 -0.666992 -1 -6 -3 -16c-10 -28.667 -21.833 -49.334 -35.5 -62.001
s-31.167 -19 -52.5 -19c-16 0 -39.667 6.66699 -71 20s-52.333 20 -63 20c-11.333 0 -20.333 -2.66699 -27 -8s-13 -14.333 -19 -27z" />
    <glyph glyph-name="adieresis" unicode="&#xe4;" horiz-adv-x="579" 
d="M240 -11c-52 0 -97.167 14.3311 -135.5 42.998s-57.5 68 -57.5 118v2c0 53.333 20 94.5 60 123.5s93.667 43.5 161 43.5c54 0 107 -7.33301 159 -22v18c0 46 -13.333 81 -40 105s-64.667 36 -114 36c-46 0 -90.667 -9.66699 -134 -29c-4.66699 -2 -9.33398 -3 -14.001 -3
c-9.33301 0 -17.333 3.33301 -24 10s-10 14.334 -10 23.001c0 16 7 26.667 21 32c54 23.333 110.333 35 169 35c73.333 0 129 -19 167 -57c35.333 -35.333 53 -85.666 53 -150.999v-283c0 -10.667 -3.5 -19.667 -10.5 -27s-15.833 -11 -26.5 -11s-19.5 3.5 -26.5 10.5
s-10.5 15.5 -10.5 25.5v47c-45.333 -59.333 -107.666 -89 -186.999 -89zM255 49.998c48 0 88.834 13.167 122.501 39.5s50.5 59.833 50.5 100.5v50c-50.667 14.667 -101.334 22 -152.001 22c-48 0 -85.167 -9.66699 -111.5 -29s-39.5 -45.333 -39.5 -78v-2
c0 -31.333 12.5 -56.333 37.5 -75s55.833 -28 92.5 -28zM378.001 694.998c13.333 0 24.5 -4.33301 33.5 -13s13.5 -19.334 13.5 -32.001v-15c0 -12.667 -4.5 -23.334 -13.5 -32.001s-20.167 -13 -33.5 -13s-24.5 4.33301 -33.5 13s-13.5 19.334 -13.5 32.001v15
c0 12.667 4.5 23.334 13.5 32.001s20.167 13 33.5 13zM200.001 694.998c13.333 0 24.5 -4.33301 33.5 -13s13.5 -19.334 13.5 -32.001v-15c0 -12.667 -4.5 -23.334 -13.5 -32.001s-20.167 -13 -33.5 -13s-24.5 4.33301 -33.5 13s-13.5 19.334 -13.5 32.001v15
c0 12.667 4.5 23.334 13.5 32.001s20.167 13 33.5 13z" />
    <glyph glyph-name="aring" unicode="&#xe5;" horiz-adv-x="579" 
d="M240 -11c-52 0 -97.167 14.3311 -135.5 42.998s-57.5 68 -57.5 118v2c0 53.333 20 94.5 60 123.5s93.667 43.5 161 43.5c54 0 107 -7.33301 159 -22v18c0 46 -13.333 81 -40 105s-64.667 36 -114 36c-46 0 -90.667 -9.66699 -134 -29c-4.66699 -2 -9.33398 -3 -14.001 -3
c-9.33301 0 -17.333 3.33301 -24 10s-10 14.334 -10 23.001c0 16 7 26.667 21 32c54 23.333 110.333 35 169 35c73.333 0 129 -19 167 -57c35.333 -35.333 53 -85.666 53 -150.999v-283c0 -10.667 -3.5 -19.667 -10.5 -27s-15.833 -11 -26.5 -11s-19.5 3.5 -26.5 10.5
s-10.5 15.5 -10.5 25.5v47c-45.333 -59.333 -107.666 -89 -186.999 -89zM255 49.998c48 0 88.834 13.167 122.501 39.5s50.5 59.833 50.5 100.5v50c-50.667 14.667 -101.334 22 -152.001 22c-48 0 -85.167 -9.66699 -111.5 -29s-39.5 -45.333 -39.5 -78v-2
c0 -31.333 12.5 -56.333 37.5 -75s55.833 -28 92.5 -28zM289.001 592.998c-28 0 -52.333 9.83301 -73 29.5s-31 42.834 -31 69.501v2c0 26.667 10.333 49.834 31 69.501s45 29.5 73 29.5s52.333 -9.83301 73 -29.5s31 -42.834 31 -69.501v-2
c0 -26.667 -10.333 -49.834 -31 -69.501s-45 -29.5 -73 -29.5zM289.001 630.998c16.667 0 31.167 6 43.5 18s18.5 26.333 18.5 43v2c0 16.667 -6.16699 31 -18.5 43s-26.833 18 -43.5 18s-31.167 -6 -43.5 -18s-18.5 -26.333 -18.5 -43v-2c0 -16.667 6.16699 -31 18.5 -43
s26.833 -18 43.5 -18z" />
    <glyph glyph-name="ae" unicode="&#xe6;" horiz-adv-x="953" 
d="M493 287h333c-4 50.667 -20.167 92.667 -48.5 126s-66.833 50 -115.5 50c-45.333 0 -83.5 -16.5 -114.5 -49.5s-49.167 -75.167 -54.5 -126.5zM251 51c69.333 0 131.334 30.666 186.001 91.999c-12 30 -19 62.667 -21 98c-53.333 14 -101.333 21 -144 21
c-46.667 0 -82.834 -9.66699 -108.501 -29s-38.5 -45.333 -38.5 -78v-2c0 -31.333 12 -56.166 36 -74.499s54 -27.5 90 -27.5zM869.001 65.999c-55.333 -52 -120.666 -78.0029 -195.999 -78.0029c-41.333 0 -80 9.16699 -116 27.5s-65.667 43.833 -89 76.5
c-66 -68.667 -141.333 -103 -226 -103c-53.333 0 -99.166 14.167 -137.499 42.5s-57.5 67.833 -57.5 118.5v2c0 53.333 19.833 94.5 59.5 123.5s92.167 43.5 157.5 43.5c50 0 101 -7.33301 153 -22v18c0 46 -12.833 81 -38.5 105s-62.5 36 -110.5 36
c-43.333 0 -86.333 -9.66699 -129 -29c-4.66699 -2 -9.33398 -3 -14.001 -3c-9.33301 0 -17.333 3.33301 -24 10s-10 14.334 -10 23.001c0 16 7 26.667 21 32c52 23.333 106.667 35 164 35c100.667 0 164 -37 190 -111c20.667 35.333 48.334 63.333 83.001 84s73 31 115 31
c73.333 0 131.666 -25.667 174.999 -77s65 -113 65 -185c0 -10 -3.66699 -18.5 -11 -25.5s-16 -10.5 -26 -10.5h-373c4.66699 -54 24.167 -96.667 58.5 -128s75.166 -47 122.499 -47c55.333 0 105.333 20 150 60c7.33301 6 14.333 9 21 9c9.33301 0 17.333 -3.16699 24 -9.5
s10 -14.166 10 -23.499s-3.66699 -17.666 -11 -24.999z" />
    <glyph glyph-name="ccedilla" unicode="&#xe7;" horiz-adv-x="571" 
d="M514 71c-52 -52 -112.002 -79.333 -180.002 -82l-53 -115c-7.33301 -15.333 -17.666 -23 -30.999 -23c-10 0 -20.5 3.5 -31.5 10.5s-16.5 14.167 -16.5 21.5c0 4.66699 2 10.667 6 18l63 92c-63.333 10.667 -115.333 41 -156 91s-61 107.333 -61 172v2
c0 74 25.5 137.5 76.5 190.5s113.833 79.5 188.5 79.5c72 0 135.333 -25 190 -75c8 -6.66699 12 -15.667 12 -27c0 -10.667 -3.66699 -19.5 -11 -26.5s-16 -10.5 -26 -10.5c-9.33301 0 -17.666 3 -24.999 9c-44.667 41.333 -91.667 62 -141 62
c-52 0 -95.833 -19.333 -131.5 -58s-53.5 -86 -53.5 -142v-2c0 -56 18.167 -103.5 54.5 -142.5s81.5 -58.5 135.5 -58.5c51.333 0 99.333 21 144 63c6.66699 6.66699 14 10 22 10c9.33301 0 17.5 -3.5 24.5 -10.5s10.5 -15.167 10.5 -24.5s-3.33301 -17.333 -10 -24z" />
    <glyph glyph-name="egrave" unicode="&#xe8;" horiz-adv-x="592" 
d="M132 287h333.001c-4 50.667 -20.333 92.667 -49 126s-67.334 50 -116.001 50c-44.667 0 -82.5 -16.667 -113.5 -50s-49.167 -75.333 -54.5 -126zM507.001 66c-54 -52 -118.995 -78.001 -194.995 -78.001c-72.667 0 -133.834 25.167 -183.501 75.5
s-74.5 114.833 -74.5 193.5v2c0 75.333 23.667 139 71 191s106.333 78 177 78c73.333 0 131.666 -25.667 174.999 -77s65 -113 65 -185c0 -10 -3.5 -18.5 -10.5 -25.5s-15.5 -10.5 -25.5 -10.5h-374c5.33301 -54.667 25.166 -97.5 59.499 -128.5s75.166 -46.5 122.499 -46.5
c56 0 105.667 20 149 60c7.33301 6 14.666 9 21.999 9c9.33301 0 17.333 -3.16699 24 -9.5s10 -14.166 10 -23.499c0 -10 -4 -18.333 -12 -25zM303.006 590.999c-18.667 0 -34.333 6.33203 -47 18.999l-75 71c-9.33301 9.33301 -14 17 -14 23c0 6.66699 6 13.334 18 20.001
s24 10 36 10c14 0 26 -7.66699 36 -23l60 -91c3.33301 -4.66699 5 -9.66699 5 -15c0 -9.33301 -6.33301 -14 -19 -14z" />
    <glyph glyph-name="eacute" unicode="&#xe9;" horiz-adv-x="592" 
d="M299 591c-12.667 0 -18.999 4.66797 -18.999 14.001c0 5.33301 1.66699 10.333 5 15l60 91c10 15.333 22 23 36 23c12 0 24 -3.33301 36 -10s18 -13.334 18 -20.001c0 -6 -4.66699 -13.667 -14 -23l-75 -71c-12.667 -12.667 -28.334 -19 -47.001 -19zM132.001 287.001
h333.001c-4 50.667 -20.333 92.667 -49 126s-67.334 50 -116.001 50c-44.667 0 -82.5 -16.667 -113.5 -50s-49.167 -75.333 -54.5 -126zM507.002 66.001c-54 -52 -118.995 -78.001 -194.995 -78.001c-72.667 0 -133.834 25.167 -183.501 75.5s-74.5 114.833 -74.5 193.5v2
c0 75.333 23.667 139 71 191s106.333 78 177 78c73.333 0 131.666 -25.667 174.999 -77s65 -113 65 -185c0 -10 -3.5 -18.5 -10.5 -25.5s-15.5 -10.5 -25.5 -10.5h-374c5.33301 -54.667 25.166 -97.5 59.499 -128.5s75.166 -46.5 122.499 -46.5c56 0 105.667 20 149 60
c7.33301 6 14.666 9 21.999 9c9.33301 0 17.333 -3.16699 24 -9.5s10 -14.166 10 -23.499c0 -10 -4 -18.333 -12 -25z" />
    <glyph glyph-name="ecircumflex" unicode="&#xea;" horiz-adv-x="592" 
d="M300 662l-59.001 -52c-13.333 -12.667 -29.333 -19 -48 -19c-12 0 -18 4.66699 -18 14c0 3.33301 2.33301 9 7 17l70 86c12.667 14.667 26 22 40 22h18c14 0 27.333 -7.33301 40 -22l70 -86c4.66699 -8 7 -13.667 7 -17c0 -9.33301 -6.33301 -14 -19 -14
c-19.333 0 -35.666 6.33301 -48.999 19zM131.999 287h333.001c-4 50.667 -20.333 92.667 -49 126s-67.334 50 -116.001 50c-44.667 0 -82.5 -16.667 -113.5 -50s-49.167 -75.333 -54.5 -126zM507 66c-54 -52 -118.995 -78.001 -194.995 -78.001
c-72.667 0 -133.834 25.167 -183.501 75.5s-74.5 114.833 -74.5 193.5v2c0 75.333 23.667 139 71 191s106.333 78 177 78c73.333 0 131.666 -25.667 174.999 -77s65 -113 65 -185c0 -10 -3.5 -18.5 -10.5 -25.5s-15.5 -10.5 -25.5 -10.5h-374
c5.33301 -54.667 25.166 -97.5 59.499 -128.5s75.166 -46.5 122.499 -46.5c56 0 105.667 20 149 60c7.33301 6 14.666 9 21.999 9c9.33301 0 17.333 -3.16699 24 -9.5s10 -14.166 10 -23.499c0 -10 -4 -18.333 -12 -25z" />
    <glyph glyph-name="edieresis" unicode="&#xeb;" horiz-adv-x="592" 
d="M390 695c13.333 0 24.5 -4.33301 33.5 -13s13.5 -19.334 13.5 -32.001v-15c0 -12.667 -4.5 -23.334 -13.5 -32.001s-20.167 -13 -33.5 -13s-24.5 4.33301 -33.5 13s-13.5 19.334 -13.5 32.001v15c0 12.667 4.5 23.334 13.5 32.001s20.167 13 33.5 13zM212 695
c13.333 0 24.5 -4.33301 33.5 -13s13.5 -19.334 13.5 -32.001v-15c0 -12.667 -4.5 -23.334 -13.5 -32.001s-20.167 -13 -33.5 -13s-24.5 4.33301 -33.5 13s-13.5 19.334 -13.5 32.001v15c0 12.667 4.5 23.334 13.5 32.001s20.167 13 33.5 13zM132 287h333.001
c-4 50.667 -20.333 92.667 -49 126s-67.334 50 -116.001 50c-44.667 0 -82.5 -16.667 -113.5 -50s-49.167 -75.333 -54.5 -126zM507.001 66c-54 -52 -118.995 -78.001 -194.995 -78.001c-72.667 0 -133.834 25.167 -183.501 75.5s-74.5 114.833 -74.5 193.5v2
c0 75.333 23.667 139 71 191s106.333 78 177 78c73.333 0 131.666 -25.667 174.999 -77s65 -113 65 -185c0 -10 -3.5 -18.5 -10.5 -25.5s-15.5 -10.5 -25.5 -10.5h-374c5.33301 -54.667 25.166 -97.5 59.499 -128.5s75.166 -46.5 122.499 -46.5c56 0 105.667 20 149 60
c7.33301 6 14.666 9 21.999 9c9.33301 0 17.333 -3.16699 24 -9.5s10 -14.166 10 -23.499c0 -10 -4 -18.333 -12 -25z" />
    <glyph glyph-name="igrave" unicode="&#xec;" horiz-adv-x="263" 
d="M93 34l0.00195312 448.996c0 10.667 3.66699 19.834 11 27.501s16.333 11.5 27 11.5c11.333 0 20.666 -3.66699 27.999 -11s11 -16.666 11 -27.999v-449c0 -11.333 -3.66699 -20.666 -11 -27.999s-16.333 -11 -27 -11s-19.834 3.83301 -27.501 11.5
s-11.5 16.834 -11.5 27.501zM134.002 590.996c-18.667 0 -34.333 6.33203 -47 18.999l-75 71c-9.33301 9.33301 -14 17 -14 23c0 6.66699 6 13.334 18 20.001s24 10 36 10c14 0 26 -7.66699 36 -23l60 -91c3.33301 -4.66699 5 -9.66699 5 -15
c0 -9.33301 -6.33301 -14 -19 -14z" />
    <glyph glyph-name="iacute" unicode="&#xed;" horiz-adv-x="263" 
d="M130 591c-12.667 0 -18.999 4.66797 -18.999 14.001c0 5.33301 1.66699 10.333 5 15l60 91c10 15.333 22 23 36 23c12 0 24 -3.33301 36 -10s18 -13.334 18 -20.001c0 -6 -4.66699 -13.667 -14 -23l-75 -71c-12.667 -12.667 -28.334 -19 -47.001 -19zM93.001 34.001
l0.00195312 448.996c0 10.667 3.66699 19.834 11 27.501s16.333 11.5 27 11.5c11.333 0 20.666 -3.66699 27.999 -11s11 -16.666 11 -27.999v-449c0 -11.333 -3.66699 -20.666 -11 -27.999s-16.333 -11 -27 -11s-19.834 3.83301 -27.501 11.5s-11.5 16.834 -11.5 27.501z
" />
    <glyph glyph-name="icircumflex" unicode="&#xee;" horiz-adv-x="263" 
d="M131 662l-59.001 -52c-13.333 -12.667 -29.333 -19 -48 -19c-12 0 -18 4.66699 -18 14c0 3.33301 2.33301 9 7 17l70 86c12.667 14.667 26 22 40 22h18c14 0 27.333 -7.33301 40 -22l70 -86c4.66699 -8 7 -13.667 7 -17c0 -9.33301 -6.33301 -14 -19 -14
c-19.333 0 -35.666 6.33301 -48.999 19zM92.999 34l0.00195312 448.996c0 10.667 3.66699 19.834 11 27.501s16.333 11.5 27 11.5c11.333 0 20.666 -3.66699 27.999 -11s11 -16.666 11 -27.999v-449c0 -11.333 -3.66699 -20.666 -11 -27.999s-16.333 -11 -27 -11
s-19.834 3.83301 -27.501 11.5s-11.5 16.834 -11.5 27.501z" />
    <glyph glyph-name="idieresis" unicode="&#xef;" horiz-adv-x="263" 
d="M221 695c13.333 0 24.5 -4.33301 33.5 -13s13.5 -19.334 13.5 -32.001v-15c0 -12.667 -4.5 -23.334 -13.5 -32.001s-20.167 -13 -33.5 -13s-24.5 4.33301 -33.5 13s-13.5 19.334 -13.5 32.001v15c0 12.667 4.5 23.334 13.5 32.001s20.167 13 33.5 13zM43 695
c13.333 0 24.5 -4.33301 33.5 -13s13.5 -19.334 13.5 -32.001v-15c0 -12.667 -4.5 -23.334 -13.5 -32.001s-20.167 -13 -33.5 -13s-24.5 4.33301 -33.5 13s-13.5 19.334 -13.5 32.001v15c0 12.667 4.5 23.334 13.5 32.001s20.167 13 33.5 13zM93 34l0.00195312 448.996
c0 10.667 3.66699 19.834 11 27.501s16.333 11.5 27 11.5c11.333 0 20.666 -3.66699 27.999 -11s11 -16.666 11 -27.999v-449c0 -11.333 -3.66699 -20.666 -11 -27.999s-16.333 -11 -27 -11s-19.834 3.83301 -27.501 11.5s-11.5 16.834 -11.5 27.501z" />
    <glyph glyph-name="eth" unicode="&#xf0;" horiz-adv-x="633" 
d="M453 431l-131.001 183.001l-116 -56c-5.33301 -2 -10 -3 -14 -3c-8 0 -14.667 2.83301 -20 8.5s-8 12.5 -8 20.5c0 11.333 6 20 18 26l107 50l-10 15c-5.33301 7.33301 -8 15.333 -8 24c0 10 3.5 18.5 10.5 25.5s15.833 10.5 26.5 10.5c12.667 0 23.334 -6 32.001 -18
l17 -25l87 41c4 2 8.66699 3 14 3c7.33301 0 13.833 -2.83301 19.5 -8.5s8.5 -12.5 8.5 -20.5c0 -11.333 -6.33301 -20 -19 -26l-78 -36l101 -149c30 -43.333 52.167 -83.666 66.5 -120.999s21.5 -78.333 21.5 -123c0 -72.667 -24.5 -134.834 -73.5 -186.501
s-113.167 -77.5 -192.5 -77.5c-73.333 0 -134.666 25.167 -183.999 75.5s-74 111.166 -74 182.499c0 70 23.167 127.5 69.5 172.5s102.166 67.5 167.499 67.5c56 0 110 -18.333 162 -55zM498.999 244.001c0 50 -18.168 92.667 -54.501 128s-81.5 53 -135.5 53
c-53.333 0 -96.166 -17.333 -128.499 -52s-48.5 -78 -48.5 -130c0 -50 17.667 -93.667 53 -131s79.333 -56 132 -56c53.333 0 97 18.333 131 55s51 81 51 133z" />
    <glyph glyph-name="ntilde" unicode="&#xf1;" horiz-adv-x="616" 
d="M86 34v448.996c0 10.667 3.66699 19.834 11 27.501s16.333 11.5 27 11.5s19.834 -3.66699 27.501 -11s11.5 -16.666 11.5 -27.999v-56c40.667 67.333 99.667 101 177 101c61.333 0 109.666 -18.833 144.999 -56.5s53 -87.834 53 -150.501v-287
c0 -10.667 -3.66699 -19.834 -11 -27.501s-16.333 -11.5 -27 -11.5s-19.834 3.83301 -27.501 11.5s-11.5 16.834 -11.5 27.501v268c0 48.667 -12.5 86.834 -37.5 114.501s-60.167 41.5 -105.5 41.5c-44.667 0 -81.667 -15 -111 -45s-44 -69 -44 -117v-262
c0 -11.333 -3.66699 -20.666 -11 -27.999s-16.333 -11 -27 -11c-11.333 0 -20.666 3.83301 -27.999 11.5s-11 16.834 -11 27.501zM204 599.996c-5.33301 -11.333 -13 -17 -23 -17c-7.33301 0 -13.5 2.33301 -18.5 7s-7.5 10.334 -7.5 17.001c0 2.66699 1 8 3 16
c10 28.667 21.833 49.334 35.5 62.001s31.167 19 52.5 19c16 0 39.667 -6.66699 71 -20s52.333 -20 63 -20c11.333 0 20.333 2.66699 27 8s13 14.333 19 27c5.33301 11.333 13 17 23 17c7.33301 0 13.5 -2.33301 18.5 -7s7.5 -10.334 7.5 -17.001c0 -0.666992 -1 -6 -3 -16
c-10 -28.667 -21.833 -49.334 -35.5 -62.001s-31.167 -19 -52.5 -19c-16 0 -39.667 6.66699 -71 20s-52.333 20 -63 20c-11.333 0 -20.333 -2.66699 -27 -8s-13 -14.333 -19 -27z" />
    <glyph glyph-name="ograve" unicode="&#xf2;" horiz-adv-x="646" 
d="M322 -12c-76.667 0 -140.501 26.167 -191.501 78.5s-76.5 115.5 -76.5 189.5v2c0 74 25.833 137.5 77.5 190.5s115.834 79.5 192.501 79.5s140.667 -26.167 192 -78.5s77 -115.5 77 -189.5v-2c0 -74 -26 -137.5 -78 -190.5s-116.333 -79.5 -193 -79.5zM323.999 57
c55.333 0 100.834 19.333 136.501 58s53.5 85.667 53.5 141v2c0 56 -18.5 103.667 -55.5 143s-82.5 59 -136.5 59c-54.667 0 -99.834 -19.5 -135.501 -58.5s-53.5 -86.167 -53.5 -141.5v-2c0 -56 18.333 -103.5 55 -142.5s82 -58.5 136 -58.5zM325 591
c-18.667 0 -34.333 6.33203 -47 18.999l-75 71c-9.33301 9.33301 -14 17 -14 23c0 6.66699 6 13.334 18 20.001s24 10 36 10c14 0 26 -7.66699 36 -23l60 -91c3.33301 -4.66699 5 -9.66699 5 -15c0 -9.33301 -6.33301 -14 -19 -14z" />
    <glyph glyph-name="oacute" unicode="&#xf3;" horiz-adv-x="646" 
d="M321 591c-12.667 0 -18.999 4.66797 -18.999 14.001c0 5.33301 1.66699 10.333 5 15l60 91c10 15.333 22 23 36 23c12 0 24 -3.33301 36 -10s18 -13.334 18 -20.001c0 -6 -4.66699 -13.667 -14 -23l-75 -71c-12.667 -12.667 -28.334 -19 -47.001 -19zM322.001 -11.999
c-76.667 0 -140.501 26.167 -191.501 78.5s-76.5 115.5 -76.5 189.5v2c0 74 25.833 137.5 77.5 190.5s115.834 79.5 192.501 79.5s140.667 -26.167 192 -78.5s77 -115.5 77 -189.5v-2c0 -74 -26 -137.5 -78 -190.5s-116.333 -79.5 -193 -79.5zM324 57.001
c55.333 0 100.834 19.333 136.501 58s53.5 85.667 53.5 141v2c0 56 -18.5 103.667 -55.5 143s-82.5 59 -136.5 59c-54.667 0 -99.834 -19.5 -135.501 -58.5s-53.5 -86.167 -53.5 -141.5v-2c0 -56 18.333 -103.5 55 -142.5s82 -58.5 136 -58.5z" />
    <glyph glyph-name="ocircumflex" unicode="&#xf4;" horiz-adv-x="646" 
d="M322 662l-59.001 -52c-13.333 -12.667 -29.333 -19 -48 -19c-12 0 -18 4.66699 -18 14c0 3.33301 2.33301 9 7 17l70 86c12.667 14.667 26 22 40 22h18c14 0 27.333 -7.33301 40 -22l70 -86c4.66699 -8 7 -13.667 7 -17c0 -9.33301 -6.33301 -14 -19 -14
c-19.333 0 -35.666 6.33301 -48.999 19zM321.999 -12c-76.667 0 -140.501 26.167 -191.501 78.5s-76.5 115.5 -76.5 189.5v2c0 74 25.833 137.5 77.5 190.5s115.834 79.5 192.501 79.5s140.667 -26.167 192 -78.5s77 -115.5 77 -189.5v-2c0 -74 -26 -137.5 -78 -190.5
s-116.333 -79.5 -193 -79.5zM323.998 57c55.333 0 100.834 19.333 136.501 58s53.5 85.667 53.5 141v2c0 56 -18.5 103.667 -55.5 143s-82.5 59 -136.5 59c-54.667 0 -99.834 -19.5 -135.501 -58.5s-53.5 -86.167 -53.5 -141.5v-2c0 -56 18.333 -103.5 55 -142.5
s82 -58.5 136 -58.5z" />
    <glyph glyph-name="otilde" unicode="&#xf5;" horiz-adv-x="646" 
d="M322 -12c-76.667 0 -140.501 26.167 -191.501 78.5s-76.5 115.5 -76.5 189.5v2c0 74 25.833 137.5 77.5 190.5s115.834 79.5 192.501 79.5s140.667 -26.167 192 -78.5s77 -115.5 77 -189.5v-2c0 -74 -26 -137.5 -78 -190.5s-116.333 -79.5 -193 -79.5zM323.999 57
c55.333 0 100.834 19.333 136.501 58s53.5 85.667 53.5 141v2c0 56 -18.5 103.667 -55.5 143s-82.5 59 -136.5 59c-54.667 0 -99.834 -19.5 -135.501 -58.5s-53.5 -86.167 -53.5 -141.5v-2c0 -56 18.333 -103.5 55 -142.5s82 -58.5 136 -58.5zM215 600
c-6 -11.333 -13.667 -17 -23 -17c-7.33301 0 -13.5 2.33301 -18.5 7s-7.5 10.334 -7.5 17.001c0 2.66699 1 8 3 16c10 28.667 21.833 49.334 35.5 62.001s31.167 19 52.5 19c16 0 39.667 -6.66699 71 -20s52.333 -20 63 -20c11.333 0 20.333 2.66699 27 8s13 14.333 19 27
c6 11.333 13.667 17 23 17c7.33301 0 13.5 -2.33301 18.5 -7s7.5 -10.334 7.5 -17.001c0 -0.666992 -1 -6 -3 -16c-10 -28.667 -21.833 -49.334 -35.5 -62.001s-31.167 -19 -52.5 -19c-16 0 -39.667 6.66699 -71 20s-52.333 20 -63 20c-11.333 0 -20.333 -2.66699 -27 -8
s-13 -14.333 -19 -27z" />
    <glyph glyph-name="odieresis" unicode="&#xf6;" horiz-adv-x="646" 
d="M412 695c13.333 0 24.5 -4.33301 33.5 -13s13.5 -19.334 13.5 -32.001v-15c0 -12.667 -4.5 -23.334 -13.5 -32.001s-20.167 -13 -33.5 -13s-24.5 4.33301 -33.5 13s-13.5 19.334 -13.5 32.001v15c0 12.667 4.5 23.334 13.5 32.001s20.167 13 33.5 13zM234 695
c13.333 0 24.5 -4.33301 33.5 -13s13.5 -19.334 13.5 -32.001v-15c0 -12.667 -4.5 -23.334 -13.5 -32.001s-20.167 -13 -33.5 -13s-24.5 4.33301 -33.5 13s-13.5 19.334 -13.5 32.001v15c0 12.667 4.5 23.334 13.5 32.001s20.167 13 33.5 13zM322 -12
c-76.667 0 -140.501 26.167 -191.501 78.5s-76.5 115.5 -76.5 189.5v2c0 74 25.833 137.5 77.5 190.5s115.834 79.5 192.501 79.5s140.667 -26.167 192 -78.5s77 -115.5 77 -189.5v-2c0 -74 -26 -137.5 -78 -190.5s-116.333 -79.5 -193 -79.5zM323.999 57
c55.333 0 100.834 19.333 136.501 58s53.5 85.667 53.5 141v2c0 56 -18.5 103.667 -55.5 143s-82.5 59 -136.5 59c-54.667 0 -99.834 -19.5 -135.501 -58.5s-53.5 -86.167 -53.5 -141.5v-2c0 -56 18.333 -103.5 55 -142.5s82 -58.5 136 -58.5z" />
    <glyph glyph-name="divide" unicode="&#xf7;" horiz-adv-x="625" 
d="M527 317h-429c-9.33301 0 -17.5 3.5 -24.5 10.5s-10.5 15.167 -10.5 24.5s3.5 17.5 10.5 24.5s15.167 10.5 24.5 10.5h429c9.33301 0 17.5 -3.5 24.5 -10.5s10.5 -15.167 10.5 -24.5s-3.5 -17.5 -10.5 -24.5s-15.167 -10.5 -24.5 -10.5zM313 607c14 0 26 -5 36 -15
s15 -21.667 15 -35v-13c0 -13.333 -5 -25 -15 -35s-22 -15 -36 -15c-14.667 0 -27 5 -37 15s-15 21.667 -15 35v13c0 13.333 5 25 15 35s22.333 15 37 15zM313 210c14 0 26 -5 36 -15s15 -21.667 15 -35v-13c0 -13.333 -5 -25 -15 -35s-22 -15 -36 -15
c-14.667 0 -27 5 -37 15s-15 21.667 -15 35v13c0 13.333 5 25 15 35s22.333 15 37 15z" />
    <glyph glyph-name="oslash" unicode="&#xf8;" horiz-adv-x="646" 
d="M322 -12c-62 0 -117.333 18.334 -166 55.001l-40 -41c-8 -8 -16.333 -12 -25 -12c-7.33301 0 -13.833 2.5 -19.5 7.5s-8.5 11.167 -8.5 18.5c0 9.33301 3.66699 17 11 23l42 43c-41.333 48.667 -62 106.667 -62 174v2c0 74 25.833 137.5 77.5 190.5
s115.834 79.5 192.501 79.5c61.333 0 116.333 -18.333 165 -55l41 43c8 8 16.667 12 26 12c7.33301 0 13.666 -2.5 18.999 -7.5s8 -11.167 8 -18.5c0 -8.66699 -3.33301 -16.334 -10 -23.001l-43 -45c42 -49.333 63 -107.333 63 -174v-2c0 -74 -26 -137.5 -78 -190.5
s-116.333 -79.5 -193 -79.5zM132 258.001c0 -46 12.334 -86.333 37.001 -121l272 282c-34.667 28 -74.334 42 -119.001 42c-55.333 0 -100.833 -19.5 -136.5 -58.5s-53.5 -86.5 -53.5 -142.5v-2zM324.001 56.001c55.333 0 101 19.5 137 58.5s54 86.167 54 141.5v2
c0 44.667 -12.667 85 -38 121l-271 -281c34.667 -28 74 -42 118 -42z" />
    <glyph glyph-name="ugrave" unicode="&#xf9;" horiz-adv-x="616" 
d="M529 483l-0.00195312 -448.996c0 -10.667 -3.66699 -19.834 -11 -27.501s-16.333 -11.5 -27 -11.5s-19.667 3.83301 -27 11.5s-11 16.834 -11 27.501v56c-42 -67.333 -101 -101 -177 -101c-61.333 0 -109.666 18.833 -144.999 56.5s-53 87.834 -53 150.501v287
c0 11.333 3.66699 20.666 11 27.999s16.333 11 27 11s19.834 -3.83301 27.501 -11.5s11.5 -16.834 11.5 -27.501v-268c0 -48.667 12.5 -86.834 37.5 -114.501s60.167 -41.5 105.5 -41.5c44.667 0 81.667 15 111 45s44 69 44 117v262c0 11.333 3.66699 20.666 11 27.999
s16.333 11 27 11s19.667 -3.83301 27 -11.5s11 -16.834 11 -27.501zM304.998 591.004c-18.667 0 -34.333 6.33203 -47 18.999l-75 71c-9.33301 9.33301 -14 17 -14 23c0 6.66699 6 13.334 18 20.001s24 10 36 10c14 0 26 -7.66699 36 -23l60 -91
c3.33301 -4.66699 5 -9.66699 5 -15c0 -9.33301 -6.33301 -14 -19 -14z" />
    <glyph glyph-name="uacute" unicode="&#xfa;" horiz-adv-x="616" 
d="M301 591c-12.667 0 -18.999 4.66797 -18.999 14.001c0 5.33301 1.66699 10.333 5 15l60 91c10 15.333 22 23 36 23c12 0 24 -3.33301 36 -10s18 -13.334 18 -20.001c0 -6 -4.66699 -13.667 -14 -23l-75 -71c-12.667 -12.667 -28.334 -19 -47.001 -19zM529.001 483.001
l-0.00195312 -448.996c0 -10.667 -3.66699 -19.834 -11 -27.501s-16.333 -11.5 -27 -11.5s-19.667 3.83301 -27 11.5s-11 16.834 -11 27.501v56c-42 -67.333 -101 -101 -177 -101c-61.333 0 -109.666 18.833 -144.999 56.5s-53 87.834 -53 150.501v287
c0 11.333 3.66699 20.666 11 27.999s16.333 11 27 11s19.834 -3.83301 27.501 -11.5s11.5 -16.834 11.5 -27.501v-268c0 -48.667 12.5 -86.834 37.5 -114.501s60.167 -41.5 105.5 -41.5c44.667 0 81.667 15 111 45s44 69 44 117v262c0 11.333 3.66699 20.666 11 27.999
s16.333 11 27 11s19.667 -3.83301 27 -11.5s11 -16.834 11 -27.501z" />
    <glyph glyph-name="ucircumflex" unicode="&#xfb;" horiz-adv-x="616" 
d="M302 662l-59.001 -52c-13.333 -12.667 -29.333 -19 -48 -19c-12 0 -18 4.66699 -18 14c0 3.33301 2.33301 9 7 17l70 86c12.667 14.667 26 22 40 22h18c14 0 27.333 -7.33301 40 -22l70 -86c4.66699 -8 7 -13.667 7 -17c0 -9.33301 -6.33301 -14 -19 -14
c-19.333 0 -35.666 6.33301 -48.999 19zM528.999 483l-0.00195312 -448.996c0 -10.667 -3.66699 -19.834 -11 -27.501s-16.333 -11.5 -27 -11.5s-19.667 3.83301 -27 11.5s-11 16.834 -11 27.501v56c-42 -67.333 -101 -101 -177 -101
c-61.333 0 -109.666 18.833 -144.999 56.5s-53 87.834 -53 150.501v287c0 11.333 3.66699 20.666 11 27.999s16.333 11 27 11s19.834 -3.83301 27.501 -11.5s11.5 -16.834 11.5 -27.501v-268c0 -48.667 12.5 -86.834 37.5 -114.501s60.167 -41.5 105.5 -41.5
c44.667 0 81.667 15 111 45s44 69 44 117v262c0 11.333 3.66699 20.666 11 27.999s16.333 11 27 11s19.667 -3.83301 27 -11.5s11 -16.834 11 -27.501z" />
    <glyph glyph-name="udieresis" unicode="&#xfc;" horiz-adv-x="616" 
d="M392 695c13.333 0 24.5 -4.33301 33.5 -13s13.5 -19.334 13.5 -32.001v-15c0 -12.667 -4.5 -23.334 -13.5 -32.001s-20.167 -13 -33.5 -13s-24.5 4.33301 -33.5 13s-13.5 19.334 -13.5 32.001v15c0 12.667 4.5 23.334 13.5 32.001s20.167 13 33.5 13zM214 695
c13.333 0 24.5 -4.33301 33.5 -13s13.5 -19.334 13.5 -32.001v-15c0 -12.667 -4.5 -23.334 -13.5 -32.001s-20.167 -13 -33.5 -13s-24.5 4.33301 -33.5 13s-13.5 19.334 -13.5 32.001v15c0 12.667 4.5 23.334 13.5 32.001s20.167 13 33.5 13zM529 483l-0.00195312 -448.996
c0 -10.667 -3.66699 -19.834 -11 -27.501s-16.333 -11.5 -27 -11.5s-19.667 3.83301 -27 11.5s-11 16.834 -11 27.501v56c-42 -67.333 -101 -101 -177 -101c-61.333 0 -109.666 18.833 -144.999 56.5s-53 87.834 -53 150.501v287c0 11.333 3.66699 20.666 11 27.999
s16.333 11 27 11s19.834 -3.83301 27.501 -11.5s11.5 -16.834 11.5 -27.501v-268c0 -48.667 12.5 -86.834 37.5 -114.501s60.167 -41.5 105.5 -41.5c44.667 0 81.667 15 111 45s44 69 44 117v262c0 11.333 3.66699 20.666 11 27.999s16.333 11 27 11
s19.667 -3.83301 27 -11.5s11 -16.834 11 -27.501z" />
    <glyph glyph-name="yacute" unicode="&#xfd;" horiz-adv-x="587" 
d="M161 -163c-28 0 -56.335 5.00098 -85.002 15.001c-16 6.66699 -24 17.667 -24 33c0 9.33301 3.33301 17.166 10 23.499s14.334 9.5 23.001 9.5c4.66699 0 11 -1.33301 19 -4c18 -6 36.667 -9 56 -9c23.333 0 42.833 7.16699 58.5 21.5s30.834 37.833 45.501 70.5l4 8
l-216 458c-3.33301 8 -5 15 -5 21c0 10.667 3.83301 19.667 11.5 27s16.834 11 27.501 11c18 0 31 -10 39 -30l180 -406l160 407c7.33301 19.333 19.666 29 36.999 29c10.667 0 19.667 -3.66699 27 -11s11 -16.333 11 -27c0 -4.66699 -1.33301 -11 -4 -19l-202 -482
c-22 -52.667 -46.5 -90.167 -73.5 -112.5s-60.167 -33.5 -99.5 -33.5zM293.998 591.001c-12.667 0 -18.999 4.66797 -18.999 14.001c0 5.33301 1.66699 10.333 5 15l60 91c10 15.333 22 23 36 23c12 0 24 -3.33301 36 -10s18 -13.334 18 -20.001
c0 -6 -4.66699 -13.667 -14 -23l-75 -71c-12.667 -12.667 -28.334 -19 -47.001 -19z" />
    <glyph glyph-name="thorn" unicode="&#xfe;" 
d="M86 -126l-0.00195312 821.998c0 10.667 3.66699 19.834 11 27.501s16.333 11.5 27 11.5s19.834 -3.83301 27.501 -11.5s11.5 -16.834 11.5 -27.501v-283c52 76.667 118 115 198 115c66 0 123.667 -24.333 173 -73s74 -113.667 74 -195v-2
c0 -80.667 -24.667 -145.667 -74 -195s-107 -74 -173 -74c-81.333 0 -147.333 36.667 -198 110v-225c0 -11.333 -3.66699 -20.666 -11 -27.999s-16.333 -11 -27 -11c-11.333 0 -20.666 3.83301 -27.999 11.5s-11 16.834 -11 27.501zM346.998 57.998c52 0 95.333 18 130 54
s52 84.333 52 145v2c0 59.333 -17.667 107.5 -53 144.5s-78.333 55.5 -129 55.5c-50 0 -93.667 -18.833 -131 -56.5s-56 -85.167 -56 -142.5v-2c0 -58 18.667 -105.833 56 -143.5s81 -56.5 131 -56.5z" />
    <glyph glyph-name="ydieresis" unicode="&#xff;" horiz-adv-x="587" 
d="M161 -163c-28 0 -56.335 5.00098 -85.002 15.001c-16 6.66699 -24 17.667 -24 33c0 9.33301 3.33301 17.166 10 23.499s14.334 9.5 23.001 9.5c4.66699 0 11 -1.33301 19 -4c18 -6 36.667 -9 56 -9c23.333 0 42.833 7.16699 58.5 21.5s30.834 37.833 45.501 70.5l4 8
l-216 458c-3.33301 8 -5 15 -5 21c0 10.667 3.83301 19.667 11.5 27s16.834 11 27.501 11c18 0 31 -10 39 -30l180 -406l160 407c7.33301 19.333 19.666 29 36.999 29c10.667 0 19.667 -3.66699 27 -11s11 -16.333 11 -27c0 -4.66699 -1.33301 -11 -4 -19l-202 -482
c-22 -52.667 -46.5 -90.167 -73.5 -112.5s-60.167 -33.5 -99.5 -33.5zM384.998 695.001c13.333 0 24.5 -4.33301 33.5 -13s13.5 -19.334 13.5 -32.001v-15c0 -12.667 -4.5 -23.334 -13.5 -32.001s-20.167 -13 -33.5 -13s-24.5 4.33301 -33.5 13s-13.5 19.334 -13.5 32.001
v15c0 12.667 4.5 23.334 13.5 32.001s20.167 13 33.5 13zM206.998 695.001c13.333 0 24.5 -4.33301 33.5 -13s13.5 -19.334 13.5 -32.001v-15c0 -12.667 -4.5 -23.334 -13.5 -32.001s-20.167 -13 -33.5 -13s-24.5 4.33301 -33.5 13s-13.5 19.334 -13.5 32.001v15
c0 12.667 4.5 23.334 13.5 32.001s20.167 13 33.5 13z" />
    <glyph glyph-name="Amacron" unicode="&#x100;" horiz-adv-x="784" 
d="M51 31c0 7.33301 1.66699 14.333 5 21l284 621c10.667 23.333 27.334 35 50.001 35h4c23.333 0 39.666 -11.667 48.999 -35l284 -620c3.33301 -8 5 -14.667 5 -20c0 -10.667 -3.66699 -19.667 -11 -27s-16.333 -11 -27 -11c-17.333 0 -30.333 9.66699 -39 29l-73 161
h-384l-73 -163c-7.33301 -18 -20 -27 -38 -27c-10 0 -18.5 3.5 -25.5 10.5s-10.5 15.5 -10.5 25.5zM229 257h322l-161 358zM523 792h-264c-8.66699 0 -16.167 3.16699 -22.5 9.5s-9.5 13.833 -9.5 22.5s3.16699 16.167 9.5 22.5s13.833 9.5 22.5 9.5h264
c8.66699 0 16.167 -3.16699 22.5 -9.5s9.5 -13.833 9.5 -22.5s-3.16699 -16.167 -9.5 -22.5s-13.833 -9.5 -22.5 -9.5z" />
    <glyph glyph-name="amacron" unicode="&#x101;" horiz-adv-x="579" 
d="M240 -11c-52 0 -97.167 14.3311 -135.5 42.998s-57.5 68 -57.5 118v2c0 53.333 20 94.5 60 123.5s93.667 43.5 161 43.5c54 0 107 -7.33301 159 -22v18c0 46 -13.333 81 -40 105s-64.667 36 -114 36c-46 0 -90.667 -9.66699 -134 -29c-4.66699 -2 -9.33398 -3 -14.001 -3
c-9.33301 0 -17.333 3.33301 -24 10s-10 14.334 -10 23.001c0 16 7 26.667 21 32c54 23.333 110.333 35 169 35c73.333 0 129 -19 167 -57c35.333 -35.333 53 -85.666 53 -150.999v-283c0 -10.667 -3.5 -19.667 -10.5 -27s-15.833 -11 -26.5 -11s-19.5 3.5 -26.5 10.5
s-10.5 15.5 -10.5 25.5v47c-45.333 -59.333 -107.666 -89 -186.999 -89zM255 49.998c48 0 88.834 13.167 122.501 39.5s50.5 59.833 50.5 100.5v50c-50.667 14.667 -101.334 22 -152.001 22c-48 0 -85.167 -9.66699 -111.5 -29s-39.5 -45.333 -39.5 -78v-2
c0 -31.333 12.5 -56.333 37.5 -75s55.833 -28 92.5 -28zM421.001 614.998h-264c-8.66699 0 -16.167 3.16699 -22.5 9.5s-9.5 13.833 -9.5 22.5s3.16699 16.167 9.5 22.5s13.833 9.5 22.5 9.5h264c8.66699 0 16.167 -3.16699 22.5 -9.5s9.5 -13.833 9.5 -22.5
s-3.16699 -16.167 -9.5 -22.5s-13.833 -9.5 -22.5 -9.5z" />
    <glyph glyph-name="Abreve" unicode="&#x102;" horiz-adv-x="784" 
d="M51 31c0 7.33301 1.66699 14.333 5 21l284 621c10.667 23.333 27.334 35 50.001 35h4c23.333 0 39.666 -11.667 48.999 -35l284 -620c3.33301 -8 5 -14.667 5 -20c0 -10.667 -3.66699 -19.667 -11 -27s-16.333 -11 -27 -11c-17.333 0 -30.333 9.66699 -39 29l-73 161
h-384l-73 -163c-7.33301 -18 -20 -27 -38 -27c-10 0 -18.5 3.5 -25.5 10.5s-10.5 15.5 -10.5 25.5zM229 257h322l-161 358zM391 770c-61.333 0 -105.335 24.333 -132.002 73c-6.66699 11.333 -10 23 -10 35c0 8.66699 2.5 15.834 7.5 21.501s11.833 8.5 20.5 8.5
c12 0 21.333 -6.33301 28 -19c14.667 -36.667 43.334 -55 86.001 -55s71.334 18.333 86.001 55c6.66699 12.667 16 19 28 19c8.66699 0 15.5 -2.83301 20.5 -8.5s7.5 -12.834 7.5 -21.501c0 -12 -3.33301 -23.667 -10 -35c-26.667 -48.667 -70.667 -73 -132 -73z" />
    <glyph glyph-name="abreve" unicode="&#x103;" horiz-adv-x="579" 
d="M240 -11c-52 0 -97.167 14.3311 -135.5 42.998s-57.5 68 -57.5 118v2c0 53.333 20 94.5 60 123.5s93.667 43.5 161 43.5c54 0 107 -7.33301 159 -22v18c0 46 -13.333 81 -40 105s-64.667 36 -114 36c-46 0 -90.667 -9.66699 -134 -29c-4.66699 -2 -9.33398 -3 -14.001 -3
c-9.33301 0 -17.333 3.33301 -24 10s-10 14.334 -10 23.001c0 16 7 26.667 21 32c54 23.333 110.333 35 169 35c73.333 0 129 -19 167 -57c35.333 -35.333 53 -85.666 53 -150.999v-283c0 -10.667 -3.5 -19.667 -10.5 -27s-15.833 -11 -26.5 -11s-19.5 3.5 -26.5 10.5
s-10.5 15.5 -10.5 25.5v47c-45.333 -59.333 -107.666 -89 -186.999 -89zM255 49.998c48 0 88.834 13.167 122.501 39.5s50.5 59.833 50.5 100.5v50c-50.667 14.667 -101.334 22 -152.001 22c-48 0 -85.167 -9.66699 -111.5 -29s-39.5 -45.333 -39.5 -78v-2
c0 -31.333 12.5 -56.333 37.5 -75s55.833 -28 92.5 -28zM289.001 592.998c-61.333 0 -105.335 24.333 -132.002 73c-6.66699 11.333 -10 23 -10 35c0 8.66699 2.5 15.834 7.5 21.501s11.833 8.5 20.5 8.5c12 0 21.333 -6.33301 28 -19c14.667 -36.667 43.334 -55 86.001 -55
s71.334 18.333 86.001 55c6.66699 12.667 16 19 28 19c8.66699 0 15.5 -2.83301 20.5 -8.5s7.5 -12.834 7.5 -21.501c0 -12 -3.33301 -23.667 -10 -35c-26.667 -48.667 -70.667 -73 -132 -73z" />
    <glyph glyph-name="Aogonek" unicode="&#x104;" horiz-adv-x="790" 
d="M54 31c0 5.33301 1.66504 12.3359 4.99805 21.0029l284 621c10.667 23.333 27.334 35 50.001 35h4c22.667 0 39.334 -11.667 50.001 -35l285 -624c3.33301 -6.66699 5 -13.334 5 -20.001c0 -10.667 -5.33301 -21.334 -16 -32.001
c-29.333 -25.333 -44 -48.666 -44 -69.999c0 -22.667 16.667 -37.334 50 -44.001c19.333 -4 29 -12 29 -24c0 -15.333 -9.33301 -23 -28 -23c-26.667 0 -52.834 6.16699 -78.501 18.5s-38.5 32.833 -38.5 61.5c0 29.333 18.333 59.666 55 90.999l-80 178h-385l-73 -163
c-7.33301 -18 -19.666 -27 -36.999 -27c-10.667 0 -19.5 3.5 -26.5 10.5s-10.5 15.5 -10.5 25.5zM231.998 257.003h322l-160 358z" />
    <glyph glyph-name="aogonek" unicode="&#x105;" horiz-adv-x="579" 
d="M374 -85c0 30 19.333 61.6641 58 94.9971c-3.33301 2.66699 -5 25 -5 67v1c-45.333 -59.333 -107.666 -89 -186.999 -89c-52 0 -97.167 14.333 -135.5 43s-57.5 68 -57.5 118v2c0 53.333 20 94.5 60 123.5s93.667 43.5 161 43.5c54 0 107 -7.33301 159 -22v18
c0 46 -13.333 81 -40 105s-64.667 36 -114 36c-46 0 -90.667 -9.66699 -134 -29c-4.66699 -2 -9.33398 -3 -14.001 -3c-9.33301 0 -17.333 3.33301 -24 10s-10 14.334 -10 23.001c0 16 7 26.667 21 32c54 23.333 110.333 35 169 35c73.333 0 129 -19 167 -57
c35.333 -35.333 53 -85.666 53 -150.999v-285c0 -13.333 -6 -25 -18 -35c-28.667 -26 -43 -49 -43 -69c0 -23.333 16.333 -38 49 -44c19.333 -4 29 -12 29 -24c0 -15.333 -9 -23 -27 -23c-15.333 0 -31 1.83301 -47 5.5s-31.667 11.834 -47 24.501s-23 29 -23 49z
M255 49.9971c48 0 88.834 13.167 122.501 39.5s50.5 59.833 50.5 100.5v50c-50.667 14.667 -101.334 22 -152.001 22c-48 0 -85.167 -9.66699 -111.5 -29s-39.5 -45.333 -39.5 -78v-2c0 -31.333 12.5 -56.333 37.5 -75s55.833 -28 92.5 -28z" />
    <glyph glyph-name="Cacute" unicode="&#x106;" horiz-adv-x="738" 
d="M412 768c-12.667 0 -18.999 4.66797 -18.999 14.001c0 5.33301 1.66699 10.333 5 15l60 91c10 15.333 22 23 36 23c12 0 24 -3.33301 36 -10s18 -13.334 18 -20.001c0 -6 -4.66699 -13.667 -14 -23l-75 -71c-12.667 -12.667 -28.334 -19 -47.001 -19zM419.001 -11.999
c-100 0 -183.498 34.668 -250.498 104.001s-100.5 154.666 -100.5 255.999v2c0 100.667 33.667 186.167 101 256.5s151.666 105.5 252.999 105.5c52.667 0 98.5 -7.66699 137.5 -23s76.5 -38 112.5 -68c10.667 -9.33301 16 -20 16 -32c0 -10.667 -4 -19.834 -12 -27.501
s-17.333 -11.5 -28 -11.5c-8 0 -16.667 3 -26 9c-60 53.333 -127 80 -201 80c-77.333 0 -141.833 -27.667 -193.5 -83s-77.5 -123.333 -77.5 -204v-2c0 -81.333 26 -149.833 78 -205.5s116.333 -83.5 193 -83.5s146 28.333 208 85c7.33301 7.33301 15.666 11 24.999 11
c10 0 18.833 -3.83301 26.5 -11.5s11.5 -16.5 11.5 -26.5c0 -11.333 -4.33301 -20.666 -13 -27.999c-75.333 -68.667 -162 -103 -260 -103z" />
    <glyph glyph-name="cacute" unicode="&#x107;" horiz-adv-x="571" 
d="M311 591c-12.667 0 -18.999 4.66797 -18.999 14.001c0 5.33301 1.66699 10.333 5 15l60 91c10 15.333 22 23 36 23c12 0 24 -3.33301 36 -10s18 -13.334 18 -20.001c0 -6 -4.66699 -13.667 -14 -23l-75 -71c-12.667 -12.667 -28.334 -19 -47.001 -19zM319.001 -11.999
c-74.667 0 -137.501 26.333 -188.501 79s-76.5 115.667 -76.5 189v2c0 74 25.5 137.5 76.5 190.5s113.833 79.5 188.5 79.5c72 0 135.333 -25 190 -75c8 -6.66699 12 -15.667 12 -27c0 -10.667 -3.66699 -19.5 -11 -26.5s-16 -10.5 -26 -10.5
c-9.33301 0 -17.666 3 -24.999 9c-44.667 41.333 -91.667 62 -141 62c-52 0 -95.833 -19.333 -131.5 -58s-53.5 -86 -53.5 -142v-2c0 -56 18.167 -103.5 54.5 -142.5s81.5 -58.5 135.5 -58.5c51.333 0 99.333 21 144 63c6.66699 6.66699 14 10 22 10
c9.33301 0 17.5 -3.5 24.5 -10.5s10.5 -15.167 10.5 -24.5s-3.33301 -17.333 -10 -24c-55.333 -55.333 -120.333 -83 -195 -83z" />
    <glyph glyph-name="Cdotaccent" unicode="&#x10a;" horiz-adv-x="738" 
d="M419 -12c-100 0 -183.498 34.668 -250.498 104.001s-100.5 154.666 -100.5 255.999v2c0 100.667 33.667 186.167 101 256.5s151.666 105.5 252.999 105.5c52.667 0 98.5 -7.66699 137.5 -23s76.5 -38 112.5 -68c10.667 -9.33301 16 -20 16 -32
c0 -10.667 -4 -19.834 -12 -27.501s-17.333 -11.5 -28 -11.5c-8 0 -16.667 3 -26 9c-60 53.333 -127 80 -201 80c-77.333 0 -141.833 -27.667 -193.5 -83s-77.5 -123.333 -77.5 -204v-2c0 -81.333 26 -149.833 78 -205.5s116.333 -83.5 193 -83.5s146 28.333 208 85
c7.33301 7.33301 15.666 11 24.999 11c10 0 18.833 -3.83301 26.5 -11.5s11.5 -16.5 11.5 -26.5c0 -11.333 -4.33301 -20.666 -13 -27.999c-75.333 -68.667 -162 -103 -260 -103zM462.002 827.001l-0.00195312 -14c0 -13.333 -4.66699 -24.333 -14 -33
s-20.666 -13 -33.999 -13s-24.666 4.33301 -33.999 13s-14 19.667 -14 33v14c0 13.333 4.5 24.166 13.5 32.499s20.5 12.5 34.5 12.5s25.5 -4.16699 34.5 -12.5s13.5 -19.166 13.5 -32.499z" />
    <glyph glyph-name="cdotaccent" unicode="&#x10b;" horiz-adv-x="571" 
d="M319 -12c-74.667 0 -137.501 26.333 -188.501 79s-76.5 115.667 -76.5 189v2c0 74 25.5 137.5 76.5 190.5s113.833 79.5 188.5 79.5c72 0 135.333 -25 190 -75c8 -6.66699 12 -15.667 12 -27c0 -10.667 -3.66699 -19.5 -11 -26.5s-16 -10.5 -26 -10.5
c-9.33301 0 -17.666 3 -24.999 9c-44.667 41.333 -91.667 62 -141 62c-52 0 -95.833 -19.333 -131.5 -58s-53.5 -86 -53.5 -142v-2c0 -56 18.167 -103.5 54.5 -142.5s81.5 -58.5 135.5 -58.5c51.333 0 99.333 21 144 63c6.66699 6.66699 14 10 22 10
c9.33301 0 17.5 -3.5 24.5 -10.5s10.5 -15.167 10.5 -24.5s-3.33301 -17.333 -10 -24c-55.333 -55.333 -120.333 -83 -195 -83zM361.999 650l-0.00195312 -14c0 -13.333 -4.66699 -24.333 -14 -33s-20.666 -13 -33.999 -13s-24.666 4.33301 -33.999 13s-14 19.667 -14 33v14
c0 13.333 4.5 24.166 13.5 32.499s20.5 12.5 34.5 12.5s25.5 -4.16699 34.5 -12.5s13.5 -19.166 13.5 -32.499z" />
    <glyph glyph-name="Ccaron" unicode="&#x10c;" horiz-adv-x="738" 
d="M415 836l59.001 53c13.333 12 29.333 18 48 18c12 0 18 -4.66699 18 -14c0 -3.33301 -2.33301 -8.66602 -7 -15.999l-70 -86c-12 -15.333 -25.333 -23 -40 -23h-18c-14.667 0 -28 7.66699 -40 23l-70 86c-4.66699 7.33301 -7 12.666 -7 15.999
c0 9.33301 6.33301 14 19 14c19.333 0 35.666 -6 48.999 -18zM419.001 -12c-100 0 -183.498 34.668 -250.498 104.001s-100.5 154.666 -100.5 255.999v2c0 100.667 33.667 186.167 101 256.5s151.666 105.5 252.999 105.5c52.667 0 98.5 -7.66699 137.5 -23
s76.5 -38 112.5 -68c10.667 -9.33301 16 -20 16 -32c0 -10.667 -4 -19.834 -12 -27.501s-17.333 -11.5 -28 -11.5c-8 0 -16.667 3 -26 9c-60 53.333 -127 80 -201 80c-77.333 0 -141.833 -27.667 -193.5 -83s-77.5 -123.333 -77.5 -204v-2c0 -81.333 26 -149.833 78 -205.5
s116.333 -83.5 193 -83.5s146 28.333 208 85c7.33301 7.33301 15.666 11 24.999 11c10 0 18.833 -3.83301 26.5 -11.5s11.5 -16.5 11.5 -26.5c0 -11.333 -4.33301 -20.666 -13 -27.999c-75.333 -68.667 -162 -103 -260 -103z" />
    <glyph glyph-name="ccaron" unicode="&#x10d;" horiz-adv-x="571" 
d="M315 659l59.001 53c13.333 12 29.333 18 48 18c12 0 18 -4.66699 18 -14c0 -4 -2.33301 -9.33301 -7 -16l-70 -86c-12 -15.333 -25.333 -23 -40 -23h-18c-14.667 0 -28 7.66699 -40 23l-70 86c-4.66699 6.66699 -7 12 -7 16c0 9.33301 6.33301 14 19 14
c19.333 0 35.666 -6 48.999 -18zM319.001 -12c-74.667 0 -137.501 26.333 -188.501 79s-76.5 115.667 -76.5 189v2c0 74 25.5 137.5 76.5 190.5s113.833 79.5 188.5 79.5c72 0 135.333 -25 190 -75c8 -6.66699 12 -15.667 12 -27c0 -10.667 -3.66699 -19.5 -11 -26.5
s-16 -10.5 -26 -10.5c-9.33301 0 -17.666 3 -24.999 9c-44.667 41.333 -91.667 62 -141 62c-52 0 -95.833 -19.333 -131.5 -58s-53.5 -86 -53.5 -142v-2c0 -56 18.167 -103.5 54.5 -142.5s81.5 -58.5 135.5 -58.5c51.333 0 99.333 21 144 63c6.66699 6.66699 14 10 22 10
c9.33301 0 17.5 -3.5 24.5 -10.5s10.5 -15.167 10.5 -24.5s-3.33301 -17.333 -10 -24c-55.333 -55.333 -120.333 -83 -195 -83z" />
    <glyph glyph-name="Dcaron" unicode="&#x10e;" horiz-adv-x="782" 
d="M376 826l59.001 53c13.333 12 29.333 18 48 18c12 0 18 -4.66699 18 -14c0 -3.33301 -2.33301 -8.66602 -7 -15.999l-70 -86c-12 -15.333 -25.333 -23 -40 -23h-18c-14.667 0 -28 7.66699 -40 23l-70 86c-4.66699 7.33301 -7 12.666 -7 15.999
c0 9.33301 6.33301 14 19 14c19.333 0 35.666 -6 48.999 -18zM99.001 40v619.999c0 10.667 3.83301 20 11.5 28s16.834 12 27.501 12h204c108.667 0 197.834 -33.167 267.501 -99.5s104.5 -149.166 104.5 -248.499v-2c0 -100 -34.833 -183.333 -104.5 -250
s-158.834 -100 -267.501 -100h-204c-10.667 0 -19.834 4 -27.501 12s-11.5 17.333 -11.5 28zM178.001 72.999h164c86.667 0 156.667 26 210 78s80 117.667 80 197v2c0 79.333 -26.667 145.333 -80 198s-123.333 79 -210 79h-164v-554z" />
    <glyph glyph-name="dcaron" unicode="&#x10f;" 
d="M642 586l9 116c2 21.333 13.333 32 34 32h15c14.667 0 22 -7 22 -21c0 -6 -1.66699 -14 -5 -24l-35 -106c-4 -13.333 -11.333 -20 -22 -20c-14 0 -20 7.66699 -18 23zM578 696l0.00195312 -661.998c0 -10.667 -3.66699 -19.834 -11 -27.501s-16.333 -11.5 -27 -11.5
s-19.834 3.83301 -27.501 11.5s-11.5 16.834 -11.5 27.501v70c-52 -76.667 -118 -115 -198 -115c-66 0 -123.667 24.333 -173 73s-74 113.667 -74 195v2c0 80.667 24.667 145.667 74 195s107 74 173 74c81.333 0 147.333 -36.667 198 -110v278
c0 11.333 3.66699 20.666 11 27.999s16.333 11 27 11c11.333 0 20.666 -3.83301 27.999 -11.5s11 -16.834 11 -27.501zM317.002 459.002c-52 0 -95.333 -18 -130 -54s-52 -84.333 -52 -145v-2c0 -59.333 17.833 -107.5 53.5 -144.5s78.5 -55.5 128.5 -55.5
s93.667 18.833 131 56.5s56 85.5 56 143.5v2c0 57.333 -18.667 104.833 -56 142.5s-81 56.5 -131 56.5z" />
    <glyph glyph-name="Dcroat" unicode="&#x110;" horiz-adv-x="812" 
d="M85 388l44 -0.000976562v272c0 10.667 3.83301 20 11.5 28s16.834 12 27.501 12h204c108.667 0 197.834 -33.167 267.501 -99.5s104.5 -149.166 104.5 -248.499v-2c0 -100 -34.833 -183.333 -104.5 -250s-158.834 -100 -267.501 -100h-204
c-10.667 0 -19.834 4 -27.501 12s-11.5 17.333 -11.5 28v276h-44c-10 0 -18.5 3.5 -25.5 10.5s-10.5 15.5 -10.5 25.5s3.5 18.5 10.5 25.5s15.5 10.5 25.5 10.5zM208 626.999v-239h179c9.33301 0 17.666 -3.5 24.999 -10.5s11 -15.5 11 -25.5s-3.66699 -18.5 -11 -25.5
s-15.666 -10.5 -24.999 -10.5h-179v-243h164c86.667 0 156.667 26 210 78s80 117.667 80 197v2c0 79.333 -26.667 145.333 -80 198s-123.333 79 -210 79h-164z" />
    <glyph glyph-name="dcroat" unicode="&#x111;" 
d="M578 696l0.00195312 -28.998h46c7.33301 0 13.833 -2.66699 19.5 -8s8.5 -11.666 8.5 -18.999s-2.83301 -13.833 -8.5 -19.5s-12.167 -8.5 -19.5 -8.5h-46v-578c0 -10.667 -3.66699 -19.834 -11 -27.501s-16.333 -11.5 -27 -11.5s-19.834 3.83301 -27.501 11.5
s-11.5 16.834 -11.5 27.501v70c-52 -76.667 -118 -115 -198 -115c-66 0 -123.667 24.333 -173 73s-74 113.667 -74 195v2c0 80.667 24.667 145.667 74 195s107 74 173 74c81.333 0 147.333 -36.667 198 -110v194h-154c-7.33301 0 -13.666 2.83301 -18.999 8.5
s-8 12.167 -8 19.5s2.66699 13.666 8 18.999s11.666 8 18.999 8h154v29c0 11.333 3.66699 20.666 11 27.999s16.333 11 27 11c11.333 0 20.666 -3.83301 27.999 -11.5s11 -16.834 11 -27.501zM317.002 459.002c-52 0 -95.333 -18 -130 -54s-52 -84.333 -52 -145v-2
c0 -59.333 17.833 -107.5 53.5 -144.5s78.5 -55.5 128.5 -55.5s93.667 18.833 131 56.5s56 85.5 56 143.5v2c0 57.333 -18.667 104.833 -56 142.5s-81 56.5 -131 56.5z" />
    <glyph glyph-name="Emacron" unicode="&#x112;" horiz-adv-x="670" 
d="M138 0c-10.667 0 -19.834 3.99902 -27.501 11.999s-11.5 17.333 -11.5 28v620c0 10.667 3.83301 20 11.5 28s16.834 12 27.501 12h435c10 0 18.5 -3.5 25.5 -10.5s10.5 -15.5 10.5 -25.5s-3.5 -18.5 -10.5 -25.5s-15.5 -10.5 -25.5 -10.5h-395v-239h350
c10 0 18.5 -3.66699 25.5 -11s10.5 -15.666 10.5 -24.999c0 -10 -3.5 -18.5 -10.5 -25.5s-15.5 -10.5 -25.5 -10.5h-350v-245h400c10 0 18.5 -3.5 25.5 -10.5s10.5 -15.5 10.5 -25.5s-3.5 -18.5 -10.5 -25.5s-15.5 -10.5 -25.5 -10.5h-440zM485 781.999h-264
c-8.66699 0 -16.167 3.16699 -22.5 9.5s-9.5 13.833 -9.5 22.5s3.16699 16.167 9.5 22.5s13.833 9.5 22.5 9.5h264c8.66699 0 16.167 -3.16699 22.5 -9.5s9.5 -13.833 9.5 -22.5s-3.16699 -16.167 -9.5 -22.5s-13.833 -9.5 -22.5 -9.5z" />
    <glyph glyph-name="emacron" unicode="&#x113;" horiz-adv-x="592" 
d="M132 287h333.001c-4 50.667 -20.333 92.667 -49 126s-67.334 50 -116.001 50c-44.667 0 -82.5 -16.667 -113.5 -50s-49.167 -75.333 -54.5 -126zM507.001 66c-54 -52 -118.995 -78.001 -194.995 -78.001c-72.667 0 -133.834 25.167 -183.501 75.5
s-74.5 114.833 -74.5 193.5v2c0 75.333 23.667 139 71 191s106.333 78 177 78c73.333 0 131.666 -25.667 174.999 -77s65 -113 65 -185c0 -10 -3.5 -18.5 -10.5 -25.5s-15.5 -10.5 -25.5 -10.5h-374c5.33301 -54.667 25.166 -97.5 59.499 -128.5s75.166 -46.5 122.499 -46.5
c56 0 105.667 20 149 60c7.33301 6 14.666 9 21.999 9c9.33301 0 17.333 -3.16699 24 -9.5s10 -14.166 10 -23.499c0 -10 -4 -18.333 -12 -25zM433.006 614.999h-264c-8.66699 0 -16.167 3.16699 -22.5 9.5s-9.5 13.833 -9.5 22.5s3.16699 16.167 9.5 22.5
s13.833 9.5 22.5 9.5h264c8.66699 0 16.167 -3.16699 22.5 -9.5s9.5 -13.833 9.5 -22.5s-3.16699 -16.167 -9.5 -22.5s-13.833 -9.5 -22.5 -9.5z" />
    <glyph glyph-name="Ebreve" unicode="&#x114;" horiz-adv-x="670" 
d="M138 0c-10.667 0 -19.834 3.99902 -27.501 11.999s-11.5 17.333 -11.5 28v620c0 10.667 3.83301 20 11.5 28s16.834 12 27.501 12h435c10 0 18.5 -3.5 25.5 -10.5s10.5 -15.5 10.5 -25.5s-3.5 -18.5 -10.5 -25.5s-15.5 -10.5 -25.5 -10.5h-395v-239h350
c10 0 18.5 -3.66699 25.5 -11s10.5 -15.666 10.5 -24.999c0 -10 -3.5 -18.5 -10.5 -25.5s-15.5 -10.5 -25.5 -10.5h-350v-245h400c10 0 18.5 -3.5 25.5 -10.5s10.5 -15.5 10.5 -25.5s-3.5 -18.5 -10.5 -25.5s-15.5 -10.5 -25.5 -10.5h-440zM353 759.999
c-61.333 0 -105.335 24.333 -132.002 73c-6.66699 11.333 -10 23 -10 35c0 8.66699 2.5 15.834 7.5 21.501s11.833 8.5 20.5 8.5c12 0 21.333 -6.33301 28 -19c14.667 -36.667 43.334 -55 86.001 -55s71.334 18.333 86.001 55c6.66699 12.667 16 19 28 19
c8.66699 0 15.5 -2.83301 20.5 -8.5s7.5 -12.834 7.5 -21.501c0 -12 -3.33301 -23.667 -10 -35c-26.667 -48.667 -70.667 -73 -132 -73z" />
    <glyph glyph-name="ebreve" unicode="&#x115;" horiz-adv-x="592" 
d="M132 287h333.001c-4 50.667 -20.333 92.667 -49 126s-67.334 50 -116.001 50c-44.667 0 -82.5 -16.667 -113.5 -50s-49.167 -75.333 -54.5 -126zM507.001 66c-54 -52 -118.995 -78.001 -194.995 -78.001c-72.667 0 -133.834 25.167 -183.501 75.5
s-74.5 114.833 -74.5 193.5v2c0 75.333 23.667 139 71 191s106.333 78 177 78c73.333 0 131.666 -25.667 174.999 -77s65 -113 65 -185c0 -10 -3.5 -18.5 -10.5 -25.5s-15.5 -10.5 -25.5 -10.5h-374c5.33301 -54.667 25.166 -97.5 59.499 -128.5s75.166 -46.5 122.499 -46.5
c56 0 105.667 20 149 60c7.33301 6 14.666 9 21.999 9c9.33301 0 17.333 -3.16699 24 -9.5s10 -14.166 10 -23.499c0 -10 -4 -18.333 -12 -25zM301.006 592.999c-61.333 0 -105.335 24.333 -132.002 73c-6.66699 11.333 -10 23 -10 35c0 8.66699 2.5 15.834 7.5 21.501
s11.833 8.5 20.5 8.5c12 0 21.333 -6.33301 28 -19c14.667 -36.667 43.334 -55 86.001 -55s71.334 18.333 86.001 55c6.66699 12.667 16 19 28 19c8.66699 0 15.5 -2.83301 20.5 -8.5s7.5 -12.834 7.5 -21.501c0 -12 -3.33301 -23.667 -10 -35
c-26.667 -48.667 -70.667 -73 -132 -73z" />
    <glyph glyph-name="Edotaccent" unicode="&#x116;" horiz-adv-x="670" 
d="M138 0c-10.667 0 -19.834 3.99902 -27.501 11.999s-11.5 17.333 -11.5 28v620c0 10.667 3.83301 20 11.5 28s16.834 12 27.501 12h435c10 0 18.5 -3.5 25.5 -10.5s10.5 -15.5 10.5 -25.5s-3.5 -18.5 -10.5 -25.5s-15.5 -10.5 -25.5 -10.5h-395v-239h350
c10 0 18.5 -3.66699 25.5 -11s10.5 -15.666 10.5 -24.999c0 -10 -3.5 -18.5 -10.5 -25.5s-15.5 -10.5 -25.5 -10.5h-350v-245h400c10 0 18.5 -3.5 25.5 -10.5s10.5 -15.5 10.5 -25.5s-3.5 -18.5 -10.5 -25.5s-15.5 -10.5 -25.5 -10.5h-440zM401 816.999l-0.00195312 -14
c0 -13.333 -4.66699 -24.333 -14 -33s-20.666 -13 -33.999 -13s-24.666 4.33301 -33.999 13s-14 19.667 -14 33v14c0 13.333 4.5 24.166 13.5 32.499s20.5 12.5 34.5 12.5s25.5 -4.16699 34.5 -12.5s13.5 -19.166 13.5 -32.499z" />
    <glyph glyph-name="edotaccent" unicode="&#x117;" horiz-adv-x="592" 
d="M132 287h333.001c-4 50.667 -20.333 92.667 -49 126s-67.334 50 -116.001 50c-44.667 0 -82.5 -16.667 -113.5 -50s-49.167 -75.333 -54.5 -126zM507.001 66c-54 -52 -118.995 -78.001 -194.995 -78.001c-72.667 0 -133.834 25.167 -183.501 75.5
s-74.5 114.833 -74.5 193.5v2c0 75.333 23.667 139 71 191s106.333 78 177 78c73.333 0 131.666 -25.667 174.999 -77s65 -113 65 -185c0 -10 -3.5 -18.5 -10.5 -25.5s-15.5 -10.5 -25.5 -10.5h-374c5.33301 -54.667 25.166 -97.5 59.499 -128.5s75.166 -46.5 122.499 -46.5
c56 0 105.667 20 149 60c7.33301 6 14.666 9 21.999 9c9.33301 0 17.333 -3.16699 24 -9.5s10 -14.166 10 -23.499c0 -10 -4 -18.333 -12 -25zM349.006 649.999l-0.00195312 -14c0 -13.333 -4.66699 -24.333 -14 -33s-20.666 -13 -33.999 -13s-24.666 4.33301 -33.999 13
s-14 19.667 -14 33v14c0 13.333 4.5 24.166 13.5 32.499s20.5 12.5 34.5 12.5s25.5 -4.16699 34.5 -12.5s13.5 -19.166 13.5 -32.499z" />
    <glyph glyph-name="Eogonek" unicode="&#x118;" horiz-adv-x="670" 
d="M138 0c-10.667 0 -19.834 3.99707 -27.501 11.9971s-11.5 17.333 -11.5 28v620c0 10.667 3.83301 20 11.5 28s16.834 12 27.501 12h435c10 0 18.5 -3.5 25.5 -10.5s10.5 -15.5 10.5 -25.5s-3.5 -18.5 -10.5 -25.5s-15.5 -10.5 -25.5 -10.5h-395v-239h350
c10 0 18.5 -3.66699 25.5 -11s10.5 -15.666 10.5 -24.999c0 -10 -3.5 -18.5 -10.5 -25.5s-15.5 -10.5 -25.5 -10.5h-350v-245h399c10.667 0 19.5 -3.16699 26.5 -9.5s10.5 -14.166 10.5 -23.499c0 -13.333 -7.33301 -25.666 -22 -36.999
c-20.667 -16.667 -35 -30.334 -43 -41.001s-12 -22.334 -12 -35.001c0 -22 16 -36.333 48 -43c20 -3.33301 30 -11.333 30 -24c0 -15.333 -9.33301 -23 -28 -23c-15.333 0 -31 1.83301 -47 5.5s-31.667 11.834 -47 24.501s-23 29.334 -23 50.001c0 27.333 17 55.333 51 84
h-383z" />
    <glyph glyph-name="eogonek" unicode="&#x119;" horiz-adv-x="592" 
d="M542 266c0 -10 -3.49707 -18.501 -10.4971 -25.501s-15.5 -10.5 -25.5 -10.5h-374c5.33301 -54.667 25.166 -97.5 59.499 -128.5s75.166 -46.5 122.499 -46.5c56 0 105.667 20 149 60c7.33301 6 14.666 9 21.999 9c9.33301 0 17.333 -3.16699 24 -9.5
s10 -14.166 10 -23.499c0 -10 -4 -18.333 -12 -25c-4 -4 -17.333 -16 -40 -36c-43.333 -37.333 -65 -69.666 -65 -96.999c0 -26.667 16.667 -43.334 50 -50.001c20 -3.33301 30 -11.333 30 -24c0 -15.333 -9.33301 -23 -28 -23c-31.333 0 -58.666 7 -81.999 21
s-35 35 -35 63c0 25.333 12 50 36 74c-19.333 -4 -39.666 -6 -60.999 -6c-72.667 0 -133.834 25.167 -183.501 75.5s-74.5 114.833 -74.5 193.5v2c0 75.333 23.667 139 71 191s106.333 78 177 78c73.333 0 131.666 -25.667 174.999 -77s65 -113 65 -185zM132.003 286.999
h333.001c-4 50.667 -20.333 92.667 -49 126s-67.334 50 -116.001 50c-44.667 0 -82.5 -16.667 -113.5 -50s-49.167 -75.333 -54.5 -126z" />
    <glyph glyph-name="Ecaron" unicode="&#x11a;" horiz-adv-x="670" 
d="M354 826l59.001 53c13.333 12 29.333 18 48 18c12 0 18 -4.66699 18 -14c0 -3.33301 -2.33301 -8.66602 -7 -15.999l-70 -86c-12 -15.333 -25.333 -23 -40 -23h-18c-14.667 0 -28 7.66699 -40 23l-70 86c-4.66699 7.33301 -7 12.666 -7 15.999
c0 9.33301 6.33301 14 19 14c19.333 0 35.666 -6 48.999 -18zM138.001 0c-10.667 0 -19.834 3.99902 -27.501 11.999s-11.5 17.333 -11.5 28v620c0 10.667 3.83301 20 11.5 28s16.834 12 27.501 12h435c10 0 18.5 -3.5 25.5 -10.5s10.5 -15.5 10.5 -25.5
s-3.5 -18.5 -10.5 -25.5s-15.5 -10.5 -25.5 -10.5h-395v-239h350c10 0 18.5 -3.66699 25.5 -11s10.5 -15.666 10.5 -24.999c0 -10 -3.5 -18.5 -10.5 -25.5s-15.5 -10.5 -25.5 -10.5h-350v-245h400c10 0 18.5 -3.5 25.5 -10.5s10.5 -15.5 10.5 -25.5s-3.5 -18.5 -10.5 -25.5
s-15.5 -10.5 -25.5 -10.5h-440z" />
    <glyph glyph-name="ecaron" unicode="&#x11b;" horiz-adv-x="592" 
d="M302 659l59.001 53c13.333 12 29.333 18 48 18c12 0 18 -4.66699 18 -14c0 -4 -2.33301 -9.33301 -7 -16l-70 -86c-12 -15.333 -25.333 -23 -40 -23h-18c-14.667 0 -28 7.66699 -40 23l-70 86c-4.66699 6.66699 -7 12 -7 16c0 9.33301 6.33301 14 19 14
c19.333 0 35.666 -6 48.999 -18zM132.001 287h333.001c-4 50.667 -20.333 92.667 -49 126s-67.334 50 -116.001 50c-44.667 0 -82.5 -16.667 -113.5 -50s-49.167 -75.333 -54.5 -126zM507.002 66c-54 -52 -118.995 -78.001 -194.995 -78.001
c-72.667 0 -133.834 25.167 -183.501 75.5s-74.5 114.833 -74.5 193.5v2c0 75.333 23.667 139 71 191s106.333 78 177 78c73.333 0 131.666 -25.667 174.999 -77s65 -113 65 -185c0 -10 -3.5 -18.5 -10.5 -25.5s-15.5 -10.5 -25.5 -10.5h-374
c5.33301 -54.667 25.166 -97.5 59.499 -128.5s75.166 -46.5 122.499 -46.5c56 0 105.667 20 149 60c7.33301 6 14.666 9 21.999 9c9.33301 0 17.333 -3.16699 24 -9.5s10 -14.166 10 -23.499c0 -10 -4 -18.333 -12 -25z" />
    <glyph glyph-name="Gbreve" unicode="&#x11e;" horiz-adv-x="784" 
d="M424 -12c-107.333 0 -193.499 34.333 -258.499 103s-97.5 154.334 -97.5 257.001v2c0 98.667 33 183.667 99 255s150 107 252 107c91.333 0 171 -25 239 -75c10.667 -8 16 -18.667 16 -32c0 -10.667 -3.83301 -20 -11.5 -28s-16.834 -12 -27.501 -12
c-8 0 -16.333 3.33301 -25 10c-56 42.667 -120.667 64 -194 64c-76 0 -139.333 -28 -190 -84s-76 -123.667 -76 -203v-2c0 -84.667 25.167 -154.334 75.5 -209.001s117.5 -82 201.5 -82c77.333 0 144.666 23.333 201.999 70v174h-188c-9.33301 0 -17.5 3.5 -24.5 10.5
s-10.5 15.167 -10.5 24.5c0 10 3.5 18.5 10.5 25.5s15.167 10.5 24.5 10.5h225c10.667 0 19.834 -4 27.501 -12s11.5 -17.333 11.5 -28v-213c0 -20 -9 -36 -27 -48c-77.333 -56.667 -162 -85 -254 -85zM412.001 770c-61.333 0 -105.335 24.333 -132.002 73
c-6.66699 11.333 -10 23 -10 35c0 8.66699 2.5 15.834 7.5 21.501s11.833 8.5 20.5 8.5c12 0 21.333 -6.33301 28 -19c14.667 -36.667 43.334 -55 86.001 -55s71.334 18.333 86.001 55c6.66699 12.667 16 19 28 19c8.66699 0 15.5 -2.83301 20.5 -8.5
s7.5 -12.834 7.5 -21.501c0 -12 -3.33301 -23.667 -10 -35c-26.667 -48.667 -70.667 -73 -132 -73z" />
    <glyph glyph-name="gbreve" unicode="&#x11f;" 
d="M315 -162c-78 0 -150.002 20.332 -216.002 60.999c-13.333 6.66699 -20 17.334 -20 32.001c0 8.66699 3.66699 16.5 11 23.5s15.333 10.5 24 10.5c6 0 11.667 -1.66699 17 -5c56 -37.333 117 -56 183 -56c58 0 103.833 15.833 137.5 47.5s50.5 77.167 50.5 136.5v61
c-54.667 -72.667 -122.334 -109 -203.001 -109c-65.333 0 -122.166 22.5 -170.499 67.5s-72.5 103.167 -72.5 174.5v2c0 72.667 24.333 131.5 73 176.5s105.334 67.5 170.001 67.5c82.667 0 150 -34.667 202 -104v59c0 10.667 3.66699 19.834 11 27.501s16.333 11.5 27 11.5
s19.834 -3.83301 27.501 -11.5s11.5 -16.834 11.5 -27.501v-393c0 -78 -22 -139 -66 -183c-46 -46 -111.667 -69 -197 -69zM313.998 107.999c50.667 0 95 16.5 133 49.5s57 74.833 57 125.5v2c0 51.333 -18.833 93.333 -56.5 126s-82.167 49 -133.5 49
c-50 0 -92.333 -16 -127 -48s-52 -74 -52 -126v-2c0 -50.667 17.5 -92.667 52.5 -126s77.167 -50 126.5 -50zM327.998 592.999c-61.333 0 -105.335 24.333 -132.002 73c-6.66699 11.333 -10 23 -10 35c0 8.66699 2.5 15.834 7.5 21.501s11.833 8.5 20.5 8.5
c12 0 21.333 -6.33301 28 -19c14.667 -36.667 43.334 -55 86.001 -55s71.334 18.333 86.001 55c6.66699 12.667 16 19 28 19c8.66699 0 15.5 -2.83301 20.5 -8.5s7.5 -12.834 7.5 -21.501c0 -12 -3.33301 -23.667 -10 -35c-26.667 -48.667 -70.667 -73 -132 -73z" />
    <glyph glyph-name="Gdotaccent" unicode="&#x120;" horiz-adv-x="784" 
d="M424 -12c-107.333 0 -193.499 34.333 -258.499 103s-97.5 154.334 -97.5 257.001v2c0 98.667 33 183.667 99 255s150 107 252 107c91.333 0 171 -25 239 -75c10.667 -8 16 -18.667 16 -32c0 -10.667 -3.83301 -20 -11.5 -28s-16.834 -12 -27.501 -12
c-8 0 -16.333 3.33301 -25 10c-56 42.667 -120.667 64 -194 64c-76 0 -139.333 -28 -190 -84s-76 -123.667 -76 -203v-2c0 -84.667 25.167 -154.334 75.5 -209.001s117.5 -82 201.5 -82c77.333 0 144.666 23.333 201.999 70v174h-188c-9.33301 0 -17.5 3.5 -24.5 10.5
s-10.5 15.167 -10.5 24.5c0 10 3.5 18.5 10.5 25.5s15.167 10.5 24.5 10.5h225c10.667 0 19.834 -4 27.501 -12s11.5 -17.333 11.5 -28v-213c0 -20 -9 -36 -27 -48c-77.333 -56.667 -162 -85 -254 -85zM460.001 827l-0.00195312 -14c0 -13.333 -4.66699 -24.333 -14 -33
s-20.666 -13 -33.999 -13s-24.666 4.33301 -33.999 13s-14 19.667 -14 33v14c0 13.333 4.5 24.166 13.5 32.499s20.5 12.5 34.5 12.5s25.5 -4.16699 34.5 -12.5s13.5 -19.166 13.5 -32.499z" />
    <glyph glyph-name="gdotaccent" unicode="&#x121;" 
d="M315 -162c-78 0 -150.002 20.332 -216.002 60.999c-13.333 6.66699 -20 17.334 -20 32.001c0 8.66699 3.66699 16.5 11 23.5s15.333 10.5 24 10.5c6 0 11.667 -1.66699 17 -5c56 -37.333 117 -56 183 -56c58 0 103.833 15.833 137.5 47.5s50.5 77.167 50.5 136.5v61
c-54.667 -72.667 -122.334 -109 -203.001 -109c-65.333 0 -122.166 22.5 -170.499 67.5s-72.5 103.167 -72.5 174.5v2c0 72.667 24.333 131.5 73 176.5s105.334 67.5 170.001 67.5c82.667 0 150 -34.667 202 -104v59c0 10.667 3.66699 19.834 11 27.501s16.333 11.5 27 11.5
s19.834 -3.83301 27.501 -11.5s11.5 -16.834 11.5 -27.501v-393c0 -78 -22 -139 -66 -183c-46 -46 -111.667 -69 -197 -69zM313.998 107.999c50.667 0 95 16.5 133 49.5s57 74.833 57 125.5v2c0 51.333 -18.833 93.333 -56.5 126s-82.167 49 -133.5 49
c-50 0 -92.333 -16 -127 -48s-52 -74 -52 -126v-2c0 -50.667 17.5 -92.667 52.5 -126s77.167 -50 126.5 -50zM375.998 649.999l-0.00195312 -14c0 -13.333 -4.66699 -24.333 -14 -33s-20.666 -13 -33.999 -13s-24.666 4.33301 -33.999 13s-14 19.667 -14 33v14
c0 13.333 4.5 24.166 13.5 32.499s20.5 12.5 34.5 12.5s25.5 -4.16699 34.5 -12.5s13.5 -19.166 13.5 -32.499z" />
    <glyph glyph-name="Gcommaaccent" unicode="&#x122;" horiz-adv-x="784" 
d="M405 -155c-26.667 4.66699 -39.998 18.333 -39.998 41v5c0 12 4.33301 22.167 13 30.5s19.667 12.5 33 12.5c14 0 25.333 -4.66699 34 -14s13 -22 13 -38v-5c0 -40.667 -10.667 -70.667 -32 -90c-8.66699 -8.66699 -20.167 -15.834 -34.5 -21.501
s-26.833 -8.5 -37.5 -8.5c-12.667 0 -19 4.66699 -19 14c0 8.66699 5.66699 14.334 17 17.001c19.333 5.33301 33.166 12.333 41.499 21s12.166 20.667 11.499 36zM424.002 -12.001c-107.333 0 -193.499 34.333 -258.499 103s-97.5 154.334 -97.5 257.001v2
c0 98.667 33 183.667 99 255s150 107 252 107c91.333 0 171 -25 239 -75c10.667 -8 16 -18.667 16 -32c0 -10.667 -3.83301 -20 -11.5 -28s-16.834 -12 -27.501 -12c-8 0 -16.333 3.33301 -25 10c-56 42.667 -120.667 64 -194 64c-76 0 -139.333 -28 -190 -84
s-76 -123.667 -76 -203v-2c0 -84.667 25.167 -154.334 75.5 -209.001s117.5 -82 201.5 -82c77.333 0 144.666 23.333 201.999 70v174h-188c-9.33301 0 -17.5 3.5 -24.5 10.5s-10.5 15.167 -10.5 24.5c0 10 3.5 18.5 10.5 25.5s15.167 10.5 24.5 10.5h225
c10.667 0 19.834 -4 27.501 -12s11.5 -17.333 11.5 -28v-213c0 -20 -9 -36 -27 -48c-77.333 -56.667 -162 -85 -254 -85z" />
    <glyph glyph-name="gcommaaccent" unicode="&#x123;" 
d="M334 679c26.667 -4.66699 39.998 -18.333 39.998 -41v-5c0 -12 -4.33301 -22.167 -13 -30.5s-19.667 -12.5 -33 -12.5c-14 0 -25.333 4.66699 -34 14s-13 22 -13 38v5c0 40.667 10.667 70.667 32 90c8.66699 8.66699 20.167 15.834 34.5 21.501s26.833 8.5 37.5 8.5
c12.667 0 19 -4.66699 19 -14c0 -8.66699 -5.66699 -14.334 -17 -17.001c-19.333 -5.33301 -33.166 -12.333 -41.499 -21s-12.166 -20.667 -11.499 -36zM314.998 -161.999c-78 0 -150.002 20.332 -216.002 60.999c-13.333 6.66699 -20 17.334 -20 32.001
c0 8.66699 3.66699 16.5 11 23.5s15.333 10.5 24 10.5c6 0 11.667 -1.66699 17 -5c56 -37.333 117 -56 183 -56c58 0 103.833 15.833 137.5 47.5s50.5 77.167 50.5 136.5v61c-54.667 -72.667 -122.334 -109 -203.001 -109c-65.333 0 -122.166 22.5 -170.499 67.5
s-72.5 103.167 -72.5 174.5v2c0 72.667 24.333 131.5 73 176.5s105.334 67.5 170.001 67.5c82.667 0 150 -34.667 202 -104v59c0 10.667 3.66699 19.834 11 27.501s16.333 11.5 27 11.5s19.834 -3.83301 27.501 -11.5s11.5 -16.834 11.5 -27.501v-393
c0 -78 -22 -139 -66 -183c-46 -46 -111.667 -69 -197 -69zM313.996 108c50.667 0 95 16.5 133 49.5s57 74.833 57 125.5v2c0 51.333 -18.833 93.333 -56.5 126s-82.167 49 -133.5 49c-50 0 -92.333 -16 -127 -48s-52 -74 -52 -126v-2c0 -50.667 17.5 -92.667 52.5 -126
s77.167 -50 126.5 -50z" />
    <glyph glyph-name="Hbar" unicode="&#x126;" horiz-adv-x="804" 
d="M120 35v476h-47c-8.66699 0 -16 2.83301 -22 8.5s-9 12.834 -9 21.501c0 8 3 15 9 21s13.333 9 22 9h47v94c0 10.667 3.83301 20 11.5 28s16.834 12 27.501 12c11.333 0 20.833 -3.83301 28.5 -11.5s11.5 -17.167 11.5 -28.5v-94h404v94
c0 11.333 3.83301 20.833 11.5 28.5s17.167 11.5 28.5 11.5c10.667 0 19.834 -4 27.501 -12s11.5 -17.333 11.5 -28v-94h49c8 0 15 -3 21 -9s9 -13 9 -21c0 -8.66699 -3 -15.834 -9 -21.501s-13 -8.5 -21 -8.5h-49v-476c0 -10.667 -3.83301 -20 -11.5 -28
s-16.834 -12 -27.501 -12c-11.333 0 -20.833 3.83301 -28.5 11.5s-11.5 17.167 -11.5 28.5v280h-404v-280c0 -11.333 -3.83301 -20.833 -11.5 -28.5s-17.167 -11.5 -28.5 -11.5c-10.667 0 -19.834 4 -27.501 12s-11.5 17.333 -11.5 28zM199 389h404v122h-404v-122z" />
    <glyph glyph-name="hbar" unicode="&#x127;" horiz-adv-x="616" 
d="M86 34v577.998h-46c-7.33301 0 -13.833 2.83301 -19.5 8.5s-8.5 12.167 -8.5 19.5s2.83301 13.666 8.5 18.999s12.167 8 19.5 8h46v29c0 10.667 3.66699 19.834 11 27.501s16.333 11.5 27 11.5s19.834 -3.83301 27.501 -11.5s11.5 -16.834 11.5 -27.501v-29h154
c7.33301 0 13.833 -2.66699 19.5 -8s8.5 -11.666 8.5 -18.999s-2.83301 -13.833 -8.5 -19.5s-12.167 -8.5 -19.5 -8.5h-154v-185c40.667 67.333 99.667 101 177 101c61.333 0 109.666 -18.833 144.999 -56.5s53 -87.834 53 -150.501v-287
c0 -10.667 -3.66699 -19.834 -11 -27.501s-16.333 -11.5 -27 -11.5s-19.834 3.83301 -27.501 11.5s-11.5 16.834 -11.5 27.501v268c0 48.667 -12.5 86.834 -37.5 114.501s-60.167 41.5 -105.5 41.5c-44.667 0 -81.667 -15 -111 -45s-44 -69 -44 -117v-262
c0 -11.333 -3.66699 -20.666 -11 -27.999s-16.333 -11 -27 -11c-11.333 0 -20.666 3.83301 -27.999 11.5s-11 16.834 -11 27.501z" />
    <glyph glyph-name="Imacron" unicode="&#x12a;" horiz-adv-x="291" 
d="M106 35v630c0 10.667 3.83301 20 11.5 28s16.834 12 27.501 12c11.333 0 20.833 -3.83301 28.5 -11.5s11.5 -17.167 11.5 -28.5v-630c0 -11.333 -3.83301 -20.833 -11.5 -28.5s-17.167 -11.5 -28.5 -11.5c-10.667 0 -19.834 4 -27.501 12s-11.5 17.333 -11.5 28zM278 782
h-264c-8.66699 0 -16.167 3.16699 -22.5 9.5s-9.5 13.833 -9.5 22.5s3.16699 16.167 9.5 22.5s13.833 9.5 22.5 9.5h264c8.66699 0 16.167 -3.16699 22.5 -9.5s9.5 -13.833 9.5 -22.5s-3.16699 -16.167 -9.5 -22.5s-13.833 -9.5 -22.5 -9.5z" />
    <glyph glyph-name="imacron" unicode="&#x12b;" horiz-adv-x="263" 
d="M93 34l0.00195312 448.996c0 10.667 3.66699 19.834 11 27.501s16.333 11.5 27 11.5c11.333 0 20.666 -3.66699 27.999 -11s11 -16.666 11 -27.999v-449c0 -11.333 -3.66699 -20.666 -11 -27.999s-16.333 -11 -27 -11s-19.834 3.83301 -27.501 11.5
s-11.5 16.834 -11.5 27.501zM264.002 614.996h-264c-8.66699 0 -16.167 3.16699 -22.5 9.5s-9.5 13.833 -9.5 22.5s3.16699 16.167 9.5 22.5s13.833 9.5 22.5 9.5h264c8.66699 0 16.167 -3.16699 22.5 -9.5s9.5 -13.833 9.5 -22.5s-3.16699 -16.167 -9.5 -22.5
s-13.833 -9.5 -22.5 -9.5z" />
    <glyph glyph-name="Ibreve" unicode="&#x12c;" horiz-adv-x="291" 
d="M106 35v630c0 10.667 3.83301 20 11.5 28s16.834 12 27.501 12c11.333 0 20.833 -3.83301 28.5 -11.5s11.5 -17.167 11.5 -28.5v-630c0 -11.333 -3.83301 -20.833 -11.5 -28.5s-17.167 -11.5 -28.5 -11.5c-10.667 0 -19.834 4 -27.501 12s-11.5 17.333 -11.5 28zM146 760
c-61.333 0 -105.335 24.333 -132.002 73c-6.66699 11.333 -10 23 -10 35c0 8.66699 2.5 15.834 7.5 21.501s11.833 8.5 20.5 8.5c12 0 21.333 -6.33301 28 -19c14.667 -36.667 43.334 -55 86.001 -55s71.334 18.333 86.001 55c6.66699 12.667 16 19 28 19
c8.66699 0 15.5 -2.83301 20.5 -8.5s7.5 -12.834 7.5 -21.501c0 -12 -3.33301 -23.667 -10 -35c-26.667 -48.667 -70.667 -73 -132 -73z" />
    <glyph glyph-name="ibreve" unicode="&#x12d;" horiz-adv-x="263" 
d="M93 34l0.00195312 448.996c0 10.667 3.66699 19.834 11 27.501s16.333 11.5 27 11.5c11.333 0 20.666 -3.66699 27.999 -11s11 -16.666 11 -27.999v-449c0 -11.333 -3.66699 -20.666 -11 -27.999s-16.333 -11 -27 -11s-19.834 3.83301 -27.501 11.5
s-11.5 16.834 -11.5 27.501zM132.002 592.996c-61.333 0 -105.335 24.333 -132.002 73c-6.66699 11.333 -10 23 -10 35c0 8.66699 2.5 15.834 7.5 21.501s11.833 8.5 20.5 8.5c12 0 21.333 -6.33301 28 -19c14.667 -36.667 43.334 -55 86.001 -55s71.334 18.333 86.001 55
c6.66699 12.667 16 19 28 19c8.66699 0 15.5 -2.83301 20.5 -8.5s7.5 -12.834 7.5 -21.501c0 -12 -3.33301 -23.667 -10 -35c-26.667 -48.667 -70.667 -73 -132 -73z" />
    <glyph glyph-name="Iogonek" unicode="&#x12e;" horiz-adv-x="291" 
d="M58 -84c0 30 18.332 60.6689 54.999 92.002c-4.66699 4 -7 9.33301 -7 16v641c0 10.667 3.83301 20 11.5 28s16.834 12 27.501 12c11.333 0 20.833 -3.83301 28.5 -11.5s11.5 -17.167 11.5 -28.5v-633c0 -12.667 -5.66699 -24.334 -17 -35.001
c-29.333 -26.667 -44 -50 -44 -70c0 -22.667 16.667 -37.334 50 -44.001c19.333 -4 29 -12 29 -24c0 -15.333 -9 -23 -27 -23c-27.333 0 -53.833 6.16699 -79.5 18.5s-38.5 32.833 -38.5 61.5z" />
    <glyph glyph-name="iogonek" unicode="&#x12f;" horiz-adv-x="263" 
d="M170 483l0.000976562 -452.002c0 -13.333 -6 -25 -18 -35c-28.667 -26 -43 -49 -43 -69c0 -23.333 16.333 -38 49 -44c19.333 -4 29 -12 29 -24c0 -15.333 -9 -23 -27 -23c-15.333 0 -31 1.83301 -47 5.5s-31.667 11.834 -47 24.501s-23 29 -23 49
c0 31.333 19.333 62.666 58 93.999c-5.33301 4 -8 9.33301 -8 16v458c0 10.667 3.66699 19.834 11 27.501s16.333 11.5 27 11.5c11.333 0 20.666 -3.66699 27.999 -11s11 -16.666 11 -27.999zM86.001 665.998v13c0 12 4.33301 21.833 13 29.5s19.334 11.5 32.001 11.5
c13.333 0 24.333 -3.83301 33 -11.5s13 -17.5 13 -29.5v-13c0 -12 -4.33301 -21.833 -13 -29.5s-19.667 -11.5 -33 -11.5c-12.667 0 -23.334 3.83301 -32.001 11.5s-13 17.5 -13 29.5z" />
    <glyph glyph-name="Idotaccent" unicode="&#x130;" horiz-adv-x="291" 
d="M106 35v630c0 10.667 3.83301 20 11.5 28s16.834 12 27.501 12c11.333 0 20.833 -3.83301 28.5 -11.5s11.5 -17.167 11.5 -28.5v-630c0 -11.333 -3.83301 -20.833 -11.5 -28.5s-17.167 -11.5 -28.5 -11.5c-10.667 0 -19.834 4 -27.501 12s-11.5 17.333 -11.5 28zM194 817
l-0.00195312 -14c0 -13.333 -4.66699 -24.333 -14 -33s-20.666 -13 -33.999 -13s-24.666 4.33301 -33.999 13s-14 19.667 -14 33v14c0 13.333 4.5 24.166 13.5 32.499s20.5 12.5 34.5 12.5s25.5 -4.16699 34.5 -12.5s13.5 -19.166 13.5 -32.499z" />
    <glyph glyph-name="dotlessi" unicode="&#x131;" horiz-adv-x="263" 
d="M93 34l0.00195312 448.996c0 10.667 3.66699 19.834 11 27.501s16.333 11.5 27 11.5c11.333 0 20.666 -3.66699 27.999 -11s11 -16.666 11 -27.999v-449c0 -11.333 -3.66699 -20.666 -11 -27.999s-16.333 -11 -27 -11s-19.834 3.83301 -27.501 11.5
s-11.5 16.834 -11.5 27.501z" />
    <glyph glyph-name="Kcommaaccent" unicode="&#x136;" horiz-adv-x="714" 
d="M356 -149c-26.667 4.66699 -39.998 18.333 -39.998 41v5c0 12 4.33301 22.167 13 30.5s19.667 12.5 33 12.5c14 0 25.333 -4.66699 34 -14s13 -22 13 -38v-5c0 -40.667 -10.667 -70.667 -32 -90c-8.66699 -8.66699 -20.167 -15.834 -34.5 -21.501
s-26.833 -8.5 -37.5 -8.5c-12.667 0 -19 4.66699 -19 14c0 8.66699 5.66699 14.334 17 17.001c19.333 5.33301 33.166 12.333 41.499 21s12.166 20.667 11.499 36zM99.002 34.999l0.000976562 630c0 10.667 3.83301 20 11.5 28s16.834 12 27.501 12s20 -3.83301 28 -11.5
s12 -17.167 12 -28.5v-383l399 409c10.667 9.33301 21 14 31 14s18.833 -4 26.5 -12s11.5 -17 11.5 -27s-4.33301 -19.333 -13 -28l-248 -246l266 -328c7.33301 -9.33301 11 -19 11 -29c0 -10.667 -4 -20 -12 -28s-17.333 -12 -28 -12c-12.667 0 -23.334 6 -32.001 18
l-261 325l-151 -151v-152c0 -11.333 -4 -20.833 -12 -28.5s-17.333 -11.5 -28 -11.5s-19.834 4 -27.501 12s-11.5 17.333 -11.5 28z" />
    <glyph glyph-name="kcommaaccent" unicode="&#x137;" horiz-adv-x="568" 
d="M292 -154c-26.667 4.66699 -39.998 18.333 -39.998 41v5c0 12 4.33301 22.167 13 30.5s19.667 12.5 33 12.5c14 0 25.333 -4.66699 34 -14s13 -22 13 -38v-5c0 -40.667 -10.667 -70.667 -32 -90c-8.66699 -8.66699 -20.167 -15.834 -34.5 -21.501
s-26.833 -8.5 -37.5 -8.5c-12.667 0 -19 4.66699 -19 14c0 8.66699 5.66699 14.334 17 17.001c19.333 5.33301 33.166 12.333 41.499 21s12.166 20.667 11.499 36zM86.002 33.999l-0.00195312 662c0 10.667 3.66699 19.834 11 27.501s16.333 11.5 27 11.5
s19.834 -3.83301 27.501 -11.5s11.5 -16.834 11.5 -27.501v-474l280 285c8.66699 10 18.667 15 30 15c10 0 18.333 -3.5 25 -10.5s10 -15.5 10 -25.5s-5 -20 -15 -30l-169 -166l185 -233c6.66699 -8.66699 10 -17.334 10 -26.001c0 -10.667 -3.5 -19.334 -10.5 -26.001
s-15.833 -10 -26.5 -10c-12.667 0 -23.667 6 -33 18l-179 226l-107 -106v-99c0 -11.333 -3.66699 -20.666 -11 -27.999s-16.333 -11 -27 -11c-11.333 0 -20.666 3.83301 -27.999 11.5s-11 16.834 -11 27.501z" />
    <glyph glyph-name="Lacute" unicode="&#x139;" horiz-adv-x="619" 
d="M152 758c-12.667 0 -18.999 4.66797 -18.999 14.001c0 5.33301 1.66699 10.333 5 15l60 91c10 15.333 22 23 36 23c12 0 24 -3.33301 36 -10s18 -13.334 18 -20.001c0 -6 -4.66699 -13.667 -14 -23l-75 -71c-12.667 -12.667 -28.334 -19 -47.001 -19zM99.001 40.001v625
c0 10.667 3.83301 20 11.5 28s16.834 12 27.501 12s20 -3.83301 28 -11.5s12 -17.167 12 -28.5v-592h363c10 0 18.5 -3.66699 25.5 -11s10.5 -16 10.5 -26s-3.5 -18.5 -10.5 -25.5s-15.5 -10.5 -25.5 -10.5h-403c-10.667 0 -19.834 4 -27.501 12s-11.5 17.333 -11.5 28z" />
    <glyph glyph-name="lacute" unicode="&#x13a;" horiz-adv-x="263" 
d="M132 779c-12.667 0 -18.999 4.66797 -18.999 14.001c0 5.33301 1.66699 10.333 5 15l60 91c10 15.333 22 23 36 23c12 0 24 -3.33301 36 -10s18 -13.334 18 -20.001c0 -6 -4.66699 -13.667 -14 -23l-75 -71c-12.667 -12.667 -28.334 -19 -47.001 -19zM93.001 34.001
v661.998c0 10.667 3.66699 19.834 11 27.501s16.333 11.5 27 11.5s19.834 -3.83301 27.501 -11.5s11.5 -16.834 11.5 -27.501v-662c0 -11.333 -3.66699 -20.666 -11 -27.999s-16.333 -11 -27 -11s-19.834 3.83301 -27.501 11.5s-11.5 16.834 -11.5 27.501z" />
    <glyph glyph-name="Lcommaaccent" unicode="&#x13b;" horiz-adv-x="619" 
d="M325 -154c-26.667 4.66699 -39.998 18.333 -39.998 41v5c0 12 4.33301 22.167 13 30.5s19.667 12.5 33 12.5c14 0 25.333 -4.66699 34 -14s13 -22 13 -38v-5c0 -40.667 -10.667 -70.667 -32 -90c-8.66699 -8.66699 -20.167 -15.834 -34.5 -21.501
s-26.833 -8.5 -37.5 -8.5c-12.667 0 -19 4.66699 -19 14c0 8.66699 5.66699 14.334 17 17.001c19.333 5.33301 33.166 12.333 41.499 21s12.166 20.667 11.499 36zM99.002 39.999v625c0 10.667 3.83301 20 11.5 28s16.834 12 27.501 12s20 -3.83301 28 -11.5
s12 -17.167 12 -28.5v-592h363c10 0 18.5 -3.66699 25.5 -11s10.5 -16 10.5 -26s-3.5 -18.5 -10.5 -25.5s-15.5 -10.5 -25.5 -10.5h-403c-10.667 0 -19.834 4 -27.501 12s-11.5 17.333 -11.5 28z" />
    <glyph glyph-name="lcommaaccent" unicode="&#x13c;" horiz-adv-x="263" 
d="M125 -154c-26.667 4.66699 -39.998 18.333 -39.998 41v5c0 12 4.33301 22.167 13 30.5s19.667 12.5 33 12.5c14 0 25.333 -4.66699 34 -14s13 -22 13 -38v-5c0 -40.667 -10.667 -70.667 -32 -90c-8.66699 -8.66699 -20.167 -15.834 -34.5 -21.501
s-26.833 -8.5 -37.5 -8.5c-12.667 0 -19 4.66699 -19 14c0 8.66699 5.66699 14.334 17 17.001c19.333 5.33301 33.166 12.333 41.499 21s12.166 20.667 11.499 36zM93.002 33.999v661.998c0 10.667 3.66699 19.834 11 27.501s16.333 11.5 27 11.5
s19.834 -3.83301 27.501 -11.5s11.5 -16.834 11.5 -27.501v-662c0 -11.333 -3.66699 -20.666 -11 -27.999s-16.333 -11 -27 -11s-19.834 3.83301 -27.501 11.5s-11.5 16.834 -11.5 27.501z" />
    <glyph glyph-name="Lcaron" unicode="&#x13d;" horiz-adv-x="619" 
d="M270 554l9 116c2 21.333 13.333 32 34 32h15c14.667 0 22 -7 22 -21c0 -6 -1.66699 -14 -5 -24l-35 -106c-4 -13.333 -11.333 -20 -22 -20c-14 0 -20 7.66699 -18 23zM99 40v625c0 10.667 3.83301 20 11.5 28s16.834 12 27.501 12s20 -3.83301 28 -11.5
s12 -17.167 12 -28.5v-592h363c10 0 18.5 -3.66699 25.5 -11s10.5 -16 10.5 -26s-3.5 -18.5 -10.5 -25.5s-15.5 -10.5 -25.5 -10.5h-403c-10.667 0 -19.834 4 -27.501 12s-11.5 17.333 -11.5 28z" />
    <glyph glyph-name="lcaron" unicode="&#x13e;" horiz-adv-x="263" 
d="M236 585l9 116c2 21.333 13.333 32 34 32h15c14.667 0 22 -7 22 -21c0 -6 -1.66699 -14 -5 -24l-35 -106c-4 -13.333 -11.333 -20 -22 -20c-14 0 -20 7.66699 -18 23zM93 34v661.998c0 10.667 3.66699 19.834 11 27.501s16.333 11.5 27 11.5
s19.834 -3.83301 27.501 -11.5s11.5 -16.834 11.5 -27.501v-662c0 -11.333 -3.66699 -20.666 -11 -27.999s-16.333 -11 -27 -11s-19.834 3.83301 -27.501 11.5s-11.5 16.834 -11.5 27.501z" />
    <glyph glyph-name="Ldot" unicode="&#x13f;" horiz-adv-x="619" 
d="M99 40v625c0 10.667 3.83301 20 11.5 28s16.834 12 27.501 12s20 -3.83301 28 -11.5s12 -17.167 12 -28.5v-592h363c10 0 18.5 -3.66699 25.5 -11s10.5 -16 10.5 -26s-3.5 -18.5 -10.5 -25.5s-15.5 -10.5 -25.5 -10.5h-403c-10.667 0 -19.834 4 -27.501 12
s-11.5 17.333 -11.5 28zM512 376l-0.00195312 -14c0 -13.333 -4.66699 -24.333 -14 -33s-20.666 -13 -33.999 -13s-24.666 4.33301 -33.999 13s-14 19.667 -14 33v14c0 13.333 4.5 24.166 13.5 32.499s20.5 12.5 34.5 12.5s25.5 -4.16699 34.5 -12.5
s13.5 -19.166 13.5 -32.499z" />
    <glyph glyph-name="ldot" unicode="&#x140;" horiz-adv-x="331" 
d="M341 376v-14c0 -12 -4.16699 -22.333 -12.5 -31s-18.5 -13 -30.5 -13s-22.167 4.33301 -30.5 13s-12.5 19 -12.5 31v14c0 12 4.16699 22.333 12.5 31s18.5 13 30.5 13s22.167 -4.33301 30.5 -13s12.5 -19 12.5 -31zM93 34v661.998c0 10.667 3.66699 19.834 11 27.501
s16.333 11.5 27 11.5s19.834 -3.83301 27.501 -11.5s11.5 -16.834 11.5 -27.501v-662c0 -11.333 -3.66699 -20.666 -11 -27.999s-16.333 -11 -27 -11s-19.834 3.83301 -27.501 11.5s-11.5 16.834 -11.5 27.501z" />
    <glyph glyph-name="Lslash" unicode="&#x141;" horiz-adv-x="649" 
d="M402 385l-195.001 -60v-252h364c10 0 18.5 -3.66699 25.5 -11s10.5 -16 10.5 -26s-3.5 -18.5 -10.5 -25.5s-15.5 -10.5 -25.5 -10.5h-403c-10.667 0 -19.834 4 -27.501 12s-11.5 17.333 -11.5 28v262l-29 -9c-5.33301 -2 -11 -3 -17 -3
c-9.33301 0 -17.333 3.33301 -24 10s-10 15 -10 25c0 16.667 8.66699 28 26 34l54 16v290c0 11.333 3.83301 20.833 11.5 28.5s16.834 11.5 27.501 11.5s19.834 -3.83301 27.501 -11.5s11.5 -17.167 11.5 -28.5v-266l169 52c10 2 15.667 3 17 3c10 0 18.333 -3.5 25 -10.5
s10 -15.5 10 -25.5c0 -17.333 -8.66699 -28.333 -26 -33z" />
    <glyph glyph-name="lslash" unicode="&#x142;" horiz-adv-x="323" 
d="M256 361l-56.0029 -17.001v-310c0 -11.333 -3.66699 -20.666 -11 -27.999s-16.333 -11 -27 -11s-19.667 3.66699 -27 11s-11 16.666 -11 27.999v287l-31 -9c-5.33301 -2 -10.666 -3 -15.999 -3c-10 0 -18.333 3.33301 -25 10s-10 15 -10 25c0 16.667 8.66699 28 26 34
c16.667 4.66699 35.334 10.334 56.001 17.001v301c0 10.667 3.5 19.834 10.5 27.501s15.833 11.5 26.5 11.5s19.834 -3.83301 27.501 -11.5s11.5 -16.834 11.5 -27.501v-278l30 9c5.33301 2 11 3 17 3c9.33301 0 17.333 -3.33301 24 -10s10 -15 10 -25
c0 -16.667 -8.33301 -28 -25 -34z" />
    <glyph glyph-name="Nacute" unicode="&#x143;" horiz-adv-x="790" 
d="M392 758c-12.667 0 -18.999 4.66797 -18.999 14.001c0 5.33301 1.66699 10.333 5 15l60 91c10 15.333 22 23 36 23c12 0 24 -3.33301 36 -10s18 -13.334 18 -20.001c0 -6 -4.66699 -13.667 -14 -23l-75 -71c-12.667 -12.667 -28.334 -19 -47.001 -19zM99.001 34.001
v629.999c0 10.667 3.83301 19.834 11.5 27.501s16.834 11.5 27.501 11.5h11c14.667 0 28 -7.66699 40 -23l425 -542v528c0 10.667 3.83301 19.834 11.5 27.501s16.834 11.5 27.501 11.5s19.667 -3.83301 27 -11.5s11 -16.834 11 -27.501v-632
c0 -10.667 -3.33301 -19.5 -10 -26.5s-15.334 -10.5 -26.001 -10.5h-4c-13.333 0 -27 8 -41 24l-434 555v-542c0 -10.667 -3.83301 -19.834 -11.5 -27.501s-16.834 -11.5 -27.501 -11.5s-19.667 3.83301 -27 11.5s-11 16.834 -11 27.501z" />
    <glyph glyph-name="nacute" unicode="&#x144;" horiz-adv-x="616" 
d="M309 591c-12.667 0 -18.999 4.66797 -18.999 14.001c0 5.33301 1.66699 10.333 5 15l60 91c10 15.333 22 23 36 23c12 0 24 -3.33301 36 -10s18 -13.334 18 -20.001c0 -6 -4.66699 -13.667 -14 -23l-75 -71c-12.667 -12.667 -28.334 -19 -47.001 -19zM86.001 34.001
v448.996c0 10.667 3.66699 19.834 11 27.501s16.333 11.5 27 11.5s19.834 -3.66699 27.501 -11s11.5 -16.666 11.5 -27.999v-56c40.667 67.333 99.667 101 177 101c61.333 0 109.666 -18.833 144.999 -56.5s53 -87.834 53 -150.501v-287
c0 -10.667 -3.66699 -19.834 -11 -27.501s-16.333 -11.5 -27 -11.5s-19.834 3.83301 -27.501 11.5s-11.5 16.834 -11.5 27.501v268c0 48.667 -12.5 86.834 -37.5 114.501s-60.167 41.5 -105.5 41.5c-44.667 0 -81.667 -15 -111 -45s-44 -69 -44 -117v-262
c0 -11.333 -3.66699 -20.666 -11 -27.999s-16.333 -11 -27 -11c-11.333 0 -20.666 3.83301 -27.999 11.5s-11 16.834 -11 27.501z" />
    <glyph glyph-name="Ncommaaccent" unicode="&#x145;" horiz-adv-x="790" 
d="M388 -149c-26.667 4.66699 -39.998 18.333 -39.998 41v5c0 12 4.33301 22.167 13 30.5s19.667 12.5 33 12.5c14 0 25.333 -4.66699 34 -14s13 -22 13 -38v-5c0 -40.667 -10.667 -70.667 -32 -90c-8.66699 -8.66699 -20.167 -15.834 -34.5 -21.501
s-26.833 -8.5 -37.5 -8.5c-12.667 0 -19 4.66699 -19 14c0 8.66699 5.66699 14.334 17 17.001c19.333 5.33301 33.166 12.333 41.499 21s12.166 20.667 11.499 36zM99.002 33.999v629.999c0 10.667 3.83301 19.834 11.5 27.501s16.834 11.5 27.501 11.5h11
c14.667 0 28 -7.66699 40 -23l425 -542v528c0 10.667 3.83301 19.834 11.5 27.501s16.834 11.5 27.501 11.5s19.667 -3.83301 27 -11.5s11 -16.834 11 -27.501v-632c0 -10.667 -3.33301 -19.5 -10 -26.5s-15.334 -10.5 -26.001 -10.5h-4c-13.333 0 -27 8 -41 24l-434 555
v-542c0 -10.667 -3.83301 -19.834 -11.5 -27.501s-16.834 -11.5 -27.501 -11.5s-19.667 3.83301 -27 11.5s-11 16.834 -11 27.501z" />
    <glyph glyph-name="ncommaaccent" unicode="&#x146;" horiz-adv-x="616" 
d="M304 -154c-26.667 4.66699 -39.998 18.333 -39.998 41v5c0 12 4.33301 22.167 13 30.5s19.667 12.5 33 12.5c14 0 25.333 -4.66699 34 -14s13 -22 13 -38v-5c0 -40.667 -10.667 -70.667 -32 -90c-8.66699 -8.66699 -20.167 -15.834 -34.5 -21.501
s-26.833 -8.5 -37.5 -8.5c-12.667 0 -19 4.66699 -19 14c0 8.66699 5.66699 14.334 17 17.001c19.333 5.33301 33.166 12.333 41.499 21s12.166 20.667 11.499 36zM86.002 33.999v448.996c0 10.667 3.66699 19.834 11 27.501s16.333 11.5 27 11.5
s19.834 -3.66699 27.501 -11s11.5 -16.666 11.5 -27.999v-56c40.667 67.333 99.667 101 177 101c61.333 0 109.666 -18.833 144.999 -56.5s53 -87.834 53 -150.501v-287c0 -10.667 -3.66699 -19.834 -11 -27.501s-16.333 -11.5 -27 -11.5s-19.834 3.83301 -27.501 11.5
s-11.5 16.834 -11.5 27.501v268c0 48.667 -12.5 86.834 -37.5 114.501s-60.167 41.5 -105.5 41.5c-44.667 0 -81.667 -15 -111 -45s-44 -69 -44 -117v-262c0 -11.333 -3.66699 -20.666 -11 -27.999s-16.333 -11 -27 -11c-11.333 0 -20.666 3.83301 -27.999 11.5
s-11 16.834 -11 27.501z" />
    <glyph glyph-name="Ncaron" unicode="&#x147;" horiz-adv-x="790" 
d="M396 826l59.001 53c13.333 12 29.333 18 48 18c12 0 18 -4.66699 18 -14c0 -3.33301 -2.33301 -8.66602 -7 -15.999l-70 -86c-12 -15.333 -25.333 -23 -40 -23h-18c-14.667 0 -28 7.66699 -40 23l-70 86c-4.66699 7.33301 -7 12.666 -7 15.999
c0 9.33301 6.33301 14 19 14c19.333 0 35.666 -6 48.999 -18zM99.001 34v629.999c0 10.667 3.83301 19.834 11.5 27.501s16.834 11.5 27.501 11.5h11c14.667 0 28 -7.66699 40 -23l425 -542v528c0 10.667 3.83301 19.834 11.5 27.501s16.834 11.5 27.501 11.5
s19.667 -3.83301 27 -11.5s11 -16.834 11 -27.501v-632c0 -10.667 -3.33301 -19.5 -10 -26.5s-15.334 -10.5 -26.001 -10.5h-4c-13.333 0 -27 8 -41 24l-434 555v-542c0 -10.667 -3.83301 -19.834 -11.5 -27.501s-16.834 -11.5 -27.501 -11.5s-19.667 3.83301 -27 11.5
s-11 16.834 -11 27.501z" />
    <glyph glyph-name="ncaron" unicode="&#x148;" horiz-adv-x="616" 
d="M312 659l59.001 53c13.333 12 29.333 18 48 18c12 0 18 -4.66699 18 -14c0 -4 -2.33301 -9.33301 -7 -16l-70 -86c-12 -15.333 -25.333 -23 -40 -23h-18c-14.667 0 -28 7.66699 -40 23l-70 86c-4.66699 6.66699 -7 12 -7 16c0 9.33301 6.33301 14 19 14
c19.333 0 35.666 -6 48.999 -18zM86.001 34v448.996c0 10.667 3.66699 19.834 11 27.501s16.333 11.5 27 11.5s19.834 -3.66699 27.501 -11s11.5 -16.666 11.5 -27.999v-56c40.667 67.333 99.667 101 177 101c61.333 0 109.666 -18.833 144.999 -56.5
s53 -87.834 53 -150.501v-287c0 -10.667 -3.66699 -19.834 -11 -27.501s-16.333 -11.5 -27 -11.5s-19.834 3.83301 -27.501 11.5s-11.5 16.834 -11.5 27.501v268c0 48.667 -12.5 86.834 -37.5 114.501s-60.167 41.5 -105.5 41.5c-44.667 0 -81.667 -15 -111 -45
s-44 -69 -44 -117v-262c0 -11.333 -3.66699 -20.666 -11 -27.999s-16.333 -11 -27 -11c-11.333 0 -20.666 3.83301 -27.999 11.5s-11 16.834 -11 27.501z" />
    <glyph glyph-name="Omacron" unicode="&#x14c;" horiz-adv-x="850" 
d="M557 792h-264c-8.66699 0 -16.167 3.16699 -22.5 9.5s-9.5 13.833 -9.5 22.5s3.16699 16.167 9.5 22.5s13.833 9.5 22.5 9.5h264c8.66699 0 16.167 -3.16699 22.5 -9.5s9.5 -13.833 9.5 -22.5s-3.16699 -16.167 -9.5 -22.5s-13.833 -9.5 -22.5 -9.5zM424 -12
c-104 0 -189.333 35.167 -256 105.5s-100 155.166 -100 254.499v2c0 99.333 33.667 184.5 101 255.5s153 106.5 257 106.5s189.333 -35.167 256 -105.5s100 -155.166 100 -254.499v-2c0 -99.333 -33.667 -184.5 -101 -255.5s-153 -106.5 -257 -106.5zM426 61
c79.333 0 144.833 27.667 196.5 83s77.5 123.333 77.5 204v2c0 80.667 -26.167 149 -78.5 205s-118.166 84 -197.499 84s-144.833 -27.667 -196.5 -83s-77.5 -123.333 -77.5 -204v-2c0 -80.667 26.167 -149 78.5 -205s118.166 -84 197.499 -84z" />
    <glyph glyph-name="omacron" unicode="&#x14d;" horiz-adv-x="646" 
d="M455 615h-264c-8.66699 0 -16.167 3.16699 -22.5 9.5s-9.5 13.833 -9.5 22.5s3.16699 16.167 9.5 22.5s13.833 9.5 22.5 9.5h264c8.66699 0 16.167 -3.16699 22.5 -9.5s9.5 -13.833 9.5 -22.5s-3.16699 -16.167 -9.5 -22.5s-13.833 -9.5 -22.5 -9.5zM322 -12
c-76.667 0 -140.501 26.167 -191.501 78.5s-76.5 115.5 -76.5 189.5v2c0 74 25.833 137.5 77.5 190.5s115.834 79.5 192.501 79.5s140.667 -26.167 192 -78.5s77 -115.5 77 -189.5v-2c0 -74 -26 -137.5 -78 -190.5s-116.333 -79.5 -193 -79.5zM323.999 57
c55.333 0 100.834 19.333 136.501 58s53.5 85.667 53.5 141v2c0 56 -18.5 103.667 -55.5 143s-82.5 59 -136.5 59c-54.667 0 -99.834 -19.5 -135.501 -58.5s-53.5 -86.167 -53.5 -141.5v-2c0 -56 18.333 -103.5 55 -142.5s82 -58.5 136 -58.5z" />
    <glyph glyph-name="Obreve" unicode="&#x14e;" horiz-adv-x="850" 
d="M424 -12c-104 0 -189.333 35.167 -256 105.5s-100 155.166 -100 254.499v2c0 99.333 33.667 184.5 101 255.5s153 106.5 257 106.5s189.333 -35.167 256 -105.5s100 -155.166 100 -254.499v-2c0 -99.333 -33.667 -184.5 -101 -255.5s-153 -106.5 -257 -106.5zM426 61
c79.333 0 144.833 27.667 196.5 83s77.5 123.333 77.5 204v2c0 80.667 -26.167 149 -78.5 205s-118.166 84 -197.499 84s-144.833 -27.667 -196.5 -83s-77.5 -123.333 -77.5 -204v-2c0 -80.667 26.167 -149 78.5 -205s118.166 -84 197.499 -84zM425 770
c-61.333 0 -105.335 24.333 -132.002 73c-6.66699 11.333 -10 23 -10 35c0 8.66699 2.5 15.834 7.5 21.501s11.833 8.5 20.5 8.5c12 0 21.333 -6.33301 28 -19c14.667 -36.667 43.334 -55 86.001 -55s71.334 18.333 86.001 55c6.66699 12.667 16 19 28 19
c8.66699 0 15.5 -2.83301 20.5 -8.5s7.5 -12.834 7.5 -21.501c0 -12 -3.33301 -23.667 -10 -35c-26.667 -48.667 -70.667 -73 -132 -73z" />
    <glyph glyph-name="obreve" unicode="&#x14f;" horiz-adv-x="646" 
d="M322 -12c-76.667 0 -140.501 26.167 -191.501 78.5s-76.5 115.5 -76.5 189.5v2c0 74 25.833 137.5 77.5 190.5s115.834 79.5 192.501 79.5s140.667 -26.167 192 -78.5s77 -115.5 77 -189.5v-2c0 -74 -26 -137.5 -78 -190.5s-116.333 -79.5 -193 -79.5zM323.999 57
c55.333 0 100.834 19.333 136.501 58s53.5 85.667 53.5 141v2c0 56 -18.5 103.667 -55.5 143s-82.5 59 -136.5 59c-54.667 0 -99.834 -19.5 -135.501 -58.5s-53.5 -86.167 -53.5 -141.5v-2c0 -56 18.333 -103.5 55 -142.5s82 -58.5 136 -58.5zM323 593
c-61.333 0 -105.335 24.333 -132.002 73c-6.66699 11.333 -10 23 -10 35c0 8.66699 2.5 15.834 7.5 21.501s11.833 8.5 20.5 8.5c12 0 21.333 -6.33301 28 -19c14.667 -36.667 43.334 -55 86.001 -55s71.334 18.333 86.001 55c6.66699 12.667 16 19 28 19
c8.66699 0 15.5 -2.83301 20.5 -8.5s7.5 -12.834 7.5 -21.501c0 -12 -3.33301 -23.667 -10 -35c-26.667 -48.667 -70.667 -73 -132 -73z" />
    <glyph glyph-name="Ohungarumlaut" unicode="&#x150;" horiz-adv-x="850" 
d="M493 768c-13.333 0 -20 4.66699 -20 14c0 4.66699 2 9.66699 6 15l61 92c9.33301 14.667 20.666 22 33.999 22c12 0 23.5 -3.16699 34.5 -9.5s16.5 -12.833 16.5 -19.5s-4 -14 -12 -22l-74 -73c-13.333 -12.667 -28.666 -19 -45.999 -19zM329 768
c-13.333 0 -20 4.66699 -20 14c0 4.66699 2 9.66699 6 15l61 92c9.33301 14.667 20.666 22 33.999 22c12 0 23.5 -3.16699 34.5 -9.5s16.5 -12.833 16.5 -19.5s-4 -14 -12 -22l-74 -73c-13.333 -12.667 -28.666 -19 -45.999 -19zM424 -12c-104 0 -189.333 35.167 -256 105.5
s-100 155.166 -100 254.499v2c0 99.333 33.667 184.5 101 255.5s153 106.5 257 106.5s189.333 -35.167 256 -105.5s100 -155.166 100 -254.499v-2c0 -99.333 -33.667 -184.5 -101 -255.5s-153 -106.5 -257 -106.5zM426 61c79.333 0 144.833 27.667 196.5 83
s77.5 123.333 77.5 204v2c0 80.667 -26.167 149 -78.5 205s-118.166 84 -197.499 84s-144.833 -27.667 -196.5 -83s-77.5 -123.333 -77.5 -204v-2c0 -80.667 26.167 -149 78.5 -205s118.166 -84 197.499 -84z" />
    <glyph glyph-name="ohungarumlaut" unicode="&#x151;" horiz-adv-x="646" 
d="M392 591c-13.333 0 -20 4.66699 -20 14c0 4.66699 2 9.66699 6 15l61 92c9.33301 14.667 20.666 22 33.999 22c12 0 23.5 -3.16699 34.5 -9.5s16.5 -12.833 16.5 -19.5s-4 -14 -12 -22l-74 -73c-13.333 -12.667 -28.666 -19 -45.999 -19zM228 591
c-13.333 0 -20 4.66699 -20 14c0 4.66699 2 9.66699 6 15l61 92c9.33301 14.667 20.666 22 33.999 22c12 0 23.5 -3.16699 34.5 -9.5s16.5 -12.833 16.5 -19.5s-4 -14 -12 -22l-74 -73c-13.333 -12.667 -28.666 -19 -45.999 -19zM322 -12
c-76.667 0 -140.501 26.167 -191.501 78.5s-76.5 115.5 -76.5 189.5v2c0 74 25.833 137.5 77.5 190.5s115.834 79.5 192.501 79.5s140.667 -26.167 192 -78.5s77 -115.5 77 -189.5v-2c0 -74 -26 -137.5 -78 -190.5s-116.333 -79.5 -193 -79.5zM323.999 57
c55.333 0 100.834 19.333 136.501 58s53.5 85.667 53.5 141v2c0 56 -18.5 103.667 -55.5 143s-82.5 59 -136.5 59c-54.667 0 -99.834 -19.5 -135.501 -58.5s-53.5 -86.167 -53.5 -141.5v-2c0 -56 18.333 -103.5 55 -142.5s82 -58.5 136 -58.5z" />
    <glyph glyph-name="OE" unicode="&#x152;" horiz-adv-x="1131" 
d="M440 0c-109.333 0 -198.668 32.999 -268.001 98.999s-104 149 -104 249v2c0 100 34.833 183.333 104.5 250s158.834 100 267.501 100h594c10 0 18.5 -3.5 25.5 -10.5s10.5 -15.5 10.5 -25.5s-3.5 -18.5 -10.5 -25.5s-15.5 -10.5 -25.5 -10.5h-377v-239h332
c10 0 18.5 -3.66699 25.5 -11s10.5 -15.666 10.5 -24.999c0 -10 -3.5 -18.5 -10.5 -25.5s-15.5 -10.5 -25.5 -10.5h-332v-245h382c10 0 18.5 -3.5 25.5 -10.5s10.5 -15.5 10.5 -25.5s-3.5 -18.5 -10.5 -25.5s-15.5 -10.5 -25.5 -10.5h-599zM439.998 72.999h138v554h-138
c-86.667 0 -156.667 -26 -210 -78s-80 -117.667 -80 -197v-2c0 -79.333 26.667 -145.333 80 -198s123.333 -79 210 -79z" />
    <glyph glyph-name="oe" unicode="&#x153;" horiz-adv-x="1049" 
d="M589 287h333c-4 50.667 -20.167 92.667 -48.5 126s-66.833 50 -115.5 50c-45.333 0 -83.5 -16.5 -114.5 -49.5s-49.167 -75.167 -54.5 -126.5zM323 57c54.667 0 99.667 19.333 135 58s53 85.667 53 141v2c0 56 -18.333 103.667 -55 143s-81.667 59 -135 59
c-54.667 0 -99.667 -19.5 -135 -58.5s-53 -86.167 -53 -141.5v-2c0 -56 18.333 -103.5 55 -142.5s81.667 -58.5 135 -58.5zM965 66c-55.333 -52 -120.332 -78.002 -194.999 -78.002c-48 0 -91.833 12.333 -131.5 37s-70.167 58.667 -91.5 102
c-21.333 -42 -52.166 -75.667 -92.499 -101s-85.5 -38 -135.5 -38c-74.667 0 -137.5 26.333 -188.5 79s-76.5 115.667 -76.5 189v2c0 74 25.833 137.5 77.5 190.5s115.167 79.5 190.5 79.5c49.333 0 94 -12.5 134 -37.5s70.667 -58.167 92 -99.5c20 42 48.667 75.333 86 100
s79.333 37 126 37c73.333 0 131.666 -25.667 174.999 -77s65 -113 65 -185c0 -10 -3.66699 -18.5 -11 -25.5s-16 -10.5 -26 -10.5h-373c4.66699 -54 24.167 -96.667 58.5 -128s75.166 -47 122.499 -47c55.333 0 105.333 20 150 60c7.33301 6 14.333 9 21 9
c9.33301 0 17.333 -3.16699 24 -9.5s10 -14.166 10 -23.499s-3.66699 -17.666 -11 -24.999z" />
    <glyph glyph-name="Racute" unicode="&#x154;" horiz-adv-x="723" 
d="M99 35v625.002c0 10.667 3.83301 20 11.5 28s16.834 12 27.501 12h262c86 0 152.333 -23.333 199 -70c36 -36 54 -82 54 -138v-2c0 -55.333 -16.833 -100.333 -50.5 -135s-79.167 -57.334 -136.5 -68.001l174 -224c8.66699 -10 13 -19.667 13 -29
c0 -10.667 -4.16699 -19.834 -12.5 -27.501s-17.5 -11.5 -27.5 -11.5c-14 0 -26.333 7 -37 21l-197 256h-201v-237c0 -11.333 -4 -20.833 -12 -28.5s-17.333 -11.5 -28 -11.5s-19.834 4 -27.501 12s-11.5 17.333 -11.5 28zM178 343.002l215.001 0.000976562
c53.333 0 96.666 13 129.999 39s50 61 50 105v2c0 43.333 -15.833 77.166 -47.5 101.499s-75.5 36.5 -131.5 36.5h-216v-284zM355.001 758.003c-12.667 0 -18.999 4.66797 -18.999 14.001c0 5.33301 1.66699 10.333 5 15l60 91c10 15.333 22 23 36 23
c12 0 24 -3.33301 36 -10s18 -13.334 18 -20.001c0 -6 -4.66699 -13.667 -14 -23l-75 -71c-12.667 -12.667 -28.334 -19 -47.001 -19z" />
    <glyph glyph-name="racute" unicode="&#x155;" horiz-adv-x="405" 
d="M213 591c-12.667 0 -18.999 4.66797 -18.999 14.001c0 5.33301 1.66699 10.333 5 15l60 91c10 15.333 22 23 36 23c12 0 24 -3.33301 36 -10s18 -13.334 18 -20.001c0 -6 -4.66699 -13.667 -14 -23l-75 -71c-12.667 -12.667 -28.334 -19 -47.001 -19zM86.001 34.001
l-0.000976562 448.997c0 10.667 3.66699 19.834 11 27.501s16.333 11.5 27 11.5s19.834 -3.66699 27.501 -11s11.5 -16.666 11.5 -27.999v-97c18.667 42 44.667 75.5 78 100.5s66.666 37.5 99.999 37.5c11.333 0 20.5 -3.66699 27.5 -11s10.5 -16.666 10.5 -27.999
c0 -10.667 -3.16699 -19.5 -9.5 -26.5s-14.5 -11.167 -24.5 -12.5c-53.333 -6.66699 -97 -30 -131 -70s-51 -95.333 -51 -166v-176c0 -10.667 -3.66699 -19.834 -11 -27.501s-16.333 -11.5 -27 -11.5c-11.333 0 -20.666 3.83301 -27.999 11.5s-11 16.834 -11 27.501z" />
    <glyph glyph-name="Rcommaaccent" unicode="&#x156;" horiz-adv-x="723" 
d="M99 35v625.002c0 10.667 3.83301 20 11.5 28s16.834 12 27.501 12h262c86 0 152.333 -23.333 199 -70c36 -36 54 -82 54 -138v-2c0 -55.333 -16.833 -100.333 -50.5 -135s-79.167 -57.334 -136.5 -68.001l174 -224c8.66699 -10 13 -19.667 13 -29
c0 -10.667 -4.16699 -19.834 -12.5 -27.501s-17.5 -11.5 -27.5 -11.5c-14 0 -26.333 7 -37 21l-197 256h-201v-237c0 -11.333 -4 -20.833 -12 -28.5s-17.333 -11.5 -28 -11.5s-19.834 4 -27.501 12s-11.5 17.333 -11.5 28zM178 343.002l215.001 0.000976562
c53.333 0 96.666 13 129.999 39s50 61 50 105v2c0 43.333 -15.833 77.166 -47.5 101.499s-75.5 36.5 -131.5 36.5h-216v-284zM351.001 -148.997c-26.667 4.66699 -39.998 18.333 -39.998 41v5c0 12 4.33301 22.167 13 30.5s19.667 12.5 33 12.5c14 0 25.333 -4.66699 34 -14
s13 -22 13 -38v-5c0 -40.667 -10.667 -70.667 -32 -90c-8.66699 -8.66699 -20.167 -15.834 -34.5 -21.501s-26.833 -8.5 -37.5 -8.5c-12.667 0 -19 4.66699 -19 14c0 8.66699 5.66699 14.334 17 17.001c19.333 5.33301 33.166 12.333 41.499 21s12.166 20.667 11.499 36z
" />
    <glyph glyph-name="rcommaaccent" unicode="&#x157;" horiz-adv-x="405" 
d="M126 -154c-26.667 4.66699 -39.998 18.333 -39.998 41v5c0 12 4.33301 22.167 13 30.5s19.667 12.5 33 12.5c14 0 25.333 -4.66699 34 -14s13 -22 13 -38v-5c0 -40.667 -10.667 -70.667 -32 -90c-8.66699 -8.66699 -20.167 -15.834 -34.5 -21.501
s-26.833 -8.5 -37.5 -8.5c-12.667 0 -19 4.66699 -19 14c0 8.66699 5.66699 14.334 17 17.001c19.333 5.33301 33.166 12.333 41.499 21s12.166 20.667 11.499 36zM86.002 33.999l-0.000976562 448.997c0 10.667 3.66699 19.834 11 27.501s16.333 11.5 27 11.5
s19.834 -3.66699 27.501 -11s11.5 -16.666 11.5 -27.999v-97c18.667 42 44.667 75.5 78 100.5s66.666 37.5 99.999 37.5c11.333 0 20.5 -3.66699 27.5 -11s10.5 -16.666 10.5 -27.999c0 -10.667 -3.16699 -19.5 -9.5 -26.5s-14.5 -11.167 -24.5 -12.5
c-53.333 -6.66699 -97 -30 -131 -70s-51 -95.333 -51 -166v-176c0 -10.667 -3.66699 -19.834 -11 -27.501s-16.333 -11.5 -27 -11.5c-11.333 0 -20.666 3.83301 -27.999 11.5s-11 16.834 -11 27.501z" />
    <glyph glyph-name="Rcaron" unicode="&#x158;" horiz-adv-x="723" 
d="M99 35v625.002c0 10.667 3.83301 20 11.5 28s16.834 12 27.501 12h262c86 0 152.333 -23.333 199 -70c36 -36 54 -82 54 -138v-2c0 -55.333 -16.833 -100.333 -50.5 -135s-79.167 -57.334 -136.5 -68.001l174 -224c8.66699 -10 13 -19.667 13 -29
c0 -10.667 -4.16699 -19.834 -12.5 -27.501s-17.5 -11.5 -27.5 -11.5c-14 0 -26.333 7 -37 21l-197 256h-201v-237c0 -11.333 -4 -20.833 -12 -28.5s-17.333 -11.5 -28 -11.5s-19.834 4 -27.501 12s-11.5 17.333 -11.5 28zM178 343.002l215.001 0.000976562
c53.333 0 96.666 13 129.999 39s50 61 50 105v2c0 43.333 -15.833 77.166 -47.5 101.499s-75.5 36.5 -131.5 36.5h-216v-284zM358.001 826.003l59.001 53c13.333 12 29.333 18 48 18c12 0 18 -4.66699 18 -14c0 -3.33301 -2.33301 -8.66602 -7 -15.999l-70 -86
c-12 -15.333 -25.333 -23 -40 -23h-18c-14.667 0 -28 7.66699 -40 23l-70 86c-4.66699 7.33301 -7 12.666 -7 15.999c0 9.33301 6.33301 14 19 14c19.333 0 35.666 -6 48.999 -18z" />
    <glyph glyph-name="rcaron" unicode="&#x159;" horiz-adv-x="405" 
d="M217 659l59.001 53c13.333 12 29.333 18 48 18c12 0 18 -4.66699 18 -14c0 -4 -2.33301 -9.33301 -7 -16l-70 -86c-12 -15.333 -25.333 -23 -40 -23h-18c-14.667 0 -28 7.66699 -40 23l-70 86c-4.66699 6.66699 -7 12 -7 16c0 9.33301 6.33301 14 19 14
c19.333 0 35.666 -6 48.999 -18zM86.001 34l-0.000976562 448.997c0 10.667 3.66699 19.834 11 27.501s16.333 11.5 27 11.5s19.834 -3.66699 27.501 -11s11.5 -16.666 11.5 -27.999v-97c18.667 42 44.667 75.5 78 100.5s66.666 37.5 99.999 37.5
c11.333 0 20.5 -3.66699 27.5 -11s10.5 -16.666 10.5 -27.999c0 -10.667 -3.16699 -19.5 -9.5 -26.5s-14.5 -11.167 -24.5 -12.5c-53.333 -6.66699 -97 -30 -131 -70s-51 -95.333 -51 -166v-176c0 -10.667 -3.66699 -19.834 -11 -27.501s-16.333 -11.5 -27 -11.5
c-11.333 0 -20.666 3.83301 -27.999 11.5s-11 16.834 -11 27.501z" />
    <glyph glyph-name="Sacute" unicode="&#x15a;" horiz-adv-x="640" 
d="M324 768c-12.667 0 -18.999 4.66797 -18.999 14.001c0 5.33301 1.66699 10.333 5 15l60 91c10 15.333 22 23 36 23c12 0 24 -3.33301 36 -10s18 -13.334 18 -20.001c0 -6 -4.66699 -13.667 -14 -23l-75 -71c-12.667 -12.667 -28.334 -19 -47.001 -19zM339.001 -9.99902
c-98 0 -186.332 31.332 -264.999 93.999c-10 6.66699 -15 16.667 -15 30c0 10.667 3.66699 19.834 11 27.501s16.333 11.5 27 11.5c10 0 18 -3 24 -9c65.333 -55.333 139 -83 221 -83c46.667 0 84.334 11.167 113.001 33.5s43 50.833 43 85.5v2c0 34 -12.667 61 -38 81
s-73.333 37.333 -144 52c-82.667 18 -142.5 42.167 -179.5 72.5s-55.5 73.5 -55.5 129.5v2c0 55.333 21.667 101 65 137s98.333 54 165 54c84.667 0 159 -23 223 -69c11.333 -8.66699 17 -19.334 17 -32.001c0 -10.667 -3.66699 -19.667 -11 -27s-16.333 -11 -27 -11
c-8.66699 0 -16.334 2.33301 -23.001 7c-56 40.667 -116.333 61 -181 61c-44.667 0 -80.667 -10.833 -108 -32.5s-41 -48.5 -41 -80.5v-2c0 -34.667 13.167 -62 39.5 -82s76.5 -38 150.5 -54c79.333 -17.333 137.166 -41.5 173.499 -72.5s54.5 -72.833 54.5 -125.5v-2
c0 -59.333 -22.333 -107.166 -67 -143.499s-102 -54.5 -172 -54.5z" />
    <glyph glyph-name="sacute" unicode="&#x15b;" horiz-adv-x="498" 
d="M250 591c-12.667 0 -18.999 4.66797 -18.999 14.001c0 5.33301 1.66699 10.333 5 15l60 91c10 15.333 22 23 36 23c12 0 24 -3.33301 36 -10s18 -13.334 18 -20.001c0 -6 -4.66699 -13.667 -14 -23l-75 -71c-12.667 -12.667 -28.334 -19 -47.001 -19zM257.001 -9.99902
c-72 0 -138.335 21.667 -199.002 65c-9.33301 6.66699 -14 16 -14 28c0 9.33301 3.33301 17.166 10 23.499s14.667 9.5 24 9.5c8 0 14.333 -2 19 -6c54 -36.667 108.667 -55 164 -55c31.333 0 57 7.5 77 22.5s30 34.833 30 59.5v2c0 23.333 -10.833 41.333 -32.5 54
s-53.834 25 -96.501 37c-26 7.33301 -46.667 14 -62 20s-32.666 14.5 -51.999 25.5s-33.666 24.833 -42.999 41.5s-14 36.334 -14 59.001v2c0 44 16.5 79.667 49.5 107s75.167 41 126.5 41c56 0 111 -14.667 165 -44c12.667 -7.33301 19 -18 19 -32
c0 -9.33301 -3.33301 -17.166 -10 -23.499s-14.667 -9.5 -24 -9.5c-6 0 -11.667 1.33301 -17 4c-46.667 26.667 -91.667 40 -135 40c-30 0 -54.167 -7 -72.5 -21s-27.5 -32 -27.5 -54v-2c0 -9.33301 2.66699 -18 8 -26s11.333 -14.667 18 -20s17.167 -11 31.5 -17
s25.833 -10.333 34.5 -13l41 -13c19.333 -6 35.5 -11.333 48.5 -16s27.667 -11.167 44 -19.5s29.333 -17.333 39 -27s17.834 -21.834 24.501 -36.501s10 -31 10 -49v-2c0 -48 -17.333 -85.833 -52 -113.5s-78.667 -41.5 -132 -41.5z" />
    </font>
</defs>
</svg>
