<?xml version="1.0" standalone="no"?>
<!DOCTYPE svg PUBLIC "-//W3C//DTD SVG 1.1//EN" "http://www.w3.org/Graphics/SVG/1.1/DTD/svg11.dtd" >
<svg xmlns="http://www.w3.org/2000/svg">
<metadata></metadata>
<defs>
<font id="verlagbold" horiz-adv-x="940" >
<font-face units-per-em="2048" ascent="1638" descent="-410" />
<missing-glyph horiz-adv-x="440" />
<glyph horiz-adv-x="0" />
<glyph horiz-adv-x="682" />
<glyph unicode=" "  horiz-adv-x="440" />
<glyph unicode="&#x09;" horiz-adv-x="440" />
<glyph unicode="&#xa0;" horiz-adv-x="440" />
<glyph unicode="!" horiz-adv-x="536" d="M135 119q0 55 38.5 94t94.5 39t94.5 -39t38.5 -94q0 -57 -38.5 -96t-94.5 -39t-94.5 39t-38.5 96zM139 1501h258l-49 -1081h-160z" />
<glyph unicode="&#x22;" horiz-adv-x="872" d="M76 973l225 450l178 -116l-303 -402zM430 950l227 453l179 -117l-304 -403z" />
<glyph unicode="#" horiz-adv-x="1255" d="M51 295l39 168h217l60 270h-217l36 168h215l66 293h182l-63 -293h217l65 293h183l-66 -293h219l-37 -168h-217l-61 -270h219l-37 -168h-219l-64 -295h-182l66 295h-219l-64 -295h-184l65 295h-219zM489 463h218l59 270h-217z" />
<glyph unicode="$" horiz-adv-x="983" d="M68 106l86 195q126 -92 243 -117l31 344q-160 62 -231.5 138.5t-71.5 197.5q0 139 101.5 238.5t267.5 111.5l12 148l137 -6l-14 -148q137 -19 245 -88l-75 -190q-88 59 -187 82l-28 -320q167 -65 239 -142.5t72 -205.5q0 -153 -106 -254.5t-271 -112.5l-12 -145l-137 6 l12 146q-162 21 -313 122zM342 885q0 -43 27 -76t84 -61l22 272q-65 -9 -99 -44.5t-34 -90.5zM535 176q68 9 104.5 47.5t36.5 102.5q0 50 -27 84.5t-88 64.5z" />
<glyph unicode="%" horiz-adv-x="1445" d="M102 907q0 129 74 218t201 89t198.5 -88.5t71.5 -218.5q0 -129 -73.5 -219t-200.5 -90q-125 0 -198 90t-73 219zM184 53l971 1176l107 -88l-971 -1178zM266 907q0 -77 29 -124.5t80 -47.5q52 0 80 47t28 125t-28 125t-80 47q-51 0 -80 -47.5t-29 -124.5zM801 289 q0 128 73 217.5t199 89.5t198 -89t72 -218t-73.5 -219t-200.5 -90q-126 0 -197 89.5t-71 219.5zM963 289q0 -78 28 -126t80 -48t80.5 48t28.5 126t-28.5 125t-80.5 47t-80 -47t-28 -125z" />
<glyph unicode="&#x26;" horiz-adv-x="1294" d="M102 319q0 106 74.5 196t200.5 147q-82 130 -82 233q0 134 102.5 232t241.5 98q147 0 237.5 -88t90.5 -201q0 -104 -73 -193t-224 -145q88 -106 213 -219q89 87 190 221l144 -119q-101 -128 -197 -227q84 -74 168 -141l-135 -144q-12 10 -81.5 66.5t-101.5 85.5 q-182 -141 -368 -141q-167 0 -283.5 91t-116.5 248zM334 332q0 -73 51.5 -118.5t134.5 -45.5q94 0 211 82q-154 145 -256 270q-64 -27 -102.5 -77t-38.5 -111zM510 899q0 -81 65 -176q99 39 145 90.5t46 106.5t-36 92t-91 37q-54 0 -91.5 -43.5t-37.5 -106.5z" />
<glyph unicode="'" horiz-adv-x="516" d="M76 973l225 450l178 -116l-303 -402z" />
<glyph unicode="(" horiz-adv-x="741" d="M106 528q0 308 140.5 580t404.5 438l107 -151q-223 -144 -336 -369.5t-113 -497.5q0 -270 113 -495t336 -369l-107 -153q-264 167 -404.5 439t-140.5 578z" />
<glyph unicode=")" horiz-adv-x="741" d="M-16 -336q223 144 336.5 369t113.5 495q0 271 -113.5 497t-336.5 370l106 151q178 -111 302.5 -276t183.5 -352.5t59 -389.5q0 -201 -59 -388t-183.5 -352t-302.5 -277z" />
<glyph unicode="*" horiz-adv-x="808" d="M80 1210l49 150l211 -84l-16 223h159l-16 -223l211 84l49 -150l-221 -55l147 -172l-129 -92l-121 190l-120 -190l-129 92l147 172z" />
<glyph unicode="+" d="M123 502v178h254v268h186v-268h254v-178h-254v-269h-186v269h-254z" />
<glyph unicode="," horiz-adv-x="505" d="M117 -227q109 96 141 213q-61 4 -98 42t-37 93q0 53 37.5 90t89.5 37q65 0 102 -46t37 -114q0 -96 -68 -197.5t-178 -156.5z" />
<glyph unicode="-" horiz-adv-x="706" d="M100 412v178h508v-178h-508z" />
<glyph unicode="." horiz-adv-x="505" d="M121 119q0 55 38.5 94t94.5 39t94.5 -39t38.5 -94q0 -57 -38.5 -96t-94.5 -39t-94.5 39t-38.5 96z" />
<glyph unicode="/" horiz-adv-x="729" d="M57 -442l490 1943h182l-487 -1943h-185z" />
<glyph unicode="0" horiz-adv-x="1150" d="M90 598q0 126 32 236.5t92.5 195.5t155.5 134.5t212 49.5t210.5 -49.5t152 -134.5t89.5 -195.5t31 -236.5q0 -125 -32 -236t-92 -196.5t-155 -135.5t-213 -50q-117 0 -210.5 50t-152 135.5t-89.5 196t-31 236.5zM330 598q0 -190 64 -307t184 -117q121 0 184 116.5 t63 307.5t-63 307.5t-184 116.5q-120 0 -184 -117t-64 -307z" />
<glyph unicode="1" horiz-adv-x="770" d="M53 1049l451 172h61v-1221h-231v932l-207 -80z" />
<glyph unicode="2" horiz-adv-x="950" d="M55 96q274 262 396 414q77 93 112 163t35 140q0 89 -53 141t-150 52q-117 0 -235 -78l-78 180q156 106 338 106q188 0 299.5 -103t111.5 -259q0 -91 -38.5 -181.5t-120.5 -197.5q-106 -132 -252 -272h434v-201h-795z" />
<glyph unicode="3" horiz-adv-x="931" d="M72 35l53 192q134 -45 256 -45q104 0 165.5 46t61.5 130q0 80 -66.5 127t-193.5 47q-89 0 -145 -12l-35 80l356 393h-434v201h754l4 -111l-359 -385q179 -19 266 -108.5t87 -227.5q0 -75 -31.5 -144.5t-88 -122t-141 -84t-184.5 -31.5q-158 0 -325 55z" />
<glyph unicode="4" horiz-adv-x="1021" d="M45 301v123l639 793h115v-728h178v-188h-178v-305h-221v305h-533zM328 489h250v312z" />
<glyph unicode="5" horiz-adv-x="993" d="M119 35l43 196q132 -51 258 -51q121 0 187.5 55t66.5 140q0 86 -66 134t-196 48q-126 0 -226 -25l-18 23v639h670v-201h-453v-243q62 4 94 4q209 0 315.5 -101t106.5 -266q0 -174 -126.5 -290.5t-336.5 -116.5q-162 0 -319 55z" />
<glyph unicode="6" horiz-adv-x="1030" d="M90 412q0 506 672 839l96 -180q-362 -169 -485 -371q83 68 202 68q166 0 264.5 -107.5t98.5 -265.5q0 -104 -48 -197.5t-146.5 -155.5t-227.5 -62q-191 0 -308.5 122.5t-117.5 309.5zM317 385q0 -95 56 -158t143 -63q92 0 144.5 63.5t52.5 155.5q0 98 -52 158.5 t-139 60.5q-97 0 -151 -57t-54 -160z" />
<glyph unicode="7" horiz-adv-x="937" d="M86 987v207h829l-528 -1194h-233l436 987h-504z" />
<glyph unicode="8" horiz-adv-x="1044" d="M113 322q0 96 49 170.5t145 117.5q-170 89 -170 269q0 142 107.5 238.5t277.5 96.5t276.5 -96.5t106.5 -238.5q0 -180 -168 -269q97 -43 146 -117.5t49 -170.5q0 -142 -114 -242t-296 -100t-295.5 99.5t-113.5 242.5zM346 348q0 -76 49 -126t127 -50t127 50t49 126 q0 77 -48.5 125.5t-127.5 48.5t-127.5 -48.5t-48.5 -125.5zM354 854q0 -74 46.5 -121t121.5 -47t121.5 47t46.5 121q0 72 -47 120t-121 48t-121 -48t-47 -120z" />
<glyph unicode="9" horiz-adv-x="1019" d="M100 805q0 79 29 152t81.5 130.5t133 92t176.5 34.5q193 0 307.5 -122t114.5 -316q0 -111 -36 -216.5t-113.5 -212.5t-210 -209.5t-314.5 -192.5l-96 174q336 170 475 366q-77 -51 -178 -51q-167 0 -268 106.5t-101 264.5zM326 819q0 -98 50 -157.5t138 -59.5 q96 0 147.5 56.5t51.5 158.5q0 94 -54 154.5t-141 60.5q-90 0 -141 -61t-51 -152z" />
<glyph unicode=":" horiz-adv-x="505" d="M121 119q0 55 38.5 94t94.5 39t94.5 -39t38.5 -94q0 -57 -38.5 -96t-94.5 -39t-94.5 39t-38.5 96zM121 657q0 54 39 94t94 40t94 -40t39 -94q0 -57 -38.5 -96t-94.5 -39t-94.5 39t-38.5 96z" />
<glyph unicode=";" horiz-adv-x="505" d="M117 -227q109 96 141 213q-61 4 -98 42t-37 93q0 53 37.5 90t89.5 37q65 0 102 -46t37 -114q0 -96 -68 -197.5t-178 -156.5zM121 657q0 54 39 94t94 40t94 -40t39 -94q0 -57 -38.5 -96t-94.5 -39t-94.5 39t-38.5 96z" />
<glyph unicode="&#x3c;" horiz-adv-x="806" d="M78 590l516 500l133 -142l-379 -360l379 -357l-133 -139z" />
<glyph unicode="=" horiz-adv-x="882" d="M123 340v172h637v-172h-637zM123 668v174h637v-174h-637z" />
<glyph unicode="&#x3e;" horiz-adv-x="806" d="M80 236l379 358l-379 358l135 138l514 -498l-514 -500z" />
<glyph unicode="?" horiz-adv-x="806" d="M47 1462q154 54 299 54q206 0 316 -100t110 -255q0 -61 -20.5 -115t-54 -94.5t-73.5 -77.5t-79.5 -72t-73 -70t-54 -79t-20.5 -92v-117h-207v148q0 77 33 144.5t80 115.5t94 92t80 93t33 100q0 80 -53.5 120.5t-153.5 40.5q-105 0 -211 -41zM158 119q0 55 39 94t94 39 q57 0 96 -38.5t39 -94.5q0 -57 -39 -96t-96 -39q-56 0 -94.5 39t-38.5 96z" />
<glyph unicode="@" horiz-adv-x="1406" d="M102 594q0 166 82.5 308t222.5 225t302 83q144 0 262 -52t190.5 -135t111 -181t38.5 -197q0 -97 -34.5 -177t-102.5 -130q-58 -43 -140 -43q-55 0 -101.5 25.5t-70.5 74.5q-84 -90 -205 -90q-81 0 -134.5 45.5t-53.5 124.5q0 72 53.5 118t141.5 46q75 0 139 -31v19 q0 59 -31 85.5t-94 26.5q-56 0 -131 -20l-17 115q86 28 175 28q128 0 185.5 -59.5t57.5 -181.5v-132q0 -49 27 -72.5t65 -23.5q42 0 72 23q37 28 58.5 86t21.5 129q0 63 -16 126t-53.5 125.5t-92 110.5t-137.5 77.5t-184 29.5q-129 0 -240 -68.5t-176.5 -185t-65.5 -252.5 q0 -104 37 -196t104.5 -161.5t172 -110t231.5 -40.5q108 0 244 47l28 -108q-166 -50 -278 -50q-149 0 -275 49t-210.5 133.5t-131.5 197t-47 239.5zM618 477q0 -35 23.5 -54.5t65.5 -19.5q58 0 96 48v63q-44 33 -96 33q-38 0 -63.5 -19.5t-25.5 -50.5z" />
<glyph unicode="A" horiz-adv-x="1406" d="M-6 0l692 1522h37l690 -1522h-270l-146 344h-594l-145 -344h-264zM487 547h426l-213 502z" />
<glyph unicode="B" horiz-adv-x="1261" d="M164 14v1471q194 28 385 28q143 0 258 -33t186 -88.5t108.5 -125t37.5 -146.5q0 -122 -62 -206.5t-200 -135.5q303 -84 303 -360q0 -85 -39.5 -162t-114 -137.5t-193 -96.5t-264.5 -36q-179 0 -405 28zM416 217q85 -10 182 -10q150 0 228.5 64t78.5 173q0 101 -87 165.5 t-247 64.5q-102 0 -155 -6v-451zM416 862q56 -6 151 -6q155 0 231 60.5t76 160.5q0 97 -71.5 156t-208.5 59q-89 0 -178 -14v-416z" />
<glyph unicode="C" horiz-adv-x="1472" d="M113 750q0 164 60.5 308t167 247t257 162t324.5 59q260 0 483 -137l-88 -218q-201 115 -399 115q-245 0 -388 -147.5t-143 -388.5q0 -239 146 -387t391 -148q99 0 208 32t201 87l78 -217q-99 -64 -227.5 -103t-261.5 -39q-234 0 -419 100.5t-287.5 277t-102.5 397.5z" />
<glyph unicode="D" horiz-adv-x="1581" d="M164 12v1475q218 24 418 24q174 0 319.5 -38.5t249.5 -107.5t176 -163t106.5 -204.5t34.5 -233.5q0 -128 -33 -242.5t-103 -212.5t-171.5 -169t-246 -111.5t-318.5 -40.5q-171 0 -432 24zM420 227q76 -12 215 -12q141 0 249 41t175 115t101 173t34 220q0 239 -151 380.5 t-431 141.5q-112 0 -192 -12v-1047z" />
<glyph unicode="E" horiz-adv-x="1216" d="M164 0v1501h915v-233h-659v-394h596v-225h-596v-416h659v-233h-915z" />
<glyph unicode="F" horiz-adv-x="1136" d="M164 0v1501h915v-233h-659v-439h579v-227h-579v-602h-256z" />
<glyph unicode="G" horiz-adv-x="1587" d="M113 750q0 171 65 317.5t174.5 246t254 156t302.5 56.5q156 0 281.5 -39.5t251.5 -116.5l-117 -205q-194 125 -403 125q-166 0 -289 -73t-184.5 -194.5t-61.5 -272.5q0 -156 71 -282t193 -195.5t269 -69.5q175 0 303 71v295h-351v226h596v-656q-252 -164 -559 -164 q-160 0 -305 56.5t-253.5 156.5t-173 246.5t-64.5 315.5z" />
<glyph unicode="H" horiz-adv-x="1529" d="M164 0v1501h256v-627h690v627h256v-1501h-256v645h-690v-645h-256z" />
<glyph unicode="I" horiz-adv-x="604" d="M174 0v1501h256v-1501h-256z" />
<glyph unicode="J" horiz-adv-x="1030" d="M29 82l96 209q55 -37 126 -59.5t140 -22.5q119 0 174.5 71.5t55.5 219.5v1001h256v-1018q0 -236 -119 -372t-363 -136q-204 0 -366 107z" />
<glyph unicode="K" horiz-adv-x="1376" d="M164 0v1501h256v-676l590 676h309l-655 -721l688 -780h-318l-614 721v-721h-256z" />
<glyph unicode="L" horiz-adv-x="1116" d="M164 0v1501h256v-1268h659v-233h-915z" />
<glyph unicode="M" horiz-adv-x="1808" d="M143 0l64 1520l39 4l665 -996l650 996l41 -4l63 -1520h-252l-20 899l-473 -717h-31l-477 719l-17 -901h-252z" />
<glyph unicode="N" horiz-adv-x="1552" d="M164 0v1522l41 8l928 -977v948h256v-1524l-29 -6l-940 992v-963h-256z" />
<glyph unicode="O" horiz-adv-x="1742" d="M113 750q0 164 59 308.5t161 247t244 161.5t302 59q214 0 386 -100.5t268.5 -278t96.5 -397.5q0 -219 -100.5 -396.5t-276 -278t-389.5 -100.5q-160 0 -300 59t-239 161.5t-155.5 246.5t-56.5 308zM387 750q0 -236 136 -391.5t349 -155.5q212 0 348 156t136 391 q0 236 -136 391t-348 155q-141 0 -252 -71t-172 -195.5t-61 -279.5z" />
<glyph unicode="P" horiz-adv-x="1226" d="M164 0v1487q200 24 381 24q151 0 270.5 -39t195.5 -108t116 -160t40 -198q0 -234 -158.5 -378.5t-439.5 -144.5q-2 0 -149 6v-489h-256zM420 715q102 -8 143 -8q167 0 252.5 78.5t85.5 211.5q0 118 -82 198.5t-231 80.5q-88 0 -168 -12v-549z" />
<glyph unicode="Q" horiz-adv-x="1742" d="M113 750q0 164 59 308.5t161 247t244 161.5t302 59q215 0 387 -100.5t268 -278t96 -397.5q0 -263 -153 -465l180 -158l-158 -182q-143 133 -190 174q-203 -144 -445 -144q-160 0 -300 59t-239 161.5t-155.5 246.5t-56.5 308zM389 750q0 -235 135.5 -391t347.5 -156 q139 0 254 78l-247 217l157 180q232 -209 244 -221q76 136 76 293q0 236 -136.5 391t-347.5 155q-212 0 -347.5 -155t-135.5 -391z" />
<glyph unicode="R" horiz-adv-x="1296" d="M166 0v1487q204 24 395 24q156 0 275.5 -36t192.5 -101t110 -149.5t37 -186.5q0 -146 -76.5 -259t-216.5 -175l393 -604h-297l-328 541q-27 -2 -80 -2q-51 0 -149 4v-543h-256zM422 758q63 -8 147 -8q165 0 250.5 72.5t85.5 203.5q0 116 -82.5 186t-228.5 70 q-111 0 -172 -12v-512z" />
<glyph unicode="S" horiz-adv-x="1099" d="M51 123l88 229q90 -65 192.5 -102t198.5 -37q112 0 170 56.5t58 140.5q0 56 -20.5 95t-83 82.5t-179.5 92.5q-191 81 -273.5 184t-82.5 242q0 82 33.5 157.5t95 134t156 93.5t208.5 35q104 0 205.5 -31t171.5 -78l-82 -225q-65 45 -147 75.5t-154 30.5q-113 0 -172 -53 t-59 -133q0 -73 58.5 -126t201.5 -116q218 -94 300.5 -194t82.5 -252q0 -91 -34.5 -172.5t-97 -143t-157 -97.5t-207.5 -36q-123 0 -245.5 40t-225.5 108z" />
<glyph unicode="T" horiz-adv-x="1310" d="M51 1268v233h1209v-233h-476v-1268h-256v1268h-477z" />
<glyph unicode="U" horiz-adv-x="1492" d="M147 575v926h256v-907q0 -191 90 -288t255 -97q164 0 254 98t90 287v907h256v-926q0 -284 -162.5 -442t-442.5 -158q-283 0 -439.5 155t-156.5 445z" />
<glyph unicode="V" horiz-adv-x="1409" d="M-6 1501h293l422 -999l419 999h285l-692 -1521h-33z" />
<glyph unicode="W" horiz-adv-x="1984" d="M10 1501h283l270 -946l418 958h29l420 -952l266 940h278l-475 -1526l-41 -4l-467 1045l-461 -1045l-38 4z" />
<glyph unicode="X" horiz-adv-x="1439" d="M41 0l524 741l-524 760h307l375 -563l379 563h299l-524 -739l524 -762h-307l-375 563l-377 -563h-301z" />
<glyph unicode="Y" horiz-adv-x="1374" d="M31 1501h293l368 -635l365 635h286l-528 -870v-631h-256v633z" />
<glyph unicode="Z" horiz-adv-x="1331" d="M61 31l797 1237h-743v233h1145l10 -31l-797 -1237h778v-233h-1179z" />
<glyph unicode="[" horiz-adv-x="659" d="M162 -442v1943h452v-178h-258v-1589h258v-176h-452z" />
<glyph unicode="\" horiz-adv-x="729" d="M0 1501h182l490 -1943h-185z" />
<glyph unicode="]" horiz-adv-x="659" d="M47 -266h256v1589h-256v178h453v-1943h-453v176z" />
<glyph unicode="^" horiz-adv-x="962" d="M143 1006l303 362h93l295 -362h-220l-133 172l-131 -172h-207z" />
<glyph unicode="_" horiz-adv-x="1064" d="M0 0v139h1065v-139h-1065z" />
<glyph unicode="`" horiz-adv-x="962" d="M268 1167l109 199l377 -276l-68 -109z" />
<glyph unicode="a" d="M61 260q0 119 87.5 195.5t230.5 76.5q73 0 125 -14t110 -41v37q0 100 -52.5 147.5t-158.5 47.5q-91 0 -217 -37l-26 174q144 45 280 45q204 0 304 -96t100 -289v-506h-221v84q-105 -100 -254 -100q-132 0 -220 74t-88 202zM281 262q0 -60 41 -93.5t116 -33.5 q108 0 176 84v109q-48 32 -86.5 45.5t-93.5 13.5q-67 0 -110 -34t-43 -91z" />
<glyph unicode="b" horiz-adv-x="1093" d="M117 0v1501h231v-704q105 94 264 94q173 0 287.5 -125t114.5 -317q0 -93 -33.5 -179t-89.5 -148.5t-133 -100t-160 -37.5q-153 0 -258 94v-78h-223zM348 268q36 -45 88 -71.5t109 -26.5q109 0 173 75t64 199q0 118 -58 190.5t-167 72.5q-123 0 -209 -89v-350z" />
<glyph unicode="c" horiz-adv-x="884" d="M74 434q0 93 34 176t96 145.5t156 99t207 36.5q153 0 293 -88l-76 -162q-112 61 -221 61q-114 0 -187 -69.5t-73 -196.5q0 -119 79 -190.5t193 -71.5t220 62l65 -164q-140 -88 -293 -88q-225 0 -359 129t-134 321z" />
<glyph unicode="d" horiz-adv-x="1087" d="M80 434q0 188 126.5 322.5t297.5 134.5q144 0 241 -78v688h232v-1501h-223v82q-104 -98 -262 -98q-183 0 -297.5 126.5t-114.5 323.5zM311 438q0 -122 61.5 -195t172.5 -73q121 0 200 98v336q-35 45 -88.5 74t-115.5 29q-101 0 -165.5 -72t-64.5 -197z" />
<glyph unicode="e" horiz-adv-x="974" d="M74 434q0 89 29.5 171t84 146t140 102t188.5 38q189 0 294 -118.5t105 -301.5q0 -73 -6 -104h-606q14 -97 78.5 -149t193.5 -52q104 0 254 47l29 -180q-179 -49 -305 -49q-120 0 -213 35t-150 97t-86.5 142.5t-29.5 175.5zM307 512h402q-8 91 -59.5 144t-137.5 53 t-139.5 -51.5t-65.5 -145.5z" />
<glyph unicode="f" horiz-adv-x="694" d="M47 686v31l162 166v204q0 205 95 317t282 112q72 0 143 -19l-27 -197q-37 9 -86 9q-94 0 -135 -49t-41 -173v-213h246v-188h-246v-686h-231v686h-162z" />
<glyph unicode="g" horiz-adv-x="1083" d="M80 426q0 192 127 328.5t301 136.5q146 0 246 -80v63h223v-919q0 -220 -104 -317t-304 -97q-140 0 -290 43l22 205q118 -41 231 -41q110 0 161.5 48t51.5 155v106q-92 -73 -235 -73q-189 0 -309.5 119.5t-120.5 322.5zM311 424q0 -114 64.5 -186t179.5 -72t190 88v362 q-82 89 -196 89q-106 0 -172 -77t-66 -204z" />
<glyph unicode="h" horiz-adv-x="1054" d="M117 0v1501h231v-768q149 158 318 158q141 0 214.5 -79.5t73.5 -213.5v-598h-233v541q0 82 -33.5 119.5t-103.5 37.5q-57 0 -120 -34t-114 -89v-575h-233z" />
<glyph unicode="i" horiz-adv-x="485" d="M109 1178q0 57 39 97t96 40t97 -40t40 -97t-40 -97.5t-97 -40.5t-96 40.5t-39 97.5zM127 0v874h233v-874h-233z" />
<glyph unicode="j" horiz-adv-x="485" d="M-117 -442l23 192q54 -8 84 -8q72 0 105.5 31.5t33.5 111.5v989h233v-991q0 -342 -329 -342q-67 0 -150 17zM111 1178q0 57 39 97t96 40t97 -40t40 -97t-40 -97.5t-97 -40.5t-96 40.5t-39 97.5z" />
<glyph unicode="k" horiz-adv-x="974" d="M117 0v1501h231v-1001l324 374h278l-387 -411l404 -463h-279l-340 414v-414h-231z" />
<glyph unicode="l" horiz-adv-x="473" d="M121 0v1501h231v-1501h-231z" />
<glyph unicode="m" horiz-adv-x="1597" d="M117 0v874h225v-145q78 80 154 121t161 41q98 0 155 -43.5t85 -124.5q151 168 334 168q131 0 198.5 -78.5t67.5 -214.5v-598h-233v547q0 76 -29.5 112.5t-93.5 36.5q-105 0 -217 -121v-575h-234v541q0 81 -29.5 119t-97.5 38q-108 0 -213 -127v-571h-233z" />
<glyph unicode="n" horiz-adv-x="1048" d="M117 0v874h225v-145q159 162 324 162q140 0 211 -79.5t71 -213.5v-598h-233v541q0 83 -32 120t-101 37q-58 0 -119.5 -33.5t-112.5 -89.5v-575h-233z" />
<glyph unicode="o" horiz-adv-x="1060" d="M74 438q0 125 54.5 227t160 164t243.5 62q205 0 330 -130.5t125 -322.5t-125 -323t-330 -131q-138 0 -243.5 62t-160 164.5t-54.5 227.5zM305 438q0 -127 61.5 -201.5t165.5 -74.5q103 0 164.5 74.5t61.5 201.5q0 126 -61.5 200.5t-164.5 74.5q-104 0 -165.5 -74.5 t-61.5 -200.5z" />
<glyph unicode="p" horiz-adv-x="1093" d="M117 -442v1316h223v-81q115 98 276 98q171 0 284.5 -126.5t113.5 -320.5q0 -192 -123.5 -326t-312.5 -134q-128 0 -230 57v-483h-231zM348 248q34 -39 88.5 -59.5t114.5 -20.5q101 0 166 74t65 200q0 117 -61 191t-162 74q-124 0 -211 -93v-366z" />
<glyph unicode="q" horiz-adv-x="1087" d="M80 426q0 128 59.5 235.5t157 168.5t209.5 61q140 0 248 -84v67h223v-1318h-232v505q-95 -77 -245 -77q-181 0 -300.5 122t-119.5 320zM311 430q0 -122 64 -191t180 -69q55 0 106.5 25t83.5 69v340q-35 45 -87 74t-113 29q-103 0 -168.5 -76.5t-65.5 -200.5z" />
<glyph unicode="r" horiz-adv-x="684" d="M117 0v874h225v-143q62 83 136.5 121.5t174.5 38.5v-229q-39 4 -74 4q-166 0 -229 -91v-575h-233z" />
<glyph unicode="s" horiz-adv-x="786" d="M47 98l90 166q59 -46 128 -74t124 -28q125 0 125 90q0 32 -31 56t-77 37.5t-100 35t-100 46.5t-77 73.5t-31 113.5q0 120 93 198.5t241 78.5q145 0 287 -82l-72 -170q-125 76 -225 76q-56 0 -85.5 -23t-29.5 -59q0 -30 31.5 -52.5t78.5 -36.5t102 -36t102 -49t78.5 -78 t31.5 -119q0 -120 -96 -199t-242 -79q-186 0 -346 114z" />
<glyph unicode="t" horiz-adv-x="694" d="M16 686v31l166 166v141l232 145v-295h243v-188h-243v-401q0 -57 25.5 -82t78.5 -25q28 0 76 10l43 -180q-113 -24 -186 -24q-130 0 -199.5 73t-69.5 240v389h-166z" />
<glyph unicode="u" horiz-adv-x="1046" d="M109 276v598h233v-540q0 -156 139 -156q121 0 226 115v581h233v-874h-225v135q-68 -68 -152 -109.5t-166 -41.5q-141 0 -214.5 79.5t-73.5 212.5z" />
<glyph unicode="v" horiz-adv-x="933" d="M-10 874h260l221 -520l221 520h252l-461 -897h-41z" />
<glyph unicode="w" horiz-adv-x="1300" d="M4 874h258l146 -491l225 494h41l231 -494l142 491h256l-338 -897h-41l-269 533l-270 -533h-41z" />
<glyph unicode="x" horiz-adv-x="937" d="M27 0l313 434l-313 440h256l190 -292l193 292h247l-309 -436l309 -438h-256l-188 291l-195 -291h-247z" />
<glyph unicode="y" horiz-adv-x="944" d="M-4 874h258l223 -555l219 555h252l-618 -1316h-232l267 530z" />
<glyph unicode="z" horiz-adv-x="868" d="M35 31l457 651h-418v192h745l10 -30l-458 -651h448v-193h-774z" />
<glyph unicode="{" horiz-adv-x="636" d="M51 446v166h47q72 0 99.5 32t27.5 101v396q0 181 99.5 278t287.5 97v-191q-98 0 -143 -46t-45 -159v-360q0 -97 -31 -144.5t-119 -87.5q88 -40 119 -87t31 -144v-358q0 -114 45 -160.5t143 -46.5v-189q-188 0 -287.5 96t-99.5 277v397q0 69 -27.5 101t-99.5 32h-47z" />
<glyph unicode="|" horiz-adv-x="546" d="M184 -442v1943h178v-1943h-178z" />
<glyph unicode="}" horiz-adv-x="636" d="M25 -268q98 0 144 46.5t46 160.5v358q0 98 29.5 144.5t117.5 86.5q-87 40 -117 87.5t-30 144.5v360q0 112 -46 158.5t-144 46.5v191q189 0 288 -97t99 -278v-396q0 -69 27.5 -101t99.5 -32h47v-166h-47q-72 0 -99.5 -32t-27.5 -101v-397q0 -181 -98.5 -277t-288.5 -96 v189z" />
<glyph unicode="~" horiz-adv-x="962" d="M139 756q44 56 103 88.5t116 32.5q69 0 136 -39q59 -37 112 -37q71 0 137 78l88 -134q-45 -55 -104 -87.5t-115 -32.5q-68 0 -135 39q-62 38 -117 38q-74 0 -139 -77z" />
<glyph unicode="&#xa1;" horiz-adv-x="536" d="M135 1384q0 56 39 95t94 39t94 -39t39 -95t-38.5 -94.5t-94.5 -38.5t-94.5 38.5t-38.5 94.5zM141 0l47 1081h162l47 -1081h-256z" />
<glyph unicode="&#xa2;" horiz-adv-x="894" d="M74 434q0 187 123 313.5t311 141.5l12 153l139 -6l-14 -151q115 -19 215 -82l-76 -166q-79 46 -153 59l-45 -524q94 3 207 66l67 -166q-134 -82 -289 -88l-12 -154l-139 6l12 162q-162 34 -260 152.5t-98 283.5zM297 436q0 -84 40.5 -147t111.5 -94l43 503 q-90 -20 -142.5 -86t-52.5 -176z" />
<glyph unicode="&#xa3;" horiz-adv-x="970" d="M76 0v205h153v287h-149v14l149 151v150q0 117 46 208t142 146.5t230 55.5q139 0 289 -89l-78 -200q-110 76 -221 76q-88 0 -132 -57.5t-44 -153.5v-111h246v-190h-246v-287h467v-205h-852z" />
<glyph unicode="&#xa5;" horiz-adv-x="1120" d="M51 1194h266l252 -432l242 432h258l-313 -508h229v-168h-303v-127h303v-162h-303v-229h-233v229h-312v162h312v127h-312v168h238z" />
<glyph unicode="&#xa7;" horiz-adv-x="974" d="M127 90l88 168q58 -45 133.5 -73.5t136.5 -28.5q125 0 125 86q0 29 -26 50t-68 35.5t-92.5 28.5t-100.5 33t-92 44t-68 68t-26 99q0 121 121 188q-74 60 -74 150q0 119 98.5 199t247.5 80q77 0 156 -23.5t139 -60.5l-71 -168q-126 75 -232 75q-56 0 -89.5 -24.5 t-33.5 -59.5q0 -29 35 -51.5t88 -36.5t114.5 -36t114.5 -48t88 -74t35 -112q0 -116 -118 -186q73 -57 73 -158q0 -118 -98 -197.5t-252 -79.5q-192 0 -352 113zM350 625q0 -14 5.5 -26t18.5 -22t27 -17.5t37.5 -16.5t42.5 -15t51 -16t54 -18q71 19 71 81q0 41 -48.5 69.5 t-166.5 62.5q-42 -6 -67 -28.5t-25 -53.5z" />
<glyph unicode="&#xa8;" horiz-adv-x="962" d="M166 1141q0 54 38 91.5t91 37.5q54 0 91.5 -37.5t37.5 -91.5q0 -53 -37.5 -91t-91.5 -38q-53 0 -91 38t-38 91zM541 1141q0 54 37.5 91.5t91.5 37.5q53 0 90 -37.5t37 -91.5q0 -53 -37.5 -91t-89.5 -38q-54 0 -91.5 38t-37.5 91z" />
<glyph unicode="&#xa9;" horiz-adv-x="1724" d="M102 750q0 158 60 301.5t162 247.5t242.5 165.5t295.5 61.5t295.5 -61.5t242.5 -165.5t162 -247.5t60 -301.5t-60 -301.5t-162 -247t-242.5 -165t-295.5 -61.5t-295.5 61.5t-242.5 165t-162 247t-60 301.5zM240 750q0 -177 83 -327.5t226.5 -238.5t312.5 -88t312.5 88 t227 238.5t83.5 327.5q0 178 -83.5 329t-227 238.5t-312.5 87.5q-127 0 -242 -52t-198.5 -139.5t-132.5 -209t-49 -254.5zM485 756q0 170 116 281.5t298 111.5q127 0 242 -68l-49 -129q-97 56 -193 56q-116 0 -182 -68.5t-66 -183.5q0 -114 67 -182t183 -68q103 0 199 57 l47 -129q-116 -72 -248 -72q-182 0 -298 111.5t-116 282.5z" />
<glyph unicode="&#xaa;" horiz-adv-x="757" d="M63 1038q0 91 67 150t179 59q92 0 176 -41v25q0 143 -159 143q-62 0 -164 -26l-21 143q107 35 217 35q324 0 324 -301v-385h-193v63q-73 -76 -188 -76q-103 0 -170.5 56.5t-67.5 154.5zM252 1042q0 -43 28.5 -66.5t79.5 -23.5q74 0 125 58v80q-55 40 -125 40 q-47 0 -77.5 -23.5t-30.5 -64.5z" />
<glyph unicode="&#xab;" horiz-adv-x="966" d="M98 354l215 334h217l-223 -334l223 -336h-217zM453 354l215 334h217l-223 -334l223 -336h-217z" />
<glyph unicode="&#xad;" horiz-adv-x="706" d="M100 412v178h508v-178h-508z" />
<glyph unicode="&#xae;" horiz-adv-x="790" d="M47 1169q0 149 101.5 254t246.5 105q146 0 248 -105t102 -254q0 -145 -102 -249.5t-248 -104.5q-145 0 -246.5 104t-101.5 250zM113 1169q0 -122 82.5 -208.5t199.5 -86.5q118 0 200.5 87t82.5 208q0 124 -82.5 211.5t-200.5 87.5q-117 0 -199.5 -88t-82.5 -211zM276 997 v349q44 6 103 6q75 0 113 -31.5t38 -83.5q0 -33 -16.5 -61t-46.5 -41l86 -138h-88l-68 119q-8 -2 -18 -2q-15 0 -27 2v-119h-76zM352 1180q12 -2 29 -2q68 0 68 57q0 49 -64 49q-23 0 -33 -2v-102z" />
<glyph unicode="&#xaf;" horiz-adv-x="962" d="M188 1032v176h588v-176h-588z" />
<glyph unicode="&#xb0;" horiz-adv-x="839" d="M190 1190q0 94 65 158.5t165 64.5t164.5 -64.5t64.5 -158.5q0 -93 -64.5 -156t-164.5 -63t-165 63t-65 156zM326 1192q0 -49 26 -79t68 -30q43 0 69.5 30t26.5 79q0 46 -27 77t-69 31q-41 0 -67.5 -30.5t-26.5 -77.5z" />
<glyph unicode="&#xb4;" horiz-adv-x="962" d="M244 1094l372 274l101 -205l-414 -182z" />
<glyph unicode="&#xb6;" horiz-adv-x="1280" d="M117 727q0 215 182 352.5t483 137.5q139 0 344 -25v-1192h-176v995q-84 9 -133 11v-1006h-176v307q-140 -7 -258 39.5t-192 146t-74 234.5zM371 741q0 -113 76 -171.5t194 -55.5v485q-131 -18 -200.5 -86.5t-69.5 -171.5z" />
<glyph unicode="&#xb7;" horiz-adv-x="587" d="M162 750q0 56 39 94.5t94 38.5t94 -38.5t39 -94.5t-39 -95t-94 -39t-94 39t-39 95z" />
<glyph unicode="&#xb8;" horiz-adv-x="962" d="M252 -442l57 125q109 -68 195 -68q35 0 54.5 18t19.5 52q0 37 -46.5 63t-150.5 29l-8 18l63 240l103 -27l-27 -112q219 -52 219 -207q0 -89 -60.5 -149t-172.5 -60q-114 0 -246 78z" />
<glyph unicode="&#xba;" horiz-adv-x="794" d="M41 1178q0 147 97.5 247.5t258.5 100.5t259 -100.5t98 -247.5t-98 -249t-259 -102t-258.5 101.5t-97.5 249.5zM238 1178q0 -93 42 -146t117 -53q74 0 117 53.5t43 145.5t-43 144t-117 52q-75 0 -117 -52t-42 -144z" />
<glyph unicode="&#xbb;" horiz-adv-x="966" d="M82 18l225 336l-225 334h219l215 -334l-215 -336h-219zM436 18l226 336l-226 334h219l215 -334l-215 -336h-219z" />
<glyph unicode="&#xbf;" horiz-adv-x="806" d="M35 340q0 61 20.5 115t54 94.5t73.5 78t79.5 72.5t73 70t54 78.5t20.5 91.5v117h206v-148q0 -65 -23.5 -124t-59 -99.5t-77 -82.5t-77 -75.5t-59 -76t-23.5 -86.5q0 -79 54 -120.5t153 -41.5q100 0 211 43l45 -205q-157 -55 -299 -55q-206 0 -316 100.5t-110 253.5z M381 1384q0 56 39 95t96 39q55 0 94 -39t39 -95t-38.5 -94.5t-94.5 -38.5q-57 0 -96 38.5t-39 94.5z" />
<glyph unicode="&#xc0;" horiz-adv-x="1406" d="M-6 0l692 1522h37l690 -1522h-270l-146 344h-594l-145 -344h-264zM332 1806l108 199l377 -276l-67 -109zM487 547h426l-213 502z" />
<glyph unicode="&#xc1;" horiz-adv-x="1406" d="M-6 0l692 1522h37l690 -1522h-270l-146 344h-594l-145 -344h-264zM487 547h426l-213 502zM580 1733l372 274l101 -205l-414 -182z" />
<glyph unicode="&#xc2;" horiz-adv-x="1406" d="M-6 0l692 1522h37l690 -1522h-270l-146 344h-594l-145 -344h-264zM358 1649l304 362h92l295 -362h-220l-133 172l-131 -172h-207zM487 547h426l-213 502z" />
<glyph unicode="&#xc3;" horiz-adv-x="1406" d="M-6 0l692 1522h37l690 -1522h-270l-146 344h-594l-145 -344h-264zM365 1784q44 56 103 88.5t116 32.5q68 0 135 -39q59 -37 112 -37q72 0 138 78l88 -133q-45 -55 -104 -88t-115 -33q-69 0 -136 39q-63 39 -116 39q-74 0 -140 -78zM487 547h426l-213 502z" />
<glyph unicode="&#xc4;" horiz-adv-x="1406" d="M-6 0l692 1522h37l690 -1522h-270l-146 344h-594l-145 -344h-264zM387 1780q0 54 38 91.5t91 37.5q54 0 91.5 -37.5t37.5 -91.5q0 -53 -37.5 -91t-91.5 -38q-52 0 -90.5 38.5t-38.5 90.5zM487 547h426l-213 502zM762 1780q0 54 37.5 91.5t91.5 37.5q53 0 90 -37.5 t37 -91.5q0 -53 -37.5 -91t-89.5 -38q-54 0 -91.5 38t-37.5 91z" />
<glyph unicode="&#xc5;" horiz-adv-x="1406" d="M-6 0l651 1434q-84 18 -133 81t-49 146q0 97 66.5 165t172.5 68q107 0 174.5 -68t67.5 -165q0 -85 -49.5 -147.5t-134.5 -79.5l653 -1434h-270l-146 344h-594l-145 -344h-264zM487 547h426l-213 502zM602 1661q0 -52 28.5 -84.5t71.5 -32.5q45 0 75 32.5t30 84.5 q0 51 -30 84t-75 33q-43 0 -71.5 -32.5t-28.5 -84.5z" />
<glyph unicode="&#xc6;" horiz-adv-x="2082" d="M-12 0l1044 1501h914v-233h-658v-394h594v-225h-594v-416h658v-233h-914v369h-502l-249 -369h-293zM668 580h364v544z" />
<glyph unicode="&#xc7;" horiz-adv-x="1472" d="M113 750q0 164 60.5 308t167 247t257 162t324.5 59q260 0 483 -137l-88 -218q-201 115 -399 115q-245 0 -388 -147.5t-143 -388.5q0 -239 146 -387t391 -148q99 0 208 32t201 87l78 -217q-96 -62 -218.5 -100.5t-250.5 -41.5l-16 -69q219 -52 219 -207q0 -89 -61 -149 t-173 -60q-113 0 -245 78l57 125q109 -68 195 -68q73 0 73 70q0 37 -46 63t-150 29l-9 18l45 175q-319 28 -518.5 242t-199.5 528z" />
<glyph unicode="&#xc8;" horiz-adv-x="1216" d="M164 0v1501h915v-233h-659v-394h596v-225h-596v-416h659v-233h-915zM254 1806l108 199l377 -276l-67 -109z" />
<glyph unicode="&#xc9;" horiz-adv-x="1216" d="M164 0v1501h915v-233h-659v-394h596v-225h-596v-416h659v-233h-915zM500 1733l372 274l101 -205l-414 -182z" />
<glyph unicode="&#xca;" horiz-adv-x="1216" d="M164 0v1501h915v-233h-659v-394h596v-225h-596v-416h659v-233h-915zM279 1649l303 362h92l295 -362h-219l-134 172l-131 -172h-206z" />
<glyph unicode="&#xcb;" horiz-adv-x="1216" d="M164 0v1501h915v-233h-659v-394h596v-225h-596v-416h659v-233h-915zM307 1780q0 54 38 91.5t91 37.5q54 0 91.5 -37.5t37.5 -91.5q0 -53 -37.5 -91t-91.5 -38q-52 0 -90.5 38.5t-38.5 90.5zM682 1780q0 54 37.5 91.5t91.5 37.5q53 0 90 -37.5t37 -91.5q0 -53 -37.5 -91 t-89.5 -38q-54 0 -91.5 38t-37.5 91z" />
<glyph unicode="&#xcc;" horiz-adv-x="604" d="M-68 1806l109 199l377 -276l-68 -109zM174 0v1501h256v-1501h-256z" />
<glyph unicode="&#xcd;" horiz-adv-x="604" d="M174 0v1501h256v-1501h-256zM178 1749l373 274l100 -204l-413 -183z" />
<glyph unicode="&#xce;" horiz-adv-x="604" d="M-43 1649l303 362h92l295 -362h-219l-133 172l-131 -172h-207zM174 0v1501h256v-1501h-256z" />
<glyph unicode="&#xcf;" horiz-adv-x="604" d="M-14 1780q0 54 38 91.5t91 37.5q54 0 91.5 -37.5t37.5 -91.5q0 -53 -37.5 -91t-91.5 -38q-53 0 -91 38.5t-38 90.5zM174 0v1501h256v-1501h-256zM360 1780q0 54 37.5 91.5t91.5 37.5q53 0 90 -37.5t37 -91.5q0 -53 -37.5 -91t-89.5 -38q-54 0 -91.5 38t-37.5 91z" />
<glyph unicode="&#xd0;" horiz-adv-x="1601" d="M39 657v213h166v617q217 24 418 24q174 0 319.5 -38.5t249.5 -107.5t176 -163t106.5 -204.5t34.5 -233.5q0 -128 -33 -242.5t-103 -212.5t-171.5 -169t-246 -111.5t-318.5 -40.5q-171 0 -432 24v645h-166zM461 227q76 -12 215 -12q141 0 249 41t175 115t101 173t34 220 q0 239 -151 380.5t-429 141.5q-115 0 -194 -12v-404h229v-213h-229v-430z" />
<glyph unicode="&#xd1;" horiz-adv-x="1552" d="M164 0v1522l41 8l928 -977v948h256v-1524l-29 -6l-940 992v-963h-256zM436 1769q44 56 103 88.5t116 32.5q69 0 136 -39q57 -36 112 -36q72 0 137 77l88 -133q-45 -55 -104 -88t-115 -33q-68 0 -135 39q-63 39 -117 39q-73 0 -139 -78z" />
<glyph unicode="&#xd2;" horiz-adv-x="1742" d="M113 750q0 164 59 308.5t161 247t244 161.5t302 59q214 0 386 -100.5t268.5 -278t96.5 -397.5q0 -219 -100.5 -396.5t-276 -278t-389.5 -100.5q-160 0 -300 59t-239 161.5t-155.5 246.5t-56.5 308zM387 750q0 -236 136 -391.5t349 -155.5q212 0 348 156t136 391 q0 236 -136 391t-348 155q-141 0 -252 -71t-172 -195.5t-61 -279.5zM500 1806l108 199l377 -276l-67 -109z" />
<glyph unicode="&#xd3;" horiz-adv-x="1742" d="M113 750q0 164 59 308.5t161 247t244 161.5t302 59q214 0 386 -100.5t268.5 -278t96.5 -397.5q0 -219 -100.5 -396.5t-276 -278t-389.5 -100.5q-160 0 -300 59t-239 161.5t-155.5 246.5t-56.5 308zM387 750q0 -236 136 -391.5t349 -155.5q212 0 348 156t136 391 q0 236 -136 391t-348 155q-141 0 -252 -71t-172 -195.5t-61 -279.5zM748 1733l372 274l101 -205l-414 -182z" />
<glyph unicode="&#xd4;" horiz-adv-x="1742" d="M113 750q0 164 59 308.5t161 247t244 161.5t302 59q214 0 386 -100.5t268.5 -278t96.5 -397.5q0 -219 -100.5 -396.5t-276 -278t-389.5 -100.5q-160 0 -300 59t-239 161.5t-155.5 246.5t-56.5 308zM387 750q0 -236 136 -391.5t349 -155.5q212 0 348 156t136 391 q0 236 -136 391t-348 155q-141 0 -252 -71t-172 -195.5t-61 -279.5zM526 1649l303 362h93l295 -362h-220l-133 172l-131 -172h-207z" />
<glyph unicode="&#xd5;" horiz-adv-x="1742" d="M113 750q0 164 59 308.5t161 247t244 161.5t302 59q214 0 386 -100.5t268.5 -278t96.5 -397.5q0 -219 -100.5 -396.5t-276 -278t-389.5 -100.5q-160 0 -300 59t-239 161.5t-155.5 246.5t-56.5 308zM387 750q0 -236 136 -391.5t349 -155.5q212 0 348 156t136 391 q0 236 -136 391t-348 155q-141 0 -252 -71t-172 -195.5t-61 -279.5zM532 1784q44 56 103.5 88.5t116.5 32.5q68 0 135 -39q59 -37 112 -37q72 0 138 78l88 -133q-45 -55 -104 -88t-115 -33q-69 0 -136 39q-63 39 -116 39q-74 0 -140 -78z" />
<glyph unicode="&#xd6;" horiz-adv-x="1742" d="M113 750q0 164 59 308.5t161 247t244 161.5t302 59q214 0 386 -100.5t268.5 -278t96.5 -397.5q0 -219 -100.5 -396.5t-276 -278t-389.5 -100.5q-160 0 -300 59t-239 161.5t-155.5 246.5t-56.5 308zM387 750q0 -236 136 -391.5t349 -155.5q212 0 348 156t136 391 q0 236 -136 391t-348 155q-141 0 -252 -71t-172 -195.5t-61 -279.5zM555 1780q0 54 38 91.5t91 37.5q54 0 91.5 -37.5t37.5 -91.5q0 -53 -37.5 -91t-91.5 -38q-52 0 -90.5 38.5t-38.5 90.5zM930 1780q0 54 37.5 91.5t91.5 37.5q53 0 90 -37.5t37 -91.5q0 -53 -37.5 -91 t-89.5 -38q-54 0 -91.5 38t-37.5 91z" />
<glyph unicode="&#xd7;" horiz-adv-x="919" d="M127 375l211 215l-211 215l123 125l209 -215l211 215l125 -125l-213 -215l213 -215l-125 -123l-211 213l-209 -213z" />
<glyph unicode="&#xd8;" horiz-adv-x="1742" d="M100 129l156 152q-143 205 -143 469q0 164 59 308.5t161 247t244 161.5t302 59q275 0 475 -164l149 149l139 -137l-155 -153q143 -201 143 -471q0 -219 -100.5 -396.5t-276 -278t-389.5 -100.5q-273 0 -475 162l-149 -149zM387 750q0 -154 68 -277l716 715 q-123 108 -299 108q-141 0 -252 -71t-172 -195.5t-61 -279.5zM571 311q127 -108 301 -108q212 0 348 156t136 391q0 151 -68 278q-717 -715 -717 -717z" />
<glyph unicode="&#xd9;" horiz-adv-x="1492" d="M147 575v926h256v-907q0 -191 90 -288t255 -97q164 0 254 98t90 287v907h256v-926q0 -284 -162.5 -442t-442.5 -158q-283 0 -439.5 155t-156.5 445zM377 1792l108 199l377 -277l-67 -108z" />
<glyph unicode="&#xda;" horiz-adv-x="1492" d="M147 575v926h256v-907q0 -191 90 -288t255 -97q164 0 254 98t90 287v907h256v-926q0 -284 -162.5 -442t-442.5 -158q-283 0 -439.5 155t-156.5 445zM625 1718l372 275l101 -205l-414 -182z" />
<glyph unicode="&#xdb;" horiz-adv-x="1492" d="M147 575v926h256v-907q0 -191 90 -288t255 -97q164 0 254 98t90 287v907h256v-926q0 -284 -162.5 -442t-442.5 -158q-283 0 -439.5 155t-156.5 445zM403 1634l304 363h92l295 -363h-220l-133 172l-131 -172h-207z" />
<glyph unicode="&#xdc;" horiz-adv-x="1492" d="M147 575v926h256v-907q0 -191 90 -288t255 -97q164 0 254 98t90 287v907h256v-926q0 -284 -162.5 -442t-442.5 -158q-283 0 -439.5 155t-156.5 445zM432 1765q0 54 38 91.5t91 37.5q54 0 91.5 -37.5t37.5 -91.5q0 -53 -37.5 -91t-91.5 -38q-53 0 -91 38t-38 91zM807 1765 q0 54 37.5 91.5t91.5 37.5q53 0 90 -37.5t37 -91.5q0 -53 -37.5 -91t-89.5 -38q-54 0 -91.5 38t-37.5 91z" />
<glyph unicode="&#xdd;" horiz-adv-x="1374" d="M31 1501h293l368 -635l365 635h286l-528 -870v-631h-256v633zM563 1718l373 275l100 -205l-413 -182z" />
<glyph unicode="&#xde;" horiz-adv-x="1226" d="M164 0v1501h256v-239q31 4 125 4q150 0 270 -39.5t196 -109t116 -161t40 -198.5q0 -234 -158.5 -379.5t-439.5 -145.5q-29 0 -83.5 3.5t-65.5 3.5v-240h-256zM420 467q102 -8 143 -8q167 0 252.5 79t85.5 212q0 117 -82 197.5t-231 80.5q-88 0 -168 -12v-549z" />
<glyph unicode="&#xdf;" horiz-adv-x="1107" d="M135 0v1087q0 205 95 317t282 112q72 0 143 -19l-26 -197q-37 9 -86 9q-94 0 -135 -49t-41 -173v-213h710l10 -24l-280 -393q240 -67 240 -293q0 -87 -36.5 -156.5t-99.5 -112.5t-143 -65.5t-172 -22.5q-48 0 -123 11l23 188q47 -8 98 -8q109 0 166 42.5t57 119.5 q0 66 -50 106.5t-155 40.5q-46 0 -73 -4l-15 29l232 350h-389v-682h-232z" />
<glyph unicode="&#xe0;" d="M61 260q0 119 87.5 195.5t230.5 76.5q73 0 125 -14t110 -41v37q0 100 -52.5 147.5t-158.5 47.5q-91 0 -217 -37l-26 174q144 45 280 45q204 0 304 -96t100 -289v-506h-221v84q-105 -100 -254 -100q-132 0 -220 74t-88 202zM115 1167l108 199l377 -276l-68 -109zM281 262 q0 -60 41 -93.5t116 -33.5q108 0 176 84v109q-48 32 -86.5 45.5t-93.5 13.5q-67 0 -110 -34t-43 -91z" />
<glyph unicode="&#xe1;" d="M61 260q0 119 87.5 195.5t230.5 76.5q73 0 125 -14t110 -41v37q0 100 -52.5 147.5t-158.5 47.5q-91 0 -217 -37l-26 174q144 45 280 45q204 0 304 -96t100 -289v-506h-221v84q-105 -100 -254 -100q-132 0 -220 74t-88 202zM281 262q0 -60 41 -93.5t116 -33.5 q108 0 176 84v109q-48 32 -86.5 45.5t-93.5 13.5q-67 0 -110 -34t-43 -91zM360 1094l373 274l101 -205l-414 -182z" />
<glyph unicode="&#xe2;" d="M61 260q0 119 87.5 195.5t230.5 76.5q73 0 125 -14t110 -41v37q0 100 -52.5 147.5t-158.5 47.5q-91 0 -217 -37l-26 174q144 45 280 45q204 0 304 -96t100 -289v-506h-221v84q-105 -100 -254 -100q-132 0 -220 74t-88 202zM139 1010l303 362h93l294 -362h-219l-133 172 l-131 -172h-207zM281 262q0 -60 41 -93.5t116 -33.5q108 0 176 84v109q-48 32 -86.5 45.5t-93.5 13.5q-67 0 -110 -34t-43 -91z" />
<glyph unicode="&#xe3;" d="M61 260q0 119 87.5 195.5t230.5 76.5q73 0 125 -14t110 -41v37q0 100 -52.5 147.5t-158.5 47.5q-91 0 -217 -37l-26 174q144 45 280 45q204 0 304 -96t100 -289v-506h-221v84q-105 -100 -254 -100q-132 0 -220 74t-88 202zM145 1145q44 56 103.5 88.5t116.5 32.5 q68 0 135 -39q59 -37 112 -37q72 0 138 78l88 -133q-45 -55 -104.5 -88t-115.5 -33q-68 0 -135 39q-63 39 -116 39q-74 0 -140 -78zM281 262q0 -60 41 -93.5t116 -33.5q108 0 176 84v109q-48 32 -86.5 45.5t-93.5 13.5q-67 0 -110 -34t-43 -91z" />
<glyph unicode="&#xe4;" d="M61 260q0 119 87.5 195.5t230.5 76.5q73 0 125 -14t110 -41v37q0 100 -52.5 147.5t-158.5 47.5q-91 0 -217 -37l-26 174q144 45 280 45q204 0 304 -96t100 -289v-506h-221v84q-105 -100 -254 -100q-132 0 -220 74t-88 202zM168 1141q0 54 38 91.5t91 37.5 q54 0 91.5 -37.5t37.5 -91.5q0 -53 -37.5 -91t-91.5 -38q-53 0 -91 38t-38 91zM281 262q0 -60 41 -93.5t116 -33.5q108 0 176 84v109q-48 32 -86.5 45.5t-93.5 13.5q-67 0 -110 -34t-43 -91zM543 1141q0 54 37.5 91.5t91.5 37.5q53 0 90 -37.5t37 -91.5q0 -53 -37.5 -91 t-89.5 -38q-54 0 -91.5 38t-37.5 91z" />
<glyph unicode="&#xe5;" d="M61 260q0 119 87.5 195.5t230.5 76.5q73 0 125 -14t110 -41v37q0 100 -52.5 147.5t-158.5 47.5q-91 0 -217 -37l-26 174q144 45 280 45q204 0 304 -96t100 -289v-506h-221v84q-105 -100 -254 -100q-132 0 -220 74t-88 202zM242 1231q0 96 67.5 164.5t173.5 68.5 t174 -68.5t68 -164.5q0 -98 -68 -166t-174 -68t-173.5 68t-67.5 166zM281 262q0 -60 41 -93.5t116 -33.5q108 0 176 84v109q-48 32 -86.5 45.5t-93.5 13.5q-67 0 -110 -34t-43 -91zM381 1231q0 -52 29.5 -84.5t72.5 -32.5q44 0 73.5 32.5t29.5 84.5q0 50 -30 83.5t-73 33.5 t-72.5 -32.5t-29.5 -84.5z" />
<glyph unicode="&#xe6;" horiz-adv-x="1515" d="M61 260q0 118 87.5 195t228.5 77q125 0 239 -57v39q0 100 -53 147.5t-160 47.5q-87 0 -217 -37l-26 174q144 45 276 45q235 0 322 -139q119 139 305 139q185 0 289 -119t104 -301q0 -57 -6 -104h-606q14 -98 78.5 -149.5t195.5 -51.5q102 0 252 47l29 -180 q-176 -49 -299 -49q-245 0 -373 168q-139 -168 -344 -168q-141 0 -231.5 73.5t-90.5 202.5zM281 266q0 -60 41.5 -92.5t115.5 -32.5q64 0 121.5 39t83.5 117q-35 44 -90.5 70t-122.5 26q-66 0 -107.5 -34t-41.5 -93zM850 512h399q-6 91 -57 144t-139 53q-86 0 -138.5 -51.5 t-64.5 -145.5z" />
<glyph unicode="&#xe7;" horiz-adv-x="884" d="M74 434q0 93 34 176t96 145.5t156 99t207 36.5q153 0 293 -88l-76 -162q-112 61 -221 61q-114 0 -187 -69.5t-73 -196.5q0 -119 79 -190.5t193 -71.5t220 62l65 -164q-140 -88 -293 -88h-20l-19 -78q220 -52 220 -207q0 -89 -61 -149t-173 -60q-114 0 -246 78l58 125 q109 -68 194 -68q35 0 54.5 18t19.5 52q0 37 -46.5 63t-150.5 29l-8 18l49 193q-170 35 -267 154.5t-97 281.5z" />
<glyph unicode="&#xe8;" horiz-adv-x="974" d="M74 434q0 89 29.5 171t84 146t140 102t188.5 38q189 0 294 -118.5t105 -301.5q0 -73 -6 -104h-606q14 -97 78.5 -149t193.5 -52q104 0 254 47l29 -180q-179 -49 -305 -49q-120 0 -213 35t-150 97t-86.5 142.5t-29.5 175.5zM143 1167l109 199l377 -276l-68 -109zM307 512 h402q-8 91 -59.5 144t-137.5 53t-139.5 -51.5t-65.5 -145.5z" />
<glyph unicode="&#xe9;" horiz-adv-x="974" d="M74 434q0 89 29.5 171t84 146t140 102t188.5 38q189 0 294 -118.5t105 -301.5q0 -73 -6 -104h-606q14 -97 78.5 -149t193.5 -52q104 0 254 47l29 -180q-179 -49 -305 -49q-120 0 -213 35t-150 97t-86.5 142.5t-29.5 175.5zM307 512h402q-8 91 -59.5 144t-137.5 53 t-139.5 -51.5t-65.5 -145.5zM389 1094l373 274l100 -205l-413 -182z" />
<glyph unicode="&#xea;" horiz-adv-x="974" d="M74 434q0 89 29.5 171t84 146t140 102t188.5 38q189 0 294 -118.5t105 -301.5q0 -73 -6 -104h-606q14 -97 78.5 -149t193.5 -52q104 0 254 47l29 -180q-179 -49 -305 -49q-120 0 -213 35t-150 97t-86.5 142.5t-29.5 175.5zM168 1010l303 362h92l295 -362h-219l-133 172 l-131 -172h-207zM307 512h402q-8 91 -59.5 144t-137.5 53t-139.5 -51.5t-65.5 -145.5z" />
<glyph unicode="&#xeb;" horiz-adv-x="974" d="M74 434q0 89 29.5 171t84 146t140 102t188.5 38q189 0 294 -118.5t105 -301.5q0 -73 -6 -104h-606q14 -97 78.5 -149t193.5 -52q104 0 254 47l29 -180q-179 -49 -305 -49q-120 0 -213 35t-150 97t-86.5 142.5t-29.5 175.5zM197 1141q0 54 38 91.5t91 37.5 q54 0 91.5 -37.5t37.5 -91.5q0 -53 -37.5 -91t-91.5 -38q-52 0 -90.5 38t-38.5 91zM307 512h402q-8 91 -59.5 144t-137.5 53t-139.5 -51.5t-65.5 -145.5zM571 1141q0 54 37.5 91.5t91.5 37.5q53 0 90 -37.5t37 -91.5q0 -53 -37.5 -91t-89.5 -38q-54 0 -91.5 38t-37.5 91z " />
<glyph unicode="&#xec;" horiz-adv-x="491" d="M-123 1167l109 199l376 -276l-67 -109zM131 0v874h234v-874h-234z" />
<glyph unicode="&#xed;" horiz-adv-x="491" d="M123 1094l373 274l100 -205l-414 -182zM131 0v874h234v-874h-234z" />
<glyph unicode="&#xee;" horiz-adv-x="491" d="M-98 1010l303 362h92l295 -362h-219l-133 172l-131 -172h-207zM131 0v874h234v-874h-234z" />
<glyph unicode="&#xef;" horiz-adv-x="491" d="M-70 1141q0 54 38 91.5t91 37.5q54 0 91.5 -37.5t37.5 -91.5q0 -53 -37.5 -91t-91.5 -38q-53 0 -91 38t-38 91zM131 0v874h234v-874h-234zM305 1141q0 54 37.5 91.5t91.5 37.5q53 0 90 -37.5t37 -91.5q0 -53 -37.5 -91t-89.5 -38q-54 0 -91.5 38t-37.5 91z" />
<glyph unicode="&#xf0;" horiz-adv-x="1073" d="M80 451q0 122 47 221t139.5 159t214.5 60q153 0 248 -92q-67 177 -248 334l-159 -138l-99 121l129 113q-104 68 -200 106l90 181q150 -68 266 -148l137 121l105 -127l-111 -94q354 -314 354 -772q0 -231 -123.5 -373.5t-332.5 -142.5q-111 0 -200 38.5t-144 104.5 t-84 149.5t-29 178.5zM309 449q0 -123 63 -206t169 -83q108 0 169.5 78t61.5 202q0 123 -65.5 199t-171.5 76q-101 0 -163.5 -71.5t-62.5 -194.5z" />
<glyph unicode="&#xf1;" horiz-adv-x="1048" d="M117 0v874h225v-145q159 162 324 162q140 0 211 -79.5t71 -213.5v-598h-233v541q0 83 -32 120t-101 37q-58 0 -119.5 -33.5t-112.5 -89.5v-575h-233zM193 1145q44 56 103 88.5t116 32.5q68 0 135 -39q59 -37 112 -37q72 0 138 78l88 -133q-45 -55 -104 -88t-115 -33 q-69 0 -136 39q-63 39 -116 39q-74 0 -140 -78z" />
<glyph unicode="&#xf2;" horiz-adv-x="1071" d="M74 438q0 125 54.5 227t160 164t243.5 62q205 0 330 -130.5t125 -322.5t-125 -323t-330 -131q-138 0 -243.5 62t-160 164.5t-54.5 227.5zM166 1167l108 199l377 -276l-67 -109zM305 438q0 -127 61.5 -201.5t165.5 -74.5q103 0 164.5 74.5t61.5 201.5q0 126 -61.5 200.5 t-164.5 74.5q-104 0 -165.5 -74.5t-61.5 -200.5z" />
<glyph unicode="&#xf3;" horiz-adv-x="1071" d="M74 438q0 125 54.5 227t160 164t243.5 62q205 0 330 -130.5t125 -322.5t-125 -323t-330 -131q-138 0 -243.5 62t-160 164.5t-54.5 227.5zM305 438q0 -127 61.5 -201.5t165.5 -74.5q103 0 164.5 74.5t61.5 201.5q0 126 -61.5 200.5t-164.5 74.5q-104 0 -165.5 -74.5 t-61.5 -200.5zM412 1094l372 274l101 -205l-414 -182z" />
<glyph unicode="&#xf4;" horiz-adv-x="1071" d="M74 438q0 125 54.5 227t160 164t243.5 62q205 0 330 -130.5t125 -322.5t-125 -323t-330 -131q-138 0 -243.5 62t-160 164.5t-54.5 227.5zM190 1010l304 362h92l295 -362h-219l-134 172l-131 -172h-207zM305 438q0 -127 61.5 -201.5t165.5 -74.5q103 0 164.5 74.5 t61.5 201.5q0 126 -61.5 200.5t-164.5 74.5q-104 0 -165.5 -74.5t-61.5 -200.5z" />
<glyph unicode="&#xf5;" horiz-adv-x="1071" d="M74 438q0 125 54.5 227t160 164t243.5 62q205 0 330 -130.5t125 -322.5t-125 -323t-330 -131q-138 0 -243.5 62t-160 164.5t-54.5 227.5zM197 1145q44 56 103 88.5t116 32.5q68 0 135 -39q59 -37 113 -37q71 0 137 78l88 -133q-45 -55 -104 -88t-115 -33q-68 0 -135 39 q-63 39 -117 39q-73 0 -139 -78zM305 438q0 -127 61.5 -201.5t165.5 -74.5q103 0 164.5 74.5t61.5 201.5q0 126 -61.5 200.5t-164.5 74.5q-104 0 -165.5 -74.5t-61.5 -200.5z" />
<glyph unicode="&#xf6;" horiz-adv-x="1071" d="M74 438q0 125 54.5 227t160 164t243.5 62q205 0 330 -130.5t125 -322.5t-125 -323t-330 -131q-138 0 -243.5 62t-160 164.5t-54.5 227.5zM219 1141q0 54 38 91.5t91 37.5q54 0 91.5 -37.5t37.5 -91.5q0 -53 -37.5 -91t-91.5 -38q-52 0 -90.5 38t-38.5 91zM305 438 q0 -127 61.5 -201.5t165.5 -74.5q103 0 164.5 74.5t61.5 201.5q0 126 -61.5 200.5t-164.5 74.5q-104 0 -165.5 -74.5t-61.5 -200.5zM594 1141q0 54 37.5 91.5t91.5 37.5q53 0 90 -37.5t37 -91.5q0 -53 -37.5 -91t-89.5 -38q-54 0 -91.5 38t-37.5 91z" />
<glyph unicode="&#xf7;" d="M123 504v172h694v-172h-694zM352 301q0 49 35 84t84 35t83 -34.5t34 -84.5t-34 -84.5t-83 -34.5t-84 35t-35 84zM352 879q0 49 34.5 83.5t84.5 34.5q49 0 83 -34t34 -84q0 -48 -34 -82.5t-83 -34.5t-84 34.5t-35 82.5z" />
<glyph unicode="&#xf8;" horiz-adv-x="1060" d="M61 63l101 97q-88 120 -88 278q0 193 125.5 323t332.5 130q178 0 293 -98l97 94l77 -80l-98 -94q86 -115 86 -275q0 -193 -125 -323.5t-330 -130.5q-168 0 -292 94l-99 -94zM303 438q0 -70 21 -125l358 342q-58 58 -150 58q-106 0 -167.5 -73t-61.5 -202zM383 215 q59 -53 149 -53q105 0 165.5 73t60.5 203q0 64 -19 119z" />
<glyph unicode="&#xf9;" horiz-adv-x="1046" d="M109 276v598h233v-540q0 -156 139 -156q121 0 226 115v581h233v-874h-225v135q-68 -68 -152 -109.5t-166 -41.5q-141 0 -214.5 79.5t-73.5 212.5zM154 1167l108 199l377 -276l-68 -109z" />
<glyph unicode="&#xfa;" horiz-adv-x="1046" d="M109 276v598h233v-540q0 -156 139 -156q121 0 226 115v581h233v-874h-225v135q-68 -68 -152 -109.5t-166 -41.5q-141 0 -214.5 79.5t-73.5 212.5zM399 1094l373 274l100 -205l-413 -182z" />
<glyph unicode="&#xfb;" horiz-adv-x="1046" d="M109 276v598h233v-540q0 -156 139 -156q121 0 226 115v581h233v-874h-225v135q-68 -68 -152 -109.5t-166 -41.5q-141 0 -214.5 79.5t-73.5 212.5zM178 1010l303 362h92l295 -362h-219l-133 172l-131 -172h-207z" />
<glyph unicode="&#xfc;" horiz-adv-x="1046" d="M109 276v598h233v-540q0 -156 139 -156q121 0 226 115v581h233v-874h-225v135q-68 -68 -152 -109.5t-166 -41.5q-141 0 -214.5 79.5t-73.5 212.5zM207 1141q0 54 38 91.5t91 37.5q54 0 91.5 -37.5t37.5 -91.5q0 -53 -37.5 -91t-91.5 -38q-52 0 -90.5 38t-38.5 91z M582 1141q0 54 37.5 91.5t91.5 37.5q53 0 90 -37.5t37 -91.5q0 -53 -37.5 -91t-89.5 -38q-54 0 -91.5 38t-37.5 91z" />
<glyph unicode="&#xfd;" horiz-adv-x="944" d="M-4 874h258l223 -555l219 555h252l-618 -1316h-232l267 530zM348 1094l373 274l100 -205l-413 -182z" />
<glyph unicode="&#xfe;" horiz-adv-x="1093" d="M117 -442v1943h229v-706q113 96 270 96q171 0 284.5 -126.5t113.5 -320.5q0 -192 -123.5 -326t-312.5 -134q-126 0 -228 57v-483h-233zM348 248q34 -39 88.5 -59.5t114.5 -20.5q101 0 166 74t65 200q0 117 -61 191t-162 74q-124 0 -211 -93v-366z" />
<glyph unicode="&#xff;" horiz-adv-x="944" d="M-4 874h258l223 -555l219 555h252l-618 -1316h-232l267 530zM156 1141q0 54 38 91.5t91 37.5q54 0 91.5 -37.5t37.5 -91.5q0 -53 -37.5 -91t-91.5 -38q-53 0 -91 38t-38 91zM530 1141q0 54 37.5 91.5t91.5 37.5q53 0 90 -37.5t37 -91.5q0 -53 -37.5 -91t-89.5 -38 q-54 0 -91.5 38t-37.5 91z" />
<glyph unicode="&#x152;" horiz-adv-x="2203" d="M113 735q0 161 56 300.5t161.5 246t271.5 168t373 61.5q127 0 274 -10h817v-233h-657v-394h594v-225h-594v-416h657v-233h-802q-135 -12 -275 -12q-207 0 -375 60t-276.5 163t-166.5 237.5t-58 286.5zM387 735q0 -234 154 -377t417 -143q116 0 195 12v1047 q-76 12 -215 12q-263 0 -407 -151t-144 -400z" />
<glyph unicode="&#x153;" horiz-adv-x="1648" d="M74 438q0 124 55 227t159.5 164.5t237.5 61.5q109 0 197 -44.5t147 -123.5q118 168 334 168q184 0 288.5 -119t104.5 -301q0 -57 -6 -104h-606q13 -97 77 -149t195 -52q102 0 252 47l29 -180q-176 -49 -299 -49q-250 0 -373 163q-126 -163 -340 -163q-133 0 -237.5 62 t-159.5 165t-55 227zM305 438q0 -127 61 -201.5t164 -74.5q105 0 166.5 74.5t61.5 201.5q0 126 -62 200.5t-166 74.5q-103 0 -164 -74.5t-61 -200.5zM989 512h402q-8 91 -59.5 144t-139.5 53q-86 0 -138.5 -51.5t-64.5 -145.5z" />
<glyph unicode="&#x178;" horiz-adv-x="1374" d="M31 1501h293l368 -635l365 635h286l-528 -870v-631h-256v633zM371 1765q0 54 38 91.5t91 37.5q54 0 91.5 -37.5t37.5 -91.5q0 -53 -37.5 -91t-91.5 -38q-52 0 -90.5 38t-38.5 91zM745 1765q0 54 37.5 91.5t91.5 37.5q53 0 90 -37.5t37 -91.5q0 -53 -37.5 -91t-89.5 -38 q-54 0 -91.5 38t-37.5 91z" />
<glyph unicode="&#x2c6;" horiz-adv-x="962" d="M143 1010l303 362h93l295 -362h-220l-133 172l-131 -172h-207z" />
<glyph unicode="&#x2dc;" horiz-adv-x="962" d="M139 1145q44 56 103 88.5t116 32.5q69 0 136 -39q59 -37 112 -37q71 0 137 78l88 -133q-45 -55 -104 -88t-115 -33q-68 0 -135 39q-63 39 -117 39q-73 0 -139 -78z" />
<glyph unicode="&#x2000;" horiz-adv-x="1011" />
<glyph unicode="&#x2001;" horiz-adv-x="2023" />
<glyph unicode="&#x2002;" horiz-adv-x="1011" />
<glyph unicode="&#x2003;" horiz-adv-x="2023" />
<glyph unicode="&#x2004;" horiz-adv-x="674" />
<glyph unicode="&#x2005;" horiz-adv-x="505" />
<glyph unicode="&#x2006;" horiz-adv-x="337" />
<glyph unicode="&#x2007;" horiz-adv-x="337" />
<glyph unicode="&#x2008;" horiz-adv-x="252" />
<glyph unicode="&#x2009;" horiz-adv-x="404" />
<glyph unicode="&#x200a;" horiz-adv-x="112" />
<glyph unicode="&#x2010;" horiz-adv-x="706" d="M100 412v178h508v-178h-508z" />
<glyph unicode="&#x2011;" horiz-adv-x="706" d="M100 412v178h508v-178h-508z" />
<glyph unicode="&#x2012;" horiz-adv-x="706" d="M100 412v178h508v-178h-508z" />
<glyph unicode="&#x2013;" horiz-adv-x="1024" d="M102 422v158h820v-158h-820z" />
<glyph unicode="&#x2014;" horiz-adv-x="1536" d="M102 422v158h1332v-158h-1332z" />
<glyph unicode="&#x2018;" horiz-adv-x="393" d="M63 1210q0 89 62 178.5t168 145.5l22 -37q-92 -80 -127 -190q57 -3 93 -39t36 -86q0 -49 -35 -84t-85 -35q-61 0 -97.5 42t-36.5 105z" />
<glyph unicode="&#x2019;" horiz-adv-x="393" d="M78 1092q92 80 127 190q-57 3 -92 38.5t-35 86.5q0 49 35 84t84 35q62 0 97.5 -42t35.5 -106q0 -88 -61.5 -177.5t-166.5 -145.5z" />
<glyph unicode="&#x201a;" horiz-adv-x="442" d="M100 127q0 50 35 85.5t84 35.5q62 0 97.5 -42t35.5 -106q0 -90 -61 -179.5t-166 -145.5l-25 37q93 81 127 192q-57 3 -92 37.5t-35 85.5z" />
<glyph unicode="&#x201c;" horiz-adv-x="724" d="M63 1210q0 89 62 178.5t168 145.5l22 -37q-92 -80 -127 -190q57 -3 93 -39t36 -86q0 -49 -35 -84t-85 -35q-61 0 -97.5 42t-36.5 105zM395 1210q0 88 61.5 178t166.5 146l24 -37q-92 -80 -127 -190q57 -3 92 -38.5t35 -86.5q0 -50 -34.5 -84.5t-84.5 -34.5 q-62 0 -97.5 41.5t-35.5 105.5z" />
<glyph unicode="&#x201d;" horiz-adv-x="724" d="M78 1092q92 80 127 190q-57 3 -92 38.5t-35 86.5q0 49 35 84t84 35q62 0 97.5 -42t35.5 -106q0 -88 -61.5 -177.5t-166.5 -145.5zM408 1407q0 49 35 84t85 35q61 0 97.5 -42.5t36.5 -105.5q0 -89 -62 -178t-168 -145l-22 37q92 80 127 190q-57 3 -93 38.5t-36 86.5z" />
<glyph unicode="&#x201e;" horiz-adv-x="774" d="M100 127q0 50 35 85.5t84 35.5q63 0 98 -42.5t35 -107.5q0 -89 -61 -178t-166 -145l-25 37q93 81 127 192q-57 3 -92 37.5t-35 85.5zM430 127q0 49 36 85t85 36q61 0 96 -42.5t35 -107.5q0 -89 -60.5 -178.5t-166.5 -144.5l-23 37q93 81 127 192q-58 3 -93.5 38t-35.5 85 z" />
<glyph unicode="&#x2022;" horiz-adv-x="882" d="M111 750q0 141 96.5 239t234.5 98q137 0 233.5 -98t96.5 -239q0 -139 -96.5 -237.5t-233.5 -98.5q-138 0 -234.5 98t-96.5 238z" />
<glyph unicode="&#x2026;" horiz-adv-x="1579" d="M141 119q0 55 38.5 94t94.5 39t95 -39t39 -94q0 -57 -39 -96t-95 -39t-94.5 39t-38.5 96zM657 119q0 55 39 94t95 39q55 0 94 -39t39 -94q0 -57 -38.5 -96t-94.5 -39t-95 39t-39 96zM1174 119q0 55 39 94t94 39t94 -39t39 -94q0 -57 -38.5 -96t-94.5 -39t-94.5 39 t-38.5 96z" />
<glyph unicode="&#x202f;" horiz-adv-x="404" />
<glyph unicode="&#x2039;" horiz-adv-x="620" d="M98 354l215 334h217l-223 -334l223 -336h-217z" />
<glyph unicode="&#x203a;" horiz-adv-x="620" d="M90 18l223 336l-223 334h217l215 -334l-215 -336h-217z" />
<glyph unicode="&#x205f;" horiz-adv-x="505" />
<glyph unicode="&#x20ac;" horiz-adv-x="1329" d="M57 377v151h131q-2 20 -2 66q0 48 2 68h-131v153h166q66 181 227.5 291.5t378.5 110.5q205 0 388 -113l-82 -180q-159 88 -312 88q-127 0 -218 -51.5t-138 -145.5h516v-153h-561q-4 -40 -4 -68q0 -26 4 -66h561v-151h-512q48 -92 142 -144.5t221 -52.5q157 0 313 90 l74 -180q-82 -51 -185.5 -83t-206.5 -32q-220 0 -382 110t-226 292h-164z" />
<glyph unicode="&#x2122;" horiz-adv-x="1030" d="M49 1399v102h381v-102h-135v-352h-111v352h-135zM500 1047l22 458h15l204 -258l201 258h14l21 -458h-100l-7 223l-125 -160h-12l-127 160l-4 -223h-102z" />
<glyph unicode="&#x25fc;" horiz-adv-x="870" d="M0 0v870h870v-870h-870z" />
<glyph unicode="&#xfb01;" horiz-adv-x="1183" d="M47 686v31l162 166v204q0 205 95 317t282 112q72 0 143 -19l-27 -197q-37 9 -86 9q-94 0 -135 -49t-41 -173v-213h246v-188h-246v-686h-231v686h-162zM805 1178q0 57 40 97t97 40t96 -40t39 -97t-39 -97.5t-96 -40.5t-97 40.5t-40 97.5zM823 0v874h234v-874h-234z" />
<glyph unicode="&#xfb02;" horiz-adv-x="1175" d="M47 686v31l162 166v204q0 205 95 317t282 112q72 0 143 -19l-27 -197q-37 9 -86 9q-94 0 -135 -49t-41 -173v-213h246v-188h-246v-686h-231v686h-162zM819 0v1501h232v-1501h-232z" />
<glyph unicode="&#xfb03;" horiz-adv-x="1845" d="M47 686v31l162 166v204q0 205 95 317t282 112q72 0 143 -19l-27 -197q-37 9 -86 9q-94 0 -135 -49t-41 -173v-213h246v-188h-246v-686h-231v686h-162zM709 686v31l161 166v204q0 205 95 317t282 112q73 0 144 -19l-25 -197q-40 9 -88 9q-92 0 -134 -49t-42 -173v-213h248 v-188h-248v-686h-232v686h-161zM1468 1178q0 57 39.5 97t96.5 40t97 -40t40 -97t-40 -97.5t-97 -40.5t-96.5 40.5t-39.5 97.5zM1487 0v874h233v-874h-233z" />
<glyph unicode="&#xfb04;" horiz-adv-x="1839" d="M47 686v31l162 166v204q0 205 95 317t282 112q72 0 143 -19l-27 -197q-37 9 -86 9q-94 0 -135 -49t-41 -173v-213h246v-188h-246v-686h-231v686h-162zM709 686v31l161 166v204q0 205 95 317t282 112q73 0 144 -19l-25 -197q-40 9 -88 9q-92 0 -134 -49t-42 -173v-213h248 v-188h-248v-686h-232v686h-161zM1481 0v1501h233v-1501h-233z" />
</font>
</defs>
</svg>
