<?xml version="1.0" standalone="no"?>
<!DOCTYPE svg PUBLIC "-//W3C//DTD SVG 1.1//EN" "http://www.w3.org/Graphics/SVG/1.1/DTD/svg11.dtd" >
<svg xmlns="http://www.w3.org/2000/svg">
<metadata>Generated by IcoMoon</metadata>
<defs>
<font id="hotwire-icons" horiz-adv-x="512">
<font-face units-per-em="512" ascent="480" descent="-32" />
<missing-glyph horiz-adv-x="512" />
<glyph unicode="&#x20;" d="" horiz-adv-x="256" />
<glyph unicode="&#xe000;" d="M410.709 241.621c-1.344 3.328-3.307 6.4-5.974 9.046-39.68 39.958-92.587 61.952-148.843 61.952-56.171 0-109.013-21.952-148.736-61.803-10.688-10.709-10.602-28.138 0.085-38.826 5.206-5.163 12.096-8 19.434-8s14.272 2.858 19.456 8.064c29.269 29.418 68.309 45.611 109.76 45.611 41.558 0 80.555-16.234 109.866-45.718 5.163-5.226 12.118-8.086 19.498-8.086 7.296 0 14.166 2.816 19.306 7.957 2.688 2.646 4.672 5.717 6.038 9.067 0.683 1.558 0.683 3.243 1.024 4.864 0.384 1.834 1.088 3.563 1.088 5.462 0 1.77-0.661 3.392-0.981 5.099-0.277 1.75-0.341 3.606-1.024 5.312zM255.936 209.024c-26.752 0-51.882-10.346-70.869-29.142-5.226-5.12-8.085-12.032-8.171-19.328-0.022-7.36 2.816-14.293 7.978-19.478 5.162-5.269 12.118-8.149 19.477-8.149 7.381 0 14.186 2.795 19.37 7.957 8.597 8.49 20.054 13.206 32.214 13.206 12.181 0 23.658-4.714 32.299-13.291 5.142-5.184 12.010-8.043 19.37-8.043s14.272 2.88 19.435 8.128c10.709 10.731 10.624 28.182-0.086 38.87-18.966 18.88-44.16 29.269-71.019 29.269zM482.666 322.070c-60.651 60.544-141.12 93.93-226.731 93.93-85.568 0-165.974-33.302-226.602-93.76-10.666-10.709-10.666-28.139 0-38.87 5.184-5.206 12.096-8.086 19.413-8.086 7.36 0 14.23 2.88 19.413 8.043 50.176 50.112 116.821 77.696 187.776 77.696 70.934 0 137.664-27.627 187.798-77.803 5.248-5.184 12.118-8.064 19.478-8.064 7.317 0 14.229 2.88 19.456 8.064 10.666 10.731 10.666 28.118 0 38.848zM291.264 70.933c0-19.5-15.808-35.307-35.306-35.307s-35.306 15.808-35.306 35.307c0 19.5 15.808 35.307 35.306 35.307 19.499 0 35.306-15.808 35.306-35.307z" />
<glyph unicode="&#xe001;" d="M330.325 359.382c0-15.246-12.36-27.606-27.606-27.606s-27.606 12.359-27.606 27.606c0 15.246 12.36 27.606 27.606 27.606 15.246 0 27.606-12.359 27.606-27.606zM483.328 148.139l-0.661-0.064c-1.152-0.086-2.24-0.171-3.413-0.171-9.813 0-18.048 3.328-26.774 6.784-9.002 3.627-18.325 7.36-29.675 7.36-11.37 0-20.672-3.733-29.717-7.36-8.683-3.456-16.938-6.784-26.752-6.784s-18.048 3.328-26.752 6.784c-3.776 1.493-7.68 3.008-11.669 4.288-5.12 1.6-10.582 2.752-16.555 2.966-0.49 0-0.938 0.106-1.45 0.106-11.349 0-20.672-3.733-29.696-7.36-8.704-3.456-16.918-6.784-26.774-6.784-9.792 0-18.048 3.328-26.709 6.784-9.046 3.627-18.368 7.36-29.738 7.36s-20.672-3.733-29.696-7.36c-8.704-3.456-16.917-6.784-26.752-6.784-9.814 0-18.048 3.328-26.731 6.784-9.024 3.627-18.346 7.36-29.718 7.36s-20.672-3.733-29.718-7.36c-8.682-3.456-16.896-6.784-26.752-6.784l-1.216 0.128c-0.427 0.043-0.811 0.086-1.28 0.086-0.277 0-0.576-0.043-0.64-0.043-13.717-0.363-24.491-11.456-24.491-25.173 0-11.861 8.085-21.974 19.669-24.555 1.942-0.448 3.755-0.661 5.547-0.661 0.341 0 0.619 0.043 0.619 0.064l0.576-0.022c0.448-0.022 0.832-0.043 1.28-0.043 11.371 0 20.693 3.733 29.738 7.339 8.683 3.498 16.918 6.784 26.731 6.784s18.048-3.286 26.731-6.784c9.046-3.606 18.368-7.339 29.718-7.339 11.35 0 20.672 3.733 29.718 7.339 8.683 3.498 16.917 6.784 26.731 6.784 9.834 0 18.048-3.286 26.752-6.784 9.024-3.606 18.346-7.339 29.696-7.339 10.176 0 18.666 3.008 26.816 6.208l-11.008-20.544c-10.262 1.579-20.864-3.286-25.963-12.971l-23.274-44.48c-6.4-12.202-1.685-27.286 10.518-33.707 12.224-6.378 27.307-1.642 33.707 10.56l23.274 44.48c5.099 9.707 3.072 21.184-4.118 28.714l18.858 35.158c2.454 0.426 4.992 0.704 7.637 0.704 9.813 0 18.026-3.286 26.731-6.784 9.046-3.606 18.368-7.339 29.718-7.339s20.651 3.733 29.717 7.339c8.704 3.498 16.918 6.784 26.752 6.784 9.792 0 18.048-3.286 26.731-6.784 9.024-3.606 18.346-7.339 29.718-7.339 2.837 0 5.632 0.256 8.298 0.683 1.728 0.192 3.286 0.49 4.822 0.96 10.603 3.286 17.707 12.885 17.707 23.894-0.086 26.56-26.112 25.024-26.816 24.918zM27.456 168.149l0.235-0.022c9.856 0 18.070 3.286 26.752 6.784 9.046 3.584 18.346 7.339 29.718 7.339s20.694-3.755 29.718-7.339c8.683-3.498 16.917-6.784 26.731-6.784 9.834 0 18.048 3.286 26.752 6.784 9.024 3.584 18.326 7.339 29.696 7.339s20.694-3.755 29.738-7.339c4.075-1.642 8.085-3.243 12.16-4.502 4.63-1.365 9.344-2.283 14.549-2.283 9.856 0 18.069 3.286 26.773 6.784 1.813 0.704 3.69 1.45 5.568 2.154 7.36 2.816 15.104 5.184 24.128 5.184 4.118 0 7.914-0.618 11.606-1.408 5.462-1.216 10.56-2.986 15.488-4.906 0.875-0.341 1.75-0.661 2.603-1.002 8.704-3.498 16.938-6.784 26.752-6.784 5.781 0 11.050 1.173 16.171 2.816 3.541 1.152 7.019 2.56 10.582 3.99 9.046 3.584 18.325 7.339 29.717 7.339 2.304 0 4.522-0.214 6.678-0.49 8.448-1.046 15.829-4.010 22.976-6.827 8.726-3.498 16.96-6.784 26.774-6.784 1.173 0 2.262 0.043 3.413 0.149l0.661 0.064c0.106 0.022 0.981 0.043 2.197 0.022 15.424 7.552 26.389 26.688 26.474 49.258 0 0-77.974 5.952-146.667 11.178l36.202 67.563c0.064 0.192 0.171 0.298 0.256 0.47l25.792 48.149c10.134-1.344 20.459 3.542 25.45 13.077l23.274 44.459c6.421 12.202 1.685 27.286-10.517 33.707-12.202 6.378-27.307 1.664-33.685-10.56l-23.296-44.48c-5.163-9.856-3.008-21.525 4.48-29.077l-17.962-33.472c-3.072 2.176-6.592 3.733-10.603 3.733h-105.558c-3.008 0-5.717-0.875-8.214-2.133-10.070-3.584-18.475-11.456-22.101-22.4l-22.613-68.309h75.478l15.168 45.803c1.088 3.35 1.514 6.698 1.622 10.048h59.008l-36.757-68.608c-17.152-7.317-43.947-12.075-74.346-12.075-46.464 0-84.906 11.008-92.48 25.451l-173.525-12.608c0.042-22.805 11.35-42.048 26.986-49.45z" />
<glyph unicode="&#xe002;" d="M503.552 17.792l-146.944 146.858-41.322-41.216 147.050-146.986c5.717-5.654 13.184-8.448 20.63-8.448 7.466 0 14.954 2.88 20.694 8.598 11.37 11.413 11.35 29.846-0.106 41.195zM216.661 294.016l42.731-42.688c3.563 7.317 5.93 15.274 6.954 23.808l-34.262 34.24 24.512 24.49c-2.901 6.805-6.422 13.611-10.475 20.31l-29.462-29.419-55.722 55.744 29.91 29.888c-6.486 4.117-13.12 7.85-19.819 10.901l-25.451-25.408-36.48 36.438c-8.683-1.067-16.662-3.392-23.915-6.87l44.992-44.95-30.379-30.336-44.971 45.014c-3.52-7.275-5.803-15.317-6.827-24.022l36.416-36.394-25.216-25.194c3.093-6.763 6.678-13.44 10.837-19.926l29.76 29.76 55.744-55.702-29.035-29.077c6.635-4.011 13.418-7.51 20.288-10.432l24.171 24.128 33.792-33.77c8.726 0.981 16.79 3.286 24.042 6.72l-42.453 42.453 30.315 30.293zM115.2 334.762l30.378 30.358 55.722-55.723-30.336-30.315-55.766 55.68zM346.688 175.339c-0.768 3.115-36.63 149.248-37.952 151.552-7.445 33.728-24.896 67.435-53.013 95.552-37.974 37.867-86.123 57.536-130.752 57.536-34.070 0-66.091-11.498-89.942-35.050-0.042-0.042-0.042-0.085-0.042-0.085l-0.064-0.043c-23.53-23.851-35.072-55.829-35.072-89.92 0-44.565 19.669-92.672 57.578-130.624 28.054-28.139 61.803-45.589 95.552-53.056 2.346-1.322 148.608-37.163 151.659-37.888l42.048 42.026zM82.538 248.853c-26.709 26.688-44.331 59.349-49.621 92.053-5.398 33.664 2.752 63.382 23.082 83.67 16.106 16.128 38.272 24.661 64.043 24.661 37.952 0 79.722-19.136 111.787-51.2 55.786-55.787 67.69-134.635 26.517-175.744-16.107-16.128-38.272-24.64-64.064-24.64-37.93 0-79.68 19.136-111.744 51.2zM297.707 182.656c-0.661-0.661 0.448 0.469-0.192-0.214-11.307-11.413-31.723-13.589-43.221-2.325l7.851 7.808-0.128 0.106 14.848 15.062 22.912 22.613c11.328-11.52 9.387-31.702-2.070-43.050z" />
<glyph unicode="&#xe003;" d="M255.872 373.974c-33.195-24.598-56.448-61.738-62.742-104.469 5.632-4.374 11.072-9.024 16.171-14.186 29.056-28.992 44.458-66.539 46.293-104.576 0.234 0 0.384 0 0.576 0 1.877 38.080 17.259 75.563 46.336 104.576 5.099 5.142 10.538 9.792 16.171 14.186-6.293 42.752-29.611 79.872-62.805 104.469zM223.040 150.827c-19.882 26.538-31.637 59.498-31.637 95.21 0 7.958 0.619 15.744 1.728 23.467-34.965 26.582-78.421 36.842-119.915 30.656-6.165-41.365 4.032-84.714 30.57-119.659 7.872 1.259 15.957 1.834 24.15 1.834 35.669 0 68.587-11.67 95.104-31.51zM288.469 150.464c9.002 6.678 18.709 12.63 29.034 17.365 20.267 9.301 42.816 14.507 66.56 14.507 8.128 0 16.128-0.576 23.957-1.75 26.496 34.923 36.693 78.208 30.55 119.573-41.493 6.208-84.971-4.053-119.915-30.656 1.173-7.723 1.728-15.51 1.728-23.467 0.022-35.968-11.84-68.992-31.914-95.573zM437.717 173.034c-9.493 3.37-19.413 5.909-29.675 7.552v0c10.24-1.622 20.16-4.16 29.675-7.552zM437.717 62.613c29.952 10.774 55.722 30.144 74.283 55.274v0c-18.56-25.13-44.331-44.522-74.283-55.274zM256.128 117.866v0c15.829-21.418 36.95-38.656 61.397-50.005-24.448 11.349-45.568 28.587-61.397 50.005zM317.526 167.829c20.267 9.301 42.816 14.507 66.56 14.507-23.744 0-46.293-5.205-66.56-14.507zM408.043 180.587v0c-7.829 1.173-15.829 1.75-23.957 1.75 8.128 0 16.128-0.576 23.957-1.75zM437.717 62.613c-16.789-5.909-34.858-9.28-53.632-9.28 18.774 0 36.843 3.37 53.632 9.28zM512 117.866v0c-18.56 25.046-44.331 44.48-74.283 55.168 29.952-10.688 55.722-30.123 74.283-55.168zM384.086 53.334c-23.744 0-46.293 5.226-66.56 14.55 20.267-9.322 42.816-14.55 66.56-14.55zM256.875 118.827c-0.298-0.32-0.534-0.618-0.747-0.96v0c0.214 0.341 0.448 0.661 0.747 0.96v0zM317.526 167.829c-10.325-4.757-20.032-10.688-29.034-17.365v0c8.981 6.678 18.688 12.63 29.034 17.365zM512 117.866c-18.56 25.046-44.331 44.48-74.283 55.168-9.493 3.37-19.413 5.909-29.675 7.552-4.352-5.76-9.13-11.221-14.336-16.469-37.077-37.056-87.894-52.010-136.085-44.843 0 0.064-0.512-0.277-0.747-0.448-0.298-0.32-0.534-0.618-0.747-0.96 15.829-21.418 36.95-38.656 61.397-50.005 20.267-9.322 42.816-14.55 66.56-14.55 18.774 0 36.864 3.37 53.632 9.28 29.952 10.774 55.723 30.166 74.282 55.274zM254.186 119.274c-48.192-7.19-99.030 7.765-136.107 44.842-5.227 5.248-9.984 10.731-14.314 16.406-42.346-6.528-79.317-29.696-103.766-62.656 29.035-39.125 75.541-64.534 127.915-64.534 52.48 0 98.987 25.408 127.957 64.534-0.107 0.149-0.298 0.341-0.405 0.512-0.427 0.32-1.28 0.96-1.28 0.896zM254.186 119.339c0 0 1.578 0.256 1.685 0.341 0.17 0.043 1.835-0.406 1.941-0.406 0.128-0.064-1.685-1.387-1.685-1.387h-0.448l-1.494 1.45z" />
<glyph unicode="&#xe004;" d="M80.15 367.894c0-20.383-16.523-36.907-36.907-36.907-20.383 0-36.907 16.524-36.907 36.907 0 20.383 16.523 36.906 36.907 36.906 20.383 0 36.907-16.523 36.907-36.906zM51.029 257.621c8.874 3.52 17.067 6.784 26.859 6.784s17.963-3.242 26.602-6.698c9.323-3.69 18.624-7.446 29.974-7.446s20.65 3.712 29.654 7.274c8.96 3.584 17.152 6.848 26.987 6.848 9.792 0 17.984-3.264 26.667-6.72 4.245-1.685 7.829-3.030 11.37-4.181 12.459 1.494 21.632 12.437 20.694 25.046-0.982 12.928-12.118 22.57-25.216 21.654l-85.013-17.6-50.326 30.784c-18.709 10.496-34.346 11.947-50.261 3.477-20.822-11.114-28.758-36.992-17.6-57.856l4.139-7.808c8.79-0.064 17.109 3.136 25.472 6.442zM504.981 248.746v65.856c0 26.56-21.611 48.171-48.192 48.171h-47.019c-26.56 0-48.171-21.632-48.171-48.171v-17.066h31.232v17.066c0 9.322 7.574 16.939 16.938 16.939h47.019c9.344 0 16.918-7.616 16.918-16.939v-99.050c-9.813 0.086-18.304 3.456-26.517 6.72-9.002 3.626-18.304 7.36-29.718 7.36-11.37 0-20.714-3.733-29.76-7.36-8.298-3.307-16.896-6.762-26.858-6.762-9.984 0-18.56 3.456-26.858 6.762-9.024 3.626-18.346 7.36-29.781 7.36-11.435 0-20.736-3.733-29.738-7.36-8.256-3.307-16.832-6.762-26.838-6.762s-18.582 3.456-26.88 6.762c-9.024 3.626-18.346 7.36-29.738 7.36-11.434 0-20.757-3.733-29.718-7.36-8.32-3.307-16.917-6.762-26.923-6.762-9.942 0-18.538 3.456-26.858 6.762-9.024 3.626-18.346 7.36-29.739 7.36-11.35 0-20.694-3.733-29.739-7.36-12.907-5.184-29.334-11.264-41.813-2.112v-102.762c0.106-47.147 38.294-85.397 85.504-85.397h328.512c47.168 0 85.418 38.25 85.418 85.418v131.328h-0.683z" />
<glyph unicode="&#xe005;" d="M256 480c-141.398 0-256-114.624-256-256s114.603-256 256-256 256 114.624 256 256-114.603 256-256 256zM412.352 112.96l-55.36 55.339h-90.496l100.608-100.587c-31.402-22.378-69.696-35.712-111.104-35.712-105.877 0-192 86.144-192 192 0 41.429 13.334 79.702 35.712 111.104l55.574-55.574h90.475l-100.821 100.822c31.403 22.336 69.696 35.648 111.061 35.648 105.877 0 192-86.123 192-192 0-41.365-13.291-79.659-35.648-111.040zM178.774 256h-61.654v-64h227.499v64h-75.35zM360 192h35.99v64h-35.99zM393.6 271.786c0 23.018-7.168 41.728-21.248 55.702-23.978 23.723-59.733 23.851-60.651 23.594-18.666 0-31.786 7.126-40.128 21.739l-27.84-15.808c9.814-17.322 29.632-37.952 68.117-37.952 0.298 0.448 23.274 0.149 37.952-14.336 7.914-7.851 11.755-18.646 11.755-32.939h32.043z" />
<glyph unicode="&#xe006;" d="M510.144 89.067c-4.118 7.851-13.803 10.858-21.654 6.72l-174.25-91.84-18.794 5.781c-8.469 2.603-17.43-2.197-19.99-10.646-2.624-8.448 2.154-17.387 10.582-20.010l25.13-7.68c1.536-0.448 3.115-0.704 4.714-0.704 2.582 0 5.142 0.618 7.466 1.856l180.054 94.912c7.872 4.118 10.859 13.824 6.741 21.611zM313.75 172.245l36.224-2.197c0.341-0.022 0.64-0.043 1.002-0.043 2.432 0 4.864 0.555 7.062 1.642l28.288 13.888c3.307-4.587 7.082-9.792 13.206-17.984l-61.675-29.568c-4.522-2.197-7.765-6.293-8.768-11.178-1.024-4.885 0.32-9.984 3.563-13.76l43.178-49.899c3.178-3.67 7.616-5.546 12.118-5.546 3.712 0 7.445 1.301 10.474 3.904 6.678 5.803 7.424 15.894 1.622 22.613l-29.462 34.048 60.416 28.992c4.31 2.070 7.531 5.995 8.618 10.666 1.152 4.672 0.106 9.6-2.795 13.44-10.837 14.272-16.875 22.442-21.418 28.63l81.685 40.171c7.936 3.904 11.178 13.482 7.317 21.44-3.882 7.914-13.526 11.158-21.462 7.296l-86.656-42.624c-3.050 4.054-6.635 8.875-11.221 14.934-5.334 7.083-15.36 8.49-22.421 3.136-7.040-5.333-8.448-15.381-3.115-22.443 2.858-3.818 5.291-7.062 7.531-10.026l-19.328-9.493-32 1.942c-9.046 0.32-16.448-6.166-16.981-14.976-0.534-8.853 6.166-16.426 14.998-17.002zM370.624 272.47c0-14.257-11.557-25.814-25.813-25.814s-25.813 11.557-25.813 25.814c0 14.256 11.557 25.813 25.813 25.813 14.257 0 25.813-11.557 25.813-25.813zM291.115 480h-291.115v-374.187l84.544 39.744v65.813c0 0.363-0.128 0.726-0.128 1.13 0 0.406 0.128 0.747 0.128 1.13 0.15 7.574 1.664 14.742 4.309 21.398 8.939 22.208 30.635 37.91 56 37.91 1.6 0 3.136-0.256 4.736-0.384 23.317-1.792 42.923-16.746 51.286-37.546 2.794-6.976 5.142-14.613 4.458-22.55 0.298 3.648 0.619-13.334 0.128-0.448l0.022-19.606 85.61 40.832v246.762zM118.421 304.81h-58.837v51.541h58.837v-51.541zM118.421 385.024h-58.837v51.584h58.837v-51.584zM231.53 304.81h-58.838v51.541h58.838v-51.541zM172.694 385.024v51.584h58.838v-51.584h-58.838z" />
<glyph unicode="&#xe007;" d="M240.427 476.032c-14.166 14.144-42.453-14.144-42.453-14.144l-28.288-28.288-155.563 14.165-14.123-14.165 127.296-42.432-56.618-56.555h-56.554l-14.123-14.144 56.554-28.31 28.267-56.554 14.165 14.144v56.576l56.555 56.576 42.389-127.274 14.166 14.144-14.144 155.563 28.331 28.288c0-0.022 28.288 28.267 14.144 42.41zM512 258.070c-3.286 9.066-11.882 15.104-21.546 15.104h-231.040c-9.621 0-18.24-6.038-21.504-15.104l0.149-126.699c0-19.968-0.149-74.134-0.149-74.134 0-18.048 10.518-33.493 25.749-40.918v-25.493c0-12.608 10.219-22.826 22.87-22.826 12.63 0 22.87 10.219 22.87 22.827v20.714h131.050v-20.714c0-12.608 10.24-22.827 22.912-22.827 12.63 0 22.87 10.219 22.87 22.827v25.493c15.211 7.424 25.77 22.89 25.77 40.938 0 0-0.192 54.166-0.192 74.133l0.192 126.678zM319.957 254.891h109.952c7.125 0 12.885-5.76 12.885-12.886 0-7.104-5.76-12.886-12.885-12.886h-109.952c-7.082 0-12.885 5.781-12.885 12.886 0.022 7.125 5.803 12.886 12.885 12.886zM288.49 35.115c-9.813 0-17.792 7.936-17.792 17.77 0 9.792 7.978 17.75 17.792 17.75 9.834 0 17.813-7.957 17.813-17.75 0-9.834-7.978-17.77-17.813-17.77zM461.376 35.115c-9.813 0-17.792 7.936-17.792 17.77 0 9.792 7.978 17.75 17.792 17.75 9.834 0 17.813-7.957 17.813-17.75 0-9.834-7.978-17.77-17.813-17.77zM484.842 107.755h-219.286v104.043h219.264v-104.043z" />
<glyph unicode="&#xe008;" d="M507.861 283.286c-3.541 9.834-12.885 16.406-23.402 16.406h-251.114c-10.453 0-19.84-6.55-23.381-16.406l0.171-137.728c0-21.696-0.171-80.555-0.171-80.555 0-19.584 11.456-36.373 27.989-44.48v-27.69c0-13.717 11.114-24.832 24.874-24.832 13.738 0 24.853 11.115 24.853 24.832v22.507h142.486v-22.507c0-13.717 11.136-24.832 24.896-24.832 13.738 0 24.853 11.115 24.853 24.832v27.69c16.512 8.106 27.99 24.896 27.99 44.48 0 0-0.192 58.88-0.192 80.555l0.149 137.728zM299.136 279.829h119.51c7.723 0 13.974-6.272 13.974-13.994s-6.25-13.995-13.974-13.995h-119.51c-7.702 0-13.995 6.272-13.995 13.995 0 7.722 6.293 13.994 13.995 13.994zM452.842 40.938c-10.666 0-19.307 8.618-19.307 19.307 0 10.666 8.64 19.286 19.307 19.286 10.709 0 19.349-8.618 19.349-19.286 0-10.688-8.64-19.307-19.349-19.307zM261.824 40.938c-10.666 0-19.306 8.618-19.306 19.307 0 10.666 8.64 19.286 19.306 19.286 10.709 0 19.349-8.618 19.349-19.286 0.022-10.688-8.64-19.307-19.349-19.307zM478.358 119.914h-238.336v113.067h238.336v-113.067zM102.186 444.63c-6.4 20.438-25.195 35.37-47.744 35.37-27.797 0-50.304-22.528-50.304-50.304 0-22.507 14.89-41.344 35.264-47.744v-18.389h29.994v18.389c15.616 4.906 27.819 17.088 32.746 32.683h15.957v29.995h-15.915zM156.565 444.63h38.934v-29.995h-38.934v29.995zM39.424 325.142h29.994v-38.934h-29.995v38.934zM39.424 152.022c-20.373-6.4-35.264-25.259-35.264-47.766 0-27.776 22.506-50.283 50.282-50.283s50.261 22.528 50.261 50.283c0 22.528-14.87 41.365-35.285 47.765v18.389h-29.995v-18.389zM323.456 414.635c6.486-20.374 25.259-35.221 47.765-35.221 27.776 0 50.24 22.528 50.24 50.283 0.022 27.776-22.464 50.304-50.24 50.304-22.57 0-41.387-14.933-47.786-35.37h-12.16v-29.995h12.182zM39.424 247.786h29.994v-38.933h-29.995v38.934zM233.92 444.63h38.934v-29.995h-38.934v29.995z" />
<glyph unicode="&#xe009;" d="M101.334 355.712c17.6 0 31.894 14.272 31.894 31.936 0 17.621-14.293 32-31.894 32-17.664 0-32-14.379-32-32 0-17.664 14.336-31.936 32-31.936zM156.054 346.070l-54.742 0.149-54.742-0.149c-8.618-0.107-15.893-6.293-17.472-14.784l-28.779-131.37c-4.138-25.365 31.424-31.082 34.048-5.76l17.13 76.202v-47.082c0-0.683 0.15-1.28 0.17-1.92 0-0.235-0.042-0.448-0.042-0.512v-192.277c0-9.899 9.046-17.92 21.056-17.92 9.835 0 17.834 8.022 17.834 17.92l4.245 139.99h13.078l4.181-139.99c0-9.899 8.022-17.92 17.962-17.92 13.291 0 20.971 8.022 20.971 17.92v192.278c0 0.064-0.085 0.277-0.085 0.512 0.022 0.64 0.192 1.259 0.192 1.92v47.104l17.173-76.202c2.602-25.344 38.144-19.627 34.026 5.76l-28.821 131.349c-1.514 8.49-8.768 14.678-17.387 14.784zM418.517 340.885c17.579 0 31.872 14.272 31.872 31.915s-14.293 32-31.872 32c-17.685 0-32-14.336-32-32s14.315-31.915 32-31.915zM480.555 316.31c-1.493 8.022-8.469 13.93-16.618 13.994l-47.957 0.171-43.050-0.171c-8.192-0.064-15.125-5.973-16.598-13.994l-31.36-116.757c-3.947-24.171 29.974-29.611 32.448-5.44l24.128 95.594 1.579-39.702-35.606-145.344h23.978c-0.043-38.208-0.043-76.864-0.043-76.864 0-9.45 6.123-17.13 20.010-17.13 9.408 0 17.046 7.659 17.046 17.13l2.304 76.864h15.168l2.283-76.864c0-9.45 7.659-17.13 17.046-17.13 16.192 0 20.010 7.659 20.010 17.13 0 0 0 38.656-0.022 76.864h23.978l-34.048 145.344 0.448 39.382 23.51-95.274c2.454-24.171 36.373-18.731 32.426 5.44l-31.062 116.757zM261.077 21.184c-10.88 0-19.69 8.81-19.69 19.712v371.67c0 10.901 8.81 19.712 19.69 19.712s19.69-8.81 19.69-19.712v-371.67c0-10.901-8.81-19.712-19.69-19.712z" />
<glyph unicode="&#xe00a;" d="M158.293 329.621c1.792-1.813 4.181-2.709 6.549-2.709 2.453 0 4.886 0.938 6.698 2.774 3.626 3.69 3.563 9.642-0.107 13.226-11.691 11.563-13.184 26.688-4.096 40.746 15.978 24.576 15.018 48.214-2.624 66.538-3.626 3.712-9.558 3.818-13.291 0.214-3.69-3.627-3.84-9.536-0.234-13.226 4.245-4.416 17.088-17.707 0.427-43.307-13.93-21.354-11.286-46.635 6.678-64.256zM113.835 329.621c1.814-1.813 4.203-2.709 6.592-2.709 2.41 0 4.864 0.938 6.677 2.774 3.648 3.69 3.584 9.642-0.106 13.226-11.691 11.563-13.227 26.688-4.118 40.746 16 24.576 15.083 48.214-2.645 66.538-3.584 3.712-9.536 3.818-13.248 0.214-3.734-3.627-3.797-9.536-0.234-13.226 4.203-4.416 17.046-17.707 0.448-43.307-13.974-21.354-11.328-46.635 6.635-64.256zM69.418 329.621c1.792-1.813 4.138-2.709 6.549-2.709 2.432 0 4.864 0.938 6.698 2.774 3.584 3.69 3.584 9.642-0.128 13.226-11.669 11.563-13.184 26.688-4.075 40.746 15.978 24.576 15.082 48.214-2.666 66.538-3.606 3.712-9.514 3.818-13.27 0.214-3.712-3.627-3.819-9.536-0.214-13.226 4.224-4.416 17.088-17.707 0.448-43.307-13.952-21.354-11.328-46.635 6.656-64.256zM111.957 277.824c-62.080-1.408-78.998-22.635-78.998-51.029h171.2c0 31.424-16.853 49.834-78.912 51.029zM129.707 288.96c0-6.139-4.976-11.115-11.114-11.115s-11.114 4.976-11.114 11.115c0 6.138 4.976 11.114 11.114 11.114 6.138 0 11.114-4.976 11.114-11.114zM227.264 197.952h-217.387l-9.877 20.373h237.12zM420.224 211.712c0-23.659-19.179-42.837-42.837-42.837s-42.837 19.179-42.837 42.837c0 23.659 19.179 42.838 42.837 42.838 23.659 0 42.837-19.179 42.837-42.838zM473.046 121.622c-2.005 11.2-11.69 19.456-23.125 19.627h-38.656l-33.899-93.248-33.899 93.248h-24.171c-0.875 0.086-1.75 0.043-2.624 0 0 0-6.293-0.149-11.712-3.37-5.397-3.2-37.568-17.856-70.762-32.448l-46.698 68.032c-7.51 10.966-22.486 13.738-33.365 6.229-10.965-7.531-13.738-22.464-6.208-33.387l57.941-84.438c4.608-6.72 12.075-10.454 19.819-10.454 3.2 0 6.464 0.661 9.578 2.005 21.952 9.6 54.826 24.043 76.181 34.176v-109.675c0-0.918 0.214-1.728 0.277-2.624 0-0.256-0.086-0.469-0.086-0.747v-6.55h131.413v6.55c0 0.277-0.064 0.49-0.064 0.747 0.064 0.896 0.298 1.707 0.298 2.624v93.291l26.048-103.21h42.666l-38.954 153.621z" />
<glyph unicode="&#xe00b;" d="M237.418 480l-7.125-96.384h-26.389l-5.376 96.384h-17.387l-6.805-96.384h-26.070l-5.994 96.384h-16.213l-9.43-97.536c0-59.925 49.643-58.112 49.643-58.112l-2.602-330.474c0-14.315 11.606-25.877 25.898-25.877 14.25 0 25.814 11.563 25.814 25.877l-2.56 330.474c0 0 49.237-1.792 49.237 59.968l-9.046 95.68h-15.595zM357.014 480c-21.142 0-38.293-17.13-38.293-38.272l-15.851-197.547c-0.171-1.152-0.426-4.267-0.384-4.736 0.704-9.238 7.914-16.448 17.11-17.28 0.555-0.043 2.709-0.043 3.243 0 9.707 0 25.11 0 29.163 0l-8.384-228.288c0-14.315 11.584-25.877 25.834-25.877 14.293 0 25.899 11.563 25.899 25.877v447.851c0.022 21.142-17.13 38.272-38.336 38.272z" />
<glyph unicode="&#xe00c;" d="M98.368 161.622c0-26.781-21.71-48.49-48.49-48.49-26.78 0-48.49 21.71-48.49 48.49 0 26.781 21.71 48.49 48.49 48.49 26.781 0 48.49-21.71 48.49-48.49zM510.613 161.622c0-26.781-21.71-48.49-48.49-48.49s-48.49 21.71-48.49 48.49c0 26.781 21.71 48.49 48.49 48.49 26.781 0 48.49-21.71 48.49-48.49zM32-14.144c0-9.856 8.022-17.856 17.877-17.856s17.877 8 17.877 17.856v108.95h-35.755v-108.95zM444.245-14.144c0-9.856 8-17.856 17.856-17.856 9.877 0 17.877 8 17.877 17.856v108.95h-35.733v-108.95zM367.019 452.394h-67.606c-7.723 16.278-24.214 27.606-43.413 27.606-19.221 0-35.69-11.328-43.456-27.606h-67.563v-20.65h-33.621v-463.744h84.011v127.488h120.171l0.064-127.488h85.034v463.744h-33.621v20.651zM195.328 113.834c-0.042 9.664-0.064 23.702-0.064 23.978s0.064-14.87 0.064-23.978v0zM207.53 113.834h-11.434c0.683 5.034 1.75 9.962 3.584 14.507 1.984 4.928 4.694 9.493 7.829 13.675v-28.181zM229.056 229.525h-58.496v51.221h58.496v-51.221zM229.056 309.248h-58.496v51.243h58.496v-51.243zM245.206 113.834h-16.149v46.123c5.013 2.454 10.453 4.202 16.149 5.163v-51.286zM282.709 113.834h-15.914v50.816c5.632-1.088 10.944-2.944 15.914-5.483v-45.334zM304.235 113.834v26.624c2.688-3.755 5.014-7.765 6.784-12.118 1.834-4.587 3.349-9.45 4.053-14.507h-10.837zM341.418 229.525h-58.474v51.221h58.474v-51.221zM341.418 309.248h-58.474v51.243h58.474v-51.243z" />
<glyph unicode="&#xe00d;" d="M512 79.062v-111.062h-34.966v70.933h-442.070v-70.933h-34.965v111.062zM101.334 344.384v-76.224h-101.334v41.77h61.206v34.454zM129.707 153.301c0-27.063-21.939-49.002-49.002-49.002s-49.002 21.939-49.002 49.002c0 27.063 21.939 49.002 49.002 49.002 27.064 0 49.002-21.939 49.002-49.002zM151.702 193.877c27.968 5.44 56.746 8.384 86.293 8.384 102.549 0 196.992-34.432 272.576-92.288h-358.87v83.904zM169.002 363.712h-169.002l39.211 116.288h90.582zM395.008 226.090c-63.766 0-115.67 56.853-115.67 126.72s51.904 126.72 115.669 126.72 115.669-56.853 115.669-126.72-51.904-126.72-115.669-126.72zM395.008 447.552c-46.123 0-83.67-42.496-83.67-94.72s37.546-94.72 83.669-94.72 83.669 42.496 83.669 94.72-37.546 94.72-83.669 94.72z" />
<glyph unicode="&#xe00e;" d="M511.851 80.448v-112.448h-34.858v71.829h-442.134v-71.829h-34.858v112.448zM129.28 155.627c0-27.405-21.863-49.622-48.832-49.622-26.969 0-48.832 22.216-48.832 49.621 0 27.405 21.863 49.621 48.832 49.621 26.969 0 48.832-22.216 48.832-49.621zM151.21 196.714c27.862 5.526 56.597 8.49 85.994 8.49 102.208 0 196.373-34.88 271.702-93.462h-357.696v84.971zM414.486 398.187c4.33 0.277 8.64-0.576 12.95-0.299 14.4 0 32.512 3.798 32.512 21.334 0 13.163-12.95 20.459-28.8 20.459-19.861 0-31.339-10.517-31.040-28.906h-45.738c1.173 45.568 33.642 69.226 76.502 69.226 34.816 0 74.816-14.912 74.816-56.406 0-17.814-9.514-36.522-27.904-39.723v-0.576c22.998-6.144 34.218-22.827 34.218-46.784 0-46.166-41.408-65.45-81.13-65.45-46.87 0-84.864 24.256-81.942 76.565h45.738c-0.618-24.256 11.178-36.245 35.925-36.245 16.704 0 32.512 7.317 32.512 25.131 0 22.506-16.106 27.755-35.67 27.755-4.31 0-8.618-0.299-12.95-0.598v34.517z" />
<glyph unicode="&#xe00f;" d="M512 79.062v-111.062h-34.966v70.933h-442.070v-70.933h-34.965v111.062zM129.728 153.301c0-27.063-21.939-49.002-49.002-49.002s-49.002 21.939-49.002 49.002c0 27.063 21.939 49.002 49.002 49.002 27.064 0 49.002-21.939 49.002-49.002zM151.722 193.877c27.946 5.44 56.725 8.384 86.272 8.384 102.549 0 196.992-34.432 272.598-92.288h-358.87v83.904zM344.832 268.864c0.298 26.624 11.968 51.733 32.576 69.376 17.962 15.552 38.293 26.304 54.442 36.48 15.851 10.474 27.2 20.63 27.2 34.688 0 16.149-10.752 26.005-26.901 26.005-26.923 0-34.411-19.435-34.731-42.154h-47.552c-2.966 51.755 29.974 86.741 81.984 86.741 41.28 0 78.037-21.546 78.037-66.091 0-40.085-28.693-55.040-59.2-73.877-15.829-9.856-24.235-14.955-37.696-28.096h99.008v-43.072h-167.168z" />
<glyph unicode="&#xe010;" d="M294.592 125.205l19.178 9.365-94.486 197.418 193.75 96.768c-71.339 53.206-168 67.606-254.678 30.678l-4.374 9.11c-2.56 5.312-8.917 7.552-14.25 5.013-5.312-2.56-7.573-8.917-5.035-14.25l4.31-9.046c-86.614-45.589-137.002-134.4-137.322-226.923l198.486 99.115 94.421-197.248zM507.094 3.050l-100.906 134.635c-6.187 8.277-17.408 10.923-26.666 6.25l-136.234-68.416c-16.448 3.498-33.365 5.334-50.645 5.334-24.149 0-47.637-3.606-70.016-10.432l-63.702 134.25c-5.078 10.666-17.813 15.19-28.459 10.154-10.688-5.056-15.21-17.813-10.176-28.459l62.72-132.096c-30.784-15.978-58.218-38.699-80.213-67.35-3.563-4.693-2.667-11.392 2.005-14.976 4.694-3.584 11.392-2.709 14.998 1.962 19.84 25.92 44.608 46.507 72.406 60.992l22.464-47.339c2.475-5.205 6.912-9.216 12.352-11.072 5.461-1.856 11.414-1.472 16.512 1.13l131.158 65.856c35.904-14.613 67.69-38.827 92.010-71.168 2.134-2.816 5.312-4.288 8.534-4.288 2.24 0 4.502 0.704 6.442 2.176 1.216 0.918 2.197 2.048 2.901 3.307 2.24 3.072 2.795 7.232 1.046 10.901l-35.947 75.094-19.008-9.707 4.438-9.259-5.781-2.582c-1.259 0.896-21.888 13.632-21.888 13.632-2.688 1.493-5.354 2.901-8.064 4.267l83.328 41.899 90.219-120.363c4.224-5.611 10.624-8.555 17.11-8.555 4.48 0 8.96 1.387 12.822 4.267 9.408 7.082 11.328 20.48 4.245 29.952zM143.915 25.579l-12.011 25.301c19.456 5.632 39.872 8.598 60.757 8.598 5.781 0 11.541-0.32 17.238-0.747l-65.984-33.152z" />
<glyph unicode="&#xe011;" d="M17.792 46.976h129.899v134.933h57.002v-134.933h32.47v322.262h-219.37v-322.262zM147.69 336.043h57.002v-84.288h-57.002v84.288zM50.282 336.875h57.002v-84.288h-57.002v84.288zM3.37 386.176h251.094l-126.614 93.824zM273.173 46.976h129.899v134.933h57.002v-134.933h32.49v322.262h-219.392v-322.262zM403.072 336.043h57.002v-84.288h-57.002v84.288zM305.664 336.875h57.002v-84.288h-57.002v84.288zM374.976-32h115.563v62.57h-115.563zM118.4-32h115.563v62.57h-115.563zM381.974 480l-124.438-93.824h251.094z" />
<glyph unicode="&#xe012;" d="M342.378 317.547c0.832 30.912 16.555 76.778 25.558 100.714l-41.387 16.149c-9.387-23.744-28.565-68.438-48.726-91.968-21.397-24.938-42.282-44.544-62.805-82.56h125.738c1.514 20.096 1.067 38.229 1.622 57.664zM339.584 247.254h-82.858v-37.952h123.733l5.354 37.846h-46.23zM256.726 197.462v-120.128h-103.104c-0.47 0.534-0.853 1.002-1.258 1.493v118.635h-38.72l32.32-229.462h200.534l32.298 229.462h-122.070zM152.384 247.147h-45.718l5.334-37.846h40.384zM373.546 425.365l-47.125 18.837 14.613 35.798 47.125-18.858z" />
<glyph unicode="&#xe013;" d="M451.478 333.034c0-25.827-20.937-46.762-46.762-46.762-25.827 0-46.762 20.936-46.762 46.762 0 25.827 20.937 46.762 46.762 46.762 25.827 0 46.762-20.936 46.762-46.762zM87.573 243.819c11.35-4.544 22.058-8.875 34.858-8.875 12.779 0 23.51 4.309 34.794 8.875 11.798 4.672 23.936 9.558 38.698 9.558 14.784 0 26.965-4.886 38.678-9.558 5.376-2.197 10.582-4.245 15.915-5.803 5.995-1.814 12.16-3.072 18.944-3.072 12.8 0 23.51 4.309 34.858 8.875 2.411 0.939 4.822 1.877 7.253 2.816 9.536 3.606 19.669 6.742 31.424 6.742 12.182 0 22.55-3.306 32.384-7.061-16.171 27.904-54.187 94.016-76.245 133.654-4.394 7.936-8.214 14.848-11.050 20.16l22.741 4.352 68.714 13.312c16.853 3.243 27.861 19.541 24.598 36.394s-19.563 27.818-36.352 24.576l-107.328-20.715c-3.286-0.32-6.464-0.938-9.514-1.856-19.114-5.866-33.046-23.659-33.046-44.693 0-7.787 1.941-15.104 5.312-21.59 0.192-0.384 0.448-0.81 0.619-1.237 7.36-13.739 17.066-31.958 26.389-49.43l-172.843-91.52c3.499-1.216 6.848-2.582 10.198-3.904zM511.19 19.008c-0.064 17.45-15.402 31.382-32.406 32.384-15.211 1.002-30.272-3.498-44.245-9.046-4.63-1.942-9.195-3.755-13.781-5.163-6.656-2.219-13.462-3.712-21.034-3.712-12.8 0-23.51 4.33-34.837 8.875-11.733 4.63-23.894 9.493-38.678 9.493-11.776 0-21.846-3.094-31.402-6.678-2.454-0.938-4.885-1.877-7.274-2.816-11.328-4.544-22.058-8.875-34.858-8.875-6.762 0-12.906 1.216-18.944 3.008-5.355 1.622-10.582 3.69-15.893 5.866-11.776 4.63-23.936 9.493-38.678 9.493-14.784 0-26.923-4.885-38.698-9.493-11.286-4.544-22.016-8.875-34.816-8.875-12.822 0-23.488 4.33-34.838 8.875-10.858 4.31-22.294 8.384-35.584 9.046-0.81 0.086-1.45 0.448-2.645 0.384-18.048-0.171-32.533-14.699-32.533-32.746 0-17.792 14.101-32.022 31.616-32.704 0.469 0 0.81-0.256 1.813-0.128 12.096-0.32 22.549-4.31 33.493-8.618 11.712-4.779 23.872-9.579 38.656-9.579s26.901 4.8 38.678 9.536c11.286 4.502 22.037 8.81 34.838 8.81s23.51-4.31 34.858-8.81c11.712-4.736 23.872-9.536 38.678-9.536 14.742 0 26.944 4.8 38.677 9.536 11.328 4.502 22.038 8.81 34.837 8.81s23.51-4.31 34.858-8.81c11.733-4.736 23.872-9.536 38.656-9.536s26.944 4.8 38.699 9.536c7.168 2.88 14.358 5.866 22.016 7.253 16.661 3.158 38.016 4.373 47.488 20.95 2.283 4.010 3.286 8.64 3.286 13.269zM479.296 185.088c-1.195 0.128-1.877-0.298-2.688-0.384-13.354-0.661-24.81-4.8-35.733-9.11-11.392-4.565-22.123-8.853-34.986-8.853s-23.616 4.288-34.986 8.853c-11.882 4.694-24.064 9.6-38.89 9.6-14.805 0-27.072-4.906-38.87-9.6-5.334-2.197-10.624-4.224-15.978-5.846-6.016-1.834-12.202-3.008-19.029-3.008-1.046 0-2.923-0.49-2.923-0.49-6.742 0.043-12.906 1.173-18.923 3.008-5.376 1.622-10.602 3.67-15.978 5.846-11.798 4.694-24.022 9.6-38.87 9.6-14.827 0-27.050-4.906-38.891-9.6-11.35-4.565-22.123-8.853-34.965-8.853-12.864 0-23.573 4.288-35.008 8.853-10.944 4.373-22.358 8.448-35.776 9.11-0.768 0.086-1.429 0.49-2.624 0.384-18.112-0.128-32.704-14.784-32.704-32.96 0-17.856 14.165-32.149 31.83-32.832 0.448 0 0.789-0.256 1.749-0.128 12.203-0.32 22.677-4.245 33.664-8.661 11.819-4.693 24-9.622 38.848-9.622s27.050 4.928 38.891 9.622c11.328 4.544 22.123 8.853 34.965 8.853 12.864 0 23.637-4.31 35.050-8.853 11.755-4.693 24-9.622 38.848-9.622 1.002 0 1.899 0.192 2.858 0.256v0.256c14.827 0.064 27.050 4.928 38.762 9.622 11.413 4.544 22.187 8.853 35.050 8.853 12.842 0 23.616-4.31 34.986-8.853 11.84-4.693 24.043-9.622 38.89-9.622s27.029 4.928 38.805 9.622c10.986 4.416 21.483 8.363 33.664 8.661 0.981-0.128 1.344 0.128 1.792 0.128 17.707 0.661 31.872 14.954 31.872 32.81 0 18.154-14.613 32.832-32.704 32.96z" />
<glyph unicode="&#xe014;" d="M487.978 299.221c-4.010 0-8.043 1.002-11.798 3.094l-220.65 124.48-219.712-123.947c-11.541-6.486-26.198-2.432-32.704 9.131s-2.432 26.197 9.088 32.683l231.51 130.602c7.339 4.118 16.298 4.118 23.594 0l232.469-131.136c11.52-6.528 15.616-21.163 9.11-32.683-4.416-7.851-12.522-12.224-20.906-12.224zM400.938 237.077c0-19.394-15.721-35.115-35.115-35.115-19.394 0-35.115 15.721-35.115 35.114 0 19.393 15.721 35.114 35.115 35.114 19.394 0 35.115-15.721 35.115-35.114zM127.638 170.048c8.512-3.413 16.555-6.635 26.176-6.635s17.664 3.2 26.155 6.635c8.875 3.541 17.963 7.19 29.056 7.19s20.245-3.648 29.056-7.19c4.011-1.579 7.936-3.158 11.968-4.33 4.501-1.344 9.131-2.283 14.208-2.283 9.6 0 17.664 3.2 26.197 6.635 1.792 0.704 3.606 1.43 5.462 2.176 7.147 2.666 14.741 5.014 23.574 5.014 9.13 0 16.918-2.474 24.298-5.312-12.118 20.992-40.683 70.592-57.259 100.374-3.307 5.973-6.166 11.157-8.298 15.146l68.693 13.248c12.672 2.432 20.906 14.678 18.474 27.349-2.454 12.63-14.699 20.886-27.306 18.432l-80.618-15.552c-2.432-0.214-4.843-0.683-7.125-1.365-14.379-4.416-24.81-17.771-24.81-33.558 0-5.867 1.429-11.349 3.968-16.214 0.171-0.32 0.341-0.597 0.47-0.938 5.525-10.304 12.822-24.022 19.84-37.163l-129.814-68.693c2.582-0.938 5.12-1.962 7.638-2.966zM62.464 92.822c0.064-13.142 11.563-23.552 24.362-24.363 11.392-0.704 22.72 2.624 33.216 6.827 3.478 1.408 6.891 2.774 10.368 3.904 4.992 1.622 10.112 2.752 15.786 2.752 9.6 0 17.643-3.221 26.176-6.656 8.81-3.498 17.963-7.168 29.035-7.168 8.853 0 16.448 2.325 23.595 5.056 1.834 0.683 3.648 1.387 5.462 2.112 8.49 3.413 16.554 6.656 26.176 6.656 5.077 0 9.728-0.896 14.229-2.262 4.010-1.216 7.936-2.731 11.947-4.373 8.832-3.498 17.984-7.168 29.056-7.168 11.115 0 20.202 3.67 29.056 7.168 8.49 3.413 16.555 6.656 26.154 6.656 9.6 0 17.642-3.221 26.197-6.656 8.149-3.221 16.726-6.336 26.731-6.827 0.576-0.022 1.088-0.341 1.962-0.256 13.568 0.128 24.469 11.094 24.469 24.598 0 13.376-10.603 24.064-23.786 24.555-0.341 0-0.618 0.214-1.322 0.106-9.13 0.256-16.938 3.221-25.173 6.486-8.832 3.52-17.962 7.168-29.056 7.168-11.094 0-20.202-3.648-29.034-7.168-8.49-3.37-16.555-6.613-26.176-6.613s-17.642 3.221-26.197 6.613c-8.81 3.52-17.942 7.168-29.034 7.168-11.094 0-20.224-3.648-29.056-7.168-8.49-3.37-16.534-6.613-26.176-6.613-9.578 0-17.621 3.221-26.176 6.613-8.81 3.52-17.941 7.168-29.035 7.168s-20.224-3.648-29.056-7.168c-5.397-2.176-10.816-4.416-16.534-5.483-12.522-2.346-28.566-3.264-35.648-15.765-1.77-2.966-2.517-6.421-2.517-9.899zM86.442-31.936c0.874-0.064 1.365 0.256 1.963 0.277 10.070 0.49 18.666 3.606 26.88 6.87 8.555 3.413 16.619 6.635 26.282 6.635 9.643 0 17.728-3.2 26.262-6.635 8.896-3.541 18.070-7.211 29.184-7.211 11.136 0 20.331 3.67 29.206 7.211 4.011 1.622 7.978 3.2 11.989 4.373 4.544 1.365 9.173 2.24 14.293 2.24 0.768 0 2.197 0.384 2.197 0.384 5.056-0.022 9.686-0.875 14.208-2.24 4.010-1.173 7.957-2.752 11.99-4.373 8.875-3.52 18.070-7.211 29.205-7.211s20.288 3.69 29.184 7.211c8.534 3.413 16.64 6.635 26.282 6.635s17.707-3.2 26.283-6.635c8.171-3.264 16.789-6.378 26.858-6.87 0.576-0.043 1.088-0.341 1.962-0.277 13.632 0.128 24.598 11.115 24.598 24.747 0 13.44-10.666 24.149-23.914 24.683-0.341 0-0.576 0.171-1.322 0.086-9.173 0.235-17.046 3.2-25.301 6.486-8.853 3.563-18.026 7.232-29.163 7.232-11.158 0-20.31-3.67-29.205-7.232-8.512-3.392-16.618-6.635-26.262-6.635s-17.75 3.221-26.304 6.635c-8.832 3.563-18.026 7.232-29.184 7.232-0.746 0-1.408-0.128-2.155-0.171v-0.214c-11.114 0-20.31-3.67-29.12-7.232-8.554-3.392-16.64-6.635-26.304-6.635-9.621 0-17.75 3.221-26.262 6.635-8.875 3.563-18.048 7.232-29.184 7.232-11.157 0-20.331-3.67-29.184-7.232-8.256-3.264-16.128-6.25-25.302-6.507-0.746 0.128-1.002-0.106-1.323-0.106-13.248-0.49-23.915-11.2-23.915-24.64-0.042-13.632 10.944-24.618 24.576-24.747z" />
<glyph unicode="&#xe015;" d="M196.48 300.053c36.245 8.918 55.808 56.107 43.733 105.408-12.096 49.28-51.285 81.984-87.552 73.046-36.224-8.917-55.829-56.106-43.733-105.387 12.118-49.28 51.328-81.984 87.552-73.066zM127.659 244.032c0-35.323-28.578-63.958-63.83-63.958s-63.83 28.635-63.83 63.958c0 35.323 28.578 63.958 63.83 63.958 35.252 0 63.83-28.635 63.83-63.958zM315.498 300.053c-36.245 8.918-55.786 56.107-43.712 105.408 12.075 49.28 51.264 81.984 87.531 73.046 36.245-8.917 55.851-56.106 43.755-105.387-12.139-49.28-51.328-81.984-87.573-73.066zM512 244.032c0-35.323-28.577-63.958-63.829-63.958s-63.829 28.635-63.829 63.958c0 35.323 28.577 63.958 63.829 63.958 35.252 0 63.829-28.635 63.829-63.958zM248.448 198.358c-116.054 2.858-161.238-88.555-162.346-133.781-1.258-52.032 39.829-95.274 91.776-96.534 26.154-0.619 50.048 9.514 67.499 26.325 16.362-15.594 38.102-25.664 62.464-26.24 51.947-1.301 95.104 39.894 96.363 91.882 1.046 44.651-37.611 135.446-155.755 138.346z" />
<glyph unicode="&#xe016;" d="M279.19 291.050h-46.656v-64.427h46.101c16.683 0.022 30.954 12.992 30.954 31.744 0 18.709-15.232 32.747-30.4 32.683zM256 437.334c-117.654 0-213.333-95.744-213.333-213.334 0-117.632 95.68-213.333 213.333-213.333 117.611 0 213.333 95.702 213.333 213.333 0 117.59-95.722 213.333-213.333 213.333zM279.424 187.37h-47.382v-70.038c0 0 0.554-17.322-20.608-17.322-21.738 0-20.523 17.322-20.523 17.322v213.333h90.389c39.552-0.021 68.714-35.413 68.587-71.744 0.128-41.002-34.603-71.594-70.464-71.552z" />
<glyph unicode="&#xe017;" d="M142.656 392.043h-28.075v-38.763h27.755c10.026 0.022 18.56 7.851 18.56 19.115s-9.173 19.712-18.24 19.648zM128.683 480c-70.698 0-128.234-57.514-128.234-128.278 0-70.741 57.514-128.256 128.234-128.256 70.72 0 128.278 57.514 128.278 128.256 0 70.763-57.536 128.278-128.278 128.278zM142.762 329.75h-28.459v-42.154c0 0 0.278-10.389-12.459-10.389-13.056 0-12.309 10.389-12.309 10.389v128.278h54.358c23.786 0 41.302-21.312 41.258-43.136 0.042-24.64-20.779-43.029-42.389-42.987zM483.798 129.493c36.971 36.992 36.992 97.173 0 134.166-36.971 36.992-97.173 36.992-134.166 0-27.243-27.264-34.346-67.094-21.44-100.95l-140.054-140.032 3.434-36.992c-0.022-0.49 0.107-1.024 0.149-1.536l0.149-1.622 0.192-0.214c0.554-2.496 1.578-4.906 3.52-6.87 1.984-1.962 4.416-2.966 6.934-3.478l0.47-0.469 39.808-3.499 13.845 13.846v24.149c0 7.914 6.4 14.336 14.315 14.336h24.171l12.010 12.010 0.022 31.147c-0.022 10.262 8.341 18.603 18.582 18.603h31.147l25.962 25.942c33.856-12.885 73.664-5.781 100.95 21.462zM461.781 151.51l-90.154 90.154c24.853 24.875 65.301 24.875 90.133 0.022 24.896-24.875 24.896-65.301 0.022-90.176z" />
<glyph unicode="&#xe018;" d="M228.011 110.378c-9.046 3.584-18.389 7.36-29.781 7.36-11.35 0-20.715-3.776-29.76-7.36-8.726-3.498-16.96-6.784-26.816-6.784-9.834 0-18.070 3.286-26.794 6.784-9.046 3.584-18.41 7.36-29.781 7.36-11.392 0-20.715-3.776-29.782-7.36-8.682-3.498-16.96-6.784-26.794-6.784l-1.216 0.064c-0.448 0.064-0.854 0.128-1.302 0.128-0.277 0-0.576-0.022-0.64-0.064-13.803-0.384-24.619-11.456-24.619-25.259 0-11.882 8.107-22.016 19.733-24.618 1.92-0.448 3.776-0.64 5.547-0.64 0.363 0 0.619 0.022 0.619 0.064l0.555-0.022c0.448-0.022 0.854-0.022 1.323-0.022 11.37 0 20.736 3.712 29.781 7.339 8.725 3.478 16.96 6.784 26.816 6.784 9.835 0 18.091-3.307 26.794-6.784 9.046-3.627 18.39-7.339 29.782-7.339s20.736 3.712 29.781 7.339c8.683 3.478 16.96 6.784 26.774 6.784 9.877 0 18.112-3.307 26.838-6.784 9.046-3.627 18.389-7.339 29.76-7.339 11.392 0 20.758 3.712 29.782 7.339 8.704 3.498 16.96 6.784 26.794 6.784 9.856 0 18.091-3.286 26.816-6.784 9.046-3.627 18.411-7.339 29.781-7.339s20.714 3.712 29.76 7.339c8.726 3.478 17.002 6.784 26.837 6.784 9.856 0 18.091-3.307 26.816-6.784 9.046-3.627 18.368-7.339 29.76-7.339 2.858 0 5.654 0.235 8.341 0.64 1.728 0.192 3.286 0.512 4.822 1.002 10.538 3.286 17.664 12.906 17.664 23.872 0 6.635-1.622 11.478-4.032 15.104-7.317 10.901-22.208 10.026-22.741 9.942l-0.64-0.086c-1.173-0.086-2.283-0.128-3.456-0.128-9.813 0-18.091 3.286-26.816 6.784-7.168 2.88-14.592 5.781-23.019 6.87-2.219 0.277-4.394 0.469-6.72 0.469-11.392 0-20.736-3.776-29.781-7.36-3.563-1.408-7.062-2.837-10.603-3.99-5.12-1.642-10.389-2.816-16.214-2.816-9.834 0-18.091 3.286-26.837 6.784-9.046 3.584-18.346 7.36-29.76 7.36-9.046 0-16.81-2.389-24.171-5.184-1.877-0.704-3.755-1.43-5.611-2.176-8.726-3.498-16.96-6.784-26.816-6.784-5.184 0-9.941 0.918-14.592 2.304-4.096 1.28-8.085 2.901-12.181 4.544zM485.205 18.603l-0.64-0.064c-1.173-0.086-2.283-0.171-3.456-0.171-9.813 0-18.091 3.328-26.816 6.784-9.046 3.627-18.389 7.382-29.76 7.382-11.392 0-20.736-3.755-29.781-7.382-8.726-3.456-16.96-6.784-26.816-6.784-9.834 0-18.091 3.328-26.837 6.784-9.046 3.627-18.346 7.382-29.76 7.382-11.349 0-20.714-3.755-29.781-7.382-8.726-3.456-16.96-6.784-26.816-6.784-9.814 0-18.090 3.328-26.794 6.784-9.046 3.627-18.389 7.382-29.781 7.382-11.35 0-20.714-3.755-29.76-7.382-8.726-3.456-16.96-6.784-26.816-6.784-9.834 0-18.070 3.328-26.794 6.784-9.046 3.627-18.41 7.382-29.781 7.382-11.392 0-20.715-3.755-29.782-7.382-8.682-3.456-16.96-6.784-26.794-6.784l-1.216 0.106c-0.448 0.043-0.854 0.106-1.302 0.106-0.277 0-0.576-0.043-0.64-0.064-13.803-0.384-24.619-11.435-24.619-25.238 0-11.904 8.107-22.038 19.733-24.618 1.984-0.448 3.84-0.662 5.611-0.662 0.363 0 0.619 0.043 0.619 0.064l0.555-0.022c0.448-0.022 0.854-0.043 1.323-0.043 11.371 0 20.736 3.755 29.782 7.36 8.725 3.478 16.96 6.784 26.816 6.784 9.835 0 18.090-3.307 26.794-6.784 9.024-3.606 18.368-7.36 29.76-7.36s20.736 3.755 29.781 7.36c8.683 3.478 16.96 6.784 26.774 6.784 9.877 0 18.112-3.307 26.838-6.784 9.046-3.606 18.389-7.36 29.738-7.36 11.392 0 20.758 3.755 29.782 7.36 8.704 3.478 16.96 6.784 26.795 6.784 9.856 0 18.091-3.307 26.816-6.784 9.046-3.606 18.432-7.36 29.781-7.36s20.714 3.755 29.76 7.36c8.726 3.478 17.002 6.784 26.837 6.784 9.856 0 18.091-3.307 26.816-6.784 9.024-3.606 18.368-7.36 29.738-7.36 2.858 0 5.654 0.256 8.341 0.683 1.728 0.192 3.286 0.49 4.822 0.981 10.603 3.286 17.728 12.906 17.728 23.936 0 26.646-26.070 25.11-26.794 25.002zM378.026 161.664c0-7.829 6.4-14.229 14.272-14.229s14.272 6.4 14.272 14.229v87.019h-28.544v-87.019zM378.026 263.19h28.544v0.085h98.346l-101.803 56.619c-3.115 2.026-6.805 3.243-10.837 3.243s-7.723-1.216-10.837-3.243l-0.277-0.171-101.504-56.448 98.346-0.085zM244.565 380.885v33.322h-40.278v58.24l-204.288-0.022v-324.992h204.267v61.355h40.278v33.322h-40.256v24.043h40.278v33.322h-40.278v24.042h40.278v33.322h-40.278v24.043h40.278zM83.115 208.789h-41.301v36.181h41.322v-36.181zM83.115 265.067h-41.301v36.224h41.322v-36.224zM83.115 321.728h-41.301v36.16h41.322v-36.16zM83.115 378.005h-41.301v36.202h41.322v-36.202zM162.475 208.789h-41.302v36.181h41.322v-36.181zM162.475 265.067h-41.302v36.224h41.322v-36.224zM162.475 321.728h-41.302v36.16h41.322v-36.16zM162.475 378.005h-41.302v36.202h41.322v-36.202z" />
<glyph unicode="&#xe019;" d="M19.712 53.717c1.92-0.426 3.755-0.64 5.546-0.64 0.341 0 0.619 0.022 0.598 0.106l0.576-0.043c0.448-0.043 0.832-0.043 1.302-0.043 11.37 0 20.715 3.733 29.76 7.339 8.683 3.498 16.918 6.762 26.752 6.762s18.070-3.264 26.773-6.762c9.024-3.606 18.368-7.339 29.739-7.339s20.694 3.733 29.76 7.339c8.661 3.498 16.917 6.762 26.752 6.762s18.048-3.264 26.774-6.762c9.024-3.606 18.346-7.339 29.738-7.339 11.349 0 20.694 3.733 29.738 7.339 8.683 3.498 16.938 6.762 26.774 6.762 9.813 0 18.048-3.264 26.752-6.762 9.046-3.606 18.389-7.339 29.76-7.339 11.328 0 20.672 3.733 29.718 7.339 8.704 3.498 16.96 6.762 26.794 6.762 9.813 0 18.048-3.264 26.752-6.762 9.046-3.606 18.368-7.339 29.76-7.339 2.816 0 5.632 0.235 8.298 0.661 1.707 0.192 3.286 0.49 4.842 1.002 10.582 3.286 17.685 12.885 17.685 23.872 0 6.592-1.6 11.435-4.010 15.062-7.317 10.88-22.187 10.005-22.72 9.899l-0.64-0.043c-1.152-0.106-2.262-0.128-3.413-0.128-9.834 0-18.091 3.264-26.794 6.762-7.168 2.858-14.592 5.781-23.019 6.848-2.176 0.277-4.373 0.49-6.678 0.49-11.37 0-20.714-3.755-29.76-7.36-3.563-1.43-7.040-2.816-10.582-3.99-5.12-1.642-10.368-2.795-16.171-2.795-9.834 0-18.091 3.264-26.795 6.762-9.046 3.606-18.346 7.36-29.717 7.36-9.046 0-16.789-2.368-24.149-5.205-1.877-0.661-3.755-1.408-5.589-2.154-8.726-3.498-16.938-6.762-26.774-6.762-5.206 0-9.963 0.896-14.592 2.283-4.075 1.238-8.085 2.837-12.16 4.48-9.066 3.606-18.389 7.36-29.76 7.36-11.37 0-20.714-3.755-29.738-7.36-8.726-3.498-16.939-6.762-26.774-6.762s-18.070 3.264-26.752 6.762c-9.067 3.606-18.368 7.36-29.76 7.36-11.35 0-20.694-3.755-29.739-7.36-8.704-3.498-16.939-6.762-26.773-6.762l-1.28 0.086c-0.427 0.086-0.832 0.128-1.28 0.128-0.277 0-0.598-0.022-0.64-0.043-13.803-0.384-24.598-11.478-24.598-25.238 0-11.882 8.107-21.995 19.712-24.598zM483.798 18.538l-0.64-0.086c-1.152-0.086-2.262-0.149-3.413-0.149-9.834 0-18.091 3.307-26.794 6.762-9.046 3.627-18.368 7.382-29.717 7.382-11.37 0-20.714-3.755-29.76-7.382-8.704-3.456-16.938-6.762-26.752-6.762-9.834 0-18.091 3.307-26.795 6.762-9.046 3.627-18.346 7.382-29.717 7.382-11.37 0-20.714-3.755-29.738-7.382-8.726-3.456-16.938-6.762-26.774-6.762s-18.090 3.307-26.752 6.762c-9.066 3.627-18.389 7.382-29.76 7.382-11.37 0-20.714-3.755-29.738-7.382-8.726-3.456-16.939-6.762-26.774-6.762s-18.070 3.307-26.752 6.762c-9.067 3.627-18.368 7.382-29.76 7.382-11.35 0-20.694-3.755-29.739-7.382-8.704-3.456-16.939-6.762-26.773-6.762l-1.216 0.106c-0.427 0.043-0.832 0.086-1.28 0.086-0.277 0-0.598-0.043-0.64-0.043-13.717-0.363-24.512-11.413-24.512-25.195 0-11.882 8.107-21.995 19.712-24.576 1.92-0.469 3.755-0.682 5.546-0.682 0.341 0 0.619 0.043 0.598 0.064h0.576c0.448-0.022 0.832-0.064 1.302-0.064 11.37 0 20.715 3.755 29.76 7.339 8.683 3.498 16.918 6.784 26.752 6.784s18.070-3.286 26.773-6.784c9.002-3.584 18.347-7.339 29.718-7.339s20.694 3.755 29.76 7.339c8.661 3.498 16.917 6.784 26.752 6.784s18.048-3.286 26.774-6.784c9.002-3.584 18.326-7.339 29.718-7.339 11.35 0 20.694 3.755 29.739 7.339 8.683 3.498 16.938 6.784 26.774 6.784 9.813 0 18.048-3.286 26.752-6.784 9.024-3.584 18.368-7.339 29.717-7.339 11.328 0 20.672 3.755 29.717 7.339 8.704 3.498 16.96 6.784 26.794 6.784 9.813 0 18.048-3.286 26.752-6.784 9.046-3.584 18.368-7.339 29.738-7.339 2.816 0 5.632 0.256 8.298 0.683 1.707 0.192 3.286 0.49 4.842 0.981 10.582 3.264 17.685 12.885 17.685 23.894 0 26.624-26.026 25.11-26.752 24.981zM123.904 155.968c0-9.899 8.064-17.92 17.963-17.92 9.92 0 17.963 8.022 17.963 17.92v109.568h-35.925v-109.568zM155.862 354.966l-0.341 0.192c-3.925 2.56-8.619 4.096-13.674 4.096s-9.728-1.536-13.632-4.096l-0.362-0.192-127.787-71.104 283.606 0.022-127.808 71.082zM352.235 276.714c0-9.899 8.043-17.941 17.962-17.941s17.962 8.021 17.962 17.941v109.568h-35.925v-109.568zM384.192 475.712l-0.341 0.192c-3.925 2.56-8.598 4.096-13.654 4.096-5.034 0-9.707-1.536-13.675-4.096l-0.341-0.192-127.786-71.104 283.606 0.022-127.808 71.082z" />
<glyph unicode="&#xe01a;" d="M259.818 442.837c-137.899 0-259.818-76.245-259.818-188.885 0-137.75 151.168-256.086 266.666-242.154-40.683 16.384-69.846 42.368-88.469 71.872 25.558-6.4 53.056-9.877 81.621-9.877 139.286 0 252.182 82.624 252.182 184.534 0 101.93-112.896 184.512-252.182 184.512zM264.384 119.382v-0.448l-0.469 0.406c-2.368-0.128-4.714-0.384-7.104-0.384-2.538 0-5.013 0.256-7.53 0.384l-0.49-0.406v0.448c-73.109 4.181-131.37 64.832-131.37 138.987s58.261 134.784 131.37 138.986c2.667 0.149 5.312 0.406 8.021 0.406 2.56 0 5.034-0.256 7.574-0.406 73.322-3.99 131.798-64.704 131.798-138.986s-58.496-135.040-131.798-138.987zM248.363 153.493v48c-10.666-0.384-21.781-2.582-33.195-6.784 8.171-14.229 19.094-28.010 33.195-41.216zM198.698 266.368h49.643v30.25c-14.336 1.152-27.819 4.48-39.958 9.365-4.779-12.33-8.448-25.579-9.685-39.616zM207.893 209.152c13.974 5.376 27.542 8.043 40.448 8.426v32.79h-50.133c0.683-14.101 4.011-27.84 9.685-41.216zM248.363 312.448v57.6c-9.856-11.072-23.125-28.416-33.558-49.558 10.411-4.118 21.654-6.998 33.558-8.043zM319.488 312.619c5.546-14.23 9.771-29.675 11.029-46.23h49.28c-1.707 26.517-11.904 50.688-27.776 70.038-11.008-9.878-21.866-17.856-32.534-23.808zM193.728 312.768c-13.398 6.954-24.661 14.954-33.387 22.144-15.19-19.072-24.875-42.71-26.56-68.544h48.875c1.258 16.64 5.462 32.128 11.072 46.4zM200.534 188.139c-9.28-4.864-18.709-11.264-28.245-19.349 19.306-18.262 44.416-30.464 72.341-33.173-19.050 16.64-33.707 34.176-44.096 52.522zM235.392 379.733c-24.79-4.352-46.998-16.171-64.298-32.96 8.256-6.762 18.070-13.589 29.013-19.456 10.944 22.336 24.704 40.512 35.285 52.416zM341.077 348.202c-17.238 16.149-39.104 27.413-63.403 31.616 10.538-11.861 24.298-29.995 35.2-52.224 9.301 5.269 18.688 12.053 28.202 20.608zM182.186 250.346h-48.384c1.707-26.432 11.755-50.603 27.52-69.888 10.816 9.259 21.525 16.534 32.042 22.058-6.678 15.424-10.496 31.36-11.178 47.829zM314.923 250.346h-50.134v-33.493c14.123-1.536 27.286-5.376 39.211-10.454 6.442 14.25 10.219 28.886 10.923 43.947zM318.315 199.466c12.63-6.827 23.466-14.57 31.765-21.462 16.96 19.733 27.904 44.779 29.696 72.363h-48.81c-0.747-17.578-5.12-34.517-12.651-50.901zM268.502 135.574c26.923 2.582 51.286 13.824 70.358 30.933-7.978 6.55-17.387 13.184-27.904 18.944-10.283-17.365-24.32-34.048-42.454-49.877zM264.789 200.747v-47.253c13.291 12.48 23.786 25.43 31.808 38.805-9.877 4.118-20.544 7.125-31.808 8.448zM304.896 305.6c-13.824-5.739-27.243-8.555-40.106-9.302v-29.93h49.642c-1.195 13.91-4.822 26.987-9.536 39.232zM264.789 370.091v-57.877c10.816 0.79 22.080 3.541 33.6 8.256-10.432 21.205-23.723 38.57-33.6 49.621z" />
<glyph unicode="&#xe01b;" d="M0 106.070h86.507v-74.112h-86.507v74.112zM487.978 300.438c8.384 0.022 16.49 4.416 20.928 12.224 6.507 11.541 2.411 26.154-9.13 32.683l-232.469 131.136c-7.317 4.117-16.278 4.117-23.573 0l-231.51-130.603c-11.541-6.507-15.616-21.12-9.11-32.683 6.506-11.52 21.163-15.594 32.704-9.088l219.733 123.926 220.63-124.459c3.755-2.133 7.808-3.136 11.798-3.136zM171.776 295.19c0-15.305-12.407-27.712-27.712-27.712s-27.712 12.407-27.712 27.712c0 15.305 12.407 27.712 27.712 27.712 15.305 0 27.712-12.407 27.712-27.712zM395.286 295.19c0-15.305-12.407-27.712-27.712-27.712s-27.712 12.407-27.712 27.712c0 15.305 12.407 27.712 27.712 27.712 15.305 0 27.712-12.407 27.712-27.712zM471.68 139.221l-41.43 107.094c-1.365 7.317-7.702 12.714-15.147 12.822l-83.882 0.128c-11.541 0-14.123-9.088-19.008-17.216-13.76-22.912-13.803-22.87-30.699-49.088l-18.688 0.086c1.152-2.091 2.091-4.33 2.752-6.656 0.81-2.88 1.387-5.824 1.387-8.918 0-2.582-0.384-5.077-0.938-7.488-0.618-2.646-1.642-5.142-2.88-7.51h27.072c5.269 0 10.197 2.731 12.992 7.19l21.12 33.728v-50.837c0-0.555 0.149-1.088 0.192-1.664 0-0.214-0.064-0.341-0.064-0.49v-166.827c0-8.598 9.622-15.552 18.219-15.552 8.618 0 15.552 6.933 15.552 15.552l3.648 121.514h11.392l3.67-121.514c0-8.598 6.933-15.552 15.51-15.552 8.598 0 18.24 6.933 18.24 15.552v166.827c0 0.171-0.086 0.298-0.086 0.49 0 0.576 0.214 1.11 0.214 1.664v55.402l31.317-73.707c7.851-23.211 35.221-14.25 29.546 4.971zM239.829 193.088l5.76 0.043-6.272 0.043-9.344 0.043c-16.726 25.92-16.853 26.026-30.571 48.832-4.864 8.128-7.446 17.216-18.987 17.216l-83.882-0.128c-7.466-0.086-13.781-5.504-15.147-12.822l-41.45-107.094c-5.654-19.221 21.738-28.181 29.59-4.971l31.317 73.707v-55.402c0-0.555 0.192-1.088 0.192-1.664 0-0.214-0.064-0.341-0.064-0.49v-166.827c-0.022-8.64 9.642-15.573 18.24-15.573 8.555 0 15.51 6.933 15.51 15.552l3.669 121.514h11.37l3.648-121.514c-0.022-8.618 6.934-15.552 15.552-15.552 8.576 0 18.197 6.933 18.197 15.552v166.827c0 0.171-0.042 0.298-0.042 0.49 0.022 0.576 0.192 1.11 0.192 1.664v50.837l21.099-33.728c2.838-4.459 7.744-7.19 13.013-7.19h19.989c5.632 2.688 9.578 8.32 9.578 14.976 0 7.274-4.714 13.312-11.157 15.659zM425.13 106.070h86.528v-74.112h-86.528v74.112z" />
<glyph unicode="&#xe01c;" d="M424.534 320.981h-381.866v-232.49c0-42.966 34.794-77.824 77.781-77.824h271.082c42.966 0 77.803 34.858 77.803 77.803v232.512h-44.8zM256 61.014c-63.040 0-114.154 51.115-114.154 114.154s51.114 114.154 114.154 114.154 114.154-51.114 114.154-114.154c0-63.040-51.115-114.154-114.154-114.154zM42.666 437.334v-83.712h426.666v83.712h-426.666zM111.766 369.664c-14.272 0-25.834 11.563-25.834 25.835s11.563 25.834 25.834 25.834c14.293 0 25.834-11.563 25.834-25.834s-11.541-25.835-25.834-25.835zM190.422 369.664c-14.25 0-25.834 11.563-25.834 25.835s11.584 25.834 25.834 25.834c14.272 0 25.834-11.563 25.834-25.834s-11.563-25.835-25.834-25.835zM313.899 190.358c-4.971 0-9.173 1.622-13.568 3.392-4.63 1.834-9.344 3.755-15.104 3.755-5.781 0-10.496-1.92-15.125-3.755-2.091-0.853-4.096-1.622-6.187-2.283-2.325-0.683-4.757-1.11-7.382-1.11-0.426 0-1.173-0.214-1.173-0.214-2.582 0-4.992 0.448-7.317 1.11-2.090 0.704-4.118 1.45-6.208 2.283-4.608 1.856-9.344 3.755-15.125 3.755-5.738 0-10.475-1.899-15.104-3.755-4.374-1.75-8.554-3.392-13.547-3.392-4.992 0-9.173 1.642-13.589 3.392-4.202 1.75-8.704 3.286-13.888 3.541-0.32 0.086-0.554 0.214-1.024 0.171-0.79 0-1.387-0.298-2.133-0.448-1.707-6.976-2.88-14.144-2.88-21.654 0-0.832 0.234-1.579 0.278-2.411 1.322-49.322 41.451-89.002 91.136-89.002 49.706 0 89.984 39.744 91.136 89.216 0.043 0.747 0.277 1.45 0.277 2.219 0 7.574-1.216 14.805-2.966 21.846-0.704 0.149-1.322 0.448-2.091 0.448-0.426 0.043-0.704-0.086-1.024-0.171-5.142-0.277-9.642-1.834-13.888-3.541-4.33-1.771-8.512-3.392-13.504-3.392z" />
<glyph unicode="&#xe01d;" d="M383.552 204.118h-290.538v-176.896c0-32.683 26.496-59.221 59.2-59.221h206.208c32.683 0 59.178 26.538 59.178 59.2v176.896h-34.048zM255.317 6.336c-47.958 0-86.827 38.848-86.827 86.827 0 47.914 38.87 86.827 86.827 86.827 47.936 0 86.827-38.912 86.827-86.827 0-47.978-38.89-86.827-86.827-86.827zM93.013 292.63v-63.702h324.587v63.702h-324.587zM145.578 241.131c-10.858 0-19.669 8.81-19.669 19.648 0 10.88 8.81 19.648 19.669 19.648 10.88 0 19.648-8.79 19.648-19.648 0-10.838-8.768-19.648-19.648-19.648zM205.418 241.131c-10.858 0-19.648 8.81-19.648 19.648 0 10.88 8.79 19.648 19.648 19.648s19.669-8.79 19.669-19.648c0-10.838-8.81-19.648-19.669-19.648zM299.349 104.704c-3.776 0-6.954 1.259-10.325 2.603-3.498 1.365-7.104 2.858-11.478 2.858s-7.978-1.472-11.498-2.858c-1.579-0.64-3.115-1.28-4.714-1.75-1.792-0.512-3.606-0.853-5.632-0.853-0.298 0-0.853-0.149-0.853-0.149-2.006 0-3.84 0.341-5.589 0.853-1.6 0.512-3.114 1.11-4.736 1.75-3.499 1.365-7.083 2.837-11.456 2.837-4.394 0-8-1.45-11.499-2.837-3.35-1.365-6.571-2.603-10.346-2.603-3.776 0-6.954 1.238-10.304 2.603-3.2 1.301-6.635 2.474-10.56 2.666-0.256 0.064-0.448 0.171-0.768 0.128-0.597 0-1.109-0.214-1.664-0.341-1.28-5.312-2.155-10.752-2.155-16.448 0-0.618 0.149-1.216 0.192-1.834 1.002-37.546 31.552-67.712 69.355-67.712 37.824 0 68.459 30.25 69.354 67.882 0.043 0.534 0.192 1.088 0.192 1.664 0 5.76-0.896 11.264-2.24 16.618-0.512 0.106-1.024 0.341-1.579 0.341-0.32 0.043-0.534-0.086-0.747-0.128-3.968-0.214-7.382-1.365-10.56-2.688-3.413-1.344-6.57-2.603-10.389-2.603zM487.36 295.659c-4.010 0.086-8 1.195-11.69 3.37l-217.834 129.408-222.442-118.955c-11.691-6.25-26.218-1.856-32.469 9.856-6.25 11.691-1.835 26.24 9.856 32.47l234.368 125.355c7.403 3.968 16.363 3.754 23.552-0.534l229.462-136.32c11.413-6.784 15.168-21.504 8.384-32.896-4.565-7.744-12.822-11.925-21.184-11.755z" />
<glyph unicode="&#xe01e;" d="M510.656 239.466c-8.938 27.307-34.816 16.214-35.606 15.915l-124.075-44.886v41.77h-350.976v-220.266c0-35.328 28.672-64 64-64h222.954c35.328 0 64 28.672 64 64v132.992l145.195 41.43c12.651 5.269 18.816 19.819 14.507 33.046zM302.954 81.75v-49.75c0-8.81-7.168-16-16-16h-222.954c-8.81 0-16 7.19-16 16v156.245c0 8.81 7.19 16 16 16h222.954c8.832 0 16-7.19 16-16v-106.496zM239.552 291.776c2.794-2.709 6.422-4.16 10.006-4.16 3.733 0 7.382 1.472 10.219 4.288 5.526 5.632 5.44 14.678-0.192 20.245-17.792 17.494-20.118 40.683-6.25 62.059 24.406 37.462 22.933 73.493-4.032 101.44-5.504 5.696-14.528 5.803-20.203 0.32-5.674-5.462-5.803-14.528-0.32-20.181 6.4-6.635 26.026-26.944 0.576-65.963-21.184-32.618-17.216-71.082 10.197-98.048zM171.776 291.776c2.816-2.709 6.379-4.16 10.026-4.16 3.69 0 7.424 1.472 10.197 4.288 5.547 5.632 5.482 14.678-0.149 20.245-17.814 17.494-20.118 40.683-6.25 62.059 24.363 37.462 22.934 73.493-4.053 101.44-5.504 5.675-14.571 5.803-20.224 0.32-5.674-5.483-5.803-14.55-0.341-20.202 6.442-6.635 26.006-26.944 0.619-65.963-21.184-32.597-17.195-71.061 10.176-98.026zM104.022 291.776c2.773-2.709 6.379-4.16 10.005-4.16 3.712 0 7.403 1.472 10.198 4.288 5.547 5.611 5.482 14.678-0.192 20.245-17.749 17.494-20.117 40.683-6.208 62.059 24.384 37.462 22.976 73.493-4.053 101.44-5.483 5.675-14.549 5.803-20.181 0.32-5.696-5.483-5.867-14.55-0.362-20.202 6.442-6.635 26.005-26.944 0.618-65.963-21.206-32.597-17.195-71.061 10.176-98.026z" />
<glyph unicode="&#xe01f;" d="M123.648 332.118c3.755 3.286 6.25 7.936 6.25 13.312v114.219c0 9.899-8.043 17.92-17.92 17.92-9.898 0-17.92-8-17.92-17.92v-114.219c0-5.376 2.475-10.048 6.23-13.334-56.32-5.824-100.288-53.462-100.288-111.339 0-61.846 50.154-111.957 111.978-111.957s111.957 50.133 111.957 111.978c0 57.856-43.925 105.493-100.288 111.339zM122.966 434.24c0-6.058-4.885-10.986-10.986-10.986s-10.987 4.928-10.987 10.986v12.118c0 6.058 4.886 10.986 10.987 10.986s10.987-4.906 10.987-10.986v-12.118zM453.376 152.726c2.582 82.048 6.933 254.101 7.851 305.408 0.214 10.816-11.072 19.413-21.546 19.435-10.454 0-21.718-8.619-21.568-19.435 0.661-45.12 7.168-228.587 9.259-305.301-34.048-4.502-60.010-27.157-60.010-54.635 0-30.678 32.384-55.552 72.341-55.552 39.936 0 72.32 24.875 72.32 55.552-0.021 27.094-25.28 49.6-58.645 54.528zM450.666 434.24c0-6.058-4.885-10.986-10.986-10.986s-10.986 4.928-10.986 10.986v12.118c0 6.058 4.885 10.986 10.986 10.986s10.986-4.906 10.986-10.986v-12.118zM271.339 129.088c0.726-47.211-3.69-94.464-2.966-141.675 0.235-10.794 11.094-19.413 21.568-19.413 10.454 0 21.334 8.618 21.546 19.413 0.747 47.211-3.861 94.464-3.115 141.674h-37.034zM311.552 364.608c-5.824 0.49-11.541-0.384-17.002-2.154-16.534 4.629-35.178 0.106-47.637-14.144-9.856-11.2-14.635-26.197-12.714-40.64l33.365-157.867h44.224c0.022 0.81 0.043 1.664 0.064 2.474l42.731 152.214c2.837 14.080-0.875 29.568-9.877 41.451-8.32 11.029-20.096 17.664-33.152 18.666zM248.597 310.166c-1.302 9.771 2.176 20.438 9.28 28.544 4.373 4.97 9.75 8.149 15.445 9.792-9.365-10.219-14.656-23.68-13.93-37.248l17.322-134.016-28.118 132.928zM273.962 312.597c-0.512 9.835 3.755 20.203 11.456 27.734 2.986 2.901 6.272 5.013 9.707 6.656 3.84-1.77 7.402-4.33 10.432-7.744 7.168-8.085 10.731-18.987 9.622-28.544l-25.216-121.984-16 123.882zM340.373 307.904l-37.44-133.226c-0.298 0.192-0.512 0.384-0.81 0.534l27.478 133.12c1.707 14.23-3.178 29.355-13.034 40.512 6.378-1.899 12.075-5.91 16.469-11.712 6.528-8.618 9.216-19.755 7.339-29.226z" />
<glyph unicode="&#xe020;" d="M302.87 146.432v309.675c0 13.014-11.563 23.552-25.856 23.552-12.16 0-22.358-7.766-25.066-18.155 0.171-1.749 0.298-3.52 0.298-5.418v-411.435h-1.066v6.166l-16.49 99.307c-3.584 0.064-7.104 0.192-10.709 0.192-79.978 0-197.462-24.171-216.192-35.798-21.099-13.099 6.059-29.034 18.198-35.307 7.851-4.053 16.021-7.445 24.064-11.029 8.171-3.67 16.896-7.894 22.656-14.89 9.621-11.606 0.234-25.472-1.258-38.080-1.664-13.888 7.317-23.637 19.819-28.885 30.486-12.822 423.125-58.581 420.736 71.040-0.683 39.531-88.683 77.226-209.13 89.067zM342.208 45.248c-15.317 0-29.12 2.368-39.339 6.208-10.794 4.032-17.536 9.685-17.536 16 0 1.13 0.235 2.24 0.64 3.328 1.92 4.906 8.106 9.301 16.896 12.587 10.219 3.84 24 6.25 39.339 6.25 31.424 0 56.875-9.92 56.875-22.166 0-12.267-25.45-22.208-56.875-22.208zM251.179 44.672h1.066l-1.066 6.166zM252.245 44.544v0.128zM251.179 149.824c0.341 0 0.726 0 1.066 0v306.262c0 1.899-0.128 3.669-0.298 5.418-0.448-1.75-0.768-3.52-0.768-5.397v-306.283zM251.179 149.824v-99.008l1.066-6.166v105.173c-0.32 0-0.726 0-1.066 0zM324.352 479.659v-137.429l187.648 68.714z" />
<glyph unicode="&#xe021;" d="M145.28 54.912c-16.256-16.618 0-30.635 0-30.635 63.552 0 152.982 0 213.888 0 0 0 16.256 13.995 0 30.635-16.256 16.576-42.176 27.498-42.176 42.026 0 14.57 6.613 24.918 6.613 31.68h-142.762c0-6.762 6.592-17.13 6.592-31.68-0.022-14.528-25.92-25.43-42.155-42.026zM136.64 6.038h231.147v-38.038h-231.147v38.038zM374.421 376.832c0 0 1.622 7.211-13.248 14.464-14.89 7.232-27.349 10.154-40.235 28.16-7.808 10.88-17.558 26.218-36.118 26.218-12.885 0-25.046-0.213-25.046-0.213s0 17.493 0 23.573c0 8.235-6.528 15.147-17.685 7.914-12.267-7.893-88.918-48.256-88.918-188.245 0 0 0.554-38.677 4.822-61.162 3.157-16.683 10.731-24.426 20.096-24.426 8.448 0 155.584 0 161.322 0 5.781 0 14.976 7.402 8.469 16.768-11.52 16.619-70.336 94.058-73.344 98.538-3.050 4.438-4.992 15.744 10.774 15.744 8.875 0 3.69 0.085 44.48 0 0 0-0.661-7.936 4.822-10.176 7.402-3.029 18.134-6.4 18.134-6.4s6.378 7.573 9.344 12.224c-2.816 1.558-4.822 4.438-4.822 7.851 0 5.013 4.053 9.046 9.067 9.046 2.752 0 5.077-1.28 6.762-3.2 4.139 8.363 1.322 33.322 1.322 33.322zM346.986 183.978h-189.525c-1.621-12.096-7.296-24.064-20.032-35.84h229.611c-12.822 11.776-18.432 23.744-20.053 35.84z" />
<glyph unicode="&#xe022;" d="M138.176 194.112c-7.829 0-14.72-6.87-14.72-14.72 0-7.808 6.891-14.699 14.72-14.699 7.872 0 14.72 6.89 14.72 14.699 0 7.829-6.848 14.72-14.72 14.72zM255.893 282.368c7.872 0 14.72 6.869 14.72 14.72 0 7.872-6.848 14.742-14.72 14.742-7.808 0-14.678-6.869-14.678-14.742-0.022-7.829 6.848-14.72 14.678-14.72zM255.893 76.352c-7.808 0-14.678-6.827-14.678-14.678 0-7.872 6.869-14.72 14.678-14.72 7.872 0 14.72 6.848 14.72 14.72 0 7.851-6.848 14.678-14.72 14.678zM373.654 164.672c7.829 0 14.678 6.89 14.678 14.699 0 7.851-6.848 14.72-14.678 14.72-7.851 0-14.72-6.87-14.72-14.72-0.022-7.808 6.848-14.699 14.72-14.699zM194.24 480h125.995v-43.178h-125.995v43.178zM467.498 352.363l-53.269 53.248-46.699-46.698c-23.466 14.592-49.942 24.768-78.336 29.248v28.118h-63.829v-27.712c-102.272-14.848-180.864-102.827-180.864-209.173 0-116.714 94.656-211.37 211.413-211.37 116.736 0 211.371 94.678 211.371 211.37 0 48.534-16.384 93.226-43.904 128.918l44.118 44.053zM255.915 20.864c-87.446 0-158.528 71.082-158.528 158.528 0 87.403 71.082 158.549 158.528 158.549 87.424 0 158.549-71.125 158.549-158.549 0-87.445-71.125-158.528-158.549-158.528zM266.141 164.585l-99.287 99.259 17.631 17.637 99.287-99.259-17.632-17.637z" />
<glyph unicode="&#xe023;" d="M492.31 263.403h-23.616c-10.837 0-22.336 8.448-25.536 18.816l-13.589 32.981c-5.077 9.514-3.008 23.616 4.63 31.274l16.789 16.747c7.659 7.68 7.659 20.202 0 27.882l-27.925 27.84c-7.616 7.659-20.16 7.659-27.818 0l-16.81-16.768c-7.616-7.659-21.76-9.749-31.296-4.608l-32.918 13.546c-10.325 3.2-18.816 14.698-18.816 25.536v23.637c0.022 10.816-8.853 19.712-19.712 19.712h-39.382c-10.838 0-19.712-8.896-19.712-19.712v-23.637c0-10.838-8.448-22.336-18.794-25.536l-32.939-13.546c-9.6-5.142-23.637-3.072-31.296 4.608l-16.79 16.768c-7.659 7.659-20.16 7.659-27.84 0l-27.84-27.84c-7.702-7.659-7.702-20.202 0-27.861l16.704-16.768c7.659-7.659 9.792-21.76 4.63-31.274l-13.546-33.002c-3.243-10.346-14.698-18.816-25.536-18.816l-23.659 0.022c-10.838 0-19.712-8.875-19.712-19.69v-39.382c0-10.816 8.874-19.69 19.712-19.69h23.659c10.837-0.043 22.294-8.49 25.493-18.837l13.59-33.002c5.141-9.536 3.050-23.659-4.629-31.296l-16.746-16.747c-7.659-7.659-7.659-20.16 0-27.882l27.882-27.84c7.659-7.659 20.16-7.659 27.84 0l16.79 16.747c7.637 7.616 21.718 9.707 31.21 4.587l33.046-13.589c10.326-3.2 18.794-14.699 18.794-25.536v-23.574c0-10.795 8.875-19.67 19.712-19.67h39.381c10.858 0 19.733 8.875 19.733 19.669v23.574c0 10.837 8.469 22.336 18.816 25.536l33.024 13.589c9.514 5.12 23.594 3.050 31.296-4.587l16.704-16.747c7.637-7.659 20.182-7.659 27.818 0l27.925 27.84c7.659 7.702 7.659 20.202 0 27.882l-16.789 16.747c-7.616 7.616-9.707 21.76-4.63 31.296l13.589 33.002c3.2 10.325 14.762 18.795 25.536 18.795h23.616c10.837 0 19.67 8.875 19.67 19.712v39.403c-0.043 10.816-8.875 19.691-19.712 19.691zM354.538 224.022c0-54.4-44.096-98.454-98.475-98.454-54.422 0-98.496 44.032-98.496 98.454 0 54.378 44.075 98.454 98.496 98.454 54.379 0.022 98.475-44.075 98.475-98.454z" />
<glyph unicode="&#xe024;" d="M471.466-32c-4.352 0-9.387 2.774-14.933 8.341l-172.693 172.693-7.894-4.032c-29.504-16.534-63.659-25.322-97.856-25.322-50.090 0-95.552 18.389-124.736 50.496-70.976 70.954-71.147 186.090-0.512 256.747 34.198 34.197 79.722 53.077 128.171 53.077 48.384 0 93.846-18.88 128.149-53.077 59.413-59.477 70.187-151.019 26.219-222.656l-4.394-7.232 171.563-174.571c5.462-5.418 8.043-10.197 8.043-14.678 0-8.618-10.346-19.029-15.936-24.64-7.723-7.637-15.914-15.147-23.19-15.147zM180.331 438.592c-36.906 0-71.638-14.4-97.792-40.554-53.91-53.931-53.952-141.739-0.043-195.691 26.154-26.134 60.907-40.512 97.835-40.512 37.035 0 71.766 14.4 97.835 40.512 53.867 53.995 53.867 141.76 0 195.669-26.112 26.155-60.843 40.576-97.834 40.576z" />
<glyph unicode="&#xe025;" d="M168.042 176.618l290.112 293.675 29.44-28.714-34.496-35.179 58.901-58.88-104.128-106.282-58.176 58.901-151.53-152.96c25.131-22.25 38.784-45.248 38.784-75.413 0-53.12-43.094-94.038-94.059-94.038-31.594 0-49.536 9.344-90.475 48.832-40.917 39.445-52.416 58.154-52.416 89.728 0 51.712 41.664 95.51 94.080 95.51 31.594 0 50.261-12.224 73.962-35.178zM77.546 73.92c9.344 0 15.808 2.176 28.010 7.914-5.739-10.795-7.894-17.259-7.894-26.582 0-22.25 19.392-40.918 44.502-40.918 30.891 0 58.176 25.13 58.176 57.408 0 25.173-18.666 43.84-41.664 43.84-7.893 0-13.654-1.45-25.131-5.76 4.309 10.752 5.76 17.216 5.76 25.13 0 22.25-18.688 39.51-44.523 39.51-31.594 0-57.45-26.582-57.45-57.45 0-23.723 16.533-43.094 40.214-43.094z" />
<glyph unicode="&#xe026;" d="M0 178.197v-132.885c0-21.696 17.578-39.254 39.254-39.254h70.464v211.094h-70.486c-21.674 0-39.232-17.28-39.232-38.954zM64.683 79.296c13.653 0 24.704-11.094 24.704-24.704 0-13.654-11.050-24.683-24.704-24.683-13.611 0-24.704 11.050-24.704 24.683 0.022 13.611 11.093 24.704 24.704 24.704zM497.195 250.794c-4.053 2.346-8.853 3.691-14.166 3.691l-79.424 2.070c-71.978 0-43.178 87.019-38.379 99.072 12.63 31.594 12.182 86.315-20.373 86.315-14.827 0-11.904-14.72-28.139-46.123-68.331-131.99-89.43-133.611-154.624-177.302-11.306-6.4-18.773-18.666-18.773-31.637v-144.789c0-19.925 16.128-36.032 36.053-36.032h137.856c0 0 114.411 0 114.475 0.192 12.651-1.238 25.344 5.12 31.552 17.11 8.106 15.702 1.962 34.986-13.738 43.094-1.046 0.534-2.134 0.832-3.178 1.28l0.171 0.768c12.757-1.322 25.579 5.014 31.808 17.067 8.086 15.659 1.962 34.966-13.738 43.050-1.11 0.598-2.262 0.938-3.392 1.365l0.192 0.747c12.779-1.43 25.728 4.885 32 17.002 8.086 15.659 1.962 34.986-13.738 43.072-1.173 0.598-2.411 0.981-3.627 1.45l0.171 0.683c12.885-1.558 25.962 4.8 32.256 16.981 7.851 15.125 2.154 33.28-11.243 40.875z" />
<glyph unicode="&#xe027;" d="M39.232 230.848h70.464v211.094h-70.464c-21.674 0-39.232-17.558-39.232-39.254v-132.885c0-21.674 17.558-38.954 39.232-38.954zM40 393.408c0 13.654 11.093 24.683 24.704 24.683 13.653 0 24.704-11.050 24.704-24.683 0-13.632-11.050-24.704-24.704-24.704-13.632 0-24.704 11.094-24.704 24.704zM497.195 197.205c-4.053-2.325-8.853-3.69-14.166-3.69l-79.424-2.070c-71.978 0-43.178-87.040-38.379-99.094 12.63-31.574 12.182-86.315-20.373-86.315-14.827 0-11.904 14.72-28.139 46.101-68.331 132.011-89.43 133.632-154.624 177.302-11.306 6.4-18.773 18.667-18.773 31.638v144.81c0 19.926 16.128 36.032 36.053 36.032h137.856c0 0 114.411 0 114.475-0.192 12.651 1.238 25.344-5.12 31.552-17.11 8.106-15.702 1.962-34.986-13.738-43.093-1.046-0.534-2.134-0.832-3.178-1.28l0.171-0.768c12.757 1.322 25.579-5.014 31.808-17.067 8.086-15.659 1.962-34.966-13.738-43.050-1.11-0.598-2.262-0.939-3.392-1.365l0.192-0.747c12.779 1.43 25.728-4.885 32-17.002 8.086-15.659 1.962-34.987-13.738-43.072-1.173-0.598-2.411-0.982-3.627-1.451l0.171-0.683c12.885 1.558 25.962-4.8 32.256-16.982 7.851-15.104 2.154-33.258-11.243-40.854z" />
<glyph unicode="&#xe028;" d="M121.451 480v-296.384h39.978v167.254h310.592v-219.243h-256.022v-39.978h296v388.352h-390.55zM472.022 390.848h-310.592v49.173h310.592v-49.173zM143.104 131.392h-122.048c-11.414 0-20.651-9.259-20.651-20.651 0-11.435 9.238-20.672 20.651-20.672h70.314l-85.12-85.099c-8.341-8.341-8.341-21.824 0-30.166 4.16-4.16 9.643-6.25 15.082-6.25s10.922 2.091 15.104 6.25l86.016 85.995v-72.171c0-5.696 2.304-10.88 6.037-14.635 3.733-3.69 8.896-5.995 14.613-5.995 11.413 0 20.65 9.259 20.65 20.651l0.022 122.112c0 5.483-2.197 10.709-6.037 14.592-3.904 3.861-9.152 6.038-14.635 6.038z" />
<glyph unicode="&#xe029;" d="M413.546 322.453c0 87.019-70.507 157.547-157.547 157.547-86.998 0-157.547-70.528-157.547-157.547 0-28.736 7.85-55.573 21.269-78.762h-0.171l136.448-275.69 136.534 275.69h-0.214c13.483 23.19 21.226 50.048 21.226 78.762zM255.936 257.238c-39.68 0-71.829 32.171-71.829 71.851s32.15 71.851 71.829 71.851 71.829-32.171 71.829-71.851c0-39.702-32.149-71.851-71.829-71.851z" />
<glyph unicode="&#xe02a;" d="M94.763 417.365c-11.456-44.95-12.181-137.942 44.395-253.589h-0.042c0.128-0.235 0.256-0.448 0.384-0.661 0.107-0.214 0.192-0.426 0.32-0.661v0.022c57.984-114.986 132.523-170.56 175.296-188.565 0 0 29.952-11.946 50.262-1.834 3.648 1.792 6.507 3.2 8.918 4.416l-55.68 112.128c-12.822-4.032-13.888-4.33-25.408-7.744-19.115-5.654-31.552-3.094-52.65 39.466-7.872 15.829-22.059 44.394-36.757 73.942-0.214 0.448-0.448 0.875-0.64 1.322-14.698 29.483-28.864 58.026-36.757 73.899-21.099 42.517-15.68 53.952 0.363 65.77 9.707 7.125 10.582 7.808 21.547 15.574l-55.702 112.128c-2.432-1.238-5.248-2.624-8.896-4.438-20.331-10.112-28.95-41.173-28.95-41.173zM158.422 475.798c-0.064-0.022-0.128-0.043-0.192-0.086-0.107-0.042-0.171-0.106-0.234-0.128-1.28-0.64-2.304-1.13-3.392-1.707l53.974-108.651c2.667 1.899 5.504 3.904 8.704 6.187l1.408 1.046c0.022 0 0.022 0.022 0.064 0.043l0.128 0.085c2.006 1.6 3.798 3.35 5.44 5.226 0.47 0.555 0.853 1.195 1.302 1.771 1.131 1.387 2.176 2.816 3.072 4.352 0.47 0.789 0.853 1.621 1.258 2.432 0.726 1.408 1.365 2.838 1.941 4.288 0.341 0.918 0.619 1.834 0.875 2.774 0.448 1.472 0.79 2.944 1.046 4.438 0.192 0.981 0.341 1.92 0.448 2.922 0.149 1.558 0.192 3.115 0.171 4.672-0.022 0.96 0 1.899-0.085 2.858-0.128 1.685-0.448 3.371-0.81 5.056-0.192 0.854-0.278 1.664-0.49 2.475-0.49 1.792-1.216 3.541-1.963 5.291l0.085 0.277c-0.256 0.448-0.534 1.067-0.896 1.771-3.306 6.699-12.31 24.768-16.875 33.962-10.112 20.31-34.645 28.587-54.976 18.646zM398.038 83.606c-0.49 0.683-1.088 1.259-1.642 1.877-1.13 1.322-2.283 2.582-3.563 3.755-0.683 0.618-1.45 1.173-2.219 1.771-1.216 0.981-2.496 1.877-3.818 2.688-0.853 0.512-1.685 0.981-2.582 1.408-1.344 0.704-2.752 1.322-4.16 1.877-0.938 0.341-1.834 0.661-2.774 0.96-1.472 0.448-3.008 0.789-4.565 1.088-0.896 0.171-1.813 0.341-2.709 0.448-1.75 0.214-3.52 0.214-5.291 0.192-0.747 0-1.45 0.064-2.219 0.022-2.474-0.171-4.971-0.534-7.445-1.173l-0.171-0.064c0 0-0.022-0.022-0.064-0.022l-1.664-0.469c-3.776-1.195-7.082-2.219-10.197-3.221l53.974-108.651c1.088 0.534 2.134 1.067 3.37 1.685 0.064 0.043 0.149 0.043 0.235 0.086s0.149 0.086 0.214 0.128c20.182 10.176 28.416 34.752 18.325 55.040-4.565 9.195-13.546 27.243-16.875 33.942-0.341 0.726-0.64 1.344-0.875 1.792l-0.277 0.106c-0.896 1.642-1.856 3.286-3.008 4.736z" />
<glyph unicode="&#xe02b;" d="M172.672 303.659c4.288 11.008 10.262 20.501 17.963 28.565s16.96 14.336 27.84 18.88c10.88 4.502 23.018 6.784 36.438 6.784 17.323 0 31.808-2.368 43.392-7.147 11.606-4.757 20.928-10.688 28.010-17.75 7.082-7.104 12.139-14.72 15.211-22.912 3.029-8.192 4.565-15.808 4.565-22.912 0-11.691-1.536-21.334-4.565-28.907-3.072-7.594-6.848-14.058-11.37-19.413-4.502-5.376-9.493-9.963-14.998-13.76s-10.688-7.552-15.552-11.35c-4.885-3.798-9.238-8.128-12.992-12.992-3.798-4.885-6.187-11.008-7.147-18.304v-13.909h-49.493v16.448c0.746 10.496 2.752 19.286 6.059 26.368 3.286 7.062 7.125 13.12 11.542 18.133 4.394 4.992 9.024 9.344 13.888 12.992s9.408 7.317 13.568 11.008c4.139 3.648 7.51 7.68 10.070 12.054 2.56 4.416 3.733 9.899 3.498 16.49 0 11.221-2.752 19.498-8.256 24.896-5.504 5.333-13.12 8.022-22.89 8.022-6.613 0-12.245-1.258-17.046-3.84-4.757-2.538-8.64-5.974-11.712-10.24-3.050-4.288-5.312-9.28-6.762-14.998-1.472-5.717-2.197-11.861-2.197-18.453h-53.824c0.234 13.184 2.496 25.28 6.762 36.245zM282.346 146.538v-56.384h-57.493v56.384h57.493zM256 440c119.104 0 216-96.896 216-216 0-119.082-96.896-216-216-216s-216 96.918-216 216c0 119.104 96.896 216 216 216zM256 480c-141.398 0-256-114.624-256-256s114.603-256 256-256 256 114.624 256 256-114.603 256-256 256v0z" />
<glyph unicode="&#xe02c;" d="M254.422 311.36c-7.339 0-14.080-1.834-20.331-5.504-7.616-4.438-13.824-11.306-16.042-14.208-4.48-5.846-7.936-12.31-10.368-19.328-2.432-7.062-3.648-13.974-3.648-20.715 0-10.858 2.923-19.584 8.726-26.219 5.824-6.656 13.482-10.005 22.976-10.005 7.339 0 14.037 1.92 20.118 5.696 6.123 3.798 11.392 8.619 15.851 14.464 4.459 5.803 7.936 12.394 10.389 19.669 2.389 7.339 3.627 14.506 3.627 21.568 0 10.006-3.050 18.282-9.13 24.81-6.101 6.506-13.483 9.77-22.166 9.77zM255.978 468.202l-255.978-164.864v-335.339h512v335.339l-256.022 164.864zM136.896 316.992c6.998 15.915 16.512 29.675 28.63 41.344 12.075 11.626 26.155 20.821 42.219 27.563 16.042 6.741 33.131 10.112 51.264 10.112 15.829 0 31.062-2.582 45.738-7.702 14.656-5.099 27.563-12.266 38.72-21.44 11.158-9.216 20.118-20.373 26.88-33.514 6.72-13.099 10.091-27.712 10.091-43.755 0-17.92-3.178-33.28-9.558-46.059-6.442-12.8-14.080-23.275-23.019-31.403-8.981-8.149-18.048-14.101-27.221-17.942-9.195-3.861-16.555-5.781-22.144-5.781-7.466 0-13.44 1.856-17.984 5.589-4.522 3.712-7.040 8.469-7.51 14.293h-0.704c-4.182-6.976-9.642-12.096-16.405-15.36s-13.845-4.885-21.291-4.885c-7.424 0-14.486 1.536-21.099 4.714-6.635 3.115-12.458 7.445-17.451 12.906-4.992 5.462-8.917 11.798-11.862 19.008-2.923 7.19-4.374 14.848-4.374 23.018 0 10.923 1.792 21.76 5.418 32.448 3.584 10.688 8.704 20.224 15.339 28.608 6.635 8.384 14.656 15.104 24.064 20.245 9.408 5.098 19.819 7.659 31.21 7.659 7.445 0 15.104-1.792 23.040-5.398 7.894-3.584 13.824-9.942 17.77-18.986l5.611 18.837h28.608l-21.974-90.026c-0.704-2.304-1.344-4.822-1.92-7.51-0.598-2.667-0.875-5.184-0.875-7.53 0-2.282 0.448-4.203 1.387-5.76 0.918-1.493 2.432-2.262 4.544-2.262 4.885 0 9.813 1.6 14.805 4.736 4.992 3.136 9.43 7.53 13.269 13.269 3.84 5.696 6.976 12.501 9.408 20.416 2.432 7.914 3.67 16.512 3.67 25.813 0 13.952-2.432 26.219-7.339 36.822-4.885 10.56-11.563 19.541-20.053 26.858-8.469 7.339-18.474 12.864-29.995 16.576-11.52 3.691-23.914 5.547-37.163 5.547-14.891 0-28.438-2.603-40.661-7.851-12.181-5.184-22.571-12.416-31.19-21.589-8.597-9.195-15.232-20.118-19.862-32.79-4.65-12.672-6.976-26.346-6.976-41.002 0-15.36 2.538-29.248 7.68-41.707 5.077-12.438 12.181-23.168 21.269-32.086 9.046-8.96 19.946-15.872 32.619-20.757 12.672-4.885 26.453-7.36 41.344-7.36 14.678 0 28.565 2.517 41.728 7.531 13.12 4.992 24.235 12.032 33.322 21.077h29.312c-11.904-18.134-27.115-32-45.718-41.664-18.624-9.664-38.848-14.486-60.736-14.486-18.602 0-36.011 3.264-52.31 9.771s-30.506 15.574-42.709 27.2c-12.224 11.627-21.824 25.408-28.822 41.344-6.976 15.958-10.454 33.216-10.454 51.819-0.043 18.389 3.456 35.52 10.41 51.477zM40 241.92l91.733-83.712-91.734-110.635v194.346zM59.157 8l102.165 123.2 82.56-75.328c3.84-3.498 8.661-5.205 13.504-5.205 4.822 0 9.642 1.707 13.462 5.184l79.851 72.726 98.091-120.576h-389.632zM472 42.816l-91.669 112.726 91.669 83.478v-196.202z" />
<glyph unicode="&#xe02d;" d="M0 105.877c0-29.014 23.509-52.544 52.566-52.544h406.87c29.034 0 52.565 23.531 52.565 52.544v197.162h-512v-197.162zM206.059 146.432h43.84v-39.851h-43.84v39.851zM124.715 146.432h43.819v-39.851h-43.819v39.851zM43.392 146.432h43.818v-39.851h-43.819v39.851zM512 356.587c0 29.034-23.531 52.565-52.565 52.565h-406.87c-29.056 0-52.566-23.531-52.566-52.565v-13.696h512v13.696z" />
<glyph unicode="&#xe02e;" d="M178.155 8.128c-10.688 0-20.97 4.288-28.566 11.84l-149.589 149.568 57.173 57.152 117.995-117.974c49.152 59.968 156.48 190.357 274.923 331.178l61.909-52.075c-160.832-191.232-301.12-363.115-302.528-364.822-7.21-8.832-17.856-14.25-29.291-14.784-0.661-0.043-1.344-0.086-2.026-0.086z" />
<glyph unicode="&#xe02f;" d="M511.808 264.448c0 0.939 0.149 1.878 0.149 2.816 0 72.597-44.032 136.597-111.147 174.848h-0.022c-2.837 1.622-5.803 3.094-8.747 4.608-38.486 20.587-83.67 32.661-132.224 32.661-0.64 0-1.28-0.064-1.92-0.064-0.618 0-1.259 0.064-1.856 0.064-141.355 0-256-94.976-256-212.118 0-1.792 0.256-3.542 0.342-5.333-0.086-2.006-0.384-3.968-0.384-6.038 0-163.008 151.147-303.062 266.666-286.57-40.704 19.435-82.538 61.099-96.726 98.091-0.064 0.106-0.022 0.192-0.107 0.298 26.965-8 55.915-12.587 86.186-12.587 134.358 0 244.31 85.824 254.891 194.944 0.726 3.563 1.088 7.254 1.088 11.030 0 1.13-0.192 2.219-0.192 3.35zM124.118 229.91c-19.882 0-35.989 16.107-35.989 36.011 0 19.882 16.085 36.011 35.989 36.011s36.011-16.107 36.011-36.011c0-19.882-16.128-36.011-36.011-36.011zM256.022 229.91c-19.904 0-36.011 16.107-36.011 36.011 0 19.882 16.128 36.011 36.011 36.011 19.861 0 35.99-16.107 35.99-36.011 0-19.882-16.128-36.011-35.99-36.011zM387.882 229.91c-19.904 0-35.99 16.107-35.99 36.011 0 19.882 16.086 36.011 35.99 36.011s36.010-16.107 36.010-36.011c0-19.882-16.128-36.011-36.010-36.011z" />
<glyph unicode="&#xe030;" d="M471.040 416h-87.040v64h-42.666v-64h-170.667v64h-42.667v-64h-87.040c-11.306 0-19.627-6.635-19.627-17.92v-46.080h469.334v46.080c0 11.286-8.32 17.92-19.627 17.92zM20.48-11.52c0-11.307 9.174-20.48 20.48-20.48h430.080c11.307 0 20.48 9.173 20.48 20.48v348.16h-471.040v-348.16zM368.64 295.68h81.92v-81.942h-81.92v81.942zM368.64 193.28h81.92v-81.92h-81.92v81.92zM368.64 90.88h81.92v-81.92h-81.92v81.92zM266.24 295.68h81.92v-81.942h-81.92v81.942zM266.24 193.28h81.92v-81.92h-81.92v81.92zM266.24 90.88h81.92v-81.92h-81.92v81.92zM163.84 295.68h81.92v-81.942h-81.92v81.942zM163.84 193.28h81.92v-81.92h-81.92v81.92zM163.84 90.88h81.92v-81.92h-81.92v81.92zM61.44 295.68h81.92v-81.942h-81.92v81.942zM61.44 193.28h81.92v-81.92h-81.92v81.92zM61.44 90.88h81.92v-81.92h-81.92v81.92z" />
<glyph unicode="&#xe031;" d="M278.57 423.872v27.221h-45.674v-27.328c-105.856-11.52-188.267-101.141-188.267-210.048 0-55.104 21.227-105.11 55.744-142.741l-56.17-56.171 32.298-32.256 58.176 58.154c34.389-24.128 76.138-38.4 121.323-38.4 45.034 0 86.698 14.187 120.96 38.187l57.962-57.942 32.277 32.256-55.851 55.851c34.645 37.696 56 87.786 56 143.062-0.022 109.077-82.731 198.848-188.779 210.154zM85.099 213.717c0 94.336 76.501 170.774 170.88 170.774 94.315 0 170.816-76.438 170.816-170.774 0-94.358-76.501-170.837-170.816-170.837-94.357 0-170.88 76.48-170.88 170.837zM255.851 350.315l-13.632-149.867 115.904 13.611-88.341 13.099zM149.504 439.894c-34.219 34.090-89.621 34.070-123.819-0.128-34.24-34.261-34.24-89.77 0-124.010 0.235-0.192 0.47-0.427 0.683-0.619l2.198 2.176c24.619 53.738 67.563 97.301 120.939 122.582zM486.315 439.765c-34.026 34.006-88.853 34.198-123.136 0.747 54.528-25.408 98.368-69.846 123.050-124.822 0.043 0.042 0.043 0.064 0.043 0.064 34.304 34.24 34.304 89.749 0.043 124.010z" />
<glyph unicode="&#xe032;" d="M274.858 227.264v-107.2c0-1.067 0.277-2.048 0.298-3.072 0-0.32-0.064-0.598-0.064-0.896v-7.723h154.496v7.723c0 0.298-0.064 0.576-0.064 0.896 0.022 1.024 0.32 2.005 0.32 3.072v110.101l24.81-121.792h56.022l-45.824 181.248c-2.389 13.248-13.803 22.976-27.243 23.147l-58.154 0.171 0.726-1.066-27.84-85.035-28.075 85.034 0.789 1.066-58.026-0.17c-13.44-0.192-24.853-9.899-27.2-23.147l-37.611-181.248h50.24l22.4 118.891zM112.085 156.245h64.384v81.024h-164.245v-81.024h64.406v-106.901h35.456zM341.12 345.238c3.776-0.917 7.616-1.536 11.69-1.536 4.010 0 7.872 0.597 11.584 1.514 21.696 5.248 37.824 24.618 37.824 47.894 0 27.306-22.123 49.429-49.408 49.429s-49.43-22.122-49.43-49.429c0-23.254 16.128-42.603 37.738-47.872zM0 60.288h512v-49.621h-512v49.621z" />
<glyph unicode="&#xe033;" d="M62.742 357.738c-16.043 39.936-1.152 84.651 33.408 107.52-5.802-1.046-11.648-2.731-17.365-5.014-45.632-18.389-67.776-70.272-49.429-115.925 18.368-45.675 70.272-67.798 115.925-49.45 5.738 2.304 11.094 5.141 16 8.426-40.746-7.445-82.496 14.486-98.538 54.442zM274.837 184.576v-107.2c0-1.046 0.298-2.048 0.341-3.050 0-0.32-0.086-0.598-0.086-0.896v-7.723h154.518v7.723c0 0.298-0.128 0.576-0.128 0.896 0.086 1.002 0.341 2.005 0.341 3.050v110.123l24.853-121.792h55.978l-45.803 181.226c-2.389 13.248-13.781 22.976-27.2 23.147l-58.197 0.171 0.768-1.067-27.882-85.034-28.032 85.034 0.726 1.067-58.005-0.171c-13.44-0.192-24.81-9.899-27.178-23.146l-37.632-181.226h50.262l22.358 118.87zM341.12 302.549c3.755-0.917 7.637-1.536 11.669-1.536 4.010 0 7.872 0.597 11.627 1.514 21.654 5.248 37.781 24.618 37.781 47.893 0 27.306-22.101 49.43-49.408 49.43-27.286 0-49.387-22.123-49.387-49.43 0-23.253 16.106-42.603 37.718-47.872zM112.106 17.622v95.957h64.362v81.002h-164.224v-81.002h64.384v-95.957h-76.629v-49.622h512v49.621z" />
<glyph unicode="&#xe034;" d="M197.462 207.232c1.728-1.728 3.989-2.56 6.208-2.56 2.282 0 4.566 0.875 6.315 2.624 3.392 3.498 3.37 9.067-0.107 12.502-11.008 10.858-12.459 25.195-3.882 38.378 15.083 23.19 14.208 45.483-2.496 62.763-3.392 3.499-8.982 3.606-12.501 0.235-3.499-3.413-3.606-9.024-0.214-12.523 3.989-4.118 16.107-16.661 0.384-40.81-13.099-20.138-10.624-43.947 6.293-60.608zM155.542 207.232c1.728-1.728 3.968-2.56 6.208-2.56 2.282 0 4.565 0.875 6.293 2.624 3.435 3.498 3.392 9.067-0.085 12.502-11.030 10.858-12.458 25.195-3.904 38.378 15.104 23.19 14.23 45.483-2.475 62.763-3.392 3.499-9.002 3.584-12.501 0.214-3.52-3.413-3.606-9.024-0.214-12.522 3.989-4.118 16.085-16.662 0.405-40.832-13.12-20.096-10.645-43.904 6.272-60.566zM113.621 207.232c1.728-1.728 3.968-2.56 6.208-2.56 2.282 0 4.566 0.875 6.293 2.624 3.435 3.498 3.392 9.067-0.085 12.502-11.008 10.858-12.459 25.195-3.862 38.378 15.083 23.19 14.208 45.483-2.517 62.763-3.371 3.499-8.981 3.584-12.502 0.214-3.52-3.413-3.606-9.024-0.213-12.522 4.010-4.118 16.106-16.662 0.406-40.832-13.12-20.096-10.645-43.904 6.272-60.566zM477.418 180.992c-10.794 7.211-25.322 4.245-32.469-6.55l-16.022-24.043-117.099-23.702 4.48-22.208 0.875-4.245 3.925-19.413 116.459 23.466 18.496-13.632c5.526-4.118 12.288-5.376 18.538-4.118 5.483 1.13 10.603 4.16 14.229 9.046 7.659 10.411 5.462 25.046-4.95 32.747l-8.938 6.592 9.067 13.632c7.104 10.816 4.181 25.259-6.592 32.426zM26.070 38.741h252.33c11.925 11.094 21.546 22.592 27.115 33.962 0.384 0.704 0.064 2.091-0.426 2.048l-9.984 49.408c0 0-0.618 0.875-0.875 0.789-41.024 34.538-146.368 44.672-191.232 35.627-54.102-10.923-89.13-63.659-78.208-117.781 0.299-1.43 0.918-2.666 1.28-4.053zM452.885 18.134v0h-452.885l32.426-48.555h447.168l32.406 48.555zM357.632 270.506v-99.84h31.978v99.84c54.762 10.667 96.938 75.094 96.938 153.173 0 19.883-2.858 38.848-7.808 56.32h-210.219c-4.992-17.472-7.808-36.438-7.808-56.32-0.022-78.080 42.133-142.506 96.918-153.173zM289.792 410.986c0 14.763 2.091 28.843 5.781 41.792h156.053c3.712-12.971 5.781-27.050 5.781-41.792 0-10.048-1.024-19.733-2.795-29.013h-162.070c-1.728 9.28-2.752 18.944-2.752 29.013z" />
<glyph unicode="&#xe035;" d="M411.67 480c-10.283 0-18.666-8.341-18.666-18.645v-67.115h-274.048v67.115c0 10.304-8.32 18.645-18.666 18.645-10.282 0-18.624-8.341-18.624-18.645v-162.197c0-10.304 8.341-18.646 18.624-18.646 10.326 0 18.666 8.341 18.666 18.646v67.093h274.048v-67.093c0-10.304 8.384-18.646 18.666-18.646s18.624 8.341 18.624 18.646v162.197c0 10.304-8.341 18.645-18.624 18.645zM469.077 480c-10.283 0-18.666-8.341-18.666-18.645v-162.197c0-10.304 8.384-18.646 18.666-18.646s18.666 8.341 18.666 18.646v162.197c0 10.304-8.363 18.645-18.666 18.645zM42.922 480c-10.346 0-18.666-8.341-18.666-18.645v-162.197c0-10.304 8.341-18.646 18.666-18.646 10.24 0 18.624 8.341 18.624 18.646v162.197c0 10.304-8.384 18.645-18.624 18.645zM321.45-31.744l18.219 142.678c0 0.043 0.043 0.086 0.043 0.128l38.998 206.229c2.88 15.19-7.125 29.824-22.293 32.704-15.168 2.858-29.824-7.125-32.704-22.315l-28.416-150.293h-79.082l-28.416 150.272c-2.88 15.19-17.558 25.173-32.704 22.315-15.168-2.88-25.173-17.514-22.293-32.704l38.998-206.229 18.197-143.040 131.456 0.256zM293.866 239.573c0-21.078-17.087-38.165-38.166-38.165s-38.166 17.087-38.166 38.166c0 21.078 17.087 38.166 38.166 38.166 21.078 0 38.166-17.087 38.166-38.166z" />
<glyph unicode="&#xe036;" d="M75.52 384.278h202.838v-36.715h-202.838v36.714zM75.52 315.712h202.838v-36.714h-202.838v36.714zM191.915 182.336h86.442v-36.757h-86.442v36.757zM350.528 29.952l-26.517 16.086-50.666-27.243-50.154 26.986-50.176-26.986-50.090 26.986-49.834-26.858-29.739 17.11v409.088h307.178v-79.21h34.837v114.090h-376.853v-464.086l63.958-36.864 50.453 27.136 50.090-26.986 50.176 26.986 50.154-26.986 49.621 26.709 62.4-37.909v177.578h-34.837zM416.043 168.384l87.445 87.339-87.445 87.382v-54.762h-68.010v-65.216h68.010v-13.12z" />
<glyph unicode="&#xe037;" d="M-0.013 176.176l41.684 90.929 101.963-46.742-41.684-90.929-101.963 46.741zM414.87 299.755l-0.064-47.51-80.234-34.538 177.344 0.022-81.365 35.008v47.018c0 4.438-3.243 8-7.68 8-4.416 0-8-3.584-8-8zM432.214 36.95v136.96h1.6l78.186 33.621h-177.322l80.534-33.621h1.002v-136.832l-50.262-55.702c-2.986-3.286-2.688-8.363 0.598-11.307 1.514-1.365 3.413-2.069 5.334-2.069 2.197 0 4.373 0.896 5.93 2.646l46.25 51.243 43.755-51.115c1.558-1.813 3.798-2.774 6.058-2.774 1.834 0 3.712 0.618 5.205 1.92 3.349 2.88 3.755 7.914 0.875 11.286l-47.744 55.744zM246.506 219.798c-69.418 0-125.909-56.49-125.909-125.888 0-69.418 56.49-125.909 125.909-125.909s125.91 56.49 125.91 125.909c0 69.397-56.49 125.888-125.909 125.888zM246.506 2.454c-50.41 0-91.434 41.046-91.434 91.456 0 50.389 41.024 91.413 91.435 91.413s91.435-41.024 91.435-91.413c0-50.411-41.024-91.456-91.435-91.456zM283.968 408.192c0-20.619-16.714-37.334-37.334-37.334-20.619 0-37.334 16.714-37.334 37.334 0 20.618 16.714 37.333 37.334 37.333 20.618 0 37.334-16.714 37.334-37.333zM84.544 375.722c2.133 0 4.246 0.768 5.888 2.347l3.563 3.37 35.285-79.957c1.877-4.224 5.291-7.51 9.621-9.152 2.006-0.746 4.053-1.13 6.166-1.13 2.432 0 4.864 0.512 7.125 1.536l27.69 12.566 6.208-87.445c18.282 8.939 38.72 14.123 60.416 14.123 21.056 0 40.96-4.886 58.838-13.354 0.106 0.086 0.448 0.171 0.448 0.277l7.616 85.824 28.522-12.97c2.262-1.003 4.693-1.536 7.125-1.536 2.112 0 4.139 0.384 6.144 1.152 4.33 1.642 7.744 4.906 9.622 9.152l36.352 82.411 5.142-4.864c1.664-1.579 3.798-2.346 5.909-2.346 2.283 0 4.565 0.896 6.25 2.709 3.243 3.456 3.115 8.896-0.341 12.16l-81.856 77.227c-3.478 3.285-8.938 3.114-12.139-0.342-3.286-3.456-3.115-8.896 0.341-12.16l51.882-48.96c-2.219-1.707-4.181-3.755-5.376-6.486l-30.678-69.526-51.328 23.296c-5.866 2.837-12.331 4.565-19.307 4.565h-45.867c-3.179 0-13.888-1.195-20.886-4.416l-49.13-22.464-30.677 69.526c-0.832 1.898-2.070 3.434-3.413 4.842l52.586 49.621c3.456 3.264 3.584 8.726 0.341 12.16-3.2 3.456-8.704 3.627-12.16 0.341l-81.835-77.226c-3.478-3.264-3.627-8.726-0.384-12.16 1.686-1.813 3.99-2.709 6.293-2.709z" />
<glyph unicode="&#xe038;" d="M315.882 388.096c-4.075 0-8.171 1.558-11.286 4.693l-48.597 48.576-48.534-48.534c-6.25-6.25-16.384-6.25-22.635 0s-6.25 16.384 0 22.635l59.882 59.862c2.987 2.986 7.040 4.672 11.286 4.672v0c4.246 0 8.342-1.685 11.328-4.693l59.882-59.904c6.25-6.251 6.25-16.384 0-22.635-3.136-3.094-7.253-4.672-11.328-4.672zM256-32v0c-4.245 0-8.298 1.685-11.286 4.693l-59.925 59.904c-6.25 6.25-6.25 16.384 0 22.635s16.384 6.25 22.635 0l48.576-48.597 48.576 48.534c6.25 6.25 16.384 6.25 22.635 0s6.25-16.384 0-22.635l-59.882-59.861c-2.986-2.986-7.082-4.672-11.328-4.672zM269.738 298.538c0-7.587-6.151-13.738-13.738-13.738-7.588 0-13.738 6.151-13.738 13.738 0 7.587 6.151 13.738 13.738 13.738 7.587 0 13.738-6.151 13.738-13.738zM299.413 217.856l-12.373 56.469c-0.661 3.627-3.84 6.293-7.51 6.336l-23.531 0.085-23.51-0.064c-3.712-0.043-6.869-2.709-7.51-6.336l-12.374-56.469c-1.792-10.901 13.504-13.354 14.635-2.454l7.339 32.746v-20.245c0-0.256 0.085-0.534 0.128-0.81 0-0.107-0.042-0.192-0.042-0.256v-82.624c0-4.245 4.8-7.659 9.046-7.659 4.202 0 7.659 3.413 7.659 7.659l1.834 60.182h5.632l1.792-60.182c0-4.245 3.456-7.659 7.702-7.659s9.002 3.392 9.002 7.637v82.624c0 0.064 0 0.149 0 0.256 0 0.278 0.086 0.554 0.086 0.81v20.245l7.339-32.746c1.152-10.923 16.406-8.448 14.656 2.454zM389.418 82.986h-266.837v282.837h266.837v-282.837zM154.582 114.966h202.837v218.858h-202.838v-218.858z" />
<glyph unicode="&#xe039;" d="M404.33 348.182l-133.546 43.264v29.781h-13.312v0.214c-8.427 0-15.296 6.848-15.296 15.274s6.869 15.296 15.296 15.296c8.448 0 15.296-6.87 15.296-15.296h27.99c0 23.872-19.413 43.285-43.286 43.285s-43.264-19.413-43.264-43.264c0-18.688 11.989-34.475 28.608-40.512v-4.736l-135.829-43.541c-15.403-5.93-47.446-18.219-47.446-52.31 0-29.376 23.53-53.291 52.437-53.291h18.88v27.99h-18.88c-13.504 0-24.469 11.349-24.469 25.301 0 10.965 7.722 17.834 28.758 25.941l140.523 45.014 137.536-44.48c22.272-9.899 30.187-15.381 30.187-26.474 0-13.952-10.986-25.301-24.469-25.301h-8.106v-27.99h8.106c28.906 0 52.438 23.894 52.438 53.291-0.022 31.21-27.050 43.243-48.149 52.544zM277.376 282.346h-127.872v-314.346h95.894v175.147h31.978v-175.147h95.894v314.346h-63.936z" />
<glyph unicode="&#xe03a;" d="M233.643 13.462l42.88 42.325-116.63 398.998c-0.234-0.128-5.312 25.216-27.798 25.216-0.768 0-1.494-0.149-2.24-0.214h0.042c0 0.064 0 0.128 0.022 0.214h-105.835c-13.675-1.024-24.064-12.971-24.064-26.88 0-28.757 28.053-26.24 28.886-26.176h84.374l120.362-413.483zM49.28 172.352c23.21-80.149 83.499-139.328 156.714-164.8l-112.341 387.861c-48.298-60.694-67.563-142.912-44.373-223.061zM426.603 45.248c0 0-129.066-0.49-131.563-0.704l-77.44-76.544h294.378c-4.587 43.328-40.81 77.248-85.376 77.248z" />
<glyph unicode="&#xe03b;" d="M308.373 393.685l-13.418-13.397-28.971-28.992h121.642v121.642l-43.712-43.733c-81.195 70.72-204.65 67.69-281.899-9.579-80.597-80.618-80.597-211.798 0-292.438l35.52 35.52c-61.035 61.056-61.035 160.363 0 221.418 57.643 57.642 149.376 60.779 210.838 9.558zM200.704 270.549c-0.022 2.966-0.875 5.504-2.624 7.659-1.75 2.112-4.587 3.734-8.576 4.886v-25.771c3.306 0.619 6.037 2.155 8.085 4.63 2.048 2.432 3.114 5.291 3.114 8.598zM179.946 327.659c-2.602-0.875-4.65-2.368-6.186-4.523-1.578-2.090-2.346-4.438-2.346-6.997 0-2.304 0.704-4.48 2.133-6.486 1.387-2.027 3.542-3.648 6.4-4.864v22.87zM184.576 210.283c43.755 0 79.189 35.477 79.189 79.211 0.022 43.755-35.435 79.189-79.19 79.189s-79.21-35.434-79.21-79.189c0-43.734 35.477-79.211 79.21-79.211zM160.939 297.13c-4.011 5.035-6.016 11.094-6.016 18.219 0 7.189 2.262 13.29 6.827 18.197 4.544 4.928 10.624 7.744 18.197 8.512v6.528h9.6l-0.042-6.528c7.018-0.832 12.63-3.242 16.726-7.168 4.138-3.968 6.805-9.237 7.958-15.851l-16.726-2.154c-1.024 5.184-3.648 8.704-7.958 10.582l0.042-25.856c10.538-2.837 17.75-6.549 21.59-11.136 3.862-4.544 5.76-10.389 5.781-17.536 0-7.957-2.411-14.698-7.274-20.16-4.8-5.462-11.499-8.81-20.118-10.048v-12.352h-9.578v12.032c-7.616 0.896-13.824 3.733-18.56 8.512-4.757 4.757-7.808 11.499-9.131 20.16l17.28 1.835c0.683-3.52 2.026-6.55 3.968-9.11s4.075-4.394 6.464-5.547v27.67c-8.661 2.474-14.998 6.208-19.029 11.2zM449.962 320.832l-35.498-35.52c61.014-61.035 61.034-160.341 0-221.418-57.664-57.642-149.376-60.757-210.858-9.536l42.411 42.411h-121.642v-121.664l43.691 43.69c81.173-70.699 204.63-67.67 281.877 9.579 80.64 80.618 80.64 211.819 0.022 292.459zM327.424 237.738c-43.755 0-79.19-35.478-79.19-79.21-0.022-43.755 35.435-79.19 79.19-79.19s79.211 35.435 79.211 79.19c0 43.712-35.478 79.21-79.211 79.21zM361.365 165.269v-14.613h-24.832v-7.914h24.832v-14.613h-24.832v-18.070h-18.582l0.022 18.070h-24.512v14.613h24.49l0.022 7.914h-24.512v14.613h17.259l-20.565 41.707h20.352l13.205-28.139c1.685-3.541 2.88-6.635 3.584-9.344 0.832 2.923 2.026 6.016 3.563 9.344l13.483 28.139h20.352l-20.822-41.707h17.493z" />
<glyph unicode="&#xe03c;" d="M195.306 327.68v-52.736h53.76l-0.042 62.848c-3.328 1.173-6.272 3.456-8.064 6.827-3.733 7.062-1.002 15.829 6.059 19.563 7.061 3.712 15.829 1.002 19.541-6.080 3.733-7.062 1.046-15.829-5.995-19.563-0.341-0.171-0.747-0.149-1.088-0.32l0.022-63.317h51.733v54.89l17.301-54.848h41.152l-32.235 98.624c-1.792 9.749-10.304 16.896-20.394 17.045h-127.594c-10.048-0.17-18.582-7.296-20.352-17.045l-26.794-98.624h36.906l16.085 52.736zM244.374 406.741c2.88-0.683 5.803-1.152 8.896-1.152 3.072 0 5.974 0.448 8.853 1.152 16.512 3.947 28.843 18.538 28.843 36.032 0 20.587-16.853 37.226-37.696 37.226-20.821 0-37.718-16.64-37.718-37.226 0-17.451 12.31-32.064 28.822-36.032zM348.139 202.966l0.298 0.298c1.088 0.022 2.134 0.149 3.136 0.406 6.421 1.536 11.2 7.211 11.2 14.016v36.757h-214.506v-36.757c0-7.872 6.336-14.208 14.144-14.378l0.341-0.32h29.654l7.19-210.176h-51.328v-24.81h214.528v24.789h-51.563l7.445 210.176h29.462z" />
<glyph unicode="&#xe03d;" d="M272.128 329.813c1.301 15.574 3.498 30.848 6.87 45.078h9.088c11.158 0 20.202 9.046 20.202 20.202s-9.046 20.138-20.202 20.138h-63.466c-11.157 0-20.202-8.981-20.202-20.138s9.046-20.202 20.202-20.202h9.002c3.584-14.528 5.76-29.696 6.998-45.12-147.286-3.306-187.328-53.675-187.328-120.939h406.080c0 74.496-40.043 118.123-187.243 120.981zM246.464 311.978c-1.216-0.022-2.219-0.149-3.413-0.214-20.8-1.451-104-11.2-127.082-73.92h-30.848c13.12 41.771 56.171 70.699 157.91 73.92 1.472 0.106 2.602 0.192 3.434 0.214 0.832 0.042 1.365 0.042 1.365 0.042s-0.534 0-1.365-0.042zM246.464 311.978c-0.832-0.022-1.963-0.107-3.413-0.214 1.195 0.064 2.197 0.192 3.413 0.214zM452.459 155.904h-392.341c-7.787-36.010-29.674-66.837-59.584-86.336l-0.17-1.152h-0.362v-57.75h511.829v25.13l0.171 33.771c-29.909 19.498-51.755 50.304-59.541 86.336z" />
<glyph unicode="&#xe03e;" d="M314.368 166.229c2.432-2.389 5.611-3.627 8.789-3.627 3.243 0 6.486 1.259 8.938 3.733 4.864 4.928 4.8 12.885-0.128 17.75-15.616 15.424-17.685 35.733-5.504 54.464 21.418 32.918 20.139 64.512-3.52 89.067-4.842 4.95-12.8 5.099-17.77 0.298-4.95-4.822-5.099-12.757-0.298-17.728 5.654-5.867 22.848-23.68 0.534-57.92-18.582-28.608-15.062-62.4 8.96-86.038zM254.891 166.229c2.432-2.389 5.632-3.627 8.79-3.627 3.243 0 6.507 1.259 8.938 3.733 4.885 4.928 4.822 12.885-0.128 17.75-15.616 15.424-17.664 35.733-5.504 54.464 21.418 32.918 20.16 64.512-3.541 89.067-4.822 4.95-12.779 5.099-17.75 0.298-4.97-4.822-5.077-12.757-0.298-17.728 5.654-5.867 22.827-23.68 0.554-57.92-18.602-28.608-15.104-62.4 8.939-86.038zM195.413 166.229c2.432-2.389 5.611-3.627 8.79-3.627 3.243 0 6.506 1.259 8.96 3.733 4.864 4.928 4.8 12.885-0.149 17.75-15.595 15.424-17.664 35.733-5.462 54.464 21.398 32.918 20.138 64.512-3.563 89.067-4.8 4.95-12.736 5.099-17.75 0.298-4.992-4.822-5.12-12.779-0.278-17.728 5.654-5.867 22.827-23.68 0.534-57.92-18.624-28.608-15.104-62.4 8.917-86.038zM397.93 116.48h-34.731v-0.384c-0.64 0.064-1.238 0.384-1.899 0.384h-208.234c-12.438 0-23.424-10.070-23.53-22.486-0.278-0.043-7.659-93.717 83.050-125.995h89.238c36.16 12.885 56.598 35.541 68.245 58.134h27.882v0.448c24.64 0.214 44.63 20.245 44.63 44.971-0.022 24.661-19.99 44.714-44.651 44.928zM397.93 48.448h-18.88c7.488 25.046 5.93 45.546 5.781 45.546 0 0.043-0.022 0.086-0.022 0.128h13.12c0 0 22.315-0.341 22.315-22.592 0-12.416-10.005-22.87-22.315-23.082zM487.957 299.648c-4.010 0-8.022 1.002-11.776 3.114l-220.65 124.48-219.733-123.925c-11.541-6.506-26.198-2.432-32.682 9.11-6.528 11.541-2.454 26.197 9.088 32.683l231.51 130.602c7.317 4.118 16.277 4.118 23.574 0l232.469-131.136c11.563-6.528 15.616-21.163 9.13-32.704-4.416-7.808-12.544-12.181-20.928-12.224z" />
<glyph unicode="&#xe03f;" d="M348.8 364.992c2.966-0.043 5.824-0.406 8.618-0.918 9.514-2.346 11.392 9.622 6.87 13.504l-102.421 102.421-109.226-109.269c-3.946-3.392-14.101-0.064-11.947 9.707 0.47 2.794 0.683 5.418 0.683 8.384 0 27.477-22.272 49.75-49.77 49.75-13.611-0.022-25.814-5.611-34.816-14.464l-0.064 0.064c-0.15-0.149-0.278-0.341-0.406-0.49s-0.32-0.277-0.49-0.426l0.064-0.064c-8.853-8.96-14.464-21.184-14.464-34.816 0-27.478 22.294-49.771 49.749-49.771 2.966 0 5.568 0.214 8.362 0.704 9.792 2.154 13.099-8.022 9.728-11.947l-109.269-109.226 102.421-102.421c3.904-4.522 15.829-2.666 13.525 6.87-0.555 2.795-0.896 5.675-0.939 8.618-0.384 27.456 21.61 50.070 49.088 50.432 13.781 0.192 26.282-5.226 35.413-14.144 8.917-9.13 14.315-21.654 14.144-35.413-0.363-27.478-22.954-49.45-50.432-49.088-2.965 0.043-5.824 0.406-8.619 0.918-9.514 2.325-11.392-9.622-6.869-13.504l102.4-102.4 109.227 109.269c3.968 3.392 14.101 0.064 11.968-9.707-0.469-2.795-0.683-5.418-0.683-8.384 0-27.478 22.272-49.75 49.77-49.75 13.611 0.022 25.813 5.611 34.816 14.486l0.064-0.086c0.149 0.128 0.277 0.341 0.426 0.469 0.128 0.149 0.32 0.277 0.49 0.426l-0.086 0.064c8.853 8.981 14.442 21.205 14.464 34.837 0 27.456-22.293 49.75-49.75 49.771-2.966-0.022-5.568-0.214-8.384-0.704-9.771-2.154-13.077 8.022-9.707 11.968l109.248 109.206-102.421 102.422c-3.904 4.522-15.829 2.666-13.526-6.869 0.555-2.795 0.896-5.675 0.938-8.64 0.384-27.478-21.632-50.070-49.088-50.432-13.781-0.171-26.282 5.248-35.413 14.144-8.918 9.131-14.315 21.654-14.144 35.435 0.363 27.477 22.976 49.451 50.454 49.067z" />
<glyph unicode="&#xe040;" d="M167.424 440c0-22.091-17.909-40-40-40s-40 17.909-40 40c0 22.091 17.909 40 40 40 22.091 0 40-17.909 40-40zM437.418 259.221c0-22.091-17.909-40-40-40s-40 17.909-40 40c0 22.091 17.909 40 40 40 22.091 0 40-17.909 40-40zM506.134 111.104l-35.584 77.248c-5.675 11.498-14.72 17.365-27.37 19.776l-158.442 13.738c-3.307 0.298-6.55-0.128-9.536-1.11 1.6 0.64 3.221 1.259 4.693 2.304 10.816 7.637 13.418 22.635 5.76 33.429l-86.72 122.667c-5.632 7.082-14.4 9.6-25.302 9.429-10.518-0.064-22.976-0.405-28.202-0.405l-87.189-0.214c-10.73-0.149-19.861-7.915-21.802-18.474l-36.011-164.566c-5.184-31.723 39.339-38.933 42.624-7.19l21.44 95.424v-58.944c0-0.832 0.213-1.621 0.256-2.432 0-0.256-0.064-0.47-0.064-0.704v-240.683c0-12.373 13.888-22.4 26.261-22.4s22.422 10.026 22.422 22.4l5.269 175.339h17.408l4.65-174.72c0-12.394 14.678-22.4 27.072-22.4 12.416 0 22.422 10.005 22.422 22.4v240.661c0 0.298-0.064 0.534-0.064 0.853 0 0.597 0.149 1.109 0.149 1.707v74.112l56.192-79.509c4.672-6.634 12.054-10.176 19.605-10.176 2.24 0 4.502 0.384 6.699 1.024-7.574-3.478-13.248-10.731-13.995-19.648-1.152-13.184 8.618-24.832 21.803-25.984l62.358-5.418v-67.882c0-1.514 0.341-2.752 0.448-4.16-0.149-1.195-0.341-2.368-0.341-3.606v-98.005c0-13.248 9.024-24 22.272-24s23.723 10.752 23.723 24v71.211c3.243-0.064 13.952-0.086 16 0v-72.704c0-13.248 9.259-24 22.507-24s24 10.752 24 24v98.005c0 1.13 0 41.002 0 41.002l17.002-36.992c4.010-8.768 14.741-20.245 28.182-15.147 14.058 5.312 14.933 18.709 9.408 30.741zM427.541-30.507c13.248 0 24 10.752 24 24z" />
<glyph unicode="&#xe041;" d="M465.43 246.72c-2.389 13.248-13.803 22.912-27.264 23.126h-45.483v20.864h-79.765v-20.864h-45.526c-13.44-0.214-24.832-9.878-27.221-23.126l-37.674-180.8h50.304l22.378 118.613v-106.944c0-1.067 0.32-2.048 0.363-3.094 0-0.341-0.128-0.576-0.128-0.875v-7.702h154.688v7.702c0 0.298-0.043 0.534-0.043 0.875 0.043 1.046 0.32 2.026 0.32 3.094v109.824l24.875-121.493h56.064l-45.888 180.8zM302.358 352.171c0-23.702 16.448-43.478 38.55-48.853 3.818-0.938 7.765-1.578 11.925-1.578 4.075 0 7.978 0.64 11.84 1.536 22.101 5.355 38.613 25.152 38.613 48.896 0 11.541-4.032 22.059-10.56 30.55v45.93c6.57 3.989 10.56 9.002 10.56 14.507 0 13.226-22.613 23.893-50.432 23.893-27.861 0-50.454-10.666-50.454-23.893 0-5.462 3.99-10.475 10.56-14.507v-45.93c-6.613-8.49-10.603-19.008-10.603-30.55zM94.358 160.064c-52.117 0-94.358-42.24-94.358-94.358h188.757c0 52.118-42.282 94.358-94.4 94.358zM109.93 185.707c0-8.589-6.963-15.552-15.552-15.552s-15.552 6.963-15.552 15.552c0 8.589 6.963 15.552 15.552 15.552 8.589 0 15.552-6.963 15.552-15.552zM0 17.622h512v-49.622h-512v49.621z" />
<glyph unicode="&#xe042;" d="M420.33 437.334h-328.661c-27.094 0-49.024-21.93-49.024-49.002v-328.661c0-27.094 21.93-49.002 49.024-49.002h328.661c27.094 0 49.024 21.909 49.024 49.002v328.661c0 27.072-21.93 49.002-49.024 49.002zM134.528 56.576c-27.072 0-49.002 21.952-49.002 49.002s21.93 49.002 49.002 49.002c27.094 0 49.002-21.952 49.002-49.002s-21.93-49.002-49.002-49.002zM134.528 293.418c-27.072 0-49.002 21.93-49.002 48.981 0 27.072 21.93 49.002 49.002 49.002 27.094 0 49.002-21.93 49.002-49.002 0-27.050-21.93-48.981-49.002-48.981zM255.978 174.699c-27.2 0-49.302 22.058-49.302 49.302s22.080 49.302 49.302 49.302 49.301-22.080 49.301-49.302-22.101-49.302-49.302-49.302zM377.472 56.576c-27.094 0-49.002 21.952-49.002 49.002s21.909 49.002 49.002 49.002c27.050 0 49.002-21.952 49.002-49.002s-21.952-49.002-49.002-49.002zM377.472 293.418c-27.094 0-49.002 21.93-49.002 48.981 0 27.072 21.909 49.002 49.002 49.002 27.050 0 49.002-21.93 49.002-49.002 0-27.050-21.952-48.981-49.002-48.981z" />
<glyph unicode="&#xe043;" d="M256 440c119.104 0 216-96.896 216-216s-96.896-216-216-216-216 96.896-216 216 96.896 216 216 216zM256 480c-141.398 0-256-114.624-256-256 0-141.398 114.603-256 256-256s256 114.603 256 256c0 141.376-114.603 256-256 256v0zM124.95 341.547h90.219l40.49-156.736h0.661l40.49 156.736h90.219v-235.115h-57.621v178.475h-0.64l-49.387-178.475h-46.762l-49.387 178.475h-0.64v-178.475h-57.642v235.115z" />
</font>
</defs>
</svg>
