<?xml version="1.0" standalone="no"?>
<!DOCTYPE svg PUBLIC "-//W3C//DTD SVG 1.1//EN" "http://www.w3.org/Graphics/SVG/1.1/DTD/svg11.dtd" >
<svg xmlns="http://www.w3.org/2000/svg">
<metadata>
This is a custom SVG webfont generated by Font Squirrel.
Copyright   : Generated in 2008 by FontLab Studio Copyright info pending
Designer    : Betatype
Foundry URL : Betatypecom
</metadata>
<defs>
<font id="AperturaRegular" horiz-adv-x="1230" >
<font-face units-per-em="2048" ascent="1536" descent="-512" />
<missing-glyph horiz-adv-x="512" />
<glyph unicode=" "  horiz-adv-x="512" />
<glyph unicode="&#x09;" horiz-adv-x="512" />
<glyph unicode="&#xa0;" horiz-adv-x="512" />
<glyph unicode="!" horiz-adv-x="532" d="M152 94q0 47 32.5 81t79.5 34t81 -34t34 -81t-34 -79.5t-81 -32.5t-79.5 33.5t-32.5 78.5zM184 410v1024h164v-1024h-164z" />
<glyph unicode="&#x22;" horiz-adv-x="776" d="M154 1434h163v-492h-143zM461 1434h164v-492h-144z" />
<glyph unicode="#" horiz-adv-x="1181" d="M41 403v144h250l57 334h-231v143h256l69 410h154l-70 -410h254l70 410h154l-70 -410h207v-143h-232l-57 -334h213v-144h-238l-69 -403h-154l70 403h-254l-70 -403h-153l69 403h-225zM444 547h254l58 334h-254z" />
<glyph unicode="$" horiz-adv-x="1112" d="M113 68l39 137q213 -82 383 -82q127 0 214 67.5t87 196.5q0 98 -69 161.5t-232 108.5q-180 51 -298 149.5t-118 252.5q0 166 101.5 266t258.5 123v211h164v-209q150 -14 322 -84l-41 -139q-199 84 -361 84q-117 0 -198.5 -65.5t-81.5 -186.5q0 -88 70.5 -150.5 t230.5 -113.5q195 -63 305 -155.5t110 -252.5q0 -170 -100 -271.5t-256 -127.5v-193h-164v187q-182 12 -366 86z" />
<glyph unicode="%" horiz-adv-x="1390" d="M123 1153q0 127 86 215t219 88q131 0 218 -88t87 -215t-87 -216t-218 -89q-133 0 -219 88t-86 217zM193 328l942 921l102 -102l-942 -922zM260 1153q0 -80 46 -133t122 -53t122 54t46 132t-46 131t-122 53t-122 -53t-46 -131zM657 285q0 127 86 215t220 88q131 0 218 -88 t87 -215t-87 -216t-218 -89q-133 0 -219.5 88t-86.5 217zM795 285q0 -80 46 -133.5t121.5 -53.5t121.5 54.5t46 132t-46 131t-121.5 53.5t-121.5 -53t-46 -131z" />
<glyph unicode="&#x26;" horiz-adv-x="1302" d="M102 346q0 133 75 228.5t237 213.5l-64 76q-115 143 -114 279q0 141 95 224t259 83q143 0 239.5 -80t96.5 -209q0 -53 -16.5 -99t-57.5 -93t-70.5 -75t-97.5 -85q-49 -39 -53 -41l321 -383q29 41 127 211l115 -104q-63 -129 -141 -230l168 -199l-125 -98l-150 180 q-182 -166 -399 -165q-209 0 -327 99t-118 267zM266 340q0 -100 73 -158.5t210 -58.5q168 0 301 137l-344 416q-119 -90 -179.5 -165t-60.5 -171zM397 1145q0 -94 84 -197l58 -69l57 45q94 66 130 112.5t36 124.5q0 61 -52.5 103.5t-125.5 42.5q-66 0 -126.5 -46t-60.5 -116 z" />
<glyph unicode="'" horiz-adv-x="532" d="M184 1434h164v-492h-143z" />
<glyph unicode="(" horiz-adv-x="694" d="M123 553q0 356 121 617.5t286 377.5l62 -106q-115 -90 -210 -340t-95 -549t95 -532.5t210 -317.5l-62 -104q-166 115 -286.5 363.5t-120.5 590.5z" />
<glyph unicode=")" horiz-adv-x="694" d="M102 -295q115 90 210.5 340t95.5 549t-95.5 532.5t-210.5 317.5l62 104q166 -115 286.5 -363.5t120.5 -590.5q0 -356 -120.5 -617.5t-286.5 -377.5z" />
<glyph unicode="*" horiz-adv-x="948" d="M45 504v162l317 -15l-172 275l142 80l143 -271l143 271l144 -82l-172 -269l313 15v-162l-317 10l172 -270l-142 -80l-143 270l-143 -270l-142 82l168 264z" />
<glyph unicode="+" horiz-adv-x="962" d="M102 498v143h297v297h164v-297h297v-143h-297v-297h-164v297h-297z" />
<glyph unicode="," horiz-adv-x="432" d="M59 -225q82 82 111 180q-4 10 -17.5 31.5t-19.5 34t-12 33t-6 40.5q0 49 27.5 82t72.5 33q51 0 83 -36t32 -93q0 -190 -191 -369z" />
<glyph unicode="-" horiz-adv-x="819" d="M102 580v143h615v-143h-615z" />
<glyph unicode="." horiz-adv-x="432" d="M102 94q0 47 33 81t80 34t81 -34t34 -81t-34 -79.5t-81 -32.5t-80 33.5t-33 78.5z" />
<glyph unicode="/" horiz-adv-x="737" d="M0 -225l573 1720h164l-573 -1720h-164z" />
<glyph unicode="0" horiz-adv-x="1210" d="M92 717q0 332 130 534.5t382 202.5t383 -203.5t131 -533.5q0 -332 -130 -534.5t-384 -202.5q-252 0 -382 202.5t-130 534.5zM256 717q0 -594 348 -594q350 0 350 594q0 168 -31.5 296t-112.5 213t-206 85t-205 -85t-111.5 -213t-31.5 -296z" />
<glyph unicode="1" horiz-adv-x="679" d="M72 1290v144h413v-1434h-163v1290h-250z" />
<glyph unicode="2" horiz-adv-x="1112" d="M152 1300q225 154 446 154q170 0 282.5 -90t112.5 -260q0 -131 -57 -233.5t-213 -295.5q-31 -37 -45 -55l-295 -366l6 -11h655v-143h-880v102l401 502q170 213 217 298t47 202q0 100 -65.5 153.5t-165.5 53.5q-188 0 -381 -133z" />
<glyph unicode="3" horiz-adv-x="1026" d="M92 59l25 131q123 -47 338 -47q139 0 227 69t88 198q0 139 -98.5 212.5t-249.5 73.5h-164v144h123q150 0 249 63.5t99 171.5q0 113 -83 174.5t-212 61.5q-203 0 -317 -47l-21 131q135 59 338 59q199 0 329 -103.5t130 -275.5q0 -96 -58.5 -174t-152.5 -121v-12 q113 -47 182.5 -140t69.5 -218q0 -182 -136 -296t-343 -114q-222 0 -363 59z" />
<glyph unicode="4" horiz-adv-x="1220" d="M78 317v99l465 1018h172l-443 -973h539v420h164v-420h194v-144h-194v-317h-164v317h-733z" />
<glyph unicode="5" horiz-adv-x="1021" d="M92 39l27 137q135 -33 291 -33q160 0 258 84t98 244q0 150 -89 228.5t-239 78.5h-321v656h762v-144h-598v-368h157q217 0 354.5 -124t137.5 -327q0 -211 -147.5 -341t-372.5 -130q-191 0 -318 39z" />
<glyph unicode="6" horiz-adv-x="1216" d="M113 528q0 254 93 469t290 336q135 82 354 121l37 -135q-373 -59 -518 -334q-70 -129 -84 -305l12 -4q55 76 152.5 123t207.5 47q186 0 316.5 -118t130.5 -302q0 -203 -146.5 -324.5t-353.5 -121.5q-225 2 -358 160.5t-133 387.5zM276 479q8 -106 39 -166 q90 -190 293 -190q139 0 235.5 80t96.5 217t-85 209.5t-222 72.5q-113 -2 -209.5 -62.5t-147.5 -160.5z" />
<glyph unicode="7" horiz-adv-x="942" d="M31 1290v144h860v-103l-465 -1331h-164l465 1290h-696z" />
<glyph unicode="8" horiz-adv-x="1251" d="M133 399q0 111 78 207t197 139v13q-92 41 -152.5 125t-60.5 182q0 160 125.5 274.5t304 114.5t305.5 -114.5t127 -274.5q0 -98 -61.5 -182t-155.5 -125l2 -13q119 -43 197.5 -139t78.5 -207q0 -178 -144.5 -298.5t-349 -120.5t-348 120.5t-143.5 298.5zM297 399 q0 -117 95 -196.5t232.5 -79.5t233.5 80t96 196q0 111 -97 194t-232 83q-133 0 -230.5 -83t-97.5 -194zM358 1065q0 -102 78 -174t188.5 -72t189.5 72t79 174q0 100 -79 173t-189.5 73t-188.5 -72t-78 -174z" />
<glyph unicode="9" horiz-adv-x="1216" d="M113 1008q0 203 146.5 324.5t352.5 121.5q225 -2 358.5 -160.5t133.5 -388.5q0 -252 -94.5 -464t-290.5 -332q-156 -94 -352 -129l-37 135q377 68 518 334q63 123 82 278l-12 4q-57 -72 -153.5 -118t-205.5 -46q-186 0 -316 124t-130 317zM276 1014q0 -147 85 -225 t223 -78q113 2 209 62.5t147 162.5q-4 111 -39 184q-90 190 -293 191q-139 0 -235.5 -80t-96.5 -217z" />
<glyph unicode=":" horiz-adv-x="432" d="M102 94q0 47 33 81t80 34t81 -34t34 -81t-34 -79.5t-81 -32.5t-80 33.5t-33 78.5zM102 791q0 47 33 80.5t80 33.5t81 -33.5t34 -81t-34 -80t-81 -32.5t-80 34t-33 79z" />
<glyph unicode=";" horiz-adv-x="432" d="M72 -225q82 82 110 180q-4 10 -17 31.5t-19.5 34t-12.5 33t-6 40.5q0 49 27.5 82t72.5 33q51 0 83 -36t32 -93q0 -190 -190 -369zM109 782q0 47 32.5 81t79.5 34t81 -34t34 -81t-34 -79.5t-81 -32.5q-45 0 -78.5 33.5t-33.5 78.5z" />
<glyph unicode="&#x3c;" horiz-adv-x="1105" d="M102 459v145l902 379v-178l-701 -268v-13l701 -266v-178z" />
<glyph unicode="=" horiz-adv-x="1003" d="M102 334v143h799v-143h-799zM102 662v143h799v-143h-799z" />
<glyph unicode="&#x3e;" horiz-adv-x="1105" d="M102 80v178l699 266v13l-699 268v178l902 -379v-145z" />
<glyph unicode="?" horiz-adv-x="866" d="M102 1376q166 78 320 78q152 -2 247 -87t95 -226q0 -45 -9.5 -82t-33 -72t-37.5 -53.5t-52 -57t-52 -53.5q-139 -143 -140 -250q0 -72 41 -118l-127 -56q-72 84 -71 158q0 59 14 110.5t49 100.5t57.5 73.5t71.5 76.5q47 53 64.5 73.5t39 65.5t21.5 88q0 74 -51 120 t-133 46q-98 0 -279 -70zM262 94q0 47 33 81t80 34t80.5 -34t33.5 -81t-33.5 -79.5t-80.5 -32.5t-80 33.5t-33 78.5z" />
<glyph unicode="@" horiz-adv-x="1968" d="M123 471q0 403 252 662.5t629 259.5q360 0 611 -237.5t251 -602.5q0 -125 -42 -254t-140.5 -228.5t-229.5 -99.5q-74 0 -140.5 41t-107.5 115q-102 -147 -282 -147q-154 0 -262.5 129t-108.5 321q0 197 114.5 344.5t276.5 147.5q133 0 213 -66l10 6v39h164v-594 q0 -92 37 -147.5t94 -55.5q248 0 248 449q0 287 -201.5 491.5t-504.5 204.5q-301 0 -509 -230.5t-208 -547.5q0 -342 203.5 -560t513.5 -218q98 0 190 24l4 -149q-96 -18 -194 -19q-377 0 -629 259.5t-252 662.5zM717 430q0 -133 66.5 -220t160.5 -87q152 0 225 119 q-2 18 -2 59v416q-86 61 -223 61q-92 0 -159.5 -105.5t-67.5 -242.5z" />
<glyph unicode="A" horiz-adv-x="1312" d="M31 0l549 1434h153l549 -1434h-188l-154 432h-567l-154 -432h-188zM424 575h465l-217 615l-10 43h-13l-8 -43z" />
<glyph unicode="B" horiz-adv-x="1251" d="M174 0v1434h401q240 0 371 -111t131 -279q0 -100 -55 -179t-154 -117l2 -13q135 -33 212 -128t77 -218q0 -170 -131 -279.5t-371 -109.5h-483zM338 143h319q170 0 254 69t84 177q0 117 -78.5 191.5t-238.5 74.5h-340v-512zM338 799h258q160 0 238.5 67.5t78.5 177.5 q0 109 -84 177.5t-254 68.5h-237v-491z" />
<glyph unicode="C" horiz-adv-x="1175" d="M92 716.5q0 315.5 200 526.5t496 211q205 0 347 -59l-41 -131q-129 47 -306 47q-223 0 -377.5 -177.5t-154.5 -416.5q0 -254 152.5 -424t379.5 -170q190 0 306 47l41 -133q-143 -57 -347 -57q-297 0 -496.5 210.5t-199.5 526z" />
<glyph unicode="D" horiz-adv-x="1370" d="M174 0v1434h387q313 0 515 -205t202 -512t-202 -512t-515 -205h-387zM338 143h223q244 0 398.5 164t154.5 410q0 236 -156.5 404.5t-396.5 168.5h-223v-1147z" />
<glyph unicode="E" horiz-adv-x="1120" d="M174 0v1434h854v-144h-690v-485h657v-143h-657v-519h690v-143h-854z" />
<glyph unicode="F" horiz-adv-x="1099" d="M174 0v1434h854v-144h-690v-485h657v-143h-657v-662h-164z" />
<glyph unicode="G" horiz-adv-x="1359" d="M92 716.5q0 315.5 200 526.5t496 211q233 0 379 -57l-32 -133q-131 47 -347 47q-223 0 -377.5 -177.5t-154.5 -416.5q0 -254 152.5 -424t379.5 -170q156 0 265 24v525h164v-615q-174 -78 -429 -77q-297 0 -496.5 210.5t-199.5 526z" />
<glyph unicode="H" horiz-adv-x="1439" d="M174 0v1434h164v-629h764v629h164v-1434h-164v662h-764v-662h-164z" />
<glyph unicode="I" horiz-adv-x="532" d="M184 0v1434h164v-1434h-164z" />
<glyph unicode="J" horiz-adv-x="854" d="M51 25l37 131q86 -33 182 -33q117 0 181.5 71.5t64.5 194.5v1045h164v-1045q0 -186 -111.5 -297.5t-298.5 -111.5q-121 0 -219 45z" />
<glyph unicode="K" horiz-adv-x="1306" d="M174 0v1434h164v-727l12 -5l625 732h203l4 -11l-576 -643l660 -770l-4 -10h-203l-563 657l-158 -176v-481h-164z" />
<glyph unicode="L" horiz-adv-x="1024" d="M174 0v1434h164v-1291h645v-143h-809z" />
<glyph unicode="M" horiz-adv-x="1890" d="M174 0v1434h213l531 -1176l22 -78h12l27 80l528 1174h209v-1434h-164v1169l-12 2l-14 -61l-512 -1110h-133l-512 1110l-19 80l-12 -2v-1188h-164z" />
<glyph unicode="N" horiz-adv-x="1521" d="M174 0v1434h164l780 -1082l53 -100l13 2v1180h164v-1434h-164l-764 1059l-70 123l-12 -4v-1178h-164z" />
<glyph unicode="O" horiz-adv-x="1619" d="M92 716.5q0 313.5 208 525.5t509 212q295 0 507 -213t212 -524q0 -313 -208 -525t-511 -212q-301 0 -509 211.5t-208 525zM256 717q0 -252 159.5 -423t393.5 -171q227 0 391 172t164 422q0 240 -162 417t-393 177q-229 0 -391 -177t-162 -417z" />
<glyph unicode="P" horiz-adv-x="1267" d="M174 0v1434h490q250 0 391 -123t141 -307q0 -186 -140.5 -308.5t-391.5 -122.5h-326v-573h-164zM338 717h326q180 0 274 80t94 207q0 125 -94 205.5t-274 80.5h-326v-573z" />
<glyph unicode="Q" horiz-adv-x="1619" d="M92 716.5q0 313.5 208 525.5t509 212q295 0 507 -213t212 -524q0 -322 -219 -537l243 -243l-104 -99l-252 252q-178 -111 -387 -110q-301 0 -509 211.5t-208 525zM256 717q0 -252 159.5 -423t393.5 -171q227 0 391 172t164 422q0 240 -162 417t-393 177q-229 0 -391 -177 t-162 -417z" />
<glyph unicode="R" horiz-adv-x="1214" d="M174 0v1434h412q240 0 376 -117t136 -293q0 -131 -76 -231.5t-215 -147.5l387 -645h-195l-360 614h-301v-614h-164zM338 758h248q170 0 259 74.5t89 191.5t-89 191.5t-259 74.5h-248v-532z" />
<glyph unicode="S" horiz-adv-x="1112" d="M113 68l39 137q213 -82 383 -82q127 0 214 67.5t87 196.5q0 98 -69 161.5t-232 108.5q-180 51 -298 149.5t-118 252.5q0 190 129 292.5t315 102.5q190 0 402 -88l-41 -139q-199 84 -361 84q-117 0 -198.5 -65.5t-81.5 -186.5q0 -88 70.5 -150.5t230.5 -113.5 q195 -63 305 -155.5t110 -252.5q0 -199 -135 -303t-329 -104q-203 0 -422 88z" />
<glyph unicode="T" horiz-adv-x="1064" d="M41 1290v144h983v-144h-403v-1290h-164v1290h-416z" />
<glyph unicode="U" horiz-adv-x="1415" d="M154 512v922h163v-922q0 -176 111 -282.5t279 -106.5q164 0 277.5 107.5t113.5 281.5v922h164v-922q0 -238 -159 -385t-396 -147q-236 0 -394.5 147t-158.5 385z" />
<glyph unicode="V" horiz-adv-x="1312" d="M31 1434h188l418 -1190l14 -76h13l14 76l416 1190h188l-539 -1434h-174z" />
<glyph unicode="W" horiz-adv-x="1826" d="M31 1434h178l244 -1180l8 -57h12l10 57l355 1180h151l354 -1180l11 -57h12l8 57l244 1180h178l-344 -1434h-174l-350 1133l-8 47h-13l-8 -47l-350 -1133h-174z" />
<glyph unicode="X" horiz-adv-x="1300" d="M51 0l506 733l-485 701h188l389 -566l391 566h189l-486 -701l506 -733h-184l-416 598l-413 -598h-185z" />
<glyph unicode="Y" horiz-adv-x="1271" d="M31 1434h188l395 -736l17 -51h12l16 51l394 736h188l-524 -942v-492h-164v496z" />
<glyph unicode="Z" horiz-adv-x="1206" d="M72 0v102l831 1188h-811v144h1022v-103l-835 -1188h856v-143h-1063z" />
<glyph unicode="[" horiz-adv-x="634" d="M174 -348v1864h358v-144h-194v-1577h194v-143h-358z" />
<glyph unicode="\" horiz-adv-x="737" d="M0 1495h164l573 -1720h-164z" />
<glyph unicode="]" horiz-adv-x="634" d="M102 -205h195v1577h-195v144h359v-1864h-359v143z" />
<glyph unicode="^" horiz-adv-x="1087" d="M123 614l338 820h166l338 -820h-168l-234 605l-12 51h-12l-11 -51l-237 -605h-168z" />
<glyph unicode="_" horiz-adv-x="1024" d="M102 0h820v-143h-820v143z" />
<glyph unicode="`" horiz-adv-x="585" d="M104 1434h207l181 -295h-160z" />
<glyph unicode="a" horiz-adv-x="1269" d="M82 512q0 223 149.5 377.5t364.5 154.5q193 0 315 -102l11 4v78h163v-1024h-163v113l-13 6q-119 -139 -334 -139q-207 0 -350 154.5t-143 377.5zM246 512q0 -160 109.5 -274.5t260.5 -114.5q217 0 306 172v504q-119 102 -306 102q-152 0 -261 -113.5t-109 -275.5z" />
<glyph unicode="b" horiz-adv-x="1249" d="M164 0v1495h164v-584l12 -4q117 137 334 137q207 0 350 -154.5t143 -377.5t-149.5 -377.5t-364.5 -154.5q-213 0 -346 114l-31 -94h-112zM328 205q119 -82 305 -82q152 0 261.5 113.5t109.5 275.5q0 160 -110 274.5t-261 114.5q-217 0 -305 -172v-524z" />
<glyph unicode="c" horiz-adv-x="899" d="M82 512q0 223 149.5 377.5t362.5 154.5q154 0 264 -59l-41 -131q-102 47 -223 47q-143 0 -245.5 -114.5t-102.5 -274.5q0 -162 102.5 -275.5t245.5 -113.5q139 0 223 47l41 -133q-113 -57 -264 -57q-213 0 -362.5 154.5t-149.5 377.5z" />
<glyph unicode="d" d="M82 512q0 223 149.5 377.5t364.5 154.5q186 0 307 -86v537h164v-1495h-164v94l-12 4q-115 -119 -316 -118q-207 0 -350 154.5t-143 377.5zM246 512q0 -160 109.5 -274.5t260.5 -114.5q193 0 287 139v569q-119 70 -287 70q-152 0 -261 -113.5t-109 -275.5z" />
<glyph unicode="e" horiz-adv-x="1128" d="M92 510q0 217 138.5 374.5t353.5 159.5q197 0 313.5 -110.5t138.5 -319.5v-122h-780q10 -178 107.5 -272.5t281.5 -96.5q170 0 301 61l35 -133q-160 -72 -336 -71q-244 0 -398.5 143t-154.5 387zM268 635h602q-6 123 -85.5 194.5t-198.5 71.5q-121 0 -205 -74.5 t-113 -191.5z" />
<glyph unicode="f" horiz-adv-x="655" d="M20 881v143h166v123q0 168 95.5 268.5t253.5 100.5q129 0 223 -43l-41 -127q-70 27 -182 26q-88 0 -136.5 -59.5t-48.5 -165.5v-123h283v-143h-283v-881h-164v881h-166z" />
<glyph unicode="g" d="M82 512q0 223 149.5 377.5t364.5 154.5q186 0 307 -73v53h164v-1085q0 -199 -135 -315t-336 -116q-205 0 -346 60l41 131q115 -47 305 -47q131 0 219 75.5t88 211.5v155l-12 4q-115 -119 -316 -118q-207 0 -350 154.5t-143 377.5zM246 512q0 -160 109.5 -274.5 t260.5 -114.5q193 0 287 139v569q-123 70 -287 70q-152 0 -261 -113.5t-109 -275.5z" />
<glyph unicode="h" horiz-adv-x="1249" d="M164 0v1495h164v-604l12 -4q129 158 375 157q160 0 265 -112.5t105 -317.5v-614h-163v614q0 143 -69 215t-179 72q-109 0 -201 -49t-145 -143v-709h-164z" />
<glyph unicode="i" horiz-adv-x="552" d="M176 1348q0 41 28.5 70.5t69.5 29.5t71 -29.5t30 -70.5t-30 -70t-71 -29t-69.5 29t-28.5 70zM195 0v1024h163v-1024h-163z" />
<glyph unicode="j" horiz-adv-x="548" d="M-193 -453l39 131q61 -27 162 -26q98 0 151.5 60.5t53.5 164.5v1147h164v-1147q0 -168 -100.5 -268.5t-268.5 -100.5q-117 0 -201 39zM176 1348q0 41 28.5 70.5t69.5 29.5t71 -29.5t30 -70.5t-30 -70t-71 -29t-69.5 29t-28.5 70z" />
<glyph unicode="k" horiz-adv-x="1101" d="M164 0v1495h164v-932l12 -4l438 465h201l4 -12l-434 -426l522 -576l-4 -10h-203l-424 481l-112 -110v-371h-164z" />
<glyph unicode="l" horiz-adv-x="583" d="M164 268v1227h164v-1227q0 -133 164 -143l-21 -143q-141 0 -224 74.5t-83 211.5z" />
<glyph unicode="m" horiz-adv-x="1884" d="M164 0v1024h164v-129l12 -4q123 154 354 153q98 0 179 -46t124 -132q145 178 394 178q154 0 252 -112.5t98 -317.5v-614h-164v614q0 143 -63.5 215t-163.5 72q-221 0 -310 -190q4 -37 4 -56v-655h-163v655q0 123 -63.5 184.5t-164.5 61.5q-231 0 -325 -192v-709h-164z " />
<glyph unicode="n" horiz-adv-x="1228" d="M164 0v1024h164v-133l12 -4q129 158 375 157q160 0 265 -112.5t105 -317.5v-614h-163v614q0 143 -69 215t-179 72q-109 0 -201 -49t-145 -143v-709h-164z" />
<glyph unicode="o" d="M82 512q0 223 154.5 377.5t378 154.5t379 -154.5t155.5 -377.5t-155.5 -377.5t-379 -154.5t-378 154.5t-154.5 377.5zM246 512q0 -162 107.5 -275.5t260.5 -113.5q152 0 261.5 113.5t109.5 275.5q0 160 -109.5 274.5t-261.5 114.5q-154 0 -261 -114.5t-107 -274.5z" />
<glyph unicode="p" horiz-adv-x="1249" d="M164 -471v1495h164v-113l12 -4q117 137 334 137q207 0 350 -154.5t143 -377.5t-149.5 -377.5t-364.5 -154.5q-203 0 -315 90l-10 -7v-534h-164zM328 205q119 -82 305 -82q152 0 261.5 113.5t109.5 275.5q0 160 -110 274.5t-261 114.5q-217 0 -305 -172v-524z" />
<glyph unicode="q" horiz-adv-x="1249" d="M82 512q0 223 149.5 377.5t364.5 154.5q195 0 326 -98v78h163v-1495h-163v584l-13 6q-119 -139 -334 -139q-207 0 -350 154.5t-143 377.5zM246 512q0 -160 109.5 -274.5t260.5 -114.5q217 0 306 172v524q-119 82 -306 82q-152 0 -261 -113.5t-109 -275.5z" />
<glyph unicode="r" horiz-adv-x="722" d="M164 -2v1026h164v-115l12 -6q121 141 313 141h29v-143h-49q-184 0 -305 -153v-750h-164z" />
<glyph unicode="s" horiz-adv-x="937" d="M102 47l45 146q176 -70 306 -70q92 0 155.5 41t63.5 121q0 61 -49.5 101t-171.5 71q-332 84 -332 295q0 139 105.5 215.5t256.5 76.5q154 0 330 -77l-45 -136q-174 70 -285 70q-84 0 -141 -40t-57 -109q0 -106 204 -154q348 -80 349 -313q0 -147 -111 -226t-272 -79 q-173 -1 -351 67z" />
<glyph unicode="t" horiz-adv-x="788" d="M31 881v143h166v328h163v-328h304v-143h-304v-543q0 -104 49.5 -154.5t135.5 -50.5q100 0 162 27l41 -127q-86 -43 -203 -43q-154 0 -251 92t-97 256v543h-166z" />
<glyph unicode="u" d="M143 451v573h164v-573q0 -147 88 -237.5t219 -90.5t220.5 90t89.5 238v573h163v-573q0 -209 -136 -340t-337 -131q-199 0 -335 131t-136 340z" />
<glyph unicode="v" horiz-adv-x="1087" d="M20 1024h185l325 -834l9 -36h12l8 36l324 834h184l-440 -1024h-166z" />
<glyph unicode="w" horiz-adv-x="1642" d="M41 1024h178l223 -809l4 -35h13l8 35l278 809h152l281 -809l6 -31l12 2l4 29l223 809h179l-324 -1024h-174l-268 758l-9 43h-12l-8 -43l-268 -758h-174z" />
<glyph unicode="x" horiz-adv-x="1116" d="M61 0l404 526l-383 498h188l287 -377l289 377h188l-383 -498l404 -526h-185l-313 406l-311 -406h-185z" />
<glyph unicode="y" horiz-adv-x="1067" d="M31 1024h188l316 -774l12 -55h12l289 829h188l-473 -1206q-61 -160 -154.5 -244t-277.5 -84l-14 141q123 0 188.5 52.5t110.5 171.5l59 161z" />
<glyph unicode="z" horiz-adv-x="1030" d="M74 0v102l616 779h-596v143h817v-102l-612 -768l6 -11h627v-143h-858z" />
<glyph unicode="{" horiz-adv-x="673" d="M102 518v127q82 20 119 77.5t37 168.5v326q0 147 64.5 214.5t207.5 67.5l41 -4v-145q-98 0 -123.5 -34t-25.5 -122v-315q0 -113 -37 -180.5t-143 -125.5q180 -88 180 -251v-365q0 -88 26.5 -125t122.5 -35v-143l-34 -4q-158 2 -218.5 73.5t-60.5 221.5v366 q0 74 -42 131.5t-114 75.5z" />
<glyph unicode="|" horiz-adv-x="532" d="M184 -348v1843h164v-1843h-164z" />
<glyph unicode="}" horiz-adv-x="673" d="M102 -201q98 0 124 34t26 122v315q0 113 37 180.5t143 124.5q-180 88 -180 252v365q0 88 -26.5 125t-123.5 35v143l35 4q158 -2 218.5 -73.5t60.5 -221.5v-366q0 -74 42 -131.5t113 -75.5v-127q-82 -20 -118.5 -77.5t-36.5 -168.5v-326q0 -147 -64.5 -214.5t-208.5 -67.5 l-41 4v145z" />
<glyph unicode="~" horiz-adv-x="1167" d="M80 604q53 111 120.5 169t166.5 58q102 0 270 -118q8 -6 27.5 -20.5t26.5 -19.5t24.5 -15.5t28 -15.5t24.5 -11t28.5 -8t30.5 -2q33 0 59.5 11t53.5 43t35 44t39 59l96 -82q-53 -111 -120.5 -169t-166.5 -58q-23 0 -44 3t-43.5 12.5t-39 16.5t-41 21.5t-35 20.5t-36 23.5 t-31.5 21.5q-43 33 -63.5 47t-56.5 29.5t-71 15.5q-33 0 -59.5 -11.5t-53 -43t-34.5 -44t-39 -59.5z" />
<glyph unicode="&#xa1;" horiz-adv-x="552" d="M186 930q0 47 34 79.5t81 32.5t80 -33.5t33 -78.5q0 -47 -33 -81t-80 -34t-81 34t-34 81zM217 -410v1024h164v-1024h-164z" />
<glyph unicode="&#xa2;" horiz-adv-x="899" d="M82 512q0 190 111.5 333.5t285.5 184.5v219h164v-207q119 -6 215 -57l-41 -131q-102 47 -223 47q-143 0 -245.5 -114.5t-102.5 -274.5q0 -162 102.5 -275.5t245.5 -113.5q139 0 223 47l41 -133q-98 -49 -215 -55v-199h-164v211q-174 39 -285.5 183.5t-111.5 334.5z" />
<glyph unicode="&#xa3;" horiz-adv-x="1024" d="M43 664v143h143v258q0 205 118 328t312 123q203 0 345 -132l-80 -104q-51 35 -77 49t-77 28.5t-111 14.5q-127 0 -196.5 -82t-69.5 -225v-258h346v-143h-346v-287q0 -139 -59 -234h653v-143h-883v143h11q57 10 85.5 83t28.5 151v287h-143z" />
<glyph unicode="&#xa5;" horiz-adv-x="1271" d="M31 1434h188l393 -732h50l391 732h188l-407 -732h208v-143h-288l-37 -67v-117h325v-144h-325v-231h-164v231h-309v144h309v121l-37 63h-272v143h192z" />
<glyph unicode="&#xa6;" horiz-adv-x="532" d="M184 -348v782h164v-782h-164zM184 743v752h164v-752h-164z" />
<glyph unicode="&#xa7;" horiz-adv-x="1112" d="M66 524q0 96 70.5 173t185.5 118q-174 115 -174.5 285t129 262t315.5 92q190 0 401 -88l-41 -139q-209 84 -360 84q-117 0 -199 -54.5t-82 -156.5q0 -88 80 -150.5t262 -113.5q195 -63 305.5 -155.5t110.5 -252.5q0 -96 -71.5 -174t-186.5 -117q176 -115 176 -284.5 t-129 -262t-315 -92.5q-190 0 -402 88l41 140q209 -84 361 -84q117 0 198.5 54t81.5 157q0 88 -79.5 150.5t-262.5 113.5q-195 63 -305 155t-110 252zM229 524q0 -98 69 -161.5t232 -108.5q55 -14 140 -45q102 12 168.5 68.5t66.5 150.5q0 98 -68.5 161.5t-232.5 108.5 q-80 20 -141 45q-102 -14 -168 -69.5t-66 -149.5z" />
<glyph unicode="&#xa8;" horiz-adv-x="987" d="M123 1339q0 47 32.5 81t80 34t81 -34t33.5 -81t-33.5 -79.5t-81 -32.5t-80 33.5t-32.5 78.5zM635 1339q0 47 32.5 81t80 34t81 -34t33.5 -81t-33.5 -79.5t-81 -32.5t-80 33.5t-32.5 78.5z" />
<glyph unicode="&#xa9;" horiz-adv-x="1619" d="M92 716.5q0 313.5 208 525.5t509 212q295 0 507 -213t212 -524q0 -313 -208 -525t-511 -212q-301 0 -509 211.5t-208 525zM195 717q0 -283 175 -459t439 -176q254 0 435 178t181 457q0 268 -178 451.5t-438 183.5t-437 -183.5t-177 -451.5zM457 721q0 166 106.5 278.5 t261.5 112.5q111 0 185 -33l-23 -90q-61 27 -162 27q-109 0 -185.5 -88t-76.5 -207q0 -125 76 -210t186 -85q104 0 162 25l23 -91q-74 -31 -185 -30q-158 0 -263 111.5t-105 279.5z" />
<glyph unicode="&#xaa;" horiz-adv-x="1269" d="M82 512q0 223 149.5 377.5t364.5 154.5q193 0 315 -102l11 4v78h163v-1024h-163v113l-13 6q-119 -139 -334 -139q-207 0 -350 154.5t-143 377.5zM246 512q0 -160 109.5 -274.5t260.5 -114.5q217 0 306 172v504q-119 102 -306 102q-152 0 -261 -113.5t-109 -275.5z" />
<glyph unicode="&#xab;" horiz-adv-x="1036" d="M98 418v127l328 395l111 -92l-297 -365l297 -348l-111 -92zM520 418v127l328 395l110 -92l-296 -365l296 -348l-110 -92z" />
<glyph unicode="&#xad;" horiz-adv-x="819" d="M102 580v143h615v-143h-615z" />
<glyph unicode="&#xae;" horiz-adv-x="1619" d="M92 716.5q0 313.5 208 525.5t509 212q295 0 507 -213t212 -524q0 -313 -208 -525t-511 -212q-301 0 -509 211.5t-208 525zM195 717q0 -283 175 -459t439 -176q254 0 435 178t181 457q0 268 -178 451.5t-438 183.5t-437 -183.5t-177 -451.5zM565 330v780h246 q131 0 205 -64.5t74 -158.5q0 -70 -39 -123t-111 -80l223 -354h-125l-209 334h-153v-334h-111zM676 762h135q82 0 125 34.5t43 90t-43 90.5t-125 35h-135v-250z" />
<glyph unicode="&#xaf;" horiz-adv-x="929" d="M102 1286v150h725v-150h-725z" />
<glyph unicode="&#xb0;" horiz-adv-x="665" d="M82 1157q0 104 72.5 178t177.5 74q102 0 177 -74.5t75 -177.5q0 -104 -74 -177t-178.5 -73t-177 74t-72.5 176zM190 1157q0 -57 42 -99t100 -42q59 0 100 41t41 100.5t-41 100t-100 40.5q-57 0 -99.5 -41t-42.5 -100z" />
<glyph unicode="&#xb2;" horiz-adv-x="755" d="M102 1346q123 102 260 102q100 0 167 -55.5t67 -159.5q0 -72 -42 -134.5t-144 -152.5l-88 -76l6 -12h325v-115h-540v82l206 189q90 84 118 124t28 95q0 49 -28.5 74.5t-74.5 25.5q-111 0 -206 -86z" />
<glyph unicode="&#xb3;" horiz-adv-x="747" d="M102 780l21 105q84 -37 237 -37q66 0 110 21.5t44 60.5q0 53 -51 83.5t-129 30.5h-131v115h98q78 0 129 23.5t51 66.5t-39 66.5t-98 23.5q-141 0 -221 -36l-17 104q94 47 238 47q115 0 191.5 -55.5t76.5 -149.5q0 -86 -94 -135l2 -12q55 -23 90 -68t35 -104 q0 -88 -82 -142.5t-203 -54.5q-156 0 -258 47z" />
<glyph unicode="&#xb4;" horiz-adv-x="585" d="M170 1139l180 295h207l-227 -295h-160z" />
<glyph unicode="&#xb6;" horiz-adv-x="1011" d="M82 1004q0 184 141.5 307t390.5 123h224v-1434h-164v573h-60q-252 0 -392 122.5t-140 308.5z" />
<glyph unicode="&#xb7;" horiz-adv-x="509" d="M102 606q0 47 33 81t80 34t81 -34t34 -81t-34 -79.5t-81 -32.5t-80 33.5t-33 78.5z" />
<glyph unicode="&#xb8;" horiz-adv-x="577" d="M143 -276q143 14 183.5 98t-27.5 198h170q72 -154 -9 -281.5t-286 -127.5z" />
<glyph unicode="&#xb9;" horiz-adv-x="454" d="M102 1319v115h250v-689h-131v574h-119z" />
<glyph unicode="&#xba;" d="M82 512q0 223 154.5 377.5t378 154.5t379 -154.5t155.5 -377.5t-155.5 -377.5t-379 -154.5t-378 154.5t-154.5 377.5zM246 512q0 -162 107.5 -275.5t260.5 -113.5q152 0 261.5 113.5t109.5 275.5q0 160 -109.5 274.5t-261.5 114.5q-154 0 -261 -114.5t-107 -274.5z" />
<glyph unicode="&#xbb;" horiz-adv-x="1038" d="M98 135l295 365l-295 348l111 92l328 -375v-127l-328 -395zM522 135l295 365l-295 348l111 92l328 -375v-127l-328 -395z" />
<glyph unicode="&#xbc;" horiz-adv-x="1468" d="M102 1319v115h250v-689h-131v574h-119zM150 328l942 921l102 -102l-942 -922zM745 141v78l226 471h137l-205 -434h217v221h131v-221h115v-115h-115v-139h-131v139h-375z" />
<glyph unicode="&#xbd;" horiz-adv-x="1298" d="M61 328l943 921l102 -102l-942 -922zM109 1319v115h249v-689h-131v574h-118zM645 600q123 102 260 102q100 0 167 -55t67 -160q0 -72 -42 -134t-145 -152l-88 -76l6 -12h326v-115h-541v82l207 188q90 84 118 124t28 95q0 49 -29 75t-74 26q-111 0 -207 -86z" />
<glyph unicode="&#xbe;" horiz-adv-x="1540" d="M102 780l21 105q84 -37 237 -37q66 0 110 21.5t44 60.5q0 53 -51 83.5t-129 30.5h-131v115h98q78 0 129 23.5t51 66.5t-39 66.5t-98 23.5q-141 0 -221 -36l-17 104q94 47 238 47q115 0 191.5 -55.5t76.5 -149.5q0 -86 -94 -135l2 -12q55 -23 90 -68t35 -104 q0 -88 -82 -142.5t-203 -54.5q-156 0 -258 47zM274 328l943 921l102 -102l-942 -922zM817 137v78l225 471h138l-205 -434h217v221h131v-221h115v-115h-115v-139h-131v139h-375z" />
<glyph unicode="&#xbf;" horiz-adv-x="866" d="M102 -117q0 -141 95.5 -226t246.5 -87q154 0 320 78l-35 135q-180 -70 -278 -70q-82 0 -133.5 46t-51.5 120q0 43 21.5 88t39 65.5t64.5 73.5q49 51 71.5 76t57.5 74t49.5 100.5t14.5 110.5q0 74 -72 158l-127 -56q41 -47 41 -118q0 -106 -139 -250q-14 -14 -52 -53 t-52.5 -57.5t-38 -53.5t-33 -72t-9.5 -82zM377 930q0 47 33.5 79.5t81.5 32.5q45 0 78.5 -33.5t33.5 -78.5q0 -47 -32.5 -81t-80 -34t-81 34t-33.5 81z" />
<glyph unicode="&#xc0;" horiz-adv-x="1312" d="M31 0l549 1434h153l549 -1434h-188l-154 432h-567l-154 -432h-188zM354 1841h207l180 -295h-159zM424 575h465l-217 615l-10 43h-13l-8 -43z" />
<glyph unicode="&#xc1;" horiz-adv-x="1312" d="M31 0l549 1434h153l549 -1434h-188l-154 432h-567l-154 -432h-188zM424 575h465l-217 615l-10 43h-13l-8 -43zM557 1547l180 295h207l-227 -295h-160z" />
<glyph unicode="&#xc2;" horiz-adv-x="1312" d="M31 0l549 1434h153l549 -1434h-188l-154 432h-567l-154 -432h-188zM334 1559l264 225h117l264 -225l-4 -13h-176l-144 119l-141 -119h-176zM424 575h465l-217 615l-10 43h-13l-8 -43z" />
<glyph unicode="&#xc3;" horiz-adv-x="1312" d="M31 0l549 1434h153l549 -1434h-188l-154 432h-567l-154 -432h-188zM424 575h465l-217 615l-10 43h-13l-8 -43zM305 1650q88 168 224 168q66 0 170 -75q59 -43 104 -43q16 0 29.5 5t27 17t19.5 18.5t19.5 27t15.5 22.5l94 -74q-61 -141 -184 -164q-84 -12 -177 53 q-6 4 -18 13.5t-18.5 14.5t-16.5 12t-18 11.5t-17.5 8.5t-19.5 6t-21 2q-25 0 -47 -14.5t-32.5 -26.5t-30.5 -43q-4 -6 -6 -8z" />
<glyph unicode="&#xc4;" horiz-adv-x="1312" d="M31 0l549 1434h153l549 -1434h-188l-154 432h-567l-154 -432h-188zM424 575h465l-217 615l-10 43h-13l-8 -43zM291 1740q0 47 32.5 81t80 34t81 -34t33.5 -81t-33.5 -79.5t-81 -32.5t-80 33.5t-32.5 78.5zM803 1740q0 47 32.5 81t80 34t81 -34t33.5 -81t-33.5 -79.5 t-81 -32.5t-80 33.5t-32.5 78.5z" />
<glyph unicode="&#xc5;" horiz-adv-x="1312" d="M31 0l549 1434h153l549 -1434h-188l-154 432h-567l-154 -432h-188zM424 575h465l-217 615l-10 43h-13l-8 -43zM457 1745q0 82 58 140.5t140 58.5t140.5 -58.5t58.5 -140.5t-58.5 -140.5t-140.5 -58.5t-140 58.5t-58 140.5zM575 1745q0 -33 24 -56.5t56.5 -23.5t56 23.5 t23.5 56.5t-23.5 56.5t-56 23.5t-56.5 -23.5t-24 -56.5z" />
<glyph unicode="&#xc6;" horiz-adv-x="1918" d="M49 0l811 1434h905v-144h-706l47 -485h627v-143h-613l54 -519h653v-143h-793l-39 395h-551l-219 -395h-176zM524 539h457l-68 673l-12 2z" />
<glyph unicode="&#xc7;" horiz-adv-x="1175" d="M92 716.5q0 315.5 200 526.5t496 211q205 0 347 -59l-41 -131q-129 47 -306 47q-223 0 -377.5 -177.5t-154.5 -416.5q0 -254 152.5 -424t379.5 -170q190 0 306 47l41 -133q-143 -57 -347 -57q-297 0 -496.5 210.5t-199.5 526zM491 -276q143 14 183.5 98t-27.5 198h170 q72 -154 -9 -281.5t-286 -127.5z" />
<glyph unicode="&#xc8;" horiz-adv-x="1120" d="M174 0v1434h854v-144h-690v-485h657v-143h-657v-519h690v-143h-854zM299 1842h207l181 -295h-160z" />
<glyph unicode="&#xc9;" horiz-adv-x="1120" d="M174 0v1434h854v-144h-690v-485h657v-143h-657v-519h690v-143h-854zM502 1547l180 295h207l-227 -295h-160z" />
<glyph unicode="&#xca;" horiz-adv-x="1120" d="M174 0v1434h854v-144h-690v-485h657v-143h-657v-519h690v-143h-854zM278 1559l264 225h117l264 -225l-4 -12h-176l-143 118l-142 -118h-176z" />
<glyph unicode="&#xcb;" horiz-adv-x="1120" d="M174 0v1434h854v-144h-690v-485h657v-143h-657v-519h690v-143h-854zM236 1741q0 47 32.5 80.5t79.5 33.5t81 -33.5t34 -80.5t-34 -80t-81 -33q-45 0 -78.5 34t-33.5 79zM748 1741q0 47 32.5 80.5t79.5 33.5t81 -33.5t34 -80.5t-34 -80t-81 -33q-45 0 -78.5 34t-33.5 79z " />
<glyph unicode="&#xcc;" horiz-adv-x="532" d="M-35 1841h207l180 -295h-159zM184 0v1434h164v-1434h-164z" />
<glyph unicode="&#xcd;" horiz-adv-x="532" d="M184 0v1434h164v-1434h-164zM168 1547l180 295h207l-227 -295h-160z" />
<glyph unicode="&#xce;" horiz-adv-x="532" d="M-55 1559l264 225h117l264 -225l-4 -13h-176l-144 119l-141 -119h-176zM184 0v1434h164v-1434h-164z" />
<glyph unicode="&#xcf;" horiz-adv-x="532" d="M184 0v1434h164v-1434h-164zM-98 1740q0 47 32.5 81t80 34t81 -34t33.5 -81t-33.5 -79.5t-81 -32.5t-80 33.5t-32.5 78.5zM414 1740q0 47 32.5 81t80 34t81 -34t33.5 -81t-33.5 -79.5t-81 -32.5t-80 33.5t-32.5 78.5z" />
<glyph unicode="&#xd0;" horiz-adv-x="1370" d="M29 662v143h145v629h387q313 0 515 -205t202 -512t-202 -512t-515 -205h-387v662h-145zM338 143h223q244 0 398.5 164t154.5 410q0 236 -156.5 404.5t-396.5 168.5h-223v-485h305v-143h-305v-519z" />
<glyph unicode="&#xd1;" horiz-adv-x="1521" d="M174 0v1434h164l780 -1082l53 -100l13 2v1180h164v-1434h-164l-764 1059l-70 123l-12 -4v-1178h-164zM409 1650q88 168 224 168q66 0 170 -75q59 -43 104 -43q16 0 29.5 5t27 17t19.5 18.5t19.5 27t15.5 22.5l94 -74q-61 -141 -184 -164q-84 -12 -177 53q-6 4 -18 13.5 t-18.5 14.5t-16.5 12t-18 11.5t-17.5 8.5t-19.5 6t-21 2q-25 0 -47 -14.5t-32.5 -26.5t-30.5 -43q-4 -6 -6 -8z" />
<glyph unicode="&#xd2;" horiz-adv-x="1619" d="M92 716.5q0 313.5 208 525.5t509 212q295 0 507 -213t212 -524q0 -313 -208 -525t-511 -212q-301 0 -509 211.5t-208 525zM256 717q0 -252 159.5 -423t393.5 -171q227 0 391 172t164 422q0 240 -162 417t-393 177q-229 0 -391 -177t-162 -417zM508 1862h207l180 -295 h-160z" />
<glyph unicode="&#xd3;" horiz-adv-x="1619" d="M92 716.5q0 313.5 208 525.5t509 212q295 0 507 -213t212 -524q0 -313 -208 -525t-511 -212q-301 0 -509 211.5t-208 525zM256 717q0 -252 159.5 -423t393.5 -171q227 0 391 172t164 422q0 240 -162 417t-393 177q-229 0 -391 -177t-162 -417zM711 1567l180 295h207 l-227 -295h-160z" />
<glyph unicode="&#xd4;" horiz-adv-x="1619" d="M92 716.5q0 313.5 208 525.5t509 212q295 0 507 -213t212 -524q0 -313 -208 -525t-511 -212q-301 0 -509 211.5t-208 525zM256 717q0 -252 159.5 -423t393.5 -171q227 0 391 172t164 422q0 240 -162 417t-393 177q-229 0 -391 -177t-162 -417zM487 1579l265 225h116 l265 -225l-5 -12h-176l-143 119l-141 -119h-176z" />
<glyph unicode="&#xd5;" horiz-adv-x="1619" d="M92 716.5q0 313.5 208 525.5t509 212q295 0 507 -213t212 -524q0 -313 -208 -525t-511 -212q-301 0 -509 211.5t-208 525zM256 717q0 -252 159.5 -423t393.5 -171q227 0 391 172t164 422q0 240 -162 417t-393 177q-229 0 -391 -177t-162 -417zM459 1671q88 168 223 168 q66 0 170 -76q59 -43 104 -43q16 0 29.5 5.5t27 17.5t19.5 18t19.5 26.5t15.5 22.5l94 -73q-61 -141 -184 -164q-84 -12 -176 53q-6 4 -18.5 13.5t-18.5 14.5t-16.5 12t-18.5 11t-17.5 8.5t-19.5 6.5t-20 2q-25 0 -47.5 -14.5t-32.5 -27t-31 -42.5q-4 -6 -6 -8z" />
<glyph unicode="&#xd6;" horiz-adv-x="1619" d="M92 716.5q0 313.5 208 525.5t509 212q295 0 507 -213t212 -524q0 -313 -208 -525t-511 -212q-301 0 -509 211.5t-208 525zM256 717q0 -252 159.5 -423t393.5 -171q227 0 391 172t164 422q0 240 -162 417t-393 177q-229 0 -391 -177t-162 -417zM445 1761q0 47 32.5 81 t80 34t81 -34t33.5 -81t-33.5 -79.5t-81 -32.5t-80 33.5t-32.5 78.5zM957 1761q0 47 32.5 81t80 34t81 -34t33.5 -81t-33.5 -79.5t-81 -32.5t-80 33.5t-32.5 78.5z" />
<glyph unicode="&#xd7;" horiz-adv-x="962" d="M104 309l267 266l-267 269l103 102l266 -268l268 268l103 -102l-269 -269l283 -280l-102 -102l-283 280l-266 -266z" />
<glyph unicode="&#xd8;" horiz-adv-x="1619" d="M92 717q0 313 208 525t509 212q172 0 326 -80l84 148h161l-127 -226q127 -102 201 -252.5t74 -326.5q0 -313 -208 -525t-511 -212q-133 0 -264 49l-94 -170h-162l131 233q-152 98 -240 262t-88 363zM256 717q0 -154 63.5 -283t174.5 -209l569 1018q-119 68 -254 68 q-229 0 -391 -177t-162 -417zM616 158q92 -35 193 -35q227 0 391 172t164 422q0 260 -186 440z" />
<glyph unicode="&#xd9;" horiz-adv-x="1415" d="M154 512q0 -238 158.5 -385t394.5 -147q238 0 396.5 147t158.5 385v922h-164v-922q0 -174 -114 -281.5t-277 -107.5q-168 0 -279 106.5t-111 282.5v922h-163v-922zM406 1841h206l181 -295h-160z" />
<glyph unicode="&#xda;" horiz-adv-x="1415" d="M154 512v922h163v-922q0 -176 111 -282.5t279 -106.5q164 0 277.5 107.5t113.5 281.5v922h164v-922q0 -238 -159 -385t-396 -147q-236 0 -394.5 147t-158.5 385zM608 1547l180 295h207l-227 -295h-160z" />
<glyph unicode="&#xdb;" horiz-adv-x="1415" d="M154 512v922h163v-922q0 -176 111 -282.5t279 -106.5q164 0 277.5 107.5t113.5 281.5v922h164v-922q0 -238 -159 -385t-396 -147q-236 0 -394.5 147t-158.5 385zM385 1559l264 225h117l264 -225l-4 -13h-176l-143 119l-142 -119h-176z" />
<glyph unicode="&#xdc;" horiz-adv-x="1415" d="M154 512v922h163v-922q0 -176 111 -282.5t279 -106.5q164 0 277.5 107.5t113.5 281.5v922h164v-922q0 -238 -159 -385t-396 -147q-236 0 -394.5 147t-158.5 385zM342 1740q0 47 32.5 81t80 34t81 -34t33.5 -81t-33.5 -79.5t-81 -32.5t-80 33.5t-32.5 78.5zM854 1740 q0 47 32.5 81t80 34t81 -34t33.5 -81t-33.5 -79.5t-81 -32.5t-80 33.5t-32.5 78.5z" />
<glyph unicode="&#xdd;" horiz-adv-x="1271" d="M31 1434h188l395 -736l17 -51h12l16 51l394 736h188l-524 -942v-492h-164v496zM537 1547l180 295h207l-227 -295h-160z" />
<glyph unicode="&#xde;" horiz-adv-x="1267" d="M174 0v1434h164v-287h326q250 0 391 -117t141 -293q0 -178 -141.5 -293.5t-390.5 -115.5h-326v-328h-164zM338 471h326q180 0 274 75t94 191.5t-94 191.5t-274 75h-326v-533z" />
<glyph unicode="&#xdf;" horiz-adv-x="1171" d="M133 0v1001q-2 186 109.5 310.5t298.5 124.5q197 0 293 -82t96 -230q0 -23 -5 -48t-9.5 -40.5t-14.5 -46.5l-14 -43q-27 -80 -27 -178q0 -12 3 -25.5t5 -23.5t10.5 -23.5t12.5 -20.5t16.5 -21.5t16.5 -18.5t19 -20.5t20 -20.5q55 -49 80.5 -75.5t53 -85t27.5 -126.5 q0 -168 -123.5 -255t-298.5 -83q-121 0 -249 31l26 143q113 -31 226 -30q111 0 183.5 51t72.5 145q0 37 -19.5 74t-40 57.5t-55.5 51.5q-49 49 -73.5 76.5t-49.5 83t-25 116.5q0 78 41 209q27 92 27 147q0 76 -56.5 122t-172.5 46q-109 0 -175.5 -85t-64.5 -206v-1001h-164z " />
<glyph unicode="&#xe0;" horiz-adv-x="1269" d="M82 512q0 223 149.5 377.5t364.5 154.5q193 0 315 -102l11 4v78h163v-1024h-163v113l-13 6q-119 -139 -334 -139q-207 0 -350 154.5t-143 377.5zM246 512q0 -160 109.5 -274.5t260.5 -114.5q217 0 306 172v504q-119 102 -306 102q-152 0 -261 -113.5t-109 -275.5z M283 1473h206l181 -295h-160z" />
<glyph unicode="&#xe1;" horiz-adv-x="1269" d="M82 512q0 223 149.5 377.5t364.5 154.5q193 0 315 -102l11 4v78h163v-1024h-163v113l-13 6q-119 -139 -334 -139q-207 0 -350 154.5t-143 377.5zM246 512q0 -160 109.5 -274.5t260.5 -114.5q217 0 306 172v504q-119 102 -306 102q-152 0 -261 -113.5t-109 -275.5z M485 1178l180 295h207l-227 -295h-160z" />
<glyph unicode="&#xe2;" horiz-adv-x="1269" d="M82 512q0 223 149.5 377.5t364.5 154.5q193 0 315 -102l11 4v78h163v-1024h-163v113l-13 6q-119 -139 -334 -139q-207 0 -350 154.5t-143 377.5zM246 512q0 -160 109.5 -274.5t260.5 -114.5q217 0 306 172v504q-119 102 -306 102q-152 0 -261 -113.5t-109 -275.5z M262 1190l264 225h117l264 -225l-4 -12h-176l-143 118l-142 -118h-176z" />
<glyph unicode="&#xe3;" horiz-adv-x="1269" d="M82 512q0 223 149.5 377.5t364.5 154.5q193 0 315 -102l11 4v78h163v-1024h-163v113l-13 6q-119 -139 -334 -139q-207 0 -350 154.5t-143 377.5zM246 512q0 -160 109.5 -274.5t260.5 -114.5q217 0 306 172v504q-119 102 -306 102q-152 0 -261 -113.5t-109 -275.5z M233 1282q88 168 224 168q66 0 170 -75q59 -43 104 -43q16 0 29.5 5t27 17t19.5 18.5t19.5 27t15.5 22.5l94 -74q-61 -141 -184 -164q-84 -12 -177 53q-6 4 -18 13.5t-18.5 14.5t-16.5 12t-18 11.5t-17.5 8.5t-19.5 6t-21 2q-25 0 -47 -14.5t-32.5 -26.5t-30.5 -43 q-4 -6 -6 -8z" />
<glyph unicode="&#xe4;" horiz-adv-x="1269" d="M82 512q0 223 149.5 377.5t364.5 154.5q193 0 315 -102l11 4v78h163v-1024h-163v113l-13 6q-119 -139 -334 -139q-207 0 -350 154.5t-143 377.5zM246 512q0 -160 109.5 -274.5t260.5 -114.5q217 0 306 172v504q-119 102 -306 102q-152 0 -261 -113.5t-109 -275.5z M219 1372q0 47 32.5 81t80 34t81 -34t33.5 -81t-33.5 -79.5t-81 -32.5t-80 33.5t-32.5 78.5zM731 1372q0 47 32.5 81t80 34t81 -34t33.5 -81t-33.5 -79.5t-81 -32.5t-80 33.5t-32.5 78.5z" />
<glyph unicode="&#xe5;" horiz-adv-x="1269" d="M82 512q0 223 149.5 377.5t364.5 154.5q193 0 315 -102l11 4v78h163v-1024h-163v113l-13 6q-119 -139 -334 -139q-207 0 -350 154.5t-143 377.5zM246 512q0 -160 109.5 -274.5t260.5 -114.5q217 0 306 172v504q-119 102 -306 102q-152 0 -261 -113.5t-109 -275.5z M385 1376q0 82 58.5 140.5t140.5 58.5t140 -58.5t58 -140.5t-58 -140t-140 -58q-84 0 -141.5 58t-57.5 140zM504 1376q0 -33 23.5 -56.5t56 -23.5t56.5 23.5t24 56.5t-23 56.5t-57 23.5q-33 0 -56.5 -23.5t-23.5 -56.5z" />
<glyph unicode="&#xe6;" horiz-adv-x="1890" d="M102 307.5q0 149.5 112 235.5t280 86q186 0 333 -58v64q0 125 -81.5 195.5t-204.5 70.5q-168 0 -305 -47l-33 129q178 61 358 61q121 0 220.5 -51t154.5 -145q145 195 383 196q197 0 313.5 -110.5t139.5 -319.5v-122h-781q10 -178 107.5 -272.5t281.5 -96.5q168 0 301 61 l35 -133q-160 -72 -336 -71q-238 0 -379 124l-10 -4v-100h-164v82q-135 -102 -354 -102q-158 0 -264.5 89t-106.5 238.5zM266 307q0 -90 70 -137t178 -47q219 0 313 96v236q-123 41 -292 41q-117 0 -193 -50.5t-76 -138.5zM1004 635h602q-6 123 -86 194.5t-199 71.5 q-121 0 -204.5 -74.5t-112.5 -191.5z" />
<glyph unicode="&#xe7;" horiz-adv-x="899" d="M82 512q0 223 149.5 377.5t362.5 154.5q154 0 264 -59l-41 -131q-102 47 -223 47q-143 0 -245.5 -114.5t-102.5 -274.5q0 -162 102.5 -275.5t245.5 -113.5q139 0 223 47l41 -133q-113 -57 -264 -57q-213 0 -362.5 154.5t-149.5 377.5zM301 -276q143 14 183.5 98 t-27.5 198h170q72 -154 -9 -281.5t-286 -127.5z" />
<glyph unicode="&#xe8;" horiz-adv-x="1128" d="M92 510q0 217 138.5 374.5t353.5 159.5q197 0 313.5 -110.5t138.5 -319.5v-122h-780q10 -178 107.5 -272.5t281.5 -96.5q170 0 301 61l35 -133q-160 -72 -336 -71q-244 0 -398.5 143t-154.5 387zM268 635h602q-6 123 -85.5 194.5t-198.5 71.5q-121 0 -205 -74.5 t-113 -191.5zM262 1473h207l181 -295h-160z" />
<glyph unicode="&#xe9;" horiz-adv-x="1128" d="M92 510q0 217 138.5 374.5t353.5 159.5q197 0 313.5 -110.5t138.5 -319.5v-122h-780q10 -178 107.5 -272.5t281.5 -96.5q170 0 301 61l35 -133q-160 -72 -336 -71q-244 0 -398.5 143t-154.5 387zM268 635h602q-6 123 -85.5 194.5t-198.5 71.5q-121 0 -205 -74.5 t-113 -191.5zM465 1178l180 295h207l-227 -295h-160z" />
<glyph unicode="&#xea;" horiz-adv-x="1128" d="M92 510q0 217 138.5 374.5t353.5 159.5q197 0 313.5 -110.5t138.5 -319.5v-122h-780q10 -178 107.5 -272.5t281.5 -96.5q170 0 301 61l35 -133q-160 -72 -336 -71q-244 0 -398.5 143t-154.5 387zM268 635h602q-6 123 -85.5 194.5t-198.5 71.5q-121 0 -205 -74.5 t-113 -191.5zM241 1190l264 225h117l264 -225l-4 -12h-176l-143 118l-142 -118h-176z" />
<glyph unicode="&#xeb;" horiz-adv-x="1128" d="M92 510q0 217 138.5 374.5t353.5 159.5q197 0 313.5 -110.5t138.5 -319.5v-122h-780q10 -178 107.5 -272.5t281.5 -96.5q170 0 301 61l35 -133q-160 -72 -336 -71q-244 0 -398.5 143t-154.5 387zM199 1372q0 47 32.5 81t79.5 34t81 -34t34 -81t-34 -79.5t-81 -32.5 q-45 0 -78.5 33.5t-33.5 78.5zM268 635h602q-6 123 -85.5 194.5t-198.5 71.5q-121 0 -205 -74.5t-113 -191.5zM711 1372q0 47 32.5 81t79.5 34t81 -34t34 -81t-34 -79.5t-81 -32.5q-45 0 -78.5 33.5t-33.5 78.5z" />
<glyph unicode="&#xec;" horiz-adv-x="552" d="M-25 1452h207l180 -295h-159zM195 0v1024h163v-1024h-163z" />
<glyph unicode="&#xed;" horiz-adv-x="552" d="M195 0v1024h163v-1024h-163zM178 1157l180 295h207l-227 -295h-160z" />
<glyph unicode="&#xee;" horiz-adv-x="552" d="M-45 1169l264 226h117l264 -226l-4 -12h-176l-144 119l-141 -119h-176zM195 0v1024h163v-1024h-163z" />
<glyph unicode="&#xef;" horiz-adv-x="552" d="M195 0v1024h163v-1024h-163zM-88 1351q0 47 32.5 81t80 34t81 -34t33.5 -81t-33.5 -79.5t-81 -32.5t-80 33.5t-32.5 78.5zM424 1351q0 47 32.5 81t80 34t81 -34t33.5 -81t-33.5 -79.5t-81 -32.5t-80 33.5t-32.5 78.5z" />
<glyph unicode="&#xf0;" horiz-adv-x="1216" d="M113 426q0 184 130 302t316 118q109 0 206 -47t155 -123l12 4q-14 170 -84 305q-41 76 -107 141l-202 -155l-88 112l172 134q-125 74 -293 102l37 135q219 -39 354 -121l29 -20l186 145l88 -112l-164 -125q244 -252 244 -693q0 -229 -133 -387.5t-359 -160.5 q-207 0 -353 121.5t-146 324.5zM276 420q0 -137 96.5 -217t235.5 -80q203 0 293 190q31 61 37 166q-51 100 -146.5 160.5t-207.5 62.5q-137 0 -222.5 -72.5t-85.5 -209.5z" />
<glyph unicode="&#xf1;" horiz-adv-x="1228" d="M164 0v1024h164v-133l12 -4q129 158 375 157q160 0 265 -112.5t105 -317.5v-614h-163v614q0 143 -69 215t-179 72q-109 0 -201 -49t-145 -143v-709h-164zM274 1282q88 168 224 168q66 0 170 -75q59 -43 104 -43q16 0 29.5 5t27 17t19.5 18.5t19.5 27t15.5 22.5l94 -74 q-61 -141 -184 -164q-84 -12 -177 53q-6 4 -18 13.5t-18.5 14.5t-16.5 12t-18 11.5t-17.5 8.5t-19.5 6t-21 2q-25 0 -47 -14.5t-32.5 -26.5t-30.5 -43q-4 -6 -6 -8z" />
<glyph unicode="&#xf2;" d="M82 512q0 223 154.5 377.5t378 154.5t379 -154.5t155.5 -377.5t-155.5 -377.5t-379 -154.5t-378 154.5t-154.5 377.5zM246 512q0 -162 107.5 -275.5t260.5 -113.5q152 0 261.5 113.5t109.5 275.5q0 160 -109.5 274.5t-261.5 114.5q-154 0 -261 -114.5t-107 -274.5z M313 1473h207l180 -295h-159z" />
<glyph unicode="&#xf3;" d="M82 512q0 223 154.5 377.5t378 154.5t379 -154.5t155.5 -377.5t-155.5 -377.5t-379 -154.5t-378 154.5t-154.5 377.5zM246 512q0 -162 107.5 -275.5t260.5 -113.5q152 0 261.5 113.5t109.5 275.5q0 160 -109.5 274.5t-261.5 114.5q-154 0 -261 -114.5t-107 -274.5z M516 1178l180 295h207l-227 -295h-160z" />
<glyph unicode="&#xf4;" d="M82 512q0 223 154.5 377.5t378 154.5t379 -154.5t155.5 -377.5t-155.5 -377.5t-379 -154.5t-378 154.5t-154.5 377.5zM246 512q0 -162 107.5 -275.5t260.5 -113.5q152 0 261.5 113.5t109.5 275.5q0 160 -109.5 274.5t-261.5 114.5q-154 0 -261 -114.5t-107 -274.5z M293 1190l264 225h117l264 -225l-4 -12h-176l-144 118l-141 -118h-176z" />
<glyph unicode="&#xf5;" d="M82 512q0 223 154.5 377.5t378 154.5t379 -154.5t155.5 -377.5t-155.5 -377.5t-379 -154.5t-378 154.5t-154.5 377.5zM246 512q0 -162 107.5 -275.5t260.5 -113.5q152 0 261.5 113.5t109.5 275.5q0 160 -109.5 274.5t-261.5 114.5q-154 0 -261 -114.5t-107 -274.5z M264 1282q88 168 223 168q66 0 170 -76q59 -43 105 -43q16 0 29.5 5t26.5 17.5t19.5 18.5t19.5 26.5t15 22.5l95 -73q-61 -141 -185 -164q-84 -12 -176 53q-6 4 -18.5 13.5t-18.5 14.5t-16 12t-18.5 11t-17.5 8t-19.5 6.5t-20.5 2.5q-25 0 -47 -14.5t-32.5 -27t-30.5 -42.5 q-4 -6 -7 -9z" />
<glyph unicode="&#xf6;" d="M82 512q0 223 154.5 377.5t378 154.5t379 -154.5t155.5 -377.5t-155.5 -377.5t-379 -154.5t-378 154.5t-154.5 377.5zM246 512q0 -162 107.5 -275.5t260.5 -113.5q152 0 261.5 113.5t109.5 275.5q0 160 -109.5 274.5t-261.5 114.5q-154 0 -261 -114.5t-107 -274.5z M250 1372q0 47 32.5 81t80 34t81 -34t33.5 -81t-33.5 -79.5t-81 -32.5t-80 33.5t-32.5 78.5zM762 1372q0 47 32.5 81t80 34t81 -34t33.5 -81t-33.5 -79.5t-81 -32.5t-80 33.5t-32.5 78.5z" />
<glyph unicode="&#xf7;" horiz-adv-x="1005" d="M102 539v143h799v-143h-799zM387 321.5q0 47.5 33 81t80 33.5t80.5 -33.5t33.5 -81t-33.5 -80t-80.5 -32.5q-45 0 -79 32.5t-34 80zM387 889q0 47 33 81t80 34t80.5 -34t33.5 -81t-33.5 -80t-80.5 -33q-45 0 -79 34t-34 79z" />
<glyph unicode="&#xf8;" d="M82 512q0 223 154.5 377.5t377.5 154.5q115 0 224 -49l67 123h160l-109 -196q193 -160 193 -410q0 -223 -155.5 -377.5t-379.5 -154.5q-88 0 -168 24l-79 -145h-160l115 207q-111 72 -175.5 189.5t-64.5 256.5zM246 512q0 -201 149 -313l371 667q-74 35 -152 35 q-154 0 -261 -114.5t-107 -274.5zM520 135q43 -12 94 -12q152 0 261.5 113.5t109.5 275.5q0 154 -106 270z" />
<glyph unicode="&#xf9;" d="M143 451q0 -209 136.5 -340t334.5 -131q201 0 337 131t136 340v573h-163v-573q0 -147 -89.5 -237.5t-220.5 -90.5t-219 90t-88 238v573h-164v-573zM313 1452h207l180 -295h-159z" />
<glyph unicode="&#xfa;" d="M143 451v573h164v-573q0 -147 88 -237.5t219 -90.5t220.5 90t89.5 238v573h163v-573q0 -209 -136 -340t-337 -131q-199 0 -335 131t-136 340zM516 1157l180 295h207l-227 -295h-160z" />
<glyph unicode="&#xfb;" d="M143 451v573h164v-573q0 -147 88 -237.5t219 -90.5t220.5 90t89.5 238v573h163v-573q0 -209 -136 -340t-337 -131q-199 0 -335 131t-136 340zM293 1169l264 226h117l264 -226l-4 -12h-176l-144 119l-141 -119h-176z" />
<glyph unicode="&#xfc;" d="M143 451v573h164v-573q0 -147 88 -237.5t219 -90.5t220.5 90t89.5 238v573h163v-573q0 -209 -136 -340t-337 -131q-199 0 -335 131t-136 340zM250 1351q0 47 32.5 81t80 34t81 -34t33.5 -81t-33.5 -79.5t-81 -32.5t-80 33.5t-32.5 78.5zM762 1351q0 47 32.5 81t80 34 t81 -34t33.5 -81t-33.5 -79.5t-81 -32.5t-80 33.5t-32.5 78.5z" />
<glyph unicode="&#xfd;" horiz-adv-x="1067" d="M31 1024h188l316 -774l12 -55h12l289 829h188l-473 -1206q-61 -160 -154.5 -244t-277.5 -84l-14 141q123 0 188.5 52.5t110.5 171.5l59 161zM434 1157l180 295h207l-227 -295h-160z" />
<glyph unicode="&#xfe;" horiz-adv-x="1249" d="M164 -471v1966h164v-584l12 -4q117 137 334 137q207 0 350 -154.5t143 -377.5t-149.5 -377.5t-364.5 -154.5q-203 0 -315 90l-10 -7v-534h-164zM328 205q119 -82 305 -82q152 0 261.5 113.5t109.5 275.5q0 160 -110 274.5t-261 114.5q-217 0 -305 -172v-524z" />
<glyph unicode="&#xff;" horiz-adv-x="1067" d="M31 1024h188l316 -774l12 -55h12l289 829h188l-473 -1206q-61 -160 -154.5 -244t-277.5 -84l-14 141q123 0 188.5 52.5t110.5 171.5l59 161zM168 1352q0 47 32.5 80.5t80 33.5t81 -33.5t33.5 -80.5t-33.5 -80t-81 -33t-80 34t-32.5 79zM680 1352q0 47 32.5 80.5t80 33.5 t81 -33.5t33.5 -80.5t-33.5 -80t-81 -33t-80 34t-32.5 79z" />
<glyph unicode="&#x131;" horiz-adv-x="552" d="M195 0v1024h163v-1024h-163z" />
<glyph unicode="&#x152;" horiz-adv-x="1937" d="M92 716.5q0 315.5 200 526.5t496 211q123 0 224 -20h833v-144h-690v-485h657v-143h-657v-519h690v-143h-831q-102 -20 -226 -20q-297 0 -496.5 210.5t-199.5 526zM256 717q0 -254 152.5 -424t379.5 -170q119 0 203 16v1153q-92 18 -203 19q-223 0 -377.5 -177 t-154.5 -417z" />
<glyph unicode="&#x153;" horiz-adv-x="2043" d="M82 512q0 223 154.5 377.5t377.5 154.5q139 0 258 -65.5t191 -177.5q66 109 173 175t243 68q197 0 313.5 -110.5t138.5 -319.5v-122h-780q10 -178 107.5 -272.5t281.5 -96.5q168 0 301 61l35 -133q-160 -72 -336 -71q-160 0 -283.5 62t-193.5 177q-74 -111 -191.5 -175 t-257.5 -64q-223 0 -377.5 154.5t-154.5 377.5zM246 512q0 -162 107.5 -275.5t260.5 -113.5q152 0 261.5 113.5t109.5 275.5q0 160 -109.5 274.5t-261.5 114.5q-154 0 -261 -114.5t-107 -274.5zM1163 635h602q-6 123 -86 194.5t-198 71.5q-121 0 -205 -74.5t-113 -191.5z " />
<glyph unicode="&#x178;" horiz-adv-x="1271" d="M31 1434h188l395 -736l17 -51h12l16 51l394 736h188l-524 -942v-492h-164v496zM270 1741q0 47 33 80.5t80 33.5t81 -33.5t34 -80.5t-34 -80t-81 -33t-80 34t-33 79zM782 1741q0 47 33 80.5t80 33.5t81 -33.5t34 -80.5t-34 -80t-81 -33t-80 34t-33 79z" />
<glyph unicode="&#x2c6;" horiz-adv-x="796" d="M96 1188l264 225h117l264 -225l-4 -12h-176l-143 118l-142 -118h-176z" />
<glyph unicode="&#x2dc;" horiz-adv-x="907" d="M102 1253q88 168 224 168q66 0 170 -75q59 -43 104 -43q16 0 29.5 5t27 17t19.5 18.5t19.5 27t15.5 22.5l94 -74q-61 -141 -184 -164q-84 -12 -177 53q-6 4 -18 13.5t-18.5 14.5t-16.5 12t-18 11.5t-17.5 8.5t-19.5 6t-21 2q-25 0 -47 -14.5t-32.5 -26.5t-30.5 -43 q-4 -6 -6 -8z" />
<glyph unicode="&#x2000;" horiz-adv-x="970" />
<glyph unicode="&#x2001;" horiz-adv-x="1943" />
<glyph unicode="&#x2002;" horiz-adv-x="970" />
<glyph unicode="&#x2003;" horiz-adv-x="1943" />
<glyph unicode="&#x2004;" horiz-adv-x="647" />
<glyph unicode="&#x2005;" horiz-adv-x="485" />
<glyph unicode="&#x2006;" horiz-adv-x="323" />
<glyph unicode="&#x2007;" horiz-adv-x="323" />
<glyph unicode="&#x2008;" horiz-adv-x="241" />
<glyph unicode="&#x2009;" horiz-adv-x="387" />
<glyph unicode="&#x200a;" horiz-adv-x="106" />
<glyph unicode="&#x2010;" horiz-adv-x="819" d="M102 580v143h615v-143h-615z" />
<glyph unicode="&#x2011;" horiz-adv-x="819" d="M102 580v143h615v-143h-615z" />
<glyph unicode="&#x2012;" horiz-adv-x="819" d="M102 580v143h615v-143h-615z" />
<glyph unicode="&#x2013;" horiz-adv-x="1044" d="M102 580v143h840v-143h-840z" />
<glyph unicode="&#x2014;" horiz-adv-x="1228" d="M102 580v143h1024v-143h-1024z" />
<glyph unicode="&#x2018;" horiz-adv-x="475" d="M102 1147q0 190 191 369l80 -64q-82 -82 -111 -180q4 -10 17.5 -31.5t19.5 -34t12 -33t6 -40.5q0 -49 -27.5 -82t-72.5 -33q-51 0 -83 36t-32 93z" />
<glyph unicode="&#x2019;" horiz-adv-x="475" d="M102 1081q82 82 111 181q-4 10 -17.5 31.5t-19.5 33.5t-12 32.5t-6 41.5q0 49 27.5 82t72.5 33q51 0 83 -36t32 -94q0 -190 -191 -368z" />
<glyph unicode="&#x201a;" horiz-adv-x="432" d="M59 -188q82 82 111 180q-4 10 -17.5 31.5t-19.5 34t-12 33t-6 40.5q0 49 27.5 82t72.5 33q51 0 83 -36t32 -93q0 -190 -191 -369z" />
<glyph unicode="&#x201c;" horiz-adv-x="784" d="M102 1151q0 190 191 369l80 -64q-82 -82 -111 -180q4 -10 17.5 -31.5t19.5 -34t12 -33t6 -40.5q0 -49 -27.5 -82t-72.5 -33q-51 0 -83 36t-32 93zM412 1151q0 190 190 369l80 -64q-82 -82 -111 -180q4 -10 17.5 -31.5t19.5 -34t12.5 -33t6.5 -40.5q0 -49 -28 -82t-73 -33 q-51 0 -82.5 36t-31.5 93z" />
<glyph unicode="&#x201d;" horiz-adv-x="784" d="M102 1067q82 82 111 180q-4 10 -17.5 31.5t-19.5 34t-12 33t-6 40.5q0 49 27.5 82t72.5 33q51 0 83 -35.5t32 -93.5q0 -190 -191 -368zM412 1067q82 82 110 180q-4 10 -17 31.5t-19.5 34t-12.5 33t-6 40.5q0 49 27.5 82t72.5 33q51 0 83 -35.5t32 -93.5q0 -190 -190 -368 z" />
<glyph unicode="&#x201e;" horiz-adv-x="733" d="M59 -203q82 82 111 180q-4 10 -17.5 32t-19.5 34t-12 32.5t-6 41.5q0 49 27.5 81.5t72.5 32.5q51 0 83 -35.5t32 -93.5q0 -190 -191 -368zM369 -203q82 82 110 180q-4 10 -17 32t-19.5 34t-12.5 32.5t-6 41.5q0 49 27.5 81.5t72.5 32.5q51 0 83 -35.5t32 -93.5 q0 -190 -190 -368z" />
<glyph unicode="&#x2022;" horiz-adv-x="608" d="M82 627q0 90 61.5 151.5t151.5 61.5t151.5 -61.5t61.5 -151.5t-61.5 -151.5t-151.5 -61.5t-151.5 61.5t-61.5 151.5z" />
<glyph unicode="&#x2026;" horiz-adv-x="1519" d="M33 94q0 47 32.5 81t80 34t81 -34t33.5 -81t-33.5 -79.5t-81 -32.5t-80 33.5t-32.5 78.5zM586 94q0 47 32.5 81t79.5 34t81 -34t34 -81t-34 -79.5t-81 -32.5t-79.5 33.5t-32.5 78.5zM1139 94q0 47 32.5 81t79.5 34t81 -34t34 -81t-34 -79.5t-81 -32.5t-79.5 33.5 t-32.5 78.5z" />
<glyph unicode="&#x202f;" horiz-adv-x="387" />
<glyph unicode="&#x2039;" horiz-adv-x="614" d="M98 418v127l328 395l111 -92l-297 -365l297 -348l-111 -92z" />
<glyph unicode="&#x203a;" horiz-adv-x="614" d="M98 135l295 365l-295 348l111 92l328 -375v-127l-328 -395z" />
<glyph unicode="&#x205f;" horiz-adv-x="485" />
<glyph unicode="&#x20ac;" horiz-adv-x="1345" d="M61 487v144h185q-4 29 -4 86q0 49 6 98h-187v143h215q70 223 249.5 359.5t412.5 136.5q205 0 346 -59l-41 -131q-129 47 -305 47q-162 0 -292 -98.5t-193 -254.5h591v-143h-630q-8 -43 -8 -98q0 -33 4 -86h634v-144h-600q59 -166 191.5 -265t302.5 -99q190 0 305 47 l41 -133q-143 -57 -346 -57q-238 0 -418 140t-246 367h-213z" />
<glyph unicode="&#x2122;" horiz-adv-x="1202" d="M41 1356v78h412v-78h-162v-492h-84v492h-166zM528 864v570h115l195 -441h12l197 441h114v-570h-86v412l-12 2l-193 -414h-51l-194 418l-13 -2v-416h-84z" />
<glyph unicode="&#xe000;" horiz-adv-x="1025" d="M0 1025h1025v-1025h-1025v1025z" />
<glyph unicode="&#xfb01;" horiz-adv-x="1169" d="M20 881v143h166v41q0 205 118 328t312 123q164 0 285 -43l-37 -136q-123 35 -247.5 35t-195.5 -83t-71 -224v-41h324v-143h-324v-881h-164v881h-166zM819 0v1024h164v-1024h-164z" />
<glyph unicode="&#xfb02;" horiz-adv-x="1265" d="M20 881v143h166v41q0 205 123 328t328 123q125 0 221 -21h162v-1227q0 -133 164 -143l-21 -143q-141 0 -224 74.5t-83 211.5v1082q-102 23 -219 22q-135 0 -211 -83t-76 -224v-41h303v-143h-303v-881h-164v881h-166z" />
<glyph unicode="&#xfb03;" horiz-adv-x="1863" d="M1487 1348q0 41 28.5 70.5t69.5 29.5t71 -29.5t30 -70.5t-30 -70t-71 -29t-69.5 29t-28.5 70zM1506 0v1024h163v-1024h-163zM675 881v143h166v123q0 168 95.5 268.5t253.5 100.5q129 0 223 -43l-41 -127q-70 27 -182 26q-88 0 -136.5 -59.5t-48.5 -165.5v-123h283v-143 h-283v-881h-164v881h-166zM20 881v143h166v123q0 168 95.5 268.5t253.5 100.5q129 0 223 -43l-41 -127q-70 27 -182 26q-88 0 -136.5 -59.5t-48.5 -165.5v-123h283v-143h-283v-881h-164v881h-166z" />
<glyph unicode="&#xfb04;" horiz-adv-x="1894" d="M1475 268v1227h164v-1227q0 -133 164 -143l-21 -143q-141 0 -224 74.5t-83 211.5zM675 881v143h166v123q0 168 95.5 268.5t253.5 100.5q129 0 223 -43l-41 -127q-70 27 -182 26q-88 0 -136.5 -59.5t-48.5 -165.5v-123h283v-143h-283v-881h-164v881h-166zM20 881v143h166 v123q0 168 95.5 268.5t253.5 100.5q129 0 223 -43l-41 -127q-70 27 -182 26q-88 0 -136.5 -59.5t-48.5 -165.5v-123h283v-143h-283v-881h-164v881h-166z" />
</font>
</defs>
</svg>
