<?xml version="1.0" standalone="no"?>
<!DOCTYPE svg PUBLIC "-//W3C//DTD SVG 1.1//EN" "http://www.w3.org/Graphics/SVG/1.1/DTD/svg11.dtd" >
<svg>
<metadata>
Created by FontForge 20090914 at Wed Oct  2 11:25:26 2013
 By www-data
Copyright (C) 2006, 2007 Hoefler &#38; Frere-Jones. http://www.typography.com
</metadata>
<defs>
<font id="GothamRounded-Light" horiz-adv-x="660" >
  <font-face 
    font-family="Gotham Rounded Light"
    font-weight="300"
    font-stretch="normal"
    units-per-em="1000"
    panose-1="0 0 0 0 0 0 0 0 0 0"
    ascent="800"
    descent="-200"
    x-height="510"
    cap-height="704"
    bbox="-53 -224.005 1145 1022"
    underline-thickness="50"
    underline-position="-50"
    unicode-range="U+0020-U+FB04"
  />
<missing-glyph horiz-adv-x="500" 
d="M0 -200v1000h500v-1000h-500zM71 750l179 -390l179 390h-358zM50 -76l172 376l-172 376v-752zM450 676l-172 -376l172 -376v752zM250 240l-179 -390h358z" />
    <glyph glyph-name="f_f" unicode="ff" horiz-adv-x="724" 
d="M123 21l-0.000976562 444h-55c-6.66699 0 -12.167 2.16699 -16.5 6.5s-6.5 9.83301 -6.5 16.5c0 6 2.33301 11.167 7 15.5s10 6.5 16 6.5h55v50c0 58.667 15 103 45 133c26.667 26.667 62.334 40 107.001 40c20.667 0 41 -2.33301 61 -7c12.667 -2 19 -9.66699 19 -23
c0 -7.33301 -2.83301 -13 -8.5 -17s-12.167 -5.33301 -19.5 -4c-21.333 4 -38.666 6 -51.999 6c-68.667 0 -103 -43 -103 -129v-49h159c6.66699 0 12.167 -2.16699 16.5 -6.5s6.5 -9.83301 6.5 -16.5c0 -6 -2.33301 -11.167 -7 -15.5s-10 -6.5 -16 -6.5h-159v-444
c0 -7.33301 -2.33301 -13.333 -7 -18s-10.334 -7 -17.001 -7s-12.5 2.33301 -17.5 7s-7.5 10.667 -7.5 18zM484.999 21l-0.000976562 444h-55c-6.66699 0 -12.167 2.16699 -16.5 6.5s-6.5 9.83301 -6.5 16.5c0 6 2.33301 11.167 7 15.5s10 6.5 16 6.5h55v50
c0 58.667 15 103 45 133c26.667 26.667 62.334 40 107.001 40c20.667 0 41 -2.33301 61 -7c12.667 -2 19 -9.66699 19 -23c0 -7.33301 -2.83301 -13 -8.5 -17s-12.167 -5.33301 -19.5 -4c-21.333 4 -38.666 6 -51.999 6c-68.667 0 -103 -43 -103 -129v-49h159
c6.66699 0 12.167 -2.16699 16.5 -6.5s6.5 -9.83301 6.5 -16.5c0 -6 -2.33301 -11.167 -7 -15.5s-10 -6.5 -16 -6.5h-159v-444c0 -7.33301 -2.33301 -13.333 -7 -18s-10.334 -7 -17.001 -7s-12.5 2.33301 -17.5 7s-7.5 10.667 -7.5 18z" />
    <glyph glyph-name="fi" unicode="fi" horiz-adv-x="611" 
d="M123 21l-0.000976562 444h-55c-6.66699 0 -12.167 2.16699 -16.5 6.5s-6.5 9.83301 -6.5 16.5c0 6 2.33301 11.167 7 15.5s10 6.5 16 6.5h55v50c0 58.667 15 103 45 133c26.667 26.667 62.334 40 107.001 40c20.667 0 41 -2.33301 61 -7c12.667 -2 19 -9.66699 19 -23
c0 -7.33301 -2.83301 -13 -8.5 -17s-12.167 -5.33301 -19.5 -4c-21.333 4 -38.666 6 -51.999 6c-68.667 0 -103 -43 -103 -129v-49h159c6.66699 0 12.167 -2.16699 16.5 -6.5s6.5 -9.83301 6.5 -16.5c0 -6 -2.33301 -11.167 -7 -15.5s-10 -6.5 -16 -6.5h-159v-444
c0 -7.33301 -2.33301 -13.333 -7 -18s-10.334 -7 -17.001 -7s-12.5 2.33301 -17.5 7s-7.5 10.667 -7.5 18zM455.999 668v17c0 8.66699 2.83301 15.834 8.5 21.501s12.834 8.5 21.501 8.5s16 -2.83301 22 -8.5s9 -12.834 9 -21.501v-17c0 -8.66699 -3 -15.834 -9 -21.501
s-13.333 -8.5 -22 -8.5s-15.834 2.83301 -21.501 8.5s-8.5 12.834 -8.5 21.501zM461.999 21l-0.00195312 468c0 7.33301 2.33301 13.333 7 18s10.334 7 17.001 7c7.33301 0 13.333 -2.33301 18 -7s7 -10.667 7 -18v-468c0 -7.33301 -2.16699 -13.333 -6.5 -18
s-10.166 -7 -17.499 -7s-13.333 2.33301 -18 7s-7 10.667 -7 18z" />
    <glyph glyph-name="fl" unicode="fl" horiz-adv-x="611" 
d="M123 21l-0.000976562 444h-55c-6.66699 0 -12.167 2.16699 -16.5 6.5s-6.5 9.83301 -6.5 16.5c0 6 2.33301 11.167 7 15.5s10 6.5 16 6.5h55v50c0 58.667 15 103 45 133c26.667 26.667 62.334 40 107.001 40c20.667 0 41 -2.33301 61 -7c12.667 -2 19 -9.66699 19 -23
c0 -7.33301 -2.83301 -13 -8.5 -17s-12.167 -5.33301 -19.5 -4c-21.333 4 -38.666 6 -51.999 6c-68.667 0 -103 -43 -103 -129v-49h159c6.66699 0 12.167 -2.16699 16.5 -6.5s6.5 -9.83301 6.5 -16.5c0 -6 -2.33301 -11.167 -7 -15.5s-10 -6.5 -16 -6.5h-159v-444
c0 -7.33301 -2.33301 -13.333 -7 -18s-10.334 -7 -17.001 -7s-12.5 2.33301 -17.5 7s-7.5 10.667 -7.5 18zM461.999 21l-0.00195312 688c0 7.33301 2.33301 13.333 7 18s10.334 7 17.001 7s12.5 -2.33301 17.5 -7s7.5 -10.667 7.5 -18v-688
c0 -7.33301 -2.16699 -13.333 -6.5 -18s-10.166 -7 -17.499 -7s-13.333 2.33301 -18 7s-7 10.667 -7 18z" />
    <glyph glyph-name="f_f_i" unicode="ffi" horiz-adv-x="973" 
d="M123 21l-0.000976562 444h-55c-6.66699 0 -12.167 2.16699 -16.5 6.5s-6.5 9.83301 -6.5 16.5c0 6 2.33301 11.167 7 15.5s10 6.5 16 6.5h55v50c0 58.667 15 103 45 133c26.667 26.667 62.334 40 107.001 40c20.667 0 41 -2.33301 61 -7c12.667 -2 19 -9.66699 19 -23
c0 -7.33301 -2.83301 -13 -8.5 -17s-12.167 -5.33301 -19.5 -4c-21.333 4 -38.666 6 -51.999 6c-68.667 0 -103 -43 -103 -129v-49h159c6.66699 0 12.167 -2.16699 16.5 -6.5s6.5 -9.83301 6.5 -16.5c0 -6 -2.33301 -11.167 -7 -15.5s-10 -6.5 -16 -6.5h-159v-444
c0 -7.33301 -2.33301 -13.333 -7 -18s-10.334 -7 -17.001 -7s-12.5 2.33301 -17.5 7s-7.5 10.667 -7.5 18zM484.999 21l-0.000976562 444h-55c-6.66699 0 -12.167 2.16699 -16.5 6.5s-6.5 9.83301 -6.5 16.5c0 6 2.33301 11.167 7 15.5s10 6.5 16 6.5h55v50
c0 58.667 15 103 45 133c26.667 26.667 62.334 40 107.001 40c20.667 0 41 -2.33301 61 -7c12.667 -2 19 -9.66699 19 -23c0 -7.33301 -2.83301 -13 -8.5 -17s-12.167 -5.33301 -19.5 -4c-21.333 4 -38.666 6 -51.999 6c-68.667 0 -103 -43 -103 -129v-49h159
c6.66699 0 12.167 -2.16699 16.5 -6.5s6.5 -9.83301 6.5 -16.5c0 -6 -2.33301 -11.167 -7 -15.5s-10 -6.5 -16 -6.5h-159v-444c0 -7.33301 -2.33301 -13.333 -7 -18s-10.334 -7 -17.001 -7s-12.5 2.33301 -17.5 7s-7.5 10.667 -7.5 18zM817.998 668v17
c0 8.66699 2.83301 15.834 8.5 21.501s12.834 8.5 21.501 8.5s16 -2.83301 22 -8.5s9 -12.834 9 -21.501v-17c0 -8.66699 -3 -15.834 -9 -21.501s-13.333 -8.5 -22 -8.5s-15.834 2.83301 -21.501 8.5s-8.5 12.834 -8.5 21.501zM823.998 21l-0.00195312 468
c0 7.33301 2.33301 13.333 7 18s10.334 7 17.001 7c7.33301 0 13.333 -2.33301 18 -7s7 -10.667 7 -18v-468c0 -7.33301 -2.16699 -13.333 -6.5 -18s-10.166 -7 -17.499 -7s-13.333 2.33301 -18 7s-7 10.667 -7 18z" />
    <glyph glyph-name="f_f_l" unicode="ffl" horiz-adv-x="973" 
d="M123 21l-0.000976562 444h-55c-6.66699 0 -12.167 2.16699 -16.5 6.5s-6.5 9.83301 -6.5 16.5c0 6 2.33301 11.167 7 15.5s10 6.5 16 6.5h55v50c0 58.667 15 103 45 133c26.667 26.667 62.334 40 107.001 40c20.667 0 41 -2.33301 61 -7c12.667 -2 19 -9.66699 19 -23
c0 -7.33301 -2.83301 -13 -8.5 -17s-12.167 -5.33301 -19.5 -4c-21.333 4 -38.666 6 -51.999 6c-68.667 0 -103 -43 -103 -129v-49h159c6.66699 0 12.167 -2.16699 16.5 -6.5s6.5 -9.83301 6.5 -16.5c0 -6 -2.33301 -11.167 -7 -15.5s-10 -6.5 -16 -6.5h-159v-444
c0 -7.33301 -2.33301 -13.333 -7 -18s-10.334 -7 -17.001 -7s-12.5 2.33301 -17.5 7s-7.5 10.667 -7.5 18zM484.999 21l-0.000976562 444h-55c-6.66699 0 -12.167 2.16699 -16.5 6.5s-6.5 9.83301 -6.5 16.5c0 6 2.33301 11.167 7 15.5s10 6.5 16 6.5h55v50
c0 58.667 15 103 45 133c26.667 26.667 62.334 40 107.001 40c20.667 0 41 -2.33301 61 -7c12.667 -2 19 -9.66699 19 -23c0 -7.33301 -2.83301 -13 -8.5 -17s-12.167 -5.33301 -19.5 -4c-21.333 4 -38.666 6 -51.999 6c-68.667 0 -103 -43 -103 -129v-49h159
c6.66699 0 12.167 -2.16699 16.5 -6.5s6.5 -9.83301 6.5 -16.5c0 -6 -2.33301 -11.167 -7 -15.5s-10 -6.5 -16 -6.5h-159v-444c0 -7.33301 -2.33301 -13.333 -7 -18s-10.334 -7 -17.001 -7s-12.5 2.33301 -17.5 7s-7.5 10.667 -7.5 18zM823.998 21l-0.00195312 688
c0 7.33301 2.33301 13.333 7 18s10.334 7 17.001 7s12.5 -2.33301 17.5 -7s7.5 -10.667 7.5 -18v-688c0 -7.33301 -2.16699 -13.333 -6.5 -18s-10.166 -7 -17.499 -7s-13.333 2.33301 -18 7s-7 10.667 -7 18z" />
    <glyph glyph-name=".notdef" horiz-adv-x="500" 
d="M0 -200v1000h500v-1000h-500zM71 750l179 -390l179 390h-358zM50 -76l172 376l-172 376v-752zM450 676l-172 -376l172 -376v752zM250 240l-179 -390h358z" />
    <glyph glyph-name="space" unicode=" " horiz-adv-x="300" 
 />
    <glyph glyph-name="exclam" unicode="!" horiz-adv-x="252" 
d="M111 195l-16 483c0 6.66699 2.5 12.5 7.5 17.5s10.833 7.5 17.5 7.5h12c6.66699 0 12.5 -2.5 17.5 -7.5s7.5 -10.833 7.5 -17.5l-16 -483c0 -4 -1.5 -7.5 -4.5 -10.5s-6.5 -4.5 -10.5 -4.5s-7.5 1.5 -10.5 4.5s-4.5 6.5 -4.5 10.5zM93 56
c0 9.33301 3.16699 17.166 9.5 23.499s14.166 9.5 23.499 9.5s17.166 -3.16699 23.499 -9.5s9.5 -14.166 9.5 -23.499v-27c0 -9.33301 -3.16699 -17.166 -9.5 -23.499s-14.166 -9.5 -23.499 -9.5s-17.166 3.16699 -23.499 9.5s-9.5 14.166 -9.5 23.499v27z" />
    <glyph glyph-name="quotedbl" unicode="&#x22;" horiz-adv-x="410" 
d="M250 461l30 215c2.66699 17.333 12 26 28 26h19c10.667 0 16 -5.66699 16 -17c0 -0.666992 -1.66699 -8.66699 -5 -24l-57 -201c-4 -12 -9.66699 -18 -17 -18c-11.333 0 -16 6.33301 -14 19zM70 461l30 215c2.66699 17.333 12 26 28 26h19c10.667 0 16 -5.66699 16 -17
c0 -0.666992 -1.66699 -8.66699 -5 -24l-57 -201c-4 -12 -9.66699 -18 -17 -18c-11.333 0 -16 6.33301 -14 19z" />
    <glyph glyph-name="numbersign" unicode="#" horiz-adv-x="700" 
d="M142 25l28 162h-101c-6.66699 0 -12.334 2.16699 -17.001 6.5s-7 9.83301 -7 16.5s2.33301 12.334 7 17.001s10.334 7 17.001 7h109l41 236h-110c-6.66699 0 -12.334 2.16699 -17.001 6.5s-7 9.83301 -7 16.5s2.33301 12.334 7 17.001s10.334 7 17.001 7h118l28 165
c2 14.667 10.333 22 25 22c8 0 14 -3 18 -9s5.33301 -12.667 4 -20l-27 -158h207l28 165c2 14.667 10.333 22 25 22c8 0 14 -3 18 -9s5.33301 -12.667 4 -20l-27 -158h100c6.66699 0 12.334 -2.16699 17.001 -6.5s7 -9.83301 7 -16.5s-2.33301 -12.334 -7 -17.001
s-10.334 -7 -17.001 -7h-108l-41 -236h109c6.66699 0 12.334 -2.16699 17.001 -6.5s7 -9.83301 7 -16.5s-2.33301 -12.334 -7 -17.001s-10.334 -7 -17.001 -7h-117l-29 -169c-2 -14.667 -10.333 -22 -25 -22c-8 0 -14 3 -18 9s-5.33301 12.667 -4 20l28 162h-207l-29 -169
c-2 -14.667 -10.333 -22 -25 -22c-8 0 -14 3 -18 9s-5.33301 12.667 -4 20zM226 234h207l41 236h-207z" />
    <glyph glyph-name="dollar" unicode="$" horiz-adv-x="632" 
d="M297 738c0 6.66699 2.33203 12.333 6.99902 17s10.334 7 17.001 7s12.334 -2.33301 17.001 -7s7 -10.334 7 -17.001v-40c62.667 -5.33301 122 -28.666 178 -69.999c9.33301 -7.33301 14 -15 14 -23c0 -6.66699 -2.5 -12.5 -7.5 -17.5s-11.167 -7.5 -18.5 -7.5
c-6.66699 0 -12.667 2.33301 -18 7c-46.667 37.333 -96.667 59 -150 65v-280c76 -16 131 -38.833 165 -68.5s51 -69.167 51 -118.5c0 -52.667 -20 -96.167 -60 -130.5s-91.333 -52.5 -154 -54.5v-78c0 -6.66699 -2.33301 -12.334 -7 -17.001s-10.334 -7 -17.001 -7
s-12.334 2.33301 -17.001 7s-7 10.334 -7 17.001v79c-83.333 6.66699 -158.333 39 -225 97c-7.33301 6 -11 13 -11 21c0 6.66699 2.5 12.5 7.5 17.5s10.833 7.5 17.5 7.5c7.33301 0 13.333 -2.33301 18 -7c57.333 -53.333 122.333 -83.666 195 -90.999v285
c-74.667 16.667 -128.667 39.667 -162 69s-50 69 -50 119c0 50.667 19.833 93.167 59.5 127.5s89.834 52.166 150.501 53.499v38zM507.999 180.999c0 36 -11.8311 64.8311 -35.498 86.498s-66.834 39.5 -129.501 53.5v-276c49.333 0.666992 89.166 13.834 119.499 39.501
s45.5 57.834 45.5 96.501zM138.001 522.997c0 -36 11.333 -64.832 34 -86.499s65 -39.834 127 -54.501v273c-48 -0.666992 -86.833 -13.667 -116.5 -39s-44.5 -56.333 -44.5 -93z" />
    <glyph glyph-name="percent" unicode="%" horiz-adv-x="824" 
d="M208 350c-44.667 0 -81.334 17.5 -110.001 52.5s-43 76.5 -43 124.5v2c0 48.667 14.5 90.667 43.5 126s66.167 53 111.5 53c44.667 0 81.334 -17.5 110.001 -52.5s43 -76.5 43 -124.5v-2c0 -48.667 -14.5 -90.667 -43.5 -126s-66.167 -53 -111.5 -53zM146 17
c0 5.33301 1.33301 9.66602 4 12.999l487 663c5.33301 7.33301 11.666 11 18.999 11c6 0 11.167 -2 15.5 -6s6.5 -9 6.5 -15c0 -5.33301 -1.33301 -9.66602 -4 -12.999l-487 -663c-5.33301 -7.33301 -11.666 -11 -18.999 -11c-6 0 -11.167 2 -15.5 6s-6.5 9 -6.5 15zM614 -8
c-44.667 0 -81.334 17.5 -110.001 52.5s-43 76.5 -43 124.5v2c0 48.667 14.5 90.667 43.5 126s66.167 53 111.5 53c44.667 0 81.334 -17.5 110.001 -52.5s43 -76.5 43 -124.5v-2c0 -48.667 -14.5 -90.667 -43.5 -126s-66.167 -53 -111.5 -53zM210 393
c29.333 0 53.5 12.833 72.5 38.5s28.5 57.5 28.5 95.5v2c0 38.667 -10 71 -30 97s-44.333 39 -73 39c-29.333 0 -53.5 -13 -72.5 -39s-28.5 -57.667 -28.5 -95v-2c0 -38.667 10 -71 30 -97s44.333 -39 73 -39zM616 35c29.333 0 53.5 12.833 72.5 38.5s28.5 57.5 28.5 95.5v2
c0 38.667 -10 71 -30 97s-44.333 39 -73 39c-29.333 0 -53.5 -13 -72.5 -39s-28.5 -57.667 -28.5 -95v-2c0 -38.667 10 -71 30 -97s44.333 -39 73 -39z" />
    <glyph glyph-name="ampersand" unicode="&#x26;" horiz-adv-x="696" 
d="M629 -9c-8 0 -15.999 3.99902 -23.999 11.999l-104 108c-69.333 -80.667 -148.333 -121 -237 -121c-62 0 -113.333 18.167 -154 54.5s-61 82.833 -61 139.5v2c0 92 60.333 160.333 181 205c-28 30.667 -48 58 -60 82s-18 50 -18 78v2c0 45.333 16.5 83.166 49.5 113.499
s74.833 45.5 125.5 45.5c45.333 0 83.5 -14.833 114.5 -44.5s46.5 -65.5 46.5 -107.5v-2c0 -81.333 -57.333 -141.666 -172 -180.999l184 -189c30 42.667 58 94 84 154c4 10 11.667 15 23 15c7.33301 0 13.333 -2.5 18 -7.5s7 -10.833 7 -17.5c0 -4.66699 -1 -9 -3 -13
c-30.667 -67.333 -62.334 -122.666 -95.001 -165.999l109 -112c8 -8 12 -16 12 -24c0 -7.33301 -2.5 -13.5 -7.5 -18.5s-11.167 -7.5 -18.5 -7.5zM285.001 408.999c100.667 32 150.998 81.001 150.998 147.001v2c0 31.333 -10.667 57.5 -32 78.5s-47.666 31.5 -78.999 31.5
c-35.333 0 -64.333 -10.833 -87 -32.5s-34 -48.5 -34 -80.5v-2c0 -22 5.83301 -43.333 17.5 -64s32.834 -47.334 63.501 -80.001zM264.999 35c72.667 0 140.333 36.666 203 109.999l-207 214c-53.333 -18 -93.333 -42.167 -120 -72.5s-40 -63.166 -40 -98.499v-2
c0 -42.667 15.5 -78.5 46.5 -107.5s70.167 -43.5 117.5 -43.5z" />
    <glyph glyph-name="quotesingle" unicode="'" horiz-adv-x="230" 
d="M70 461l30 215c2.66699 17.333 12 26 28 26h19c10.667 0 16 -5.66699 16 -17c0 -0.666992 -1.66699 -8.66699 -5 -24l-57 -201c-4 -12 -9.66699 -18 -17 -18c-11.333 0 -16 6.33301 -14 19z" />
    <glyph glyph-name="parenleft" unicode="(" horiz-adv-x="430" 
d="M351 -139c-4 0 -8 0.998047 -12 2.99805c-86 50.667 -152.167 111.834 -198.5 183.501s-69.5 151.5 -69.5 239.5s23.167 167.833 69.5 239.5s112.5 132.834 198.5 183.501c4 2 8 3 12 3c12.667 0 19 -6.33301 19 -19c0 -8 -3.66699 -14 -11 -18
c-157.333 -100 -236 -229.667 -236 -389s78.667 -289 236 -389c7.33301 -4 11 -10 11 -18c0 -12.667 -6.33301 -19 -19 -19z" />
    <glyph glyph-name="parenright" unicode=")" horiz-adv-x="430" 
d="M79 -139c-12.667 0 -19 6.33496 -19 19.002c0 8 3.66699 14 11 18c157.333 100 236 229.667 236 389s-78.667 289 -236 389c-7.33301 4 -11 10 -11 18c0 12.667 6.33301 19 19 19c4 0 8 -1 12 -3c86 -50.667 152.167 -111.834 198.5 -183.501s69.5 -151.5 69.5 -239.5
s-23.167 -167.833 -69.5 -239.5s-112.5 -132.834 -198.5 -183.501c-4 -2 -8 -3 -12 -3z" />
    <glyph glyph-name="asterisk" unicode="*" horiz-adv-x="430" 
d="M195 424l8 108.999l-91 -62c-6 -4 -11.333 -6 -16 -6c-5.33301 0 -10 2.16699 -14 6.5s-6 9.16602 -6 14.499c0 8.66699 4.66699 15 14 19l103 49l-103 49c-9.33301 4.66699 -14 11 -14 19c0 12.667 6.66699 19.667 20 21c4.66699 0 10 -2 16 -6l91 -62l-8 109
c-0.666992 6 1 11.167 5 15.5s9 6.5 15 6.5s11 -2.16699 15 -6.5s5.66699 -9.5 5 -15.5l-8 -109l91 62c6 4 11.333 6 16 6c5.33301 0 10 -2.16699 14 -6.5s6 -9.16602 6 -14.499c0 -8.66699 -4.66699 -15 -14 -19l-103 -49l103 -49c9.33301 -4 14 -10.333 14 -19
c0 -5.33301 -2 -10.166 -6 -14.499s-8.66699 -6.5 -14 -6.5c-4.66699 0 -10 2 -16 6l-91 62l8 -109c0.666992 -6 -1 -11.167 -5 -15.5s-9 -6.5 -15 -6.5s-11 2.16699 -15 6.5s-5.66699 9.5 -5 15.5z" />
    <glyph glyph-name="plus" unicode="+" horiz-adv-x="620" 
d="M285 134v194h-197c-6.66699 0 -12.334 2.33301 -17.001 7s-7 10.334 -7 17.001s2.33301 12.334 7 17.001s10.334 7 17.001 7h197v194c0 6.66699 2.5 12.5 7.5 17.5s10.833 7.5 17.5 7.5s12.5 -2.5 17.5 -7.5s7.5 -10.833 7.5 -17.5v-194h197
c6.66699 0 12.334 -2.33301 17.001 -7s7 -10.334 7 -17.001s-2.33301 -12.334 -7 -17.001s-10.334 -7 -17.001 -7h-197v-194c0 -6.66699 -2.5 -12.5 -7.5 -17.5s-10.833 -7.5 -17.5 -7.5s-12.5 2.5 -17.5 7.5s-7.5 10.833 -7.5 17.5z" />
    <glyph glyph-name="comma" unicode="," horiz-adv-x="230" 
d="M54 -90c0 5.33301 2.66797 9.66504 8.00098 12.998c34 18.667 49.667 44.334 47 77.001c-18 4.66699 -27 16.334 -27 35.001v21c0 9.33301 3.16699 17.166 9.5 23.499s14.166 9.5 23.499 9.5s17.166 -3.16699 23.499 -9.5s9.5 -14.166 9.5 -23.499v-25
c0 -51.333 -9 -86 -27 -104c-21.333 -21.333 -38.666 -32 -51.999 -32c-10 0 -15 5 -15 15z" />
    <glyph glyph-name="hyphen" unicode="-" horiz-adv-x="408" 
d="M94 269c-7.33301 0 -13.833 2.83301 -19.5 8.5s-8.5 12.167 -8.5 19.5s2.83301 13.833 8.5 19.5s12.167 8.5 19.5 8.5h220c7.33301 0 13.833 -2.83301 19.5 -8.5s8.5 -12.167 8.5 -19.5s-2.83301 -13.833 -8.5 -19.5s-12.167 -8.5 -19.5 -8.5h-220z" />
    <glyph glyph-name="period" unicode="." horiz-adv-x="230" 
d="M82 56c0 9.33301 3.16699 17.166 9.5 23.499s14.166 9.5 23.499 9.5s17.166 -3.16699 23.499 -9.5s9.5 -14.166 9.5 -23.499v-27c0 -9.33301 -3.16699 -17.166 -9.5 -23.499s-14.166 -9.5 -23.499 -9.5s-17.166 3.16699 -23.499 9.5s-9.5 14.166 -9.5 23.499v27z" />
    <glyph glyph-name="slash" unicode="/" horiz-adv-x="500" 
d="M-6 -111c0 4.66699 1 9 3 13l452 886c4.66699 9.33301 11.667 14 21 14c6 0 11 -2 15 -6s6 -9 6 -15c0 -4.66699 -1 -9 -3 -13l-452 -886c-4.66699 -9.33301 -11.667 -14 -21 -14c-6 0 -11 2 -15 6s-6 9 -6 15z" />
    <glyph glyph-name="zero" unicode="0" horiz-adv-x="710" 
d="M354 -12c-86.667 0 -156.5 35 -209.5 105s-79.5 155 -79.5 255v2c0 64.667 11.667 124.334 35 179.001s57.5 98.834 102.5 132.501s96.167 50.5 153.5 50.5c86.667 0 156.5 -35 209.5 -105s79.5 -155 79.5 -255v-2c0 -64.667 -11.667 -124.334 -35 -179.001
s-57.5 -98.834 -102.5 -132.501s-96.167 -50.5 -153.5 -50.5zM356 35c70 0 126.667 31.002 170 93.002s65 135.333 65 220v2c0 85.333 -22 159.166 -66 221.499s-101 93.5 -171 93.5s-126.667 -30.833 -170 -92.5s-65 -135.167 -65 -220.5v-2
c0 -84.667 22 -158.334 66 -221.001s101 -94 171 -94z" />
    <glyph glyph-name="one" unicode="1" horiz-adv-x="335" 
d="M179 22l-0.000976562 631l-114 -39c-4.66699 -2 -9 -3 -13 -3c-6 0 -11.167 2.16699 -15.5 6.5s-6.5 9.5 -6.5 15.5c0 10 6.33301 17.333 19 22l122 45c12.667 4.66699 23.334 7 32.001 7h2c7.33301 0 13.333 -2.5 18 -7.5s7 -10.833 7 -17.5v-660
c0 -7.33301 -2.5 -13.5 -7.5 -18.5s-10.833 -7.5 -17.5 -7.5c-7.33301 0 -13.5 2.66699 -18.5 8s-7.5 11.333 -7.5 18z" />
    <glyph glyph-name="two" unicode="2" horiz-adv-x="590" 
d="M44 24c0 8 4.00293 15.332 12.0029 21.999l253 229c58 52.667 98.333 96.5 121 131.5s34 70.833 34 107.5c0 44 -15.5 80 -46.5 108s-68.167 42 -111.5 42c-40.667 0 -76.334 -9.66699 -107.001 -29s-60.334 -48.666 -89.001 -87.999c-5.33301 -7.33301 -12 -11 -20 -11
c-6.66699 0 -12.334 2.16699 -17.001 6.5s-7 9.83301 -7 16.5c0 5.33301 1.33301 9.66602 4 12.999c32 46.667 66.167 81.334 102.5 104.001s82.5 34 138.5 34c59.333 0 108.833 -18.333 148.5 -55s59.5 -82.334 59.5 -137.001v-2c0 -46 -12.833 -88 -38.5 -126
s-71.167 -86.667 -136.5 -146l-214 -194h375c7.33301 0 13.333 -2.33301 18 -7s7 -10.667 7 -18s-2.33301 -13.333 -7 -18s-10.667 -7 -18 -7h-436c-7.33301 0 -13.333 2.33301 -18 7s-7 10.334 -7 17.001z" />
    <glyph glyph-name="three" unicode="3" horiz-adv-x="610" 
d="M311 -12c-102 0 -184.999 38.666 -248.999 115.999c-4.66699 6 -7 12 -7 18c0 6.66699 2.5 12.667 7.5 18s11.167 8 18.5 8c8.66699 0 15.667 -3.33301 21 -10c57.333 -68.667 127.333 -103 210 -103c48 0 88.833 14.5 122.5 43.5s50.5 66.167 50.5 111.5v2
c0 48 -20.167 85.333 -60.5 112s-92.833 40 -157.5 40h-25c-6.66699 0 -12.334 2.16699 -17.001 6.5s-7 9.83301 -7 16.5c0 6 3 12.333 9 19l230 265h-346c-7.33301 0 -13.333 2.33301 -18 7s-7 10.334 -7 17.001c0 7.33301 2.33301 13.333 7 18s10.667 7 18 7h398
c6.66699 0 12.167 -2 16.5 -6s6.5 -9.33301 6.5 -16s-3 -13.667 -9 -21l-232 -265c72 -4 131.333 -22.833 178 -56.5s70 -80.834 70 -141.501v-2c0 -59.333 -22.5 -108.166 -67.5 -146.499s-98.5 -57.5 -160.5 -57.5z" />
    <glyph glyph-name="four" unicode="4" horiz-adv-x="664" 
d="M445 21v150h-371c-8 0 -14.5 2.5 -19.5 7.5s-7.5 11.5 -7.5 19.5c0 6.66699 2.66699 13.667 8 21l386 477c6.66699 8.66699 15 13 25 13c8.66699 0 15.667 -2.66699 21 -8s8 -12.333 8 -21v-464h95c6 0 11.333 -2.33301 16 -7s7 -10 7 -16s-2.33301 -11.167 -7 -15.5
s-10 -6.5 -16 -6.5h-95v-150c0 -7.33301 -2.5 -13.333 -7.5 -18s-10.833 -7 -17.5 -7s-12.5 2.33301 -17.5 7s-7.5 10.667 -7.5 18zM111 216h334v414z" />
    <glyph glyph-name="five" unicode="5" horiz-adv-x="605" 
d="M302 -12c-42 0 -83.332 9.33301 -123.999 28s-76.334 42.667 -107.001 72c-7.33301 7.33301 -11 15 -11 23c0 6 2.5 11.5 7.5 16.5s10.833 7.5 17.5 7.5c8.66699 0 16 -3 22 -9c64 -60.667 129.667 -91 197 -91c55.333 0 100.5 16.667 135.5 50s52.5 75.333 52.5 126v2
c0 49.333 -17.833 89.333 -53.5 120s-81.834 46 -138.501 46c-26.667 0 -51.5 -3.16699 -74.5 -9.5s-41.333 -12.833 -55 -19.5s-22.167 -10 -25.5 -10c-10 0 -19.667 3 -29 9c-10 6.66699 -14.333 18.334 -13 35.001l17 288c0.666992 18.667 9.66699 28 27 28h347
c6.66699 0 12.5 -2.33301 17.5 -7s7.5 -10.667 7.5 -18s-2.5 -13.333 -7.5 -18s-10.833 -7 -17.5 -7h-326l-17 -262c52 25.333 103.667 38 155 38c68.667 0 125.834 -19.667 171.501 -59s68.5 -90 68.5 -152v-2c0 -64.667 -23 -118.334 -69 -161.001s-104.333 -64 -175 -64z
" />
    <glyph glyph-name="six" unicode="6" horiz-adv-x="642" 
d="M331 -12c-72 0 -131.334 23.332 -178.001 69.999c-30.667 30.667 -53.167 66.5 -67.5 107.5s-21.5 96.167 -21.5 165.5v2c0 108 26.167 198.167 78.5 270.5s121.166 108.5 206.499 108.5c66 0 128.333 -23 187 -69c7.33301 -6 11 -13 11 -21
c0 -6.66699 -2.5 -12.667 -7.5 -18s-11.167 -8 -18.5 -8c-6 0 -11.333 2 -16 6c-51.333 42 -104.666 63 -159.999 63c-70.667 0 -127.167 -33.667 -169.5 -101s-62.166 -154.666 -59.499 -261.999c50.667 86.667 123.667 130 219 130c65.333 0 121.833 -20.167 169.5 -60.5
s71.5 -90.833 71.5 -151.5v-2c0 -66 -23.5 -120.833 -70.5 -164.5s-105.167 -65.5 -174.5 -65.5zM334.999 34.999c55.333 0 100.331 17.5 134.998 52.5s52 77.833 52 128.5v2c0 48 -17.833 88 -53.5 120s-81.167 48 -136.5 48s-101.666 -17.667 -138.999 -53
s-56 -75.333 -56 -120v-2c0 -50 18.833 -91.833 56.5 -125.5s84.834 -50.5 141.501 -50.5z" />
    <glyph glyph-name="seven" unicode="7" horiz-adv-x="587" 
d="M169 20c0 4.66699 1.33203 9.66602 3.99902 14.999l301 615h-385c-7.33301 0 -13.333 2.33301 -18 7s-7 10.667 -7 18s2.33301 13.333 7 18s10.667 7 18 7h422c7.33301 0 13.333 -2.16699 18 -6.5s7 -9.83301 7 -16.5c0 -5.33301 -2 -12 -6 -20l-310 -643
c-5.33301 -12 -13.666 -18 -24.999 -18c-7.33301 0 -13.5 2.33301 -18.5 7s-7.5 10.334 -7.5 17.001z" />
    <glyph glyph-name="eight" unicode="8" horiz-adv-x="630" 
d="M315 -10c-74 0 -135.833 18.5 -185.5 55.5s-74.5 84.167 -74.5 141.5v2c0 39.333 14.333 74.166 43 104.499s66 53.166 112 68.499c-87.333 35.333 -131 89.666 -131 162.999v2c0 52.667 23.667 96.334 71 131.001s102.333 52 165 52s117.667 -17.333 165 -52
s71 -78.334 71 -131.001v-2c0 -73.333 -43.667 -127.666 -131 -162.999c46 -15.333 83.333 -38.166 112 -68.499s43 -65.166 43 -104.499v-2c0 -57.333 -24.833 -104.5 -74.5 -141.5s-111.5 -55.5 -185.5 -55.5zM315 381c50.667 0 93.667 13.5 129 40.5s53 61.5 53 103.5v2
c0 39.333 -17.5 71.833 -52.5 97.5s-78.167 38.5 -129.5 38.5s-94.5 -12.833 -129.5 -38.5s-52.5 -58.167 -52.5 -97.5v-2c0 -42 17.667 -76.5 53 -103.5s78.333 -40.5 129 -40.5zM315 37c62.667 0 112.667 14.333 150 43s56 63.667 56 105v2
c0 43.333 -20 79.166 -60 107.499s-88.667 42.5 -146 42.5s-106 -14.167 -146 -42.5s-60 -64.166 -60 -107.499v-2c0 -41.333 18.667 -76.333 56 -105s87.333 -43 150 -43z" />
    <glyph glyph-name="nine" unicode="9" horiz-adv-x="642" 
d="M293 -12c-69.333 0 -135.666 25.666 -198.999 76.999c-7.33301 6 -11 13 -11 21c0 7.33301 2.5 13.5 7.5 18.5s10.833 7.5 17.5 7.5c7.33301 0 13.666 -2.33301 18.999 -7c54.667 -46.667 110.334 -70 167.001 -70c70.667 0 128 34 172 102s64 154.333 60 259
c-50 -90 -122.667 -135 -218 -135c-70 0 -127.833 20.5 -173.5 61.5s-68.5 91.833 -68.5 152.5v2c0 66 23 121.667 69 167s105 68 177 68c71.333 0 130.666 -23.667 177.999 -71c58.667 -58.667 88 -149.667 88 -273v-2c0 -109.333 -27 -199.666 -81 -270.999
s-122 -107 -204 -107zM310 306.999c56.667 0 103.332 18.001 139.999 54.001s55 77.333 55 124v2c0 50 -18.833 92.167 -56.5 126.5s-85.167 51.5 -142.5 51.5c-55.333 0 -100.166 -18.333 -134.499 -55s-51.5 -80.334 -51.5 -131.001v-2c0 -49.333 17.833 -90 53.5 -122
s81.167 -48 136.5 -48z" />
    <glyph glyph-name="colon" unicode=":" horiz-adv-x="240" 
d="M87 481c0 9.33301 3.16699 17.166 9.5 23.499s14.166 9.5 23.499 9.5s17.166 -3.16699 23.499 -9.5s9.5 -14.166 9.5 -23.499v-27c0 -9.33301 -3.16699 -17.166 -9.5 -23.499s-14.166 -9.5 -23.499 -9.5s-17.166 3.16699 -23.499 9.5s-9.5 14.166 -9.5 23.499v27zM87 56
c0 9.33301 3.16699 17.166 9.5 23.499s14.166 9.5 23.499 9.5s17.166 -3.16699 23.499 -9.5s9.5 -14.166 9.5 -23.499v-27c0 -9.33301 -3.16699 -17.166 -9.5 -23.499s-14.166 -9.5 -23.499 -9.5s-17.166 3.16699 -23.499 9.5s-9.5 14.166 -9.5 23.499v27z" />
    <glyph glyph-name="semicolon" unicode=";" horiz-adv-x="240" 
d="M87 481c0 9.33301 3.16699 17.166 9.5 23.499s14.166 9.5 23.499 9.5s17.166 -3.16699 23.499 -9.5s9.5 -14.166 9.5 -23.499v-27c0 -9.33301 -3.16699 -17.166 -9.5 -23.499s-14.166 -9.5 -23.499 -9.5s-17.166 3.16699 -23.499 9.5s-9.5 14.166 -9.5 23.499v27zM59 -90
c0 5.33301 2.66797 9.66504 8.00098 12.998c34 18.667 49.667 44.334 47 77.001c-18 4.66699 -27 16.334 -27 35.001v21c0 9.33301 3.16699 17.166 9.5 23.499s14.166 9.5 23.499 9.5s17.166 -3.16699 23.499 -9.5s9.5 -14.166 9.5 -23.499v-25c0 -51.333 -9 -86 -27 -104
c-21.333 -21.333 -38.666 -32 -51.999 -32c-10 0 -15 5 -15 15z" />
    <glyph glyph-name="less" unicode="&#x3c;" horiz-adv-x="620" 
d="M509 104c-4.66699 0 -9.66699 1.33496 -15 4.00195l-416 216c-12 6.66699 -18 15.667 -18 27v2c0 11.333 6 20.333 18 27l416 216c5.33301 2.66699 10.333 4 15 4c6.66699 0 12 -2.33301 16 -7s6 -10.334 6 -17.001c0 -9.33301 -5.33301 -17 -16 -23l-391 -200l391 -202
c10.667 -6 16 -13.667 16 -23c0 -6.66699 -2 -12.334 -6 -17.001s-9.33301 -7 -16 -7z" />
    <glyph glyph-name="equal" unicode="=" horiz-adv-x="620" 
d="M105 439c-7.33301 0 -13.5 2.5 -18.5 7.5s-7.5 10.833 -7.5 17.5s2.5 12.667 7.5 18s11.167 8 18.5 8h410c7.33301 0 13.5 -2.66699 18.5 -8s7.5 -11.333 7.5 -18s-2.5 -12.5 -7.5 -17.5s-11.167 -7.5 -18.5 -7.5h-410zM105 214c-7.33301 0 -13.5 2.5 -18.5 7.5
s-7.5 10.833 -7.5 17.5c0 7.33301 2.5 13.5 7.5 18.5s11.167 7.5 18.5 7.5h410c7.33301 0 13.5 -2.5 18.5 -7.5s7.5 -11.167 7.5 -18.5c0 -6.66699 -2.5 -12.5 -7.5 -17.5s-11.167 -7.5 -18.5 -7.5h-410z" />
    <glyph glyph-name="greater" unicode="&#x3e;" horiz-adv-x="620" 
d="M111 600c4.66699 0 9.66699 -1.33496 15 -4.00195l416 -216c12 -6.66699 18 -15.667 18 -27v-2c0 -11.333 -6 -20.333 -18 -27l-416 -216c-5.33301 -2.66699 -10.333 -4 -15 -4c-6.66699 0 -12 2.33301 -16 7s-6 10.334 -6 17.001c0 9.33301 5.33301 17 16 23l391 200
l-391 202c-10.667 6 -16 13.667 -16 23c0 6.66699 2 12.334 6 17.001s9.33301 7 16 7z" />
    <glyph glyph-name="question" unicode="?" horiz-adv-x="534" 
d="M246 179l-1.99902 -0.00195312c-9.33301 0 -14.666 6 -15.999 18l-11 129c-0.666992 6.66699 1.16602 12.334 5.49902 17.001s10.166 7.33398 17.499 8.00098c57.333 3.33301 103.166 18.833 137.499 46.5s51.5 65.167 51.5 112.5v2c0 42 -15.333 77.667 -46 107
s-70.667 44 -120 44c-68.667 0 -129.667 -30.333 -183 -91c-5.33301 -6.66699 -12 -10 -20 -10c-6.66699 0 -12.167 2 -16.5 6s-6.5 9.33301 -6.5 16s2 12.334 6 17.001c60.667 72 134.667 108 222 108c64.667 0 117 -18.833 157 -56.5s60 -83.834 60 -138.501v-2
c0 -58.667 -19.833 -105.5 -59.5 -140.5s-90.5 -56.167 -152.5 -63.5l-8 -111c-1.33301 -12 -6.66602 -18 -15.999 -18zM212.001 55.998c0 9.33301 3.16699 17.166 9.5 23.499s14.166 9.5 23.499 9.5s17.166 -3.16699 23.499 -9.5s9.5 -14.166 9.5 -23.499v-27
c0 -9.33301 -3.16699 -17.166 -9.5 -23.499s-14.166 -9.5 -23.499 -9.5s-17.166 3.16699 -23.499 9.5s-9.5 14.166 -9.5 23.499v27z" />
    <glyph glyph-name="at" unicode="@" horiz-adv-x="980" 
d="M499 -162c-126.667 0 -232.668 42.4971 -318.001 127.497s-128 187.833 -128 308.5c0 120 42.5 223 127.5 309s188.5 129 310.5 129c121.333 0 224.333 -39.333 309 -118s127 -171.334 127 -278.001c0 -79.333 -18.333 -139.666 -55 -180.999s-79 -62 -127 -62
c-34.667 0 -63.834 8.33301 -87.501 25s-39.834 39.334 -48.501 68.001c-50 -62 -107 -93 -171 -93c-49.333 0 -91.166 16.667 -125.499 50s-51.5 76 -51.5 128c0 68.667 24.167 127.334 72.5 176.001s101.833 73 160.5 73c68 0 117.667 -29.667 149 -89l11 59
c3.33301 16 11.666 24 24.999 24c8 0 14.167 -3.16699 18.5 -9.5s5.83301 -13.5 4.5 -21.5l-34 -194c-6 -35.333 -9 -59.333 -9 -72c0 -28.667 7.83301 -50.5 23.5 -65.5s37.834 -22.5 66.501 -22.5c38.667 0 72.334 17.667 101.001 53s43 86.666 43 153.999
c0 60.667 -17.167 118.834 -51.5 174.501s-82.833 101.167 -145.5 136.5s-131 53 -205 53c-114.667 0 -210.667 -39.5 -288 -118.5s-116 -174.833 -116 -287.5c0 -113.333 38.833 -209 116.5 -287s176.167 -117 295.5 -117c86.667 0 167.667 21.333 243 64
c2.66699 1.33301 6 2 10 2c3.33301 0 6.33301 -1.5 9 -4.5s4 -6.16699 4 -9.5c0 -5.33301 -2.33301 -9.66602 -7 -12.999c-79.333 -47.333 -165.666 -71 -258.999 -71zM445.999 119.997c46.667 0 88.333 19.833 125 59.5s55 84.167 55 133.5c0 39.333 -12.5 72.333 -37.5 99
s-56.5 40 -94.5 40c-46.667 0 -88.5 -19.167 -125.5 -57.5s-55.5 -84.833 -55.5 -139.5c0 -42 12.167 -75 36.5 -99s56.5 -36 96.5 -36z" />
    <glyph glyph-name="A" unicode="A" horiz-adv-x="790" 
d="M56 18c0 5.33301 1.33301 10.667 4 16l299 648c8 16.667 19.667 25 35 25h2c15.333 0 27 -8.33301 35 -25l298 -646c2.66699 -5.33301 4 -10.666 4 -15.999c0 -6.66699 -2.5 -12.334 -7.5 -17.001s-10.833 -7 -17.5 -7c-11.333 0 -20 6.66699 -26 20l-82 180h-413
l-82 -181c-5.33301 -12.667 -13.666 -19 -24.999 -19c-6.66699 0 -12.334 2.16699 -17.001 6.5s-7 9.5 -7 15.5zM209 243.001h369l-184 405z" />
    <glyph glyph-name="B" unicode="B" horiz-adv-x="722" 
d="M104 26v648c0 6.66699 2.66699 12.667 8 18s11.333 8 18 8h263c80 0 140.667 -20.667 182 -62c30 -30 45 -66.667 45 -110v-2c0 -78.667 -39.667 -134 -119 -166c105.333 -27.333 158 -83 158 -167v-2c0 -58 -22.833 -104.333 -68.5 -139s-106.5 -52 -182.5 -52h-278
c-6.66699 0 -12.667 2.66699 -18 8s-8 11.333 -8 18zM156 377l231 0.00195312c54 0 97.5 12.667 130.5 38s49.5 60.666 49.5 105.999v2c0 39.333 -15.333 70.666 -46 93.999s-73.667 35 -129 35h-236v-275zM156 48.002h254.001c60 0 107.667 12.833 143 38.5
s53 60.5 53 104.5v2c0 43.333 -18.333 76.833 -55 100.5s-89.334 35.5 -158.001 35.5h-237v-281z" />
    <glyph glyph-name="C" unicode="C" horiz-adv-x="738" 
d="M421 -12c-99.333 0 -182.17 34.6689 -248.503 104.002s-99.5 154.666 -99.5 255.999v2c0 100 33.333 185.333 100 256s150 106 250 106c54 0 101 -8.33301 141 -25s78.667 -41 116 -73c6.66699 -6.66699 10 -13.667 10 -21c0 -6.66699 -2.66699 -12.667 -8 -18
s-11.666 -8 -18.999 -8s-13.333 2.33301 -18 7c-66.667 60.667 -141 91 -223 91c-84 0 -154.167 -30.167 -210.5 -90.5s-84.5 -134.5 -84.5 -222.5v-2c0 -88.667 28.5 -163.334 85.5 -224.001s127.167 -91 210.5 -91c46 0 86.833 8 122.5 24s70.834 40.333 105.501 73
c5.33301 5.33301 11.333 8 18 8s12.5 -2.5 17.5 -7.5s7.5 -10.833 7.5 -17.5s-2.66699 -12.667 -8 -18c-38.667 -36 -78.667 -63.167 -120 -81.5s-89.666 -27.5 -144.999 -27.5z" />
    <glyph glyph-name="D" unicode="D" horiz-adv-x="782" 
d="M104 26v647.999c0 6.66699 2.66699 12.667 8 18s11.333 8 18 8h207c108.667 0 197.834 -33.167 267.501 -99.5s104.5 -149.166 104.5 -248.499v-2c0 -100 -34.833 -183.333 -104.5 -250s-158.834 -100 -267.501 -100h-207c-6.66699 0 -12.667 2.66699 -18 8
s-8 11.333 -8 18zM156 47.999l181 0.000976562c95.333 0 172.166 28.667 230.499 86s87.5 128.666 87.5 213.999v2c0 85.333 -29.167 157 -87.5 215s-135.166 87 -230.499 87h-181v-604z" />
    <glyph glyph-name="E" unicode="E" horiz-adv-x="670" 
d="M130 0c-6.66699 0 -12.667 2.67285 -18 8.00586s-8 11.333 -8 18v648c0 6.66699 2.66699 12.667 8 18s11.333 8 18 8h452c6.66699 0 12.334 -2.33301 17.001 -7s7 -10.334 7 -17.001s-2.33301 -12.334 -7 -17.001s-10.334 -7 -17.001 -7h-426v-275h381
c6.66699 0 12.334 -2.33301 17.001 -7s7 -10.334 7 -17.001s-2.33301 -12.334 -7 -17.001s-10.334 -7 -17.001 -7h-381v-281h431c6.66699 0 12.334 -2.33301 17.001 -7s7 -10.334 7 -17.001s-2.33301 -12.334 -7 -17.001s-10.334 -7 -17.001 -7h-457z" />
    <glyph glyph-name="F" unicode="F" horiz-adv-x="656" 
d="M104 22v652.004c0 6.66699 2.66699 12.667 8 18s11.333 8 18 8h447c6.66699 0 12.334 -2.33301 17.001 -7s7 -10.334 7 -17.001s-2.33301 -12.334 -7 -17.001s-10.334 -7 -17.001 -7h-421v-287h376c6.66699 0 12.334 -2.33301 17.001 -7s7 -10.334 7 -17.001
s-2.33301 -12.334 -7 -17.001s-10.334 -7 -17.001 -7h-376v-295c0 -6.66699 -2.66699 -12.667 -8 -18s-11.333 -8 -18 -8s-12.667 2.66699 -18 8s-8 11.333 -8 18z" />
    <glyph glyph-name="G" unicode="G" horiz-adv-x="784" 
d="M425 -12c-107.333 0 -192.835 34.498 -256.502 103.498s-95.5 154.5 -95.5 256.5v2c0 98 32.333 182.833 97 254.5s147.667 107.5 249 107.5c90.667 0 170.334 -26 239.001 -78c6.66699 -5.33301 10 -12.333 10 -21c0 -7.33301 -2.66699 -13.5 -8 -18.5
s-11.333 -7.5 -18 -7.5c-5.33301 0 -10.666 2.33301 -15.999 7c-60.667 47.333 -130.667 71 -210 71c-83.333 0 -152.333 -30.667 -207 -92s-82 -135 -82 -221v-2c0 -92.667 27 -168.5 81 -227.5s127 -88.5 219 -88.5c42 0 82.833 7.5 122.5 22.5s73.167 34.167 100.5 57.5
v201h-218c-6.66699 0 -12.334 2.33301 -17.001 7s-7 10.334 -7 17.001s2.33301 12.334 7 17.001s10.334 7 17.001 7h242c6.66699 0 12.667 -2.5 18 -7.5s8 -11.167 8 -18.5v-229c0 -10 -6 -20 -18 -30c-77.333 -60 -163 -90 -257 -90z" />
    <glyph glyph-name="H" unicode="H" horiz-adv-x="760" 
d="M104 22v656c0 6.66699 2.66699 12.667 8 18s11.333 8 18 8s12.667 -2.66699 18 -8s8 -11.333 8 -18v-302h448v302c0 6.66699 2.66699 12.667 8 18s11.333 8 18 8s12.667 -2.66699 18 -8s8 -11.333 8 -18v-656c0 -6.66699 -2.66699 -12.667 -8 -18s-11.333 -8 -18 -8
s-12.667 2.66699 -18 8s-8 11.333 -8 18v306h-448v-306c0 -6.66699 -2.66699 -12.667 -8 -18s-11.333 -8 -18 -8s-12.667 2.66699 -18 8s-8 11.333 -8 18z" />
    <glyph glyph-name="I" unicode="I" horiz-adv-x="274" 
d="M111 22v656c0 6.66699 2.5 12.667 7.5 18s11.167 8 18.5 8s13.5 -2.66699 18.5 -8s7.5 -11.333 7.5 -18v-656c0 -6.66699 -2.5 -12.667 -7.5 -18s-11.167 -8 -18.5 -8s-13.5 2.66699 -18.5 8s-7.5 11.333 -7.5 18z" />
    <glyph glyph-name="J" unicode="J" horiz-adv-x="549" 
d="M249 -10c-87.333 0 -154.999 38.335 -202.999 115.002c-2.66699 4 -4 8.66699 -4 14c0 7.33301 2.66699 13.5 8 18.5s11.333 7.5 18 7.5c9.33301 0 16.333 -4 21 -12c21.333 -32.667 44.666 -56.834 69.999 -72.501s56.333 -23.5 93 -23.5
c44.667 0 81.167 16.333 109.5 49s42.5 78.667 42.5 138v454c0 6.66699 2.66699 12.667 8 18s11.333 8 18 8s12.667 -2.66699 18 -8s8 -11.333 8 -18v-450c0 -78.667 -21.333 -139.334 -64 -182.001c-37.333 -37.333 -85 -56 -143 -56z" />
    <glyph glyph-name="K" unicode="K" horiz-adv-x="715" 
d="M104 22l-0.000976562 655.999c0 6.66699 2.66699 12.667 8 18s11.333 8 18 8s12.667 -2.66699 18 -8s8 -11.333 8 -18v-438l442 456c5.33301 5.33301 11.333 8 18 8s12.667 -2.66699 18 -8s8 -11.333 8 -18s-2.66699 -12.667 -8 -18l-267 -269l285 -349
c5.33301 -6.66699 8 -13 8 -19c0 -7.33301 -2.66699 -13.666 -8 -18.999s-11.666 -8 -18.999 -8c-8 0 -14.667 3.33301 -20 10l-283 348l-174 -176v-156c0 -6.66699 -2.66699 -12.667 -8 -18s-11.333 -8 -18 -8s-12.667 2.66699 -18 8s-8 11.333 -8 18z" />
    <glyph glyph-name="L" unicode="L" horiz-adv-x="619" 
d="M104 26v652.002c0 6.66699 2.66699 12.667 8 18s11.333 8 18 8s12.667 -2.66699 18 -8s8 -11.333 8 -18v-630h391c6.66699 0 12.334 -2.33301 17.001 -7s7 -10.334 7 -17.001s-2.33301 -12.334 -7 -17.001s-10.334 -7 -17.001 -7h-417c-6.66699 0 -12.667 2.66699 -18 8
s-8 11.333 -8 18z" />
    <glyph glyph-name="M" unicode="M" horiz-adv-x="868" 
d="M104 21l-0.000976562 656c0 7.33301 2.66699 13.5 8 18.5s11.333 7.5 18 7.5h5c9.33301 0 18 -5 26 -15l273 -402l273 402c6.66699 10 15.334 15 26.001 15h5c6.66699 0 12.667 -2.5 18 -7.5s8 -11.167 8 -18.5v-655c0 -6.66699 -2.66699 -12.667 -8 -18
s-11.333 -8 -18 -8s-12.667 2.66699 -18 8s-8 11.333 -8 18v586l-257 -374c-6 -8.66699 -13.333 -13 -22 -13s-16 4.33301 -22 13l-257 374v-587c0 -7.33301 -2.33301 -13.333 -7 -18s-10.667 -7 -18 -7s-13.333 2.33301 -18 7s-7 10.667 -7 18z" />
    <glyph glyph-name="N" unicode="N" horiz-adv-x="790" 
d="M104 21v656c0 7.33301 2.66699 13.5 8 18.5s11.333 7.5 18 7.5h8c9.33301 0 18 -5 26 -15l472 -599v590c0 7.33301 2.33301 13.333 7 18s10.667 7 18 7s13.333 -2.33301 18 -7s7 -10.667 7 -18v-660c0 -6 -2 -11.167 -6 -15.5s-9 -6.5 -15 -6.5h-4
c-8 0 -16.667 5.66699 -26 17l-481 610v-603c0 -7.33301 -2.33301 -13.333 -7 -18s-10.667 -7 -18 -7s-13.333 2.33301 -18 7s-7 10.667 -7 18z" />
    <glyph glyph-name="O" unicode="O" horiz-adv-x="850" 
d="M424 -12c-103.333 0 -187.666 35.333 -252.999 106s-98 155.334 -98 254.001v2c0 98.667 33 183.667 99 255s150.667 107 254 107s187.666 -35.333 252.999 -106s98 -155.334 98 -254.001v-2c0 -98.667 -33 -183.667 -99 -255s-150.667 -107 -254 -107zM426 35
c85.333 0 156.166 30.333 212.499 91s84.5 134.667 84.5 222v2c0 87.333 -28.5 161.666 -85.5 222.999s-128.167 92 -213.5 92s-156.166 -30.333 -212.499 -91s-84.5 -134.667 -84.5 -222v-2c0 -87.333 28.5 -161.666 85.5 -222.999s128.167 -92 213.5 -92z" />
    <glyph glyph-name="P" unicode="P" horiz-adv-x="668" 
d="M104 22l-0.000976562 652c0 6.66699 2.66699 12.667 8 18s11.333 8 18 8h228c78 0 140.833 -19 188.5 -57s71.5 -90.333 71.5 -157v-2c0 -70.667 -26.167 -125.5 -78.5 -164.5s-117.166 -58.5 -194.499 -58.5h-189v-239c0 -6.66699 -2.66699 -12.667 -8 -18
s-11.333 -8 -18 -8s-12.667 2.66699 -18 8s-8 11.333 -8 18zM155.999 309h192c65.333 0 118 15.667 158 47s60 73 60 125v2c0 54 -19.167 95.667 -57.5 125s-89.833 44 -154.5 44h-198v-343z" />
    <glyph glyph-name="Q" unicode="Q" horiz-adv-x="850" 
d="M424 -12c-103.333 0 -187.667 35.333 -253 106s-98 155.334 -98 254.001v2c0 98.667 33 183.667 99 255s150.667 107 254 107s187.666 -35.333 252.999 -106s98 -155.334 98 -254.001v-2c0 -94.667 -30.667 -177 -92 -247l80 -67c8 -6.66699 12 -14.334 12 -23.001
c0 -7.33301 -2.66699 -13.666 -8 -18.999s-11.666 -8 -18.999 -8c-6.66699 0 -14 3.33301 -22 10l-79 72c-62.667 -53.333 -137.667 -80 -225 -80zM494.999 201c-8 7.33301 -12 15.001 -12 23.001c0 7.33301 2.66699 13.666 8 18.999s11.666 8 18.999 8
c6.66699 0 14 -3.33301 22 -10l115 -105c50.667 58 76 128.667 76 212v2c0 87.333 -28.5 161.666 -85.5 222.999s-128.167 92 -213.5 92s-156.166 -30.333 -212.499 -91s-84.5 -134.667 -84.5 -222v-2c0 -87.333 28.5 -161.666 85.5 -222.999s128.167 -92 213.5 -92
c71.333 0 133.333 22 186 66z" />
    <glyph glyph-name="R" unicode="R" horiz-adv-x="723" 
d="M104 22v651.998c0 6.66699 2.66699 12.667 8 18s11.333 8 18 8h268c85.333 0 151 -23 197 -69c35.333 -35.333 53 -78.666 53 -129.999v-2c0 -56.667 -18.667 -102 -56 -136s-87 -55.333 -149 -64l199 -258c5.33301 -6.66699 8 -12.667 8 -18
c0 -7.33301 -2.66699 -13.666 -8 -18.999s-11.666 -8 -18.999 -8c-8.66699 0 -16.334 4.66699 -23.001 14l-215 280h-229v-268c0 -6.66699 -2.66699 -12.667 -8 -18s-11.333 -8 -18 -8s-12.667 2.66699 -18 8s-8 11.333 -8 18zM156 336.998l235.999 0.000976562
c60 0 109 14.333 147 43s57 67.667 57 117v2c0 47.333 -17.667 84.666 -53 111.999s-84.666 41 -147.999 41h-239v-315z" />
    <glyph glyph-name="S" unicode="S" horiz-adv-x="640" 
d="M341 -10c-98 0 -186.665 32.6621 -265.998 97.9951c-6.66699 5.33301 -10 12 -10 20c0 6.66699 2.5 12.667 7.5 18s11.167 8 18.5 8c6 0 11.667 -2 17 -6c67.333 -60.667 146 -91 236 -91c52 0 94.5 13.167 127.5 39.5s49.5 59.5 49.5 99.5v2
c0 38.667 -13.833 69.334 -41.5 92.001s-79.834 41.667 -156.501 57c-84 16.667 -144.333 40.334 -181 71.001s-55 72.667 -55 126v2c0 52 21.333 95.667 64 131s96.334 53 161.001 53c84.667 0 159 -24 223 -72c7.33301 -6 11 -13 11 -21
c0 -7.33301 -2.66699 -13.5 -8 -18.5s-11.333 -7.5 -18 -7.5s-12.334 2 -17.001 6c-57.333 44 -121.666 66 -192.999 66c-50.667 0 -91.834 -12.667 -123.501 -38s-47.5 -56.666 -47.5 -93.999v-2c0 -39.333 14.167 -70.666 42.5 -93.999s82.166 -43 161.499 -59
c80.667 -16.667 139.167 -40.167 175.5 -70.5s54.5 -71.166 54.5 -122.499v-2c0 -56 -21.667 -101.833 -65 -137.5s-99 -53.5 -167 -53.5z" />
    <glyph glyph-name="T" unicode="T" horiz-adv-x="648" 
d="M298 22v630h-224c-6.66699 0 -12.334 2.33301 -17.001 7s-7 10.334 -7 17.001s2.33301 12.334 7 17.001s10.334 7 17.001 7h500c6.66699 0 12.334 -2.33301 17.001 -7s7 -10.334 7 -17.001s-2.33301 -12.334 -7 -17.001s-10.334 -7 -17.001 -7h-224v-630
c0 -6.66699 -2.66699 -12.667 -8 -18s-11.333 -8 -18 -8s-12.667 2.66699 -18 8s-8 11.333 -8 18z" />
    <glyph glyph-name="U" unicode="U" horiz-adv-x="760" 
d="M380 -11c-86 0 -155.333 26.332 -208 78.999s-79 127 -79 223v387c0 6.66699 2.5 12.667 7.5 18s11.167 8 18.5 8s13.5 -2.66699 18.5 -8s7.5 -11.333 7.5 -18v-382c0 -82 21 -145.833 63 -191.5s100 -68.5 174 -68.5c72.667 0 129.667 21.833 171 65.5
s62 106.834 62 189.501v387c0 6.66699 2.5 12.667 7.5 18s11.167 8 18.5 8s13.5 -2.66699 18.5 -8s7.5 -11.333 7.5 -18v-381c0 -98 -26 -173.833 -78 -227.5s-121.667 -80.5 -209 -80.5z" />
    <glyph glyph-name="V" unicode="V" horiz-adv-x="750" 
d="M374 -7c-14 0 -24.333 7.66602 -31 22.999l-285 652c-1.33301 2.66699 -2 6.33398 -2 11.001c0 6 2.5 11.667 7.5 17s11.167 8 18.5 8c12 0 21 -7 27 -21l267 -627l268 628c6 13.333 14.667 20 26 20c6.66699 0 12.5 -2.5 17.5 -7.5s7.5 -10.5 7.5 -16.5
c0 -4 -0.666992 -7.33301 -2 -10l-286 -654c-6.66699 -15.333 -17 -23 -31 -23h-2z" />
    <glyph glyph-name="W" unicode="W" horiz-adv-x="1102" 
d="M297 15l-233.997 649.003c-2 5.33301 -3 9.66602 -3 12.999c0 7.33301 2.66699 13.666 8 18.999s11.666 8 18.999 8c13.333 0 22.666 -8 27.999 -24l213 -603l199 607c4.66699 13.333 13 20 25 20h2c12 0 20.333 -6.66699 25 -20l199 -607l214 606
c5.33301 14 13.666 21 24.999 21c6.66699 0 12.667 -2.66699 18 -8s8 -11.333 8 -18c0 -2.66699 -1.33301 -7.33398 -4 -14.001l-234 -649c-6 -15.333 -15 -23 -27 -23h-2c-13.333 0 -22.333 7.66699 -27 23l-198 588l-198 -588c-4.66699 -15.333 -13.667 -23 -27 -23h-2
c-12.667 0 -21.667 7.66699 -27 23z" />
    <glyph glyph-name="X" unicode="X" horiz-adv-x="722" 
d="M73 20c0 5.33301 2.33301 10.999 7 16.999l250 320l-238 303c-6 8.66699 -9 15.334 -9 20.001c0 6 2.5 11.5 7.5 16.5s10.833 7.5 17.5 7.5c8 0 15.333 -4.33301 22 -13l232 -299l229 296c8 10.667 16.333 16 25 16c6.66699 0 12.167 -2.33301 16.5 -7
s6.5 -10.334 6.5 -17.001c0 -5.33301 -2.33301 -11 -7 -17l-239 -305l247 -318c6 -7.33301 9 -14 9 -20s-2.5 -11.5 -7.5 -16.5s-10.833 -7.5 -17.5 -7.5c-8 0 -15.333 4.33301 -22 13l-242 314l-239 -311c-8 -10.667 -16.333 -16 -25 -16
c-6.66699 0 -12.167 2.33301 -16.5 7s-6.5 10.334 -6.5 17.001z" />
    <glyph glyph-name="Y" unicode="Y" horiz-adv-x="716" 
d="M332 22l0.000976562 255.001l-273 385c-3.33301 5.33301 -5 10.666 -5 15.999c0 6.66699 2.66699 12.667 8 18s11.666 8 18.999 8c9.33301 0 17.333 -5 24 -15l254 -365l255 365c7.33301 10 15 15 23 15c6.66699 0 12.667 -2.5 18 -7.5s8 -10.833 8 -17.5
c0 -5.33301 -2.66699 -12 -8 -20l-271 -381v-256c0 -6.66699 -2.66699 -12.667 -8 -18s-11.333 -8 -18 -8s-12.667 2.66699 -18 8s-8 11.333 -8 18z" />
    <glyph glyph-name="Z" unicode="Z" horiz-adv-x="688" 
d="M96 0c-6.66699 0 -12.5 2.33301 -17.5 7s-7.5 9.66699 -7.5 15v1c0 6.66699 3 14 9 22l467 608h-442c-6.66699 0 -12.334 2.16699 -17.001 6.5s-7 9.83301 -7 16.5s2.33301 12.334 7 17.001s10.334 7 17.001 7h488c6.66699 0 12.5 -2.33301 17.5 -7s7.5 -9.66699 7.5 -15
v-1c0 -6.66699 -3 -14 -9 -22l-467 -608h459c6.66699 0 12.334 -2.16699 17.001 -6.5s7 -9.83301 7 -16.5s-2.33301 -12.334 -7 -17.001s-10.334 -7 -17.001 -7h-505z" />
    <glyph glyph-name="bracketleft" unicode="[" horiz-adv-x="430" 
d="M98 -104v778c0 6.66699 2.66699 12.667 8 18s11.333 8 18 8h232c5.33301 0 9.83301 -2 13.5 -6s5.5 -8.33301 5.5 -13s-1.83301 -9 -5.5 -13s-8.16699 -6 -13.5 -6h-212v-754h212c5.33301 0 9.83301 -2 13.5 -6s5.5 -8.33301 5.5 -13s-1.83301 -9 -5.5 -13
s-8.16699 -6 -13.5 -6h-232c-6.66699 0 -12.667 2.66699 -18 8s-8 11.333 -8 18z" />
    <glyph glyph-name="backslash" unicode="\" horiz-adv-x="500" 
d="M506 -111c0 -6 -2 -11 -6 -15s-9 -6 -15 -6c-9.33301 0 -16.333 4.66699 -21 14l-452 886c-2 4 -3 8.33301 -3 13c0 6 2 11 6 15s9 6 15 6c9.33301 0 16.333 -4.66699 21 -14l452 -886c2 -4 3 -8.33301 3 -13z" />
    <glyph glyph-name="bracketright" unicode="]" horiz-adv-x="430" 
d="M332 674v-778c0 -6.66699 -2.66699 -12.667 -8 -18s-11.333 -8 -18 -8h-232c-5.33301 0 -9.83301 2 -13.5 6s-5.5 8.33301 -5.5 13s1.83301 9 5.5 13s8.16699 6 13.5 6h212v754h-212c-5.33301 0 -9.83301 2 -13.5 6s-5.5 8.33301 -5.5 13s1.83301 9 5.5 13
s8.16699 6 13.5 6h232c6.66699 0 12.667 -2.66699 18 -8s8 -11.333 8 -18z" />
    <glyph glyph-name="asciicircum" unicode="^" horiz-adv-x="500" 
d="M249 660l-119.999 -157c-6.66699 -9.33301 -18.334 -14 -35.001 -14c-9.33301 0 -14 3.66699 -14 11c0 4 1.66699 8.33301 5 13l133 176c10 12 19.333 18 28 18h8c8.66699 0 18 -6 28 -18l133 -176c3.33301 -4.66699 5 -9 5 -13c0 -7.33301 -5 -11 -15 -11
c-17.333 0 -29.333 4.66699 -36 14z" />
    <glyph glyph-name="underscore" unicode="_" horiz-adv-x="600" 
d="M-2 -160c-6 0 -11.167 2.16699 -15.5 6.5s-6.5 9.5 -6.5 15.5s2.16699 11.167 6.5 15.5s9.5 6.5 15.5 6.5h604c6 0 11.167 -2.16699 15.5 -6.5s6.5 -9.5 6.5 -15.5s-2.16699 -11.167 -6.5 -15.5s-9.5 -6.5 -15.5 -6.5h-604z" />
    <glyph glyph-name="grave" unicode="`" horiz-adv-x="500" 
d="M286 592c-12 0 -22.666 4.33301 -31.999 13l-80 77c-7.33301 7.33301 -11 13.333 -11 18c0 5.33301 4.66699 10.5 14 15.5s18.666 7.5 27.999 7.5c10.667 0 20 -6 28 -18l62 -93c2.66699 -4 4 -7.66699 4 -11c0 -6 -4.33301 -9 -13 -9z" />
    <glyph glyph-name="a" unicode="a" horiz-adv-x="574" 
d="M248 -12c-52 0 -97.8359 14.166 -137.503 42.499s-59.5 67.5 -59.5 117.5v2c0 52 20.333 92.667 61 122s94.667 44 162 44c57.333 0 113.666 -7.33301 168.999 -22v22c0 50.667 -14.667 89.334 -44 116.001s-70.666 40 -123.999 40
c-49.333 0 -97.666 -11.333 -144.999 -34c-4 -2 -7.66699 -3 -11 -3c-6 0 -11.333 2.33301 -16 7s-7 10 -7 16c0 10.667 4.66699 18 14 22c57.333 25.333 113.333 38 168 38c70 0 123.667 -18.667 161 -56c34.667 -34.667 52 -82.667 52 -144v-297
c0 -7.33301 -2.16699 -13.333 -6.5 -18s-10.166 -7 -17.499 -7s-13.166 2.33301 -17.499 7s-6.5 10.667 -6.5 18v64c-46 -64.667 -111 -97 -195 -97zM250.997 33.999c53.333 0 98.832 14.832 136.499 44.499s56.5 67.167 56.5 112.5v58c-60 15.333 -117.667 23 -173 23
c-53.333 0 -94.666 -10.833 -123.999 -32.5s-44 -50.5 -44 -86.5v-2c0 -35.333 14.5 -63.666 43.5 -84.999s63.833 -32 104.5 -32z" />
    <glyph glyph-name="b" unicode="b" 
d="M93 21l0.00195312 687.999c0 7.33301 2.16699 13.333 6.5 18s10.166 7 17.499 7s13.333 -2.33301 18 -7s7 -10.667 7 -18v-313c55.333 84 125.333 126 210 126c65.333 0 123 -24.333 173 -73s75 -112.667 75 -192v-2c0 -79.333 -25 -143.666 -75 -192.999
s-107.667 -74 -173 -74c-86.667 0 -156.667 40.667 -210 122v-89c0 -7.33301 -2.33301 -13.333 -7 -18s-10.334 -7 -17.001 -7s-12.5 2.33301 -17.5 7s-7.5 10.667 -7.5 18zM347.002 34.999c57.333 0 105 19.667 143 59s57 92.333 57 159v2
c0 65.333 -19.5 118.333 -58.5 159s-86.167 61 -141.5 61s-103.833 -20.833 -145.5 -62.5s-62.5 -93.834 -62.5 -156.501v-2c0 -63.333 20.833 -115.666 62.5 -156.999s90.167 -62 145.5 -62z" />
    <glyph glyph-name="c" unicode="c" horiz-adv-x="571" 
d="M318 -12c-72.667 0 -134.166 26.166 -184.499 78.499s-75.5 114.5 -75.5 186.5v2c0 72 25.333 134.5 76 187.5s112 79.5 184 79.5c70 0 134 -27 192 -81c4.66699 -4.66699 7 -10.667 7 -18s-2.5 -13.333 -7.5 -18s-10.833 -7 -17.5 -7c-7.33301 0 -13 2 -17 6
c-50.667 48 -103.334 72 -158.001 72c-58 0 -106.833 -21.167 -146.5 -63.5s-59.5 -94.166 -59.5 -155.499v-2c0 -61.333 20.333 -113.5 61 -156.5s90.334 -64.5 149.001 -64.5c58 0 111.333 24.333 160 73c5.33301 5.33301 10.666 8 15.999 8c6 0 11.5 -2.5 16.5 -7.5
s7.5 -10.5 7.5 -16.5s-2 -11 -6 -15c-57.333 -58.667 -123 -88 -197 -88z" />
    <glyph glyph-name="d" unicode="d" 
d="M567 709v-687.999c0 -7.33301 -2.16699 -13.333 -6.5 -18s-10.166 -7 -17.499 -7s-13.333 2.33301 -18 7s-7 10.667 -7 18v93c-55.333 -84 -125.333 -126 -210 -126c-65.333 0 -123 24.333 -173 73s-75 112.667 -75 192v2c0 79.333 25 143.666 75 192.999
s107.667 74 173 74c86.667 0 156.667 -40.667 210 -122v309c0 7.33301 2.16699 13.333 6.5 18s10.166 7 17.499 7s13.333 -2.33301 18 -7s7 -10.667 7 -18zM313 475.001c-57.333 0 -105 -19.667 -143 -59s-57 -92.333 -57 -159v-2c0 -65.333 19.5 -118.333 58.5 -159
s86.167 -61 141.5 -61s103.833 20.833 145.5 62.5s62.5 93.834 62.5 156.501v2c0 63.333 -20.833 115.666 -62.5 156.999s-90.167 62 -145.5 62z" />
    <glyph glyph-name="e" unicode="e" horiz-adv-x="584" 
d="M110 279l370.999 0.000976562c-4 56 -21.667 103 -53 141s-74.666 57 -129.999 57c-50 0 -92.667 -18.833 -128 -56.5s-55.333 -84.834 -60 -141.501zM506.999 71.001c-55.333 -55.333 -121.668 -83 -199.001 -83c-68.667 0 -127.5 25 -176.5 75s-73.5 113.667 -73.5 191
v2c0 74.667 23.167 137.667 69.5 189s103.833 77 172.5 77c70 0 126.5 -25.333 169.5 -76s64.5 -113.334 64.5 -188.001c0 -6 -2.5 -11.333 -7.5 -16s-10.5 -7 -16.5 -7h-400c4.66699 -61.333 26.167 -110.166 64.5 -146.499s83.5 -54.5 135.5 -54.5c62 0 117 23.333 165 70
c4.66699 4.66699 10 7 16 7c6.66699 0 12.334 -2.16699 17.001 -6.5s7 -9.83301 7 -16.5c0 -6 -2.66699 -11.667 -8 -17z" />
    <glyph glyph-name="f" unicode="f" horiz-adv-x="362" 
d="M123 21l-0.000976562 444h-55c-6.66699 0 -12.167 2.16699 -16.5 6.5s-6.5 9.83301 -6.5 16.5c0 6 2.33301 11.167 7 15.5s10 6.5 16 6.5h55v50c0 58.667 15 103 45 133c26.667 26.667 62.334 40 107.001 40c20.667 0 41 -2.33301 61 -7c12.667 -2 19 -9.66699 19 -23
c0 -7.33301 -2.83301 -13 -8.5 -17s-12.167 -5.33301 -19.5 -4c-21.333 4 -38.666 6 -51.999 6c-68.667 0 -103 -43 -103 -129v-49h159c6.66699 0 12.167 -2.16699 16.5 -6.5s6.5 -9.83301 6.5 -16.5c0 -6 -2.33301 -11.167 -7 -15.5s-10 -6.5 -16 -6.5h-159v-444
c0 -7.33301 -2.33301 -13.333 -7 -18s-10.334 -7 -17.001 -7s-12.5 2.33301 -17.5 7s-7.5 10.667 -7.5 18z" />
    <glyph glyph-name="g" unicode="g" 
d="M317 -162c-82 0 -156.334 23.334 -223.001 70.001c-7.33301 5.33301 -11 12.666 -11 21.999c0 5.33301 2.5 10.5 7.5 15.5s10.833 7.5 17.5 7.5c4 0 8.66699 -1.33301 14 -4c58.667 -43.333 124 -65 196 -65c60.667 0 109.167 17 145.5 51s54.5 83 54.5 147v74
c-54.667 -78.667 -125.667 -118 -213 -118c-64.667 0 -121.667 22.5 -171 67.5s-74 102.5 -74 172.5v2c0 70.667 24.667 128.667 74 174s106.333 68 171 68c88.667 0 159.667 -38 213 -114v81c0 7.33301 2.33301 13.333 7 18s10.334 7 17.001 7s12.5 -2.33301 17.5 -7
s7.5 -10.667 7.5 -18v-410c0 -72 -21.667 -129.667 -65 -173c-45.333 -45.333 -107 -68 -185 -68zM309.999 85.001c55.333 0 104.333 18.333 147 55s64 83 64 139v2c0 56.667 -21.167 103.167 -63.5 139.5s-91.5 54.5 -147.5 54.5c-55.333 0 -102 -17.667 -140 -53
s-57 -82 -57 -140v-2c0 -56 19.333 -102.5 58 -139.5s85 -55.5 139 -55.5z" />
    <glyph glyph-name="h" unicode="h" horiz-adv-x="613" 
d="M93 21v688.001c0 7.33301 2.33301 13.333 7 18s10.334 7 17.001 7c7.33301 0 13.333 -2.33301 18 -7s7 -10.667 7 -18v-294c40.667 71.333 102 107 184 107c63.333 0 113.166 -19.5 149.499 -58.5s54.5 -89.5 54.5 -151.5v-291c0 -7.33301 -2.16699 -13.333 -6.5 -18
s-10.166 -7 -17.499 -7s-13.333 2.33301 -18 7s-7 10.667 -7 18v282c0 53.333 -14.333 95.666 -43 126.999s-68.334 47 -119.001 47s-92.834 -17.167 -126.501 -51.5s-50.5 -77.833 -50.5 -130.5v-274c0 -7.33301 -2.16699 -13.333 -6.5 -18s-10.166 -7 -17.499 -7
s-13.333 2.33301 -18 7s-7 10.667 -7 18z" />
    <glyph glyph-name="i" unicode="i" horiz-adv-x="249" 
d="M94 668v17c0 8.66699 2.83301 15.834 8.5 21.501s12.834 8.5 21.501 8.5s16 -2.83301 22 -8.5s9 -12.834 9 -21.501v-17c0 -8.66699 -3 -15.834 -9 -21.501s-13.333 -8.5 -22 -8.5s-15.834 2.83301 -21.501 8.5s-8.5 12.834 -8.5 21.501zM100 21l-0.00195312 468
c0 7.33301 2.33301 13.333 7 18s10.334 7 17.001 7c7.33301 0 13.333 -2.33301 18 -7s7 -10.667 7 -18v-468c0 -7.33301 -2.16699 -13.333 -6.5 -18s-10.166 -7 -17.499 -7s-13.333 2.33301 -18 7s-7 10.667 -7 18z" />
    <glyph glyph-name="j" unicode="j" horiz-adv-x="249" 
d="M94 668v17c0 8.66699 2.83301 15.834 8.5 21.501s12.834 8.5 21.501 8.5s16 -2.83301 22 -8.5s9 -12.834 9 -21.501v-17c0 -8.66699 -3 -15.834 -9 -21.501s-13.333 -8.5 -22 -8.5s-15.834 2.83301 -21.501 8.5s-8.5 12.834 -8.5 21.501zM40 -163
c-11.333 0 -19.334 0.333008 -24.001 1c-14 2.66699 -21 10 -21 22c0 6 2.16699 11.167 6.5 15.5s9.5 6.5 15.5 6.5c2.66699 0 6.5 -0.166992 11.5 -0.5s8.5 -0.5 10.5 -0.5c18.667 0 33.5 6 44.5 18s16.5 29.667 16.5 53v537c0 7.33301 2.33301 13.333 7 18
s10.334 7 17.001 7c7.33301 0 13.333 -2.33301 18 -7s7 -10.667 7 -18v-534c0 -38.667 -9.66699 -68 -29 -88s-46 -30 -80 -30z" />
    <glyph glyph-name="k" unicode="k" horiz-adv-x="560" 
d="M93 21l-0.00292969 688c0 7.33301 2.33301 13.333 7 18s10.334 7 17.001 7c7.33301 0 13.333 -2.33301 18 -7s7 -10.667 7 -18v-526l313 324c4.66699 4.66699 10.334 7 17.001 7s12.167 -2.16699 16.5 -6.5s6.5 -9.83301 6.5 -16.5c0 -6 -2.66699 -11.667 -8 -17
l-187 -190l200 -247c4.66699 -5.33301 7 -11.333 7 -18c0 -15.333 -8 -23 -24 -23c-7.33301 0 -14.333 3.66699 -21 11l-196 242l-124 -125v-103c0 -7.33301 -2.16699 -13.333 -6.5 -18s-10.166 -7 -17.499 -7s-13.333 2.33301 -18 7s-7 10.667 -7 18z" />
    <glyph glyph-name="l" unicode="l" horiz-adv-x="249" 
d="M100 21l-0.00195312 688c0 7.33301 2.33301 13.333 7 18s10.334 7 17.001 7s12.5 -2.33301 17.5 -7s7.5 -10.667 7.5 -18v-688c0 -7.33301 -2.16699 -13.333 -6.5 -18s-10.166 -7 -17.499 -7s-13.333 2.33301 -18 7s-7 10.667 -7 18z" />
    <glyph glyph-name="m" unicode="m" horiz-adv-x="951" 
d="M93 21l-0.00390625 467.999c0 7.33301 2.33301 13.333 7 18s10.334 7 17.001 7c7.33301 0 13.333 -2.33301 18 -7s7 -10.667 7 -18v-70c20 32 43 57.167 69 75.5s59.667 27.5 101 27.5c80 0 137.333 -36.667 172 -110c42.667 73.333 104 110 184 110
c60 0 107.667 -19.333 143 -58s53 -90.334 53 -155.001v-288c0 -7.33301 -2.16699 -13.333 -6.5 -18s-10.166 -7 -17.499 -7s-13.333 2.33301 -18 7s-7 10.667 -7 18v282c0 54.667 -13.333 97.334 -40 128.001s-63.667 46 -111 46c-44.667 0 -82.667 -16.333 -114 -49
s-47 -76.334 -47 -131.001v-276c0 -7.33301 -2.16699 -13.333 -6.5 -18s-10.166 -7 -17.499 -7s-13.333 2.33301 -18 7s-7 10.667 -7 18v285c0 52.667 -13.5 94.334 -40.5 125.001s-63.167 46 -108.5 46s-83.833 -17.667 -115.5 -53s-47.5 -78.666 -47.5 -129.999v-273
c0 -7.33301 -2.16699 -13.333 -6.5 -18s-10.166 -7 -17.499 -7s-13.333 2.33301 -18 7s-7 10.667 -7 18z" />
    <glyph glyph-name="n" unicode="n" horiz-adv-x="613" 
d="M93 21v468.001c0 7.33301 2.33301 13.333 7 18s10.334 7 17.001 7c7.33301 0 13.333 -2.33301 18 -7s7 -10.667 7 -18v-74c40.667 71.333 102 107 184 107c63.333 0 113.166 -19.5 149.499 -58.5s54.5 -89.5 54.5 -151.5v-291c0 -7.33301 -2.16699 -13.333 -6.5 -18
s-10.166 -7 -17.499 -7s-13.333 2.33301 -18 7s-7 10.667 -7 18v282c0 53.333 -14.333 95.666 -43 126.999s-68.334 47 -119.001 47s-92.834 -17.167 -126.501 -51.5s-50.5 -77.833 -50.5 -130.5v-274c0 -7.33301 -2.16699 -13.333 -6.5 -18s-10.166 -7 -17.499 -7
s-13.333 2.33301 -18 7s-7 10.667 -7 18z" />
    <glyph glyph-name="o" unicode="o" horiz-adv-x="640" 
d="M319 -12c-74.667 0 -136.834 26 -186.501 78s-74.5 114.333 -74.5 187v2c0 72.667 25.167 135.334 75.5 188.001s112.833 79 187.5 79s136.834 -26 186.501 -78s74.5 -114.333 74.5 -187v-2c0 -72.667 -25.167 -135.334 -75.5 -188.001s-112.833 -79 -187.5 -79zM321 34
c60 0 109.667 21.333 149 64s59 94.334 59 155.001v2c0 61.333 -20.333 113.5 -61 156.5s-90.334 64.5 -149.001 64.5c-60 0 -109.667 -21.333 -149 -64s-59 -94.334 -59 -155.001v-2c0 -61.333 20.333 -113.5 61 -156.5s90.334 -64.5 149.001 -64.5z" />
    <glyph glyph-name="p" unicode="p" 
d="M93 -139v627.999c0 7.33301 2.16699 13.333 6.5 18s10.166 7 17.499 7s13.333 -2.33301 18 -7s7 -10.667 7 -18v-93c55.333 84 125.333 126 210 126c65.333 0 123 -24.333 173 -73s75 -112.667 75 -192v-2c0 -79.333 -25 -143.666 -75 -192.999s-107.667 -74 -173 -74
c-86.667 0 -156.667 40.667 -210 122v-249c0 -7.33301 -2.16699 -13.333 -6.5 -18s-10.166 -7 -17.499 -7s-13.333 2.33301 -18 7s-7 10.667 -7 18zM347 34.999c57.333 0 105 19.667 143 59s57 92.333 57 159v2c0 65.333 -19.5 118.333 -58.5 159s-86.167 61 -141.5 61
s-103.833 -20.833 -145.5 -62.5s-62.5 -93.834 -62.5 -156.501v-2c0 -63.333 20.833 -115.666 62.5 -156.999s90.167 -62 145.5 -62z" />
    <glyph glyph-name="q" unicode="q" 
d="M567 489l-0.00195312 -627.999c0 -7.33301 -2.16699 -13.333 -6.5 -18s-10.166 -7 -17.499 -7s-13.333 2.33301 -18 7s-7 10.667 -7 18v253c-55.333 -84 -125.333 -126 -210 -126c-65.333 0 -123 24.333 -173 73s-75 112.667 -75 192v2c0 79.333 25 143.666 75 192.999
s107.667 74 173 74c86.667 0 156.667 -40.667 210 -122v89c0 7.33301 2.33301 13.333 7 18s10.334 7 17.001 7s12.5 -2.33301 17.5 -7s7.5 -10.667 7.5 -18zM312.998 475.001c-57.333 0 -105 -19.667 -143 -59s-57 -92.333 -57 -159v-2c0 -65.333 19.5 -118.333 58.5 -159
s86.167 -61 141.5 -61s103.833 20.833 145.5 62.5s62.5 93.834 62.5 156.501v2c0 63.333 -20.833 115.666 -62.5 156.999s-90.167 62 -145.5 62z" />
    <glyph glyph-name="r" unicode="r" horiz-adv-x="400" 
d="M93 21v468c0 7.33301 2.33301 13.333 7 18s10.334 7 17.001 7c7.33301 0 13.333 -2.33301 18 -7s7 -10.667 7 -18v-124c21.333 47.333 51.333 84.666 90 111.999s77 41 115 41c7.33301 0 13.5 -2.66699 18.5 -8s7.5 -11.666 7.5 -18.999
c0 -16.667 -8.66699 -25.667 -26 -27c-58.667 -5.33301 -107.5 -29.833 -146.5 -73.5s-58.5 -104.167 -58.5 -181.5v-188c0 -7.33301 -2.33301 -13.333 -7 -18s-10.334 -7 -17.001 -7c-7.33301 0 -13.333 2.33301 -18 7s-7 10.667 -7 18z" />
    <glyph glyph-name="s" unicode="s" horiz-adv-x="497" 
d="M258 -10c-34 0 -68.8311 5.99805 -104.498 17.998s-66.834 28 -93.501 48c-6 4.66699 -9 11 -9 19c0 6.66699 2.33301 12.334 7 17.001s10.334 7 17.001 7c6 0 11.333 -1.66699 16 -5c54 -38.667 110.667 -58 170 -58c35.333 0 64.666 9 87.999 27s35 41.333 35 70v2
c0 11.333 -2.5 21.833 -7.5 31.5s-11.333 17.834 -19 24.501s-18 13 -31 19s-25 10.833 -36 14.5s-24.833 7.83398 -41.5 12.501c-23.333 6.66699 -40.333 11.667 -51 15s-25.667 9.33301 -45 18s-33.5 17.167 -42.5 25.5s-17.333 19.666 -25 33.999
s-11.5 30.166 -11.5 47.499v2c0 41.333 15.667 75.166 47 101.499s71.666 39.5 120.999 39.5c56 0 111 -15.333 165 -46c8.66699 -6 13 -13.333 13 -22c0 -6.66699 -2.33301 -12.334 -7 -17.001s-10.334 -7 -17.001 -7c-5.33301 0 -10 1.33301 -14 4
c-47.333 28 -94.666 42 -141.999 42c-34.667 0 -62.667 -8.33301 -84 -25s-32 -38 -32 -64v-2c0 -10.667 2.83301 -20.667 8.5 -30s12.334 -17 20.001 -23s18.667 -12.167 33 -18.5s26.666 -11.166 36.999 -14.499s24.833 -7.66602 43.5 -12.999
c25.333 -7.33301 46 -14 62 -20s33.167 -14.5 51.5 -25.5s32 -24.667 41 -41s13.5 -35.166 13.5 -56.499v-2c0 -44.667 -16.833 -80.667 -50.5 -108s-75.5 -41 -125.5 -41z" />
    <glyph glyph-name="t" unicode="t" horiz-adv-x="400" 
d="M263 -9c-42 0 -76.334 11.833 -103.001 35.5s-40 58.5 -40 104.5v334h-55c-6 0 -11.333 2.33301 -16 7s-7 10 -7 16s2.33301 11.167 7 15.5s10 6.5 16 6.5h55v142c0 7.33301 2.33301 13.333 7 18s10.334 7 17.001 7s12.5 -2.5 17.5 -7.5s7.5 -10.833 7.5 -17.5v-142h160
c6 0 11.333 -2.33301 16 -7s7 -10 7 -16s-2.33301 -11.167 -7 -15.5s-10 -6.5 -16 -6.5h-160v-329c0 -66 34 -99 102 -99c14 0 27 1.66699 39 5l19 5c5.33301 0 10.333 -2.16699 15 -6.5s7 -9.5 7 -15.5c0 -10 -5.33301 -17 -16 -21c-24.667 -8.66699 -48.667 -13 -72 -13z
" />
    <glyph glyph-name="u" unicode="u" horiz-adv-x="613" 
d="M520 489v-468.001c0 -7.33301 -2.33301 -13.333 -7 -18s-10.334 -7 -17.001 -7c-7.33301 0 -13.333 2.33301 -18 7s-7 10.667 -7 18v74c-40.667 -71.333 -102 -107 -184 -107c-63.333 0 -113.166 19.5 -149.499 58.5s-54.5 89.5 -54.5 151.5v291
c0 7.33301 2.16699 13.333 6.5 18s10.166 7 17.499 7s13.333 -2.33301 18 -7s7 -10.667 7 -18v-282c0 -53.333 14.333 -95.666 43 -126.999s68.334 -47 119.001 -47s92.834 17.167 126.501 51.5s50.5 77.833 50.5 130.5v274c0 7.33301 2.16699 13.333 6.5 18
s10.166 7 17.499 7s13.333 -2.33301 18 -7s7 -10.667 7 -18z" />
    <glyph glyph-name="v" unicode="v" horiz-adv-x="582" 
d="M320 14c-6.66699 -14 -16 -21.001 -28 -21.001h-2c-12 0 -21.333 7 -28 21l-205 460c-2.66699 6.66699 -4 11.667 -4 15c0 7.33301 2.5 13.333 7.5 18s11.167 7 18.5 7c11.333 0 20 -6.66699 26 -20l186 -439l189 441c4.66699 12 12.667 18 24 18
c6.66699 0 12.5 -2.33301 17.5 -7s7.5 -10.667 7.5 -18c0 -3.33301 -1 -7.66602 -3 -12.999z" />
    <glyph glyph-name="w" unicode="w" horiz-adv-x="861" 
d="M256 -7c-12.667 0 -21.668 7.33301 -27.001 22l-167 459c-2.66699 6.66699 -4 12 -4 16c0 6.66699 2.5 12.334 7.5 17.001s11.167 7 18.5 7c12.667 0 21.334 -7 26.001 -21l148 -431l148 433c4.66699 12.667 12.667 19 24 19h2c12 0 20.333 -6.33301 25 -19l148 -433
l149 433c4 12.667 12 19 24 19c6.66699 0 12.5 -2.33301 17.5 -7s7.5 -10 7.5 -16c0 -4.66699 -1.33301 -10.334 -4 -17.001l-167 -459c-5.33301 -14.667 -14.333 -22 -27 -22h-2c-12.667 0 -21.667 7.66699 -27 23l-145 417l-146 -417
c-5.33301 -15.333 -14.333 -23 -27 -23h-2z" />
    <glyph glyph-name="x" unicode="x" horiz-adv-x="570" 
d="M67 19c0 6 2 11.333 6 16l181 225l-172 214c-4.66699 6 -7 11.667 -7 17c0 6.66699 2.33301 12.167 7 16.5s10.334 6.5 17.001 6.5c8 0 14.667 -3.33301 20 -10l167 -210l166 208c6.66699 8 13.667 12 21 12c6 0 11.167 -2.33301 15.5 -7s6.5 -10 6.5 -16
s-2 -11.333 -6 -16l-173 -214l180 -225c4.66699 -6 7 -11.667 7 -17c0 -6.66699 -2.33301 -12.167 -7 -16.5s-10.334 -6.5 -17.001 -6.5c-8 0 -14.667 3.33301 -20 10l-175 221l-174 -219c-6.66699 -8 -13.667 -12 -21 -12c-6 0 -11.167 2.33301 -15.5 7s-6.5 10 -6.5 16z
" />
    <glyph glyph-name="y" unicode="y" horiz-adv-x="588" 
d="M155 -163c-29.333 0 -58.333 5.33203 -87 15.999c-9.33301 3.33301 -14 10.333 -14 21c0 6.66699 2.16699 12.167 6.5 16.5s9.83301 6.5 16.5 6.5c2.66699 0 8 -1.33301 16 -4c18 -6.66699 39.667 -10 65 -10c27.333 0 50.333 9 69 27s36.667 46.667 54 86l3 7l-228 471
c-2.66699 6.66699 -4 11.667 -4 15c0 7.33301 2.5 13.333 7.5 18s11.167 7 18.5 7c11.333 0 20 -6.66699 26 -20l204 -440l178 442c4.66699 12 12.667 18 24 18c6.66699 0 12.5 -2.33301 17.5 -7s7.5 -10.667 7.5 -18c0 -3.33301 -1 -7.66602 -3 -12.999l-207 -494
c-22 -52 -46.5 -89.167 -73.5 -111.5s-59.167 -33.5 -96.5 -33.5z" />
    <glyph glyph-name="z" unicode="z" horiz-adv-x="554" 
d="M84 0c-6 0 -11.333 2 -16 6s-7 8.66699 -7 14v1c0 7.33301 3 14.333 9 21l356 424h-336c-6 0 -11.167 2.16699 -15.5 6.5s-6.5 9.5 -6.5 15.5s2.16699 11.167 6.5 15.5s9.5 6.5 15.5 6.5h383c6 0 11.333 -2 16 -6s7 -8.66699 7 -14v-1c0 -7.33301 -3 -14.333 -9 -21
l-356 -424h350c6 0 11.167 -2.16699 15.5 -6.5s6.5 -9.5 6.5 -15.5s-2.16699 -11.167 -6.5 -15.5s-9.5 -6.5 -15.5 -6.5h-397z" />
    <glyph glyph-name="braceleft" unicode="{" horiz-adv-x="480" 
d="M406 -139c-79.333 16 -132.666 39.5 -159.999 70.5s-41 74.5 -41 130.5v79c0 42.667 -8.83301 74.5 -26.5 95.5s-50.834 31.5 -99.501 31.5c-16 0 -24 6.33301 -24 19s8 19 24 19c48.667 0 81.834 10.5 99.501 31.5s26.5 52.833 26.5 95.5v79c0 56 13.667 99.5 41 130.5
s80.666 54.5 159.999 70.5c6 1.33301 11 0.5 15 -2.5s6 -7.5 6 -13.5c0 -8 -4 -13.333 -12 -16c-69.333 -18 -113.5 -38.5 -132.5 -61.5s-28.5 -60.833 -28.5 -113.5v-75c0 -42 -8.83301 -74 -26.5 -96s-43.5 -38 -77.5 -48c36 -12 62.333 -28.5 79 -49.5s25 -52.5 25 -94.5
v-75c0 -52.667 9.5 -90.5 28.5 -113.5s63.167 -43.5 132.5 -61.5c8 -2.66699 12 -8 12 -16c0 -6 -2 -10.5 -6 -13.5s-9 -3.83301 -15 -2.5z" />
    <glyph glyph-name="bar" unicode="|" horiz-adv-x="286" 
d="M121 -110v890c0 6 2.16699 11.167 6.5 15.5s9.5 6.5 15.5 6.5s11.167 -2.16699 15.5 -6.5s6.5 -9.5 6.5 -15.5v-890c0 -6 -2.16699 -11.167 -6.5 -15.5s-9.5 -6.5 -15.5 -6.5s-11.167 2.16699 -15.5 6.5s-6.5 9.5 -6.5 15.5z" />
    <glyph glyph-name="braceright" unicode="}" horiz-adv-x="480" 
d="M74 713c79.333 -16 132.666 -39.5 159.999 -70.5s41 -74.5 41 -130.5v-79c0 -42.667 8.83301 -74.5 26.5 -95.5s50.834 -31.5 99.501 -31.5c16 0 24 -6.33301 24 -19s-8 -19 -24 -19c-48.667 0 -81.834 -10.5 -99.501 -31.5s-26.5 -52.833 -26.5 -95.5v-79
c0 -56 -13.667 -99.5 -41 -130.5s-80.666 -54.5 -159.999 -70.5c-6 -1.33301 -11 -0.5 -15 2.5s-6 7.5 -6 13.5c0 8 4 13.333 12 16c69.333 18 113.5 38.5 132.5 61.5s28.5 60.833 28.5 113.5v75c0 42 8.83301 74 26.5 96s43.5 38 77.5 48c-36 12 -62.333 28.5 -79 49.5
s-25 52.5 -25 94.5v75c0 52.667 -9.5 90.5 -28.5 113.5s-63.167 43.5 -132.5 61.5c-8 2.66699 -12 8 -12 16c0 6 2 10.5 6 13.5s9 3.83301 15 2.5z" />
    <glyph glyph-name="asciitilde" unicode="~" horiz-adv-x="460" 
d="M121 254c-4.66699 -9.33301 -10.6699 -14 -18.0029 -14c-12 0 -18 5.66699 -18 17c0 4 0.666992 8 2 12c9.33301 28 20.166 47.5 32.499 58.5s27.833 16.5 46.5 16.5c13.333 0 35.333 -6.83301 66 -20.5s51.334 -20.5 62.001 -20.5s19.334 2.83301 26.001 8.5
s13 15.5 19 29.5c4.66699 9.33301 10.667 14 18 14c12 0 18 -5.66699 18 -17c0 -4 -0.666992 -8 -2 -12c-9.33301 -28 -20.166 -47.5 -32.499 -58.5s-27.833 -16.5 -46.5 -16.5c-13.333 0 -35.166 6.83301 -65.499 20.5s-51.166 20.5 -62.499 20.5
c-10.667 0 -19.334 -2.83301 -26.001 -8.5s-13 -15.5 -19 -29.5z" />
    <glyph glyph-name="uni00A0" unicode="&#xa0;" horiz-adv-x="300" 
 />
    <glyph glyph-name="exclamdown" unicode="&#xa1;" horiz-adv-x="252" 
d="M141 505l16 -483c0 -6.66699 -2.5 -12.5 -7.5 -17.5s-10.833 -7.5 -17.5 -7.5h-12c-6.66699 0 -12.5 2.5 -17.5 7.5s-7.5 10.833 -7.5 17.5l16 483c0 4 1.5 7.5 4.5 10.5s6.5 4.5 10.5 4.5s7.5 -1.5 10.5 -4.5s4.5 -6.5 4.5 -10.5zM159 644
c0 -9.33301 -3.16699 -17.166 -9.5 -23.499s-14.166 -9.5 -23.499 -9.5s-17.166 3.16699 -23.499 9.5s-9.5 14.166 -9.5 23.499v27c0 9.33301 3.16699 17.166 9.5 23.499s14.166 9.5 23.499 9.5s17.166 -3.16699 23.499 -9.5s9.5 -14.166 9.5 -23.499v-27z" />
    <glyph glyph-name="cent" unicode="&#xa2;" horiz-adv-x="581" 
d="M219 21l17 82c-52 18 -94 50 -126 96s-48 97.333 -48 154v2c0 72 25.333 134.5 76 187.5s112 79.5 184 79.5h15l13 68c2.66699 13.333 10.667 20 24 20c8 0 14.5 -3 19.5 -9s6.5 -13.333 4.5 -22l-13 -64c44 -10.667 87 -35.667 129 -75c6 -6 9 -12.667 9 -20
s-2.33301 -13.333 -7 -18s-10.334 -7 -17.001 -7c-7.33301 0 -13.666 2.66699 -18.999 8c-36 35.333 -71.667 57.333 -107 66l-84 -432c12 -2 24 -3 36 -3c58 0 111.333 24.333 160 73c6 6 12.333 9 19 9c6 0 11.167 -2.33301 15.5 -7s6.5 -10 6.5 -16
s-2.33301 -11.333 -7 -16c-56 -59.333 -121.667 -89 -197 -89c-17.333 0 -30.333 0.666992 -39 2l-16 -80c-2.66699 -13.333 -10.667 -20 -24 -20c-8 0 -14.5 3 -19.5 9s-6.5 13.333 -4.5 22zM115 355c0 -46.667 12.333 -88.668 37 -126.001s56.667 -64 96 -80l82 427h-9
c-58 0 -106.833 -21.167 -146.5 -63.5s-59.5 -94.166 -59.5 -155.499v-2z" />
    <glyph glyph-name="sterling" unicode="&#xa3;" horiz-adv-x="644" 
d="M66 13c0 7.33301 4.00195 12.002 12.002 14.002l78 18v260h-66c-6.66699 0 -12.334 2.33301 -17.001 7s-7 10.334 -7 17.001s2.33301 12.334 7 17.001s10.334 7 17.001 7h66v118c0 77.333 21.667 137.666 65 180.999c38.667 38.667 88.667 58 150 58
c80.667 0 147.334 -31 200.001 -93c4.66699 -6 7 -12.333 7 -19s-2.33301 -12.334 -7 -17.001s-10.667 -7 -18 -7s-14 3 -20 9c-22.667 26 -46.334 45.833 -71.001 59.5s-55.334 20.5 -92.001 20.5c-46.667 0 -84.334 -14.333 -113.001 -43
c-33.333 -33.333 -50 -82.666 -50 -147.999v-119h278c6.66699 0 12.334 -2.33301 17.001 -7s7 -10.334 7 -17.001s-2.33301 -12.334 -7 -17.001s-10.334 -7 -17.001 -7h-278v-258h354c6.66699 0 12.334 -2.33301 17.001 -7s7 -10.334 7 -17.001s-2.33301 -12.167 -7 -16.5
s-10.334 -6.5 -17.001 -6.5h-482c-8.66699 -0 -13 4.33301 -13 13z" />
    <glyph glyph-name="yen" unicode="&#xa5;" horiz-adv-x="686" 
d="M368 268v-98h194c6 0 11.333 -2.16699 16 -6.5s7 -9.83301 7 -16.5c0 -6 -2.33301 -11.167 -7 -15.5s-10 -6.5 -16 -6.5h-194v-104c0 -7.33301 -2.33301 -13.333 -7 -18s-10.667 -7 -18 -7s-13.333 2.33301 -18 7s-7 10.667 -7 18v104h-194c-6 0 -11.333 2.16699 -16 6.5
s-7 9.5 -7 15.5c0 6.66699 2.33301 12.167 7 16.5s10 6.5 16 6.5h194v98h-194c-6 0 -11.333 2.16699 -16 6.5s-7 9.5 -7 15.5s2.33301 11.333 7 16s10 7 16 7h176l-241 348c-4 6 -6 12 -6 18c0 6.66699 2.5 12.5 7.5 17.5s11.167 7.5 18.5 7.5
c8.66699 0 16.667 -5.33301 24 -16l241 -361l243 363c6 9.33301 14 14 24 14c6.66699 0 12.167 -2.33301 16.5 -7s6.5 -10.334 6.5 -17.001c0 -5.33301 -2.33301 -11.666 -7 -18.999l-242 -348h177c6 0 11.333 -2.33301 16 -7s7 -10 7 -16s-2.33301 -11.167 -7 -15.5
s-10 -6.5 -16 -6.5h-194z" />
    <glyph glyph-name="section" unicode="&#xa7;" horiz-adv-x="632" 
d="M329 -10c-82 0 -153.333 27.333 -214 82c-6 6 -9 12.667 -9 20s2.66699 13.5 8 18.5s11.666 7.5 18.999 7.5c6 0 12.667 -3 20 -9c50 -46.667 110.333 -70 181 -70c38 0 66.833 7.16699 86.5 21.5s29.5 32.833 29.5 55.5v2c0 22 -13.667 41.167 -41 57.5
s-74.666 32.5 -141.999 48.5c-74 18 -126.167 37.5 -156.5 58.5s-45.5 47.833 -45.5 80.5v2c0 29.333 13.333 54.166 40 74.499s62.667 33.166 108 38.499c-57.333 25.333 -86 60.333 -86 105v2c0 37.333 16.167 67.5 48.5 90.5s74.833 34.5 127.5 34.5
c82 0 153.333 -27.333 214 -82c6 -6 9 -12.667 9 -20s-2.66699 -13.5 -8 -18.5s-11.666 -7.5 -18.999 -7.5c-6 0 -12.667 3 -20 9c-50 46.667 -110.333 70 -181 70c-38 0 -66.833 -7.16699 -86.5 -21.5s-29.5 -32.833 -29.5 -55.5v-2c0 -22 13.667 -41.167 41 -57.5
s74.666 -32.5 141.999 -48.5c74 -18 126.167 -37.5 156.5 -58.5s45.5 -47.833 45.5 -80.5v-2c0 -29.333 -13.333 -54.166 -40 -74.499s-62.667 -33.166 -108 -38.499c57.333 -25.333 86 -60.333 86 -105v-2c0 -37.333 -16.167 -67.5 -48.5 -90.5s-74.833 -34.5 -127.5 -34.5
zM386 253c38 0 69 7.83301 93 23.5s36 33.834 36 54.501v2c0 19.333 -11.5 36.833 -34.5 52.5s-63.833 30.834 -122.5 45.501c-42.667 10.667 -80 16 -112 16c-38 0 -69 -7.83301 -93 -23.5s-36 -33.834 -36 -54.501v-2c0 -19.333 11.5 -36.833 34.5 -52.5
s63.833 -30.834 122.5 -45.501c42 -10.667 79.333 -16 112 -16z" />
    <glyph glyph-name="dieresis" unicode="&#xa8;" horiz-adv-x="500" 
d="M332 679c10 0 18.333 -3.16699 25 -9.5s10 -14.5 10 -24.5v-20c0 -10 -3.33301 -18.167 -10 -24.5s-15 -9.5 -25 -9.5s-18.333 3.16699 -25 9.5s-10 14.5 -10 24.5v20c0 10 3.33301 18.167 10 24.5s15 9.5 25 9.5zM168 679c10 0 18.333 -3.16699 25 -9.5
s10 -14.5 10 -24.5v-20c0 -10 -3.33301 -18.167 -10 -24.5s-15 -9.5 -25 -9.5s-18.333 3.16699 -25 9.5s-10 14.5 -10 24.5v20c0 10 3.33301 18.167 10 24.5s15 9.5 25 9.5z" />
    <glyph glyph-name="copyright" unicode="&#xa9;" horiz-adv-x="830" 
d="M414 -12c-100.667 0 -186 35.167 -256 105.5s-105 155.166 -105 254.499v2c0 99.333 35.333 184.5 106 255.5s156.334 106.5 257.001 106.5s186 -35.167 256 -105.5s105 -155.166 105 -254.499v-2c0 -99.333 -35.333 -184.5 -106 -255.5s-156.334 -106.5 -257.001 -106.5
zM414 16c94 0 173 32.5 237 97.5s96 143.833 96 236.5v2c0 92 -31.667 170.333 -95 235s-142 97 -236 97s-173 -32.5 -237 -97.5s-96 -143.833 -96 -236.5v-2c0 -92 31.667 -170.333 95 -235s142 -97 236 -97zM419 166c-51.333 0 -94.499 18.334 -129.499 55.001
s-52.5 81 -52.5 133v2c0 51.333 17.667 95.666 53 132.999s78.666 56 129.999 56c48 0 91 -16.667 129 -50c6 -4.66699 9 -10.667 9 -18c0 -6 -2.16699 -11 -6.5 -15s-9.5 -6 -15.5 -6c-4.66699 0 -10 2.33301 -16 7c-32.667 28 -66.334 42 -101.001 42
c-39.333 0 -72.166 -14.5 -98.499 -43.5s-39.5 -63.833 -39.5 -104.5v-2c0 -40.667 13.5 -75.667 40.5 -105s59.833 -44 98.5 -44c38 0 73.333 14.667 106 44c5.33301 3.33301 10 5 14 5c5.33301 0 10 -2 14 -6s6 -8.66699 6 -14c0 -6.66699 -2.33301 -11.667 -7 -15
c-41.333 -36 -86 -54 -134 -54z" />
    <glyph glyph-name="ordfeminine" unicode="&#xaa;" horiz-adv-x="390" 
d="M174 411c-28.667 0 -54 8.00098 -76 24.001s-33 38 -33 66v2c0 28.667 11.333 51.334 34 68.001s52.667 25 90 25c27.333 0 55 -3.66699 83 -11v5c0 25.333 -7.33301 44.5 -22 57.5s-35 19.5 -61 19.5c-23.333 0 -48.333 -6 -75 -18c-4 -2 -7.66699 -3 -11 -3
c-4.66699 0 -8.83398 1.66699 -12.501 5s-5.5 7.66602 -5.5 12.999c0 8 4 13.667 12 17c32.667 14.667 64 22 94 22c38.667 0 68.667 -10.667 90 -32c18.667 -18.667 28 -45.334 28 -80.001v-160c0 -4.66699 -1.83301 -8.83398 -5.5 -12.501s-8.16699 -5.5 -13.5 -5.5
s-9.66602 1.83301 -12.999 5.5s-5 7.83398 -5 12.501v27c-24 -31.333 -56.667 -47 -98 -47zM176 447.001c26 0 48.5 7.16797 67.5 21.501s28.5 32.833 28.5 55.5v27c-24 7.33301 -52.333 11 -85 11c-25.333 0 -45.333 -5.33301 -60 -16s-22 -24.334 -22 -41.001v-2
c0 -17.333 6.83301 -31 20.5 -41s30.5 -15 50.5 -15zM78 293.002c-5.33301 0 -10 2 -14 6s-6 8.66699 -6 14s2 10 6 14s8.66699 6 14 6h220c5.33301 0 10 -2 14 -6s6 -8.66699 6 -14s-2 -10 -6 -14s-8.66699 -6 -14 -6h-220z" />
    <glyph glyph-name="guillemotleft" unicode="&#xab;" horiz-adv-x="515" 
d="M425 43c-7.33301 0 -13.667 3.66797 -19 11.001l-137 179c-6.66699 8.66699 -10 16 -10 22s3.33301 13.333 10 22l137 179c5.33301 7.33301 11.666 11 18.999 11c6 0 11.167 -2 15.5 -6s6.5 -9 6.5 -15c0 -6.66699 -2 -12.334 -6 -17.001l-126 -173l126 -175
c4 -6 6 -11.667 6 -17c-1.33301 -14 -8.66602 -21 -21.999 -21zM220.999 43.001c-7.33301 0 -13.666 3.66797 -18.999 11.001l-137 179c-6.66699 8.66699 -10 16 -10 22s3.33301 13.333 10 22l137 179c5.33301 7.33301 11.666 11 18.999 11c6 0 11.167 -2 15.5 -6
s6.5 -9 6.5 -15c0 -6.66699 -2 -12.334 -6 -17.001l-126 -173l126 -175c4 -5.33301 6 -11 6 -17s-2.16699 -11 -6.5 -15s-9.5 -6 -15.5 -6z" />
    <glyph glyph-name="registered" unicode="&#xae;" horiz-adv-x="416" 
d="M208 360c-48.667 0 -89.834 17 -123.501 51s-50.5 75 -50.5 123v1c0 48 17 89.167 51 123.5s75 51.5 123 51.5c48.667 0 89.834 -17 123.501 -51s50.5 -75 50.5 -123v-1c0 -48 -17 -89.167 -51 -123.5s-75 -51.5 -123 -51.5zM208 379c43.333 0 79.833 15.333 109.5 46
s44.5 67.334 44.5 110.001v1c0 42.667 -14.833 79.167 -44.5 109.5s-66.167 45.5 -109.5 45.5s-79.833 -15.333 -109.5 -46s-44.5 -67.334 -44.5 -110.001v-1c0 -42.667 14.833 -79.167 44.5 -109.5s66.167 -45.5 109.5 -45.5zM143 462v150.001c0 9.33301 4.66699 14 14 14
h64c18.667 0 34.167 -4.83301 46.5 -14.5s18.5 -22.834 18.5 -39.501c0 -27.333 -14 -45.333 -42 -54l38 -45c3.33301 -4 5 -8 5 -12c0 -8.66699 -4.33301 -13 -13 -13c-5.33301 0 -10 2.66699 -14 8l-49 59h-40v-53c0 -9.33301 -4.66699 -14 -14 -14s-14 4.66699 -14 14z
M171 538.001h47c26 0 39 10.667 39 32c0 20.667 -13 31 -39 31h-47v-63z" />
    <glyph glyph-name="macron" unicode="&#xaf;" horiz-adv-x="500" 
d="M382 621h-264c-6.66699 0 -12.334 2.33301 -17.001 7s-7 10.334 -7 17.001s2.33301 12.334 7 17.001s10.334 7 17.001 7h264c6.66699 0 12.334 -2.33301 17.001 -7s7 -10.334 7 -17.001s-2.33301 -12.334 -7 -17.001s-10.334 -7 -17.001 -7z" />
    <glyph glyph-name="degree" unicode="&#xb0;" horiz-adv-x="450" 
d="M225 412c-40 0 -75.167 14.667 -105.5 44s-45.5 63.333 -45.5 102v2c0 38.667 15.167 72.667 45.5 102s65.5 44 105.5 44s75.167 -14.667 105.5 -44s45.5 -63.333 45.5 -102v-2c0 -38.667 -15.167 -72.667 -45.5 -102s-65.5 -44 -105.5 -44zM225 456
c28.667 0 52.667 10.167 72 30.5s29 44.166 29 71.499v2c0 27.333 -9.66699 51.166 -29 71.499s-43.333 30.5 -72 30.5s-52.667 -10.167 -72 -30.5s-29 -44.166 -29 -71.499v-2c0 -27.333 9.66699 -51.166 29 -71.499s43.333 -30.5 72 -30.5z" />
    <glyph glyph-name="plusminus" unicode="&#xb1;" horiz-adv-x="620" 
d="M285 176v182h-187c-6.66699 0 -12.334 2.33301 -17.001 7s-7 10.334 -7 17.001s2.33301 12.334 7 17.001s10.334 7 17.001 7h187v182c0 6.66699 2.5 12.5 7.5 17.5s10.833 7.5 17.5 7.5s12.5 -2.5 17.5 -7.5s7.5 -10.833 7.5 -17.5v-182h187
c6.66699 0 12.334 -2.33301 17.001 -7s7 -10.334 7 -17.001s-2.33301 -12.334 -7 -17.001s-10.334 -7 -17.001 -7h-187v-182c0 -6.66699 -2.5 -12.5 -7.5 -17.5s-10.833 -7.5 -17.5 -7.5s-12.5 2.5 -17.5 7.5s-7.5 10.833 -7.5 17.5zM98 0
c-6.66699 0 -12.334 2.33301 -17.001 7s-7 10.334 -7 17.001s2.33301 12.334 7 17.001s10.334 7 17.001 7h424c6.66699 0 12.334 -2.33301 17.001 -7s7 -10.334 7 -17.001s-2.33301 -12.334 -7 -17.001s-10.334 -7 -17.001 -7h-424z" />
    <glyph glyph-name="acute" unicode="&#xb4;" horiz-adv-x="500" 
d="M214 592c-8.66699 0 -12.999 3 -12.999 9c0 3.33301 1.33301 7 4 11l62 93c8 12 17.333 18 28 18c9.33301 0 18.666 -2.5 27.999 -7.5s14 -10.167 14 -15.5c0 -4.66699 -3.66699 -10.667 -11 -18l-80 -77c-9.33301 -8.66699 -20 -13 -32 -13z" />
    <glyph glyph-name="paragraph" unicode="&#xb6;" horiz-adv-x="480" 
d="M333 22v254.998h-6c-79.333 0 -144.833 18.833 -196.5 56.5s-77.5 89.167 -77.5 154.5v2c0 64.667 24 115.834 72 153.501s110.333 56.5 187 56.5h47c7.33301 0 13.666 -2.66699 18.999 -8s8 -11.666 8 -18.999v-651c0 -7.33301 -2.5 -13.5 -7.5 -18.5
s-11.167 -7.5 -18.5 -7.5s-13.666 2.5 -18.999 7.5s-8 11.167 -8 18.5z" />
    <glyph glyph-name="periodcentered" unicode="&#xb7;" horiz-adv-x="230" 
d="M82 311c0 9.33301 3.16699 17.166 9.5 23.499s14.166 9.5 23.499 9.5s17.166 -3.16699 23.499 -9.5s9.5 -14.166 9.5 -23.499v-27c0 -9.33301 -3.16699 -17.166 -9.5 -23.499s-14.166 -9.5 -23.499 -9.5s-17.166 3.16699 -23.499 9.5s-9.5 14.166 -9.5 23.499v27z" />
    <glyph glyph-name="cedilla" unicode="&#xb8;" horiz-adv-x="500" 
d="M295 10l-64.999 -131.999c-6.66699 -13.333 -15.334 -20 -26.001 -20c-8 0 -15.667 2.66699 -23 8s-11 10.666 -11 15.999c0 4 1.66699 9 5 15l77 113h43z" />
    <glyph glyph-name="ordmasculine" unicode="&#xba;" horiz-adv-x="390" 
d="M194 411c-40.667 0 -74.667 14.167 -102 42.5s-41 62.5 -41 102.5v2c0 40 13.833 74.5 41.5 103.5s62.167 43.5 103.5 43.5c40.667 0 74.667 -14.167 102 -42.5s41 -62.5 41 -102.5v-2c0 -40 -13.833 -74.5 -41.5 -103.5s-62.167 -43.5 -103.5 -43.5zM67 293
c-5.33301 0 -10 2 -14 6s-6 8.66699 -6 14s2 10 6 14s8.66699 6 14 6h256c5.33301 0 10 -2 14 -6s6 -8.66699 6 -14s-2 -10 -6 -14s-8.66699 -6 -14 -6h-256zM196 450c29.333 0 53.333 10.333 72 31s28 45.667 28 75v2c0 30 -9.83301 55.5 -29.5 76.5
s-43.834 31.5 -72.501 31.5c-29.333 0 -53.333 -10.333 -72 -31s-28 -45.667 -28 -75v-2c0 -30 9.83301 -55.5 29.5 -76.5s43.834 -31.5 72.501 -31.5z" />
    <glyph glyph-name="guillemotright" unicode="&#xbb;" horiz-adv-x="515" 
d="M294 467c7.33301 0 13.666 -3.66895 18.999 -11.002l137 -179c6.66699 -8.66699 10 -16 10 -22s-3.33301 -13.333 -10 -22l-137 -179c-5.33301 -7.33301 -11.666 -11 -18.999 -11c-6 0 -11.167 2 -15.5 6s-6.5 9 -6.5 15c0 6.66699 2 12.334 6 17.001l126 173l-126 175
c-4 4.66699 -6 10.334 -6 17.001c0 6 2.16699 11 6.5 15s9.5 6 15.5 6zM90 466.998c7.33301 0 13.667 -3.66895 19 -11.002l137 -179c6.66699 -8.66699 10 -16 10 -22s-3.33301 -13.333 -10 -22l-137 -179c-5.33301 -7.33301 -11.666 -11 -18.999 -11
c-6 0 -11.167 2 -15.5 6s-6.5 9 -6.5 15c0 6.66699 2 12.334 6 17.001l126 173l-126 175c-4.66699 6.66699 -6.66699 12.334 -6 17.001c1.33301 14 8.66602 21 21.999 21z" />
    <glyph glyph-name="questiondown" unicode="&#xbf;" horiz-adv-x="534" 
d="M288 521l1.99902 0.000976562c9.33301 0 14.666 -6 15.999 -18l11 -129c0.666992 -6.66699 -1.16602 -12.334 -5.49902 -17.001s-10.166 -7.33398 -17.499 -8.00098c-57.333 -3.33301 -103.166 -18.833 -137.499 -46.5s-51.5 -65.167 -51.5 -112.5v-2
c0 -42 15.333 -77.667 46 -107s70.667 -44 120 -44c68.667 0 129.667 30.333 183 91c5.33301 6.66699 12 10 20 10c6.66699 0 12.167 -2 16.5 -6s6.5 -9.33301 6.5 -16c0 -6 -2 -11.667 -6 -17c-60.667 -72 -134.667 -108 -222 -108c-64.667 0 -117 18.833 -157 56.5
s-60 83.834 -60 138.501v2c0 58.667 19.833 105.5 59.5 140.5s90.5 56.167 152.5 63.5l8 111c1.33301 12 6.66602 18 15.999 18zM321.999 644.001c0 -9.33301 -3.16699 -17.166 -9.5 -23.499s-14.166 -9.5 -23.499 -9.5s-17.166 3.16699 -23.499 9.5
s-9.5 14.166 -9.5 23.499v27c0 9.33301 3.16699 17.166 9.5 23.499s14.166 9.5 23.499 9.5s17.166 -3.16699 23.499 -9.5s9.5 -14.166 9.5 -23.499v-27z" />
    <glyph glyph-name="Agrave" unicode="&#xc0;" horiz-adv-x="790" 
d="M56 18c0 5.33301 1.33301 10.667 4 16l299 648c8 16.667 19.667 25 35 25h2c15.333 0 27 -8.33301 35 -25l298 -646c2.66699 -5.33301 4 -10.666 4 -15.999c0 -6.66699 -2.5 -12.334 -7.5 -17.001s-10.833 -7 -17.5 -7c-11.333 0 -20 6.66699 -26 20l-82 180h-413
l-82 -181c-5.33301 -12.667 -13.666 -19 -24.999 -19c-6.66699 0 -12.334 2.16699 -17.001 6.5s-7 9.5 -7 15.5zM209 243.001h369l-184 405zM395 772.001c-12 0 -22.666 4.33301 -31.999 13l-80 77c-7.33301 7.33301 -11 13.333 -11 18c0 5.33301 4.66699 10.5 14 15.5
s18.666 7.5 27.999 7.5c10.667 0 20 -6 28 -18l62 -93c2.66699 -4 4 -7.66699 4 -11c0 -6 -4.33301 -9 -13 -9z" />
    <glyph glyph-name="Aacute" unicode="&#xc1;" horiz-adv-x="790" 
d="M56 18c0 5.33301 1.33301 10.667 4 16l299 648c8 16.667 19.667 25 35 25h2c15.333 0 27 -8.33301 35 -25l298 -646c2.66699 -5.33301 4 -10.666 4 -15.999c0 -6.66699 -2.5 -12.334 -7.5 -17.001s-10.833 -7 -17.5 -7c-11.333 0 -20 6.66699 -26 20l-82 180h-413
l-82 -181c-5.33301 -12.667 -13.666 -19 -24.999 -19c-6.66699 0 -12.334 2.16699 -17.001 6.5s-7 9.5 -7 15.5zM209 243.001h369l-184 405zM393 772.001c-8.66699 0 -12.999 3 -12.999 9c0 3.33301 1.33301 7 4 11l62 93c8 12 17.333 18 28 18
c9.33301 0 18.666 -2.5 27.999 -7.5s14 -10.167 14 -15.5c0 -4.66699 -3.66699 -10.667 -11 -18l-80 -77c-9.33301 -8.66699 -20 -13 -32 -13z" />
    <glyph glyph-name="Acircumflex" unicode="&#xc2;" horiz-adv-x="790" 
d="M56 18c0 5.33301 1.33301 10.667 4 16l299 648c8 16.667 19.667 25 35 25h2c15.333 0 27 -8.33301 35 -25l298 -646c2.66699 -5.33301 4 -10.666 4 -15.999c0 -6.66699 -2.5 -12.334 -7.5 -17.001s-10.833 -7 -17.5 -7c-11.333 0 -20 6.66699 -26 20l-82 180h-413
l-82 -181c-5.33301 -12.667 -13.666 -19 -24.999 -19c-6.66699 0 -12.334 2.16699 -17.001 6.5s-7 9.5 -7 15.5zM209 243.001h369l-184 405zM393 843.001l-63 -58c-9.33301 -8.66699 -20 -13 -32 -13c-8.66699 0 -13 3.33301 -13 10c0 4 1.66699 8 5 12l72 88
c10 12 19.333 18 28 18h8c8.66699 0 18 -6 28 -18l72 -88c3.33301 -4 5 -8 5 -12c0 -6.66699 -4.66699 -10 -14 -10c-12.667 0 -23.667 4.33301 -33 13z" />
    <glyph glyph-name="Atilde" unicode="&#xc3;" horiz-adv-x="790" 
d="M56 18c0 5.33301 1.33301 10.667 4 16l299 648c8 16.667 19.667 25 35 25h2c15.333 0 27 -8.33301 35 -25l298 -646c2.66699 -5.33301 4 -10.666 4 -15.999c0 -6.66699 -2.5 -12.334 -7.5 -17.001s-10.833 -7 -17.5 -7c-11.333 0 -20 6.66699 -26 20l-82 180h-413
l-82 -181c-5.33301 -12.667 -13.666 -19 -24.999 -19c-6.66699 0 -12.334 2.16699 -17.001 6.5s-7 9.5 -7 15.5zM209 243.001h369l-184 405zM288 778.001c-4.66699 -9.33301 -10.667 -14 -18 -14c-12 0 -18 5.66699 -18 17c0 4 0.666992 8 2 12
c9.33301 28 20.166 47.5 32.499 58.5s27.833 16.5 46.5 16.5c12.667 0 34.334 -6.83301 65.001 -20.5s51.667 -20.5 63 -20.5c10.667 0 19.334 2.83301 26.001 8.5s13 15.5 19 29.5c4.66699 9.33301 10.667 14 18 14c12 0 18 -5.66699 18 -17c0 -4 -0.666992 -8 -2 -12
c-9.33301 -28 -20.166 -47.5 -32.499 -58.5s-27.833 -16.5 -46.5 -16.5c-12.667 0 -34.334 6.83301 -65.001 20.5s-51.667 20.5 -63 20.5c-10.667 0 -19.334 -2.83301 -26.001 -8.5s-13 -15.5 -19 -29.5z" />
    <glyph glyph-name="Adieresis" unicode="&#xc4;" horiz-adv-x="790" 
d="M56 18c0 5.33301 1.33301 10.667 4 16l299 648c8 16.667 19.667 25 35 25h2c15.333 0 27 -8.33301 35 -25l298 -646c2.66699 -5.33301 4 -10.666 4 -15.999c0 -6.66699 -2.5 -12.334 -7.5 -17.001s-10.833 -7 -17.5 -7c-11.333 0 -20 6.66699 -26 20l-82 180h-413
l-82 -181c-5.33301 -12.667 -13.666 -19 -24.999 -19c-6.66699 0 -12.334 2.16699 -17.001 6.5s-7 9.5 -7 15.5zM209 243.001h369l-184 405zM476 859.001c10 0 18.333 -3.16699 25 -9.5s10 -14.5 10 -24.5v-20c0 -10 -3.33301 -18.167 -10 -24.5s-15 -9.5 -25 -9.5
s-18.333 3.16699 -25 9.5s-10 14.5 -10 24.5v20c0 10 3.33301 18.167 10 24.5s15 9.5 25 9.5zM312 859.001c10 0 18.333 -3.16699 25 -9.5s10 -14.5 10 -24.5v-20c0 -10 -3.33301 -18.167 -10 -24.5s-15 -9.5 -25 -9.5s-18.333 3.16699 -25 9.5s-10 14.5 -10 24.5v20
c0 10 3.33301 18.167 10 24.5s15 9.5 25 9.5z" />
    <glyph glyph-name="Aring" unicode="&#xc5;" horiz-adv-x="790" 
d="M433 678l297.999 -645.999c1.33301 -2.66699 2 -6.33398 2 -11.001c0 -6 -2.5 -11.667 -7.5 -17s-11.167 -8 -18.5 -8c-10.667 0 -19 6.66699 -25 20l-82 180h-413l-82 -181c-5.33301 -12.667 -13.333 -19 -24 -19c-6.66699 0 -12.5 2.5 -17.5 7.5s-7.5 10.5 -7.5 16.5
c0 2.66699 0.666992 6 2 10l299 648c-17.333 7.33301 -31.666 18.666 -42.999 33.999s-17 32.333 -17 51v2c0 25.333 9.83301 47.166 29.5 65.499s42.5 27.5 68.5 27.5s48.833 -9.16699 68.5 -27.5s29.5 -40.166 29.5 -65.499v-2c0 -18.667 -5.5 -35.667 -16.5 -51
s-25.5 -26.666 -43.5 -33.999zM394.999 702.001c16.667 0 31.167 6 43.5 18s18.5 26.333 18.5 43v2c0 16.667 -6.16699 31 -18.5 43s-26.833 18 -43.5 18s-31.167 -6 -43.5 -18s-18.5 -26.333 -18.5 -43v-2c0 -16.667 6.16699 -31 18.5 -43s26.833 -18 43.5 -18z
M208.999 243.001h369l-184 405z" />
    <glyph glyph-name="AE" unicode="&#xc6;" horiz-adv-x="1045" 
d="M35 19c0 4 1.66602 8.67188 4.99902 14.0049l394 651c6.66699 10.667 15.334 16 26.001 16h497c6.66699 0 12.334 -2.33301 17.001 -7s7 -10.334 7 -17.001s-2.33301 -12.334 -7 -17.001s-10.334 -7 -17.001 -7h-411v-275h366c6.66699 0 12.334 -2.33301 17.001 -7
s7 -10.334 7 -17.001s-2.33301 -12.334 -7 -17.001s-10.334 -7 -17.001 -7h-366v-281h416c6.66699 0 12.334 -2.33301 17.001 -7s7 -10.334 7 -17.001s-2.33301 -12.334 -7 -17.001s-10.334 -7 -17.001 -7h-442c-6.66699 0 -12.667 2.66699 -18 8s-8 11.333 -8 18v170h-300
l-113 -188c-5.33301 -8.66699 -12.666 -13 -21.999 -13c-6.66699 0 -12.334 2.33301 -17.001 7s-7 10.334 -7 17.001zM221.999 243.005h272v410h-26z" />
    <glyph glyph-name="Ccedilla" unicode="&#xc7;" horiz-adv-x="738" 
d="M686 97c-75.333 -70 -159.335 -106.331 -252.002 -108.998l-54 -110c-6.66699 -13.333 -15.334 -20 -26.001 -20c-8 0 -15.667 2.66699 -23 8s-11 10.666 -11 15.999c0 4 1.66699 9 5 15l63 93c-91.333 8 -166.666 45.833 -225.999 113.5s-89 149.167 -89 244.5v2
c0 100 33.333 185.333 100 256s150 106 250 106c54 0 101 -8.33301 141 -25s78.667 -41 116 -73c6.66699 -6.66699 10 -13.667 10 -21c0 -6.66699 -2.66699 -12.667 -8 -18s-11.666 -8 -18.999 -8s-13.333 2.33301 -18 7c-66.667 60.667 -141 91 -223 91
c-84 0 -154.167 -30.167 -210.5 -90.5s-84.5 -134.5 -84.5 -222.5v-2c0 -88.667 28.5 -163.334 85.5 -224.001s127.167 -91 210.5 -91c46 0 86.833 8 122.5 24s70.834 40.333 105.501 73c5.33301 5.33301 11.333 8 18 8s12.5 -2.5 17.5 -7.5s7.5 -10.833 7.5 -17.5
s-2.66699 -12.667 -8 -18z" />
    <glyph glyph-name="Egrave" unicode="&#xc8;" horiz-adv-x="670" 
d="M130 0c-6.66699 0 -12.667 2.67285 -18 8.00586s-8 11.333 -8 18v648c0 6.66699 2.66699 12.667 8 18s11.333 8 18 8h452c6.66699 0 12.334 -2.33301 17.001 -7s7 -10.334 7 -17.001s-2.33301 -12.334 -7 -17.001s-10.334 -7 -17.001 -7h-426v-275h381
c6.66699 0 12.334 -2.33301 17.001 -7s7 -10.334 7 -17.001s-2.33301 -12.334 -7 -17.001s-10.334 -7 -17.001 -7h-381v-281h431c6.66699 0 12.334 -2.33301 17.001 -7s7 -10.334 7 -17.001s-2.33301 -12.334 -7 -17.001s-10.334 -7 -17.001 -7h-457zM356 762.006
c-12 0 -22.666 4.33301 -31.999 13l-80 77c-7.33301 7.33301 -11 13.333 -11 18c0 5.33301 4.66699 10.5 14 15.5s18.666 7.5 27.999 7.5c10.667 0 20 -6 28 -18l62 -93c2.66699 -4 4 -7.66699 4 -11c0 -6 -4.33301 -9 -13 -9z" />
    <glyph glyph-name="Eacute" unicode="&#xc9;" horiz-adv-x="670" 
d="M130 0c-6.66699 0 -12.667 2.67285 -18 8.00586s-8 11.333 -8 18v648c0 6.66699 2.66699 12.667 8 18s11.333 8 18 8h452c6.66699 0 12.334 -2.33301 17.001 -7s7 -10.334 7 -17.001s-2.33301 -12.334 -7 -17.001s-10.334 -7 -17.001 -7h-426v-275h381
c6.66699 0 12.334 -2.33301 17.001 -7s7 -10.334 7 -17.001s-2.33301 -12.334 -7 -17.001s-10.334 -7 -17.001 -7h-381v-281h431c6.66699 0 12.334 -2.33301 17.001 -7s7 -10.334 7 -17.001s-2.33301 -12.334 -7 -17.001s-10.334 -7 -17.001 -7h-457zM354 762.006
c-8.66699 0 -12.999 3 -12.999 9c0 3.33301 1.33301 7 4 11l62 93c8 12 17.333 18 28 18c9.33301 0 18.666 -2.5 27.999 -7.5s14 -10.167 14 -15.5c0 -4.66699 -3.66699 -10.667 -11 -18l-80 -77c-9.33301 -8.66699 -20 -13 -32 -13z" />
    <glyph glyph-name="Ecircumflex" unicode="&#xca;" horiz-adv-x="670" 
d="M130 0c-6.66699 0 -12.667 2.67285 -18 8.00586s-8 11.333 -8 18v648c0 6.66699 2.66699 12.667 8 18s11.333 8 18 8h452c6.66699 0 12.334 -2.33301 17.001 -7s7 -10.334 7 -17.001s-2.33301 -12.334 -7 -17.001s-10.334 -7 -17.001 -7h-426v-275h381
c6.66699 0 12.334 -2.33301 17.001 -7s7 -10.334 7 -17.001s-2.33301 -12.334 -7 -17.001s-10.334 -7 -17.001 -7h-381v-281h431c6.66699 0 12.334 -2.33301 17.001 -7s7 -10.334 7 -17.001s-2.33301 -12.334 -7 -17.001s-10.334 -7 -17.001 -7h-457zM354 833.006l-63 -58
c-9.33301 -8.66699 -20 -13 -32 -13c-8.66699 0 -13 3.33301 -13 10c0 4 1.66699 8 5 12l72 88c10 12 19.333 18 28 18h8c8.66699 0 18 -6 28 -18l72 -88c3.33301 -4 5 -8 5 -12c0 -6.66699 -4.66699 -10 -14 -10c-12.667 0 -23.667 4.33301 -33 13z" />
    <glyph glyph-name="Edieresis" unicode="&#xcb;" horiz-adv-x="670" 
d="M130 0c-6.66699 0 -12.667 2.67285 -18 8.00586s-8 11.333 -8 18v648c0 6.66699 2.66699 12.667 8 18s11.333 8 18 8h452c6.66699 0 12.334 -2.33301 17.001 -7s7 -10.334 7 -17.001s-2.33301 -12.334 -7 -17.001s-10.334 -7 -17.001 -7h-426v-275h381
c6.66699 0 12.334 -2.33301 17.001 -7s7 -10.334 7 -17.001s-2.33301 -12.334 -7 -17.001s-10.334 -7 -17.001 -7h-381v-281h431c6.66699 0 12.334 -2.33301 17.001 -7s7 -10.334 7 -17.001s-2.33301 -12.334 -7 -17.001s-10.334 -7 -17.001 -7h-457zM437 849.006
c10 0 18.333 -3.16699 25 -9.5s10 -14.5 10 -24.5v-20c0 -10 -3.33301 -18.167 -10 -24.5s-15 -9.5 -25 -9.5s-18.333 3.16699 -25 9.5s-10 14.5 -10 24.5v20c0 10 3.33301 18.167 10 24.5s15 9.5 25 9.5zM273 849.006c10 0 18.333 -3.16699 25 -9.5s10 -14.5 10 -24.5v-20
c0 -10 -3.33301 -18.167 -10 -24.5s-15 -9.5 -25 -9.5s-18.333 3.16699 -25 9.5s-10 14.5 -10 24.5v20c0 10 3.33301 18.167 10 24.5s15 9.5 25 9.5z" />
    <glyph glyph-name="Igrave" unicode="&#xcc;" horiz-adv-x="274" 
d="M111 22v656c0 6.66699 2.5 12.667 7.5 18s11.167 8 18.5 8s13.5 -2.66699 18.5 -8s7.5 -11.333 7.5 -18v-656c0 -6.66699 -2.5 -12.667 -7.5 -18s-11.167 -8 -18.5 -8s-13.5 2.66699 -18.5 8s-7.5 11.333 -7.5 18zM138 762c-12 0 -22.666 4.33301 -31.999 13l-80 77
c-7.33301 7.33301 -11 13.333 -11 18c0 5.33301 4.66699 10.5 14 15.5s18.666 7.5 27.999 7.5c10.667 0 20 -6 28 -18l62 -93c2.66699 -4 4 -7.66699 4 -11c0 -6 -4.33301 -9 -13 -9z" />
    <glyph glyph-name="Iacute" unicode="&#xcd;" horiz-adv-x="274" 
d="M111 22v656c0 6.66699 2.5 12.667 7.5 18s11.167 8 18.5 8s13.5 -2.66699 18.5 -8s7.5 -11.333 7.5 -18v-656c0 -6.66699 -2.5 -12.667 -7.5 -18s-11.167 -8 -18.5 -8s-13.5 2.66699 -18.5 8s-7.5 11.333 -7.5 18zM136 762c-8.66699 0 -12.999 3 -12.999 9
c0 3.33301 1.33301 7 4 11l62 93c8 12 17.333 18 28 18c9.33301 0 18.666 -2.5 27.999 -7.5s14 -10.167 14 -15.5c0 -4.66699 -3.66699 -10.667 -11 -18l-80 -77c-9.33301 -8.66699 -20 -13 -32 -13z" />
    <glyph glyph-name="Icircumflex" unicode="&#xce;" horiz-adv-x="274" 
d="M111 22v656c0 6.66699 2.5 12.667 7.5 18s11.167 8 18.5 8s13.5 -2.66699 18.5 -8s7.5 -11.333 7.5 -18v-656c0 -6.66699 -2.5 -12.667 -7.5 -18s-11.167 -8 -18.5 -8s-13.5 2.66699 -18.5 8s-7.5 11.333 -7.5 18zM136 833l-63 -58c-9.33301 -8.66699 -20 -13 -32 -13
c-8.66699 0 -13 3.33301 -13 10c0 4 1.66699 8 5 12l72 88c10 12 19.333 18 28 18h8c8.66699 0 18 -6 28 -18l72 -88c3.33301 -4 5 -8 5 -12c0 -6.66699 -4.66699 -10 -14 -10c-12.667 0 -23.667 4.33301 -33 13z" />
    <glyph glyph-name="Idieresis" unicode="&#xcf;" horiz-adv-x="274" 
d="M111 22v656c0 6.66699 2.5 12.667 7.5 18s11.167 8 18.5 8s13.5 -2.66699 18.5 -8s7.5 -11.333 7.5 -18v-656c0 -6.66699 -2.5 -12.667 -7.5 -18s-11.167 -8 -18.5 -8s-13.5 2.66699 -18.5 8s-7.5 11.333 -7.5 18zM219 849c10 0 18.333 -3.16699 25 -9.5
s10 -14.5 10 -24.5v-20c0 -10 -3.33301 -18.167 -10 -24.5s-15 -9.5 -25 -9.5s-18.333 3.16699 -25 9.5s-10 14.5 -10 24.5v20c0 10 3.33301 18.167 10 24.5s15 9.5 25 9.5zM55 849c10 0 18.333 -3.16699 25 -9.5s10 -14.5 10 -24.5v-20c0 -10 -3.33301 -18.167 -10 -24.5
s-15 -9.5 -25 -9.5s-18.333 3.16699 -25 9.5s-10 14.5 -10 24.5v20c0 10 3.33301 18.167 10 24.5s15 9.5 25 9.5z" />
    <glyph glyph-name="Eth" unicode="&#xd0;" horiz-adv-x="812" 
d="M79 376l55 -0.00292969v298c0 6.66699 2.66699 12.667 8 18s11.333 8 18 8h207c108.667 0 197.834 -33.167 267.501 -99.5s104.5 -149.166 104.5 -248.499v-2c0 -100 -34.833 -183.333 -104.5 -250s-158.834 -100 -267.501 -100h-207c-6.66699 0 -12.667 2.66699 -18 8
s-8 11.333 -8 18v302h-55c-6.66699 0 -12.334 2.33301 -17.001 7s-7 10.334 -7 17.001s2.33301 12.334 7 17.001s10.334 7 17.001 7zM186 651.997v-275.997h212c6.66699 0 12.334 -2.33301 17.001 -7s7 -10.334 7 -17.001s-2.33301 -12.334 -7 -17.001
s-10.334 -7 -17.001 -7h-212v-280h181c95.333 0 172.166 28.667 230.499 86s87.5 128.666 87.5 213.999v2c0 85.333 -29.167 157 -87.5 215s-135.166 87 -230.499 87h-181z" />
    <glyph glyph-name="Ntilde" unicode="&#xd1;" horiz-adv-x="790" 
d="M104 21v656c0 7.33301 2.66699 13.5 8 18.5s11.333 7.5 18 7.5h8c9.33301 0 18 -5 26 -15l472 -599v590c0 7.33301 2.33301 13.333 7 18s10.667 7 18 7s13.333 -2.33301 18 -7s7 -10.667 7 -18v-660c0 -6 -2 -11.167 -6 -15.5s-9 -6.5 -15 -6.5h-4
c-8 0 -16.667 5.66699 -26 17l-481 610v-603c0 -7.33301 -2.33301 -13.333 -7 -18s-10.667 -7 -18 -7s-13.333 2.33301 -18 7s-7 10.667 -7 18zM289 768c-4.66699 -9.33301 -10.667 -14 -18 -14c-12 0 -18 5.66699 -18 17c0 4 0.666992 8 2 12
c9.33301 28 20.166 47.5 32.499 58.5s27.833 16.5 46.5 16.5c13.333 0 35.333 -6.83301 66 -20.5s51.334 -20.5 62.001 -20.5s19.334 2.83301 26.001 8.5s13 15.5 19 29.5c4.66699 9.33301 10.667 14 18 14c12 0 18 -5.66699 18 -17c0 -4 -0.666992 -8 -2 -12
c-9.33301 -28 -20.166 -47.5 -32.499 -58.5s-27.833 -16.5 -46.5 -16.5c-13.333 0 -35.333 6.83301 -66 20.5s-51.334 20.5 -62.001 20.5s-19.334 -2.83301 -26.001 -8.5s-13 -15.5 -19 -29.5z" />
    <glyph glyph-name="Ograve" unicode="&#xd2;" horiz-adv-x="850" 
d="M424 -12c-103.333 0 -187.666 35.333 -252.999 106s-98 155.334 -98 254.001v2c0 98.667 33 183.667 99 255s150.667 107 254 107s187.666 -35.333 252.999 -106s98 -155.334 98 -254.001v-2c0 -98.667 -33 -183.667 -99 -255s-150.667 -107 -254 -107zM426 35
c85.333 0 156.166 30.333 212.499 91s84.5 134.667 84.5 222v2c0 87.333 -28.5 161.666 -85.5 222.999s-128.167 92 -213.5 92s-156.166 -30.333 -212.499 -91s-84.5 -134.667 -84.5 -222v-2c0 -87.333 28.5 -161.666 85.5 -222.999s128.167 -92 213.5 -92zM426 772
c-12 0 -22.666 4.33301 -31.999 13l-80 77c-7.33301 7.33301 -11 13.333 -11 18c0 5.33301 4.66699 10.5 14 15.5s18.666 7.5 27.999 7.5c10.667 0 20 -6 28 -18l62 -93c2.66699 -4 4 -7.66699 4 -11c0 -6 -4.33301 -9 -13 -9z" />
    <glyph glyph-name="Oacute" unicode="&#xd3;" horiz-adv-x="850" 
d="M424 -12c-103.333 0 -187.666 35.333 -252.999 106s-98 155.334 -98 254.001v2c0 98.667 33 183.667 99 255s150.667 107 254 107s187.666 -35.333 252.999 -106s98 -155.334 98 -254.001v-2c0 -98.667 -33 -183.667 -99 -255s-150.667 -107 -254 -107zM426 35
c85.333 0 156.166 30.333 212.499 91s84.5 134.667 84.5 222v2c0 87.333 -28.5 161.666 -85.5 222.999s-128.167 92 -213.5 92s-156.166 -30.333 -212.499 -91s-84.5 -134.667 -84.5 -222v-2c0 -87.333 28.5 -161.666 85.5 -222.999s128.167 -92 213.5 -92zM424 772
c-8.66699 0 -12.999 3 -12.999 9c0 3.33301 1.33301 7 4 11l62 93c8 12 17.333 18 28 18c9.33301 0 18.666 -2.5 27.999 -7.5s14 -10.167 14 -15.5c0 -4.66699 -3.66699 -10.667 -11 -18l-80 -77c-9.33301 -8.66699 -20 -13 -32 -13z" />
    <glyph glyph-name="Ocircumflex" unicode="&#xd4;" horiz-adv-x="850" 
d="M424 -12c-103.333 0 -187.666 35.333 -252.999 106s-98 155.334 -98 254.001v2c0 98.667 33 183.667 99 255s150.667 107 254 107s187.666 -35.333 252.999 -106s98 -155.334 98 -254.001v-2c0 -98.667 -33 -183.667 -99 -255s-150.667 -107 -254 -107zM426 35
c85.333 0 156.166 30.333 212.499 91s84.5 134.667 84.5 222v2c0 87.333 -28.5 161.666 -85.5 222.999s-128.167 92 -213.5 92s-156.166 -30.333 -212.499 -91s-84.5 -134.667 -84.5 -222v-2c0 -87.333 28.5 -161.666 85.5 -222.999s128.167 -92 213.5 -92zM424 843l-63 -58
c-9.33301 -8.66699 -20 -13 -32 -13c-8.66699 0 -13 3.33301 -13 10c0 4 1.66699 8 5 12l72 88c10 12 19.333 18 28 18h8c8.66699 0 18 -6 28 -18l72 -88c3.33301 -4 5 -8 5 -12c0 -6.66699 -4.66699 -10 -14 -10c-12.667 0 -23.667 4.33301 -33 13z" />
    <glyph glyph-name="Otilde" unicode="&#xd5;" horiz-adv-x="850" 
d="M424 -12c-103.333 0 -187.666 35.333 -252.999 106s-98 155.334 -98 254.001v2c0 98.667 33 183.667 99 255s150.667 107 254 107s187.666 -35.333 252.999 -106s98 -155.334 98 -254.001v-2c0 -98.667 -33 -183.667 -99 -255s-150.667 -107 -254 -107zM426 35
c85.333 0 156.166 30.333 212.499 91s84.5 134.667 84.5 222v2c0 87.333 -28.5 161.666 -85.5 222.999s-128.167 92 -213.5 92s-156.166 -30.333 -212.499 -91s-84.5 -134.667 -84.5 -222v-2c0 -87.333 28.5 -161.666 85.5 -222.999s128.167 -92 213.5 -92zM319 778
c-4.66699 -9.33301 -10.6641 -14 -17.9971 -14c-12 0 -18 5.66699 -18 17c0 4 0.666992 8 2 12c9.33301 28 20.166 47.5 32.499 58.5s27.833 16.5 46.5 16.5c13.333 0 35.166 -6.83301 65.499 -20.5s51.166 -20.5 62.499 -20.5c10.667 0 19.334 2.83301 26.001 8.5
s13 15.5 19 29.5c4.66699 9.33301 10.667 14 18 14c12 0 18 -5.66699 18 -17c0 -4 -0.666992 -8 -2 -12c-9.33301 -28 -20.166 -47.5 -32.499 -58.5s-27.833 -16.5 -46.5 -16.5c-13.333 0 -35.333 6.83301 -66 20.5s-51.334 20.5 -62.001 20.5
s-19.334 -2.83301 -26.001 -8.5s-13 -15.5 -19 -29.5z" />
    <glyph glyph-name="Odieresis" unicode="&#xd6;" horiz-adv-x="850" 
d="M424 -12c-103.333 0 -187.666 35.333 -252.999 106s-98 155.334 -98 254.001v2c0 98.667 33 183.667 99 255s150.667 107 254 107s187.666 -35.333 252.999 -106s98 -155.334 98 -254.001v-2c0 -98.667 -33 -183.667 -99 -255s-150.667 -107 -254 -107zM426 35
c85.333 0 156.166 30.333 212.499 91s84.5 134.667 84.5 222v2c0 87.333 -28.5 161.666 -85.5 222.999s-128.167 92 -213.5 92s-156.166 -30.333 -212.499 -91s-84.5 -134.667 -84.5 -222v-2c0 -87.333 28.5 -161.666 85.5 -222.999s128.167 -92 213.5 -92zM507 859
c10 0 18.333 -3.16699 25 -9.5s10 -14.5 10 -24.5v-20c0 -10 -3.33301 -18.167 -10 -24.5s-15 -9.5 -25 -9.5s-18.333 3.16699 -25 9.5s-10 14.5 -10 24.5v20c0 10 3.33301 18.167 10 24.5s15 9.5 25 9.5zM343 859c10 0 18.333 -3.16699 25 -9.5s10 -14.5 10 -24.5v-20
c0 -10 -3.33301 -18.167 -10 -24.5s-15 -9.5 -25 -9.5s-18.333 3.16699 -25 9.5s-10 14.5 -10 24.5v20c0 10 3.33301 18.167 10 24.5s15 9.5 25 9.5z" />
    <glyph glyph-name="multiply" unicode="&#xd7;" horiz-adv-x="620" 
d="M512 520l-169 -167l168 -166c6 -6 9 -12.667 9 -20s-2.33301 -13.333 -7 -18s-10.667 -7 -18 -7s-14 3 -20 9l-166 168l-167 -169c-5.33301 -5.33301 -11.333 -8 -18 -8s-12.334 2.33301 -17.001 7s-7 10.334 -7 17.001s2.66699 12.667 8 18l169 167l-168 166
c-6 6 -9 12.667 -9 20s2.33301 13.333 7 18s10.667 7 18 7s14 -3 20 -9l166 -168l167 169c5.33301 5.33301 11.333 8 18 8s12.334 -2.33301 17.001 -7s7 -10.334 7 -17.001s-2.66699 -12.667 -8 -18z" />
    <glyph glyph-name="Oslash" unicode="&#xd8;" horiz-adv-x="850" 
d="M424 -12c-88.667 0 -164.667 27.334 -228 82.001l-67 -71c-5.33301 -5.33301 -11.333 -8 -18 -8c-6 0 -11 2 -15 6s-6 9 -6 15c0 6.66699 2 12 6 16l68 73c-60.667 69.333 -91 151.666 -91 246.999v2c0 98.667 33 183.667 99 255s150.667 107 254 107
c88 0 164 -27.667 228 -83l67 72c5.33301 5.33301 11.333 8 18 8c6 0 11 -2 15 -6s6 -9 6 -15c0 -6.66699 -2 -12 -6 -16l-69 -74c61.333 -67.333 92 -149.333 92 -246v-2c0 -98.667 -33 -183.667 -99 -255s-150.667 -107 -254 -107zM127 350.001
c0 -81.333 24.665 -151.333 73.998 -210l419 450c-55.333 50 -120.666 75 -195.999 75c-85.333 0 -156.166 -30.333 -212.499 -91s-84.5 -134.667 -84.5 -222v-2zM425.998 35.001c85.333 0 156.167 30.333 212.5 91s84.5 134.667 84.5 222v2c0 79.333 -24.667 149 -74 209
l-420 -449c55.333 -50 121 -75 197 -75z" />
    <glyph glyph-name="Ugrave" unicode="&#xd9;" horiz-adv-x="760" 
d="M380 -11c-86 0 -155.333 26.332 -208 78.999s-79 127 -79 223v387c0 6.66699 2.5 12.667 7.5 18s11.167 8 18.5 8s13.5 -2.66699 18.5 -8s7.5 -11.333 7.5 -18v-382c0 -82 21 -145.833 63 -191.5s100 -68.5 174 -68.5c72.667 0 129.667 21.833 171 65.5
s62 106.834 62 189.501v387c0 6.66699 2.5 12.667 7.5 18s11.167 8 18.5 8s13.5 -2.66699 18.5 -8s7.5 -11.333 7.5 -18v-381c0 -98 -26 -173.833 -78 -227.5s-121.667 -80.5 -209 -80.5zM381 761.999c-12 0 -22.666 4.33301 -31.999 13l-80 77
c-7.33301 7.33301 -11 13.333 -11 18c0 5.33301 4.66699 10.5 14 15.5s18.666 7.5 27.999 7.5c10.667 0 20 -6 28 -18l62 -93c2.66699 -4 4 -7.66699 4 -11c0 -6 -4.33301 -9 -13 -9z" />
    <glyph glyph-name="Uacute" unicode="&#xda;" horiz-adv-x="760" 
d="M380 -11c-86 0 -155.333 26.332 -208 78.999s-79 127 -79 223v387c0 6.66699 2.5 12.667 7.5 18s11.167 8 18.5 8s13.5 -2.66699 18.5 -8s7.5 -11.333 7.5 -18v-382c0 -82 21 -145.833 63 -191.5s100 -68.5 174 -68.5c72.667 0 129.667 21.833 171 65.5
s62 106.834 62 189.501v387c0 6.66699 2.5 12.667 7.5 18s11.167 8 18.5 8s13.5 -2.66699 18.5 -8s7.5 -11.333 7.5 -18v-381c0 -98 -26 -173.833 -78 -227.5s-121.667 -80.5 -209 -80.5zM379 761.999c-8.66699 0 -12.999 3 -12.999 9c0 3.33301 1.33301 7 4 11l62 93
c8 12 17.333 18 28 18c9.33301 0 18.666 -2.5 27.999 -7.5s14 -10.167 14 -15.5c0 -4.66699 -3.66699 -10.667 -11 -18l-80 -77c-9.33301 -8.66699 -20 -13 -32 -13z" />
    <glyph glyph-name="Ucircumflex" unicode="&#xdb;" horiz-adv-x="760" 
d="M380 -11c-86 0 -155.333 26.332 -208 78.999s-79 127 -79 223v387c0 6.66699 2.5 12.667 7.5 18s11.167 8 18.5 8s13.5 -2.66699 18.5 -8s7.5 -11.333 7.5 -18v-382c0 -82 21 -145.833 63 -191.5s100 -68.5 174 -68.5c72.667 0 129.667 21.833 171 65.5
s62 106.834 62 189.501v387c0 6.66699 2.5 12.667 7.5 18s11.167 8 18.5 8s13.5 -2.66699 18.5 -8s7.5 -11.333 7.5 -18v-381c0 -98 -26 -173.833 -78 -227.5s-121.667 -80.5 -209 -80.5zM379 832.999l-63 -58c-9.33301 -8.66699 -20 -13 -32 -13
c-8.66699 0 -13 3.33301 -13 10c0 4 1.66699 8 5 12l72 88c10 12 19.333 18 28 18h8c8.66699 0 18 -6 28 -18l72 -88c3.33301 -4 5 -8 5 -12c0 -6.66699 -4.66699 -10 -14 -10c-12.667 0 -23.667 4.33301 -33 13z" />
    <glyph glyph-name="Udieresis" unicode="&#xdc;" horiz-adv-x="760" 
d="M380 -11c-86 0 -155.333 26.332 -208 78.999s-79 127 -79 223v387c0 6.66699 2.5 12.667 7.5 18s11.167 8 18.5 8s13.5 -2.66699 18.5 -8s7.5 -11.333 7.5 -18v-382c0 -82 21 -145.833 63 -191.5s100 -68.5 174 -68.5c72.667 0 129.667 21.833 171 65.5
s62 106.834 62 189.501v387c0 6.66699 2.5 12.667 7.5 18s11.167 8 18.5 8s13.5 -2.66699 18.5 -8s7.5 -11.333 7.5 -18v-381c0 -98 -26 -173.833 -78 -227.5s-121.667 -80.5 -209 -80.5zM462 848.999c10 0 18.333 -3.16699 25 -9.5s10 -14.5 10 -24.5v-20
c0 -10 -3.33301 -18.167 -10 -24.5s-15 -9.5 -25 -9.5s-18.333 3.16699 -25 9.5s-10 14.5 -10 24.5v20c0 10 3.33301 18.167 10 24.5s15 9.5 25 9.5zM298 848.999c10 0 18.333 -3.16699 25 -9.5s10 -14.5 10 -24.5v-20c0 -10 -3.33301 -18.167 -10 -24.5s-15 -9.5 -25 -9.5
s-18.333 3.16699 -25 9.5s-10 14.5 -10 24.5v20c0 10 3.33301 18.167 10 24.5s15 9.5 25 9.5z" />
    <glyph glyph-name="Yacute" unicode="&#xdd;" horiz-adv-x="716" 
d="M332 22l0.000976562 255.001l-273 385c-3.33301 5.33301 -5 10.666 -5 15.999c0 6.66699 2.66699 12.667 8 18s11.666 8 18.999 8c9.33301 0 17.333 -5 24 -15l254 -365l255 365c7.33301 10 15 15 23 15c6.66699 0 12.667 -2.5 18 -7.5s8 -10.833 8 -17.5
c0 -5.33301 -2.66699 -12 -8 -20l-271 -381v-256c0 -6.66699 -2.66699 -12.667 -8 -18s-11.333 -8 -18 -8s-12.667 2.66699 -18 8s-8 11.333 -8 18zM357.001 762.001c-8.66699 0 -12.999 3 -12.999 9c0 3.33301 1.33301 7 4 11l62 93c8 12 17.333 18 28 18
c9.33301 0 18.666 -2.5 27.999 -7.5s14 -10.167 14 -15.5c0 -4.66699 -3.66699 -10.667 -11 -18l-80 -77c-9.33301 -8.66699 -20 -13 -32 -13z" />
    <glyph glyph-name="Thorn" unicode="&#xde;" horiz-adv-x="673" 
d="M104 22l-0.000976562 656c0 6.66699 2.66699 12.667 8 18s11.333 8 18 8s12.667 -2.66699 18 -8s8 -11.333 8 -18v-105h202c78 0 140.833 -19 188.5 -57s71.5 -90.333 71.5 -157v-2c0 -70.667 -26.167 -125.667 -78.5 -165s-117.166 -59 -194.499 -59h-189v-111
c0 -6.66699 -2.66699 -12.667 -8 -18s-11.333 -8 -18 -8s-12.667 2.66699 -18 8s-8 11.333 -8 18zM155.999 181h192c65.333 0 118 15.833 158 47.5s60 73.5 60 125.5v2c0 54 -19.167 95.667 -57.5 125s-89.833 44 -154.5 44h-198v-344z" />
    <glyph glyph-name="germandbls" unicode="&#xdf;" horiz-adv-x="620" 
d="M285 20c0 6 1.99707 11.001 5.99707 15.001s9 6.33301 15 7c60 3.33301 108 17 144 41s54 58.667 54 104v2c0 42.667 -17.833 76.5 -53.5 101.5s-82.5 41.167 -140.5 48.5c-16.667 2 -25 10 -25 24c0 12 6.66699 20.333 20 25c102.667 36 154 92.667 154 170v2
c0 38 -13.833 69.333 -41.5 94s-63.5 37 -107.5 37c-49.333 0 -89.666 -17.333 -120.999 -52s-47 -81 -47 -139v-480c0 -6.66699 -2.33301 -12.334 -7 -17.001s-10.667 -7 -18 -7s-13.166 2.33301 -17.499 7s-6.5 10.334 -6.5 17.001v480c0 70 20 127 60 171
s93.333 66 160 66c59.333 0 107.333 -16.667 144 -50s55 -75 55 -125v-2c0 -45.333 -15.167 -84.333 -45.5 -117s-67.5 -57 -111.5 -73c58.667 -10 107 -29.833 145 -59.5s57 -69.5 57 -119.5v-2c0 -59.333 -23 -105.333 -69 -138s-106.667 -50.334 -182 -53.001
c-5.33301 0 -10.166 2.16699 -14.499 6.5s-6.5 9.5 -6.5 15.5z" />
    <glyph glyph-name="agrave" unicode="&#xe0;" horiz-adv-x="574" 
d="M248 -12c-52 0 -97.8359 14.166 -137.503 42.499s-59.5 67.5 -59.5 117.5v2c0 52 20.333 92.667 61 122s94.667 44 162 44c57.333 0 113.666 -7.33301 168.999 -22v22c0 50.667 -14.667 89.334 -44 116.001s-70.666 40 -123.999 40
c-49.333 0 -97.666 -11.333 -144.999 -34c-4 -2 -7.66699 -3 -11 -3c-6 0 -11.333 2.33301 -16 7s-7 10 -7 16c0 10.667 4.66699 18 14 22c57.333 25.333 113.333 38 168 38c70 0 123.667 -18.667 161 -56c34.667 -34.667 52 -82.667 52 -144v-297
c0 -7.33301 -2.16699 -13.333 -6.5 -18s-10.166 -7 -17.499 -7s-13.166 2.33301 -17.499 7s-6.5 10.667 -6.5 18v64c-46 -64.667 -111 -97 -195 -97zM250.997 33.999c53.333 0 98.832 14.832 136.499 44.499s56.5 67.167 56.5 112.5v58c-60 15.333 -117.667 23 -173 23
c-53.333 0 -94.666 -10.833 -123.999 -32.5s-44 -50.5 -44 -86.5v-2c0 -35.333 14.5 -63.666 43.5 -84.999s63.833 -32 104.5 -32zM287.996 591.998c-12 0 -22.666 4.33301 -31.999 13l-80 77c-7.33301 7.33301 -11 13.333 -11 18c0 5.33301 4.66699 10.5 14 15.5
s18.666 7.5 27.999 7.5c10.667 0 20 -6 28 -18l62 -93c2.66699 -4 4 -7.66699 4 -11c0 -6 -4.33301 -9 -13 -9z" />
    <glyph glyph-name="aacute" unicode="&#xe1;" horiz-adv-x="574" 
d="M248 -12c-52 0 -97.8359 14.166 -137.503 42.499s-59.5 67.5 -59.5 117.5v2c0 52 20.333 92.667 61 122s94.667 44 162 44c57.333 0 113.666 -7.33301 168.999 -22v22c0 50.667 -14.667 89.334 -44 116.001s-70.666 40 -123.999 40
c-49.333 0 -97.666 -11.333 -144.999 -34c-4 -2 -7.66699 -3 -11 -3c-6 0 -11.333 2.33301 -16 7s-7 10 -7 16c0 10.667 4.66699 18 14 22c57.333 25.333 113.333 38 168 38c70 0 123.667 -18.667 161 -56c34.667 -34.667 52 -82.667 52 -144v-297
c0 -7.33301 -2.16699 -13.333 -6.5 -18s-10.166 -7 -17.499 -7s-13.166 2.33301 -17.499 7s-6.5 10.667 -6.5 18v64c-46 -64.667 -111 -97 -195 -97zM250.997 33.999c53.333 0 98.832 14.832 136.499 44.499s56.5 67.167 56.5 112.5v58c-60 15.333 -117.667 23 -173 23
c-53.333 0 -94.666 -10.833 -123.999 -32.5s-44 -50.5 -44 -86.5v-2c0 -35.333 14.5 -63.666 43.5 -84.999s63.833 -32 104.5 -32zM285.996 591.998c-8.66699 0 -12.999 3 -12.999 9c0 3.33301 1.33301 7 4 11l62 93c8 12 17.333 18 28 18
c9.33301 0 18.666 -2.5 27.999 -7.5s14 -10.167 14 -15.5c0 -4.66699 -3.66699 -10.667 -11 -18l-80 -77c-9.33301 -8.66699 -20 -13 -32 -13z" />
    <glyph glyph-name="acircumflex" unicode="&#xe2;" horiz-adv-x="574" 
d="M248 -12c-52 0 -97.8359 14.166 -137.503 42.499s-59.5 67.5 -59.5 117.5v2c0 52 20.333 92.667 61 122s94.667 44 162 44c57.333 0 113.666 -7.33301 168.999 -22v22c0 50.667 -14.667 89.334 -44 116.001s-70.666 40 -123.999 40
c-49.333 0 -97.666 -11.333 -144.999 -34c-4 -2 -7.66699 -3 -11 -3c-6 0 -11.333 2.33301 -16 7s-7 10 -7 16c0 10.667 4.66699 18 14 22c57.333 25.333 113.333 38 168 38c70 0 123.667 -18.667 161 -56c34.667 -34.667 52 -82.667 52 -144v-297
c0 -7.33301 -2.16699 -13.333 -6.5 -18s-10.166 -7 -17.499 -7s-13.166 2.33301 -17.499 7s-6.5 10.667 -6.5 18v64c-46 -64.667 -111 -97 -195 -97zM250.997 33.999c53.333 0 98.832 14.832 136.499 44.499s56.5 67.167 56.5 112.5v58c-60 15.333 -117.667 23 -173 23
c-53.333 0 -94.666 -10.833 -123.999 -32.5s-44 -50.5 -44 -86.5v-2c0 -35.333 14.5 -63.666 43.5 -84.999s63.833 -32 104.5 -32zM285.996 662.998l-63 -58c-9.33301 -8.66699 -20 -13 -32 -13c-8.66699 0 -13 3.33301 -13 10c0 4 1.66699 8 5 12l72 88
c10 12 19.333 18 28 18h8c8.66699 0 18 -6 28 -18l72 -88c3.33301 -4 5 -8 5 -12c0 -6.66699 -4.66699 -10 -14 -10c-12.667 0 -23.667 4.33301 -33 13z" />
    <glyph glyph-name="atilde" unicode="&#xe3;" horiz-adv-x="574" 
d="M248 -12c-52 0 -97.8359 14.166 -137.503 42.499s-59.5 67.5 -59.5 117.5v2c0 52 20.333 92.667 61 122s94.667 44 162 44c57.333 0 113.666 -7.33301 168.999 -22v22c0 50.667 -14.667 89.334 -44 116.001s-70.666 40 -123.999 40
c-49.333 0 -97.666 -11.333 -144.999 -34c-4 -2 -7.66699 -3 -11 -3c-6 0 -11.333 2.33301 -16 7s-7 10 -7 16c0 10.667 4.66699 18 14 22c57.333 25.333 113.333 38 168 38c70 0 123.667 -18.667 161 -56c34.667 -34.667 52 -82.667 52 -144v-297
c0 -7.33301 -2.16699 -13.333 -6.5 -18s-10.166 -7 -17.499 -7s-13.166 2.33301 -17.499 7s-6.5 10.667 -6.5 18v64c-46 -64.667 -111 -97 -195 -97zM250.997 33.999c53.333 0 98.832 14.832 136.499 44.499s56.5 67.167 56.5 112.5v58c-60 15.333 -117.667 23 -173 23
c-53.333 0 -94.666 -10.833 -123.999 -32.5s-44 -50.5 -44 -86.5v-2c0 -35.333 14.5 -63.666 43.5 -84.999s63.833 -32 104.5 -32zM180.996 597.998c-4.66699 -9.33301 -10.666 -14 -17.999 -14c-12 0 -18 5.66699 -18 17c0 4 0.666992 8 2 12
c9.33301 28 20.166 47.5 32.499 58.5s27.833 16.5 46.5 16.5c12.667 0 34.5 -6.83301 65.5 -20.5s51.833 -20.5 62.5 -20.5s19.334 2.83301 26.001 8.5s13 15.5 19 29.5c4.66699 9.33301 10.667 14 18 14c12 0 18 -5.66699 18 -17c0 -4 -0.666992 -8 -2 -12
c-9.33301 -28 -20.166 -47.5 -32.499 -58.5s-27.833 -16.5 -46.5 -16.5c-12.667 0 -34.334 6.83301 -65.001 20.5s-51.667 20.5 -63 20.5c-10.667 0 -19.334 -2.83301 -26.001 -8.5s-13 -15.5 -19 -29.5z" />
    <glyph glyph-name="adieresis" unicode="&#xe4;" horiz-adv-x="574" 
d="M248 -12c-52 0 -97.8359 14.166 -137.503 42.499s-59.5 67.5 -59.5 117.5v2c0 52 20.333 92.667 61 122s94.667 44 162 44c57.333 0 113.666 -7.33301 168.999 -22v22c0 50.667 -14.667 89.334 -44 116.001s-70.666 40 -123.999 40
c-49.333 0 -97.666 -11.333 -144.999 -34c-4 -2 -7.66699 -3 -11 -3c-6 0 -11.333 2.33301 -16 7s-7 10 -7 16c0 10.667 4.66699 18 14 22c57.333 25.333 113.333 38 168 38c70 0 123.667 -18.667 161 -56c34.667 -34.667 52 -82.667 52 -144v-297
c0 -7.33301 -2.16699 -13.333 -6.5 -18s-10.166 -7 -17.499 -7s-13.166 2.33301 -17.499 7s-6.5 10.667 -6.5 18v64c-46 -64.667 -111 -97 -195 -97zM250.997 33.999c53.333 0 98.832 14.832 136.499 44.499s56.5 67.167 56.5 112.5v58c-60 15.333 -117.667 23 -173 23
c-53.333 0 -94.666 -10.833 -123.999 -32.5s-44 -50.5 -44 -86.5v-2c0 -35.333 14.5 -63.666 43.5 -84.999s63.833 -32 104.5 -32zM368.996 678.998c10 0 18.333 -3.16699 25 -9.5s10 -14.5 10 -24.5v-20c0 -10 -3.33301 -18.167 -10 -24.5s-15 -9.5 -25 -9.5
s-18.333 3.16699 -25 9.5s-10 14.5 -10 24.5v20c0 10 3.33301 18.167 10 24.5s15 9.5 25 9.5zM204.996 678.998c10 0 18.333 -3.16699 25 -9.5s10 -14.5 10 -24.5v-20c0 -10 -3.33301 -18.167 -10 -24.5s-15 -9.5 -25 -9.5s-18.333 3.16699 -25 9.5s-10 14.5 -10 24.5v20
c0 10 3.33301 18.167 10 24.5s15 9.5 25 9.5z" />
    <glyph glyph-name="aring" unicode="&#xe5;" horiz-adv-x="574" 
d="M248 -12c-52 0 -97.8359 14.166 -137.503 42.499s-59.5 67.5 -59.5 117.5v2c0 52 20.333 92.667 61 122s94.667 44 162 44c57.333 0 113.666 -7.33301 168.999 -22v22c0 50.667 -14.667 89.334 -44 116.001s-70.666 40 -123.999 40
c-49.333 0 -97.666 -11.333 -144.999 -34c-4 -2 -7.66699 -3 -11 -3c-6 0 -11.333 2.33301 -16 7s-7 10 -7 16c0 10.667 4.66699 18 14 22c57.333 25.333 113.333 38 168 38c70 0 123.667 -18.667 161 -56c34.667 -34.667 52 -82.667 52 -144v-297
c0 -7.33301 -2.16699 -13.333 -6.5 -18s-10.166 -7 -17.499 -7s-13.166 2.33301 -17.499 7s-6.5 10.667 -6.5 18v64c-46 -64.667 -111 -97 -195 -97zM250.997 33.999c53.333 0 98.832 14.832 136.499 44.499s56.5 67.167 56.5 112.5v58c-60 15.333 -117.667 23 -173 23
c-53.333 0 -94.666 -10.833 -123.999 -32.5s-44 -50.5 -44 -86.5v-2c0 -35.333 14.5 -63.666 43.5 -84.999s63.833 -32 104.5 -32zM286.996 592.998c-26 0 -48.833 9.16699 -68.5 27.5s-29.5 40.166 -29.5 65.499v2c0 25.333 9.83301 47.166 29.5 65.499
s42.5 27.5 68.5 27.5s48.833 -9.16699 68.5 -27.5s29.5 -40.166 29.5 -65.499v-2c0 -25.333 -9.83301 -47.166 -29.5 -65.499s-42.5 -27.5 -68.5 -27.5zM286.996 624.998c16.667 0 31.167 6 43.5 18s18.5 26.333 18.5 43v2c0 16.667 -6.16699 31 -18.5 43
s-26.833 18 -43.5 18s-31.167 -6 -43.5 -18s-18.5 -26.333 -18.5 -43v-2c0 -16.667 6.16699 -31 18.5 -43s26.833 -18 43.5 -18z" />
    <glyph glyph-name="ae" unicode="&#xe6;" horiz-adv-x="954" 
d="M480 279l370.999 0.000976562c-4 56 -21.667 103 -53 141s-74.666 57 -129.999 57c-50 0 -92.667 -18.833 -128 -56.5s-55.333 -84.834 -60 -141.501zM245.999 34.001c78.667 0 146.667 35.667 204 107c-14 34.667 -21.333 71 -22 109
c-63.333 14.667 -117.333 22 -162 22c-51.333 0 -91.333 -10.833 -120 -32.5s-43 -50.5 -43 -86.5v-2c0 -36 13.667 -64.5 41 -85.5s61.333 -31.5 102 -31.5zM876.999 71.001c-55.333 -55.333 -121.668 -83.001 -199.001 -83.001c-42 0 -81.167 9.83301 -117.5 29.5
s-65.833 47.167 -88.5 82.5c-64.667 -74.667 -141 -112 -229 -112c-51.333 0 -96.166 14.167 -134.499 42.5s-57.5 67.5 -57.5 117.5v2c0 52 20 92.667 60 122s92.667 44 158 44c51.333 0 104.666 -7.33301 159.999 -22v22c0 50.667 -14 89.334 -42 116.001
s-67.667 40 -119 40c-44.667 0 -90.667 -11.333 -138 -34c-4 -2 -7.66699 -3 -11 -3c-6 0 -11.333 2.33301 -16 7s-7 10 -7 16c0 10.667 4.66699 18 14 22c54.667 25.333 108.334 38 161.001 38c105.333 0 169.666 -42.667 192.999 -128c20.667 40 49.167 72 85.5 96
s76.5 36 120.5 36c70 0 126.5 -25.333 169.5 -76s64.5 -113.334 64.5 -188.001c0 -6 -2.5 -11.333 -7.5 -16s-10.5 -7 -16.5 -7h-400c4.66699 -61.333 26.167 -110.166 64.5 -146.499s83.5 -54.5 135.5 -54.5c62 0 117 23.333 165 70c4.66699 4.66699 10 7 16 7
c6.66699 0 12.334 -2.16699 17.001 -6.5s7 -9.83301 7 -16.5c0 -6 -2.66699 -11.667 -8 -17z" />
    <glyph glyph-name="ccedilla" unicode="&#xe7;" horiz-adv-x="571" 
d="M515 76c-54 -55.333 -115.665 -84.667 -184.998 -88l-54 -110c-6.66699 -13.333 -15.334 -20 -26.001 -20c-8 0 -15.667 2.66699 -23 8s-11 10.666 -11 15.999c0 4 1.66699 9 5 15l63 93c-64.667 8.66699 -118.5 38.167 -161.5 88.5s-64.5 108.5 -64.5 174.5v2
c0 72 25.333 134.5 76 187.5s112 79.5 184 79.5c70 0 134 -27 192 -81c4.66699 -4.66699 7 -10.667 7 -18s-2.5 -13.333 -7.5 -18s-10.833 -7 -17.5 -7c-7.33301 0 -13 2 -17 6c-50.667 48 -103.334 72 -158.001 72c-58 0 -106.833 -21.167 -146.5 -63.5
s-59.5 -94.166 -59.5 -155.499v-2c0 -61.333 20.333 -113.5 61 -156.5s90.334 -64.5 149.001 -64.5c58 0 111.333 24.333 160 73c5.33301 5.33301 10.666 8 15.999 8c6 0 11.5 -2.5 16.5 -7.5s7.5 -10.5 7.5 -16.5s-2 -11 -6 -15z" />
    <glyph glyph-name="egrave" unicode="&#xe8;" horiz-adv-x="584" 
d="M110 279l370.999 0.000976562c-4 56 -21.667 103 -53 141s-74.666 57 -129.999 57c-50 0 -92.667 -18.833 -128 -56.5s-55.333 -84.834 -60 -141.501zM506.999 71.001c-55.333 -55.333 -121.668 -83 -199.001 -83c-68.667 0 -127.5 25 -176.5 75s-73.5 113.667 -73.5 191
v2c0 74.667 23.167 137.667 69.5 189s103.833 77 172.5 77c70 0 126.5 -25.333 169.5 -76s64.5 -113.334 64.5 -188.001c0 -6 -2.5 -11.333 -7.5 -16s-10.5 -7 -16.5 -7h-400c4.66699 -61.333 26.167 -110.166 64.5 -146.499s83.5 -54.5 135.5 -54.5c62 0 117 23.333 165 70
c4.66699 4.66699 10 7 16 7c6.66699 0 12.334 -2.16699 17.001 -6.5s7 -9.83301 7 -16.5c0 -6 -2.66699 -11.667 -8 -17zM300.997 592.001c-12 0 -22.666 4.33301 -31.999 13l-80 77c-7.33301 7.33301 -11 13.333 -11 18c0 5.33301 4.66699 10.5 14 15.5
s18.666 7.5 27.999 7.5c10.667 0 20 -6 28 -18l62 -93c2.66699 -4 4 -7.66699 4 -11c0 -6 -4.33301 -9 -13 -9z" />
    <glyph glyph-name="eacute" unicode="&#xe9;" horiz-adv-x="584" 
d="M110 279l370.999 0.000976562c-4 56 -21.667 103 -53 141s-74.666 57 -129.999 57c-50 0 -92.667 -18.833 -128 -56.5s-55.333 -84.834 -60 -141.501zM506.999 71.001c-55.333 -55.333 -121.668 -83 -199.001 -83c-68.667 0 -127.5 25 -176.5 75s-73.5 113.667 -73.5 191
v2c0 74.667 23.167 137.667 69.5 189s103.833 77 172.5 77c70 0 126.5 -25.333 169.5 -76s64.5 -113.334 64.5 -188.001c0 -6 -2.5 -11.333 -7.5 -16s-10.5 -7 -16.5 -7h-400c4.66699 -61.333 26.167 -110.166 64.5 -146.499s83.5 -54.5 135.5 -54.5c62 0 117 23.333 165 70
c4.66699 4.66699 10 7 16 7c6.66699 0 12.334 -2.16699 17.001 -6.5s7 -9.83301 7 -16.5c0 -6 -2.66699 -11.667 -8 -17zM298.997 592.001c-8.66699 0 -12.999 3 -12.999 9c0 3.33301 1.33301 7 4 11l62 93c8 12 17.333 18 28 18c9.33301 0 18.666 -2.5 27.999 -7.5
s14 -10.167 14 -15.5c0 -4.66699 -3.66699 -10.667 -11 -18l-80 -77c-9.33301 -8.66699 -20 -13 -32 -13z" />
    <glyph glyph-name="ecircumflex" unicode="&#xea;" horiz-adv-x="584" 
d="M110 279l370.999 0.000976562c-4 56 -21.667 103 -53 141s-74.666 57 -129.999 57c-50 0 -92.667 -18.833 -128 -56.5s-55.333 -84.834 -60 -141.501zM506.999 71.001c-55.333 -55.333 -121.668 -83 -199.001 -83c-68.667 0 -127.5 25 -176.5 75s-73.5 113.667 -73.5 191
v2c0 74.667 23.167 137.667 69.5 189s103.833 77 172.5 77c70 0 126.5 -25.333 169.5 -76s64.5 -113.334 64.5 -188.001c0 -6 -2.5 -11.333 -7.5 -16s-10.5 -7 -16.5 -7h-400c4.66699 -61.333 26.167 -110.166 64.5 -146.499s83.5 -54.5 135.5 -54.5c62 0 117 23.333 165 70
c4.66699 4.66699 10 7 16 7c6.66699 0 12.334 -2.16699 17.001 -6.5s7 -9.83301 7 -16.5c0 -6 -2.66699 -11.667 -8 -17zM298.997 663.001l-63 -58c-9.33301 -8.66699 -20 -13 -32 -13c-8.66699 0 -13 3.33301 -13 10c0 4 1.66699 8 5 12l72 88c10 12 19.333 18 28 18h8
c8.66699 0 18 -6 28 -18l72 -88c3.33301 -4 5 -8 5 -12c0 -6.66699 -4.66699 -10 -14 -10c-12.667 0 -23.667 4.33301 -33 13z" />
    <glyph glyph-name="edieresis" unicode="&#xeb;" horiz-adv-x="584" 
d="M110 279l370.999 0.000976562c-4 56 -21.667 103 -53 141s-74.666 57 -129.999 57c-50 0 -92.667 -18.833 -128 -56.5s-55.333 -84.834 -60 -141.501zM506.999 71.001c-55.333 -55.333 -121.668 -83 -199.001 -83c-68.667 0 -127.5 25 -176.5 75s-73.5 113.667 -73.5 191
v2c0 74.667 23.167 137.667 69.5 189s103.833 77 172.5 77c70 0 126.5 -25.333 169.5 -76s64.5 -113.334 64.5 -188.001c0 -6 -2.5 -11.333 -7.5 -16s-10.5 -7 -16.5 -7h-400c4.66699 -61.333 26.167 -110.166 64.5 -146.499s83.5 -54.5 135.5 -54.5c62 0 117 23.333 165 70
c4.66699 4.66699 10 7 16 7c6.66699 0 12.334 -2.16699 17.001 -6.5s7 -9.83301 7 -16.5c0 -6 -2.66699 -11.667 -8 -17zM381.997 679.001c10 0 18.333 -3.16699 25 -9.5s10 -14.5 10 -24.5v-20c0 -10 -3.33301 -18.167 -10 -24.5s-15 -9.5 -25 -9.5
s-18.333 3.16699 -25 9.5s-10 14.5 -10 24.5v20c0 10 3.33301 18.167 10 24.5s15 9.5 25 9.5zM217.997 679.001c10 0 18.333 -3.16699 25 -9.5s10 -14.5 10 -24.5v-20c0 -10 -3.33301 -18.167 -10 -24.5s-15 -9.5 -25 -9.5s-18.333 3.16699 -25 9.5s-10 14.5 -10 24.5v20
c0 10 3.33301 18.167 10 24.5s15 9.5 25 9.5z" />
    <glyph glyph-name="igrave" unicode="&#xec;" horiz-adv-x="249" 
d="M100 21l-0.00195312 468c0 7.33301 2.33301 13.333 7 18s10.334 7 17.001 7c7.33301 0 13.333 -2.33301 18 -7s7 -10.667 7 -18v-468c0 -7.33301 -2.16699 -13.333 -6.5 -18s-10.166 -7 -17.499 -7s-13.333 2.33301 -18 7s-7 10.667 -7 18zM124.998 592
c-12 0 -22.666 4.33301 -31.999 13l-80 77c-7.33301 7.33301 -11 13.333 -11 18c0 5.33301 4.66699 10.5 14 15.5s18.666 7.5 27.999 7.5c10.667 0 20 -6 28 -18l62 -93c2.66699 -4 4 -7.66699 4 -11c0 -6 -4.33301 -9 -13 -9z" />
    <glyph glyph-name="iacute" unicode="&#xed;" horiz-adv-x="249" 
d="M100 21l-0.00195312 468c0 7.33301 2.33301 13.333 7 18s10.334 7 17.001 7c7.33301 0 13.333 -2.33301 18 -7s7 -10.667 7 -18v-468c0 -7.33301 -2.16699 -13.333 -6.5 -18s-10.166 -7 -17.499 -7s-13.333 2.33301 -18 7s-7 10.667 -7 18zM122.998 592
c-8.66699 0 -12.999 3 -12.999 9c0 3.33301 1.33301 7 4 11l62 93c8 12 17.333 18 28 18c9.33301 0 18.666 -2.5 27.999 -7.5s14 -10.167 14 -15.5c0 -4.66699 -3.66699 -10.667 -11 -18l-80 -77c-9.33301 -8.66699 -20 -13 -32 -13z" />
    <glyph glyph-name="icircumflex" unicode="&#xee;" horiz-adv-x="249" 
d="M100 21l-0.00195312 468c0 7.33301 2.33301 13.333 7 18s10.334 7 17.001 7c7.33301 0 13.333 -2.33301 18 -7s7 -10.667 7 -18v-468c0 -7.33301 -2.16699 -13.333 -6.5 -18s-10.166 -7 -17.499 -7s-13.333 2.33301 -18 7s-7 10.667 -7 18zM122.998 663l-63 -58
c-9.33301 -8.66699 -20 -13 -32 -13c-8.66699 0 -13 3.33301 -13 10c0 4 1.66699 8 5 12l72 88c10 12 19.333 18 28 18h8c8.66699 0 18 -6 28 -18l72 -88c3.33301 -4 5 -8 5 -12c0 -6.66699 -4.66699 -10 -14 -10c-12.667 0 -23.667 4.33301 -33 13z" />
    <glyph glyph-name="idieresis" unicode="&#xef;" horiz-adv-x="249" 
d="M100 21l-0.00195312 468c0 7.33301 2.33301 13.333 7 18s10.334 7 17.001 7c7.33301 0 13.333 -2.33301 18 -7s7 -10.667 7 -18v-468c0 -7.33301 -2.16699 -13.333 -6.5 -18s-10.166 -7 -17.499 -7s-13.333 2.33301 -18 7s-7 10.667 -7 18zM205.998 679
c10 0 18.333 -3.16699 25 -9.5s10 -14.5 10 -24.5v-20c0 -10 -3.33301 -18.167 -10 -24.5s-15 -9.5 -25 -9.5s-18.333 3.16699 -25 9.5s-10 14.5 -10 24.5v20c0 10 3.33301 18.167 10 24.5s15 9.5 25 9.5zM41.998 679c10 0 18.333 -3.16699 25 -9.5s10 -14.5 10 -24.5v-20
c0 -10 -3.33301 -18.167 -10 -24.5s-15 -9.5 -25 -9.5s-18.333 3.16699 -25 9.5s-10 14.5 -10 24.5v20c0 10 3.33301 18.167 10 24.5s15 9.5 25 9.5z" />
    <glyph glyph-name="eth" unicode="&#xf0;" horiz-adv-x="628" 
d="M475 423l-146.998 207.999l-122 -62c-4 -2 -8 -3 -12 -3c-6 0 -11.167 2.33301 -15.5 7s-6.5 10 -6.5 16c0 8.66699 4.66699 15.334 14 20.001l117 57l-18 26c-4 5.33301 -6 11.333 -6 18s2.5 12.334 7.5 17.001s10.833 7 17.5 7c9.33301 0 17 -4.33301 23 -13l21 -32
l86 44c4 2 8 3 12 3c6 0 11.167 -2.33301 15.5 -7s6.5 -10 6.5 -16c0 -8.66699 -4.66699 -15.334 -14 -20.001l-81 -40l108 -161c29.333 -43.333 51.166 -83.5 65.499 -120.5s21.5 -78.167 21.5 -123.5c0 -71.333 -24.167 -132.5 -72.5 -183.5s-110.5 -76.5 -186.5 -76.5
c-71.333 0 -131 25.167 -179 75.5s-72 110.5 -72 180.5c0 70.667 23.667 128.667 71 174s103.666 68 168.999 68c63.333 0 122.333 -21 177 -63zM515.002 242.999c0 54.667 -20.334 101.499 -61.001 140.499s-90.667 58.5 -150 58.5c-58 0 -104.667 -19 -140 -57
s-53 -86 -53 -144c0 -55.333 19.5 -103.666 58.5 -144.999s87.167 -62 144.5 -62c58.667 0 106.834 20.5 144.501 61.5s56.5 90.167 56.5 147.5z" />
    <glyph glyph-name="ntilde" unicode="&#xf1;" horiz-adv-x="613" 
d="M93 21v468.001c0 7.33301 2.33301 13.333 7 18s10.334 7 17.001 7c7.33301 0 13.333 -2.33301 18 -7s7 -10.667 7 -18v-74c40.667 71.333 102 107 184 107c63.333 0 113.166 -19.5 149.499 -58.5s54.5 -89.5 54.5 -151.5v-291c0 -7.33301 -2.16699 -13.333 -6.5 -18
s-10.166 -7 -17.499 -7s-13.333 2.33301 -18 7s-7 10.667 -7 18v282c0 53.333 -14.333 95.666 -43 126.999s-68.334 47 -119.001 47s-92.834 -17.167 -126.501 -51.5s-50.5 -77.833 -50.5 -130.5v-274c0 -7.33301 -2.16699 -13.333 -6.5 -18s-10.166 -7 -17.499 -7
s-13.333 2.33301 -18 7s-7 10.667 -7 18zM205 598.001c-4.66699 -9.33301 -10.667 -14 -18 -14c-12 0 -18 5.66699 -18 17c0 4 0.666992 8 2 12c9.33301 28 20.166 47.5 32.499 58.5s27.833 16.5 46.5 16.5c13.333 0 35.333 -6.83301 66 -20.5s51.334 -20.5 62.001 -20.5
s19.334 2.83301 26.001 8.5s13 15.5 19 29.5c4.66699 9.33301 10.667 14 18 14c12 0 18 -5.66699 18 -17c0 -4 -0.666992 -8 -2 -12c-9.33301 -28 -20.166 -47.5 -32.499 -58.5s-27.833 -16.5 -46.5 -16.5c-13.333 0 -35.333 6.83301 -66 20.5s-51.334 20.5 -62.001 20.5
s-19.334 -2.83301 -26.001 -8.5s-13 -15.5 -19 -29.5z" />
    <glyph glyph-name="ograve" unicode="&#xf2;" horiz-adv-x="640" 
d="M319 -12c-74.667 0 -136.834 26 -186.501 78s-74.5 114.333 -74.5 187v2c0 72.667 25.167 135.334 75.5 188.001s112.833 79 187.5 79s136.834 -26 186.501 -78s74.5 -114.333 74.5 -187v-2c0 -72.667 -25.167 -135.334 -75.5 -188.001s-112.833 -79 -187.5 -79zM321 34
c60 0 109.667 21.333 149 64s59 94.334 59 155.001v2c0 61.333 -20.333 113.5 -61 156.5s-90.334 64.5 -149.001 64.5c-60 0 -109.667 -21.333 -149 -64s-59 -94.334 -59 -155.001v-2c0 -61.333 20.333 -113.5 61 -156.5s90.334 -64.5 149.001 -64.5zM321 592
c-12 0 -22.666 4.33301 -31.999 13l-80 77c-7.33301 7.33301 -11 13.333 -11 18c0 5.33301 4.66699 10.5 14 15.5s18.666 7.5 27.999 7.5c10.667 0 20 -6 28 -18l62 -93c2.66699 -4 4 -7.66699 4 -11c0 -6 -4.33301 -9 -13 -9z" />
    <glyph glyph-name="oacute" unicode="&#xf3;" horiz-adv-x="640" 
d="M319 -12c-74.667 0 -136.834 26 -186.501 78s-74.5 114.333 -74.5 187v2c0 72.667 25.167 135.334 75.5 188.001s112.833 79 187.5 79s136.834 -26 186.501 -78s74.5 -114.333 74.5 -187v-2c0 -72.667 -25.167 -135.334 -75.5 -188.001s-112.833 -79 -187.5 -79zM321 34
c60 0 109.667 21.333 149 64s59 94.334 59 155.001v2c0 61.333 -20.333 113.5 -61 156.5s-90.334 64.5 -149.001 64.5c-60 0 -109.667 -21.333 -149 -64s-59 -94.334 -59 -155.001v-2c0 -61.333 20.333 -113.5 61 -156.5s90.334 -64.5 149.001 -64.5zM319 592
c-8.66699 0 -12.999 3 -12.999 9c0 3.33301 1.33301 7 4 11l62 93c8 12 17.333 18 28 18c9.33301 0 18.666 -2.5 27.999 -7.5s14 -10.167 14 -15.5c0 -4.66699 -3.66699 -10.667 -11 -18l-80 -77c-9.33301 -8.66699 -20 -13 -32 -13z" />
    <glyph glyph-name="ocircumflex" unicode="&#xf4;" horiz-adv-x="640" 
d="M319 -12c-74.667 0 -136.834 26 -186.501 78s-74.5 114.333 -74.5 187v2c0 72.667 25.167 135.334 75.5 188.001s112.833 79 187.5 79s136.834 -26 186.501 -78s74.5 -114.333 74.5 -187v-2c0 -72.667 -25.167 -135.334 -75.5 -188.001s-112.833 -79 -187.5 -79zM321 34
c60 0 109.667 21.333 149 64s59 94.334 59 155.001v2c0 61.333 -20.333 113.5 -61 156.5s-90.334 64.5 -149.001 64.5c-60 0 -109.667 -21.333 -149 -64s-59 -94.334 -59 -155.001v-2c0 -61.333 20.333 -113.5 61 -156.5s90.334 -64.5 149.001 -64.5zM319 663l-63 -58
c-9.33301 -8.66699 -20 -13 -32 -13c-8.66699 0 -13 3.33301 -13 10c0 4 1.66699 8 5 12l72 88c10 12 19.333 18 28 18h8c8.66699 0 18 -6 28 -18l72 -88c3.33301 -4 5 -8 5 -12c0 -6.66699 -4.66699 -10 -14 -10c-12.667 0 -23.667 4.33301 -33 13z" />
    <glyph glyph-name="otilde" unicode="&#xf5;" horiz-adv-x="640" 
d="M319 -12c-74.667 0 -136.834 26 -186.501 78s-74.5 114.333 -74.5 187v2c0 72.667 25.167 135.334 75.5 188.001s112.833 79 187.5 79s136.834 -26 186.501 -78s74.5 -114.333 74.5 -187v-2c0 -72.667 -25.167 -135.334 -75.5 -188.001s-112.833 -79 -187.5 -79zM321 34
c60 0 109.667 21.333 149 64s59 94.334 59 155.001v2c0 61.333 -20.333 113.5 -61 156.5s-90.334 64.5 -149.001 64.5c-60 0 -109.667 -21.333 -149 -64s-59 -94.334 -59 -155.001v-2c0 -61.333 20.333 -113.5 61 -156.5s90.334 -64.5 149.001 -64.5zM214 598
c-4.66699 -9.33301 -10.667 -14 -18 -14c-12 0 -18 5.66699 -18 17c0 4 0.666992 8 2 12c9.33301 28 20.166 47.5 32.499 58.5s27.833 16.5 46.5 16.5c12.667 0 34.334 -6.83301 65.001 -20.5s51.667 -20.5 63 -20.5c10.667 0 19.334 2.83301 26.001 8.5s13 15.5 19 29.5
c4.66699 9.33301 10.667 14 18 14c12 0 18 -5.66699 18 -17c0 -4 -0.666992 -8 -2 -12c-9.33301 -28 -20.166 -47.5 -32.499 -58.5s-27.833 -16.5 -46.5 -16.5c-12.667 0 -34.334 6.83301 -65.001 20.5s-51.667 20.5 -63 20.5c-10.667 0 -19.334 -2.83301 -26.001 -8.5
s-13 -15.5 -19 -29.5z" />
    <glyph glyph-name="odieresis" unicode="&#xf6;" horiz-adv-x="640" 
d="M319 -12c-74.667 0 -136.834 26 -186.501 78s-74.5 114.333 -74.5 187v2c0 72.667 25.167 135.334 75.5 188.001s112.833 79 187.5 79s136.834 -26 186.501 -78s74.5 -114.333 74.5 -187v-2c0 -72.667 -25.167 -135.334 -75.5 -188.001s-112.833 -79 -187.5 -79zM321 34
c60 0 109.667 21.333 149 64s59 94.334 59 155.001v2c0 61.333 -20.333 113.5 -61 156.5s-90.334 64.5 -149.001 64.5c-60 0 -109.667 -21.333 -149 -64s-59 -94.334 -59 -155.001v-2c0 -61.333 20.333 -113.5 61 -156.5s90.334 -64.5 149.001 -64.5zM402 679
c10 0 18.333 -3.16699 25 -9.5s10 -14.5 10 -24.5v-20c0 -10 -3.33301 -18.167 -10 -24.5s-15 -9.5 -25 -9.5s-18.333 3.16699 -25 9.5s-10 14.5 -10 24.5v20c0 10 3.33301 18.167 10 24.5s15 9.5 25 9.5zM238 679c10 0 18.333 -3.16699 25 -9.5s10 -14.5 10 -24.5v-20
c0 -10 -3.33301 -18.167 -10 -24.5s-15 -9.5 -25 -9.5s-18.333 3.16699 -25 9.5s-10 14.5 -10 24.5v20c0 10 3.33301 18.167 10 24.5s15 9.5 25 9.5z" />
    <glyph glyph-name="divide" unicode="&#xf7;" horiz-adv-x="620" 
d="M88 328h444c6.66699 0 12.334 2.33301 17.001 7s7 10.334 7 17.001s-2.33301 12.334 -7 17.001s-10.334 7 -17.001 7h-444c-6.66699 0 -12.334 -2.33301 -17.001 -7s-7 -10.334 -7 -17.001s2.33301 -12.334 7 -17.001s10.334 -7 17.001 -7zM310 593
c10.667 0 20 -3.83301 28 -11.5s12 -17.167 12 -28.5v-17c0 -10.667 -4 -20 -12 -28s-17.333 -12 -28 -12s-20 4 -28 12s-12 17.333 -12 28v17c0 11.333 4 20.833 12 28.5s17.333 11.5 28 11.5zM310 208c10.667 0 20 -4 28 -12s12 -17.333 12 -28v-17
c0 -11.333 -4 -20.833 -12 -28.5s-17.333 -11.5 -28 -11.5s-20 3.83301 -28 11.5s-12 17.167 -12 28.5v17c0 10.667 4 20 12 28s17.333 12 28 12z" />
    <glyph glyph-name="oslash" unicode="&#xf8;" horiz-adv-x="640" 
d="M319 -12c-64 0 -119.667 20 -167 60l-48 -49c-5.33301 -5.33301 -11.333 -8 -18 -8c-5.33301 0 -10 1.83301 -14 5.5s-6 8.16699 -6 13.5c0 6 2 11 6 15l50 52c-42.667 51.333 -64 110 -64 176v2c0 72.667 25.167 135.334 75.5 188.001s112.833 79 187.5 79
c64 0 119.667 -20.333 167 -61l48 52c5.33301 5.33301 11.333 8 18 8c5.33301 0 10 -1.83301 14 -5.5s6 -8.16699 6 -13.5c0 -6 -2 -11 -6 -15l-51 -54c43.333 -50 65 -108.667 65 -176v-2c0 -72.667 -25.167 -135.334 -75.5 -188.001s-112.833 -79 -187.5 -79zM321 34
c60 0 109.666 21.332 148.999 63.999s59 94.334 59 155.001v2c0 53.333 -16 100.333 -48 141l-297 -310c38.667 -34.667 84.334 -52 137.001 -52zM110.999 254.999c0 -54 15.667 -100.999 47 -140.999l298 309c-39.333 35.333 -85 53 -137 53
c-60 0 -109.667 -21.333 -149 -64s-59 -94.334 -59 -155.001v-2z" />
    <glyph glyph-name="ugrave" unicode="&#xf9;" horiz-adv-x="613" 
d="M520 489v-468.001c0 -7.33301 -2.33301 -13.333 -7 -18s-10.334 -7 -17.001 -7c-7.33301 0 -13.333 2.33301 -18 7s-7 10.667 -7 18v74c-40.667 -71.333 -102 -107 -184 -107c-63.333 0 -113.166 19.5 -149.499 58.5s-54.5 89.5 -54.5 151.5v291
c0 7.33301 2.16699 13.333 6.5 18s10.166 7 17.499 7s13.333 -2.33301 18 -7s7 -10.667 7 -18v-282c0 -53.333 14.333 -95.666 43 -126.999s68.334 -47 119.001 -47s92.834 17.167 126.501 51.5s50.5 77.833 50.5 130.5v274c0 7.33301 2.16699 13.333 6.5 18
s10.166 7 17.499 7s13.333 -2.33301 18 -7s7 -10.667 7 -18zM302 591.999c-12 0 -22.666 4.33301 -31.999 13l-80 77c-7.33301 7.33301 -11 13.333 -11 18c0 5.33301 4.66699 10.5 14 15.5s18.666 7.5 27.999 7.5c10.667 0 20 -6 28 -18l62 -93c2.66699 -4 4 -7.66699 4 -11
c0 -6 -4.33301 -9 -13 -9z" />
    <glyph glyph-name="uacute" unicode="&#xfa;" horiz-adv-x="613" 
d="M520 489v-468.001c0 -7.33301 -2.33301 -13.333 -7 -18s-10.334 -7 -17.001 -7c-7.33301 0 -13.333 2.33301 -18 7s-7 10.667 -7 18v74c-40.667 -71.333 -102 -107 -184 -107c-63.333 0 -113.166 19.5 -149.499 58.5s-54.5 89.5 -54.5 151.5v291
c0 7.33301 2.16699 13.333 6.5 18s10.166 7 17.499 7s13.333 -2.33301 18 -7s7 -10.667 7 -18v-282c0 -53.333 14.333 -95.666 43 -126.999s68.334 -47 119.001 -47s92.834 17.167 126.501 51.5s50.5 77.833 50.5 130.5v274c0 7.33301 2.16699 13.333 6.5 18
s10.166 7 17.499 7s13.333 -2.33301 18 -7s7 -10.667 7 -18zM300 591.999c-8.66699 0 -12.999 3 -12.999 9c0 3.33301 1.33301 7 4 11l62 93c8 12 17.333 18 28 18c9.33301 0 18.666 -2.5 27.999 -7.5s14 -10.167 14 -15.5c0 -4.66699 -3.66699 -10.667 -11 -18l-80 -77
c-9.33301 -8.66699 -20 -13 -32 -13z" />
    <glyph glyph-name="ucircumflex" unicode="&#xfb;" horiz-adv-x="613" 
d="M520 489v-468.001c0 -7.33301 -2.33301 -13.333 -7 -18s-10.334 -7 -17.001 -7c-7.33301 0 -13.333 2.33301 -18 7s-7 10.667 -7 18v74c-40.667 -71.333 -102 -107 -184 -107c-63.333 0 -113.166 19.5 -149.499 58.5s-54.5 89.5 -54.5 151.5v291
c0 7.33301 2.16699 13.333 6.5 18s10.166 7 17.499 7s13.333 -2.33301 18 -7s7 -10.667 7 -18v-282c0 -53.333 14.333 -95.666 43 -126.999s68.334 -47 119.001 -47s92.834 17.167 126.501 51.5s50.5 77.833 50.5 130.5v274c0 7.33301 2.16699 13.333 6.5 18
s10.166 7 17.499 7s13.333 -2.33301 18 -7s7 -10.667 7 -18zM300 662.999l-63 -58c-9.33301 -8.66699 -20 -13 -32 -13c-8.66699 0 -13 3.33301 -13 10c0 4 1.66699 8 5 12l72 88c10 12 19.333 18 28 18h8c8.66699 0 18 -6 28 -18l72 -88c3.33301 -4 5 -8 5 -12
c0 -6.66699 -4.66699 -10 -14 -10c-12.667 0 -23.667 4.33301 -33 13z" />
    <glyph glyph-name="udieresis" unicode="&#xfc;" horiz-adv-x="613" 
d="M520 489v-468.001c0 -7.33301 -2.33301 -13.333 -7 -18s-10.334 -7 -17.001 -7c-7.33301 0 -13.333 2.33301 -18 7s-7 10.667 -7 18v74c-40.667 -71.333 -102 -107 -184 -107c-63.333 0 -113.166 19.5 -149.499 58.5s-54.5 89.5 -54.5 151.5v291
c0 7.33301 2.16699 13.333 6.5 18s10.166 7 17.499 7s13.333 -2.33301 18 -7s7 -10.667 7 -18v-282c0 -53.333 14.333 -95.666 43 -126.999s68.334 -47 119.001 -47s92.834 17.167 126.501 51.5s50.5 77.833 50.5 130.5v274c0 7.33301 2.16699 13.333 6.5 18
s10.166 7 17.499 7s13.333 -2.33301 18 -7s7 -10.667 7 -18zM383 678.999c10 0 18.333 -3.16699 25 -9.5s10 -14.5 10 -24.5v-20c0 -10 -3.33301 -18.167 -10 -24.5s-15 -9.5 -25 -9.5s-18.333 3.16699 -25 9.5s-10 14.5 -10 24.5v20c0 10 3.33301 18.167 10 24.5
s15 9.5 25 9.5zM219 678.999c10 0 18.333 -3.16699 25 -9.5s10 -14.5 10 -24.5v-20c0 -10 -3.33301 -18.167 -10 -24.5s-15 -9.5 -25 -9.5s-18.333 3.16699 -25 9.5s-10 14.5 -10 24.5v20c0 10 3.33301 18.167 10 24.5s15 9.5 25 9.5z" />
    <glyph glyph-name="yacute" unicode="&#xfd;" horiz-adv-x="588" 
d="M155 -163c-29.333 0 -58.333 5.33203 -87 15.999c-9.33301 3.33301 -14 10.333 -14 21c0 6.66699 2.16699 12.167 6.5 16.5s9.83301 6.5 16.5 6.5c2.66699 0 8 -1.33301 16 -4c18 -6.66699 39.667 -10 65 -10c27.333 0 50.333 9 69 27s36.667 46.667 54 86l3 7l-228 471
c-2.66699 6.66699 -4 11.667 -4 15c0 7.33301 2.5 13.333 7.5 18s11.167 7 18.5 7c11.333 0 20 -6.66699 26 -20l204 -440l178 442c4.66699 12 12.667 18 24 18c6.66699 0 12.5 -2.33301 17.5 -7s7.5 -10.667 7.5 -18c0 -3.33301 -1 -7.66602 -3 -12.999l-207 -494
c-22 -52 -46.5 -89.167 -73.5 -111.5s-59.167 -33.5 -96.5 -33.5zM297 591.999c-8.66699 0 -12.999 3 -12.999 9c0 3.33301 1.33301 7 4 11l62 93c8 12 17.333 18 28 18c9.33301 0 18.666 -2.5 27.999 -7.5s14 -10.167 14 -15.5c0 -4.66699 -3.66699 -10.667 -11 -18
l-80 -77c-9.33301 -8.66699 -20 -13 -32 -13z" />
    <glyph glyph-name="thorn" unicode="&#xfe;" 
d="M93 -139v847.999c0 7.33301 2.16699 13.333 6.5 18s10.166 7 17.499 7s13.333 -2.33301 18 -7s7 -10.667 7 -18v-313c55.333 84 125.333 126 210 126c65.333 0 123 -24.333 173 -73s75 -112.667 75 -192v-2c0 -79.333 -25 -143.666 -75 -192.999s-107.667 -74 -173 -74
c-86.667 0 -156.667 40.667 -210 122v-249c0 -7.33301 -2.16699 -13.333 -6.5 -18s-10.166 -7 -17.499 -7s-13.333 2.33301 -18 7s-7 10.667 -7 18zM347 34.999c57.333 0 105 19.667 143 59s57 92.333 57 159v2c0 65.333 -19.5 118.333 -58.5 159s-86.167 61 -141.5 61
s-103.833 -20.833 -145.5 -62.5s-62.5 -93.834 -62.5 -156.501v-2c0 -63.333 20.833 -115.666 62.5 -156.999s90.167 -62 145.5 -62z" />
    <glyph glyph-name="ydieresis" unicode="&#xff;" horiz-adv-x="588" 
d="M155 -163c-29.333 0 -58.333 5.33203 -87 15.999c-9.33301 3.33301 -14 10.333 -14 21c0 6.66699 2.16699 12.167 6.5 16.5s9.83301 6.5 16.5 6.5c2.66699 0 8 -1.33301 16 -4c18 -6.66699 39.667 -10 65 -10c27.333 0 50.333 9 69 27s36.667 46.667 54 86l3 7l-228 471
c-2.66699 6.66699 -4 11.667 -4 15c0 7.33301 2.5 13.333 7.5 18s11.167 7 18.5 7c11.333 0 20 -6.66699 26 -20l204 -440l178 442c4.66699 12 12.667 18 24 18c6.66699 0 12.5 -2.33301 17.5 -7s7.5 -10.667 7.5 -18c0 -3.33301 -1 -7.66602 -3 -12.999l-207 -494
c-22 -52 -46.5 -89.167 -73.5 -111.5s-59.167 -33.5 -96.5 -33.5zM380 678.999c10 0 18.333 -3.16699 25 -9.5s10 -14.5 10 -24.5v-20c0 -10 -3.33301 -18.167 -10 -24.5s-15 -9.5 -25 -9.5s-18.333 3.16699 -25 9.5s-10 14.5 -10 24.5v20c0 10 3.33301 18.167 10 24.5
s15 9.5 25 9.5zM216 678.999c10 0 18.333 -3.16699 25 -9.5s10 -14.5 10 -24.5v-20c0 -10 -3.33301 -18.167 -10 -24.5s-15 -9.5 -25 -9.5s-18.333 3.16699 -25 9.5s-10 14.5 -10 24.5v20c0 10 3.33301 18.167 10 24.5s15 9.5 25 9.5z" />
    <glyph glyph-name="Amacron" unicode="&#x100;" horiz-adv-x="790" 
d="M56 18c0 5.33301 1.33301 10.667 4 16l299 648c8 16.667 19.667 25 35 25h2c15.333 0 27 -8.33301 35 -25l298 -646c2.66699 -5.33301 4 -10.666 4 -15.999c0 -6.66699 -2.5 -12.334 -7.5 -17.001s-10.833 -7 -17.5 -7c-11.333 0 -20 6.66699 -26 20l-82 180h-413
l-82 -181c-5.33301 -12.667 -13.666 -19 -24.999 -19c-6.66699 0 -12.334 2.16699 -17.001 6.5s-7 9.5 -7 15.5zM209 243.001h369l-184 405zM526 801.001h-264c-6.66699 0 -12.334 2.33301 -17.001 7s-7 10.334 -7 17.001s2.33301 12.334 7 17.001s10.334 7 17.001 7h264
c6.66699 0 12.334 -2.33301 17.001 -7s7 -10.334 7 -17.001s-2.33301 -12.334 -7 -17.001s-10.334 -7 -17.001 -7z" />
    <glyph glyph-name="amacron" unicode="&#x101;" horiz-adv-x="574" 
d="M248 -12c-52 0 -97.8359 14.166 -137.503 42.499s-59.5 67.5 -59.5 117.5v2c0 52 20.333 92.667 61 122s94.667 44 162 44c57.333 0 113.666 -7.33301 168.999 -22v22c0 50.667 -14.667 89.334 -44 116.001s-70.666 40 -123.999 40
c-49.333 0 -97.666 -11.333 -144.999 -34c-4 -2 -7.66699 -3 -11 -3c-6 0 -11.333 2.33301 -16 7s-7 10 -7 16c0 10.667 4.66699 18 14 22c57.333 25.333 113.333 38 168 38c70 0 123.667 -18.667 161 -56c34.667 -34.667 52 -82.667 52 -144v-297
c0 -7.33301 -2.16699 -13.333 -6.5 -18s-10.166 -7 -17.499 -7s-13.166 2.33301 -17.499 7s-6.5 10.667 -6.5 18v64c-46 -64.667 -111 -97 -195 -97zM250.997 33.999c53.333 0 98.832 14.832 136.499 44.499s56.5 67.167 56.5 112.5v58c-60 15.333 -117.667 23 -173 23
c-53.333 0 -94.666 -10.833 -123.999 -32.5s-44 -50.5 -44 -86.5v-2c0 -35.333 14.5 -63.666 43.5 -84.999s63.833 -32 104.5 -32zM418.996 620.998h-264c-6.66699 0 -12.334 2.33301 -17.001 7s-7 10.334 -7 17.001s2.33301 12.334 7 17.001s10.334 7 17.001 7h264
c6.66699 0 12.334 -2.33301 17.001 -7s7 -10.334 7 -17.001s-2.33301 -12.334 -7 -17.001s-10.334 -7 -17.001 -7z" />
    <glyph glyph-name="Abreve" unicode="&#x102;" horiz-adv-x="790" 
d="M56 18c0 5.33301 1.33301 10.667 4 16l299 648c8 16.667 19.667 25 35 25h2c15.333 0 27 -8.33301 35 -25l298 -646c2.66699 -5.33301 4 -10.666 4 -15.999c0 -6.66699 -2.5 -12.334 -7.5 -17.001s-10.833 -7 -17.5 -7c-11.333 0 -20 6.66699 -26 20l-82 180h-413
l-82 -181c-5.33301 -12.667 -13.666 -19 -24.999 -19c-6.66699 0 -12.334 2.16699 -17.001 6.5s-7 9.5 -7 15.5zM209 243.001h369l-184 405zM394 773.001c-55.333 0 -95 22.667 -119 68c-7.33301 13.333 -11 26 -11 38c0 14.667 6.33301 22 19 22c10 0 17 -5.66699 21 -17
c15.333 -40 45.333 -60 90 -60s74.667 20 90 60c4 11.333 11 17 21 17c12.667 0 19 -7.33301 19 -22c0 -12 -3.66699 -24.667 -11 -38c-24 -45.333 -63.667 -68 -119 -68z" />
    <glyph glyph-name="abreve" unicode="&#x103;" horiz-adv-x="574" 
d="M248 -12c-52 0 -97.8359 14.166 -137.503 42.499s-59.5 67.5 -59.5 117.5v2c0 52 20.333 92.667 61 122s94.667 44 162 44c57.333 0 113.666 -7.33301 168.999 -22v22c0 50.667 -14.667 89.334 -44 116.001s-70.666 40 -123.999 40
c-49.333 0 -97.666 -11.333 -144.999 -34c-4 -2 -7.66699 -3 -11 -3c-6 0 -11.333 2.33301 -16 7s-7 10 -7 16c0 10.667 4.66699 18 14 22c57.333 25.333 113.333 38 168 38c70 0 123.667 -18.667 161 -56c34.667 -34.667 52 -82.667 52 -144v-297
c0 -7.33301 -2.16699 -13.333 -6.5 -18s-10.166 -7 -17.499 -7s-13.166 2.33301 -17.499 7s-6.5 10.667 -6.5 18v64c-46 -64.667 -111 -97 -195 -97zM250.997 33.999c53.333 0 98.832 14.832 136.499 44.499s56.5 67.167 56.5 112.5v58c-60 15.333 -117.667 23 -173 23
c-53.333 0 -94.666 -10.833 -123.999 -32.5s-44 -50.5 -44 -86.5v-2c0 -35.333 14.5 -63.666 43.5 -84.999s63.833 -32 104.5 -32zM286.996 592.998c-55.333 0 -95 22.667 -119 68c-7.33301 13.333 -11 26 -11 38c0 14.667 6.33301 22 19 22c10 0 17 -5.66699 21 -17
c15.333 -40 45.333 -60 90 -60s74.667 20 90 60c4 11.333 11 17 21 17c12.667 0 19 -7.33301 19 -22c0 -12 -3.66699 -24.667 -11 -38c-24 -45.333 -63.667 -68 -119 -68z" />
    <glyph glyph-name="Aogonek" unicode="&#x104;" horiz-adv-x="790" 
d="M56 18c0 5.33301 1.33301 10.666 4 15.999l299 648c8 16.667 19.667 25 35 25h2c15.333 0 27 -8.33301 35 -25l301 -652c2.66699 -5.33301 4 -10.666 4 -15.999c0 -7.33301 -4 -14.333 -12 -21c-32 -26.667 -48 -50.667 -48 -72c0 -24 17.667 -39.333 53 -46
c18 -3.33301 27 -10 27 -20c0 -12 -6.66699 -18 -20 -18c-7.33301 0 -16 0.833008 -26 2.5s-21.833 5 -35.5 10s-25.167 13.167 -34.5 24.5s-14 25 -14 41c0 29.333 20 60 60 92l-86 189h-413l-82 -181c-5.33301 -12.667 -13.666 -19 -24.999 -19
c-6.66699 0 -12.334 2.16699 -17.001 6.5s-7 9.5 -7 15.5zM209 243h369l-184 405z" />
    <glyph glyph-name="aogonek" unicode="&#x105;" horiz-adv-x="574" 
d="M381 -85c0 30.667 20.666 61.999 61.999 93.999v76c-46 -64.667 -111 -97 -195 -97c-52 0 -97.833 14.167 -137.5 42.5s-59.5 67.5 -59.5 117.5v2c0 52 20.333 92.667 61 122s94.667 44 162 44c57.333 0 113.666 -7.33301 168.999 -22v22
c0 50.667 -14.667 89.334 -44 116.001s-70.666 40 -123.999 40c-49.333 0 -97.666 -11.333 -144.999 -34c-4 -2 -7.66699 -3 -11 -3c-6 0 -11.333 2.33301 -16 7s-7 10 -7 16c0 10.667 4.66699 18 14 22c57.333 25.333 113.333 38 168 38c70 0 123.667 -18.667 161 -56
c34.667 -34.667 52 -82.667 52 -144v-301c0 -10 -4.66699 -18.667 -14 -26c-30.667 -26 -46 -49.333 -46 -70c0 -24 17.667 -39.333 53 -46c18 -3.33301 27 -10 27 -20c0 -12 -6.66699 -18 -20 -18c-7.33301 0 -16 0.833008 -26 2.5s-21.833 5 -35.5 10
s-25.167 13.167 -34.5 24.5s-14 25 -14 41zM250.999 33.999c53.333 0 98.832 14.832 136.499 44.499s56.5 67.167 56.5 112.5v58c-60 15.333 -117.667 23 -173 23c-53.333 0 -94.666 -10.833 -123.999 -32.5s-44 -50.5 -44 -86.5v-2c0 -35.333 14.5 -63.666 43.5 -84.999
s63.833 -32 104.5 -32z" />
    <glyph glyph-name="Cacute" unicode="&#x106;" horiz-adv-x="738" 
d="M421 -12c-99.333 0 -182.17 34.6689 -248.503 104.002s-99.5 154.666 -99.5 255.999v2c0 100 33.333 185.333 100 256s150 106 250 106c54 0 101 -8.33301 141 -25s78.667 -41 116 -73c6.66699 -6.66699 10 -13.667 10 -21c0 -6.66699 -2.66699 -12.667 -8 -18
s-11.666 -8 -18.999 -8s-13.333 2.33301 -18 7c-66.667 60.667 -141 91 -223 91c-84 0 -154.167 -30.167 -210.5 -90.5s-84.5 -134.5 -84.5 -222.5v-2c0 -88.667 28.5 -163.334 85.5 -224.001s127.167 -91 210.5 -91c46 0 86.833 8 122.5 24s70.834 40.333 105.501 73
c5.33301 5.33301 11.333 8 18 8s12.5 -2.5 17.5 -7.5s7.5 -10.833 7.5 -17.5s-2.66699 -12.667 -8 -18c-38.667 -36 -78.667 -63.167 -120 -81.5s-89.666 -27.5 -144.999 -27.5zM416.996 772.002c-8.66699 0 -12.999 3 -12.999 9c0 3.33301 1.33301 7 4 11l62 93
c8 12 17.333 18 28 18c9.33301 0 18.666 -2.5 27.999 -7.5s14 -10.167 14 -15.5c0 -4.66699 -3.66699 -10.667 -11 -18l-80 -77c-9.33301 -8.66699 -20 -13 -32 -13z" />
    <glyph glyph-name="cacute" unicode="&#x107;" horiz-adv-x="571" 
d="M318 -12c-72.667 0 -134.166 26.166 -184.499 78.499s-75.5 114.5 -75.5 186.5v2c0 72 25.333 134.5 76 187.5s112 79.5 184 79.5c70 0 134 -27 192 -81c4.66699 -4.66699 7 -10.667 7 -18s-2.5 -13.333 -7.5 -18s-10.833 -7 -17.5 -7c-7.33301 0 -13 2 -17 6
c-50.667 48 -103.334 72 -158.001 72c-58 0 -106.833 -21.167 -146.5 -63.5s-59.5 -94.166 -59.5 -155.499v-2c0 -61.333 20.333 -113.5 61 -156.5s90.334 -64.5 149.001 -64.5c58 0 111.333 24.333 160 73c5.33301 5.33301 10.666 8 15.999 8c6 0 11.5 -2.5 16.5 -7.5
s7.5 -10.5 7.5 -16.5s-2 -11 -6 -15c-57.333 -58.667 -123 -88 -197 -88zM312.001 591.999c-8.66699 0 -12.999 3 -12.999 9c0 3.33301 1.33301 7 4 11l62 93c8 12 17.333 18 28 18c9.33301 0 18.666 -2.5 27.999 -7.5s14 -10.167 14 -15.5
c0 -4.66699 -3.66699 -10.667 -11 -18l-80 -77c-9.33301 -8.66699 -20 -13 -32 -13z" />
    <glyph glyph-name="Cdotaccent" unicode="&#x10a;" horiz-adv-x="738" 
d="M421 -12c-99.333 0 -182.17 34.6689 -248.503 104.002s-99.5 154.666 -99.5 255.999v2c0 100 33.333 185.333 100 256s150 106 250 106c54 0 101 -8.33301 141 -25s78.667 -41 116 -73c6.66699 -6.66699 10 -13.667 10 -21c0 -6.66699 -2.66699 -12.667 -8 -18
s-11.666 -8 -18.999 -8s-13.333 2.33301 -18 7c-66.667 60.667 -141 91 -223 91c-84 0 -154.167 -30.167 -210.5 -90.5s-84.5 -134.5 -84.5 -222.5v-2c0 -88.667 28.5 -163.334 85.5 -224.001s127.167 -91 210.5 -91c46 0 86.833 8 122.5 24s70.834 40.333 105.501 73
c5.33301 5.33301 11.333 8 18 8s12.5 -2.5 17.5 -7.5s7.5 -10.833 7.5 -17.5s-2.66699 -12.667 -8 -18c-38.667 -36 -78.667 -63.167 -120 -81.5s-89.666 -27.5 -144.999 -27.5zM453.996 825.002v-19c0 -10.667 -3.33301 -19.167 -10 -25.5s-15.334 -9.5 -26.001 -9.5
s-19.334 3.16699 -26.001 9.5s-10 14.833 -10 25.5v19c0 10.667 3.33301 19.167 10 25.5s15.334 9.5 26.001 9.5s19.334 -3.16699 26.001 -9.5s10 -14.833 10 -25.5z" />
    <glyph glyph-name="cdotaccent" unicode="&#x10b;" horiz-adv-x="571" 
d="M318 -12c-72.667 0 -134.166 26.166 -184.499 78.499s-75.5 114.5 -75.5 186.5v2c0 72 25.333 134.5 76 187.5s112 79.5 184 79.5c70 0 134 -27 192 -81c4.66699 -4.66699 7 -10.667 7 -18s-2.5 -13.333 -7.5 -18s-10.833 -7 -17.5 -7c-7.33301 0 -13 2 -17 6
c-50.667 48 -103.334 72 -158.001 72c-58 0 -106.833 -21.167 -146.5 -63.5s-59.5 -94.166 -59.5 -155.499v-2c0 -61.333 20.333 -113.5 61 -156.5s90.334 -64.5 149.001 -64.5c58 0 111.333 24.333 160 73c5.33301 5.33301 10.666 8 15.999 8c6 0 11.5 -2.5 16.5 -7.5
s7.5 -10.5 7.5 -16.5s-2 -11 -6 -15c-57.333 -58.667 -123 -88 -197 -88zM349.001 644.999v-19c0 -10.667 -3.33301 -19.167 -10 -25.5s-15.334 -9.5 -26.001 -9.5s-19.334 3.16699 -26.001 9.5s-10 14.833 -10 25.5v19c0 10.667 3.33301 19.167 10 25.5
s15.334 9.5 26.001 9.5s19.334 -3.16699 26.001 -9.5s10 -14.833 10 -25.5z" />
    <glyph glyph-name="Ccaron" unicode="&#x10c;" horiz-adv-x="738" 
d="M421 -12c-99.333 0 -182.17 34.6689 -248.503 104.002s-99.5 154.666 -99.5 255.999v2c0 100 33.333 185.333 100 256s150 106 250 106c54 0 101 -8.33301 141 -25s78.667 -41 116 -73c6.66699 -6.66699 10 -13.667 10 -21c0 -6.66699 -2.66699 -12.667 -8 -18
s-11.666 -8 -18.999 -8s-13.333 2.33301 -18 7c-66.667 60.667 -141 91 -223 91c-84 0 -154.167 -30.167 -210.5 -90.5s-84.5 -134.5 -84.5 -222.5v-2c0 -88.667 28.5 -163.334 85.5 -224.001s127.167 -91 210.5 -91c46 0 86.833 8 122.5 24s70.834 40.333 105.501 73
c5.33301 5.33301 11.333 8 18 8s12.5 -2.5 17.5 -7.5s7.5 -10.833 7.5 -17.5s-2.66699 -12.667 -8 -18c-38.667 -36 -78.667 -63.167 -120 -81.5s-89.666 -27.5 -144.999 -27.5zM418.996 829.002l63 58c9.33301 8.66699 20 13 32 13c8.66699 0 13 -3.33301 13 -10
c0 -4 -1.66699 -8 -5 -12l-72 -88c-10 -12 -19.333 -18 -28 -18h-8c-8.66699 0 -18 6 -28 18l-72 88c-3.33301 4 -5 8 -5 12c0 6.66699 4.66699 10 14 10c12.667 0 23.667 -4.33301 33 -13z" />
    <glyph glyph-name="ccaron" unicode="&#x10d;" horiz-adv-x="571" 
d="M318 -12c-72.667 0 -134.166 26.166 -184.499 78.499s-75.5 114.5 -75.5 186.5v2c0 72 25.333 134.5 76 187.5s112 79.5 184 79.5c70 0 134 -27 192 -81c4.66699 -4.66699 7 -10.667 7 -18s-2.5 -13.333 -7.5 -18s-10.833 -7 -17.5 -7c-7.33301 0 -13 2 -17 6
c-50.667 48 -103.334 72 -158.001 72c-58 0 -106.833 -21.167 -146.5 -63.5s-59.5 -94.166 -59.5 -155.499v-2c0 -61.333 20.333 -113.5 61 -156.5s90.334 -64.5 149.001 -64.5c58 0 111.333 24.333 160 73c5.33301 5.33301 10.666 8 15.999 8c6 0 11.5 -2.5 16.5 -7.5
s7.5 -10.5 7.5 -16.5s-2 -11 -6 -15c-57.333 -58.667 -123 -88 -197 -88zM314.001 648.999l63 58c9.33301 8.66699 20 13 32 13c8.66699 0 13 -3.33301 13 -10c0 -4 -1.66699 -8 -5 -12l-72 -88c-10 -12 -19.333 -18 -28 -18h-8c-8.66699 0 -18 6 -28 18l-72 88
c-3.33301 4 -5 8 -5 12c0 6.66699 4.66699 10 14 10c12.667 0 23.667 -4.33301 33 -13z" />
    <glyph glyph-name="Dcaron" unicode="&#x10e;" horiz-adv-x="782" 
d="M104 26v647.999c0 6.66699 2.66699 12.667 8 18s11.333 8 18 8h207c108.667 0 197.834 -33.167 267.501 -99.5s104.5 -149.166 104.5 -248.499v-2c0 -100 -34.833 -183.333 -104.5 -250s-158.834 -100 -267.501 -100h-207c-6.66699 0 -12.667 2.66699 -18 8
s-8 11.333 -8 18zM156 47.999l181 0.000976562c95.333 0 172.166 28.667 230.499 86s87.5 128.666 87.5 213.999v2c0 85.333 -29.167 157 -87.5 215s-135.166 87 -230.499 87h-181v-604zM376 819l63 58c9.33301 8.66699 20 13 32 13c8.66699 0 13 -3.33301 13 -10
c0 -4 -1.66699 -8 -5 -12l-72 -88c-10 -12 -19.333 -18 -28 -18h-8c-8.66699 0 -18 6 -28 18l-72 88c-3.33301 4 -5 8 -5 12c0 6.66699 4.66699 10 14 10c12.667 0 23.667 -4.33301 33 -13z" />
    <glyph glyph-name="dcaron" unicode="&#x10f;" 
d="M567 709v-687.999c0 -7.33301 -2.16699 -13.333 -6.5 -18s-10.166 -7 -17.499 -7s-13.333 2.33301 -18 7s-7 10.667 -7 18v93c-55.333 -84 -125.333 -126 -210 -126c-65.333 0 -123 24.333 -173 73s-75 112.667 -75 192v2c0 79.333 25 143.666 75 192.999
s107.667 74 173 74c86.667 0 156.667 -40.667 210 -122v309c0 7.33301 2.16699 13.333 6.5 18s10.166 7 17.499 7s13.333 -2.33301 18 -7s7 -10.667 7 -18zM313 475.001c-57.333 0 -105 -19.667 -143 -59s-57 -92.333 -57 -159v-2c0 -65.333 19.5 -118.333 58.5 -159
s86.167 -61 141.5 -61s103.833 20.833 145.5 62.5s62.5 93.834 62.5 156.501v2c0 63.333 -20.833 115.666 -62.5 156.999s-90.167 62 -145.5 62zM637 597.001l12 111c2.66699 17.333 12 26 28 26h13c11.333 0 17 -5.66699 17 -17c0 -4 -2 -12 -6 -24l-33 -97
c-4 -12 -9.66699 -18 -17 -18c-11.333 0 -16 6.33301 -14 19z" />
    <glyph glyph-name="Dcroat" unicode="&#x110;" horiz-adv-x="812" 
d="M79 376l55 -0.00292969v298c0 6.66699 2.66699 12.667 8 18s11.333 8 18 8h207c108.667 0 197.834 -33.167 267.501 -99.5s104.5 -149.166 104.5 -248.499v-2c0 -100 -34.833 -183.333 -104.5 -250s-158.834 -100 -267.501 -100h-207c-6.66699 0 -12.667 2.66699 -18 8
s-8 11.333 -8 18v302h-55c-6.66699 0 -12.334 2.33301 -17.001 7s-7 10.334 -7 17.001s2.33301 12.334 7 17.001s10.334 7 17.001 7zM186 651.997v-275.997h212c6.66699 0 12.334 -2.33301 17.001 -7s7 -10.334 7 -17.001s-2.33301 -12.334 -7 -17.001
s-10.334 -7 -17.001 -7h-212v-280h181c95.333 0 172.166 28.667 230.499 86s87.5 128.666 87.5 213.999v2c0 85.333 -29.167 157 -87.5 215s-135.166 87 -230.499 87h-181z" />
    <glyph glyph-name="dcroat" unicode="&#x111;" 
d="M567 709v-45.999h52c6 0 11.167 -2.16699 15.5 -6.5s6.5 -9.5 6.5 -15.5s-2.16699 -11.167 -6.5 -15.5s-9.5 -6.5 -15.5 -6.5h-52v-598c0 -7.33301 -2.16699 -13.333 -6.5 -18s-10.166 -7 -17.499 -7s-13.333 2.33301 -18 7s-7 10.667 -7 18v93
c-55.333 -84 -125.333 -126 -210 -126c-65.333 0 -123 24.333 -173 73s-75 112.667 -75 192v2c0 79.333 25 143.666 75 192.999s107.667 74 173 74c86.667 0 156.667 -40.667 210 -122v219h-167c-6 0 -11.167 2.16699 -15.5 6.5s-6.5 9.5 -6.5 15.5s2.16699 11.167 6.5 15.5
s9.5 6.5 15.5 6.5h167v46c0 7.33301 2.16699 13.333 6.5 18s10.166 7 17.499 7s13.333 -2.33301 18 -7s7 -10.667 7 -18zM313 475.001c-57.333 0 -105 -19.667 -143 -59s-57 -92.333 -57 -159v-2c0 -65.333 19.5 -118.333 58.5 -159s86.167 -61 141.5 -61
s103.833 20.833 145.5 62.5s62.5 93.834 62.5 156.501v2c0 63.333 -20.833 115.666 -62.5 156.999s-90.167 62 -145.5 62z" />
    <glyph glyph-name="Emacron" unicode="&#x112;" horiz-adv-x="670" 
d="M130 0c-6.66699 0 -12.667 2.67285 -18 8.00586s-8 11.333 -8 18v648c0 6.66699 2.66699 12.667 8 18s11.333 8 18 8h452c6.66699 0 12.334 -2.33301 17.001 -7s7 -10.334 7 -17.001s-2.33301 -12.334 -7 -17.001s-10.334 -7 -17.001 -7h-426v-275h381
c6.66699 0 12.334 -2.33301 17.001 -7s7 -10.334 7 -17.001s-2.33301 -12.334 -7 -17.001s-10.334 -7 -17.001 -7h-381v-281h431c6.66699 0 12.334 -2.33301 17.001 -7s7 -10.334 7 -17.001s-2.33301 -12.334 -7 -17.001s-10.334 -7 -17.001 -7h-457zM487 791.006h-264
c-6.66699 0 -12.334 2.33301 -17.001 7s-7 10.334 -7 17.001s2.33301 12.334 7 17.001s10.334 7 17.001 7h264c6.66699 0 12.334 -2.33301 17.001 -7s7 -10.334 7 -17.001s-2.33301 -12.334 -7 -17.001s-10.334 -7 -17.001 -7z" />
    <glyph glyph-name="emacron" unicode="&#x113;" horiz-adv-x="584" 
d="M110 279l370.999 0.000976562c-4 56 -21.667 103 -53 141s-74.666 57 -129.999 57c-50 0 -92.667 -18.833 -128 -56.5s-55.333 -84.834 -60 -141.501zM506.999 71.001c-55.333 -55.333 -121.668 -83 -199.001 -83c-68.667 0 -127.5 25 -176.5 75s-73.5 113.667 -73.5 191
v2c0 74.667 23.167 137.667 69.5 189s103.833 77 172.5 77c70 0 126.5 -25.333 169.5 -76s64.5 -113.334 64.5 -188.001c0 -6 -2.5 -11.333 -7.5 -16s-10.5 -7 -16.5 -7h-400c4.66699 -61.333 26.167 -110.166 64.5 -146.499s83.5 -54.5 135.5 -54.5c62 0 117 23.333 165 70
c4.66699 4.66699 10 7 16 7c6.66699 0 12.334 -2.16699 17.001 -6.5s7 -9.83301 7 -16.5c0 -6 -2.66699 -11.667 -8 -17zM431.997 621.001h-264c-6.66699 0 -12.334 2.33301 -17.001 7s-7 10.334 -7 17.001s2.33301 12.334 7 17.001s10.334 7 17.001 7h264
c6.66699 0 12.334 -2.33301 17.001 -7s7 -10.334 7 -17.001s-2.33301 -12.334 -7 -17.001s-10.334 -7 -17.001 -7z" />
    <glyph glyph-name="Ebreve" unicode="&#x114;" horiz-adv-x="670" 
d="M130 0c-6.66699 0 -12.667 2.67285 -18 8.00586s-8 11.333 -8 18v648c0 6.66699 2.66699 12.667 8 18s11.333 8 18 8h452c6.66699 0 12.334 -2.33301 17.001 -7s7 -10.334 7 -17.001s-2.33301 -12.334 -7 -17.001s-10.334 -7 -17.001 -7h-426v-275h381
c6.66699 0 12.334 -2.33301 17.001 -7s7 -10.334 7 -17.001s-2.33301 -12.334 -7 -17.001s-10.334 -7 -17.001 -7h-381v-281h431c6.66699 0 12.334 -2.33301 17.001 -7s7 -10.334 7 -17.001s-2.33301 -12.334 -7 -17.001s-10.334 -7 -17.001 -7h-457zM355 763.006
c-55.333 0 -95 22.667 -119 68c-7.33301 13.333 -11 26 -11 38c0 14.667 6.33301 22 19 22c10 0 17 -5.66699 21 -17c15.333 -40 45.333 -60 90 -60s74.667 20 90 60c4 11.333 11 17 21 17c12.667 0 19 -7.33301 19 -22c0 -12 -3.66699 -24.667 -11 -38
c-24 -45.333 -63.667 -68 -119 -68z" />
    <glyph glyph-name="ebreve" unicode="&#x115;" horiz-adv-x="584" 
d="M110 279l370.999 0.000976562c-4 56 -21.667 103 -53 141s-74.666 57 -129.999 57c-50 0 -92.667 -18.833 -128 -56.5s-55.333 -84.834 -60 -141.501zM506.999 71.001c-55.333 -55.333 -121.668 -83 -199.001 -83c-68.667 0 -127.5 25 -176.5 75s-73.5 113.667 -73.5 191
v2c0 74.667 23.167 137.667 69.5 189s103.833 77 172.5 77c70 0 126.5 -25.333 169.5 -76s64.5 -113.334 64.5 -188.001c0 -6 -2.5 -11.333 -7.5 -16s-10.5 -7 -16.5 -7h-400c4.66699 -61.333 26.167 -110.166 64.5 -146.499s83.5 -54.5 135.5 -54.5c62 0 117 23.333 165 70
c4.66699 4.66699 10 7 16 7c6.66699 0 12.334 -2.16699 17.001 -6.5s7 -9.83301 7 -16.5c0 -6 -2.66699 -11.667 -8 -17zM299.997 593.001c-55.333 0 -95 22.667 -119 68c-7.33301 13.333 -11 26 -11 38c0 14.667 6.33301 22 19 22c10 0 17 -5.66699 21 -17
c15.333 -40 45.333 -60 90 -60s74.667 20 90 60c4 11.333 11 17 21 17c12.667 0 19 -7.33301 19 -22c0 -12 -3.66699 -24.667 -11 -38c-24 -45.333 -63.667 -68 -119 -68z" />
    <glyph glyph-name="Edotaccent" unicode="&#x116;" horiz-adv-x="670" 
d="M130 0c-6.66699 0 -12.667 2.67285 -18 8.00586s-8 11.333 -8 18v648c0 6.66699 2.66699 12.667 8 18s11.333 8 18 8h452c6.66699 0 12.334 -2.33301 17.001 -7s7 -10.334 7 -17.001s-2.33301 -12.334 -7 -17.001s-10.334 -7 -17.001 -7h-426v-275h381
c6.66699 0 12.334 -2.33301 17.001 -7s7 -10.334 7 -17.001s-2.33301 -12.334 -7 -17.001s-10.334 -7 -17.001 -7h-381v-281h431c6.66699 0 12.334 -2.33301 17.001 -7s7 -10.334 7 -17.001s-2.33301 -12.334 -7 -17.001s-10.334 -7 -17.001 -7h-457zM391 815.006v-19
c0 -10.667 -3.33301 -19.167 -10 -25.5s-15.334 -9.5 -26.001 -9.5s-19.334 3.16699 -26.001 9.5s-10 14.833 -10 25.5v19c0 10.667 3.33301 19.167 10 25.5s15.334 9.5 26.001 9.5s19.334 -3.16699 26.001 -9.5s10 -14.833 10 -25.5z" />
    <glyph glyph-name="edotaccent" unicode="&#x117;" horiz-adv-x="584" 
d="M110 279l370.999 0.000976562c-4 56 -21.667 103 -53 141s-74.666 57 -129.999 57c-50 0 -92.667 -18.833 -128 -56.5s-55.333 -84.834 -60 -141.501zM506.999 71.001c-55.333 -55.333 -121.668 -83 -199.001 -83c-68.667 0 -127.5 25 -176.5 75s-73.5 113.667 -73.5 191
v2c0 74.667 23.167 137.667 69.5 189s103.833 77 172.5 77c70 0 126.5 -25.333 169.5 -76s64.5 -113.334 64.5 -188.001c0 -6 -2.5 -11.333 -7.5 -16s-10.5 -7 -16.5 -7h-400c4.66699 -61.333 26.167 -110.166 64.5 -146.499s83.5 -54.5 135.5 -54.5c62 0 117 23.333 165 70
c4.66699 4.66699 10 7 16 7c6.66699 0 12.334 -2.16699 17.001 -6.5s7 -9.83301 7 -16.5c0 -6 -2.66699 -11.667 -8 -17zM335.997 645.001v-19c0 -10.667 -3.33301 -19.167 -10 -25.5s-15.334 -9.5 -26.001 -9.5s-19.334 3.16699 -26.001 9.5s-10 14.833 -10 25.5v19
c0 10.667 3.33301 19.167 10 25.5s15.334 9.5 26.001 9.5s19.334 -3.16699 26.001 -9.5s10 -14.833 10 -25.5z" />
    <glyph glyph-name="Eogonek" unicode="&#x118;" horiz-adv-x="670" 
d="M130 0c-6.66699 0 -12.667 2.66895 -18 8.00195s-8 11.333 -8 18v648c0 6.66699 2.66699 12.667 8 18s11.333 8 18 8h452c6.66699 0 12.334 -2.33301 17.001 -7s7 -10.334 7 -17.001s-2.33301 -12.334 -7 -17.001s-10.334 -7 -17.001 -7h-426v-275h381
c6.66699 0 12.334 -2.33301 17.001 -7s7 -10.334 7 -17.001s-2.33301 -12.334 -7 -17.001s-10.334 -7 -17.001 -7h-381v-281h429c17.333 0 26 -7 26 -21c0 -9.33301 -5.33301 -18 -16 -26c-24 -18 -40.667 -32.667 -50 -44s-14 -23.666 -14 -36.999
c0 -23.333 17.333 -38.333 52 -45c18 -3.33301 27 -10 27 -20c0 -12 -6.66699 -18 -20 -18c-7.33301 0 -16 0.833008 -26 2.5s-21.833 4.83398 -35.5 9.50098s-25.167 12.667 -34.5 24s-14 25 -14 41c0 28 19 56.667 57 86h-407z" />
    <glyph glyph-name="eogonek" unicode="&#x119;" horiz-adv-x="584" 
d="M534 258c0 -6 -2.50098 -11.333 -7.50098 -16s-10.5 -7 -16.5 -7h-400c4.66699 -61.333 26.167 -110.166 64.5 -146.499s83.5 -54.5 135.5 -54.5c62 0 117 23.333 165 70c4.66699 4.66699 10 7 16 7c6.66699 0 12.334 -2.16699 17.001 -6.5s7 -9.83301 7 -16.5
c0 -6 -2.66699 -11.667 -8 -17c-7.33301 -7.33301 -20.333 -18.666 -39 -33.999c-30 -25.333 -50.5 -46 -61.5 -62s-16.5 -32 -16.5 -48c0 -28 18 -45.333 54 -52c18 -3.33301 27 -10 27 -20c0 -12 -6.66699 -18 -20 -18c-26.667 0 -51.667 6.66699 -75 20
s-35 34.333 -35 63c0 25.333 12.667 50.666 38 75.999c-23.333 -5.33301 -47 -8 -71 -8c-68.667 0 -127.5 25 -176.5 75s-73.5 113.667 -73.5 191v2c0 74.667 23.167 137.667 69.5 189s103.833 77 172.5 77c70 0 126.5 -25.333 169.5 -76s64.5 -113.334 64.5 -188.001z
M109.999 279l370.999 0.000976562c-4 56 -21.667 103 -53 141s-74.666 57 -129.999 57c-50 0 -92.667 -18.833 -128 -56.5s-55.333 -84.834 -60 -141.501z" />
    <glyph glyph-name="Ecaron" unicode="&#x11a;" horiz-adv-x="670" 
d="M130 0c-6.66699 0 -12.667 2.67285 -18 8.00586s-8 11.333 -8 18v648c0 6.66699 2.66699 12.667 8 18s11.333 8 18 8h452c6.66699 0 12.334 -2.33301 17.001 -7s7 -10.334 7 -17.001s-2.33301 -12.334 -7 -17.001s-10.334 -7 -17.001 -7h-426v-275h381
c6.66699 0 12.334 -2.33301 17.001 -7s7 -10.334 7 -17.001s-2.33301 -12.334 -7 -17.001s-10.334 -7 -17.001 -7h-381v-281h431c6.66699 0 12.334 -2.33301 17.001 -7s7 -10.334 7 -17.001s-2.33301 -12.334 -7 -17.001s-10.334 -7 -17.001 -7h-457zM356 819.006l63 58
c9.33301 8.66699 20 13 32 13c8.66699 0 13 -3.33301 13 -10c0 -4 -1.66699 -8 -5 -12l-72 -88c-10 -12 -19.333 -18 -28 -18h-8c-8.66699 0 -18 6 -28 18l-72 88c-3.33301 4 -5 8 -5 12c0 6.66699 4.66699 10 14 10c12.667 0 23.667 -4.33301 33 -13z" />
    <glyph glyph-name="ecaron" unicode="&#x11b;" horiz-adv-x="584" 
d="M110 279l370.999 0.000976562c-4 56 -21.667 103 -53 141s-74.666 57 -129.999 57c-50 0 -92.667 -18.833 -128 -56.5s-55.333 -84.834 -60 -141.501zM506.999 71.001c-55.333 -55.333 -121.668 -83 -199.001 -83c-68.667 0 -127.5 25 -176.5 75s-73.5 113.667 -73.5 191
v2c0 74.667 23.167 137.667 69.5 189s103.833 77 172.5 77c70 0 126.5 -25.333 169.5 -76s64.5 -113.334 64.5 -188.001c0 -6 -2.5 -11.333 -7.5 -16s-10.5 -7 -16.5 -7h-400c4.66699 -61.333 26.167 -110.166 64.5 -146.499s83.5 -54.5 135.5 -54.5c62 0 117 23.333 165 70
c4.66699 4.66699 10 7 16 7c6.66699 0 12.334 -2.16699 17.001 -6.5s7 -9.83301 7 -16.5c0 -6 -2.66699 -11.667 -8 -17zM300.997 649.001l63 58c9.33301 8.66699 20 13 32 13c8.66699 0 13 -3.33301 13 -10c0 -4 -1.66699 -8 -5 -12l-72 -88c-10 -12 -19.333 -18 -28 -18
h-8c-8.66699 0 -18 6 -28 18l-72 88c-3.33301 4 -5 8 -5 12c0 6.66699 4.66699 10 14 10c12.667 0 23.667 -4.33301 33 -13z" />
    <glyph glyph-name="Gbreve" unicode="&#x11e;" horiz-adv-x="784" 
d="M425 -12c-107.333 0 -192.835 34.498 -256.502 103.498s-95.5 154.5 -95.5 256.5v2c0 98 32.333 182.833 97 254.5s147.667 107.5 249 107.5c90.667 0 170.334 -26 239.001 -78c6.66699 -5.33301 10 -12.333 10 -21c0 -7.33301 -2.66699 -13.5 -8 -18.5
s-11.333 -7.5 -18 -7.5c-5.33301 0 -10.666 2.33301 -15.999 7c-60.667 47.333 -130.667 71 -210 71c-83.333 0 -152.333 -30.667 -207 -92s-82 -135 -82 -221v-2c0 -92.667 27 -168.5 81 -227.5s127 -88.5 219 -88.5c42 0 82.833 7.5 122.5 22.5s73.167 34.167 100.5 57.5
v201h-218c-6.66699 0 -12.334 2.33301 -17.001 7s-7 10.334 -7 17.001s2.33301 12.334 7 17.001s10.334 7 17.001 7h242c6.66699 0 12.667 -2.5 18 -7.5s8 -11.167 8 -18.5v-229c0 -10 -6 -20 -18 -30c-77.333 -60 -163 -90 -257 -90zM411.998 772.998
c-55.333 0 -95 22.667 -119 68c-7.33301 13.333 -11 26 -11 38c0 14.667 6.33301 22 19 22c10 0 17 -5.66699 21 -17c15.333 -40 45.333 -60 90 -60s74.667 20 90 60c4 11.333 11 17 21 17c12.667 0 19 -7.33301 19 -22c0 -12 -3.66699 -24.667 -11 -38
c-24 -45.333 -63.667 -68 -119 -68z" />
    <glyph glyph-name="gbreve" unicode="&#x11f;" 
d="M317 -162c-82 0 -156.334 23.334 -223.001 70.001c-7.33301 5.33301 -11 12.666 -11 21.999c0 5.33301 2.5 10.5 7.5 15.5s10.833 7.5 17.5 7.5c4 0 8.66699 -1.33301 14 -4c58.667 -43.333 124 -65 196 -65c60.667 0 109.167 17 145.5 51s54.5 83 54.5 147v74
c-54.667 -78.667 -125.667 -118 -213 -118c-64.667 0 -121.667 22.5 -171 67.5s-74 102.5 -74 172.5v2c0 70.667 24.667 128.667 74 174s106.333 68 171 68c88.667 0 159.667 -38 213 -114v81c0 7.33301 2.33301 13.333 7 18s10.334 7 17.001 7s12.5 -2.33301 17.5 -7
s7.5 -10.667 7.5 -18v-410c0 -72 -21.667 -129.667 -65 -173c-45.333 -45.333 -107 -68 -185 -68zM309.999 85.001c55.333 0 104.333 18.333 147 55s64 83 64 139v2c0 56.667 -21.167 103.167 -63.5 139.5s-91.5 54.5 -147.5 54.5c-55.333 0 -102 -17.667 -140 -53
s-57 -82 -57 -140v-2c0 -56 19.333 -102.5 58 -139.5s85 -55.5 139 -55.5zM329.999 593.001c-55.333 0 -95 22.667 -119 68c-7.33301 13.333 -11 26 -11 38c0 14.667 6.33301 22 19 22c10 0 17 -5.66699 21 -17c15.333 -40 45.333 -60 90 -60s74.667 20 90 60
c4 11.333 11 17 21 17c12.667 0 19 -7.33301 19 -22c0 -12 -3.66699 -24.667 -11 -38c-24 -45.333 -63.667 -68 -119 -68z" />
    <glyph glyph-name="Gdotaccent" unicode="&#x120;" horiz-adv-x="784" 
d="M425 -12c-107.333 0 -192.835 34.498 -256.502 103.498s-95.5 154.5 -95.5 256.5v2c0 98 32.333 182.833 97 254.5s147.667 107.5 249 107.5c90.667 0 170.334 -26 239.001 -78c6.66699 -5.33301 10 -12.333 10 -21c0 -7.33301 -2.66699 -13.5 -8 -18.5
s-11.333 -7.5 -18 -7.5c-5.33301 0 -10.666 2.33301 -15.999 7c-60.667 47.333 -130.667 71 -210 71c-83.333 0 -152.333 -30.667 -207 -92s-82 -135 -82 -221v-2c0 -92.667 27 -168.5 81 -227.5s127 -88.5 219 -88.5c42 0 82.833 7.5 122.5 22.5s73.167 34.167 100.5 57.5
v201h-218c-6.66699 0 -12.334 2.33301 -17.001 7s-7 10.334 -7 17.001s2.33301 12.334 7 17.001s10.334 7 17.001 7h242c6.66699 0 12.667 -2.5 18 -7.5s8 -11.167 8 -18.5v-229c0 -10 -6 -20 -18 -30c-77.333 -60 -163 -90 -257 -90zM447.998 824.998v-19
c0 -10.667 -3.33301 -19.167 -10 -25.5s-15.334 -9.5 -26.001 -9.5s-19.334 3.16699 -26.001 9.5s-10 14.833 -10 25.5v19c0 10.667 3.33301 19.167 10 25.5s15.334 9.5 26.001 9.5s19.334 -3.16699 26.001 -9.5s10 -14.833 10 -25.5z" />
    <glyph glyph-name="gdotaccent" unicode="&#x121;" 
d="M317 -162c-82 0 -156.334 23.334 -223.001 70.001c-7.33301 5.33301 -11 12.666 -11 21.999c0 5.33301 2.5 10.5 7.5 15.5s10.833 7.5 17.5 7.5c4 0 8.66699 -1.33301 14 -4c58.667 -43.333 124 -65 196 -65c60.667 0 109.167 17 145.5 51s54.5 83 54.5 147v74
c-54.667 -78.667 -125.667 -118 -213 -118c-64.667 0 -121.667 22.5 -171 67.5s-74 102.5 -74 172.5v2c0 70.667 24.667 128.667 74 174s106.333 68 171 68c88.667 0 159.667 -38 213 -114v81c0 7.33301 2.33301 13.333 7 18s10.334 7 17.001 7s12.5 -2.33301 17.5 -7
s7.5 -10.667 7.5 -18v-410c0 -72 -21.667 -129.667 -65 -173c-45.333 -45.333 -107 -68 -185 -68zM309.999 85.001c55.333 0 104.333 18.333 147 55s64 83 64 139v2c0 56.667 -21.167 103.167 -63.5 139.5s-91.5 54.5 -147.5 54.5c-55.333 0 -102 -17.667 -140 -53
s-57 -82 -57 -140v-2c0 -56 19.333 -102.5 58 -139.5s85 -55.5 139 -55.5zM365.999 645.001v-19c0 -10.667 -3.33301 -19.167 -10 -25.5s-15.334 -9.5 -26.001 -9.5s-19.334 3.16699 -26.001 9.5s-10 14.833 -10 25.5v19c0 10.667 3.33301 19.167 10 25.5
s15.334 9.5 26.001 9.5s19.334 -3.16699 26.001 -9.5s10 -14.833 10 -25.5z" />
    <glyph glyph-name="Gcommaaccent" unicode="&#x122;" horiz-adv-x="784" 
d="M425 -12c-107.333 0 -192.835 34.498 -256.502 103.498s-95.5 154.5 -95.5 256.5v2c0 98 32.333 182.833 97 254.5s147.667 107.5 249 107.5c90.667 0 170.334 -26 239.001 -78c6.66699 -5.33301 10 -12.333 10 -21c0 -7.33301 -2.66699 -13.5 -8 -18.5
s-11.333 -7.5 -18 -7.5c-5.33301 0 -10.666 2.33301 -15.999 7c-60.667 47.333 -130.667 71 -210 71c-83.333 0 -152.333 -30.667 -207 -92s-82 -135 -82 -221v-2c0 -92.667 27 -168.5 81 -227.5s127 -88.5 219 -88.5c42 0 82.833 7.5 122.5 22.5s73.167 34.167 100.5 57.5
v201h-218c-6.66699 0 -12.334 2.33301 -17.001 7s-7 10.334 -7 17.001s2.33301 12.334 7 17.001s10.334 7 17.001 7h242c6.66699 0 12.667 -2.5 18 -7.5s8 -11.167 8 -18.5v-229c0 -10 -6 -20 -18 -30c-77.333 -60 -163 -90 -257 -90zM406.998 -147.002
c-21.333 4.66699 -32 16.333 -32 35v6c0 10 3.5 18.5 10.5 25.5s15.5 10.5 25.5 10.5s18.5 -3.66699 25.5 -11s10.5 -17 10.5 -29v-6c0 -37.333 -8 -64 -24 -80c-8 -8 -18.667 -14.667 -32 -20s-24 -8 -32 -8c-8.66699 0 -13 3.66699 -13 11
c0 6.66699 4.33301 11.334 13 14.001c18 5.33301 30.5 11.666 37.5 18.999s10.5 18.333 10.5 33z" />
    <glyph glyph-name="gcommaaccent" unicode="&#x123;" 
d="M317 -162c-82 0 -156.334 23.334 -223.001 70.001c-7.33301 5.33301 -11 12.666 -11 21.999c0 5.33301 2.5 10.5 7.5 15.5s10.833 7.5 17.5 7.5c4 0 8.66699 -1.33301 14 -4c58.667 -43.333 124 -65 196 -65c60.667 0 109.167 17 145.5 51s54.5 83 54.5 147v74
c-54.667 -78.667 -125.667 -118 -213 -118c-64.667 0 -121.667 22.5 -171 67.5s-74 102.5 -74 172.5v2c0 70.667 24.667 128.667 74 174s106.333 68 171 68c88.667 0 159.667 -38 213 -114v81c0 7.33301 2.33301 13.333 7 18s10.334 7 17.001 7s12.5 -2.33301 17.5 -7
s7.5 -10.667 7.5 -18v-410c0 -72 -21.667 -129.667 -65 -173c-45.333 -45.333 -107 -68 -185 -68zM309.999 85.001c55.333 0 104.333 18.333 147 55s64 83 64 139v2c0 56.667 -21.167 103.167 -63.5 139.5s-91.5 54.5 -147.5 54.5c-55.333 0 -102 -17.667 -140 -53
s-57 -82 -57 -140v-2c0 -56 19.333 -102.5 58 -139.5s85 -55.5 139 -55.5zM333.999 668.001c21.333 -4.66699 32 -16.333 32 -35v-6c0 -10 -3.5 -18.5 -10.5 -25.5s-15.5 -10.5 -25.5 -10.5s-18.5 3.66699 -25.5 11s-10.5 17 -10.5 29v6c0 37.333 8 64 24 80
c8 8 18.667 14.667 32 20s24 8 32 8c8.66699 0 13 -3.66699 13 -11c0 -6.66699 -4.33301 -11.334 -13 -14.001c-18 -5.33301 -30.5 -11.666 -37.5 -18.999s-10.5 -18.333 -10.5 -33z" />
    <glyph glyph-name="Hbar" unicode="&#x126;" horiz-adv-x="820" 
d="M134 22v488h-57c-6 0 -11.167 2.16699 -15.5 6.5s-6.5 9.5 -6.5 15.5s2.16699 11.167 6.5 15.5s9.5 6.5 15.5 6.5h57v124c0 6.66699 2.66699 12.667 8 18s11.333 8 18 8s12.667 -2.66699 18 -8s8 -11.333 8 -18v-124h448v124c0 6.66699 2.66699 12.667 8 18
s11.333 8 18 8s12.667 -2.66699 18 -8s8 -11.333 8 -18v-124h57c6 0 11.167 -2.16699 15.5 -6.5s6.5 -9.5 6.5 -15.5s-2.16699 -11.167 -6.5 -15.5s-9.5 -6.5 -15.5 -6.5h-57v-488c0 -6.66699 -2.66699 -12.667 -8 -18s-11.333 -8 -18 -8s-12.667 2.66699 -18 8
s-8 11.333 -8 18v306h-448v-306c0 -6.66699 -2.66699 -12.667 -8 -18s-11.333 -8 -18 -8s-12.667 2.66699 -18 8s-8 11.333 -8 18zM186 376h448v134h-448v-134z" />
    <glyph glyph-name="hbar" unicode="&#x127;" horiz-adv-x="613" 
d="M93 21v598.001h-52c-6 0 -11.167 2.16699 -15.5 6.5s-6.5 9.5 -6.5 15.5s2.16699 11.167 6.5 15.5s9.5 6.5 15.5 6.5h52v46c0 7.33301 2.33301 13.333 7 18s10.334 7 17.001 7c7.33301 0 13.333 -2.33301 18 -7s7 -10.667 7 -18v-46h167c6 0 11.167 -2.16699 15.5 -6.5
s6.5 -9.5 6.5 -15.5s-2.16699 -11.167 -6.5 -15.5s-9.5 -6.5 -15.5 -6.5h-167v-204c40.667 71.333 102 107 184 107c63.333 0 113.166 -19.5 149.499 -58.5s54.5 -89.5 54.5 -151.5v-291c0 -7.33301 -2.16699 -13.333 -6.5 -18s-10.166 -7 -17.499 -7s-13.333 2.33301 -18 7
s-7 10.667 -7 18v282c0 53.333 -14.333 95.666 -43 126.999s-68.334 47 -119.001 47s-92.834 -17.167 -126.501 -51.5s-50.5 -77.833 -50.5 -130.5v-274c0 -7.33301 -2.16699 -13.333 -6.5 -18s-10.166 -7 -17.499 -7s-13.333 2.33301 -18 7s-7 10.667 -7 18z" />
    <glyph glyph-name="Imacron" unicode="&#x12a;" horiz-adv-x="274" 
d="M111 22v656c0 6.66699 2.5 12.667 7.5 18s11.167 8 18.5 8s13.5 -2.66699 18.5 -8s7.5 -11.333 7.5 -18v-656c0 -6.66699 -2.5 -12.667 -7.5 -18s-11.167 -8 -18.5 -8s-13.5 2.66699 -18.5 8s-7.5 11.333 -7.5 18zM269 791h-264c-6.66699 0 -12.334 2.33301 -17.001 7
s-7 10.334 -7 17.001s2.33301 12.334 7 17.001s10.334 7 17.001 7h264c6.66699 0 12.334 -2.33301 17.001 -7s7 -10.334 7 -17.001s-2.33301 -12.334 -7 -17.001s-10.334 -7 -17.001 -7z" />
    <glyph glyph-name="imacron" unicode="&#x12b;" horiz-adv-x="249" 
d="M100 21l-0.00195312 468c0 7.33301 2.33301 13.333 7 18s10.334 7 17.001 7c7.33301 0 13.333 -2.33301 18 -7s7 -10.667 7 -18v-468c0 -7.33301 -2.16699 -13.333 -6.5 -18s-10.166 -7 -17.499 -7s-13.333 2.33301 -18 7s-7 10.667 -7 18zM255.998 621h-264
c-6.66699 0 -12.334 2.33301 -17.001 7s-7 10.334 -7 17.001s2.33301 12.334 7 17.001s10.334 7 17.001 7h264c6.66699 0 12.334 -2.33301 17.001 -7s7 -10.334 7 -17.001s-2.33301 -12.334 -7 -17.001s-10.334 -7 -17.001 -7z" />
    <glyph glyph-name="Ibreve" unicode="&#x12c;" horiz-adv-x="274" 
d="M111 22v656c0 6.66699 2.5 12.667 7.5 18s11.167 8 18.5 8s13.5 -2.66699 18.5 -8s7.5 -11.333 7.5 -18v-656c0 -6.66699 -2.5 -12.667 -7.5 -18s-11.167 -8 -18.5 -8s-13.5 2.66699 -18.5 8s-7.5 11.333 -7.5 18zM137 763c-55.333 0 -95 22.667 -119 68
c-7.33301 13.333 -11 26 -11 38c0 14.667 6.33301 22 19 22c10 0 17 -5.66699 21 -17c15.333 -40 45.333 -60 90 -60s74.667 20 90 60c4 11.333 11 17 21 17c12.667 0 19 -7.33301 19 -22c0 -12 -3.66699 -24.667 -11 -38c-24 -45.333 -63.667 -68 -119 -68z" />
    <glyph glyph-name="ibreve" unicode="&#x12d;" horiz-adv-x="249" 
d="M100 21l-0.00195312 468c0 7.33301 2.33301 13.333 7 18s10.334 7 17.001 7c7.33301 0 13.333 -2.33301 18 -7s7 -10.667 7 -18v-468c0 -7.33301 -2.16699 -13.333 -6.5 -18s-10.166 -7 -17.499 -7s-13.333 2.33301 -18 7s-7 10.667 -7 18zM123.998 593
c-55.333 0 -95 22.667 -119 68c-7.33301 13.333 -11 26 -11 38c0 14.667 6.33301 22 19 22c10 0 17 -5.66699 21 -17c15.333 -40 45.333 -60 90 -60s74.667 20 90 60c4 11.333 11 17 21 17c12.667 0 19 -7.33301 19 -22c0 -12 -3.66699 -24.667 -11 -38
c-24 -45.333 -63.667 -68 -119 -68z" />
    <glyph glyph-name="Iogonek" unicode="&#x12e;" horiz-adv-x="274" 
d="M53 -85c0 30 19.333 60.334 58 91.001v672c0 6.66699 2.5 12.667 7.5 18s11.167 8 18.5 8s13.5 -2.66699 18.5 -8s7.5 -11.333 7.5 -18v-661c0 -10 -4.33301 -18.333 -13 -25c-18 -15.333 -30.333 -27.833 -37 -37.5s-10 -20.834 -10 -33.501
c0 -24 17.667 -39.333 53 -46c18 -3.33301 27 -10 27 -20c0 -12 -6.66699 -18 -20 -18c-7.33301 0 -16 0.833008 -26 2.5s-21.833 5 -35.5 10s-25.167 13.167 -34.5 24.5s-14 25 -14 41z" />
    <glyph glyph-name="iogonek" unicode="&#x12f;" horiz-adv-x="249" 
d="M149 489l-0.000976562 -472c0 -10 -4.66699 -18.667 -14 -26c-30.667 -26 -46 -49.333 -46 -70c0 -24 17.667 -39.333 53 -46c18 -3.33301 27 -10 27 -20c0 -12 -6.66699 -18 -20 -18c-7.33301 0 -16 0.833008 -26 2.5s-21.833 5 -35.5 10s-25.167 13.167 -34.5 24.5
s-14 25 -14 41c0 30.667 20.333 61.667 61 93v481c0 7.33301 2.33301 13.333 7 18s10.334 7 17.001 7c7.33301 0 13.333 -2.33301 18 -7s7 -10.667 7 -18zM93.999 668v17c0 8.66699 2.83301 15.834 8.5 21.501s12.834 8.5 21.501 8.5s16 -2.83301 22 -8.5
s9 -12.834 9 -21.501v-17c0 -8.66699 -3 -15.834 -9 -21.501s-13.333 -8.5 -22 -8.5s-15.834 2.83301 -21.501 8.5s-8.5 12.834 -8.5 21.501z" />
    <glyph glyph-name="Idotaccent" unicode="&#x130;" horiz-adv-x="274" 
d="M111 22v656c0 6.66699 2.5 12.667 7.5 18s11.167 8 18.5 8s13.5 -2.66699 18.5 -8s7.5 -11.333 7.5 -18v-656c0 -6.66699 -2.5 -12.667 -7.5 -18s-11.167 -8 -18.5 -8s-13.5 2.66699 -18.5 8s-7.5 11.333 -7.5 18zM173 815v-19c0 -10.667 -3.33301 -19.167 -10 -25.5
s-15.334 -9.5 -26.001 -9.5s-19.334 3.16699 -26.001 9.5s-10 14.833 -10 25.5v19c0 10.667 3.33301 19.167 10 25.5s15.334 9.5 26.001 9.5s19.334 -3.16699 26.001 -9.5s10 -14.833 10 -25.5z" />
    <glyph glyph-name="dotlessi" unicode="&#x131;" horiz-adv-x="249" 
d="M100 21l-0.00195312 468c0 7.33301 2.33301 13.333 7 18s10.334 7 17.001 7c7.33301 0 13.333 -2.33301 18 -7s7 -10.667 7 -18v-468c0 -7.33301 -2.16699 -13.333 -6.5 -18s-10.166 -7 -17.499 -7s-13.333 2.33301 -18 7s-7 10.667 -7 18z" />
    <glyph glyph-name="Kcommaaccent" unicode="&#x136;" horiz-adv-x="715" 
d="M104 22l-0.000976562 655.999c0 6.66699 2.66699 12.667 8 18s11.333 8 18 8s12.667 -2.66699 18 -8s8 -11.333 8 -18v-438l442 456c5.33301 5.33301 11.333 8 18 8s12.667 -2.66699 18 -8s8 -11.333 8 -18s-2.66699 -12.667 -8 -18l-267 -269l285 -349
c5.33301 -6.66699 8 -13 8 -19c0 -7.33301 -2.66699 -13.666 -8 -18.999s-11.666 -8 -18.999 -8c-8 0 -14.667 3.33301 -20 10l-283 348l-174 -176v-156c0 -6.66699 -2.66699 -12.667 -8 -18s-11.333 -8 -18 -8s-12.667 2.66699 -18 8s-8 11.333 -8 18zM356.999 -142.001
c-21.333 4.66699 -32 16.333 -32 35v6c0 10 3.5 18.5 10.5 25.5s15.5 10.5 25.5 10.5s18.5 -3.66699 25.5 -11s10.5 -17 10.5 -29v-6c0 -37.333 -8 -64 -24 -80c-8 -8 -18.667 -14.667 -32 -20s-24 -8 -32 -8c-8.66699 0 -13 3.66699 -13 11
c0 6.66699 4.33301 11.334 13 14.001c18 5.33301 30.5 11.666 37.5 18.999s10.5 18.333 10.5 33z" />
    <glyph glyph-name="kcommaaccent" unicode="&#x137;" horiz-adv-x="560" 
d="M93 21l-0.00292969 688c0 7.33301 2.33301 13.333 7 18s10.334 7 17.001 7c7.33301 0 13.333 -2.33301 18 -7s7 -10.667 7 -18v-526l313 324c4.66699 4.66699 10.334 7 17.001 7s12.167 -2.16699 16.5 -6.5s6.5 -9.83301 6.5 -16.5c0 -6 -2.66699 -11.667 -8 -17
l-187 -190l200 -247c4.66699 -5.33301 7 -11.333 7 -18c0 -15.333 -8 -23 -24 -23c-7.33301 0 -14.333 3.66699 -21 11l-196 242l-124 -125v-103c0 -7.33301 -2.16699 -13.333 -6.5 -18s-10.166 -7 -17.499 -7s-13.333 2.33301 -18 7s-7 10.667 -7 18zM291.997 -147
c-21.333 4.66699 -32 16.333 -32 35v6c0 10 3.5 18.5 10.5 25.5s15.5 10.5 25.5 10.5s18.5 -3.66699 25.5 -11s10.5 -17 10.5 -29v-6c0 -37.333 -8 -64 -24 -80c-8 -8 -18.667 -14.667 -32 -20s-24 -8 -32 -8c-8.66699 0 -13 3.66699 -13 11
c0 6.66699 4.33301 11.334 13 14.001c18 5.33301 30.5 11.666 37.5 18.999s10.5 18.333 10.5 33z" />
    <glyph glyph-name="Lacute" unicode="&#x139;" horiz-adv-x="619" 
d="M104 26v652.002c0 6.66699 2.66699 12.667 8 18s11.333 8 18 8s12.667 -2.66699 18 -8s8 -11.333 8 -18v-630h391c6.66699 0 12.334 -2.33301 17.001 -7s7 -10.334 7 -17.001s-2.33301 -12.334 -7 -17.001s-10.334 -7 -17.001 -7h-417c-6.66699 0 -12.667 2.66699 -18 8
s-8 11.333 -8 18zM141 762.002c-8.66699 0 -12.999 3 -12.999 9c0 3.33301 1.33301 7 4 11l62 93c8 12 17.333 18 28 18c9.33301 0 18.666 -2.5 27.999 -7.5s14 -10.167 14 -15.5c0 -4.66699 -3.66699 -10.667 -11 -18l-80 -77c-9.33301 -8.66699 -20 -13 -32 -13z" />
    <glyph glyph-name="lacute" unicode="&#x13a;" horiz-adv-x="249" 
d="M100 21l-0.00195312 688c0 7.33301 2.33301 13.333 7 18s10.334 7 17.001 7s12.5 -2.33301 17.5 -7s7.5 -10.667 7.5 -18v-688c0 -7.33301 -2.16699 -13.333 -6.5 -18s-10.166 -7 -17.499 -7s-13.333 2.33301 -18 7s-7 10.667 -7 18zM125.998 785
c-8.66699 0 -12.999 3 -12.999 9c0 3.33301 1.33301 7 4 11l62 93c8 12 17.333 18 28 18c9.33301 0 18.666 -2.5 27.999 -7.5s14 -10.167 14 -15.5c0 -4.66699 -3.66699 -10.667 -11 -18l-80 -77c-9.33301 -8.66699 -20 -13 -32 -13z" />
    <glyph glyph-name="Lcommaaccent" unicode="&#x13b;" horiz-adv-x="619" 
d="M104 26v652.002c0 6.66699 2.66699 12.667 8 18s11.333 8 18 8s12.667 -2.66699 18 -8s8 -11.333 8 -18v-630h391c6.66699 0 12.334 -2.33301 17.001 -7s7 -10.334 7 -17.001s-2.33301 -12.334 -7 -17.001s-10.334 -7 -17.001 -7h-417c-6.66699 0 -12.667 2.66699 -18 8
s-8 11.333 -8 18zM326 -146.998c-21.333 4.66699 -32 16.333 -32 35v6c0 10 3.5 18.5 10.5 25.5s15.5 10.5 25.5 10.5s18.5 -3.66699 25.5 -11s10.5 -17 10.5 -29v-6c0 -37.333 -8 -64 -24 -80c-8 -8 -18.667 -14.667 -32 -20s-24 -8 -32 -8c-8.66699 0 -13 3.66699 -13 11
c0 6.66699 4.33301 11.334 13 14.001c18 5.33301 30.5 11.666 37.5 18.999s10.5 18.333 10.5 33z" />
    <glyph glyph-name="lcommaaccent" unicode="&#x13c;" horiz-adv-x="249" 
d="M100 21l-0.00195312 688c0 7.33301 2.33301 13.333 7 18s10.334 7 17.001 7s12.5 -2.33301 17.5 -7s7.5 -10.667 7.5 -18v-688c0 -7.33301 -2.16699 -13.333 -6.5 -18s-10.166 -7 -17.499 -7s-13.333 2.33301 -18 7s-7 10.667 -7 18zM118.998 -147
c-21.333 4.66699 -32 16.333 -32 35v6c0 10 3.5 18.5 10.5 25.5s15.5 10.5 25.5 10.5s18.5 -3.66699 25.5 -11s10.5 -17 10.5 -29v-6c0 -37.333 -8 -64 -24 -80c-8 -8 -18.667 -14.667 -32 -20s-24 -8 -32 -8c-8.66699 0 -13 3.66699 -13 11
c0 6.66699 4.33301 11.334 13 14.001c18 5.33301 30.5 11.666 37.5 18.999s10.5 18.333 10.5 33z" />
    <glyph glyph-name="Lcaron" unicode="&#x13d;" horiz-adv-x="619" 
d="M104 26v652.002c0 6.66699 2.66699 12.667 8 18s11.333 8 18 8s12.667 -2.66699 18 -8s8 -11.333 8 -18v-630h391c6.66699 0 12.334 -2.33301 17.001 -7s7 -10.334 7 -17.001s-2.33301 -12.334 -7 -17.001s-10.334 -7 -17.001 -7h-417c-6.66699 0 -12.667 2.66699 -18 8
s-8 11.333 -8 18zM254 566.002l12 111c2.66699 17.333 12 26 28 26h13c11.333 0 17 -5.66699 17 -17c0 -4 -2 -12 -6 -24l-33 -97c-4 -12 -9.66699 -18 -17 -18c-11.333 0 -16 6.33301 -14 19z" />
    <glyph glyph-name="lcaron" unicode="&#x13e;" horiz-adv-x="249" 
d="M100 21l-0.00195312 688c0 7.33301 2.33301 13.333 7 18s10.334 7 17.001 7s12.5 -2.33301 17.5 -7s7.5 -10.667 7.5 -18v-688c0 -7.33301 -2.16699 -13.333 -6.5 -18s-10.166 -7 -17.499 -7s-13.333 2.33301 -18 7s-7 10.667 -7 18zM220.998 596l12 111
c2.66699 17.333 12 26 28 26h13c11.333 0 17 -5.66699 17 -17c0 -4 -2 -12 -6 -24l-33 -97c-4 -12 -9.66699 -18 -17 -18c-11.333 0 -16 6.33301 -14 19z" />
    <glyph glyph-name="Ldot" unicode="&#x13f;" horiz-adv-x="619" 
d="M104 26v652.002c0 6.66699 2.66699 12.667 8 18s11.333 8 18 8s12.667 -2.66699 18 -8s8 -11.333 8 -18v-630h391c6.66699 0 12.334 -2.33301 17.001 -7s7 -10.334 7 -17.001s-2.33301 -12.334 -7 -17.001s-10.334 -7 -17.001 -7h-417c-6.66699 0 -12.667 2.66699 -18 8
s-8 11.333 -8 18zM493 372.002v-19c0 -10.667 -3.33301 -19.167 -10 -25.5s-15.334 -9.5 -26.001 -9.5s-19.334 3.16699 -26.001 9.5s-10 14.833 -10 25.5v19c0 10.667 3.33301 19.167 10 25.5s15.334 9.5 26.001 9.5s19.334 -3.16699 26.001 -9.5s10 -14.833 10 -25.5z" />
    <glyph glyph-name="ldot" unicode="&#x140;" horiz-adv-x="309" 
d="M316 374v-17c0 -10 -3.5 -18.5 -10.5 -25.5s-15.5 -10.5 -25.5 -10.5s-18.5 3.5 -25.5 10.5s-10.5 15.5 -10.5 25.5v17c0 10 3.5 18.5 10.5 25.5s15.5 10.5 25.5 10.5s18.5 -3.5 25.5 -10.5s10.5 -15.5 10.5 -25.5zM100 21l-0.00195312 688
c0 7.33301 2.33301 13.333 7 18s10.334 7 17.001 7s12.5 -2.33301 17.5 -7s7.5 -10.667 7.5 -18v-688c0 -7.33301 -2.16699 -13.333 -6.5 -18s-10.166 -7 -17.499 -7s-13.333 2.33301 -18 7s-7 10.667 -7 18z" />
    <glyph glyph-name="Lslash" unicode="&#x141;" horiz-adv-x="649" 
d="M397 397l-212 -65.998v-283h392c6.66699 0 12.334 -2.33301 17.001 -7s7 -10.334 7 -17.001s-2.33301 -12.334 -7 -17.001s-10.334 -7 -17.001 -7h-417c-6.66699 0 -12.667 2.66699 -18 8s-8 11.333 -8 18v290l-42 -13c-8 -2 -13 -3 -15 -3
c-6.66699 0 -12 2.16699 -16 6.5s-6 9.83301 -6 16.5c0 11.333 5.66699 18.666 17 21.999l62 19v314c0 6.66699 2.66699 12.667 8 18s11.333 8 18 8s12.5 -2.5 17.5 -7.5s7.5 -11.167 7.5 -18.5v-299l192 60c8 2 13 3 15 3c6.66699 0 12 -2.16699 16 -6.5
s6 -9.83301 6 -16.5c0 -11.333 -5.66699 -18.666 -17 -21.999z" />
    <glyph glyph-name="lslash" unicode="&#x142;" horiz-adv-x="309" 
d="M242 371l-63.002 -20v-330c0 -7.33301 -2.16699 -13.333 -6.5 -18s-10.166 -7 -17.499 -7s-13.333 2.33301 -18 7s-7 10.667 -7 18v315l-43 -13c-8 -2 -13 -3 -15 -3c-6.66699 0 -12 2.16699 -16 6.5s-6 9.83301 -6 16.5c0 11.333 5.66699 18.666 17 21.999l63 20v324
c0 7.33301 2.33301 13.333 7 18s10.334 7 17.001 7s12.5 -2.33301 17.5 -7s7.5 -10.667 7.5 -18v-309l43 13c8 2 13 3 15 3c6.66699 0 12 -2.16699 16 -6.5s6 -9.83301 6 -16.5c0 -11.333 -5.66699 -18.666 -17 -21.999z" />
    <glyph glyph-name="Nacute" unicode="&#x143;" horiz-adv-x="790" 
d="M104 21v656c0 7.33301 2.66699 13.5 8 18.5s11.333 7.5 18 7.5h8c9.33301 0 18 -5 26 -15l472 -599v590c0 7.33301 2.33301 13.333 7 18s10.667 7 18 7s13.333 -2.33301 18 -7s7 -10.667 7 -18v-660c0 -6 -2 -11.167 -6 -15.5s-9 -6.5 -15 -6.5h-4
c-8 0 -16.667 5.66699 -26 17l-481 610v-603c0 -7.33301 -2.33301 -13.333 -7 -18s-10.667 -7 -18 -7s-13.333 2.33301 -18 7s-7 10.667 -7 18zM394 762c-8.66699 0 -12.999 3 -12.999 9c0 3.33301 1.33301 7 4 11l62 93c8 12 17.333 18 28 18
c9.33301 0 18.666 -2.5 27.999 -7.5s14 -10.167 14 -15.5c0 -4.66699 -3.66699 -10.667 -11 -18l-80 -77c-9.33301 -8.66699 -20 -13 -32 -13z" />
    <glyph glyph-name="nacute" unicode="&#x144;" horiz-adv-x="613" 
d="M93 21v468.001c0 7.33301 2.33301 13.333 7 18s10.334 7 17.001 7c7.33301 0 13.333 -2.33301 18 -7s7 -10.667 7 -18v-74c40.667 71.333 102 107 184 107c63.333 0 113.166 -19.5 149.499 -58.5s54.5 -89.5 54.5 -151.5v-291c0 -7.33301 -2.16699 -13.333 -6.5 -18
s-10.166 -7 -17.499 -7s-13.333 2.33301 -18 7s-7 10.667 -7 18v282c0 53.333 -14.333 95.666 -43 126.999s-68.334 47 -119.001 47s-92.834 -17.167 -126.501 -51.5s-50.5 -77.833 -50.5 -130.5v-274c0 -7.33301 -2.16699 -13.333 -6.5 -18s-10.166 -7 -17.499 -7
s-13.333 2.33301 -18 7s-7 10.667 -7 18zM310 592.001c-8.66699 0 -12.999 3 -12.999 9c0 3.33301 1.33301 7 4 11l62 93c8 12 17.333 18 28 18c9.33301 0 18.666 -2.5 27.999 -7.5s14 -10.167 14 -15.5c0 -4.66699 -3.66699 -10.667 -11 -18l-80 -77
c-9.33301 -8.66699 -20 -13 -32 -13z" />
    <glyph glyph-name="Ncommaaccent" unicode="&#x145;" horiz-adv-x="790" 
d="M104 21v656c0 7.33301 2.66699 13.5 8 18.5s11.333 7.5 18 7.5h8c9.33301 0 18 -5 26 -15l472 -599v590c0 7.33301 2.33301 13.333 7 18s10.667 7 18 7s13.333 -2.33301 18 -7s7 -10.667 7 -18v-660c0 -6 -2 -11.167 -6 -15.5s-9 -6.5 -15 -6.5h-4
c-8 0 -16.667 5.66699 -26 17l-481 610v-603c0 -7.33301 -2.33301 -13.333 -7 -18s-10.667 -7 -18 -7s-13.333 2.33301 -18 7s-7 10.667 -7 18zM390 -142c-21.333 4.66699 -32 16.333 -32 35v6c0 10 3.5 18.5 10.5 25.5s15.5 10.5 25.5 10.5s18.5 -3.66699 25.5 -11
s10.5 -17 10.5 -29v-6c0 -37.333 -8 -64 -24 -80c-8 -8 -18.667 -14.667 -32 -20s-24 -8 -32 -8c-8.66699 0 -13 3.66699 -13 11c0 6.66699 4.33301 11.334 13 14.001c18 5.33301 30.5 11.666 37.5 18.999s10.5 18.333 10.5 33z" />
    <glyph glyph-name="ncommaaccent" unicode="&#x146;" horiz-adv-x="613" 
d="M93 21v468.001c0 7.33301 2.33301 13.333 7 18s10.334 7 17.001 7c7.33301 0 13.333 -2.33301 18 -7s7 -10.667 7 -18v-74c40.667 71.333 102 107 184 107c63.333 0 113.166 -19.5 149.499 -58.5s54.5 -89.5 54.5 -151.5v-291c0 -7.33301 -2.16699 -13.333 -6.5 -18
s-10.166 -7 -17.499 -7s-13.333 2.33301 -18 7s-7 10.667 -7 18v282c0 53.333 -14.333 95.666 -43 126.999s-68.334 47 -119.001 47s-92.834 -17.167 -126.501 -51.5s-50.5 -77.833 -50.5 -130.5v-274c0 -7.33301 -2.16699 -13.333 -6.5 -18s-10.166 -7 -17.499 -7
s-13.333 2.33301 -18 7s-7 10.667 -7 18zM306 -146.999c-21.333 4.66699 -32 16.333 -32 35v6c0 10 3.5 18.5 10.5 25.5s15.5 10.5 25.5 10.5s18.5 -3.66699 25.5 -11s10.5 -17 10.5 -29v-6c0 -37.333 -8 -64 -24 -80c-8 -8 -18.667 -14.667 -32 -20s-24 -8 -32 -8
c-8.66699 0 -13 3.66699 -13 11c0 6.66699 4.33301 11.334 13 14.001c18 5.33301 30.5 11.666 37.5 18.999s10.5 18.333 10.5 33z" />
    <glyph glyph-name="Ncaron" unicode="&#x147;" horiz-adv-x="790" 
d="M104 21v656c0 7.33301 2.66699 13.5 8 18.5s11.333 7.5 18 7.5h8c9.33301 0 18 -5 26 -15l472 -599v590c0 7.33301 2.33301 13.333 7 18s10.667 7 18 7s13.333 -2.33301 18 -7s7 -10.667 7 -18v-660c0 -6 -2 -11.167 -6 -15.5s-9 -6.5 -15 -6.5h-4
c-8 0 -16.667 5.66699 -26 17l-481 610v-603c0 -7.33301 -2.33301 -13.333 -7 -18s-10.667 -7 -18 -7s-13.333 2.33301 -18 7s-7 10.667 -7 18zM396 819l63 58c9.33301 8.66699 20 13 32 13c8.66699 0 13 -3.33301 13 -10c0 -4 -1.66699 -8 -5 -12l-72 -88
c-10 -12 -19.333 -18 -28 -18h-8c-8.66699 0 -18 6 -28 18l-72 88c-3.33301 4 -5 8 -5 12c0 6.66699 4.66699 10 14 10c12.667 0 23.667 -4.33301 33 -13z" />
    <glyph glyph-name="ncaron" unicode="&#x148;" horiz-adv-x="613" 
d="M93 21v468.001c0 7.33301 2.33301 13.333 7 18s10.334 7 17.001 7c7.33301 0 13.333 -2.33301 18 -7s7 -10.667 7 -18v-74c40.667 71.333 102 107 184 107c63.333 0 113.166 -19.5 149.499 -58.5s54.5 -89.5 54.5 -151.5v-291c0 -7.33301 -2.16699 -13.333 -6.5 -18
s-10.166 -7 -17.499 -7s-13.333 2.33301 -18 7s-7 10.667 -7 18v282c0 53.333 -14.333 95.666 -43 126.999s-68.334 47 -119.001 47s-92.834 -17.167 -126.501 -51.5s-50.5 -77.833 -50.5 -130.5v-274c0 -7.33301 -2.16699 -13.333 -6.5 -18s-10.166 -7 -17.499 -7
s-13.333 2.33301 -18 7s-7 10.667 -7 18zM312 649.001l63 58c9.33301 8.66699 20 13 32 13c8.66699 0 13 -3.33301 13 -10c0 -4 -1.66699 -8 -5 -12l-72 -88c-10 -12 -19.333 -18 -28 -18h-8c-8.66699 0 -18 6 -28 18l-72 88c-3.33301 4 -5 8 -5 12
c0 6.66699 4.66699 10 14 10c12.667 0 23.667 -4.33301 33 -13z" />
    <glyph glyph-name="Omacron" unicode="&#x14c;" horiz-adv-x="850" 
d="M424 -12c-103.333 0 -187.666 35.333 -252.999 106s-98 155.334 -98 254.001v2c0 98.667 33 183.667 99 255s150.667 107 254 107s187.666 -35.333 252.999 -106s98 -155.334 98 -254.001v-2c0 -98.667 -33 -183.667 -99 -255s-150.667 -107 -254 -107zM426 35
c85.333 0 156.166 30.333 212.499 91s84.5 134.667 84.5 222v2c0 87.333 -28.5 161.666 -85.5 222.999s-128.167 92 -213.5 92s-156.166 -30.333 -212.499 -91s-84.5 -134.667 -84.5 -222v-2c0 -87.333 28.5 -161.666 85.5 -222.999s128.167 -92 213.5 -92zM557 801h-264
c-6.66699 0 -12.334 2.33301 -17.001 7s-7 10.334 -7 17.001s2.33301 12.334 7 17.001s10.334 7 17.001 7h264c6.66699 0 12.334 -2.33301 17.001 -7s7 -10.334 7 -17.001s-2.33301 -12.334 -7 -17.001s-10.334 -7 -17.001 -7z" />
    <glyph glyph-name="omacron" unicode="&#x14d;" horiz-adv-x="640" 
d="M319 -12c-74.667 0 -136.834 26 -186.501 78s-74.5 114.333 -74.5 187v2c0 72.667 25.167 135.334 75.5 188.001s112.833 79 187.5 79s136.834 -26 186.501 -78s74.5 -114.333 74.5 -187v-2c0 -72.667 -25.167 -135.334 -75.5 -188.001s-112.833 -79 -187.5 -79zM321 34
c60 0 109.667 21.333 149 64s59 94.334 59 155.001v2c0 61.333 -20.333 113.5 -61 156.5s-90.334 64.5 -149.001 64.5c-60 0 -109.667 -21.333 -149 -64s-59 -94.334 -59 -155.001v-2c0 -61.333 20.333 -113.5 61 -156.5s90.334 -64.5 149.001 -64.5zM452 621h-264
c-6.66699 0 -12.334 2.33301 -17.001 7s-7 10.334 -7 17.001s2.33301 12.334 7 17.001s10.334 7 17.001 7h264c6.66699 0 12.334 -2.33301 17.001 -7s7 -10.334 7 -17.001s-2.33301 -12.334 -7 -17.001s-10.334 -7 -17.001 -7z" />
    <glyph glyph-name="Obreve" unicode="&#x14e;" horiz-adv-x="850" 
d="M424 -12c-103.333 0 -187.666 35.333 -252.999 106s-98 155.334 -98 254.001v2c0 98.667 33 183.667 99 255s150.667 107 254 107s187.666 -35.333 252.999 -106s98 -155.334 98 -254.001v-2c0 -98.667 -33 -183.667 -99 -255s-150.667 -107 -254 -107zM426 35
c85.333 0 156.166 30.333 212.499 91s84.5 134.667 84.5 222v2c0 87.333 -28.5 161.666 -85.5 222.999s-128.167 92 -213.5 92s-156.166 -30.333 -212.499 -91s-84.5 -134.667 -84.5 -222v-2c0 -87.333 28.5 -161.666 85.5 -222.999s128.167 -92 213.5 -92zM425 773
c-55.333 0 -95 22.667 -119 68c-7.33301 13.333 -11 26 -11 38c0 14.667 6.33301 22 19 22c10 0 17 -5.66699 21 -17c15.333 -40 45.333 -60 90 -60s74.667 20 90 60c4 11.333 11 17 21 17c12.667 0 19 -7.33301 19 -22c0 -12 -3.66699 -24.667 -11 -38
c-24 -45.333 -63.667 -68 -119 -68z" />
    <glyph glyph-name="obreve" unicode="&#x14f;" horiz-adv-x="640" 
d="M319 -12c-74.667 0 -136.834 26 -186.501 78s-74.5 114.333 -74.5 187v2c0 72.667 25.167 135.334 75.5 188.001s112.833 79 187.5 79s136.834 -26 186.501 -78s74.5 -114.333 74.5 -187v-2c0 -72.667 -25.167 -135.334 -75.5 -188.001s-112.833 -79 -187.5 -79zM321 34
c60 0 109.667 21.333 149 64s59 94.334 59 155.001v2c0 61.333 -20.333 113.5 -61 156.5s-90.334 64.5 -149.001 64.5c-60 0 -109.667 -21.333 -149 -64s-59 -94.334 -59 -155.001v-2c0 -61.333 20.333 -113.5 61 -156.5s90.334 -64.5 149.001 -64.5zM320 593
c-55.333 0 -95 22.667 -119 68c-7.33301 13.333 -11 26 -11 38c0 14.667 6.33301 22 19 22c10 0 17 -5.66699 21 -17c15.333 -40 45.333 -60 90 -60s74.667 20 90 60c4 11.333 11 17 21 17c12.667 0 19 -7.33301 19 -22c0 -12 -3.66699 -24.667 -11 -38
c-24 -45.333 -63.667 -68 -119 -68z" />
    <glyph glyph-name="Ohungarumlaut" unicode="&#x150;" horiz-adv-x="850" 
d="M424 -12c-103.333 0 -187.666 35.333 -252.999 106s-98 155.334 -98 254.001v2c0 98.667 33 183.667 99 255s150.667 107 254 107s187.666 -35.333 252.999 -106s98 -155.334 98 -254.001v-2c0 -98.667 -33 -183.667 -99 -255s-150.667 -107 -254 -107zM426 35
c85.333 0 156.166 30.333 212.499 91s84.5 134.667 84.5 222v2c0 87.333 -28.5 161.666 -85.5 222.999s-128.167 92 -213.5 92s-156.166 -30.333 -212.499 -91s-84.5 -134.667 -84.5 -222v-2c0 -87.333 28.5 -161.666 85.5 -222.999s128.167 -92 213.5 -92zM487 772
c-8.66699 0 -13.001 3.00098 -13.001 9.00098c0 3.33301 1.33301 7 4 11l63 94c7.33301 11.333 16.333 17 27 17c8.66699 0 17.334 -2.33301 26.001 -7s13 -9.66699 13 -15c0 -4.66699 -3.33301 -10.334 -10 -17.001l-78 -79c-9.33301 -8.66699 -20 -13 -32 -13z
M334.999 772.001c-8.66699 0 -13.001 3.00098 -13.001 9.00098c0 3.33301 1.33301 7 4 11l63 94c7.33301 11.333 16.333 17 27 17c8.66699 0 17.334 -2.33301 26.001 -7s13 -9.66699 13 -15c0 -4.66699 -3.33301 -10.334 -10 -17.001l-78 -79
c-9.33301 -8.66699 -20 -13 -32 -13z" />
    <glyph glyph-name="ohungarumlaut" unicode="&#x151;" horiz-adv-x="640" 
d="M319 -12c-74.667 0 -136.834 26 -186.501 78s-74.5 114.333 -74.5 187v2c0 72.667 25.167 135.334 75.5 188.001s112.833 79 187.5 79s136.834 -26 186.501 -78s74.5 -114.333 74.5 -187v-2c0 -72.667 -25.167 -135.334 -75.5 -188.001s-112.833 -79 -187.5 -79zM321 34
c60 0 109.667 21.333 149 64s59 94.334 59 155.001v2c0 61.333 -20.333 113.5 -61 156.5s-90.334 64.5 -149.001 64.5c-60 0 -109.667 -21.333 -149 -64s-59 -94.334 -59 -155.001v-2c0 -61.333 20.333 -113.5 61 -156.5s90.334 -64.5 149.001 -64.5zM382 592
c-8.66699 0 -13.001 3.00098 -13.001 9.00098c0 3.33301 1.33301 7 4 11l63 94c7.33301 11.333 16.333 17 27 17c8.66699 0 17.334 -2.33301 26.001 -7s13 -9.66699 13 -15c0 -4.66699 -3.33301 -10.334 -10 -17.001l-78 -79c-9.33301 -8.66699 -20 -13 -32 -13z
M229.999 592.001c-8.66699 0 -13.001 3.00098 -13.001 9.00098c0 3.33301 1.33301 7 4 11l63 94c7.33301 11.333 16.333 17 27 17c8.66699 0 17.334 -2.33301 26.001 -7s13 -9.66699 13 -15c0 -4.66699 -3.33301 -10.334 -10 -17.001l-78 -79
c-9.33301 -8.66699 -20 -13 -32 -13z" />
    <glyph glyph-name="OE" unicode="&#x152;" horiz-adv-x="1152" 
d="M445 0c-109.333 0 -198.668 33.0059 -268.001 99.0059s-104 149 -104 249v2c0 100 34.833 183.333 104.5 250s158.834 100 267.501 100h619c6.66699 0 12.334 -2.33301 17.001 -7s7 -10.334 7 -17.001s-2.33301 -12.334 -7 -17.001s-10.334 -7 -17.001 -7h-411v-275h366
c6.66699 0 12.334 -2.33301 17.001 -7s7 -10.334 7 -17.001s-2.33301 -12.334 -7 -17.001s-10.334 -7 -17.001 -7h-366v-281h416c6.66699 0 12.334 -2.33301 17.001 -7s7 -10.334 7 -17.001s-2.33301 -12.334 -7 -17.001s-10.334 -7 -17.001 -7h-624zM444.998 48.0059
l156 -0.000976562v604h-156c-95.333 0 -172.166 -28.667 -230.499 -86s-87.5 -128.666 -87.5 -213.999v-2c0 -85.333 29.167 -157 87.5 -215s135.166 -87 230.499 -87z" />
    <glyph glyph-name="oe" unicode="&#x153;" horiz-adv-x="1055" 
d="M581 279l370.999 0.000976562c-4 56 -21.667 103 -53 141s-74.666 57 -129.999 57c-50 0 -92.667 -18.833 -128 -56.5s-55.333 -84.834 -60 -141.501zM320.999 34.001c60 0 109.667 21.333 149 64s59 94.334 59 155.001v2c0 61.333 -20.333 113.5 -61 156.5
s-90.334 64.5 -149.001 64.5c-60 0 -109.667 -21.333 -149 -64s-59 -94.334 -59 -155.001v-2c0 -61.333 20.333 -113.5 61 -156.5s90.334 -64.5 149.001 -64.5zM977.999 71.001c-55.333 -55.333 -121.003 -82.999 -197.003 -82.999c-50 0 -95.5 14.167 -136.5 42.5
s-71.167 66.5 -90.5 114.5c-20 -46.667 -51 -84.5 -93 -113.5s-89.667 -43.5 -143 -43.5c-73.333 0 -135 26 -185 78s-75 114.333 -75 187v2c0 72.667 25.167 135.334 75.5 188.001s112.5 79 186.5 79c52.667 0 99.834 -14.333 141.501 -43s72.5 -66.334 92.5 -113.001
c18.667 47.333 47.334 85.166 86.001 113.499s82.667 42.5 132 42.5c69.333 0 125.5 -25.333 168.5 -76s64.5 -113.334 64.5 -188.001c0 -6 -2.5 -11.333 -7.5 -16s-10.5 -7 -16.5 -7h-400c4.66699 -61.333 26.167 -110.166 64.5 -146.499s83.5 -54.5 135.5 -54.5
c62 0 117 23.333 165 70c4.66699 4.66699 10 7 16 7c6.66699 0 12.334 -2.16699 17.001 -6.5s7 -9.83301 7 -16.5c0 -6 -2.66699 -11.667 -8 -17z" />
    <glyph glyph-name="Racute" unicode="&#x154;" horiz-adv-x="723" 
d="M104 22v651.998c0 6.66699 2.66699 12.667 8 18s11.333 8 18 8h268c85.333 0 151 -23 197 -69c35.333 -35.333 53 -78.666 53 -129.999v-2c0 -56.667 -18.667 -102 -56 -136s-87 -55.333 -149 -64l199 -258c5.33301 -6.66699 8 -12.667 8 -18
c0 -7.33301 -2.66699 -13.666 -8 -18.999s-11.666 -8 -18.999 -8c-8.66699 0 -16.334 4.66699 -23.001 14l-215 280h-229v-268c0 -6.66699 -2.66699 -12.667 -8 -18s-11.333 -8 -18 -8s-12.667 2.66699 -18 8s-8 11.333 -8 18zM156 336.998l235.999 0.000976562
c60 0 109 14.333 147 43s57 67.667 57 117v2c0 47.333 -17.667 84.666 -53 111.999s-84.666 41 -147.999 41h-239v-315zM349.999 761.999c-8.66699 0 -12.999 3 -12.999 9c0 3.33301 1.33301 7 4 11l62 93c8 12 17.333 18 28 18c9.33301 0 18.666 -2.5 27.999 -7.5
s14 -10.167 14 -15.5c0 -4.66699 -3.66699 -10.667 -11 -18l-80 -77c-9.33301 -8.66699 -20 -13 -32 -13z" />
    <glyph glyph-name="racute" unicode="&#x155;" horiz-adv-x="400" 
d="M93 21v468c0 7.33301 2.33301 13.333 7 18s10.334 7 17.001 7c7.33301 0 13.333 -2.33301 18 -7s7 -10.667 7 -18v-124c21.333 47.333 51.333 84.666 90 111.999s77 41 115 41c7.33301 0 13.5 -2.66699 18.5 -8s7.5 -11.666 7.5 -18.999
c0 -16.667 -8.66699 -25.667 -26 -27c-58.667 -5.33301 -107.5 -29.833 -146.5 -73.5s-58.5 -104.167 -58.5 -181.5v-188c0 -7.33301 -2.33301 -13.333 -7 -18s-10.334 -7 -17.001 -7c-7.33301 0 -13.333 2.33301 -18 7s-7 10.667 -7 18zM210 592
c-8.66699 0 -12.999 3 -12.999 9c0 3.33301 1.33301 7 4 11l62 93c8 12 17.333 18 28 18c9.33301 0 18.666 -2.5 27.999 -7.5s14 -10.167 14 -15.5c0 -4.66699 -3.66699 -10.667 -11 -18l-80 -77c-9.33301 -8.66699 -20 -13 -32 -13z" />
    <glyph glyph-name="Rcommaaccent" unicode="&#x156;" horiz-adv-x="723" 
d="M104 22v651.998c0 6.66699 2.66699 12.667 8 18s11.333 8 18 8h268c85.333 0 151 -23 197 -69c35.333 -35.333 53 -78.666 53 -129.999v-2c0 -56.667 -18.667 -102 -56 -136s-87 -55.333 -149 -64l199 -258c5.33301 -6.66699 8 -12.667 8 -18
c0 -7.33301 -2.66699 -13.666 -8 -18.999s-11.666 -8 -18.999 -8c-8.66699 0 -16.334 4.66699 -23.001 14l-215 280h-229v-268c0 -6.66699 -2.66699 -12.667 -8 -18s-11.333 -8 -18 -8s-12.667 2.66699 -18 8s-8 11.333 -8 18zM156 336.998l235.999 0.000976562
c60 0 109 14.333 147 43s57 67.667 57 117v2c0 47.333 -17.667 84.666 -53 111.999s-84.666 41 -147.999 41h-239v-315zM345.999 -142.001c-21.333 4.66699 -32 16.333 -32 35v6c0 10 3.5 18.5 10.5 25.5s15.5 10.5 25.5 10.5s18.5 -3.66699 25.5 -11s10.5 -17 10.5 -29v-6
c0 -37.333 -8 -64 -24 -80c-8 -8 -18.667 -14.667 -32 -20s-24 -8 -32 -8c-8.66699 0 -13 3.66699 -13 11c0 6.66699 4.33301 11.334 13 14.001c18 5.33301 30.5 11.666 37.5 18.999s10.5 18.333 10.5 33z" />
    <glyph glyph-name="rcommaaccent" unicode="&#x157;" horiz-adv-x="400" 
d="M93 21v468c0 7.33301 2.33301 13.333 7 18s10.334 7 17.001 7c7.33301 0 13.333 -2.33301 18 -7s7 -10.667 7 -18v-124c21.333 47.333 51.333 84.666 90 111.999s77 41 115 41c7.33301 0 13.5 -2.66699 18.5 -8s7.5 -11.666 7.5 -18.999
c0 -16.667 -8.66699 -25.667 -26 -27c-58.667 -5.33301 -107.5 -29.833 -146.5 -73.5s-58.5 -104.167 -58.5 -181.5v-188c0 -7.33301 -2.33301 -13.333 -7 -18s-10.334 -7 -17.001 -7c-7.33301 0 -13.333 2.33301 -18 7s-7 10.667 -7 18zM121 -147
c-21.333 4.66699 -32 16.333 -32 35v6c0 10 3.5 18.5 10.5 25.5s15.5 10.5 25.5 10.5s18.5 -3.66699 25.5 -11s10.5 -17 10.5 -29v-6c0 -37.333 -8 -64 -24 -80c-8 -8 -18.667 -14.667 -32 -20s-24 -8 -32 -8c-8.66699 0 -13 3.66699 -13 11
c0 6.66699 4.33301 11.334 13 14.001c18 5.33301 30.5 11.666 37.5 18.999s10.5 18.333 10.5 33z" />
    <glyph glyph-name="Rcaron" unicode="&#x158;" horiz-adv-x="723" 
d="M104 22v651.998c0 6.66699 2.66699 12.667 8 18s11.333 8 18 8h268c85.333 0 151 -23 197 -69c35.333 -35.333 53 -78.666 53 -129.999v-2c0 -56.667 -18.667 -102 -56 -136s-87 -55.333 -149 -64l199 -258c5.33301 -6.66699 8 -12.667 8 -18
c0 -7.33301 -2.66699 -13.666 -8 -18.999s-11.666 -8 -18.999 -8c-8.66699 0 -16.334 4.66699 -23.001 14l-215 280h-229v-268c0 -6.66699 -2.66699 -12.667 -8 -18s-11.333 -8 -18 -8s-12.667 2.66699 -18 8s-8 11.333 -8 18zM156 336.998l235.999 0.000976562
c60 0 109 14.333 147 43s57 67.667 57 117v2c0 47.333 -17.667 84.666 -53 111.999s-84.666 41 -147.999 41h-239v-315zM351.999 818.999l63 58c9.33301 8.66699 20 13 32 13c8.66699 0 13 -3.33301 13 -10c0 -4 -1.66699 -8 -5 -12l-72 -88c-10 -12 -19.333 -18 -28 -18h-8
c-8.66699 0 -18 6 -28 18l-72 88c-3.33301 4 -5 8 -5 12c0 6.66699 4.66699 10 14 10c12.667 0 23.667 -4.33301 33 -13z" />
    <glyph glyph-name="rcaron" unicode="&#x159;" horiz-adv-x="400" 
d="M93 21v468c0 7.33301 2.33301 13.333 7 18s10.334 7 17.001 7c7.33301 0 13.333 -2.33301 18 -7s7 -10.667 7 -18v-124c21.333 47.333 51.333 84.666 90 111.999s77 41 115 41c7.33301 0 13.5 -2.66699 18.5 -8s7.5 -11.666 7.5 -18.999
c0 -16.667 -8.66699 -25.667 -26 -27c-58.667 -5.33301 -107.5 -29.833 -146.5 -73.5s-58.5 -104.167 -58.5 -181.5v-188c0 -7.33301 -2.33301 -13.333 -7 -18s-10.334 -7 -17.001 -7c-7.33301 0 -13.333 2.33301 -18 7s-7 10.667 -7 18zM212 649l63 58
c9.33301 8.66699 20 13 32 13c8.66699 0 13 -3.33301 13 -10c0 -4 -1.66699 -8 -5 -12l-72 -88c-10 -12 -19.333 -18 -28 -18h-8c-8.66699 0 -18 6 -28 18l-72 88c-3.33301 4 -5 8 -5 12c0 6.66699 4.66699 10 14 10c12.667 0 23.667 -4.33301 33 -13z" />
    <glyph glyph-name="Sacute" unicode="&#x15a;" horiz-adv-x="640" 
d="M341 -10c-98 0 -186.665 32.6621 -265.998 97.9951c-6.66699 5.33301 -10 12 -10 20c0 6.66699 2.5 12.667 7.5 18s11.167 8 18.5 8c6 0 11.667 -2 17 -6c67.333 -60.667 146 -91 236 -91c52 0 94.5 13.167 127.5 39.5s49.5 59.5 49.5 99.5v2
c0 38.667 -13.833 69.334 -41.5 92.001s-79.834 41.667 -156.501 57c-84 16.667 -144.333 40.334 -181 71.001s-55 72.667 -55 126v2c0 52 21.333 95.667 64 131s96.334 53 161.001 53c84.667 0 159 -24 223 -72c7.33301 -6 11 -13 11 -21
c0 -7.33301 -2.66699 -13.5 -8 -18.5s-11.333 -7.5 -18 -7.5s-12.334 2 -17.001 6c-57.333 44 -121.666 66 -192.999 66c-50.667 0 -91.834 -12.667 -123.501 -38s-47.5 -56.666 -47.5 -93.999v-2c0 -39.333 14.167 -70.666 42.5 -93.999s82.166 -43 161.499 -59
c80.667 -16.667 139.167 -40.167 175.5 -70.5s54.5 -71.166 54.5 -122.499v-2c0 -56 -21.667 -101.833 -65 -137.5s-99 -53.5 -167 -53.5zM327.002 771.995c-8.66699 0 -12.999 3 -12.999 9c0 3.33301 1.33301 7 4 11l62 93c8 12 17.333 18 28 18
c9.33301 0 18.666 -2.5 27.999 -7.5s14 -10.167 14 -15.5c0 -4.66699 -3.66699 -10.667 -11 -18l-80 -77c-9.33301 -8.66699 -20 -13 -32 -13z" />
    <glyph glyph-name="sacute" unicode="&#x15b;" horiz-adv-x="497" 
d="M258 -10c-34 0 -68.8311 5.99805 -104.498 17.998s-66.834 28 -93.501 48c-6 4.66699 -9 11 -9 19c0 6.66699 2.33301 12.334 7 17.001s10.334 7 17.001 7c6 0 11.333 -1.66699 16 -5c54 -38.667 110.667 -58 170 -58c35.333 0 64.666 9 87.999 27s35 41.333 35 70v2
c0 11.333 -2.5 21.833 -7.5 31.5s-11.333 17.834 -19 24.501s-18 13 -31 19s-25 10.833 -36 14.5s-24.833 7.83398 -41.5 12.501c-23.333 6.66699 -40.333 11.667 -51 15s-25.667 9.33301 -45 18s-33.5 17.167 -42.5 25.5s-17.333 19.666 -25 33.999
s-11.5 30.166 -11.5 47.499v2c0 41.333 15.667 75.166 47 101.499s71.666 39.5 120.999 39.5c56 0 111 -15.333 165 -46c8.66699 -6 13 -13.333 13 -22c0 -6.66699 -2.33301 -12.334 -7 -17.001s-10.334 -7 -17.001 -7c-5.33301 0 -10 1.33301 -14 4
c-47.333 28 -94.666 42 -141.999 42c-34.667 0 -62.667 -8.33301 -84 -25s-32 -38 -32 -64v-2c0 -10.667 2.83301 -20.667 8.5 -30s12.334 -17 20.001 -23s18.667 -12.167 33 -18.5s26.666 -11.166 36.999 -14.499s24.833 -7.66602 43.5 -12.999
c25.333 -7.33301 46 -14 62 -20s33.167 -14.5 51.5 -25.5s32 -24.667 41 -41s13.5 -35.166 13.5 -56.499v-2c0 -44.667 -16.833 -80.667 -50.5 -108s-75.5 -41 -125.5 -41zM251.002 591.998c-8.66699 0 -12.999 3 -12.999 9c0 3.33301 1.33301 7 4 11l62 93
c8 12 17.333 18 28 18c9.33301 0 18.666 -2.5 27.999 -7.5s14 -10.167 14 -15.5c0 -4.66699 -3.66699 -10.667 -11 -18l-80 -77c-9.33301 -8.66699 -20 -13 -32 -13z" />
    <glyph glyph-name="Scedilla" unicode="&#x15e;" horiz-adv-x="640" 
d="M573 181c0 -54 -20.165 -98.3359 -60.498 -133.003s-92.5 -53.667 -156.5 -57l-55 -113c-6.66699 -13.333 -15.334 -20 -26.001 -20c-8 0 -15.667 2.66699 -23 8s-11 10.666 -11 15.999c0 4 1.66699 9 5 15l64 94c-85.333 5.33301 -163.666 37.666 -234.999 96.999
c-6.66699 5.33301 -10 12 -10 20c0 6.66699 2.5 12.667 7.5 18s11.167 8 18.5 8c6 0 11.667 -2 17 -6c67.333 -60.667 146 -91 236 -91c52 0 94.5 13.167 127.5 39.5s49.5 59.5 49.5 99.5v2c0 38.667 -13.833 69.334 -41.5 92.001s-79.834 41.667 -156.501 57
c-84 16.667 -144.333 40.334 -181 71.001s-55 72.667 -55 126v2c0 52 21.333 95.667 64 131s96.334 53 161.001 53c84.667 0 159 -24 223 -72c7.33301 -6 11 -13 11 -21c0 -7.33301 -2.66699 -13.5 -8 -18.5s-11.333 -7.5 -18 -7.5s-12.334 2 -17.001 6
c-57.333 44 -121.666 66 -192.999 66c-50.667 0 -91.834 -12.667 -123.501 -38s-47.5 -56.666 -47.5 -93.999v-2c0 -39.333 14.167 -70.666 42.5 -93.999s82.166 -43 161.499 -59c80.667 -16.667 139.167 -40.167 175.5 -70.5s54.5 -71.166 54.5 -122.499v-2z" />
    <glyph glyph-name="scedilla" unicode="&#x15f;" horiz-adv-x="497" 
d="M434 139c0 -43.333 -15.8311 -78.501 -47.498 -105.501s-71.5 -41.5 -119.5 -43.5l-55 -112c-6.66699 -13.333 -15.334 -20 -26.001 -20c-8 0 -15.667 2.66699 -23 8s-11 10.666 -11 15.999c0 4 1.66699 9 5 15l65 96c-63.333 7.33301 -117.333 28.333 -162 63
c-6 4.66699 -9 11 -9 19c0 6.66699 2.33301 12.334 7 17.001s10.334 7 17.001 7c6 0 11.333 -1.66699 16 -5c54 -38.667 110.667 -58 170 -58c35.333 0 64.666 9 87.999 27s35 41.333 35 70v2c0 11.333 -2.5 21.833 -7.5 31.5s-11.333 17.834 -19 24.501s-18 13 -31 19
s-25 10.833 -36 14.5s-24.833 7.83398 -41.5 12.501c-23.333 6.66699 -40.333 11.667 -51 15s-25.667 9.33301 -45 18s-33.5 17.167 -42.5 25.5s-17.333 19.666 -25 33.999s-11.5 30.166 -11.5 47.499v2c0 41.333 15.667 75.166 47 101.499s71.666 39.5 120.999 39.5
c56 0 111 -15.333 165 -46c8.66699 -6 13 -13.333 13 -22c0 -6.66699 -2.33301 -12.334 -7 -17.001s-10.334 -7 -17.001 -7c-5.33301 0 -10 1.33301 -14 4c-47.333 28 -94.666 42 -141.999 42c-34.667 0 -62.667 -8.33301 -84 -25s-32 -38 -32 -64v-2
c0 -10.667 2.83301 -20.667 8.5 -30s12.334 -17 20.001 -23s18.667 -12.167 33 -18.5s26.666 -11.166 36.999 -14.499s24.833 -7.66602 43.5 -12.999c25.333 -7.33301 46 -14 62 -20s33.167 -14.5 51.5 -25.5s32 -24.667 41 -41s13.5 -35.166 13.5 -56.499v-2z" />
    <glyph glyph-name="Scaron" unicode="&#x160;" horiz-adv-x="640" 
d="M341 -10c-98 0 -186.665 32.6621 -265.998 97.9951c-6.66699 5.33301 -10 12 -10 20c0 6.66699 2.5 12.667 7.5 18s11.167 8 18.5 8c6 0 11.667 -2 17 -6c67.333 -60.667 146 -91 236 -91c52 0 94.5 13.167 127.5 39.5s49.5 59.5 49.5 99.5v2
c0 38.667 -13.833 69.334 -41.5 92.001s-79.834 41.667 -156.501 57c-84 16.667 -144.333 40.334 -181 71.001s-55 72.667 -55 126v2c0 52 21.333 95.667 64 131s96.334 53 161.001 53c84.667 0 159 -24 223 -72c7.33301 -6 11 -13 11 -21
c0 -7.33301 -2.66699 -13.5 -8 -18.5s-11.333 -7.5 -18 -7.5s-12.334 2 -17.001 6c-57.333 44 -121.666 66 -192.999 66c-50.667 0 -91.834 -12.667 -123.501 -38s-47.5 -56.666 -47.5 -93.999v-2c0 -39.333 14.167 -70.666 42.5 -93.999s82.166 -43 161.499 -59
c80.667 -16.667 139.167 -40.167 175.5 -70.5s54.5 -71.166 54.5 -122.499v-2c0 -56 -21.667 -101.833 -65 -137.5s-99 -53.5 -167 -53.5zM329.002 828.995l63 58c9.33301 8.66699 20 13 32 13c8.66699 0 13 -3.33301 13 -10c0 -4 -1.66699 -8 -5 -12l-72 -88
c-10 -12 -19.333 -18 -28 -18h-8c-8.66699 0 -18 6 -28 18l-72 88c-3.33301 4 -5 8 -5 12c0 6.66699 4.66699 10 14 10c12.667 0 23.667 -4.33301 33 -13z" />
    <glyph glyph-name="scaron" unicode="&#x161;" horiz-adv-x="497" 
d="M258 -10c-34 0 -68.8311 5.99805 -104.498 17.998s-66.834 28 -93.501 48c-6 4.66699 -9 11 -9 19c0 6.66699 2.33301 12.334 7 17.001s10.334 7 17.001 7c6 0 11.333 -1.66699 16 -5c54 -38.667 110.667 -58 170 -58c35.333 0 64.666 9 87.999 27s35 41.333 35 70v2
c0 11.333 -2.5 21.833 -7.5 31.5s-11.333 17.834 -19 24.501s-18 13 -31 19s-25 10.833 -36 14.5s-24.833 7.83398 -41.5 12.501c-23.333 6.66699 -40.333 11.667 -51 15s-25.667 9.33301 -45 18s-33.5 17.167 -42.5 25.5s-17.333 19.666 -25 33.999
s-11.5 30.166 -11.5 47.499v2c0 41.333 15.667 75.166 47 101.499s71.666 39.5 120.999 39.5c56 0 111 -15.333 165 -46c8.66699 -6 13 -13.333 13 -22c0 -6.66699 -2.33301 -12.334 -7 -17.001s-10.334 -7 -17.001 -7c-5.33301 0 -10 1.33301 -14 4
c-47.333 28 -94.666 42 -141.999 42c-34.667 0 -62.667 -8.33301 -84 -25s-32 -38 -32 -64v-2c0 -10.667 2.83301 -20.667 8.5 -30s12.334 -17 20.001 -23s18.667 -12.167 33 -18.5s26.666 -11.166 36.999 -14.499s24.833 -7.66602 43.5 -12.999
c25.333 -7.33301 46 -14 62 -20s33.167 -14.5 51.5 -25.5s32 -24.667 41 -41s13.5 -35.166 13.5 -56.499v-2c0 -44.667 -16.833 -80.667 -50.5 -108s-75.5 -41 -125.5 -41zM253.002 648.998l63 58c9.33301 8.66699 20 13 32 13c8.66699 0 13 -3.33301 13 -10
c0 -4 -1.66699 -8 -5 -12l-72 -88c-10 -12 -19.333 -18 -28 -18h-8c-8.66699 0 -18 6 -28 18l-72 88c-3.33301 4 -5 8 -5 12c0 6.66699 4.66699 10 14 10c12.667 0 23.667 -4.33301 33 -13z" />
    <glyph glyph-name="Tcommaaccent" unicode="&#x162;" horiz-adv-x="648" 
d="M298 22v630h-224c-6.66699 0 -12.334 2.33301 -17.001 7s-7 10.334 -7 17.001s2.33301 12.334 7 17.001s10.334 7 17.001 7h500c6.66699 0 12.334 -2.33301 17.001 -7s7 -10.334 7 -17.001s-2.33301 -12.334 -7 -17.001s-10.334 -7 -17.001 -7h-224v-630
c0 -6.66699 -2.66699 -12.667 -8 -18s-11.333 -8 -18 -8s-12.667 2.66699 -18 8s-8 11.333 -8 18zM319 -147c-21.333 4.66699 -32 16.333 -32 35v6c0 10 3.5 18.5 10.5 25.5s15.5 10.5 25.5 10.5s18.5 -3.66699 25.5 -11s10.5 -17 10.5 -29v-6c0 -37.333 -8 -64 -24 -80
c-8 -8 -18.667 -14.667 -32 -20s-24 -8 -32 -8c-8.66699 0 -13 3.66699 -13 11c0 6.66699 4.33301 11.334 13 14.001c18 5.33301 30.5 11.666 37.5 18.999s10.5 18.333 10.5 33z" />
    <glyph glyph-name="tcommaaccent" unicode="&#x163;" horiz-adv-x="400" 
d="M263 -9c-42 0 -76.334 11.833 -103.001 35.5s-40 58.5 -40 104.5v334h-55c-6 0 -11.333 2.33301 -16 7s-7 10 -7 16s2.33301 11.167 7 15.5s10 6.5 16 6.5h55v142c0 7.33301 2.33301 13.333 7 18s10.334 7 17.001 7s12.5 -2.5 17.5 -7.5s7.5 -10.833 7.5 -17.5v-142h160
c6 0 11.333 -2.33301 16 -7s7 -10 7 -16s-2.33301 -11.167 -7 -15.5s-10 -6.5 -16 -6.5h-160v-329c0 -66 34 -99 102 -99c14 0 27 1.66699 39 5l19 5c5.33301 0 10.333 -2.16699 15 -6.5s7 -9.5 7 -15.5c0 -10 -5.33301 -17 -16 -21c-24.667 -8.66699 -48.667 -13 -72 -13z
M220.999 -147c-21.333 4.66699 -32 16.333 -32 35v6c0 10 3.5 18.5 10.5 25.5s15.5 10.5 25.5 10.5s18.5 -3.66699 25.5 -11s10.5 -17 10.5 -29v-6c0 -37.333 -8 -64 -24 -80c-8 -8 -18.667 -14.667 -32 -20s-24 -8 -32 -8c-8.66699 0 -13 3.66699 -13 11
c0 6.66699 4.33301 11.334 13 14.001c18 5.33301 30.5 11.666 37.5 18.999s10.5 18.333 10.5 33z" />
    </font>
</defs>
</svg>
