<?xml version="1.0" standalone="no"?>
<!DOCTYPE svg PUBLIC "-//W3C//DTD SVG 1.1//EN" "http://www.w3.org/Graphics/SVG/1.1/DTD/svg11.dtd">
<svg xmlns="http://www.w3.org/2000/svg"><metadata>This SVG WebFont was generated by YouWorkForThem.
Copyright (c) 2012 by Yellow Desing Studio. All rights reserved.</metadata><defs><font horiz-adv-x="1267" id="ywftsvg"><font-face ascent="1638" bbox="-248 -590 2869 1952" cap-height="1434" descent="-410" font-family="" font-stretch="normal" font-weight="600" panose-1="2 0 7 0 3 0 0 2 0 4" underline-position="0" underline-thickness="0" unicode-range="U+0020-FB06" units-per-em="2048" x-height="1075"/><missing-glyph horiz-adv-x="542"/><glyph d="M51 887v188h150v86q0 332 286 332q145 0 349 -80l-86 -182q-156 43 -202 43t-72 -22t-25 -83v-94h256v-188h-256v-887h-250v887h-150zM811 887v188h147v86q0 332 289 332q145 0 348 -80l-88 -182q-157 43 -201 43t-70 -22t-26 -83v-94h275v-188h-275v-887h-252v887h-147z " glyph-name="uniFB00" horiz-adv-x="1521" unicode="ff"/><glyph d="M897 1249v238h270v-238h-270zM1157 0h-254v1075h254v-1075zM51 887v188h150v86q0 332 282 332q115 0 281 -63l-64 -187q-104 31 -151 31t-73 -22t-25 -83v-94h276v-188h-276v-887h-250v887h-150z" glyph-name="uniFB01" horiz-adv-x="1296" unicode="fi"/><glyph d="M1163 0h-254v1493h254v-1493zM51 887v188h150v86q0 332 282 332q115 0 281 -63l-64 -187q-104 31 -151 31t-73 -22t-25 -83v-94h276v-188h-276v-887h-250v887h-150z" glyph-name="uniFB02" horiz-adv-x="1308" unicode="fl"/><glyph d="M1655 1249v238h270v-238h-270zM1915 0h-252v1075h252v-1075zM811 887v188h147v86q0 332 285 332q121 0 279 -63l-62 -187q-104 31 -151 31t-73 -22t-26 -83v-94h275v-188h-275v-887h-252v887h-147zM51 887v188h150v86q0 332 286 332q145 0 349 -80l-70 -182 q-172 43 -218 43t-72 -22t-25 -83v-94h256v-188h-256v-887h-250v887h-150z" glyph-name="uniFB03" horiz-adv-x="2056" unicode="ffi"/><glyph d="M1921 0h-252v1493h252v-1493zM811 887v188h147v86q0 332 285 332q121 0 279 -63l-62 -187q-104 31 -151 31t-73 -22t-26 -83v-94h275v-188h-275v-887h-252v887h-147zM51 887v188h150v86q0 332 286 332q145 0 349 -80l-70 -182q-172 43 -218 43t-72 -22t-25 -83v-94h256 v-188h-256v-887h-250v887h-150z" glyph-name="uniFB04" horiz-adv-x="2068" unicode="ffl"/><glyph d="M2212 891q-168 0 -297 -150v-409q127 -150 297 -150q113 0 171 92t58 262t-58 263q-58 92 -171 92zM811 887v188h147v86q0 332 285 332q121 0 279 -63l-62 -187q-104 31 -151 31t-73 -22t-26 -83v-94h275v-188h-275v-887h-252v887h-147zM51 887v188h150v86q0 332 286 332 q145 0 349 -80l-70 -182q-172 43 -218 43t-72 -22t-25 -83v-94h256v-188h-256v-887h-250v887h-150zM1663 0v1493h252v-545q174 150 364 150q191 0 305 -142t114 -418q0 -277 -114 -419q-114 -141 -308 -141t-361 147v-125h-252z" glyph-name="f_f_b.liga" horiz-adv-x="2785" unicode="ffb"/><glyph d="M811 887v188h147v86q0 332 285 332q121 0 279 -63l-62 -187q-104 31 -151 31t-73 -22t-26 -83v-94h275v-188h-275v-887h-252v887h-147zM51 887v188h150v86q0 332 286 332q145 0 349 -80l-70 -182q-172 43 -218 43t-72 -22t-25 -83v-94h256v-188h-256v-887h-250v887h-150z M1915 1493v-555q221 160 426 160q317 0 317 -336v-762h-254v707q0 90 -33 140q-34 50 -120 50t-180 -47t-156 -102v-748h-252v1493h252z" glyph-name="f_f_h.liga" horiz-adv-x="2789" unicode="ffh"/><glyph d="M1454 891q-168 0 -297 -150v-409q127 -150 297 -150q227 0 227 354t-227 355zM51 887v188h150v86q0 332 282 332q115 0 281 -63l-64 -187q-104 31 -151 31t-73 -22t-25 -83v-94h276v-188h-276v-887h-250v887h-150zM903 0v1493h254v-545q173 150 363 150t305 -142 t115 -418q0 -277 -115 -419q-115 -141 -307 -141t-361 147v-125h-254z" glyph-name="f_b.liga" horiz-adv-x="2027" unicode="fb"/><glyph d="M1653 1249v238h270v-238h-270zM1915 1075v-1071q0 -236 -51 -291q-75 -81 -186 -117q-71 -24 -173 -49l-82 185q93 31 139 50t70 52q24 32 28 58q3 26 3 96v1087h252zM811 887v188h147v86q0 332 285 332q121 0 279 -63l-62 -187q-104 31 -151 31t-73 -22t-26 -83v-94h275 v-188h-275v-887h-252v887h-147zM51 887v188h150v86q0 332 286 332q145 0 349 -80l-70 -182q-172 43 -218 43t-72 -22t-25 -83v-94h256v-188h-256v-887h-250v887h-150z" glyph-name="f_f_j.liga" horiz-adv-x="2056" unicode="ffj"/><glyph d="M811 887v188h147v86q0 332 285 332q121 0 279 -63l-62 -187q-104 31 -151 31t-73 -22t-26 -83v-94h275v-188h-275v-887h-252v887h-147zM51 887v188h150v86q0 332 286 332q145 0 349 -80l-70 -182q-172 43 -218 43t-72 -22t-25 -83v-94h256v-188h-256v-887h-250v887h-150z M1915 0h-252v1493h252v-905l385 487h287l-363 -430l428 -645h-268l-311 465l-158 -186v-279z" glyph-name="f_f_k.liga" horiz-adv-x="2660" unicode="ffk"/><glyph d="M1569 887v188h149v271l250 40v-311h295v-188h-295v-584q0 -61 26 -83t76 -22t175 50l90 -189q-188 -82 -330 -82q-287 0 -287 332v578h-149zM51 887v188h150v86q0 332 286 332q145 0 349 -80l-70 -182q-172 43 -218 43t-72 -22t-25 -83v-94h256v-188h-256v-887h-250v887 h-150zM811 887v188h147v86q0 332 289 332q145 0 348 -80l-88 -182q-157 43 -201 43t-70 -22t-26 -83v-94h258v-188h-258v-887h-252v887h-147z" glyph-name="f_f_t.liga" horiz-adv-x="2349" unicode="fft"/><glyph d="M51 887v188h150v86q0 332 282 332q115 0 281 -63l-64 -187q-104 31 -151 31t-73 -22t-25 -83v-94h276v-188h-276v-887h-250v887h-150zM1157 1493v-555q221 160 426 160q315 0 315 -336v-762h-251v707q0 190 -156 190q-84 0 -180 -47t-154 -102v-748h-254v1493h254z" glyph-name="f_h.liga" horiz-adv-x="2031" unicode="fh"/><glyph d="M895 1249v238h270v-238h-270zM1157 1075v-1071q0 -236 -51 -291q-74 -80 -166 -110q-92 -31 -195 -56l-81 185q94 31 139 50t69 52q24 32 28 58q3 26 3 96v1087h254zM51 887v188h150v86q0 332 282 332q115 0 281 -63l-64 -187q-104 31 -151 31t-73 -22t-25 -83v-94h276 v-188h-276v-887h-250v887h-150z" glyph-name="f_j.liga" horiz-adv-x="1296" unicode="fj"/><glyph d="M51 887v188h150v86q0 332 282 332q115 0 281 -63l-64 -187q-104 31 -151 31t-73 -22t-25 -83v-94h276v-188h-276v-887h-250v887h-150zM1157 0h-254v1493h254v-901l383 483h289l-363 -430l426 -645h-266l-313 465l-156 -186v-279z" glyph-name="f_k.liga" horiz-adv-x="1900" unicode="fk"/><glyph d="M815 887v188h150v271l249 40v-311h295v-188h-295v-584q0 -61 26 -83t77 -22t174 50l90 -189q-188 -82 -330 -82q-287 0 -286 332v578h-150zM51 887v188h150v86q0 332 286 332q145 0 349 -80l-86 -182q-156 43 -202 43t-72 -22t-25 -83v-94h256v-188h-256v-887h-250v887 h-150z" glyph-name="f_t.liga" horiz-adv-x="1595" unicode="ft"/><glyph glyph-name=".notdef" horiz-adv-x="542"/><glyph glyph-name="glyph1" horiz-adv-x="0"/><glyph glyph-name="glyph2" horiz-adv-x="681"/><glyph glyph-name="space" horiz-adv-x="561" unicode=" "/><glyph d="M436 1434l-76 -983h-153l-78 983h307zM150 0v287h268v-287h-268z" glyph-name="exclam" horiz-adv-x="567" unicode="!"/><glyph d="M352 1434l-43 -551h-162l-43 551h248zM768 1434l-45 -551h-160l-43 551h248z" glyph-name="quotedbl" horiz-adv-x="874" unicode="&quot;"/><glyph d="M623 901l-58 -371h336l57 371h-335zM86 338v192h281l57 371h-252v195h283l53 338h197l-54 -338h336l53 338h199l-53 -338h252v-195h-281l-57 -371h252v-192h-283l-51 -338h-199l51 338h-335l-52 -338h-198l51 338h-250z" glyph-name="numbersign" horiz-adv-x="1521" unicode="#"/><glyph d="M389 1069q0 -63 43 -100t133 -70v332q-176 -27 -176 -162zM946 368q0 68 -48 110t-144 79v-356q84 10 138 54q54 45 54 113zM754 -205h-189v195q-266 37 -483 174l119 190q166 -98 364 -141v410q-193 55 -323 154q-131 99 -130 274q1 173 124 283t329 120v186h189v-196 q225 -33 417 -131l-118 -193q-139 66 -299 99v-381l55 -19q159 -55 270 -134q144 -103 144 -288q0 -186 -130 -297t-339 -120v-185z" glyph-name="dollar" horiz-adv-x="1304" unicode="$"/><glyph d="M1501 1434l-745 -1434h-203l745 1434h203zM657 1071q0 109 -51 167t-143 58t-142 -58q-51 -58 -51 -167t50 -166t143 -57q92 0 143 57t51 166zM852 1071q0 -183 -103 -283t-285 -100t-284 102q-104 102 -104 282t103 282t285 102t285 -101q103 -102 103 -284zM1786 360 q0 109 -51 167q-51 59 -143 59t-143 -58q-50 -58 -50 -168t50 -166t142 -56q91 0 143 56q52 57 52 166zM1980 360q0 -182 -104 -282t-286 -100t-283 100q-102 100 -103 282q0 182 102 284t284 101q181 0 286 -101q104 -102 104 -284z" glyph-name="percent" horiz-adv-x="2056" unicode="%"/><glyph d="M459 1116q0 -98 139 -237q182 125 182 241q0 62 -39 106t-117 44t-121 -46q-44 -46 -44 -108zM610 170q152 0 285 119l-332 336q-92 -70 -140 -129t-48 -131q0 -71 59 -133t176 -62zM594 -23q-203 -1 -337 105t-134 276q0 130 79 224t218 184q-92 92 -142 175t-51 183 q0 154 117 243t285 89t274 -89q107 -89 107 -216t-73 -219t-204 -187l291 -290q86 145 98 301h254q-37 -256 -188 -465l291 -291h-297l-138 137q-190 -160 -450 -160z" glyph-name="ampersand" horiz-adv-x="1464" unicode="&amp;"/><glyph d="M352 1434l-43 -551h-162l-43 551h248z" glyph-name="quotesingle" horiz-adv-x="458" unicode="'"/><glyph d="M137 156v1114q0 201 35 252q48 75 139 118t242 78l68 -149q-82 -29 -125 -49t-65 -52q-21 -32 -25 -58q-4 -28 -5 -91v-1215q1 -63 5 -91q4 -29 26 -59t64 -50q43 -20 125 -47l-68 -150q-136 31 -260 86q-70 31 -121 111q-26 41 -31 114q-4 72 -4 138z" glyph-name="parenleft" horiz-adv-x="665" unicode="("/><glyph d="M528 1270v-1114q0 -136 -14 -196t-40 -88q-71 -77 -164 -109t-195 -56l-70 150q82 27 125 47q79 37 90 109q4 28 4 91v1215q0 63 -4 91q-10 70 -90 110q-43 20 -125 49l70 149q138 -31 260 -87q69 -34 119 -109q25 -40 30 -113q4 -73 4 -139z" glyph-name="parenright" horiz-adv-x="665" unicode=")"/><glyph d="M383 645l70 320l-248 -220l-109 187l316 98l-314 105l109 186l246 -223l-70 319h215l-68 -319l244 221l107 -186l-306 -101l306 -102l-109 -187l-240 213l66 -311h-215z" glyph-name="asterisk" horiz-adv-x="980" unicode="*"/><glyph d="M547 1159h194v-381h426v-192h-426v-381h-194v381h-426v192h426v381z" glyph-name="plus" horiz-adv-x="1290" unicode="+"/><glyph d="M127 0v307h266l23 -338l-223 -280l-74 88l129 223h-121z" glyph-name="comma" horiz-adv-x="530" unicode=","/><glyph d="M758 479h-627v207h627v-207z" glyph-name="hyphen" horiz-adv-x="890" unicode="-"/><glyph d="M129 0v307h268v-307h-268z" glyph-name="period" horiz-adv-x="526" unicode="."/><glyph d="M915 1618l-675 -1802h-197l676 1802h196z" glyph-name="slash" horiz-adv-x="958" unicode="/"/><glyph d="M687 184q312 0 312 532t-312 533q-312 -1 -312 -533t312 -532zM688 1456q283 0 430 -192q148 -192 148 -547q0 -354 -148 -547t-432 -193q-283 0 -430 193t-147 547q0 355 148 547t431 192z" glyph-name="zero" horiz-adv-x="1376" unicode="0"/><glyph d="M645 0h-264v1184l-252 -133l-104 174l372 209h248v-1434z" glyph-name="one" horiz-adv-x="817" unicode="1"/><glyph d="M1124 219v-219h-1042v131q0 234 198 409q102 89 275 202q172 112 217 155q86 80 86 160t-61 129t-174 49q-178 0 -381 -131l-121 172q256 180 534 180q219 0 343 -108t124 -287q0 -180 -145 -309q-80 -72 -128 -106t-119 -76q-202 -121 -269 -191q-67 -69 -68 -160h731z " glyph-name="two" horiz-adv-x="1234" unicode="2"/><glyph d="M592 199q127 0 207 58t80 159q0 183 -285 230q-68 11 -139 11h-62v224h72q139 0 245 48q105 48 105 150q0 72 -57 114t-160 42q-174 0 -367 -119l-110 166q227 174 518 174q213 0 327 -98t113 -244q-1 -108 -65 -192t-187 -131q139 -37 229 -141t89 -238 q0 -180 -130 -308t-411 -127q-281 0 -549 168l119 183q229 -129 418 -129z" glyph-name="three" horiz-adv-x="1243" unicode="3"/><glyph d="M805 510v702l-477 -702h477zM55 289v188l666 957h346v-924h219v-221h-219v-289h-262v289h-750z" glyph-name="four" horiz-adv-x="1351" unicode="4"/><glyph d="M1073 1434v-222h-643l-22 -323q104 39 223 39q233 0 366 -135t133 -335t-139 -340t-399 -140t-518 165l116 193q199 -133 373 -133q125 1 212 71t87 182t-77 184t-213 73q-136 0 -289 -82l-146 86l78 717h858z" glyph-name="five" horiz-adv-x="1222" unicode="5"/><glyph d="M687 721q-120 0 -202 -50t-116 -112v-2q0 -164 83 -264t217 -100q133 1 205 81t72 188t-69 183q-70 76 -190 76zM915 1239q-180 0 -326 -110t-198 -343q139 136 353 136t340 -127t126 -329t-146 -345t-388 -144q-279 -1 -425 177t-149 430q-2 401 230 637t579 235 q116 0 183 -16l24 -6l-61 -209q-64 14 -142 14z" glyph-name="six" horiz-adv-x="1288" unicode="6"/><glyph d="M514 0h-272q0 154 50 332t112 312t158 292t186 276h-693v222h983v-203q-20 -27 -56 -73t-126 -187t-160 -281t-126 -330q-56 -192 -56 -360z" glyph-name="seven" horiz-adv-x="1075" unicode="7"/><glyph d="M434 1081q0 -131 225 -215q63 24 107 48t81 68q38 44 38 108q1 64 -63 116q-64 54 -164 54t-162 -54t-62 -125zM963 396q0 97 -82 162t-224 120q-139 -55 -220 -121t-81 -162t85 -155q85 -60 217 -60t218 60t87 156zM88 379q0 145 90 239t240 160q-242 127 -242 328 q0 158 130 254t352 96t352 -96t131 -254q0 -201 -242 -328q150 -66 240 -160t90 -239q0 -186 -156 -294t-416 -108q-261 0 -415 108t-154 294z" glyph-name="eight" horiz-adv-x="1316" unicode="8"/><glyph d="M618 1239q-134 0 -206 -80q-72 -81 -72 -189t70 -184t188 -75q118 0 200 49t120 110v7q0 162 -83 262t-217 100zM373 193q178 -1 323 109t197 341q-141 -131 -352 -131t-337 127t-126 329t145 345t407 143t407 -178q146 -178 147 -428q2 -401 -230 -637t-579 -236 q-112 0 -180 17l-25 6l61 207q64 -14 142 -14z" glyph-name="nine" horiz-adv-x="1288" unicode="9"/><glyph d="M137 0v307h269v-307h-269zM137 662v307h269v-307h-269z" glyph-name="colon" horiz-adv-x="544" unicode=":"/><glyph d="M145 0v307h267l22 -336l-223 -282l-74 88l129 223h-121zM145 662v307h269v-307h-269z" glyph-name="semicolon" horiz-adv-x="565" unicode=";"/><glyph d="M92 772l1045 422v-221l-777 -291l777 -293v-217l-1045 422v178z" glyph-name="less" horiz-adv-x="1290" unicode="&lt;"/><glyph d="M121 397v193h1046v-193h-1046zM121 778v195h1046v-195h-1046z" glyph-name="equal" horiz-adv-x="1290" unicode="="/><glyph d="M1194 594l-1042 -422v217l774 293l-774 291v221l1042 -422v-178z" glyph-name="greater" horiz-adv-x="1290" unicode=">"/><glyph d="M1006 1092q0 -311 -465 -430l-15 -211h-164l-16 348q209 45 302 99t93 146t-61 141q-61 50 -166 50q-158 0 -336 -115l-115 178q248 158 490 158q195 0 324 -98t129 -266zM311 0v287h267v-287h-267z" glyph-name="question" horiz-adv-x="1087" unicode="?"/><glyph d="M918 197q139 0 282 129v182q-209 35 -256 35q-102 0 -150 -50q-48 -51 -48 -133t46 -122q48 -40 126 -41zM958 -266q111 0 208 22t141 43l43 23l63 -82q-18 -12 -52 -30t-154 -47q-120 -30 -253 -30q-380 0 -618 251t-238 636t248 635t665 250t644 -244t229 -641 q-2 -252 -102 -414t-303 -161q-139 0 -203 74q-63 75 -74 169q-154 -141 -340 -141q-131 0 -221 78q-90 77 -90 227t93 229t235 78q80 0 194 -22q115 -22 127 -25v95q0 98 -39 139t-161 41t-316 -82l-70 137q236 94 422 94t269 -79q84 -79 84 -248v-371q0 -207 57 -248 q29 -20 74 -20q98 0 179 112t81 342q0 344 -197 562t-571 219q-254 0 -440 -108t-277 -284q-90 -176 -90 -395q-1 -340 207 -562t546 -222z" glyph-name="at" horiz-adv-x="1968" unicode="@"/><glyph d="M717 1196l-230 -680h459zM1120 0l-104 305h-598l-103 -305h-286l544 1434h289l543 -1434h-285z" glyph-name="A" horiz-adv-x="1435" unicode="A"/><glyph d="M1059 426q0 229 -344 229h-285v-450h338q145 -1 218 59t73 162zM981 1042q0 184 -274 185h-277v-379h268q131 0 207 48t76 146zM813 0h-645v1434h551q256 0 389 -90t133 -261q0 -135 -77 -220t-163 -99q136 -22 238 -136q80 -91 80 -258q0 -166 -127 -268t-379 -102z" glyph-name="B" horiz-adv-x="1404" unicode="B"/><glyph d="M715 1219q-158 -1 -249 -135t-91 -367t91 -369t249 -135q158 0 434 164l127 -193q-162 -98 -300 -152t-290 -55q-258 -1 -421 187t-163 553t163 552t421 187q150 0 288 -56t302 -153l-127 -192q-276 164 -434 164z" glyph-name="C" horiz-adv-x="1335" unicode="C"/><glyph d="M1096 717q0 266 -112 379t-349 112h-203v-985h203q237 0 349 114t112 380zM1362 717q0 -373 -179 -545t-526 -172h-489v1434h489q345 0 525 -172t180 -545z" glyph-name="D" horiz-adv-x="1466" unicode="D"/><glyph d="M1153 0h-985v1434h975v-226h-713v-381h586v-221h-586v-383h723v-223z" glyph-name="E" horiz-adv-x="1251" unicode="E"/><glyph d="M1143 1208h-713v-383h567v-219h-567v-606h-262v1434h975v-226z" glyph-name="F" horiz-adv-x="1193" unicode="F"/><glyph d="M1077 0v152q-199 -174 -411 -175q-242 1 -403 189t-161 552t165 551t425 187q160 0 305 -58t310 -159l-127 -192q-94 53 -150 83t-147 59q-90 30 -164 30q-160 -1 -252 -135t-92 -368t90 -374q90 -139 252 -139t360 176v219h-358v209h608v-807h-250z" glyph-name="G" horiz-adv-x="1452" unicode="G"/><glyph d="M1051 0v641h-621v-641h-262v1434h262v-572h621v572h264v-1434h-264z" glyph-name="H" horiz-adv-x="1482" unicode="H"/><glyph d="M430 0h-262v1434h262v-1434z" glyph-name="I" horiz-adv-x="598" unicode="I"/><glyph d="M430 1434v-1317q0 -187 -16 -222t-36 -67t-49 -50q-30 -17 -83 -47t-232 -73l-86 197q117 39 188 79q43 25 50 96q2 22 2 74v1330h262z" glyph-name="J" horiz-adv-x="600" unicode="J"/><glyph d="M168 0v1434h262v-729l602 729h311l-579 -684l620 -750h-313l-465 563l-176 -209v-354h-262z" glyph-name="K" horiz-adv-x="1394" unicode="K"/><glyph d="M1120 0h-952v1434h262v-1211h690v-223z" glyph-name="L" horiz-adv-x="1161" unicode="L"/><glyph d="M1315 0v1008l-367 -768h-149l-369 770v-1010h-262v1434h270l434 -910l435 910h272v-1434h-264z" glyph-name="M" horiz-adv-x="1746" unicode="M"/><glyph d="M430 0h-262v1434h268l647 -1043v1043h265v-1434h-269l-649 1044v-1044z" glyph-name="N" horiz-adv-x="1515" unicode="N"/><glyph d="M772 203q209 0 303 139t94 375q0 512 -397 512t-397 -512q0 -236 94 -375t303 -139zM772 1456q342 0 506 -204t164 -530t-154 -527q-78 -101 -209 -159t-307 -58t-308 56q-132 58 -209 160q-153 204 -153 523t153 523q77 104 209 160t308 56z" glyph-name="O" horiz-adv-x="1542" unicode="O"/><glyph d="M1026 977q0 236 -303 235h-293v-471h293q303 0 303 236zM733 1434q559 0 559 -455t-559 -455h-303v-524h-262v1434h565z" glyph-name="P" horiz-adv-x="1351" unicode="P"/><glyph d="M772 203q209 0 303 139t94 375q0 512 -397 512t-397 -512q0 -236 94 -375t303 -139zM255 195q-153 203 -153 522t153 523q77 104 209 160t308 56q342 0 506 -204t164 -535q0 -252 -96 -435t-295 -259l229 -181l-174 -180l-334 315q-176 -1 -308 57t-209 161z" glyph-name="Q" horiz-adv-x="1542" unicode="Q"/><glyph d="M1071 1004q0 221 -303 221h-338v-443h332q309 1 309 222zM430 573v-573h-262v1434h608q563 0 563 -430q0 -350 -370 -416l372 -588h-286l-350 573h-275z" glyph-name="R" horiz-adv-x="1429" unicode="R"/><glyph d="M698 -23q-166 1 -336 57t-290 130l118 190q106 -61 250 -109t248 -48q106 0 178 46t72 123t-57 120t-129 68q-182 62 -300 104q-118 41 -219 118q-129 99 -129 279t136 291t360 110q281 0 563 -143l-119 -193q-98 47 -221 81t-216 34t-160 -42t-67 -126t86 -126 q64 -34 227 -86q162 -52 235 -87t142 -84q144 -102 143 -292q-1 -189 -144 -302t-371 -113z" glyph-name="S" horiz-adv-x="1288" unicode="S"/><glyph d="M1169 1208h-430v-1208h-264v1208h-434v226h1128v-226z" glyph-name="T" horiz-adv-x="1208" unicode="T"/><glyph d="M1307 1434v-875q0 -254 -121 -417t-454 -164t-457 163q-123 164 -121 418v875h262v-893q0 -160 68 -249t246 -89q179 0 246 89t66 249v893h265z" glyph-name="U" horiz-adv-x="1462" unicode="U"/><glyph d="M330 1434l387 -1153l385 1153h303l-545 -1434h-289l-544 1434h303z" glyph-name="V" horiz-adv-x="1431" unicode="V"/><glyph d="M1260 0l-277 1057l-274 -1057h-267l-397 1434h299l250 -1092l278 1092h222l278 -1090l254 1090h299l-401 -1434h-264z" glyph-name="W" horiz-adv-x="1968" unicode="W"/><glyph d="M45 1434h303l314 -560l313 560h305l-461 -715l486 -719h-314l-329 543l-328 -543h-314l486 719z" glyph-name="X" horiz-adv-x="1327" unicode="X"/><glyph d="M537 0v571l-519 863h297l355 -652l354 652h297l-522 -869l2 -565h-264z" glyph-name="Y" horiz-adv-x="1339" unicode="Y"/><glyph d="M119 1208v226h1081v-203l-792 -1008h802v-223h-1138v205l788 1003h-741z" glyph-name="Z" horiz-adv-x="1296" unicode="Z"/><glyph d="M674 -295h-520v2013h520v-157h-258v-1698h258v-158z" glyph-name="bracketleft" horiz-adv-x="727" unicode="["/><glyph d="M719 -184l-676 1802h195l675 -1802h-194z" glyph-name="backslash" horiz-adv-x="958" unicode="\"/><glyph d="M575 -295h-522v158h258v1698h-258v157h522v-2013z" glyph-name="bracketright" horiz-adv-x="727" unicode="]"/><glyph d="M883 682l-242 522l-242 -522h-272l385 752h258l389 -752h-276z" glyph-name="asciicircum" horiz-adv-x="1290" unicode="^"/><glyph d="M1321 -338h-1190v182h1190v-182z" glyph-name="underscore" horiz-adv-x="1452" unicode="_"/><glyph d="M510 1217h-207l-348 276h301z" glyph-name="grave" horiz-adv-x="464" unicode="`"/><glyph d="M514 176q162 0 309 131v182q-207 39 -297 39t-144 -49t-54 -134t50 -127t136 -42zM457 674q101 0 366 -53v96q0 100 -44 143q-45 43 -161 43t-393 -84l-82 176q303 103 519 103t315 -90q100 -90 100 -297v-711h-254v131q-170 -154 -385 -154q-156 1 -261 93t-105 258 t108 256q109 90 277 90z" glyph-name="a" horiz-adv-x="1208" unicode="a"/><glyph d="M690 891q-168 0 -297 -150v-409q127 -150 297 -150q227 0 227 354t-227 355zM139 0v1493h254v-545q173 150 363 150t305 -142t115 -418t-115 -418t-307 -142t-361 147v-125h-254z" glyph-name="b" horiz-adv-x="1263" unicode="b"/><glyph d="M344 538q0 -156 71 -249q71 -94 177 -94t315 104l107 -188q-272 -133 -461 -133t-329 144t-140 416t139 415q139 145 333 145t458 -135l-107 -187q-37 25 -138 64t-169 41q-116 1 -186 -93t-70 -250z" glyph-name="c" horiz-adv-x="1069" unicode="c"/><glyph d="M573 182q168 0 297 150v409q-133 150 -297 150q-227 -1 -227 -355t227 -354zM1124 0h-254v125q-172 -147 -363 -147t-305 140q-114 142 -114 420t114 418t304 142q190 0 364 -150v545h254v-1493z" glyph-name="d" horiz-adv-x="1263" unicode="d"/><glyph d="M608 913q-116 1 -182 -75t-80 -215h502q2 290 -240 290zM344 479q24 -311 276 -311q128 0 381 137l103 -162q-299 -166 -519 -166q-221 1 -361 143t-140 412t141 417q141 149 380 149t365 -130t126 -341q0 -77 -15 -148h-737z" glyph-name="e" horiz-adv-x="1187" unicode="e"/><glyph d="M51 887v188h148v86q0 332 288 332q145 0 349 -80l-88 -182q-156 43 -201 43t-71 -22t-25 -83v-94h274v-188h-274v-887h-252v887h-148z" glyph-name="f" horiz-adv-x="763" unicode="f"/><glyph d="M573 182q168 0 297 150v409q-133 150 -297 150q-227 -1 -227 -355t227 -354zM870 1075h254v-1100q0 -414 -446 -413q-258 0 -541 82l51 209q280 -84 426 -84t201 46t55 150v160q-172 -147 -363 -147t-305 140q-114 142 -114 420t114 418t304 142q190 0 364 -150v127z" glyph-name="g" horiz-adv-x="1263" unicode="g"/><glyph d="M393 1493v-555q221 160 426 160q315 0 316 -336v-762h-252v707q0 190 -156 190q-84 0 -180 -47t-154 -102v-748h-254v1493h254z" glyph-name="h" unicode="h"/><glyph d="M133 1249v238h270v-238h-270zM393 0h-252v1075h252v-1075z" glyph-name="i" horiz-adv-x="532" unicode="i"/><glyph d="M391 1075v-1071q0 -236 -51 -291q-75 -81 -165 -111q-91 -30 -193 -55l-82 185q94 31 139 50t70 52q25 32 27 58t3 96v1087h252zM129 1249v238h270v-238h-270z" glyph-name="j" horiz-adv-x="532" unicode="j"/><glyph d="M393 0h-254v1493h254v-901l383 483h289l-363 -430l426 -645h-266l-313 465l-156 -186v-279z" glyph-name="k" horiz-adv-x="1136" unicode="k"/><glyph d="M399 0h-254v1493h254v-1493z" glyph-name="l" horiz-adv-x="544" unicode="l"/><glyph d="M393 1075v-145q182 168 377 168q229 0 289 -191q72 72 178 131t223 60q311 0 312 -336v-762h-254v707q0 190 -146 190q-76 0 -157 -49t-136 -113v-735h-250v707q0 190 -145 190t-291 -154v-743h-254v1075h254z" glyph-name="m" horiz-adv-x="1902" unicode="m"/><glyph d="M393 1075v-137q221 160 426 160q315 0 316 -336v-762h-252v707q0 190 -156 190q-84 0 -180 -47t-154 -102v-748h-254v1075h254z" glyph-name="n" unicode="n"/><glyph d="M905 537q-1 362 -283 362t-282 -362t283 -363q282 1 282 363zM1163 536q0 -266 -140 -412t-400 -146q-259 0 -399 146q-140 148 -140 414t139 412q139 148 399 148t401 -148q140 -148 140 -414z" glyph-name="o" horiz-adv-x="1249" unicode="o"/><glyph d="M690 891q-168 0 -297 -150v-409q127 -150 297 -150q227 0 227 354t-227 355zM393 1075v-127q169 150 361 150t307 -142t115 -418t-115 -418t-307 -142t-361 147v-543h-254v1493h254z" glyph-name="p" horiz-adv-x="1263" unicode="p"/><glyph d="M573 182q168 0 297 150v409q-133 150 -297 150q-227 -1 -227 -355t227 -354zM870 -418v543q-172 -147 -363 -147t-305 140q-114 142 -114 420t114 418t304 142q190 0 364 -150v127h254v-1493h-254z" glyph-name="q" horiz-adv-x="1263" unicode="q"/><glyph d="M393 1075v-227q19 55 103 143q45 47 125 75t176 21v-239q-101 0 -181 -35t-120 -86q-84 -109 -97 -186l-6 -35v-506h-254v1075h254z" glyph-name="r" horiz-adv-x="837" unicode="r"/><glyph d="M592 -23q-138 0 -282 41t-244 95l104 182q88 -47 208 -84t200 -37t129 30t49 72t-18 60q-56 56 -162 83l-75 19q-176 44 -295 120q-118 76 -118 222t109 232t319 86t449 -115l-105 -168q-205 88 -354 88q-76 0 -120 -29t-44 -77q0 -83 148 -124q32 -9 88 -23 q224 -55 329 -136q105 -82 105 -226t-115 -228t-305 -83z" glyph-name="s" horiz-adv-x="1077" unicode="s"/><glyph d="M57 887v188h148v271l252 40v-311h293v-188h-293v-584q-1 -61 25 -83t73 -22t178 50l90 -189q-188 -82 -329 -82q-289 0 -289 332v578h-148z" glyph-name="t" horiz-adv-x="835" unicode="t"/><glyph d="M872 0v135q-231 -158 -428 -158q-313 0 -313 336v762h252v-706q0 -193 156 -193q82 0 177 47t156 105v747h254v-1075h-254z" glyph-name="u" unicode="u"/><glyph d="M711 0h-250l-428 1075h272l279 -815l280 815h275z" glyph-name="v" horiz-adv-x="1173" unicode="v"/><glyph d="M1081 0l-231 774l-232 -774h-241l-334 1075h268l201 -813l229 813h215l230 -813l203 813h268l-336 -1075h-240z" glyph-name="w" horiz-adv-x="1699" unicode="w"/><glyph d="M895 0l-289 403l-287 -403h-303l437 539l-412 536h291l274 -395l275 395h293l-414 -534l436 -541h-301z" glyph-name="x" horiz-adv-x="1214" unicode="x"/><glyph d="M35 1075h274l279 -774l278 774h277l-596 -1493h-275l187 422z" glyph-name="y" horiz-adv-x="1175" unicode="y"/><glyph d="M74 0v180l612 684h-592v211h928v-182l-614 -684h614v-209h-948z" glyph-name="z" horiz-adv-x="1105" unicode="z"/><glyph d="M33 627v172q229 0 196 237l-26 191q-33 243 102 367t412 124h37v-153h-37q-289 0 -248 -312l23 -170q20 -166 -45 -254t-214 -116q151 -29 215 -117t44 -254l-23 -170q-41 -313 248 -313h37v-152h-37q-279 0 -413 125t-101 367l26 190q33 238 -196 238z" glyph-name="braceleft" horiz-adv-x="806" unicode="{"/><glyph d="M344 -252h-190v1927h190v-1927z" glyph-name="bar" horiz-adv-x="499" unicode="|"/><glyph d="M774 799v-172q-229 0 -196 -238l26 -190q33 -242 -102 -367t-412 -125h-37v152h37q109 0 170 48q60 47 74 113t2 152l-21 170q-20 166 43 253t213 118q-150 29 -213 117t-43 253l21 170q25 117 -28 215q-53 97 -218 97h-37v153h37q276 0 410 -125t102 -366l-27 -191 q-30 -237 199 -237z" glyph-name="braceright" horiz-adv-x="806" unicode="}"/><glyph d="M882 588q66 0 110 28t89 109l154 -63q-121 -285 -348 -285q-100 0 -257 76q-156 75 -222 75t-109 -28t-90 -109l-156 64q127 285 348 284q107 1 261 -75t220 -76z" glyph-name="asciitilde" horiz-adv-x="1290" unicode="~"/><glyph glyph-name="uni00A0" horiz-adv-x="561" unicode=" "/><glyph d="M360 981l76 -981h-307l76 981h155zM150 1147v287h268v-287h-268z" glyph-name="exclamdown" horiz-adv-x="567" unicode="¡"/><glyph d="M360 719q0 -129 50 -217t135 -117v664q-85 -27 -135 -114t-50 -216zM731 0h-186v158q-193 14 -319 157t-126 401t127 403q127 144 318 157v158h186v-174q131 -31 324 -130l-109 -186q-162 82 -215 96v-647q59 18 215 96l109 -186q-193 -98 -324 -129v-174z" glyph-name="cent" horiz-adv-x="1148" unicode="¢"/><glyph d="M131 516v160h195q-18 43 -67 120q-48 76 -77 148t-28 156q0 164 112 260q113 96 309 96q101 0 205 -30t160 -58t139 -76l-118 -172q-209 115 -323 115t-166 -49q-54 -49 -54 -123t76 -197t94 -190h332v-160h-320q-12 -96 -63 -177t-99 -120h619v-219h-948v180 q26 13 72 51t78 73q32 36 59 93q28 57 34 119h-221z" glyph-name="sterling" horiz-adv-x="1171" unicode="£"/><glyph d="M201 592v156h272l-412 686h297l355 -652l354 652h297l-414 -686h273v-156h-365l-16 -29v-96h381v-156h-381l2 -311h-264v311h-379v156h379v104l-13 21h-366z" glyph-name="yen" horiz-adv-x="1425" unicode="¥"/><glyph d="M346 -252h-190v846h190v-846zM346 829h-190v846h190v-846z" glyph-name="brokenbar" horiz-adv-x="503" unicode="¦"/><glyph d="M338 680q0 -100 278 -172q23 -6 35 -10q80 10 123 46t43 80t-18 62q-17 18 -31 30t-38 21t-39 17q-25 12 -93 30q-68 17 -96 25q-80 -12 -122 -47t-42 -82zM135 1138q0 148 110 233q109 85 319 85t448 -115l-105 -167q-201 88 -356 88q-76 0 -120 -29t-44 -75 q-1 -46 27 -66q65 -49 204 -81q39 -9 56 -14q387 -98 387 -342q0 -174 -187 -245q144 -94 144 -242t-109 -231q-109 -84 -317 -84t-449 112l105 168q205 -88 356 -88q76 0 119 29q43 30 43 76t-28 66l-42 30q-16 10 -50 21l-51 17q-17 6 -59 14q-222 48 -330 132 q-109 84 -110 221q0 172 180 246q-141 93 -141 241z" glyph-name="section" horiz-adv-x="1157" unicode="§"/><glyph d="M322 1237v219h215v-219h-215zM-41 1237v219h215v-219h-215z" glyph-name="dieresis" horiz-adv-x="495" unicode="¨"/><glyph d="M184 717q0 -289 172 -475t476 -186t478 186t173 475q0 289 -173 475q-174 186 -478 186t-476 -186t-172 -475zM102 717q0 323 195 531t537 208t536 -209t193 -531q0 -322 -194 -530q-193 -209 -535 -209t-537 209t-195 531zM569 716q0 -161 70 -257q71 -97 193 -97 t266 107l63 -72q-180 -127 -337 -127t-259 117t-102 329t102 328t259 117q157 0 337 -127l-63 -73q-142 111 -266 111t-194 -98q-70 -97 -69 -258z" glyph-name="copyright" horiz-adv-x="1665" unicode="©"/><glyph d="M268 999q0 -88 102 -88t189 72v92q-102 20 -164 21q-127 0 -127 -97zM559 788v76q-102 -90 -240 -90q-101 0 -167 57t-66 155t70 152q70 56 163 56t240 -31v49q0 53 -28 77q-27 24 -103 24t-240 -49l-57 122q197 62 337 62t205 -56t64 -188v-416h-178z" glyph-name="ordfeminine" horiz-adv-x="864" unicode="ª"/><glyph d="M662 639l624 440v-241l-412 -279l412 -276v-242l-624 442v156zM66 639l624 440v-241l-409 -279l409 -276v-242l-624 442v156z" glyph-name="guillemotleft" horiz-adv-x="1398" unicode="«"/><glyph d="M1233 184h-209v402h-987v192h1196v-594z" glyph-name="logicalnot" horiz-adv-x="1290" unicode="¬"/><glyph d="M541 1061q71 0 71 56t-67 57h-125v-113h121zM682 1122q0 -47 -29 -79t-73 -42l96 -178h-76l-90 174h-90v-174h-68v412h191q63 0 101 -33t38 -80zM172 1024q0 -152 85 -247t247 -95t246 95t84 247t-84 247t-246 95t-247 -95t-85 -247zM98 1024q0 178 109 294t297 116 t296 -116t108 -294t-108 -294t-296 -116t-297 116t-109 294z" glyph-name="registered" horiz-adv-x="1007" unicode="®"/><glyph d="M0 1268v153h618v-153h-618z" glyph-name="macron" horiz-adv-x="618" unicode="¯"/><glyph d="M233 1079q-1 -84 59 -143t144 -59t144 59q59 59 59 143q0 83 -59 143q-60 60 -144 60t-144 -60t-59 -143zM82 1080q0 146 104 250t250 106q146 0 252 -104q104 -104 104 -252q0 -146 -104 -250t-250 -105q-146 0 -252 104q-104 105 -104 251z" glyph-name="degree" horiz-adv-x="874" unicode="°"/><glyph d="M121 0v168h1046v-168h-1046zM543 1102h196v-299h428v-195h-428v-301h-196v301h-422v195h422v299z" glyph-name="plusminus" horiz-adv-x="1290" unicode="±"/><glyph d="M737 942v-154h-674v84q0 119 75 199t208 160q70 35 105 63q35 27 49 38q14 10 21 20t17 24t11 48q0 34 -36 60t-101 25q-109 0 -240 -79l-84 118q174 115 332 115t238 -68q79 -68 79 -176t-79 -177t-144 -104q-64 -36 -108 -60q-118 -67 -119 -136h450z" glyph-name="uni00B2" horiz-adv-x="821" unicode="²"/><glyph d="M395 928q74 0 120 30t46 84q0 127 -258 127h-41v154h47q84 0 149 25t64 79q0 82 -118 82t-240 -73l-76 116q145 111 338 111q139 0 211 -59t72 -150q0 -133 -154 -190q86 -25 140 -85q55 -60 55 -155q0 -94 -82 -172t-260 -78t-363 107l84 127q141 -80 266 -80z" glyph-name="uni00B3" horiz-adv-x="821" unicode="³"/><glyph d="M162 1217h-207l254 276h301z" glyph-name="acute" horiz-adv-x="464" unicode="´"/><glyph d="M154 -418v1493h252v-706q0 -193 155 -193q82 0 177 47t157 105v747h254v-1075h-254v135q-231 -158 -428 -158q-25 0 -61 5v-400h-252z" glyph-name="uni00B5" horiz-adv-x="1271" unicode="µ"/><glyph d="M1016 -381v1815h219v-1815h-219zM612 1434h213v-1813h-217v864q-242 0 -392 120t-148 357q0 236 142 354t402 118z" glyph-name="paragraph" horiz-adv-x="1411" unicode="¶"/><glyph d="M131 430v307h268v-307h-268z" glyph-name="periodcentered" horiz-adv-x="532" unicode="·"/><glyph d="M383 -179q1 -95 -63 -141t-160 -47q-96 0 -176 41l55 133q53 -27 100 -26q104 0 105 82q0 31 -16 67t-31 54l-15 20h119q82 -88 82 -183z" glyph-name="cedilla" horiz-adv-x="366" unicode="¸"/><glyph d="M440 788h-186v689l-156 -80l-75 121l241 131h176v-861z" glyph-name="uni00B9" horiz-adv-x="565" unicode="¹"/><glyph d="M602 1110q0 199 -167 199t-167 -199t167 -199t167 199zM782 1110q0 -160 -90 -248t-257 -88t-257 88t-90 249t89 249t257 88t258 -89t90 -249z" glyph-name="ordmasculine" horiz-adv-x="870" unicode="º"/><glyph d="M739 483l-624 -442v244l411 274l-411 279v241l624 -440v-156zM1335 639v-156l-624 -442v244l409 274l-409 279v241z" glyph-name="guillemotright" horiz-adv-x="1398" unicode="»"/><glyph d="M1362 317v396l-281 -396h281zM473 573h-186v689l-156 -80l-76 121l242 131h176v-861zM1231 1434l-678 -1434h-199l678 1434h199zM1362 0v166h-471v129l412 565h247v-543h138v-151h-138v-166h-188z" glyph-name="onequarter" horiz-adv-x="1769" unicode="¼"/><glyph d="M1694 154v-154h-676v84q0 82 46 154t98 112t167 108q115 70 145 103t30 71t-37 64q-35 26 -119 25q-84 0 -222 -80l-84 119q180 114 336 114t235 -68t79 -171q0 -135 -136 -228q-57 -41 -148 -92t-129 -85t-38 -76h453zM1231 1434l-678 -1434h-199l678 1434h199zM473 573 h-186v689l-156 -80l-76 121l242 131h176v-861z" glyph-name="onehalf" horiz-adv-x="1798" unicode="½"/><glyph d="M1575 317v396l-281 -396h281zM1442 1434l-676 -1434h-199l676 1434h199zM426 713q74 1 120 31t46 83q0 127 -258 127h-41v154h47q84 0 148 25t65 79q0 82 -118 82t-240 -73l-76 116q145 111 338 111q139 0 211 -59t71 -150q0 -133 -153 -190q86 -25 140 -85t54 -155 t-82 -173t-260 -76q-178 0 -362 106l84 127q141 -80 266 -80zM1100 166v129l416 565h245v-543h137v-151h-137v-166h-186v166h-475z" glyph-name="threequarters" horiz-adv-x="1972" unicode="¾"/><glyph d="M778 1434v-287h-270v287h270zM535 -23q-195 -1 -324 97t-129 270t126 272t337 156l14 209h168l16 -348q-211 -43 -304 -97t-93 -146t62 -143q62 -50 167 -50q143 0 336 114l111 -176q-233 -158 -487 -158z" glyph-name="questiondown" horiz-adv-x="1083" unicode="¿"/><glyph d="M909 1526h-207l-348 276h301zM717 1196l-230 -680h459zM1120 0l-104 305h-598l-103 -305h-286l544 1434h289l543 -1434h-285z" glyph-name="Agrave" horiz-adv-x="1435" unicode="À"/><glyph d="M735 1526h-211l254 276h303zM717 1196l-230 -680h459zM1120 0l-104 305h-598l-103 -305h-286l544 1434h289l543 -1434h-285z" glyph-name="Aacute" horiz-adv-x="1435" unicode="Á"/><glyph d="M846 1802l213 -276h-180l-162 160l-160 -160h-180l211 276h258zM717 1196l-230 -680h459zM1120 0l-104 305h-598l-103 -305h-286l544 1434h289l543 -1434h-285z" glyph-name="Acircumflex" horiz-adv-x="1435" unicode="Â"/><glyph d="M577 1796q55 0 149 -49t124 -49q51 0 104 94l119 -57q-47 -99 -94 -149t-113 -50t-161 49q-94 49 -123 49q-52 0 -105 -94l-119 55q35 68 57 103q23 34 65 66t97 32zM717 1196l-230 -680h459zM1120 0l-104 305h-598l-103 -305h-286l544 1434h289l543 -1434h-285z" glyph-name="Atilde" horiz-adv-x="1435" unicode="Ã"/><glyph d="M793 1550v222h213v-222h-213zM430 1550v222h215v-222h-215zM717 1196l-230 -680h459zM1120 0l-104 305h-598l-103 -305h-286l544 1434h289l543 -1434h-285z" glyph-name="Adieresis" horiz-adv-x="1435" unicode="Ä"/><glyph d="M623 1729q-1 -41 27 -69t69 -28t69 28t29 69q0 41 -29 69q-28 28 -68 27q-40 1 -68 -27t-29 -69zM717 1196l-230 -680h459zM496 1728q0 92 66 158t158 66q93 0 159 -66q65 -66 65 -158t-66 -158q-66 -65 -158 -65q-93 0 -159 65q-65 65 -65 158zM1120 0l-104 305h-598 l-103 -305h-286l544 1434h289l543 -1434h-285z" glyph-name="Aring" horiz-adv-x="1435" unicode="Å"/><glyph d="M1053 522v666l-437 -666h437zM2040 0h-987v305h-580l-199 -305h-315l979 1434h1090v-226h-713v-381h588v-221h-588v-383h725v-223z" glyph-name="AE" horiz-adv-x="2136" unicode="Æ"/><glyph d="M690 -137q0 53 -39 117q-245 12 -397 198t-152 545t163 546t421 187q150 0 288 -55t302 -154l-127 -192q-276 164 -434 164q-158 -1 -249 -135t-91 -367t91 -369t249 -135q158 0 434 164l127 -193q-301 -180 -508 -202q63 -86 63 -171t-62 -131q-63 -46 -161 -47 q-98 0 -174 41l51 133q59 -27 101 -26q104 0 104 82z" glyph-name="Ccedilla" horiz-adv-x="1335" unicode="Ç"/><glyph d="M854 1526h-209l-346 276h301zM1153 0h-985v1434h975v-226h-713v-381h586v-221h-586v-383h723v-223z" glyph-name="Egrave" horiz-adv-x="1251" unicode="È"/><glyph d="M678 1526h-209l254 276h303zM1153 0h-985v1434h975v-226h-713v-381h586v-221h-586v-383h723v-223z" glyph-name="Eacute" horiz-adv-x="1251" unicode="É"/><glyph d="M788 1802l213 -276h-180l-162 160l-159 -160h-181l213 276h256zM1153 0h-985v1434h975v-226h-713v-381h586v-221h-586v-383h723v-223z" glyph-name="Ecircumflex" horiz-adv-x="1251" unicode="Ê"/><glyph d="M735 1546v219h213v-219h-213zM373 1546v219h215v-219h-215zM1153 0h-985v1434h975v-226h-713v-381h586v-221h-586v-383h723v-223z" glyph-name="Edieresis" horiz-adv-x="1251" unicode="Ë"/><glyph d="M489 1526h-206l-349 276h302zM430 0h-264v1434h264v-1434z" glyph-name="Igrave" horiz-adv-x="598" unicode="Ì"/><glyph d="M315 1526h-206l253 276h302zM430 0h-262v1434h262v-1434z" glyph-name="Iacute" horiz-adv-x="598" unicode="Í"/><glyph d="M426 1802l213 -276h-178l-162 160l-162 -160h-178l211 276h256zM430 0h-262v1434h262v-1434z" glyph-name="Icircumflex" horiz-adv-x="598" unicode="Î"/><glyph d="M373 1544v219h215v-219h-215zM10 1544v219h215v-219h-215zM430 0h-262v1434h262v-1434z" glyph-name="Idieresis" horiz-adv-x="598" unicode="Ï"/><glyph d="M1122 717q0 266 -111 379q-112 113 -349 112h-203v-387h311v-209h-311v-389h203q238 0 349 114t111 380zM1386 717q0 -373 -179 -545t-525 -172h-487v612h-154v209h154v613h487q346 0 525 -172t179 -545z" glyph-name="Eth" horiz-adv-x="1490" unicode="Ð"/><glyph d="M635 1806q49 0 144 -49t122 -49q51 0 105 94l120 -57q-48 -95 -80 -132q-54 -65 -124 -66t-165 48t-122 50q-52 -1 -105 -95l-120 56q29 53 43 77q47 85 101 109q32 14 81 14zM1083 1434h265v-1434h-269l-649 1044v-1044h-262v1434h268l647 -1043v1043z" glyph-name="Ntilde" horiz-adv-x="1515" unicode="Ñ"/><glyph d="M965 1526h-209l-348 276h301zM772 203q209 0 303 139t94 375q0 512 -397 512t-397 -512q0 -236 94 -375t303 -139zM772 1456q342 0 506 -204t164 -530t-154 -527q-78 -101 -209 -159t-307 -58t-308 56q-132 58 -209 160q-153 204 -153 523t153 523q77 104 209 160t308 56 z" glyph-name="Ograve" horiz-adv-x="1542" unicode="Ò"/><glyph d="M788 1526h-208l254 276h301zM772 203q209 0 303 139t94 375q0 512 -397 512t-397 -512q0 -236 94 -375t303 -139zM772 1456q342 0 506 -204t164 -530t-154 -527q-78 -101 -209 -159t-307 -58t-308 56q-132 58 -209 160q-153 204 -153 523t153 523q77 104 209 160t308 56z " glyph-name="Oacute" horiz-adv-x="1542" unicode="Ó"/><glyph d="M899 1802l213 -276h-178l-162 160l-162 -160h-178l211 276h256zM772 203q209 0 303 139t94 375q0 512 -397 512t-397 -512q0 -236 94 -375t303 -139zM772 1456q342 0 506 -204t164 -530t-154 -527q-78 -101 -209 -159t-307 -58t-308 56q-132 58 -209 160 q-153 204 -153 523t153 523q77 104 209 160t308 56z" glyph-name="Ocircumflex" horiz-adv-x="1542" unicode="Ô"/><glyph d="M637 1796q49 0 144 -49t122 -49q51 0 105 94l120 -57q-48 -94 -79 -132q-54 -67 -125 -67q-70 0 -165 49t-122 49q-52 0 -105 -94l-120 55q55 100 84 137q28 36 60 50t81 14zM772 203q209 0 303 139t94 375q0 512 -397 512t-397 -512q0 -236 94 -375t303 -139zM772 1456 q342 0 506 -204t164 -530t-154 -527q-78 -101 -209 -159t-307 -58t-308 56q-132 58 -209 160q-153 204 -153 523t153 523q77 104 209 160t308 56z" glyph-name="Otilde" horiz-adv-x="1542" unicode="Õ"/><glyph d="M846 1546v219h215v-219h-215zM483 1546v219h215v-219h-215zM772 203q209 0 303 139t94 375q0 512 -397 512t-397 -512q0 -236 94 -375t303 -139zM772 1456q342 0 506 -204t164 -530t-154 -527q-78 -101 -209 -159t-307 -58t-308 56q-132 58 -209 160q-153 204 -153 523 t153 523q77 104 209 160t308 56z" glyph-name="Odieresis" horiz-adv-x="1542" unicode="Ö"/><glyph d="M1083 952l-290 -266l292 -266l-141 -141l-301 272l-295 -270l-143 141l291 264l-293 268l141 142l299 -275l297 273z" glyph-name="multiply" horiz-adv-x="1290" unicode="×"/><glyph d="M373 717q0 -199 59 -318l578 756q-92 74 -240 74q-397 0 -397 -512zM770 203q209 0 303 139t94 351t-59 337l-580 -754q92 -73 242 -73zM264 180q-164 193 -164 524t153 536q77 104 209 160t308 56q233 0 391 -102l62 80h194l-141 -183q164 -193 164 -524t-154 -532 q-78 -101 -209 -159t-307 -59q-238 0 -391 103l-62 -80h-192z" glyph-name="Oslash" horiz-adv-x="1540" unicode="Ø"/><glyph d="M924 1526h-209l-348 276h301zM1307 1434v-875q0 -254 -121 -417t-454 -164t-457 163q-123 164 -121 418v875h262v-893q0 -160 68 -249t246 -89q179 0 246 89t66 249v893h265z" glyph-name="Ugrave" horiz-adv-x="1462" unicode="Ù"/><glyph d="M745 1526h-206l254 276h301zM1307 1434v-875q0 -254 -121 -417t-454 -164t-457 163q-123 164 -121 418v875h262v-893q0 -160 68 -249t246 -89q179 0 246 89t66 249v893h265z" glyph-name="Uacute" horiz-adv-x="1462" unicode="Ú"/><glyph d="M858 1802l213 -276h-178l-162 160l-164 -160h-176l209 276h258zM1307 1434v-875q0 -254 -121 -417t-454 -164t-457 163q-123 164 -121 418v875h262v-893q0 -160 68 -249t246 -89q179 0 246 89t66 249v893h265z" glyph-name="Ucircumflex" horiz-adv-x="1460" unicode="Û"/><glyph d="M805 1546v219h213v-219h-213zM442 1546v219h213v-219h-213zM1307 1434v-875q0 -254 -121 -417t-454 -164t-457 163q-123 164 -121 418v875h262v-893q0 -160 68 -249t246 -89q179 0 246 89t66 249v893h265z" glyph-name="Udieresis" horiz-adv-x="1462" unicode="Ü"/><glyph d="M686 1526h-209l254 276h303zM537 0v571l-519 863h297l355 -652l354 652h297l-522 -869l2 -565h-264z" glyph-name="Yacute" horiz-adv-x="1339" unicode="Ý"/><glyph d="M1026 740q0 130 -84 182t-248 53h-264v-471h264q164 0 248 53t84 183zM733 1194q559 0 559 -455t-559 -454h-303v-285h-262v1434h262v-240h303z" glyph-name="Thorn" horiz-adv-x="1370" unicode="Þ"/><glyph d="M717 1456q578 0 577 -463v-10l-120 -143q-154 74 -279 73q-61 -1 -100 -31t-39 -79t22 -70q22 -19 34 -29t43 -20q30 -10 42 -15t51 -15q194 -52 293 -138q100 -86 100 -230t-101 -227q-101 -82 -275 -82q-125 0 -258 41t-224 95l95 170q74 -45 180 -83t173 -38t111 32 t43 87q0 55 -50 90q-50 34 -147 62q-293 86 -357 219q-28 58 -27 134q0 140 96 226t266 86q70 0 166 -19q-23 92 -97 135q-75 43 -235 43q-160 -1 -234 -69q-73 -68 -73 -219v-969h-254v989q-1 225 143 346t435 121z" glyph-name="germandbls" horiz-adv-x="1411" unicode="ß"/><glyph d="M805 1217h-211l-346 276h301zM514 176q162 0 309 131v182q-207 39 -297 39t-144 -49t-54 -134t50 -127t136 -42zM457 674q101 0 366 -53v96q0 100 -44 143q-45 43 -161 43t-393 -84l-82 176q303 103 519 103t315 -90q100 -90 100 -297v-711h-254v131q-170 -154 -385 -154 q-156 1 -261 93t-105 258t108 256q109 90 277 90z" glyph-name="agrave" horiz-adv-x="1208" unicode="à"/><glyph d="M627 1217h-207l254 276h301zM514 176q162 0 309 131v182q-207 39 -297 39t-144 -49t-54 -134t50 -127t136 -42zM457 674q101 0 366 -53v96q0 100 -44 143q-45 43 -161 43t-393 -84l-82 176q303 103 519 103t315 -90q100 -90 100 -297v-711h-254v131q-170 -154 -385 -154 q-156 1 -261 93t-105 258t108 256q109 90 277 90z" glyph-name="aacute" horiz-adv-x="1208" unicode="á"/><glyph d="M739 1493l211 -276h-178l-162 159l-161 -159h-179l211 276h258zM514 176q162 0 309 131v182q-207 39 -297 39t-144 -49t-54 -134t50 -127t136 -42zM457 674q101 0 366 -53v96q0 100 -44 143q-45 43 -161 43t-393 -84l-82 176q303 103 519 103t315 -90q100 -90 100 -297 v-711h-254v131q-170 -154 -385 -154q-156 1 -261 93t-105 258t108 256q109 90 277 90z" glyph-name="acircumflex" horiz-adv-x="1206" unicode="â"/><glyph d="M477 1487q49 0 145 -49t121 -49q51 0 105 94l121 -58q-47 -91 -79 -131q-55 -67 -125 -67q-69 0 -165 49t-123 49q-51 0 -104 -94l-121 55q55 101 85 137q51 64 140 64zM514 176q162 0 309 131v182q-207 39 -297 39t-144 -49t-54 -134t50 -127t136 -42zM457 674 q101 0 366 -53v96q0 100 -44 143q-45 43 -161 43t-393 -84l-82 176q303 103 519 103t315 -90q100 -90 100 -297v-711h-254v131q-170 -154 -385 -154q-156 1 -261 93t-105 258t108 256q109 90 277 90z" glyph-name="atilde" horiz-adv-x="1208" unicode="ã"/><glyph d="M684 1237v219h215v-219h-215zM322 1237v219h215v-219h-215zM514 176q162 0 309 131v182q-207 39 -297 39t-144 -49t-54 -134t50 -127t136 -42zM457 674q101 0 366 -53v96q0 100 -44 143q-45 43 -161 43t-393 -84l-82 176q303 103 519 103t315 -90q100 -90 100 -297v-711 h-254v131q-170 -154 -385 -154q-156 1 -261 93t-105 258t108 256q109 90 277 90z" glyph-name="adieresis" horiz-adv-x="1208" unicode="ä"/><glyph d="M610 1516q-40 0 -68 -29t-28 -69t28 -68t68 -27q40 0 70 28q29 29 29 69t-29 68t-70 28zM514 176q162 0 309 131v182q-207 39 -297 39t-144 -49t-54 -134t50 -127t136 -42zM836 1418q0 -94 -66 -158t-159 -64t-159 64t-65 158q0 93 66 159q67 65 159 65t158 -66t66 -158z M457 674q101 0 366 -53v96q0 100 -44 143q-45 43 -161 43t-393 -84l-82 176q303 103 519 103t315 -90q100 -90 100 -297v-711h-254v131q-170 -154 -385 -154q-156 1 -261 93t-105 258t108 256q109 90 277 90z" glyph-name="aring" horiz-adv-x="1208" unicode="å"/><glyph d="M1317 913q-115 1 -181 -75t-81 -215h501q3 290 -239 290zM547 528q-111 0 -165 -49t-54 -134t50 -127t136 -42q159 0 309 133q-23 70 -28 172q-195 47 -248 47zM1806 627q0 -72 -16 -148h-737q12 -147 80 -229q67 -82 195 -82t384 137l100 -162q-293 -166 -522 -166 q-276 0 -409 209q-197 -209 -443 -209q-156 1 -261 93t-105 258t108 256q109 90 277 90q106 0 340 -56q6 72 24 134q-6 80 -51 116q-44 36 -156 35q-112 0 -389 -84l-82 176q303 103 525 103t319 -101q131 101 349 101t344 -130t126 -341z" glyph-name="ae" horiz-adv-x="1894" unicode="æ"/><glyph d="M86 548q0 260 139 405t333 145t458 -135l-107 -187q-37 25 -138 64t-169 41q-116 1 -186 -93t-70 -250t71 -249q71 -94 177 -94t315 104l107 -188q-236 -115 -393 -131q63 -80 63 -167t-62 -133t-158 -47q-96 0 -177 41l53 133q55 -27 100 -26q104 0 105 82q0 49 -43 119 q-182 22 -300 164t-118 402z" glyph-name="ccedilla" horiz-adv-x="1073" unicode="ç"/><glyph d="M805 1217h-209l-348 276h303zM608 913q-116 1 -182 -75t-80 -215h502q2 290 -240 290zM344 479q24 -311 276 -311q128 0 381 137l103 -162q-299 -166 -519 -166q-221 1 -361 143t-140 412t141 417q141 149 380 149t365 -130t126 -341q0 -77 -15 -148h-737z" glyph-name="egrave" horiz-adv-x="1187" unicode="è"/><glyph d="M629 1217h-207l252 276h303zM608 913q-116 1 -182 -75t-80 -215h502q2 290 -240 290zM344 479q24 -311 276 -311q128 0 381 137l103 -162q-299 -166 -519 -166q-221 1 -361 143t-140 412t141 417q141 149 380 149t365 -130t126 -341q0 -77 -15 -148h-737z" glyph-name="eacute" horiz-adv-x="1187" unicode="é"/><glyph d="M739 1493l213 -276h-178l-162 159l-161 -159h-179l211 276h256zM608 913q-116 1 -182 -75t-80 -215h502q2 290 -240 290zM344 479q24 -311 276 -311q128 0 381 137l103 -162q-299 -166 -519 -166q-221 1 -361 143t-140 412t141 417q141 149 380 149t365 -130t126 -341 q0 -77 -15 -148h-737z" glyph-name="ecircumflex" horiz-adv-x="1187" unicode="ê"/><glyph d="M686 1237v219h215v-219h-215zM324 1237v219h215v-219h-215zM608 913q-116 1 -182 -75t-80 -215h502q2 290 -240 290zM344 479q24 -311 276 -311q128 0 381 137l103 -162q-299 -166 -519 -166q-221 1 -361 143t-140 412t141 417q141 149 380 149t365 -130t126 -341 q0 -77 -15 -148h-737z" glyph-name="edieresis" horiz-adv-x="1187" unicode="ë"/><glyph d="M457 1217h-207l-348 276h301zM391 0h-252v1075h252v-1075z" glyph-name="igrave" horiz-adv-x="532" unicode="ì"/><glyph d="M283 1217h-207l254 276h301zM393 0h-254v1075h254v-1075z" glyph-name="iacute" horiz-adv-x="532" unicode="í"/><glyph d="M393 1493l213 -276h-178l-162 159l-162 -159h-178l211 276h256zM393 0h-254v1075h254v-1075z" glyph-name="icircumflex" horiz-adv-x="532" unicode="î"/><glyph d="M340 1237v219h213v-219h-213zM-23 1237v219h216v-219h-216zM391 0h-252v1075h252v-1075z" glyph-name="idieresis" horiz-adv-x="532" unicode="ï"/><glyph d="M930 476q0 136 -73 218t-218 82t-218 -84t-73 -217t73 -217t217 -84t218 83t74 219zM353 1231q-61 0 -126 -17l-34 195q79 25 199 25t218 -25l88 84h224l-152 -145q198 -100 306 -302t108 -458q0 -307 -151 -459t-405 -152q-254 1 -398 135t-144 360t134 364t345 139 q135 0 222 -47t118 -88l13 -15q-31 119 -112 217t-202 148l-102 -98h-221l143 137q-10 2 -71 2z" glyph-name="eth" horiz-adv-x="1275" unicode="ð"/><glyph d="M768 1378q51 0 104 95l121 -58q-48 -95 -80 -132q-55 -66 -124 -66q-70 0 -165 49t-122 49q-52 0 -105 -94l-121 55q55 101 84 136q51 63 121 64q70 2 165 -48t122 -50zM393 1075v-137q221 160 426 160q315 0 316 -336v-762h-252v707q0 190 -156 190q-84 0 -180 -47 t-154 -102v-748h-254v1075h254z" glyph-name="ntilde" unicode="ñ"/><glyph d="M815 1217h-207l-348 276h301zM905 537q-1 362 -283 362t-282 -362t283 -363q282 1 282 363zM1163 536q0 -266 -140 -412t-400 -146q-259 0 -399 146q-140 148 -140 414t139 412q139 148 399 148t401 -148q140 -148 140 -414z" glyph-name="ograve" horiz-adv-x="1249" unicode="ò"/><glyph d="M641 1217h-211l254 276h303zM905 537q-1 362 -283 362t-282 -362t283 -363q282 1 282 363zM1163 536q0 -266 -140 -412t-400 -146q-259 0 -399 146q-140 148 -140 414t139 412q139 148 399 148t401 -148q140 -148 140 -414z" glyph-name="oacute" horiz-adv-x="1249" unicode="ó"/><glyph d="M752 1493l213 -276h-181l-161 159l-160 -159h-180l213 276h256zM905 537q-1 362 -283 362t-282 -362t283 -363q282 1 282 363zM1163 536q0 -266 -140 -412t-400 -146q-259 0 -399 146q-140 148 -140 414t139 412q139 148 399 148t401 -148q140 -148 140 -414z" glyph-name="ocircumflex" horiz-adv-x="1249" unicode="ô"/><glyph d="M776 1227q-60 0 -154 40q-93 40 -130 40q-66 4 -107 -78l-115 39q45 99 72 137q48 66 117 67t163 -39t134 -42q68 0 104 77l117 -38q-57 -121 -99 -162t-102 -41zM905 537q-1 362 -283 362t-282 -362t283 -363q282 1 282 363zM1163 536q0 -266 -140 -412t-400 -146 q-259 0 -399 146q-140 148 -140 414t139 412q139 148 399 148t401 -148q140 -148 140 -414z" glyph-name="otilde" horiz-adv-x="1249" unicode="õ"/><glyph d="M698 1237v219h213v-219h-213zM336 1237v219h215v-219h-215zM905 537q-1 362 -283 362t-282 -362t283 -363q282 1 282 363zM1163 536q0 -266 -140 -412t-400 -146q-259 0 -399 146q-140 148 -140 414t139 412q139 148 399 148t401 -148q140 -148 140 -414z" glyph-name="odieresis" horiz-adv-x="1249" unicode="ö"/><glyph d="M504 319q0 55 41 95t99 39q58 0 100 -39q42 -38 42 -94t-42 -95t-100 -39t-99 39t-41 94zM504 1047q0 55 42 94t99 39t99 -39t42 -94t-42 -95t-99 -39q-57 -1 -99 39t-42 95zM121 586v192h1046v-192h-1046z" glyph-name="divide" horiz-adv-x="1290" unicode="÷"/><glyph d="M340 537q0 -125 33 -205l418 518q-70 49 -168 49q-283 0 -283 -362zM905 537q0 125 -37 211l-417 -521q66 -53 172 -53q282 1 282 363zM1163 534q0 -264 -140 -410t-400 -147q-182 0 -312 76l-43 -53h-162l109 133q-131 147 -131 409t139 408q139 147 400 148 q180 0 307 -76l43 53h160l-107 -131q137 -147 137 -410z" glyph-name="oslash" horiz-adv-x="1247" unicode="ø"/><glyph d="M819 1217h-207l-348 276h301zM872 0v135q-231 -158 -428 -158q-313 0 -313 336v762h252v-706q0 -193 156 -193q82 0 177 47t156 105v747h254v-1075h-254z" glyph-name="ugrave" unicode="ù"/><glyph d="M645 1217h-211l254 276h303zM872 0v135q-231 -158 -428 -158q-313 0 -313 336v762h252v-706q0 -193 156 -193q82 0 177 47t156 105v747h254v-1075h-254z" glyph-name="uacute" unicode="ú"/><glyph d="M756 1493l213 -276h-181l-161 159l-160 -159h-180l211 276h258zM872 0v135q-231 -158 -428 -158q-313 0 -313 336v762h252v-706q0 -193 156 -193q82 0 177 47t156 105v747h254v-1075h-254z" glyph-name="ucircumflex" unicode="û"/><glyph d="M702 1237v219h213v-219h-213zM340 1237v219h215v-219h-215zM872 0v135q-231 -158 -428 -158q-313 0 -313 336v762h252v-706q0 -193 156 -193q82 0 177 47t156 105v747h254v-1075h-254z" glyph-name="udieresis" unicode="ü"/><glyph d="M606 1217h-211l254 276h303zM35 1075h274l279 -774l278 774h277l-596 -1493h-275l187 422z" glyph-name="yacute" horiz-adv-x="1175" unicode="ý"/><glyph d="M690 891q-168 0 -297 -150v-409q127 -150 297 -150q227 0 227 354t-227 355zM754 -23q-192 0 -361 148v-543h-254v1911h254v-545q169 150 361 150t307 -142t115 -418q0 -277 -115 -419t-307 -142z" glyph-name="thorn" horiz-adv-x="1263" unicode="þ"/><glyph d="M664 1237v219h213v-219h-213zM301 1237v219h215v-219h-215zM35 1075h274l279 -774l278 774h277l-596 -1493h-275l187 422z" glyph-name="ydieresis" horiz-adv-x="1175" unicode="ÿ"/><glyph d="M408 1577v154h618v-154h-618zM717 1196l-230 -680h459zM1120 0l-104 305h-598l-103 -305h-286l544 1434h289l543 -1434h-285z" glyph-name="Amacron" horiz-adv-x="1435" unicode="Ā"/><glyph d="M301 1268v153h619v-153h-619zM514 176q162 0 309 131v182q-207 39 -297 39t-144 -49t-54 -134t50 -127t136 -42zM457 674q101 0 366 -53v96q0 100 -44 143q-45 43 -161 43t-393 -84l-82 176q303 103 519 103t315 -90q100 -90 100 -297v-711h-254v131q-170 -154 -385 -154 q-156 1 -261 93t-105 258t108 256q109 90 277 90z" glyph-name="amacron" horiz-adv-x="1208" unicode="ā"/><glyph d="M1038 1765q0 -111 -84 -175t-238 -64q-153 0 -237 64t-84 175h162q0 -96 159 -96t158 96h164zM717 1196l-230 -680h459zM1120 0l-104 305h-598l-103 -305h-286l544 1434h289l543 -1434h-285z" glyph-name="Abreve" horiz-adv-x="1435" unicode="Ă"/><glyph d="M611 1217q-151 1 -235 65t-85 174h162q-1 -96 159 -96t160 96h162q0 -111 -86 -175t-237 -64zM514 176q162 0 309 131v182q-207 39 -297 39t-144 -49t-54 -134t50 -127t136 -42zM457 674q101 0 366 -53v96q0 100 -44 143q-45 43 -161 43t-393 -84l-82 176 q303 103 519 103t315 -90q100 -90 100 -297v-711h-254v131q-170 -154 -385 -154q-156 1 -261 93t-105 258t108 256q109 90 277 90z" glyph-name="abreve" horiz-adv-x="1208" unicode="ă"/><glyph d="M717 1196l-230 -680h459zM1206 -195q0 -71 105 -71h53l-29 -123q-172 0 -237 44t-66 126q0 123 201 219h-113l-104 305h-598l-103 -305h-286l544 1434h289l543 -1434h-6q-137 -84 -170 -133q-23 -31 -23 -62z" glyph-name="Aogonek" horiz-adv-x="1435" unicode="Ą"/><glyph d="M514 176q162 0 309 131v182q-207 39 -297 39t-144 -49t-54 -134t50 -127t136 -42zM457 674q101 0 366 -53v96q0 100 -44 143q-45 43 -161 43t-393 -84l-82 176q303 103 519 103t315 -90q100 -90 100 -297v-711h-6q-148 -86 -179 -137q-42 -72 7 -109q30 -20 63 -20h70 l-24 -123q-174 0 -240 44t-66 126q0 125 201 219h-80v131q-170 -154 -385 -154q-156 1 -261 93t-105 258t108 256q109 90 277 90z" glyph-name="aogonek" horiz-adv-x="1206" unicode="ą"/><glyph d="M795 1526h-209l254 276h303zM715 1219q-158 -1 -249 -135t-91 -367t91 -369t249 -135q158 0 434 164l127 -193q-162 -98 -300 -152t-290 -55q-258 -1 -421 187t-163 553t163 552t421 187q150 0 288 -56t302 -153l-127 -192q-276 164 -434 164z" glyph-name="Cacute" horiz-adv-x="1335" unicode="Ć"/><glyph d="M596 1217h-207l254 276h301zM344 538q0 -156 71 -249q71 -94 177 -94t315 104l107 -188q-272 -133 -461 -133t-329 144t-140 416t139 415q139 145 333 145t458 -135l-107 -187q-37 25 -138 64t-169 41q-116 1 -186 -93t-70 -250z" glyph-name="cacute" horiz-adv-x="1069" unicode="ć"/><glyph d="M602 1546v219h215v-219h-215zM715 1219q-158 -1 -249 -135t-91 -367t91 -369t249 -135q158 0 434 164l127 -193q-162 -98 -300 -152t-290 -55q-258 -1 -421 187t-163 553t163 552t421 187q150 0 288 -56t302 -153l-127 -192q-276 164 -434 164z" glyph-name="Cdotaccent" horiz-adv-x="1335" unicode="Ċ"/><glyph d="M473 1237v221h215v-221h-215zM344 538q0 -156 71 -249q71 -94 177 -94t315 104l107 -188q-272 -133 -461 -133t-329 144t-140 416t139 415q139 145 333 145t458 -135l-107 -187q-37 25 -138 64t-169 41q-116 1 -186 -93t-70 -250z" glyph-name="cdotaccent" horiz-adv-x="1069" unicode="ċ"/><glyph d="M1065 1802l-213 -276h-256l-213 276h180l160 -160l162 160h180zM715 1219q-158 -1 -249 -135t-91 -367t91 -369t249 -135q158 0 434 164l127 -193q-162 -98 -300 -152t-290 -55q-258 -1 -421 187t-163 553t163 552t421 187q150 0 288 -56t302 -153l-127 -192 q-276 164 -434 164z" glyph-name="Ccaron" horiz-adv-x="1335" unicode="Č"/><glyph d="M920 1493l-211 -276h-258l-211 276h178l162 -160l161 160h179zM344 538q0 -156 71 -249q71 -94 177 -94t315 104l107 -188q-272 -133 -461 -133t-329 144t-140 416t139 415q139 145 333 145t458 -135l-107 -187q-37 25 -138 64t-169 41q-116 1 -186 -93t-70 -250z" glyph-name="ccaron" horiz-adv-x="1069" unicode="č"/><glyph d="M1106 1802l-213 -276h-258l-211 276h178l162 -160l164 160h178zM1096 717q0 266 -112 379t-349 112h-203v-985h203q237 0 349 114t112 380zM1362 717q0 -373 -179 -545t-526 -172h-489v1434h489q345 0 525 -172t180 -545z" glyph-name="Dcaron" horiz-adv-x="1466" unicode="Ď"/><glyph d="M1237 1264v229h203l20 -250l-174 -219l-57 66l102 174h-94zM573 182q168 0 297 150v409q-133 150 -297 150q-227 -1 -227 -355t227 -354zM1124 0h-254v125q-172 -147 -363 -147t-305 140q-114 142 -114 420t114 418t304 142q190 0 364 -150v545h254v-1493z" glyph-name="dcaron" horiz-adv-x="1363" unicode="ď"/><glyph d="M1122 717q0 266 -111 379q-112 113 -349 112h-203v-387h311v-209h-311v-389h203q238 0 349 114t111 380zM1386 717q0 -373 -179 -545t-525 -172h-487v612h-154v209h154v613h487q346 0 525 -172t179 -545z" glyph-name="Dcroat" horiz-adv-x="1490" unicode="Đ"/><glyph d="M573 182q168 0 297 150v409q-133 150 -297 150q-227 -1 -227 -355t227 -354zM524 1196v154h346v143h254v-143h127v-154h-127v-1196h-254v125q-172 -147 -363 -147t-305 140q-114 142 -114 420t114 418t304 142q190 0 364 -150v248h-346z" glyph-name="dcroat" horiz-adv-x="1263" unicode="đ"/><glyph d="M350 1577v154h619v-154h-619zM1153 0h-985v1434h975v-226h-713v-381h586v-221h-586v-383h723v-223z" glyph-name="Emacron" horiz-adv-x="1251" unicode="Ē"/><glyph d="M303 1268v153h619v-153h-619zM608 913q-116 1 -182 -75t-80 -215h502q2 290 -240 290zM344 479q24 -311 276 -311q128 0 381 137l103 -162q-299 -166 -519 -166q-221 1 -361 143t-140 412t141 417q141 149 380 149t365 -130t126 -341q0 -77 -15 -148h-737z" glyph-name="emacron" horiz-adv-x="1187" unicode="ē"/><glyph d="M553 1546v219h215v-219h-215zM1153 0h-985v1434h975v-226h-713v-381h586v-221h-586v-383h723v-223z" glyph-name="Edotaccent" horiz-adv-x="1251" unicode="Ė"/><glyph d="M506 1237v219h213v-219h-213zM608 913q-116 1 -182 -75t-80 -215h502q2 290 -240 290zM344 479q24 -311 276 -311q128 0 381 137l103 -162q-299 -166 -519 -166q-221 1 -361 143t-140 412t141 417q141 149 380 149t365 -130t126 -341q0 -77 -15 -148h-737z" glyph-name="edotaccent" horiz-adv-x="1187" unicode="ė"/><glyph d="M954 -195q0 -71 105 -71h53l-29 -123q-172 0 -237 44t-66 126q0 123 201 219h-813v1434h975v-226h-713v-381h586v-221h-586v-383h723v-223h-6q-137 -84 -170 -133q-23 -31 -23 -62z" glyph-name="Eogonek" horiz-adv-x="1251" unicode="Ę"/><glyph d="M610 913q-116 1 -182 -75t-80 -215h502q2 290 -240 290zM346 479q24 -311 276 -311q128 0 382 137l102 -162q-205 -115 -352 -145q-53 -32 -87 -54t-69 -62t-35 -77q0 -71 106 -71h54l-27 -123q-172 0 -238 43t-65 127q0 109 158 199q-207 10 -336 151t-129 405t141 413 t380 149t365 -130t126 -341q0 -82 -13 -129l-2 -19h-737z" glyph-name="eogonek" horiz-adv-x="1187" unicode="ę"/><glyph d="M1001 1792l-213 -276h-256l-213 276h181l159 -160l162 160h180zM1153 0h-985v1434h975v-226h-713v-381h586v-221h-586v-383h723v-223z" glyph-name="Ecaron" horiz-adv-x="1251" unicode="Ě"/><glyph d="M952 1493l-213 -276h-256l-211 276h179l161 -160l162 160h178zM608 913q-116 1 -182 -75t-80 -215h502q2 290 -240 290zM344 479q24 -311 276 -311q128 0 381 137l103 -162q-299 -166 -519 -166q-221 1 -361 143t-140 412t141 417q141 149 380 149t365 -130t126 -341 q0 -77 -15 -148h-737z" glyph-name="ecaron" horiz-adv-x="1187" unicode="ě"/><glyph d="M715 1526q-152 0 -236 64t-84 175h162q0 -96 159 -96t158 96h162q0 -111 -84 -175t-237 -64zM1077 0v152q-199 -174 -411 -175q-242 1 -403 189t-161 552t165 551t425 187q160 0 305 -58t310 -159l-127 -192q-94 53 -150 83t-147 59q-90 30 -164 30q-160 -1 -252 -135 t-92 -368t90 -374q90 -139 252 -139t360 176v219h-358v209h608v-807h-250z" glyph-name="Gbreve" horiz-adv-x="1452" unicode="Ğ"/><glyph d="M553 152q176 0 321 159v451q-147 162 -321 162q-123 0 -186 -102t-63 -285q0 -185 62 -285q64 -100 187 -100zM874 1075h211v-1118q0 -395 -428 -395q-242 0 -520 80l43 174q274 -80 424 -80t210 49t60 164v182q-174 -154 -366 -154q-192 1 -306 141t-114 420t114 420 t308 140t364 -156v133zM619 1217q-151 1 -235 65t-85 174h162q-1 -96 159 -96t160 96h162q0 -111 -86 -175t-237 -64z" glyph-name="gbreve" horiz-adv-x="1263" unicode="ğ"/><glyph d="M606 1546v219h215v-219h-215zM1077 0v152q-199 -174 -411 -175q-242 1 -403 189t-161 552t165 551t425 187q160 0 305 -58t310 -159l-127 -192q-94 53 -150 83t-147 59q-90 30 -164 30q-160 -1 -252 -135t-92 -368t90 -374q90 -139 252 -139t360 176v219h-358v209h608 v-807h-250z" glyph-name="Gdotaccent" horiz-adv-x="1452" unicode="Ġ"/><glyph d="M573 182q168 0 297 150v409q-133 150 -297 150q-227 -1 -227 -355t227 -354zM870 1075h254v-1100q0 -414 -446 -413q-258 0 -541 82l51 209q280 -84 426 -84t201 46t55 150v160q-172 -147 -363 -147t-305 140q-114 142 -114 420t114 418t304 142q190 0 364 -150v127z M522 1237v219h215v-219h-215z" glyph-name="gdotaccent" horiz-adv-x="1263" unicode="ġ"/><glyph d="M649 -350v229h205l18 -250l-172 -219l-59 66l102 174h-94zM1077 0v152q-199 -174 -411 -175q-242 1 -403 189t-161 552t165 551t425 187q160 0 305 -58t310 -159l-127 -192q-94 53 -150 83t-147 59q-90 30 -164 30q-160 -1 -252 -135t-92 -368t90 -374q90 -139 252 -139 t360 176v219h-358v209h608v-807h-250z" glyph-name="Gcommaaccent" horiz-adv-x="1452" unicode="Ģ"/><glyph d="M573 182q168 0 297 150v409q-133 150 -297 150q-227 -1 -227 -355t227 -354zM870 1075h254v-1100q0 -414 -446 -413q-258 0 -541 82l51 209q280 -84 426 -84t201 46t55 150v160q-172 -147 -363 -147t-305 140q-114 142 -114 420t114 418t304 142q190 0 364 -150v127z M739 1475v-238h-211l-18 254l178 229l60 -69l-105 -176h96z" glyph-name="gcommaaccent" horiz-adv-x="1263" unicode="ģ"/><glyph d="M453 1059v-197h620v197h-620zM1073 0v641h-620v-641h-265v1059h-155v153h155v222h265v-222h620v222h262v-222h154v-153h-154v-1059h-262z" glyph-name="Hbar" horiz-adv-x="1523" unicode="Ħ"/><glyph d="M12 1196v154h127v143h254v-143h348v-154h-348v-258q221 160 428 160q313 0 314 -336v-762h-252v707q0 190 -156 190q-84 0 -178 -47t-156 -102v-748h-254v1196h-127z" glyph-name="hbar" unicode="ħ"/><glyph d="M432 0h-264v1434h264v-1434zM166 1796q49 0 144 -49t122 -49q51 0 105 94l120 -57q-48 -94 -79 -132q-54 -67 -125 -67q-70 0 -165 49t-122 49q-52 0 -105 -94l-120 55q55 100 84 137q29 36 61 50t80 14z" glyph-name="Itilde" horiz-adv-x="598" unicode="Ĩ"/><glyph d="M393 0h-252v1075h252v-1075zM133 1487q49 0 145 -49t121 -49q51 0 105 94l121 -58q-47 -91 -79 -131q-55 -67 -125 -67q-69 0 -165 49t-123 49q-51 0 -104 -94l-121 55q55 101 85 137q51 64 140 64z" glyph-name="itilde" horiz-adv-x="532" unicode="ĩ"/><glyph d="M-10 1577v154h618v-154h-618zM430 0h-262v1434h262v-1434z" glyph-name="Imacron" horiz-adv-x="598" unicode="Ī"/><glyph d="M-43 1268v153h618v-153h-618zM393 0h-254v1075h254v-1075z" glyph-name="imacron" horiz-adv-x="532" unicode="ī"/><glyph d="M430 0h-262v1434h262v-1434zM299 1526q-152 0 -237 64t-85 175h164q0 -96 159 -96t159 96h162q0 -111 -85 -175t-237 -64z" glyph-name="Ibreve" horiz-adv-x="598" unicode="Ĭ"/><glyph d="M393 0h-254v1075h254v-1075zM266 1217q-152 1 -236 65t-85 174h164q1 -96 159 -96t158 96h162q0 -111 -85 -175t-237 -64z" glyph-name="ibreve" horiz-adv-x="532" unicode="ĭ"/><glyph d="M227 -195q0 -71 105 -71h53l-25 -123q-174 0 -240 44t-65 126q0 123 201 219h-90v1434h264v-1434h-6q-148 -86 -179 -137q-18 -29 -18 -58z" glyph-name="Iogonek" horiz-adv-x="598" unicode="Į"/><glyph d="M131 1249v238h270v-238h-270zM193 -195q0 -71 104 -71h53l-26 -123q-174 0 -240 44t-66 126q0 123 201 219h-78v1075h252v-1075h-6q-59 -35 -89 -54q-30 -20 -68 -62t-37 -79z" glyph-name="iogonek" horiz-adv-x="532" unicode="į"/><glyph d="M193 1546v219h213v-219h-213zM430 0h-262v1434h262v-1434z" glyph-name="Idotaccent" horiz-adv-x="598" unicode="İ"/><glyph d="M393 0h-254v1075h254v-1075z" glyph-name="dotlessi" horiz-adv-x="532" unicode="ı"/><glyph d="M1044 1434v-1317q0 -187 -16 -222t-36 -67t-49 -50q-30 -17 -82 -47t-232 -73l-86 197q115 38 187 79q43 25 50 96q2 22 2 74v1330h262zM430 0h-262v1434h262v-1434z" glyph-name="IJ" horiz-adv-x="1198" unicode="Ĳ"/><glyph d="M133 1249v238h270v-238h-270zM393 0h-252v1075h252v-1075zM944 1075v-1071q0 -236 -51 -291q-74 -80 -166 -110q-92 -31 -195 -56l-81 185q94 31 139 50q46 19 70 52q24 32 27 58t3 96v1087h254zM684 1249v238h268v-238h-268z" glyph-name="ij" horiz-adv-x="1067" unicode="ĳ"/><glyph d="M426 1802l213 -276h-178l-162 160l-162 -160h-178l209 276h258zM430 1434v-1317q0 -187 -16 -222t-36 -67t-49 -50q-30 -17 -83 -47t-232 -73l-86 197q117 39 188 79q43 25 50 96q2 22 2 74v1330h262z" glyph-name="Jcircumflex" horiz-adv-x="600" unicode="Ĵ"/><glyph d="M393 1493l213 -276h-180l-162 159l-160 -159h-180l211 276h258zM391 1075v-1071q0 -236 -51 -291q-75 -81 -165 -111q-91 -30 -193 -55l-82 185q94 31 139 50t70 52q25 32 27 58t3 96v1087h252z" glyph-name="jcircumflex" horiz-adv-x="532" unicode="ĵ"/><glyph d="M588 -350v229h205l18 -250l-174 -219l-57 66l100 174h-92zM168 0v1434h262v-729l602 729h311l-579 -684l620 -750h-313l-465 563l-176 -209v-354h-262z" glyph-name="Kcommaaccent" horiz-adv-x="1394" unicode="Ķ"/><glyph d="M481 -350v229h203l21 -250l-175 -219l-59 66l104 174h-94zM393 0h-254v1493h254v-901l383 483h289l-363 -430l426 -645h-266l-313 465l-156 -186v-279z" glyph-name="kcommaaccent" horiz-adv-x="1136" unicode="ķ"/><glyph d="M393 0h-254v1075h254v-483l383 483h289l-363 -430l426 -645h-266l-313 465l-156 -186v-279z" glyph-name="kgreenlandic" horiz-adv-x="1136" unicode="ĸ"/><glyph d="M315 1526h-206l253 276h302zM1122 0h-954v1434h262v-1211h692v-223z" glyph-name="Lacute" horiz-adv-x="1163" unicode="Ĺ"/><glyph d="M291 1587h-209l254 277h303zM399 0h-252v1493h252v-1493z" glyph-name="lacute" horiz-adv-x="544" unicode="ĺ"/><glyph d="M1120 0h-952v1434h262v-1211h690v-223zM532 -350v229h205l19 -250l-172 -219l-60 66l103 174h-95z" glyph-name="Lcommaaccent" horiz-adv-x="1161" unicode="Ļ"/><glyph d="M397 0h-252v1493h252v-1493zM172 -350v229h203l18 -250l-172 -219l-57 66l100 174h-92z" glyph-name="lcommaaccent" horiz-adv-x="544" unicode="ļ"/><glyph d="M1120 0h-952v1434h262v-1211h690v-223zM543 1204v230h205l18 -250l-172 -219l-57 65l100 174h-94z" glyph-name="Lcaron" horiz-adv-x="1161" unicode="Ľ"/><glyph d="M399 0h-254v1493h254v-1493zM512 1264v229h203l20 -250l-174 -219l-59 66l104 174h-94z" glyph-name="lcaron" horiz-adv-x="638" unicode="ľ"/><glyph d="M791 639v221h215v-221h-215zM1120 0h-952v1434h262v-1211h690v-223z" glyph-name="Ldot" horiz-adv-x="1165" unicode="Ŀ"/><glyph d="M512 639v221h215v-221h-215zM399 0h-254v1493h254v-1493z" glyph-name="ldot" horiz-adv-x="704" unicode="ŀ"/><glyph d="M1147 0h-952v506l-146 -80v238l146 79v691h264v-543l274 153v-239l-274 -152v-430h688v-223z" glyph-name="Lslash" horiz-adv-x="1189" unicode="Ł"/><glyph d="M436 0h-254v555l-133 -74v238l133 74v700h254v-557l131 74v-240l-131 -74v-696z" glyph-name="lslash" horiz-adv-x="614" unicode="ł"/><glyph d="M784 1526h-206l253 276h302zM1083 1434h265v-1434h-269l-649 1044v-1044h-262v1434h268l647 -1043v1043z" glyph-name="Nacute" horiz-adv-x="1515" unicode="Ń"/><glyph d="M653 1217h-209l254 276h301zM393 1075v-137q221 160 426 160q315 0 316 -336v-762h-252v707q0 190 -156 190q-84 0 -180 -47t-154 -102v-748h-254v1075h254z" glyph-name="nacute" unicode="ń"/><glyph d="M670 -350v229h204l19 -250l-176 -219l-58 66l103 174h-92zM1083 1434h265v-1434h-269l-649 1044v-1044h-262v1434h268l647 -1043v1043z" glyph-name="Ncommaaccent" horiz-adv-x="1515" unicode="Ņ"/><glyph d="M537 -350v229h202l21 -250l-174 -219l-60 66l105 174h-94zM393 1075v-137q221 160 426 160q315 0 316 -336v-762h-252v707q0 190 -156 190q-84 0 -180 -47t-154 -102v-748h-254v1075h254z" glyph-name="ncommaaccent" unicode="ņ"/><glyph d="M1110 1802l-213 -276h-258l-211 276h178l162 -160l164 160h178zM1083 1434h265v-1434h-269l-649 1044v-1044h-262v1434h268l647 -1043v1043z" glyph-name="Ncaron" horiz-adv-x="1515" unicode="Ň"/><glyph d="M975 1493l-213 -276h-258l-213 276h180l160 -160l164 160h180zM393 1075v-137q221 160 426 160q315 0 316 -336v-762h-252v707q0 190 -156 190q-84 0 -180 -47t-154 -102v-748h-254v1075h254z" glyph-name="ncaron" unicode="ň"/><glyph d="M141 1399v229h203l18 -248l-174 -221l-57 68l102 172h-92zM393 1075v-135q223 158 426 158q315 0 316 -336v-762h-254v707q0 90 -34 140t-119 50t-178 -47t-157 -102v-748h-252v1075h252z" glyph-name="napostrophe" horiz-adv-x="1265" unicode="ŉ"/><glyph d="M1348 1434v-1354q0 -102 -10 -154t-49 -106q-40 -55 -124 -91t-231 -71l-90 197q131 41 176 69t57 78l-647 1042v-1044h-262v1434h268l647 -1043v1043h265z" glyph-name="Eng" horiz-adv-x="1515" unicode="Ŋ"/><glyph d="M1135 762v-758q0 -184 -30 -249t-65 -86q-108 -65 -173 -84q-64 -19 -142 -38l-82 185q94 31 139 50t70 52q25 32 28 58t3 96v719q0 190 -156 190q-84 0 -180 -47t-154 -102v-748h-254v1075h254v-137q221 160 426 160q316 0 316 -336z" glyph-name="eng" unicode="ŋ"/><glyph d="M463 1577v154h618v-154h-618zM772 203q209 0 303 139t94 375q0 512 -397 512t-397 -512q0 -236 94 -375t303 -139zM772 1456q342 0 506 -204t164 -530t-154 -527q-78 -101 -209 -159t-307 -58t-308 56q-132 58 -209 160q-153 204 -153 523t153 523q77 104 209 160t308 56 z" glyph-name="Omacron" horiz-adv-x="1542" unicode="Ō"/><glyph d="M313 1268v153h619v-153h-619zM905 537q-1 362 -283 362t-282 -362t283 -363q282 1 282 363zM1163 536q0 -266 -140 -412t-400 -146q-259 0 -399 146q-140 148 -140 414t139 412q139 148 399 148t401 -148q140 -148 140 -414z" glyph-name="omacron" horiz-adv-x="1249" unicode="ō"/><glyph d="M771 1526q-151 0 -235 64t-85 175h161q0 -96 159 -96t159 96h164q0 -111 -86 -175t-237 -64zM772 203q209 0 303 139t94 375q0 512 -397 512t-397 -512q0 -236 94 -375t303 -139zM772 1456q342 0 506 -204t164 -530t-154 -527q-78 -101 -209 -159t-307 -58t-308 56 q-132 58 -209 160q-153 204 -153 523t153 523q77 104 209 160t308 56z" glyph-name="Obreve" horiz-adv-x="1542" unicode="Ŏ"/><glyph d="M623 1217q-152 1 -237 65t-85 174h162q0 -96 160 -96t159 96h162q0 -111 -84 -175t-237 -64zM905 537q-1 362 -283 362t-282 -362t283 -363q282 1 282 363zM1163 536q0 -266 -140 -412t-400 -146q-259 0 -399 146q-140 148 -140 414t139 412q139 148 399 148t401 -148 q140 -148 140 -414z" glyph-name="obreve" horiz-adv-x="1249" unicode="ŏ"/><glyph d="M641 1526h-154l164 276h248zM985 1526h-151l161 276h246zM772 203q209 0 303 139t94 375q0 512 -397 512t-397 -512q0 -236 94 -375t303 -139zM772 1456q342 0 506 -204t164 -530t-154 -527q-78 -101 -209 -159t-307 -58t-308 56q-132 58 -209 160q-153 204 -153 523 t153 523q77 104 209 160t308 56z" glyph-name="Ohungarumlaut" horiz-adv-x="1542" unicode="Ő"/><glyph d="M492 1217h-154l164 276h248zM836 1217h-152l162 276h246zM905 537q-1 362 -283 362t-282 -362t283 -363q282 1 282 363zM1163 536q0 -266 -140 -412t-400 -146q-259 0 -399 146q-140 148 -140 414t139 412q139 148 399 148t401 -148q140 -148 140 -414z" glyph-name="ohungarumlaut" horiz-adv-x="1249" unicode="ő"/><glyph d="M772 203q209 0 303 139t94 375q0 512 -397 512t-397 -512q0 -236 94 -375t303 -139zM2161 0h-987v86q-160 -109 -402 -109q-176 -1 -308 57t-209 160q-153 204 -153 523t153 523q77 104 209 160t308 56q242 0 402 -108v86h974v-226h-710v-381h583v-221h-583v-383h723 v-223z" glyph-name="OE" horiz-adv-x="2256" unicode="Œ"/><glyph d="M1432 913q-115 1 -182 -75t-81 -215h502q3 290 -239 290zM905 537q-1 362 -283 362t-282 -362t283 -363q282 1 282 363zM1167 479q25 -311 277 -311q130 0 383 137l98 -162q-285 -166 -519 -166t-372 158q-141 -158 -406 -158q-264 -1 -404 147t-140 414t139 412 q139 148 403 148t408 -162q142 162 388 162t372 -130t127 -341q0 -72 -16 -148h-738z" glyph-name="oe" horiz-adv-x="2011" unicode="œ"/><glyph d="M770 1526h-209l254 276h303zM1071 1004q0 221 -303 221h-338v-443h332q309 1 309 222zM430 573v-573h-262v1434h608q563 0 563 -430q0 -350 -370 -416l372 -588h-286l-350 573h-275z" glyph-name="Racute" horiz-adv-x="1429" unicode="Ŕ"/><glyph d="M393 1075v-227q19 55 103 143q45 47 125 75t176 21v-239q-101 0 -181 -35t-120 -86q-84 -109 -97 -186l-6 -35v-506h-254v1075h254zM485 1217h-209l254 276h304z" glyph-name="racute" horiz-adv-x="837" unicode="ŕ"/><glyph d="M610 -350v229h205l19 -250l-177 -219l-57 66l102 174h-92zM1071 1004q0 221 -303 221h-338v-443h332q309 1 309 222zM430 573v-573h-262v1434h608q563 0 563 -430q0 -350 -370 -416l372 -588h-286l-350 573h-275z" glyph-name="Rcommaaccent" horiz-adv-x="1429" unicode="Ŗ"/><glyph d="M393 1075v-227q20 57 104 143q46 47 125 75t175 21v-239q-101 0 -181 -35t-120 -86q-84 -109 -97 -186l-6 -35v-506h-254v1075h254zM166 -350v229h205l18 -250l-174 -219l-57 66l102 174h-94z" glyph-name="rcommaaccent" horiz-adv-x="837" unicode="ŗ"/><glyph d="M1094 1802l-213 -276h-256l-211 276h178l162 -160l161 160h179zM1071 1004q0 221 -303 221h-338v-443h332q309 1 309 222zM430 573v-573h-262v1434h608q563 0 563 -430q0 -350 -370 -416l372 -588h-286l-350 573h-275z" glyph-name="Rcaron" horiz-adv-x="1429" unicode="Ř"/><glyph d="M389 1075v-227q29 65 92 128q122 125 316 111v-239q-103 0 -183 -35t-120 -86q-85 -107 -99 -186l-6 -35v-506h-250v1075h250zM807 1493l-213 -276h-256l-211 276h178l162 -160l162 160h178z" glyph-name="rcaron" horiz-adv-x="837" unicode="ř"/><glyph d="M698 -23q-166 1 -336 57t-290 130l118 190q106 -61 250 -109t248 -48q106 0 178 46t72 121t-50 117t-108 63q-117 44 -258 89q-238 77 -328 181t-90 239q0 182 136 293t360 110q281 0 563 -143l-119 -193q-98 47 -221 81t-216 34t-160 -42t-67 -126t86 -126 q64 -34 227 -86q162 -52 235 -87t142 -84q144 -102 143 -292q-1 -189 -144 -302t-371 -113zM657 1526h-206l254 276h301z" glyph-name="Sacute" horiz-adv-x="1288" unicode="Ś"/><glyph d="M592 -23q-138 0 -282 41t-244 95l104 182q88 -47 208 -84t200 -37t129 30t49 72t-18 60q-56 56 -162 83l-75 19q-176 44 -295 120q-118 76 -118 222t109 232t319 86t449 -115l-105 -168q-205 88 -354 88q-76 0 -120 -29t-44 -77q0 -83 148 -124q32 -9 88 -23 q224 -55 329 -136q105 -82 105 -226t-115 -228t-305 -83zM555 1217h-207l252 276h303z" glyph-name="sacute" horiz-adv-x="1077" unicode="ś"/><glyph d="M698 -23q-166 1 -336 57t-290 130l118 190q106 -61 250 -109t248 -48q106 0 178 46t72 121t-50 117t-108 63q-117 44 -258 89q-238 77 -328 181t-90 239q0 182 136 293t360 110q281 0 563 -143l-119 -193q-98 47 -221 81t-216 34t-160 -42t-67 -126t86 -126 q64 -34 227 -86q162 -52 235 -87t142 -84q144 -102 143 -292q-1 -189 -144 -302t-371 -113zM772 1802l211 -276h-178l-164 160l-160 -160h-180l213 276h258z" glyph-name="Scircumflex" horiz-adv-x="1288" unicode="Ŝ"/><glyph d="M592 -23q-138 0 -282 41t-244 95l104 182q88 -47 208 -84t200 -37t129 30t49 72t-18 60q-56 56 -162 83l-75 19q-176 44 -295 120q-118 76 -118 222t109 232t319 86t449 -115l-105 -168q-205 88 -354 88q-76 0 -120 -29t-44 -77q0 -83 148 -124q32 -9 88 -23 q224 -55 329 -136q105 -82 105 -226t-115 -228t-305 -83zM668 1493l213 -276h-179l-161 159l-162 -159h-178l211 276h256z" glyph-name="scircumflex" horiz-adv-x="1077" unicode="ŝ"/><glyph d="M831 -192q0 -82 -62 -128q-63 -46 -161 -47q-98 0 -174 41l51 133q59 -27 103 -26q102 0 102 82q0 57 -41 117q-155 8 -311 62t-266 122l118 190q106 -61 250 -109t248 -48q106 0 178 46t72 121t-50 117t-108 63q-117 44 -258 89q-238 77 -328 181t-90 239q0 182 136 293 t360 110q281 0 563 -143l-119 -193q-98 47 -221 81t-216 34t-160 -42t-67 -126t86 -126q64 -34 227 -86q162 -52 235 -87t142 -84q144 -102 143 -285q-1 -181 -123 -291t-322 -126q63 -92 63 -174z" glyph-name="Scedilla" horiz-adv-x="1290" unicode="Ş"/><glyph d="M729 -188q0 -86 -63 -132q-64 -46 -160 -47q-96 0 -176 41l53 133q59 -27 100 -26q104 0 105 82q0 57 -41 117q-262 14 -479 133l104 182q88 -47 208 -84t200 -37t129 30t49 72t-18 60q-56 56 -162 83l-75 19q-176 44 -295 120q-118 76 -118 222t109 232t319 86t449 -115 l-105 -168q-205 88 -354 88q-76 0 -120 -29t-44 -70t16 -58q35 -38 71 -52q44 -17 97 -30l99 -25q182 -47 284 -127q103 -80 103 -217t-94 -218t-254 -95q63 -84 63 -170z" glyph-name="scedilla" horiz-adv-x="1077" unicode="ş"/><glyph d="M698 -23q-166 1 -336 57t-290 130l118 190q106 -61 250 -109t248 -48q106 0 178 46t72 121t-50 117t-108 63q-117 44 -258 89q-238 77 -328 181t-90 239q0 182 136 293t360 110q281 0 563 -143l-119 -193q-98 47 -221 81t-216 34t-160 -42t-67 -126t86 -126 q64 -34 227 -86q162 -52 235 -87t142 -84q144 -102 143 -292q-1 -189 -144 -302t-371 -113zM983 1802l-211 -276h-258l-211 276h178l162 -160l164 160h176z" glyph-name="Scaron" horiz-adv-x="1288" unicode="Š"/><glyph d="M592 -23q-138 0 -282 41t-244 95l104 182q88 -47 208 -84t200 -37t129 30t49 72t-18 60q-56 56 -162 83l-75 19q-176 44 -295 120q-118 76 -118 222t109 232t319 86t449 -115l-105 -168q-205 88 -354 88q-76 0 -120 -29t-44 -77q0 -83 148 -124q32 -9 88 -23 q224 -55 329 -136q105 -82 105 -226t-115 -228t-305 -83zM883 1493l-213 -276h-256l-211 276h178l162 -160l162 160h178z" glyph-name="scaron" horiz-adv-x="1077" unicode="š"/><glyph d="M602 -137q0 72 -55 137h-72v1208h-434v226h1128v-226h-430v-1208h-75q80 -94 80 -184t-63 -136t-161 -47q-98 0 -174 41l51 133q59 -27 103 -26q102 0 102 82z" glyph-name="Tcommaaccent" horiz-adv-x="1208" unicode="Ţ"/><glyph d="M57 887v188h150v271l250 40v-311h295v-188h-295v-584q-1 -61 25 -83t77 -22t174 50l90 -189q-160 -68 -276 -79q63 -80 63 -167t-62 -133t-160 -47q-98 0 -175 41l51 133q59 -27 101 -26q104 0 104 82q0 57 -43 119q-219 33 -219 327v578h-150z" glyph-name="tcommaaccent" horiz-adv-x="835" unicode="ţ"/><glyph d="M946 1802l-213 -276h-258l-209 276h178l162 -160l162 160h178zM1169 1208h-430v-1208h-264v1208h-434v226h1128v-226z" glyph-name="Tcaron" horiz-adv-x="1208" unicode="Ť"/><glyph d="M573 1399v229h203l21 -248l-174 -221l-58 68l103 172h-95zM57 887v188h148v271l252 40v-311h293v-188h-293v-584q-1 -61 25 -83t73 -22t178 50l90 -189q-188 -82 -329 -82q-289 0 -289 332v578h-148z" glyph-name="tcaron" horiz-adv-x="835" unicode="ť"/><glyph d="M276 446v154h207v608h-434v226h1127v-226h-431v-608h205v-154h-205v-446h-262v446h-207z" glyph-name="Tbar" horiz-adv-x="1226" unicode="Ŧ"/><glyph d="M57 887v188h150v271l250 40v-311h295v-188h-295v-197h231v-153h-231v-234q-1 -61 25 -83t77 -22t174 50l90 -189q-188 -82 -329 -82q-287 0 -287 332v228h-107v153h107v197h-150z" glyph-name="tbar" horiz-adv-x="835" unicode="ŧ"/><glyph d="M1307 1434v-875q0 -254 -121 -417t-454 -164t-457 163q-123 164 -121 418v875h262v-893q0 -160 68 -249t246 -89q179 0 246 89t66 249v893h265zM590 1796q55 0 149 -49t123 -49q51 0 105 94l118 -57q-47 -99 -94 -149t-113 -50t-161 49q-94 49 -123 49q-52 0 -105 -94 l-118 55q35 68 56 103q22 34 65 66t98 32z" glyph-name="Utilde" horiz-adv-x="1462" unicode="Ũ"/><glyph d="M510 1487q55 0 149 -49t123 -49q51 0 105 94l119 -58q-46 -98 -94 -148t-114 -50t-160 49t-124 49q-51 0 -104 -94l-119 55q35 68 56 103q22 35 65 67t98 31zM872 0v135q-231 -158 -428 -158q-313 0 -313 336v762h252v-706q0 -193 156 -193q82 0 177 47t156 105v747h254 v-1075h-254z" glyph-name="utilde" unicode="ũ"/><glyph d="M422 1577v154h618v-154h-618zM1307 1434v-875q0 -254 -121 -417t-454 -164t-457 163q-123 164 -121 418v875h262v-893q0 -160 68 -249t246 -89q179 0 246 89t66 249v893h265z" glyph-name="Umacron" horiz-adv-x="1462" unicode="Ū"/><glyph d="M317 1268v153h619v-153h-619zM872 0v135q-231 -158 -428 -158q-313 0 -313 336v762h252v-706q0 -193 156 -193q82 0 177 47t156 105v747h254v-1075h-254z" glyph-name="umacron" unicode="ū"/><glyph d="M1307 1434v-875q0 -254 -121 -417t-454 -164t-457 163q-123 164 -121 418v875h262v-893q0 -160 68 -249t246 -89q179 0 246 89t66 249v893h265zM729 1526q-153 0 -237 64t-84 175h163q0 -96 159 -96t159 96h162q0 -111 -85 -175t-237 -64z" glyph-name="Ubreve" horiz-adv-x="1462" unicode="Ŭ"/><glyph d="M948 1456q0 -111 -84 -175t-238 -64q-153 1 -237 65t-84 174h162q0 -96 159 -96t158 96h164zM872 0v135q-231 -158 -428 -158q-313 0 -313 336v762h252v-706q0 -193 156 -193q82 0 177 47t156 105v747h254v-1075h-254z" glyph-name="ubreve" unicode="ŭ"/><glyph d="M1307 1434v-875q0 -254 -121 -417t-454 -164t-457 163q-123 164 -121 418v875h262v-893q0 -160 68 -249t246 -89q179 0 246 89t66 249v893h265zM637 1729q0 -41 28 -69q29 -28 69 -28t68 28t27 69q1 41 -27 69t-69 27q-41 1 -69 -27t-27 -69zM510 1728q0 92 64 158 t158 66q93 0 159 -66q65 -66 65 -158t-66 -158q-66 -65 -158 -65q-93 0 -158 65q-64 65 -64 158z" glyph-name="Uring" horiz-adv-x="1462" unicode="Ů"/><glyph d="M532 1419q0 -41 28 -69t69 -27q41 0 69 28q28 27 27 67q0 40 -29 69q-28 29 -68 29t-68 -28t-28 -69zM852 1418q0 -94 -66 -158t-158 -64t-158 64q-64 64 -64 158q0 93 64 159q65 65 158 65q92 0 158 -66t66 -158zM872 0v135q-231 -158 -428 -158q-313 0 -313 336v762 h252v-706q0 -193 156 -193q82 0 177 47t156 105v747h254v-1075h-254z" glyph-name="uring" unicode="ů"/><glyph d="M598 1526h-154l164 276h246zM942 1526h-154l164 276h246zM1307 1434v-875q0 -254 -121 -417t-454 -164t-457 163q-123 164 -121 418v875h262v-893q0 -160 68 -249t246 -89q179 0 246 89t66 249v893h265z" glyph-name="Uhungarumlaut" horiz-adv-x="1462" unicode="Ű"/><glyph d="M840 1217h-154l164 276h246zM496 1217h-154l164 276h248zM872 0v135q-231 -158 -428 -158q-313 0 -313 336v762h252v-706q0 -193 156 -193q82 0 177 47t156 105v747h254v-1075h-254z" glyph-name="uhungarumlaut" unicode="ű"/><glyph d="M783 -116q-38 -42 -38 -77q-1 -47 47 -65q21 -8 50 -8h61l-26 -123q-174 0 -240 44t-66 126q0 109 160 196q-333 0 -456 164t-121 418v875h262v-893q0 -160 68 -249t246 -89q179 0 246 89t66 249v893h265v-875q0 -469 -367 -559q-59 -35 -89 -54q-30 -20 -68 -62z" glyph-name="Uogonek" horiz-adv-x="1462" unicode="Ų"/><glyph d="M924 -195q0 -71 104 -71h53l-26 -123q-171 0 -237 44t-66 126q0 125 200 219h-80v135q-231 -158 -428 -158q-313 0 -313 336v762h252v-706q0 -193 156 -193q82 0 177 47t156 105v747h254v-1075h-8q-59 -35 -89 -54q-29 -20 -67 -62t-38 -79z" glyph-name="uogonek" unicode="ų"/><glyph d="M1114 1802l211 -276h-180l-162 160l-160 -160h-180l213 276h258zM1260 0l-277 1057l-274 -1057h-267l-397 1434h299l250 -1092l278 1092h222l278 -1090l254 1090h299l-401 -1434h-264z" glyph-name="Wcircumflex" horiz-adv-x="1968" unicode="Ŵ"/><glyph d="M977 1493l213 -276h-178l-162 159l-162 -159h-178l211 276h256zM1081 0l-231 774l-232 -774h-241l-334 1075h268l201 -813l229 813h215l230 -813l203 813h268l-336 -1075h-240z" glyph-name="wcircumflex" horiz-adv-x="1699" unicode="ŵ"/><glyph d="M717 1493l213 -276h-180l-162 159l-160 -159h-180l211 276h258zM35 1075h274l279 -774l278 774h277l-596 -1493h-275l187 422z" glyph-name="ycircumflex" horiz-adv-x="1175" unicode="ŷ"/><glyph d="M745 1546v219h211v-219h-211zM381 1546v219h215v-219h-215zM537 0v571l-519 863h297l355 -652l354 652h297l-522 -869l2 -565h-264z" glyph-name="Ydieresis" horiz-adv-x="1339" unicode="Ÿ"/><glyph d="M676 1526h-209l254 276h303zM119 1208v226h1081v-203l-792 -1008h802v-223h-1138v205l788 1003h-741z" glyph-name="Zacute" horiz-adv-x="1296" unicode="Ź"/><glyph d="M565 1217h-209l254 276h301zM74 0v180l612 684h-592v211h928v-182l-614 -684h614v-209h-948z" glyph-name="zacute" horiz-adv-x="1105" unicode="ź"/><glyph d="M551 1544v221h215v-221h-215zM119 1208v226h1081v-203l-792 -1008h802v-223h-1138v205l788 1003h-741z" glyph-name="Zdotaccent" horiz-adv-x="1296" unicode="Ż"/><glyph d="M438 1237v219h215v-219h-215zM74 0v180l612 684h-592v211h928v-182l-614 -684h614v-209h-948z" glyph-name="zdotaccent" horiz-adv-x="1105" unicode="ż"/><glyph d="M1001 1802l-213 -276h-258l-213 276h181l159 -160l164 160h180zM1210 223v-223h-1138v205l788 1003h-741v226h1081v-203l-792 -1008h802z" glyph-name="Zcaron" horiz-adv-x="1296" unicode="Ž"/><glyph d="M889 1493l-213 -276h-258l-209 276h178l162 -160l162 160h178zM74 0v180l612 684h-592v211h928v-182l-614 -684h614v-209h-948z" glyph-name="zcaron" horiz-adv-x="1105" unicode="ž"/><glyph d="M51 887v188h148v86q0 332 288 332q145 0 349 -80l-88 -182q-156 43 -201 43t-71 -22t-25 -83v-1169h-252v887h-148z" glyph-name="longs" horiz-adv-x="632" unicode="ſ"/><glyph d="M776 1493q142 0 365 -84l-121 -182q-150 49 -215 43q-86 -6 -111 -109l-20 -86h289l-39 -188h-295l-312 -1305h-251l309 1305h-150l43 188h152l22 92q41 176 117 251q75 75 217 75z" glyph-name="florin" horiz-adv-x="1167" unicode="ƒ"/><glyph d="M1169 1526h-208l253 276h304zM1053 522v666l-437 -666h437zM2040 0h-987v305h-580l-199 -305h-315l979 1434h1090v-226h-713v-381h588v-221h-588v-383h725v-223z" glyph-name="AEacute" horiz-adv-x="2136" unicode="Ǽ"/><glyph d="M956 1217h-206l254 276h301zM1317 913q-115 1 -181 -75t-81 -215h501q3 290 -239 290zM547 528q-111 0 -165 -49t-54 -134t50 -127t136 -42q159 0 309 133q-23 70 -28 172q-195 47 -248 47zM1806 627q0 -72 -16 -148h-737q12 -147 80 -229q67 -82 195 -82t384 137 l100 -162q-293 -166 -522 -166q-276 0 -409 209q-197 -209 -443 -209q-156 1 -261 93t-105 258t108 256q109 90 277 90q106 0 340 -56q6 72 24 134q-6 80 -51 116q-44 36 -156 35q-112 0 -389 -84l-82 176q303 103 525 103t319 -101q131 101 349 101t344 -130t126 -341z" glyph-name="aeacute" horiz-adv-x="1894" unicode="ǽ"/><glyph d="M786 1526h-208l253 276h302zM373 717q0 -199 59 -318l578 756q-92 74 -240 74q-397 0 -397 -512zM770 203q209 0 303 139t94 351t-59 337l-580 -754q92 -73 242 -73zM264 180q-164 193 -164 524t153 536q77 104 209 160t308 56q233 0 391 -102l62 80h194l-141 -183 q164 -193 164 -524t-154 -532q-78 -101 -209 -159t-307 -59q-238 0 -391 103l-62 -80h-192z" glyph-name="Oslashacute" horiz-adv-x="1540" unicode="Ǿ"/><glyph d="M631 1217h-209l252 276h305zM340 537q0 -125 33 -205l418 518q-70 49 -168 49q-283 0 -283 -362zM905 537q0 125 -37 211l-417 -521q66 -53 172 -53q282 1 282 363zM1163 534q0 -264 -140 -410t-400 -147q-182 0 -312 76l-43 -53h-162l109 133q-131 147 -131 409t139 408 q139 147 400 148q180 0 307 -76l43 53h160l-107 -131q137 -147 137 -410z" glyph-name="oslashacute" horiz-adv-x="1247" unicode="ǿ"/><glyph d="M698 -23q-166 1 -336 57t-290 130l118 190q106 -61 250 -109t248 -48q106 0 178 46t72 121t-50 117t-108 63q-117 44 -258 89q-238 77 -328 181t-90 239q0 182 136 293t360 110q281 0 563 -143l-119 -193q-98 47 -221 81t-216 34t-160 -42t-67 -126t86 -126 q64 -34 227 -86q162 -52 235 -87t142 -84q144 -102 143 -292q-1 -189 -144 -302t-371 -113zM551 -350v229h205l18 -250l-176 -219l-57 66l102 174h-92z" glyph-name="Scommaaccent" horiz-adv-x="1288" unicode="Ș"/><glyph d="M592 -23q-138 0 -282 41t-244 95l104 182q88 -47 208 -84t200 -37t129 30t49 72t-18 60q-56 56 -162 83l-75 19q-176 44 -295 120q-118 76 -118 222t109 232t319 86t449 -115l-105 -168q-205 88 -354 88q-76 0 -120 -29t-44 -77q0 -83 148 -124q32 -9 88 -23 q224 -55 329 -136q105 -82 105 -226t-115 -228t-305 -83zM432 -350v229h203l18 -250l-174 -219l-57 66l102 174h-92z" glyph-name="scommaaccent" horiz-adv-x="1077" unicode="ș"/><glyph d="M1169 1208h-430v-1208h-264v1208h-434v226h1128v-226zM506 -350v229h205l18 -250l-174 -219l-59 66l104 174h-94z" glyph-name="uni021A" horiz-adv-x="1208" unicode="Ț"/><glyph d="M279 -350v229h202l21 -250l-176 -219l-58 66l103 174h-92zM57 887v188h148v271l252 40v-311h293v-188h-293v-584q-1 -61 25 -83t73 -22t178 50l90 -189q-188 -82 -329 -82q-289 0 -289 332v578h-148z" glyph-name="uni021B" horiz-adv-x="835" unicode="ț"/><glyph d="M279 1683v-327q135 92 266 92q199 0 198 -205v-455h-178v414q0 106 -90 107q-100 0 -196 -82v-439h-179v895h179z" glyph-name="uni02B0" horiz-adv-x="839" unicode="ʰ"/><glyph d="M281 1434v-629q0 -149 -35 -187q-16 -18 -57 -46t-183 -60l-57 127q109 35 131 59t20 95v641h181zM94 1526v155h191v-155h-191z" glyph-name="uni02B2" horiz-adv-x="378" unicode="ʲ"/><glyph d="M680 788l-137 443l-140 -443h-167l-211 646h190l117 -467l135 467h149l136 -465l116 465h191l-207 -646h-172z" glyph-name="uni02B7" horiz-adv-x="1085" unicode="ʷ"/><glyph d="M12 1434h193l164 -437l166 437h192l-373 -895h-192l114 254z" glyph-name="uni02B8" horiz-adv-x="741" unicode="ʸ"/><glyph d="M418 1493l213 -276h-180l-162 159l-160 -159h-180l213 276h256z" glyph-name="circumflex" horiz-adv-x="579" unicode="ˆ"/><glyph d="M631 1493l-213 -276h-256l-213 276h180l160 -160l162 160h180z" glyph-name="caron" horiz-adv-x="579" unicode="ˇ"/><glyph d="M602 1456q0 -111 -86 -175t-236 -64q-151 1 -236 65t-85 174h164q0 -96 159 -96t158 96h162z" glyph-name="breve" horiz-adv-x="563" unicode="˘"/><glyph d="M-20 1237v219h215v-219h-215z" glyph-name="dotaccent" horiz-adv-x="174" unicode="˙"/><glyph d="M115 1419q-1 -41 27 -69t69 -27q41 0 69 28q28 27 28 67t-29 69t-69 29t-68 -28t-27 -69zM210 1196q-94 0 -158 64t-64 158q0 93 64 159q65 65 158 65t159 -66q65 -66 65 -158q0 -94 -66 -158t-158 -64z" glyph-name="ring" horiz-adv-x="421" unicode="˚"/><glyph d="M133 -195q0 -71 105 -71h53l-27 -123q-174 0 -240 44t-65 126q0 135 252 242l121 -21q-149 -90 -181 -140q-18 -28 -18 -57z" glyph-name="ogonek" horiz-adv-x="331" unicode="˛"/><glyph d="M170 1487q49 0 144 -49t122 -49q51 0 105 94l121 -58q-47 -91 -79 -131q-55 -67 -125 -67q-71 0 -166 49t-122 49q-51 0 -104 -94l-121 55q55 101 85 137q51 64 140 64z" glyph-name="tilde" horiz-adv-x="606" unicode="˜"/><glyph d="M109 1217h-154l164 276h246zM451 1217h-152l162 276h248z" glyph-name="hungarumlaut" horiz-adv-x="663" unicode="˝"/><glyph d="M569 788l-170 234l-168 -234h-213l271 322l-258 324h207l161 -232l160 232h207l-258 -324l272 -322h-211z" glyph-name="uni02E3" horiz-adv-x="798" unicode="ˣ"/><glyph d="M1133 1075v-219h-172v-856h-224v856h-282v-856h-224v856h-174v219h1076z" glyph-name="pi" horiz-adv-x="1189" unicode="π"/><glyph d="M1178 1526h-211l-346 276h301zM1260 0l-277 1057l-274 -1057h-267l-397 1434h299l250 -1092l278 1092h222l278 -1090l254 1090h299l-401 -1434h-264z" glyph-name="Wgrave" horiz-adv-x="1968" unicode="Ẁ"/><glyph d="M1042 1217h-208l-349 276h301zM1081 0l-231 774l-232 -774h-241l-334 1075h268l201 -813l229 813h215l230 -813l203 813h268l-336 -1075h-240z" glyph-name="wgrave" horiz-adv-x="1699" unicode="ẁ"/><glyph d="M999 1526h-206l254 276h301zM1260 0l-277 1057l-274 -1057h-267l-397 1434h299l250 -1092l278 1092h222l278 -1090l254 1090h299l-401 -1434h-264z" glyph-name="Wacute" horiz-adv-x="1968" unicode="Ẃ"/><glyph d="M866 1217h-209l254 276h303zM1081 0l-231 774l-232 -774h-241l-334 1075h268l201 -813l229 813h215l230 -813l203 813h268l-336 -1075h-240z" glyph-name="wacute" horiz-adv-x="1699" unicode="ẃ"/><glyph d="M1061 1546v219h211v-219h-211zM696 1546v219h215v-219h-215zM1260 0l-277 1057l-274 -1057h-267l-397 1434h299l250 -1092l278 1092h222l278 -1090l254 1090h299l-401 -1434h-264z" glyph-name="Wdieresis" horiz-adv-x="1968" unicode="Ẅ"/><glyph d="M924 1237v219h215v-219h-215zM561 1237v219h215v-219h-215zM1081 0l-231 774l-232 -774h-241l-334 1075h268l201 -813l229 813h215l230 -813l203 813h268l-336 -1075h-240z" glyph-name="wdieresis" horiz-adv-x="1699" unicode="ẅ"/><glyph d="M862 1526h-207l-348 276h301zM537 0v571l-519 863h297l355 -652l354 652h297l-522 -869l2 -565h-264z" glyph-name="Ygrave" horiz-adv-x="1339" unicode="Ỳ"/><glyph d="M780 1217h-207l-348 276h301zM35 1075h274l279 -774l278 774h277l-596 -1493h-275l187 422z" glyph-name="ygrave" horiz-adv-x="1175" unicode="ỳ"/><glyph d="M1026 479h-893v207h893v-207z" glyph-name="endash" horiz-adv-x="1157" unicode="–"/><glyph d="M1243 479h-1110v207h1110v-207z" glyph-name="emdash" horiz-adv-x="1376" unicode="—"/><glyph d="M391 1163v-307h-264l-23 338l224 281l73 -89l-131 -223h121z" glyph-name="quoteleft" horiz-adv-x="518" unicode="‘"/><glyph d="M119 1126v308h266l23 -338l-224 -281l-73 88l129 223h-121z" glyph-name="quoteright" horiz-adv-x="495" unicode="’"/><glyph d="M127 0v307h266l23 -338l-223 -280l-74 88l129 223h-121z" glyph-name="quotesinglbase" horiz-adv-x="530" unicode="‚"/><glyph d="M825 1163v-307h-268l-22 338l225 281l74 -89l-129 -223h120zM391 1163v-307h-264l-23 338l224 281l73 -89l-131 -223h121z" glyph-name="quotedblleft" horiz-adv-x="950" unicode="“"/><glyph d="M119 1126v308h266l23 -338l-224 -281l-73 88l129 223h-121zM551 1126v308h266l23 -338l-226 -281l-73 88l131 223h-121z" glyph-name="quotedblright" horiz-adv-x="927" unicode="”"/><glyph d="M127 0v307h266l23 -338l-223 -280l-74 88l129 223h-121zM559 0v307h266l23 -338l-225 -280l-74 88l131 223h-121z" glyph-name="quotedblbase" horiz-adv-x="964" unicode="„"/><glyph d="M512 1434h195v-473l454 26v-209l-454 25v-1221h-195v1223l-453 -27v209l453 -26v473z" glyph-name="dagger" horiz-adv-x="1222" unicode="†"/><glyph d="M547 1434h194v-473l455 26v-209l-455 25v-379l455 27v-209l-455 24v-684h-194v686l-453 -26v209l453 -27v381l-453 -27v209l453 -26v473z" glyph-name="daggerdbl" horiz-adv-x="1290" unicode="‡"/><glyph d="M158 582q0 127 88 216t215 89t216 -89t89 -216t-89 -215t-215 -88t-215 88t-89 215z" glyph-name="bullet" horiz-adv-x="925" unicode="•"/><glyph d="M1073 0v307h268v-307h-268zM600 0v307h270v-307h-270zM129 0v307h268v-307h-268z" glyph-name="ellipsis" horiz-adv-x="1470" unicode="…"/><glyph d="M1501 1434l-745 -1434h-203l745 1434h203zM2675 360q1 109 -51 167q-52 59 -144 59t-142 -58t-50 -168t50 -166t142 -56t144 56q52 57 51 166zM2869 360q0 -182 -103 -282q-102 -100 -284 -100t-286 100q-104 102 -103 283q0 181 103 283q102 102 284 101q182 0 286 -101 q103 -102 103 -284zM1786 360q0 109 -51 167q-51 59 -143 59t-143 -58q-50 -58 -50 -168t50 -166t142 -56q91 0 143 56q52 57 52 166zM1980 360q0 -182 -104 -282t-286 -100t-283 100q-102 100 -103 282q0 182 102 284t284 101q181 0 286 -101q104 -102 104 -284zM657 1071 q0 109 -51 167t-143 58t-142 -58q-51 -58 -51 -167t50 -166t143 -57q92 0 143 57t51 166zM852 1071q0 -183 -103 -283t-285 -100t-284 102q-104 102 -104 282t103 282t285 102t285 -101q103 -102 103 -284z" glyph-name="perthousand" horiz-adv-x="2947" unicode="‰"/><glyph d="M66 639l624 440v-241l-409 -279l409 -276v-242l-624 442v156z" glyph-name="guilsinglleft" horiz-adv-x="804" unicode="‹"/><glyph d="M739 639v-156l-624 -442v244l411 274l-411 279v241z" glyph-name="guilsinglright" horiz-adv-x="804" unicode="›"/><glyph d="M627 1434l-676 -1434h-199l676 1434h199z" glyph-name="fraction" horiz-adv-x="380" unicode="⁄"/><glyph d="M453 918q186 0 186 300t-186 300t-186 -300t186 -300zM453 1663q182 0 277 -116q95 -117 95 -329t-95 -328t-277 -116t-278 116q-95 116 -95 329t96 329t277 115z" glyph-name="uni2070" horiz-adv-x="905" unicode="⁰"/><glyph d="M522 1106v395l-280 -395h280zM47 954v129l414 566h248v-543h137v-152h-137v-166h-187v166h-475z" glyph-name="uni2074" horiz-adv-x="901" unicode="⁴"/><glyph d="M709 1649v-154h-406l-12 -166q66 20 135 21q152 0 236 -82t84 -203t-90 -206q-89 -85 -257 -85t-340 107l82 133q123 -82 238 -82q74 0 125 37t51 96t-45 98t-127 39t-180 -49l-103 64l50 432h559z" glyph-name="uni2075" horiz-adv-x="819" unicode="⁵"/><glyph d="M450 1204q-70 0 -116 -26q-47 -26 -70 -58q2 -98 52 -147t127 -49t120 43t43 100t-43 97t-113 40zM600 1511q-113 0 -199 -60t-118 -179q90 70 219 70t209 -76q80 -74 80 -196q-1 -122 -95 -209t-263 -87t-263 109t-94 272q0 219 145 363t377 145q71 0 119 -12l16 -2 l-43 -146q-41 8 -90 8z" glyph-name="uni2076" horiz-adv-x="854" unicode="⁶"/><glyph d="M352 788h-192q0 111 44 238t129 262t144 207h-428v154h629v-144q-206 -240 -291 -510q-35 -111 -35 -207z" glyph-name="uni2077" horiz-adv-x="718" unicode="⁷"/><glyph d="M303 1434q0 -72 129 -119q133 47 133 119q0 36 -37 64t-95 28t-94 -28t-36 -64zM612 1032q0 51 -47 87t-133 69q-84 -35 -131 -70t-47 -86t51 -84t129 -33t128 33t50 84zM66 1018q0 150 200 237q-145 78 -145 195q0 96 84 154t229 59q146 0 230 -58t84 -164t-148 -186 q203 -90 203 -237q1 -112 -99 -178t-270 -66t-269 66t-99 178z" glyph-name="uni2078" horiz-adv-x="870" unicode="⁸"/><glyph d="M402 1233q70 -1 117 25q48 26 71 57q-2 96 -52 146t-127 50t-119 -42t-42 -99t41 -97t111 -40zM254 924q113 0 198 60t119 179q-88 -69 -218 -69t-210 76t-80 197q1 122 95 209t263 87t263 -109t94 -272q0 -219 -145 -363t-379 -145q-67 0 -115 12l-16 2l43 144 q39 -8 88 -8z" glyph-name="uni2079" horiz-adv-x="854" unicode="⁹"/><glyph d="M328 1487h137v-221h262v-136h-262v-223h-137v223h-265v136h265v221z" glyph-name="uni207A" horiz-adv-x="790" unicode="⁺"/><glyph d="M104 903v627q0 59 2 87q6 86 59 121q82 52 214 81l47 -101q-94 -31 -115 -56q-20 -26 -20 -91v-709q0 -68 20 -94t115 -55l-47 -101q-99 22 -157 46t-83 64t-30 74t-5 107z" glyph-name="uni207D" horiz-adv-x="477" unicode="⁽"/><glyph d="M375 1530v-627q0 -73 -5 -107t-32 -74t-83 -64t-157 -46l-47 101q94 31 116 57t21 92v709q0 65 -22 91t-115 56l47 101q100 -23 156 -47t84 -63q27 -39 32 -73t5 -106z" glyph-name="uni207E" horiz-adv-x="477" unicode="⁾"/><glyph d="M279 1434v-78q135 92 266 92q199 0 198 -205v-455h-178v414q0 106 -90 107q-100 0 -196 -82v-439h-179v646h179z" glyph-name="uni207F" horiz-adv-x="839" unicode="ⁿ"/><glyph d="M453 -178q186 0 186 300t-186 300t-186 -300t186 -300zM453 567q182 1 277 -115t95 -329t-95 -329t-277 -116t-278 116q-95 116 -95 329t95 329q96 115 278 115z" glyph-name="uni2080" horiz-adv-x="905" unicode="₀"/><glyph d="M440 -307h-186v688l-156 -80l-75 121l241 131h176v-860z" glyph-name="uni2081" horiz-adv-x="565" unicode="₁"/><glyph d="M737 -154v-153h-674v84q0 119 75 199t208 159q12 5 36 21t35 22t51 35t50 41t20 26t11 49q0 33 -36 59t-101 26q-109 0 -240 -80l-84 119q174 115 332 115t238 -68q79 -68 79 -176t-90 -187q-61 -53 -130 -92q-67 -39 -111 -63q-118 -67 -119 -136h450z" glyph-name="uni2082" horiz-adv-x="821" unicode="₂"/><glyph d="M397 -168q74 0 120 31t46 84q0 127 -258 127h-41v153h47q84 0 149 25t64 80q0 82 -118 82t-240 -74l-76 117q145 111 338 110q139 0 211 -59t72 -150q0 -133 -154 -190q86 -25 140 -85q55 -61 55 -155t-82 -172t-260 -78t-363 107l84 127q141 -80 266 -80z" glyph-name="uni2083" horiz-adv-x="823" unicode="₃"/><glyph d="M524 10v396l-280 -396h280zM49 -141v129l414 565h248v-543h137v-151h-137v-166h-187v166h-475z" glyph-name="uni2084" horiz-adv-x="903" unicode="₄"/><glyph d="M711 553v-154h-406l-12 -166q66 20 135 21q152 0 236 -82t84 -203t-90 -206t-256 -85q-168 0 -341 107l82 133q123 -82 238 -82q74 0 125 37t51 96t-45 99t-127 38q-82 0 -180 -49l-103 64l50 432h559z" glyph-name="uni2085" horiz-adv-x="821" unicode="₅"/><glyph d="M606 -29q0 57 -43 97t-113 41q-70 0 -116 -26q-47 -26 -70 -58q2 -97 52 -147t127 -50t120 43t43 100zM600 416q-113 0 -199 -60t-118 -180q90 70 219 70t209 -75t80 -197q-1 -122 -95 -208t-263 -88q-169 0 -263 109t-94 272q0 219 145 363t377 145q79 0 135 -14 l-43 -145q-41 8 -90 8z" glyph-name="uni2086" horiz-adv-x="854" unicode="₆"/><glyph d="M352 -307h-192q0 111 44 237t126 259q82 132 147 210h-428v154h629v-143q-205 -239 -291 -510q-35 -111 -35 -207z" glyph-name="uni2087" horiz-adv-x="718" unicode="₇"/><glyph d="M303 338q0 -72 129 -119q133 47 133 119q0 36 -37 64t-95 28t-94 -28t-36 -64zM612 -63q0 51 -47 87t-133 68q-84 -36 -131 -70t-47 -85t51 -84t129 -33t128 33t50 84zM66 -78q0 150 200 238q-145 78 -145 194q0 96 84 154t229 59q146 0 230 -58t84 -164t-148 -185 q203 -90 203 -238q1 -112 -99 -178t-270 -66t-269 66t-99 178z" glyph-name="uni2088" horiz-adv-x="870" unicode="₈"/><glyph d="M402 137q70 0 117 26q48 26 71 56q-2 97 -52 147t-127 50t-119 -42t-42 -100t41 -97q41 -40 111 -40zM254 -172q113 0 198 60t119 180q-88 -70 -218 -70t-210 76t-80 198q1 122 95 208q94 87 263 87q169 -1 263 -109t94 -272q0 -219 -145 -363t-379 -145q-71 0 -131 15 l43 143q39 -8 88 -8z" glyph-name="uni2089" horiz-adv-x="851" unicode="₉"/><glyph d="M104 -193v627q0 59 2 87t16 65q13 37 43 56q82 52 214 81l47 -100q-94 -31 -114 -57t-21 -91v-708q0 -68 20 -94t115 -56l-47 -100q-99 23 -157 47t-83 62q-25 40 -30 74t-5 107z" glyph-name="uni208D" horiz-adv-x="475" unicode="₍"/><glyph d="M373 434v-627q0 -73 -5 -107t-32 -74t-83 -64t-157 -45l-47 100q94 31 116 57t21 93v708q0 65 -22 91t-115 57l47 100q100 -23 156 -47t84 -63q27 -39 32 -73t5 -106z" glyph-name="uni208E" horiz-adv-x="475" unicode="₎"/><glyph d="M543 389q25 -10 61 -14l154 661q-41 12 -62 17zM373 710q0 -144 65 -237l135 582q-92 -23 -146 -112t-54 -233zM594 1278q20 0 31 -2l37 158h122l-41 -174q20 -4 62 -17l45 191h123l-53 -232q39 -18 147 -72l-109 -186q-49 27 -88 45l-139 -600q72 20 227 100l109 -186 q-225 -119 -389 -139l-37 -164h-123l37 158q-23 2 -63 10l-39 -168h-123l47 207q-121 61 -193 191t-71 321q0 271 139 415t342 144z" glyph-name="colonmonetary" horiz-adv-x="1159" unicode="₡"/><glyph d="M137 676v135h123q-98 164 -98 289q0 164 112 260q113 96 310 96q100 0 204 -30t160 -58t139 -76l-118 -172q-213 115 -325 115t-166 -49t-54 -118t34 -130q9 -18 40 -68t37 -59h393v-135h-334q16 -55 16 -111v-2h318v-135h-342q-51 -137 -142 -209h619v-219h-948v180 q18 10 47 28t90 84q61 65 88 136h-203v135h223q-2 49 -28 113h-195z" glyph-name="lira" horiz-adv-x="1177" unicode="₤"/><glyph d="M739 741q262 0 297 179h-587v-179h290zM449 1212v-180h587q-33 180 -297 180h-290zM125 920v112h61v402h564q524 0 559 -402h55v-112h-55q-35 -395 -559 -396h-301v-524h-263v920h-61z" glyph-name="peseta" horiz-adv-x="1429" unicode="₧"/><glyph d="M561 840l115 -496l127 496h-242zM1325 840l127 -500l117 500h-244zM104 489v156h240l-55 195h-185v155h142l-121 439h299l100 -439h318l112 439h220l110 -439h320l102 439h299l-123 -439h141v-155h-184l-55 -195h239v-156h-282l-135 -489h-267l-274 1055l-274 -1055h-267 l-137 489h-283z" glyph-name="uni20A9" horiz-adv-x="2131" unicode="₩"/><glyph d="M90 795v143h141q45 256 198 387t368 131q149 0 287 -55t302 -154l-126 -192q-276 164 -437 164q-115 0 -195 -73t-116 -208h508v-143h-533q-2 -25 -2 -82t4 -86h531v-144h-506q39 -129 119 -199t190 -71q160 0 437 164l126 -193q-162 -96 -301 -151t-288 -56 q-213 0 -364 127t-200 379h-143v144h125q-2 29 -2 85t2 83h-125z" glyph-name="Euro" horiz-adv-x="1478" unicode="€"/><glyph d="M1559 324v153h675v-153h-675zM2085 994q0 124 -45 184t-146 61q-190 0 -190 -244q0 -123 45 -183t145 -60t146 59q45 59 45 183zM2312 994q0 -204 -108 -312t-309 -107q-201 0 -309 108q-108 109 -108 311t108 312t310 110t309 -109t107 -313zM438 0h-264v1434h268 l650 -1045v1045h262v-1434h-269l-647 1040v-1040z" glyph-name="afii61352" horiz-adv-x="2406" unicode="№"/><glyph d="M184 717q0 -289 172 -475t476 -186t478 186t173 475q0 289 -173 475q-174 186 -478 186t-476 -186t-172 -475zM102 717q0 323 195 531t537 208t536 -209t193 -531q0 -322 -194 -530q-193 -209 -535 -209t-537 209t-195 531zM1092 885q0 176 -195 176h-186v-352h186 q195 0 195 176zM895 1147q299 0 299 -263t-299 -263h-184v-336h-103v862h287z" glyph-name="uni2117" horiz-adv-x="1665" unicode="℗"/><glyph d="M343 967q-108 0 -234 65l51 76q114 -51 202 -51t89 43q0 16 -22 26t-77 22t-84 21q-145 43 -145 134q0 61 51 100q50 39 150 39t219 -58l-51 -73q-104 39 -180 39t-74 -39q0 -29 67 -43q18 -4 48 -12t55 -13q158 -43 157 -137q0 -61 -57 -100t-165 -39zM1067 975v295 l-125 -219h-72l-125 221v-297h-112v459h119l153 -271l158 271h117v-459h-113z" glyph-name="uni2120" horiz-adv-x="1318" unicode="℠"/><glyph d="M561 1341h-164v-366h-112v366h-162v93h438v-93zM1061 975v295l-125 -219h-70l-127 223v-299h-112v459h118l156 -273l154 273h119v-459h-113z" glyph-name="trademark" horiz-adv-x="1316" unicode="™"/><glyph d="M780 1456q332 0 500 -196t168 -510q0 -205 -80 -343t-184 -188h221v-219h-537v223q147 43 230 174q82 131 82 326q0 508 -400 508t-399 -508q0 -195 83 -325t228 -175v-223h-536v219h217q-100 49 -180 189t-80 342q-1 314 167 510t500 196z" glyph-name="uni2126" horiz-adv-x="1558" unicode="Ω"/><glyph d="M1343 139q76 0 122 31t46 82t-46 82q-70 47 -214 47h-39v154h48q84 1 147 25t63 79q0 82 -118 82t-238 -74l-78 117q154 111 340 110q137 0 209 -59t72 -149q0 -133 -154 -191q85 -25 141 -85t56 -154t-83 -173q-83 -77 -263 -77t-359 106l82 127q141 -80 266 -80z M1231 1434l-678 -1434h-199l678 1434h199zM473 573h-186v689l-156 -80l-76 121l242 131h176v-861z" glyph-name="onethird" horiz-adv-x="1789" unicode="⅓"/><glyph d="M1612 139q74 0 120 31t46 84q0 127 -258 127h-41v154h49q84 1 147 25t64 79q0 82 -118 82t-241 -74l-77 117q154 111 339 110q139 0 211 -59t72 -149q0 -133 -153 -191q86 -25 140 -85t54 -154t-82 -173q-82 -77 -260 -77t-362 106l84 127q141 -80 266 -80zM1497 1434 l-676 -1434h-198l675 1434h199zM770 727v-154h-676v84q0 119 75 199t212 163t168 116t31 71t-36 63q-36 26 -102 25q-102 0 -239 -80l-84 119q179 115 335 115t235 -68t79 -172q0 -136 -135 -228q-53 -38 -73 -49t-94 -52q-73 -41 -111 -75t-38 -77h453z" glyph-name="twothirds" horiz-adv-x="2048" unicode="⅔"/><glyph d="M1219 645q0 -72 131 -119q131 47 131 119q0 37 -36 65t-94 28t-96 -28q-36 -28 -36 -65zM1528 244q0 51 -47 86t-131 69q-86 -33 -133 -69t-47 -86q0 -51 50 -84q52 -33 131 -33t128 33t49 84zM473 573h-186v689l-156 -80l-76 121l242 131h176v-861zM1231 1434 l-678 -1434h-199l678 1434h199zM981 229q0 150 201 238q-144 79 -144 185t84 164t228 58t229 -59q84 -59 84 -153q0 -115 -147 -195q201 -88 200 -238q0 -113 -98 -179t-268 -64q-170 0 -270 65q-99 65 -99 178z" glyph-name="oneeighth" horiz-adv-x="1804" unicode="⅛"/><glyph d="M1430 645q0 -72 131 -119q131 47 131 119q0 37 -36 65t-94 28t-96 -28q-36 -28 -36 -65zM1741 244q0 51 -47 87t-133 68q-84 -35 -131 -69q-48 -34 -48 -86q0 -51 50 -84t130 -33q79 0 129 33t50 84zM1442 1434l-678 -1434h-199l678 1434h199zM426 713q74 1 119 31t45 83 q0 127 -256 127h-43v154h49q84 0 148 25t65 79q0 82 -117 82t-243 -73l-76 116q145 111 340 111q139 0 211 -59t71 -150q0 -131 -153 -190q84 -25 138 -85t54 -155t-81 -173t-259 -76q-178 0 -362 106l84 127q141 -80 266 -80zM1194 229q0 154 201 238q-145 78 -146 195 q0 96 84 154q85 58 229 58t228 -59t84 -153q0 -115 -148 -195q203 -90 203 -238q0 -113 -99 -179t-268 -64q-169 0 -269 65q-99 65 -99 178z" glyph-name="threeeighths" horiz-adv-x="2011" unicode="⅜"/><glyph d="M1395 645q0 -72 129 -119q133 47 133 119q0 37 -36 65t-95 28t-95 -28t-36 -65zM1706 244q0 51 -48 86t-134 69q-84 -33 -130 -69t-46 -86q0 -51 50 -84t128 -33t129 33t51 84zM1407 1434l-676 -1434h-199l676 1434h199zM731 1434v-154h-405l-13 -166q66 20 136 21 q151 0 235 -82t84 -203t-89 -206t-257 -85t-340 107l82 133q123 -82 237 -82q74 0 125 37q52 37 52 96t-46 98t-127 39q-82 0 -180 -49l-102 63l49 433h559zM1157 229q0 150 201 238q-145 78 -146 195q0 96 84 154t230 58t229 -58q84 -58 84 -154q0 -115 -147 -195 q203 -90 202 -238q0 -113 -99 -179t-269 -64q-170 0 -270 65q-99 65 -99 178z" glyph-name="fiveeighths" horiz-adv-x="1974" unicode="⅝"/><glyph d="M1208 645q0 -72 131 -119q131 47 131 119q0 37 -35 65q-37 28 -95 28t-95 -28t-37 -65zM1520 244q0 51 -47 87t-134 68q-84 -35 -131 -69t-47 -86q0 -51 50 -84t129 -33q80 0 130 33t50 84zM371 573h-193q0 111 44 238t133 267t141 202h-428v154h630v-144 q-29 -29 -99 -132q-69 -103 -113 -185t-80 -193t-35 -207zM1223 1434l-678 -1434h-199l678 1434h199zM973 229q0 154 201 238q-145 78 -146 195q0 94 85 153t228 59t227 -59t85 -153q0 -115 -148 -195q203 -90 203 -238q0 -113 -99 -179t-269 -64q-170 0 -268 65 q-99 65 -99 178z" glyph-name="seveneighths" horiz-adv-x="1787" unicode="⅞"/><glyph d="M934 475q0 137 -72 219t-217 82t-218 -84t-73 -217t73 -217t216 -84t217 82t74 219zM395 1231q-83 0 -143 -12l-21 -5l-32 195q78 25 202 25q365 0 577 -239t212 -607q0 -307 -151 -459t-405 -152q-254 1 -398 135q-146 134 -146 360t134 364t347 139q135 0 222 -47 t118 -88l13 -15q-42 170 -180 288t-349 118z" glyph-name="partialdiff" horiz-adv-x="1298" unicode="∂"/><glyph d="M1108 219l-371 948l-377 -948h748zM1427 0h-1380l549 1434h281z" glyph-name="uni2206" horiz-adv-x="1476" unicode="∆"/><glyph d="M1405 1434v-222h-201v-1212h-264v1212h-412v-1212h-262v1212h-203v222h1342z" glyph-name="product" horiz-adv-x="1470" unicode="∏"/><glyph d="M90 1434h1000v-222h-621l485 -495l-485 -498h621v-219h-1000v137l553 580l-553 579v138z" glyph-name="summation" horiz-adv-x="1196" unicode="∑"/><glyph d="M121 586v192h1046v-192h-1046z" glyph-name="minus" horiz-adv-x="1290" unicode="−"/><glyph d="M1260 1434l-607 -1434h-262l-362 696h270l215 -428l477 1166h269z" glyph-name="radical" unicode="√"/><glyph d="M307 527q-1 -73 53 -124t128 -51q118 0 227 85q39 32 104 91q-104 94 -171 134q-68 40 -150 40t-136 -51t-55 -124zM1386 702q-82 0 -150 -40t-173 -136q96 -88 165 -131q70 -43 156 -43t141 51q54 51 54 124t-55 124q-56 51 -138 51zM485 877q89 0 177 -38t142 -80 t138 -120q82 78 136 120t142 80t179 38q168 -1 271 -99q104 -98 104 -250t-104 -250t-271 -98q-123 0 -223 58t-234 178q-129 -119 -230 -177t-227 -59q-170 0 -272 98t-102 250q0 150 103 250t271 99z" glyph-name="infinity" horiz-adv-x="1886" unicode="∞"/><glyph d="M272 182v1100q0 246 104 341t376 95h30v-153h-43q-108 0 -159 -64q-43 -54 -43 -258v-1102q-1 -246 -105 -340t-375 -94h-30v152h43q109 0 153 56q45 56 48 166q1 33 1 101z" glyph-name="integral" horiz-adv-x="808" unicode="∫"/><glyph d="M430 668q94 0 230 -68t196 -68t99 25q38 25 79 96l135 -53q-111 -248 -307 -248q-90 0 -230 67t-200 67t-96 -25q-37 -24 -78 -96l-135 55q113 248 307 248zM430 1047q94 0 230 -68t196 -68t99 25q38 25 79 96l135 -53q-111 -248 -307 -248q-90 0 -230 67 q-140 66 -200 66t-96 -24q-37 -24 -78 -97l-135 56q113 248 307 248z" glyph-name="approxequal" horiz-adv-x="1290" unicode="≈"/><glyph d="M121 778v195h547l131 307l166 -63l-105 -244h307v-195h-391l-80 -188h471v-193h-553l-131 -307l-161 64l102 243h-303v193h385l80 188h-465z" glyph-name="notequal" horiz-adv-x="1290" unicode="≠"/><glyph d="M111 0v168h1044v-168h-1044zM1155 944l-729 -250l729 -252v-219l-1044 393v156l1044 393v-221z" glyph-name="lessequal" horiz-adv-x="1290" unicode="≤"/><glyph d="M1176 168v-168h-1045v168h1045zM1176 772v-156l-1045 -393v219l729 252l-729 250v221z" glyph-name="greaterequal" horiz-adv-x="1290" unicode="≥"/><glyph d="M418 950h143v127q0 53 -42 90t-102 37q-61 0 -103 -37t-42 -90t42 -90t104 -37zM1055 1077v-127h141q59 0 101 38t42 90t-42 89t-101 37t-100 -37t-41 -90zM717 799v-160h182v160h-182zM561 487h-143q-61 0 -104 -36q-42 -37 -42 -91t42 -90q42 -37 102 -37t103 37 q42 37 42 90v127zM1196 487h-141v-127q0 -53 41 -90t100 -37t101 37t42 89t-42 90t-101 38zM1495 360q0 -114 -87 -196t-211 -82t-211 82t-87 196v127h-182v-127q0 -114 -88 -196t-212 -82t-212 82t-88 196t88 197q88 82 213 82h143v160h-143q-125 0 -213 82q-88 81 -88 197 t88 197t212 81t212 -81t88 -198v-127h182v127q0 117 87 198t211 81t211 -81t87 -197t-87 -198t-212 -81h-141v-160h141q125 0 212 -82t87 -197z" glyph-name="uni2318" horiz-adv-x="1611" unicode="⌘"/><glyph d="M864 717l-276 506l-273 -506l273 -508zM725 0h-270l-387 717l387 717h270l387 -717z" glyph-name="lozenge" horiz-adv-x="1175" unicode="◊"/><glyph d="M12 -350v229h205l16 -250l-172 -219l-57 66l100 174h-92z" glyph-name="uniF6C3" horiz-adv-x="229" unicode=""/><glyph d="M252 123q0 -143 104 -176v352q-104 -33 -104 -176zM487 -307h-131v96q-122 6 -204 91t-82 243t82 243t204 91v96h131v-109q76 -16 195 -71l-76 -131q-61 31 -119 49v-338q57 18 119 49l76 -131q-139 -57 -195 -70v-108z" glyph-name="uniF6DF" horiz-adv-x="747" unicode=""/><glyph d="M254 1220q0 -142 104 -180v355q-104 -33 -104 -175zM489 788h-131v95q-122 6 -204 92t-82 244q0 159 82 243t204 90v97h131v-109q76 -16 195 -72l-76 -131q-63 31 -119 49v-337q55 18 119 49l76 -131q-119 -55 -195 -72v-107z" glyph-name="uniF6E0" horiz-adv-x="747" unicode=""/><glyph d="M100 -307v203h187l14 -226l-154 -174l-51 60l88 137h-84z" glyph-name="uniF6E1" horiz-adv-x="391" unicode=""/><glyph d="M100 788v203h187l14 -225l-154 -174l-51 59l88 137h-84z" glyph-name="uniF6E2" horiz-adv-x="393" unicode=""/><glyph d="M268 330q0 -55 92 -88v168q-92 -14 -92 -80zM594 -80q0 59 -105 92v-178q105 14 105 86zM489 -430h-129v117q-170 25 -309 108l86 131q104 -57 223 -82v207l-51 19q-238 80 -237 245q0 106 76 174q77 68 212 76v113h129v-119q145 -20 271 -82l-84 -133q-80 35 -187 59 v-200q220 -59 277 -169q23 -44 22 -102q0 -110 -82 -178t-217 -73v-111z" glyph-name="uniF6E3" horiz-adv-x="843" unicode=""/><glyph d="M268 1425q0 -55 92 -88v168q-92 -14 -92 -80zM594 1016q0 55 -105 92v-178q105 14 105 86zM489 666h-129v114q-174 27 -309 111l86 131q102 -57 223 -84v209l-51 18q-238 80 -237 246q0 106 76 174q77 68 212 76v113h129v-119q145 -20 271 -82l-84 -133q-80 35 -187 59 v-201q220 -59 277 -169q23 -44 22 -101q0 -110 -82 -178t-217 -76v-108z" glyph-name="uniF6E4" horiz-adv-x="843" unicode=""/><glyph d="M100 -307v203h187v-203h-187z" glyph-name="uniF6E7" horiz-adv-x="387" unicode=""/><glyph d="M100 788v203h187v-203h-187z" glyph-name="uniF6E8" horiz-adv-x="387" unicode=""/><glyph d="M336 911q102 0 190 72v92q-102 20 -164 21q-127 0 -126 -97q-2 -88 100 -88zM526 788v76q-102 -90 -239 -90q-100 0 -167 57t-67 155t70 152q70 56 163 56t240 -31v49q0 53 -27 77q-28 24 -104 24t-239 -49l-58 122q197 62 337 62t205 -56t65 -188v-416h-179z" glyph-name="uniF6E9" horiz-adv-x="798" unicode=""/><glyph d="M455 1305q-96 0 -176 -84v-222q76 -82 176 -81q133 0 133 194t-133 193zM100 788v895h179v-323q102 88 225 88q122 0 194 -86t72 -251t-72 -251t-196 -86t-223 86v-72h-179z" glyph-name="uniF6EA" horiz-adv-x="833" unicode=""/><glyph d="M381 918q96 0 174 81v222q-84 84 -174 84q-135 1 -135 -193t135 -194zM733 788h-178v72q-100 -86 -223 -86t-196 86t-73 251t73 251t192 86t227 -88v323h178v-895z" glyph-name="uniF6EB" horiz-adv-x="833" unicode=""/><glyph d="M397 1319q-129 0 -151 -152h293q-1 152 -142 152zM399 907q94 0 250 78l70 -111q-185 -100 -331 -100t-236 85t-90 247t90 252q92 90 246 90t236 -79q81 -79 81 -208l-10 -88h-459q16 -166 153 -166z" glyph-name="uniF6EC" horiz-adv-x="780" unicode=""/><glyph d="M96 1526v155h191v-155h-191zM281 788h-181v646h181v-646z" glyph-name="uniF6ED" horiz-adv-x="380" unicode=""/><glyph d="M281 788h-181v895h181v-895z" glyph-name="uniF6EE" horiz-adv-x="378" unicode=""/><glyph d="M279 1434v-84q113 98 245 98t174 -111q121 111 248 111q199 0 199 -205v-455h-180v414q0 106 -83 106t-169 -85v-435h-181v414q0 106 -84 106t-169 -85v-435h-179v646h179z" glyph-name="uniF6EF" horiz-adv-x="1239" unicode=""/><glyph d="M575 1110q-1 199 -167 199t-166 -199t166 -199t167 199zM756 1110q0 -160 -90 -248t-257 -88t-257 88t-90 249t88 249q90 88 258 88t258 -89t90 -249z" glyph-name="uniF6F0" horiz-adv-x="817" unicode=""/><glyph d="M279 1434v-136q12 27 33 56q22 28 82 60t138 28v-168q-63 0 -113 -22q-79 -35 -117 -111q-15 -31 -19 -51l-4 -23v-279h-179v646h179z" glyph-name="uniF6F1" horiz-adv-x="567" unicode=""/><glyph d="M664 966q0 -88 -73 -140t-198 -52q-180 0 -340 84l70 125q147 -74 255 -74t107 52q0 24 -17 34t-35 19t-45 14q-27 6 -51 12l-36 9q-236 57 -235 204q0 88 69 142q69 53 209 53t291 -72l-74 -114q-129 51 -223 51t-94 -49q0 -48 115 -71l63 -13q114 -29 178 -77t64 -137z " glyph-name="uniF6F2" horiz-adv-x="716" unicode=""/><glyph d="M41 1303v131h92v161l180 25v-186h183v-131h-183v-312q0 -63 56 -63q39 0 108 30l64 -133q-127 -51 -215 -51q-193 0 -193 217v312h-92z" glyph-name="uniF6F3" horiz-adv-x="575" unicode=""/><glyph d="M745 254q141 0 277 107q135 108 214 261t79 285q0 63 -41 101q25 -37 24 -84q0 -211 -174 -430q-188 -231 -401 -232q-59 0 -100 19q40 -27 122 -27zM946 -20q-12 0 -20 16l-35 61q-20 41 -47 0l-31 -61q-8 -16 -20 -16t-17 20l-20 68q-12 43 -45 10l-47 -55 q-29 -31 -35 12l-4 69q-1 20 -15 26t-30 -5l-54 -43q-16 -12 -26 -7t-6 25l10 68q2 20 -10 30t-31 -1l-62 -31q-18 -8 -26 -1t0 25l22 68q8 18 -2 30t-28 5l-70 -19q-21 -4 -27 6t4 25l39 62q10 16 4 28t-26 13l-72 -5q-20 1 -24 11t8 24l51 49q12 15 8 29t-24 16l-68 13 q-14 2 -24 12t16 25l57 41q2 2 5 4t5 4l2 4q18 16 37 -12l33 -64q10 -18 21 -16q10 2 16 20l18 70q8 24 23 21q14 -3 22 -13l48 -53q30 -30 34 12l4 70q9 44 43 18l58 -43q16 -12 25 -7t5 26l-8 69q-2 21 10 29t27 -2l64 -29q18 -8 26 -1t2 26l-22 67q-8 19 1 29t27 4l15 -2 q40 -78 70 -203t30 -217q-29 -37 -94 -37h-8q0 45 -33 72q18 -20 18 -55v-15q-33 2 -33 42t-27 69q-28 29 -73 29q-44 0 -72 -32t-28 -85t50 -90t138 -37q139 0 276 108q136 109 215 261t79 284q0 58 -37 98t-89 40t-90 -34t-38 -85q0 -106 119 -119q-31 -123 -60 -174 q-27 209 -119 307q90 -119 107 -330l-29 -41q0 156 -51 287t-131 172q-12 23 24 31l70 12q26 4 20 21q-3 8 -14 14l-59 39q-35 31 6 47l64 29q31 9 19 25q-5 7 -19 11l-64 27q-23 10 -20 29q12 6 14 16l35 62q10 18 21 17t16 -19l20 -68q14 -47 45 -10l47 53q13 16 23 13 t12 -23l4 -72q2 -19 15 -25t28 7l57 43q14 12 24 6t7 -27l-10 -70q-2 -20 10 -28t29 2l63 33q19 8 27 0t0 -29l-23 -64q-7 -20 3 -30t28 -4l70 14q20 6 26 -2t-4 -27l-37 -59q-12 -15 -6 -29t27 -12l72 4q20 0 24 -10t-8 -25l-49 -53q-14 -14 -10 -28t24 -15l70 -12 q41 -10 6 -39l-57 -39q-16 -9 -16 -23t22 -22l63 -27q18 -8 19 -18q0 -10 -19 -19l-63 -26q-18 -8 -20 -22t14 -25l57 -41q16 -10 15 -22t-21 -15l-70 -13q-20 -2 -24 -16t10 -29l49 -49q12 -14 8 -24t-24 -11l-72 5q-20 0 -26 -12t5 -29l37 -62q10 -16 4 -25t-26 -6l-70 19 q-18 6 -27 -5t-4 -30l23 -68q8 -18 0 -25t-27 1l-63 31q-16 10 -28 1t-11 -30l10 -68q2 -20 -6 -25t-25 7l-57 43q-17 12 -29 6t-14 -27l-4 -69q-2 -19 -12 -23t-23 11l-47 55q-33 33 -45 -10l-20 -68q-5 -20 -17 -20z" glyph-name="uniF8FF" horiz-adv-x="1755" unicode=""/><glyph d="M1128 887v188h150v51q0 246 -215 246q-97 0 -159 -59t-62 -149t26 -140l97 -41l-105 -168q-205 88 -354 88q-76 0 -120 -29t-44 -77q0 -83 148 -124q32 -9 88 -23q224 -55 329 -136q105 -82 105 -226t-115 -228t-305 -83q-138 0 -282 41t-244 95l104 182q88 -47 208 -84 t200 -37t129 30t49 72t-18 60q-56 56 -162 83l-75 19q-176 44 -295 120q-118 76 -118 222t109 232t297 86q113 0 235 -31q-14 43 -14 104q0 145 103 233t296 89q194 0 304 -103t110 -286v-29h295v-188h-295v-584q0 -61 26 -83q62 -53 250 28l92 -189q-188 -82 -331 -82 q-287 0 -287 332v578h-150z" glyph-name="uniFB06" horiz-adv-x="1908" unicode="ﬆ"/><glyph d="M305 1219q0 -72 129 -119q133 47 133 119q0 35 -37 63t-95 29t-94 -27t-36 -65zM614 817q0 51 -47 87t-133 69q-84 -35 -131 -70t-47 -86t51 -84t129 -33t128 33t50 84zM68 803q0 150 200 237q-145 78 -145 195q0 97 84 155t229 58q146 0 230 -58t84 -164t-148 -186 q203 -90 203 -237q0 -113 -99 -179q-100 -66 -270 -65q-170 -1 -269 65t-99 179z" glyph-name="eight.frac" horiz-adv-x="874"/><glyph d="M508 932q240 0 240 286t-240 285q-240 1 -240 -285t240 -286zM78 1219q0 199 105 321t325 123q220 0 324 -123q106 -123 106 -321q0 -313 -231 -410l139 -104l-121 -125l-217 194q-219 0 -325 123q-105 123 -105 322z" glyph-name="Q.ordn" horiz-adv-x="1017"/><glyph d="M811 887v188h147v86q0 332 285 332q121 0 279 -63l-62 -187q-104 31 -151 31t-73 -22t-26 -83v-94h275v-188h-275v-887h-252v887h-147zM51 887v188h150v86q0 332 286 332q145 0 349 -80l-70 -182q-172 43 -218 43t-72 -22t-25 -83v-94h256v-188h-256v-887h-250v887h-150z " glyph-name="f.calt_f.calt.liga" horiz-adv-x="1521"/><glyph d="M451 1149v-74h454v86q0 31 2 47q-231 45 -334 45q-122 0 -122 -104zM51 887v188h148v66q0 332 323 332q188 0 443 -76q72 96 223 96t354 -80l-88 -182q-156 43 -201 43t-69 -22t-25 -83v-94h273v-188h-273v-887h-254v887h-454v-887h-252v887h-148z" glyph-name="f_f.ss01" horiz-adv-x="1470"/><glyph d="M905 1161q0 31 2 47q-231 45 -334 45q-123 0 -122 -104v-74h454v86zM2165 891q-166 0 -297 -148v-413q131 -147 297 -148q111 0 169 92t58 262t-58 263q-58 92 -169 92zM51 887v188h148v66q0 332 323 332q195 0 451 -78q80 98 246 98t395 -59v59h254v-543 q172 148 362 148t305 -142t115 -418t-115 -418t-304 -142t-363 145v-123h-254v1227q-215 47 -335 47t-120 -105v-94h273v-188h-273v-887h-254v887h-454v-887h-252v887h-148z" glyph-name="f_f_b.ss01" horiz-adv-x="2738"/><glyph d="M905 1161q0 31 2 47q-231 45 -334 45q-123 0 -122 -104v-74h454v86zM51 887v188h148v66q0 332 323 332q195 0 451 -78q80 98 246 98t395 -59v59h254v-553q223 158 426 158q313 0 313 -336v-762h-252v707q0 190 -155 190q-82 0 -176 -47t-156 -102v-748h-254v1227 q-215 47 -335 47t-120 -105v-94h273v-188h-273v-887h-254v887h-454v-887h-252v887h-148z" glyph-name="f_f_h.ss01" horiz-adv-x="2740"/><glyph d="M905 1161q0 31 2 47q-231 45 -334 45q-123 0 -122 -104v-74h454v86zM51 887v188h148v66q0 332 323 332q197 0 453 -78q83 98 273 98t460 -80l-86 -184q-233 45 -332 45q-131 0 -131 -105v-94h647v-1075h-252v887h-395v-887h-254v887h-454v-887h-252v887h-148z" glyph-name="f_f_i.ss01" horiz-adv-x="1945"/><glyph d="M907 1161q0 31 2 47q-231 45 -334 45q-123 0 -122 -104v-74h454v86zM53 887v188h148v66q0 332 323 332q197 0 453 -78q83 98 273 98t460 -80l-86 -184q-233 45 -332 45q-131 0 -131 -105v-94h647v-1071q0 -209 -31 -259q-50 -80 -106 -106q-127 -59 -270 -92l-84 185 q94 31 139 50t70 52q26 32 28 58t2 96v899h-395v-887h-254v887h-454v-887h-252v887h-148z" glyph-name="f_f_j.ss01" horiz-adv-x="1945"/><glyph d="M905 1161q0 31 2 47q-231 45 -334 45q-123 0 -122 -104v-74h454v86zM51 887v188h148v66q0 332 323 332q195 0 451 -78q80 98 246 98t395 -59v59h254v-901l383 483h289l-365 -432l428 -643h-268l-312 465l-155 -186v-279h-254v1227q-215 47 -335 47t-120 -105v-94h273 v-188h-273v-887h-254v887h-454v-887h-252v887h-148z" glyph-name="f_f_k.ss01" horiz-adv-x="2613"/><glyph d="M51 887v188h150v86q0 332 282 332q115 0 281 -63l-64 -187q-104 31 -151 31t-73 -22t-25 -83v-94h276v-188h-276v-887h-250v887h-150z" glyph-name="f.calt" horiz-adv-x="763"/><glyph d="M905 1161q0 31 2 47q-231 45 -334 45q-123 0 -122 -104v-74h454v86zM51 887v188h148v66q0 332 323 332q195 0 451 -78q80 98 246 98t395 -59v59h254v-1493h-254v1227q-215 47 -335 47t-120 -105v-94h273v-188h-273v-887h-254v887h-454v-887h-252v887h-148z" glyph-name="f_f_l.ss01" horiz-adv-x="2021"/><glyph d="M903 1161q0 33 2 47q-231 45 -332 45q-123 0 -122 -104v-74h452v86zM1849 303q0 -106 95 -104q51 0 182 49l90 -189q-188 -82 -330 -82q-289 0 -289 332v578h-440v-887h-254v887h-452v-887h-252v887h-148v188h148v66q0 332 323 332q170 0 443 -74q74 94 223 94t352 -80 l-88 -182q-156 43 -201 43t-69 -22t-25 -83v-94h440v271l252 40v-311h293v-188h-293v-584z" glyph-name="f_f_t.ss01" horiz-adv-x="2230"/><glyph d="M51 887v188h148v86q0 332 323 332q156 0 385 -59v59h254v-553q223 158 426 158q313 0 314 -336v-762h-252v707q0 190 -156 190q-82 0 -176 -47t-156 -102v-748h-254v1227q-215 47 -336 47t-120 -105v-94h274v-188h-274v-887h-252v887h-148z" glyph-name="f_h.ss01" horiz-adv-x="2033"/><glyph d="M317 1649l-53 -584h-108l-56 584h217zM117 788v187h186v-187h-186z" glyph-name="exclam.ordn" horiz-adv-x="421"/><glyph d="M51 887v188h148v86q0 332 333 332q199 0 469 -80l-86 -184q-233 45 -331 45q-133 0 -133 -105v-94h649v-1075h-252v887h-397v-887h-252v887h-148z" glyph-name="f_i.ss01" horiz-adv-x="1239"/><glyph d="M53 887v188h148v86q0 332 334 332q199 0 469 -80l-86 -184q-233 45 -332 45q-133 0 -133 -105v-94h649v-1071q0 -211 -32 -259q-50 -80 -106 -106q-128 -60 -270 -92l-84 185q94 31 140 50t70 52q24 32 27 58t3 96v899h-397v-887h-252v887h-148z" glyph-name="f_j.ss01" horiz-adv-x="1239"/><glyph d="M51 887v188h148v86q0 332 323 332q156 0 385 -59v59h254v-901l383 483h289l-365 -430l428 -645h-268l-311 465l-156 -182v-283h-254v1227q-215 47 -336 47t-120 -105v-94h274v-188h-274v-887h-252v887h-148z" glyph-name="f_k.ss01" horiz-adv-x="1904"/><glyph d="M315 553l-53 -584h-108l-56 584h217zM115 -307v186h186v-186h-186z" glyph-name="exclam.sinf" horiz-adv-x="417"/><glyph d="M51 887v188h148v86q0 332 323 332q156 0 385 -59v59h254v-1493h-254v1227q-215 47 -336 47t-120 -105v-94h274v-188h-274v-887h-252v887h-148z" glyph-name="f_l.ss01" horiz-adv-x="1314"/><glyph d="M51 887v188h148v86q0 332 288 332q145 0 349 -80l-88 -182q-156 43 -201 43t-71 -22t-25 -83v-94h440v271l254 40v-311h293v-188h-293v-584q1 -61 25 -83t72 -22t179 50l90 -189q-188 -82 -329 -82q-291 0 -291 332v578h-440v-887h-252v887h-148z" glyph-name="f_t.ss01" horiz-adv-x="1525"/><glyph d="M49 207v131h92v33q0 217 193 217q104 0 229 -51l-61 -127q-98 27 -123 26q-55 0 -55 -61v-37h168v-131h-168v-514h-183v514h-92z" glyph-name="f.sinf" horiz-adv-x="524"/><glyph d="M264 1370l53 -582h-217l56 582h108zM117 1462v187h186v-187h-186z" glyph-name="exclamdown.ordn" horiz-adv-x="419"/><glyph d="M709 860v-153h-406l-12 -166q66 20 135 20q152 0 237 -82q85 -83 85 -203t-90 -205t-258 -85q-169 0 -341 106l84 133q123 -82 217 -82t145 37q50 36 50 96t-44 99t-128 39t-178 -49l-105 63l50 432h559z" glyph-name="five.dnom" horiz-adv-x="821"/><glyph d="M709 1434v-154h-406l-12 -166q66 20 135 21q152 0 237 -82t85 -203t-90 -206t-258 -85q-169 0 -341 107l84 133q123 -82 217 -82t145 37q50 37 50 96t-44 98t-128 39t-178 -49l-105 63l50 433h559z" glyph-name="five.frac" horiz-adv-x="821"/><glyph d="M1065 1176v-222h-643l-23 -323q104 39 224 39q233 0 366 -135t133 -335t-139 -340t-399 -140t-518 165l116 193q199 -133 373 -133q125 1 212 71t87 182t-77 184t-213 73q-136 0 -290 -82l-145 86l78 717h858z" glyph-name="five.oldstyle" horiz-adv-x="1206"/><glyph d="M1139 1434v-222h-643l-23 -321q106 37 223 37q234 0 366 -135t132 -335t-138 -340t-399 -140t-520 165l117 193q201 -133 373 -133q127 1 214 71t87 180t-77 185q-77 74 -211 74t-294 -82l-143 86l78 717h858z" glyph-name="five.tnum" horiz-adv-x="1351"/><glyph d="M262 274l53 -581h-217l56 581h108zM115 367v186h186v-186h-186z" glyph-name="exclamdown.sinf" horiz-adv-x="417"/><glyph d="M1202 524q0 -59 119 -94q123 37 123 94q0 33 -33 59q-33 25 -86 25t-88 -26t-35 -58zM1485 193q0 37 -27 63q-26 26 -56 41q-30 14 -79 33q-162 -59 -162 -131q0 -43 46 -70t117 -27t116 27t45 64zM1219 1176l-590 -1176h-162l592 1176h160zM637 1176v-125h-354l-13 -140 q63 18 121 19q131 0 204 -67t73 -166t-77 -169t-216 -70t-293 87l68 106q98 -66 204 -65q68 0 114 30t46 80q0 49 -42 82t-113 33t-158 -39l-84 49l43 355h477zM1006 188q0 125 178 195q-129 66 -129 152t73 134q74 48 196 48t195 -48t72 -126q0 -98 -127 -160 q176 -74 176 -195q0 -92 -86 -146t-230 -54t-231 54t-87 146z" glyph-name="fiveeighths.aalt" horiz-adv-x="1722"/><glyph d="M344 797l72 -797h-285l70 797h143zM150 924v252h245v-252h-245z" glyph-name="exclamdown.sc" horiz-adv-x="546"/><glyph d="M1496 416q-70 0 -118 -26t-71 -58q2 -98 52 -148t128 -49q78 0 120 43q42 42 42 100t-42 98q-41 40 -111 40zM1407 1434l-676 -1434h-199l676 1434h199zM731 1434v-154h-405l-13 -166q66 20 136 21q151 0 235 -82t84 -203t-89 -206t-257 -85t-340 107l82 133 q123 -82 237 -82q74 0 125 37q52 37 52 96t-46 98t-127 39q-82 0 -180 -49l-102 63l49 433h559zM1645 723q-115 0 -201 -60t-121 -182q86 72 218 72t213 -76q81 -75 81 -197t-94 -208t-263 -86t-264 108q-94 109 -94 273q0 219 146 363t376 144q74 0 134 -14l-41 -145 q-41 8 -90 8z" glyph-name="glyph477" horiz-adv-x="1923"/><glyph d="M1292 342q-111 0 -164 -68q2 -80 46 -122t116 -43q70 -1 109 35t39 83t-38 81t-108 34zM1219 1176l-590 -1176h-162l592 1176h160zM637 1176v-125h-354l-13 -140q63 18 121 19q131 0 204 -67t73 -166t-77 -169t-216 -70t-293 87l68 106q98 -66 204 -65q68 0 114 30t46 80 q0 49 -42 82t-113 33t-158 -39l-84 49l43 355h477zM1423 596q-100 0 -176 -51t-104 -152q73 59 189 59t186 -60q70 -62 70 -162t-81 -172q-79 -70 -225 -70t-226 89t-81 222q0 180 125 299t321 119q75 0 117 -12l-35 -115q-37 6 -80 6z" glyph-name="glyph478" horiz-adv-x="1675"/><glyph d="M414 1176l-72 -799h-141l-72 799h285zM147 0v252h246v-252h-246z" glyph-name="exclam.sc" horiz-adv-x="544"/><glyph d="M395 223q-129 0 -151 -151h293q-1 151 -142 151zM396 352q154 0 236 -79q81 -79 81 -207l-11 -89h-458q16 -166 153 -165q94 0 250 77l70 -110q-185 -101 -331 -101t-236 85t-90 247t90 252q92 90 246 90z" glyph-name="e.sinf" horiz-adv-x="778"/><glyph d="M449 1078q0 -75 62 -124t163 -88q63 24 106 48t81 68t38 108t-62 116q-61 54 -161 54t-164 -54t-63 -128zM977 395q0 96 -82 162t-221 121q-139 -55 -221 -121t-82 -162t86 -155q86 -60 217 -60t217 60t86 155zM104 379q0 252 328 399q-240 127 -239 328q0 158 130 254 t351 96t352 -96t131 -254q0 -201 -244 -328q332 -147 332 -399q1 -186 -155 -294t-416 -108t-415 108t-155 294z" glyph-name="eight.tnum" horiz-adv-x="1351"/><glyph d="M522 317v396l-280 -396h280zM47 166v129l414 565h248v-543h137v-151h-137v-166h-187v166h-475z" glyph-name="four.dnom" horiz-adv-x="901"/><glyph d="M522 891v395l-280 -395h280zM47 739v129l414 566h248v-543h137v-152h-137v-166h-187v166h-475z" glyph-name="four.frac" horiz-adv-x="901"/><glyph d="M799 252v700l-475 -700h475zM51 31v188l666 957h346v-924h217v-221h-217v-289h-264v289h-748z" glyph-name="four.oldstyle" horiz-adv-x="1341"/><glyph d="M807 510v707l-479 -707h479zM66 289v188l665 957h334v-924h207v-221h-207v-289h-258v289h-741z" glyph-name="four.tnum" horiz-adv-x="1351"/><glyph d="M539 891v395l-281 -395h281zM1522 1434l-678 -1434h-199l678 1434h199zM1956 860v-153h-408l-12 -166q68 20 137 20q152 0 236 -82q84 -83 84 -203t-89 -205t-260 -85t-337 106l82 133q129 -82 220 -82t142 37q51 36 51 96t-45 99t-129 39t-178 -49l-102 63l47 432h561z M63 739v129l414 566h248v-543h137v-152h-137v-166h-186v166h-476z" glyph-name="glyph486" horiz-adv-x="2088"/><glyph d="M481 729v334l-250 -334h250zM1319 1176l-590 -1176h-162l590 1176h162zM1692 705v-123h-355l-12 -142q66 18 123 19q131 0 204 -67q72 -67 72 -165t-76 -169q-76 -70 -217 -70q-140 0 -294 86l67 108q102 -68 188 -68t131 32q46 30 46 79t-41 82t-116 33t-157 -39l-84 49 l43 355h478zM68 606v105l362 465h201v-447h119v-123h-119v-135h-150v135h-413z" glyph-name="glyph487" horiz-adv-x="1818"/><glyph d="M434 1081q0 -131 225 -215q63 24 107 48t81 68q38 44 38 108q1 64 -63 116q-64 54 -164 54t-162 -54t-62 -125zM963 396q0 97 -82 162t-224 120q-139 -55 -220 -121t-81 -162t85 -155q85 -60 217 -60t218 60t87 156zM88 379q0 145 90 239t240 160q-242 127 -242 328 q0 158 130 254t352 96t352 -96t131 -254q0 -201 -242 -328q150 -66 240 -160t90 -239q0 -186 -156 -294t-416 -108q-261 0 -415 108t-154 294z" glyph-name="eight.oldstyle" horiz-adv-x="1316"/><glyph d="M305 645q0 -72 129 -119q133 47 133 119q0 35 -37 64t-95 29t-94 -28t-36 -65zM614 244q0 51 -47 87t-133 68q-84 -35 -131 -69t-47 -86q0 -51 51 -84t129 -33t128 33t50 84zM68 229q0 150 200 238q-145 78 -145 195q0 96 84 154t229 58q146 0 230 -58t84 -154 q0 -115 -148 -195q203 -90 203 -238q0 -113 -99 -179q-100 -66 -270 -64q-170 0 -269 65t-99 178z" glyph-name="eight.dnom" horiz-adv-x="874"/><glyph d="M375 870q0 -44 35 -72t106 -53v242q-141 -19 -141 -117zM844 309q0 82 -156 135v-258q70 8 113 39t43 84zM688 -168h-172v160q-227 31 -424 145l111 174q137 -78 313 -112v299l-63 22q-243 82 -303 205q-29 57 -29 131q0 144 106 236t289 100v154h172v-162 q193 -27 369 -111l-111 -176q-133 57 -258 80v-283l55 -18q257 -89 323 -211q32 -59 32 -137q0 -146 -112 -240t-298 -104v-152z" glyph-name="dollar.oldstyle" horiz-adv-x="1189"/><glyph d="M92 236v153h129v1045h975v-226h-711v-383h564v-219h-564v-217h369v-153h-369v-236h-264v236h-129z" glyph-name="glyph491" horiz-adv-x="1269"/><glyph d="M90 182v140h113v854h862v-207h-616v-281h487v-203h-487v-163h319v-140h-319v-182h-246v182h-113z" glyph-name="glyph492" horiz-adv-x="1140"/><glyph d="M68 -176v104h82v625h630v-156h-442v-198h352v-154h-352v-117h233v-104h-233v-131h-188v131h-82z" glyph-name="glyph493" horiz-adv-x="835"/><glyph d="M70 920v104h82v625h630v-156h-442v-199h352v-153h-352v-117h233v-104h-233v-132h-188v132h-82z" glyph-name="glyph494" horiz-adv-x="837"/><glyph d="M49 1303v131h92v32q0 217 193 217q104 0 229 -51l-61 -127q-98 27 -123 27q-55 0 -55 -62v-36h168v-131h-168v-515h-183v515h-92z" glyph-name="f.ordn" horiz-adv-x="524"/><glyph d="M381 -178q92 0 174 82v221q-84 84 -174 84q-135 1 -135 -193t135 -194zM733 -307h-178v71q-106 -86 -226 -86t-193 86t-73 251t73 251t192 86t227 -88v324h178v-895z" glyph-name="d.sinf" horiz-adv-x="833"/><glyph d="M394 1294q-70 0 -110 -49t-40 -133t41 -135t103 -51t202 63l76 -129q-172 -86 -299 -86t-216 86t-89 250t88 251q90 87 211 87t305 -86l-76 -131q-127 63 -196 63z" glyph-name="c.ordn" horiz-adv-x="712"/><glyph d="M168 588q0 -238 143 -390t397 -153q254 0 399 153q144 152 144 390t-144 390t-398 152q-253 0 -397 -152t-144 -390zM98 588q0 264 163 435t449 171t446 -171t161 -435q0 -264 -161 -435q-160 -171 -446 -171t-449 171t-163 435zM708 297q104 0 222 88l53 -59 q-154 -104 -283 -104t-215 95t-86 269t86 270t215 96t283 -104l-53 -60q-122 90 -224 90t-160 -80q-58 -81 -58 -212t58 -210t162 -79z" glyph-name="copyright.aalt" horiz-adv-x="1415"/><glyph d="M111 788v203h186v-203h-186zM111 1174v202h186v-202h-186z" glyph-name="colon.ordn" horiz-adv-x="407"/><glyph d="M356 1042q12 -4 37 -8l88 357q-12 4 -37 8zM258 1219q0 -76 31 -121l71 297q-102 -33 -102 -176zM76 1219q0 163 88 249t217 86h18l23 95h84l-27 -105q12 -2 37 -10l29 115h84l-35 -140q60 -24 94 -41l-76 -131l-55 25l-78 -318q51 12 133 54l76 -131q-145 -68 -248 -80 l-22 -99h-84l22 95l-37 6l-24 -101h-80l29 123q-168 78 -168 308z" glyph-name="colonmonetary.ordn" horiz-adv-x="753"/><glyph d="M481 567q195 0 287 -77t92 -203v-6l-86 -109q-90 45 -170 45t-80 -49q0 -37 57 -58q32 -12 56 -18q126 -32 190 -83q63 -50 63 -139t-65 -140q-66 -51 -178 -52q-166 0 -315 84l69 125q47 -27 116 -49t112 -22q82 0 82 51q0 34 -60 55q-26 10 -88 28t-105 39 q-42 21 -77 65t-35 118t62 127t174 53q31 0 88 -8q-35 84 -189 84q-115 0 -159 -39t-43 -121v-575h-179v592q0 131 93 207t288 75z" glyph-name="germandbls.sinf" horiz-adv-x="946"/><glyph d="M481 1663q195 0 287 -77t92 -204v-6l-86 -108q-90 45 -170 45t-80 -49q0 -23 14 -33q35 -25 59 -32q25 -7 45 -12q122 -31 185 -82q63 -50 63 -139q0 -88 -65 -140q-66 -52 -178 -52q-166 0 -315 84l69 125q47 -27 116 -49t112 -23q82 0 82 52q0 43 -97 68 q-100 26 -149 50q-49 25 -84 69t-35 118t62 126q62 54 174 54q31 0 88 -8q-35 84 -189 84q-115 0 -159 -39t-43 -121v-576h-179v592q0 131 93 207t288 76z" glyph-name="germandbls.ordn" horiz-adv-x="946"/><glyph d="M381 -178q96 0 174 82v221q-84 84 -174 84q-135 1 -135 -193t135 -194zM555 338h178v-647q0 -135 -71 -198q-72 -62 -225 -62t-343 49l39 145q165 -51 261 -51t128 26t33 83v81q-100 -86 -223 -86t-196 86t-73 251t73 251t192 86t227 -88v74z" glyph-name="g.sinf" horiz-adv-x="833"/><glyph d="M354 -53q18 -6 37 -6l88 354q-12 4 -37 8zM256 123q0 -74 31 -121l71 297q-102 -33 -102 -176zM74 123q0 164 88 250t217 86h18l23 94h84l-27 -104q12 -2 37 -11l29 115h84l-35 -139q20 -8 54 -24t40 -17l-76 -131l-55 24l-78 -317q31 8 133 53l76 -131 q-158 -68 -248 -80l-22 -98h-84l22 96q-12 0 -37 4l-24 -100h-80l29 125q-168 78 -168 305z" glyph-name="colonmonetary.sinf" horiz-adv-x="749"/><glyph d="M485 338q16 -6 54 -10l120 503q-2 2 -53 13zM340 582q0 -106 53 -176l105 434q-74 -20 -116 -86t-42 -172zM522 1049h25l31 127h108l-35 -142l56 -12l36 154h111l-45 -189l131 -57l-96 -172l-82 37l-109 -453q68 16 191 76l96 -172q-193 -94 -336 -113l-33 -133h-110 l31 129q-37 4 -54 8l-32 -137h-109l39 168q-233 106 -234 422q0 223 122 341t298 118z" glyph-name="colonmonetary.oldstyle" horiz-adv-x="1034"/><glyph d="M111 -307v203h186v-203h-186zM111 78v203h186v-203h-186z" glyph-name="colon.sinf" horiz-adv-x="407"/><glyph d="M381 918q96 0 174 81v222q-84 84 -174 84q-135 1 -135 -193t135 -194zM555 1434h178v-648q1 -135 -71 -197q-72 -63 -225 -63t-343 49l39 146q165 -51 261 -51t128 26t33 82v82q-100 -86 -223 -86t-196 86t-73 251t73 251t192 86t227 -88v74z" glyph-name="g.ordn" horiz-adv-x="833"/><glyph d="M242 16q0 -84 41 -135t103 -51t202 64l76 -130q-172 -86 -299 -86t-217 86q-89 86 -89 250t89 251q88 87 210 87t306 -86l-76 -131q-127 63 -196 63q-70 0 -110 -48q-40 -50 -40 -134z" glyph-name="c.sinf" horiz-adv-x="712"/><glyph d="M336 588q0 -96 40 -163t111 -89v502q-71 -22 -111 -88t-40 -162zM657 0h-170v129q-169 12 -279 129t-110 331t112 331t277 127v129h170v-144q109 -23 279 -102l-96 -172q-125 57 -183 73v-487q47 12 183 74l96 -172q-150 -74 -279 -103v-143z" glyph-name="cent.aalt" horiz-adv-x="1030"/><glyph d="M1126 887v188h150v51q0 246 -201 246q-94 0 -152 -59q-59 -59 -59 -149t41 -150q43 -18 109 -51l-107 -187q-37 25 -138 64t-169 41q-116 1 -186 -93t-70 -250t71 -249q71 -94 177 -94t315 104l107 -188q-272 -133 -461 -133t-329 144t-140 416t139 415q139 144 342 145 q86 0 193 -29q-18 45 -19 102q1 145 101 233t284 89q184 0 294 -103q108 -103 108 -286v-29h295v-188h-295v-584q0 -61 26 -83t76 -22q51 0 174 50l90 -189q-188 -82 -329 -82q-287 0 -287 332v578h-150z" glyph-name="c_t.dlig" horiz-adv-x="1906"/><glyph d="M1468 0h-251v1372h-127q-104 0 -164 -56t-62 -150q0 -94 45 -152q20 -10 105 -51l-107 -187q-37 25 -138 64t-169 41q-116 1 -186 -93t-70 -250t71 -249q71 -94 177 -94t315 104l107 -188q-272 -133 -461 -133t-329 144t-140 416t139 415q139 144 342 145q90 0 197 -31 q-23 55 -23 119q-1 141 93 224t260 83h376v-1493z" glyph-name="c_l.dlig" horiz-adv-x="1615"/><glyph d="M1462 0h-252v1372h-120q-104 0 -164 -56t-62 -150q0 -94 45 -152q20 -10 105 -51l-107 -187q-37 25 -138 64t-169 41q-116 1 -186 -93t-70 -250t71 -249q71 -94 177 -94t315 104l107 -188q-272 -133 -461 -133t-329 144t-140 416t139 415q139 144 342 145q90 0 197 -31 q-23 55 -23 119q-1 141 93 224t260 83h370v-905l385 487h287l-362 -430l428 -645h-269l-311 465l-158 -186v-279z" glyph-name="c_k.dlig" horiz-adv-x="2207"/><glyph d="M344 538q0 -156 71 -249q71 -94 177 -94t315 104l107 -188q-272 -133 -461 -133t-329 144t-140 416t139 415q139 144 342 145q90 0 197 -31q-23 55 -23 119q-1 141 93 224t260 83h370v-555q221 160 426 160q317 0 318 -336v-762h-254v707q0 90 -34 140t-120 50t-180 -47 t-156 -102v-748h-252v1372h-120q-104 0 -164 -56t-62 -150q0 -94 45 -152q21 -10 105 -51l-107 -187q-37 25 -138 64t-169 41q-116 1 -186 -93t-70 -250z" glyph-name="c_h.dlig" horiz-adv-x="2336"/><glyph d="M279 588v-328q135 92 266 92q199 0 198 -205v-454h-178v413q0 106 -90 107q-100 0 -196 -82v-438h-179v895h179z" glyph-name="h.sinf" horiz-adv-x="839"/><glyph d="M340 -207h-176v694h176v-694zM340 680h-176v694h176v-694z" glyph-name="brokenbar.aalt" horiz-adv-x="503"/><glyph d="M401 612h-346v105h160v997h-160v105h346v-1207z" glyph-name="bracketright.ordn" horiz-adv-x="518"/><glyph d="M401 -483h-346v104h160v997h-160v105h346v-1206z" glyph-name="bracketright.sinf" horiz-adv-x="518"/><glyph d="M539 -242h-467v142h223v1368h-223v141h467v-1651z" glyph-name="bracketright.sc" horiz-adv-x="700"/><glyph d="M463 612h-346v1207h346v-105h-160v-997h160v-105z" glyph-name="bracketleft.ordn" horiz-adv-x="518"/><glyph d="M463 -483h-346v1206h346v-105h-160v-997h160v-104z" glyph-name="bracketleft.sinf" horiz-adv-x="518"/><glyph d="M629 -242h-467v1651h467v-141h-223v-1368h223v-142z" glyph-name="bracketleft.sc" horiz-adv-x="700"/><glyph d="M520 1272v-113q-139 0 -121 -137l15 -115q35 -295 -332 -295h-25v103h25q170 0 143 176l-12 96q-14 103 28 157t142 70q-98 18 -141 70t-29 158l12 98q27 176 -143 176h-25v103h25q176 0 263 -73t67 -222l-15 -113q-18 -139 123 -139z" glyph-name="braceright.ordn" horiz-adv-x="563"/><glyph d="M520 176v-113q-139 0 -121 -137l15 -114q35 -295 -332 -295h-25v102h25q170 0 143 176l-12 96q-14 103 28 157t142 71q-98 18 -141 70t-29 157l12 98q27 176 -143 177h-25v102h25q176 0 263 -73t67 -222l-15 -113q-18 -139 123 -139z" glyph-name="braceright.sinf" horiz-adv-x="563"/><glyph d="M96 430v156h191v-156h-191zM281 -307h-181v645h181v-645z" glyph-name="i.sinf" horiz-adv-x="380"/><glyph d="M709 659v-149q-199 0 -170 -193l22 -153q29 -201 -91 -302t-361 -102h-35v136h35q131 0 175 70t29 173l-18 135q-20 141 36 213t191 97q-135 24 -191 96t-36 213l18 135q14 104 -29 174q-44 70 -175 70h-35v137h35q243 0 361 -101t89 -302l-20 -156q-29 -191 170 -191z " glyph-name="braceright.sc" horiz-adv-x="774"/><glyph d="M43 1159v113q143 0 125 137l-16 115q-20 147 66 221q87 74 263 74h25v-103h-25q-164 0 -143 -176l14 -98q14 -104 -28 -157q-43 -52 -144 -71q201 -35 172 -227l-14 -96q-20 -176 143 -176h25v-103h-25q-176 0 -264 75t-65 222l16 113q18 137 -125 137z" glyph-name="braceleft.ordn" horiz-adv-x="563"/><glyph d="M43 63v113q143 0 125 137l-16 115q-20 147 66 221q87 74 263 74h25v-102h-25q-164 0 -143 -177l14 -98q14 -104 -28 -157q-43 -52 -144 -70q201 -35 172 -228l-14 -96q-20 -176 143 -176h25v-102h-25q-176 1 -264 75t-65 222l16 112q18 137 -125 137z" glyph-name="braceleft.sinf" horiz-adv-x="563"/><glyph d="M63 510v149q195 0 170 189l-20 158q-27 201 91 302t360 101h32v-137h-32q-236 0 -207 -246l20 -133q18 -139 -39 -212t-190 -97q133 -25 190 -98t39 -212l-20 -135q-31 -244 207 -243h32v-136h-32q-242 0 -360 100t-91 304l23 155q24 191 -173 191z" glyph-name="braceleft.sc" horiz-adv-x="772"/><glyph d="M455 209q-96 0 -176 -84v-221q78 -82 176 -82q133 0 133 194t-133 193zM100 -307v895h179v-324q102 88 225 88q122 0 194 -86t72 -251t-72 -251t-192 -86t-227 86v-71h-179z" glyph-name="b.sinf" horiz-adv-x="833"/><glyph d="M340 -207h-176v1581h176v-1581z" glyph-name="bar.aalt" horiz-adv-x="501"/><glyph d="M641 -152l-586 1479h181l585 -1479h-180z" glyph-name="backslash.aalt" horiz-adv-x="868"/><glyph d="M760 174q109 0 219 100v138q-158 29 -197 28q-78 0 -114 -38t-37 -101q0 -63 36 -95t93 -32zM791 -215q89 0 167 17t111 36l35 19l55 -70q-46 -33 -155 -61q-109 -27 -218 -27q-307 0 -498 205q-192 205 -192 522t201 522t539 205t522 -201t184 -526q0 -207 -81 -341 t-249 -134q-115 0 -168 62t-63 141q-119 -115 -270 -115q-111 1 -183 65t-72 186t76 188q74 66 191 65q72 0 256 -41v73q0 78 -31 110t-129 32t-254 -68l-59 125q209 78 357 78t218 -67t70 -210v-290q0 -74 4 -114t28 -74t70 -34q77 1 139 93t62 274q0 279 -158 457 t-462 178t-476 -181t-172 -460t166 -459t439 -180z" glyph-name="at.aalt" horiz-adv-x="1624"/><glyph d="M242 1169l51 191l-154 -137l-73 129l200 51l-200 55l73 129l154 -141l-51 192h151l-49 -190l150 139l75 -129l-194 -53l194 -55l-75 -127l-148 133l47 -187h-151z" glyph-name="asterisk.ordn" horiz-adv-x="636"/><glyph d="M281 338v-629q0 -150 -35 -187q-16 -17 -56 -46t-184 -60l-57 127q109 35 131 59t20 95v641h181zM94 430v156h191v-156h-191z" glyph-name="j.sinf" horiz-adv-x="378"/><glyph d="M242 74l51 190l-154 -137l-73 129l200 51l-200 55l73 130l154 -142l-51 193h151l-49 -191l150 140l75 -130l-194 -53l194 -55l-75 -127l-148 133l47 -186h-151z" glyph-name="asterisk.sinf" horiz-adv-x="636"/><glyph d="M389 1534q-45 0 -71 -24t-25 -69q0 -44 80 -120q104 68 104 131q1 34 -21 58t-67 24zM242 1012q0 -41 34 -73t111 -32q76 0 156 60l-195 184q-106 -78 -106 -139zM383 774q-147 0 -233 65t-87 165q0 133 185 243q-119 119 -119 211t76 148q77 56 187 57q110 0 180 -56 q70 -57 71 -133q0 -76 -46 -131t-128 -112l168 -158q49 82 55 168h180q-25 -154 -120 -276l186 -177h-207l-80 76q-121 -90 -268 -90z" glyph-name="ampersand.ordn" horiz-adv-x="956"/><glyph d="M293 345q0 -44 80 -120q104 68 104 131q0 33 -21 58q-22 24 -67 24t-71 -24q-25 -25 -25 -69zM386 -188q75 0 157 61l-195 182q-106 -78 -106 -139q0 -41 34 -73q35 -31 110 -31zM129 362q0 92 76 148q77 56 187 57q110 0 180 -56t71 -132q0 -76 -46 -131t-128 -113 l168 -158q49 82 55 168h180q-25 -150 -120 -276l186 -176h-207l-80 76q-125 -91 -270 -91t-231 65t-87 165q0 133 185 244q-119 118 -119 210z" glyph-name="ampersand.sinf" horiz-adv-x="958"/><glyph d="M389 907q0 -76 119 -182q150 94 149 184q0 47 -31 81q-32 34 -98 34t-102 -35t-37 -82zM319 305q-1 -57 49 -102t160 -45t220 86l-273 258q-156 -109 -156 -197zM86 295q0 106 68 183t188 151q-80 75 -123 141t-43 145q0 127 104 203t252 76q150 0 245 -76t95 -180 t-63 -179t-176 -151l239 -225q70 109 82 238h236q-33 -213 -166 -381l256 -240h-274l-115 106q-166 -125 -391 -124q-178 0 -296 87t-118 226z" glyph-name="ampersand.sc" horiz-adv-x="1300"/><glyph d="M279 -307h-179v895h179v-525l227 275h205l-230 -256l267 -389h-189l-188 266l-92 -104v-162z" glyph-name="k.sinf" horiz-adv-x="759"/><glyph d="M279 788h-179v895h179v-524l227 275h205l-230 -256l267 -390h-189l-188 265l-92 -105v-160z" glyph-name="k.ordn" horiz-adv-x="759"/><glyph d="M334 -184q100 0 192 71v93q-102 20 -164 20q-127 0 -126 -96q-2 -88 98 -88zM526 -307v76q-106 -91 -222 -91t-184 58q-67 58 -67 154t70 152t163 56t240 -30v49q0 53 -27 77q-67 57 -343 -26l-58 123q197 61 337 61t205 -56t65 -187v-416h-179z" glyph-name="a.sinf" horiz-adv-x="798"/><glyph d="M94 1493v156h694v-142l-483 -563h490v-156h-729v142l483 563h-455z" glyph-name="Z.ordn" horiz-adv-x="870"/><glyph d="M94 397v156h694v-141l-483 -564h490v-155h-729v141l483 563h-455z" glyph-name="Z.sinf" horiz-adv-x="868"/><glyph d="M483 1288v219h213v-219h-213zM115 973v203h952v-199l-684 -774h694v-203h-1001v199l684 774h-645z" glyph-name="zdotaccent.aalt" horiz-adv-x="1161"/><glyph d="M930 1544l-213 -276h-256l-211 276h178l162 -160l162 160h178zM1077 203v-203h-1001v199l684 774h-645v203h952v-199l-684 -774h694z" glyph-name="zcaron.aalt" horiz-adv-x="1161"/><glyph d="M606 1268h-207l252 276h303zM115 973v203h952v-199l-684 -774h694v-203h-1001v199l684 774h-645z" glyph-name="zacute.aalt" horiz-adv-x="1161"/><glyph d="M113 969v207h952v-187l-674 -782h684v-207h-1001v188l674 781h-635z" glyph-name="z.sc" horiz-adv-x="1161"/><glyph d="M281 -307h-181v895h181v-895z" glyph-name="l.sinf" horiz-adv-x="378"/><glyph d="M336 788v338l-328 523h211l209 -375l209 375h211l-328 -523l2 -338h-186z" glyph-name="Y.ordn" horiz-adv-x="856"/><glyph d="M131 555v115h98q-80 127 -79 231q0 135 99 214t285 79t433 -141l-107 -158q-186 96 -282 96t-140 -36q-43 -36 -43 -82q-1 -46 9 -66q43 -91 83 -137h342v-115h-286q10 -37 14 -84h272v-115h-294q-39 -96 -117 -153h530v-203h-837v164q54 20 114 78q61 57 84 114h-178 v115h193q-6 45 -25 84h-168z" glyph-name="lira.oldstyle" horiz-adv-x="1056"/><glyph d="M96 98v84h74q-57 88 -57 178t73 149q74 58 205 58t320 -104l-80 -119q-135 70 -203 70t-98 -26q-31 -26 -31 -54q0 -73 66 -152h247v-84h-206q6 -18 10 -59h196v-82h-211q-27 -72 -82 -111h379v-153h-614v125q40 13 84 56q45 42 61 83h-133v82h142q-6 33 -19 59h-123z " glyph-name="lira.sinf" horiz-adv-x="778"/><glyph d="M299 1430q0 -72 66 -152h247v-82h-206q6 -18 10 -61h196v-82h-211q-29 -76 -82 -111h379v-154h-614v125q38 13 84 56t61 84h-133v82h142q-6 31 -19 61h-123v82h74q-57 88 -57 178t73 149q74 58 205 58t320 -104l-80 -119q-216 112 -301 44q-31 -26 -31 -54z" glyph-name="lira.ordn" horiz-adv-x="780"/><glyph d="M336 -307v338l-328 522h211l209 -375l209 375h211l-328 -522l2 -338h-186z" glyph-name="Y.sinf" horiz-adv-x="854"/><glyph d="M803 1268h-211l-346 276h301zM479 0v463l-452 713h276l297 -521l299 521h275l-451 -709v-467h-244z" glyph-name="ygrave.aalt" horiz-adv-x="1202"/><glyph d="M676 1288v219h213v-219h-213zM313 1288v219h215v-219h-215zM479 0v463l-452 713h276l297 -521l299 521h275l-451 -709v-467h-244z" glyph-name="ydieresis.aalt" horiz-adv-x="1202"/><glyph d="M618 1268h-208l252 276h305zM479 0v463l-452 713h276l297 -521l299 521h275l-451 -709v-467h-244z" glyph-name="yacute.aalt" horiz-adv-x="1202"/><glyph d="M479 0v463l-452 713h276l297 -521l299 521h275l-451 -709v-467h-244z" glyph-name="y.sc" horiz-adv-x="1202"/><glyph d="M41 1649h215l184 -324l187 324h215l-289 -428l305 -433h-223l-195 316l-194 -316h-221l303 433z" glyph-name="X.ordn" horiz-adv-x="880"/><glyph d="M41 553h215l184 -324l187 324h215l-289 -428l305 -432h-223l-195 315l-194 -315h-221l303 432z" glyph-name="X.sinf" horiz-adv-x="880"/><glyph d="M279 338v-84q113 98 245 98t174 -110q121 111 248 110q199 0 199 -205v-454h-180v413q0 106 -83 106t-169 -85v-434h-181v413q0 106 -84 106t-169 -85v-434h-179v645h179z" glyph-name="m.sinf" horiz-adv-x="1239"/><glyph d="M49 1176h281l262 -451l264 451h283l-402 -586l424 -590h-293l-274 436l-277 -436h-290l419 592z" glyph-name="x.sc" horiz-adv-x="1187"/><glyph d="M797 788l-166 607l-164 -607h-184l-252 861h211l147 -623l168 623h152l165 -625l148 625h213l-252 -861h-186z" glyph-name="W.ordn" horiz-adv-x="1265"/><glyph d="M795 -307l-166 606l-164 -606h-184l-252 860h211l147 -621l168 621h152l165 -623l148 623h213l-252 -860h-186z" glyph-name="W.sinf" horiz-adv-x="1263"/><glyph d="M1071 1268h-209l-348 276h301zM1110 0l-233 852l-232 -852h-246l-348 1176h279l213 -879l233 879h201l233 -879l215 879h277l-346 -1176h-246z" glyph-name="wgrave.aalt" horiz-adv-x="1751"/><glyph d="M952 1288v219h211v-219h-211zM596 1288v219h215v-219h-215zM1110 0l-233 852l-232 -852h-246l-348 1176h279l213 -879l233 879h201l233 -879l215 879h277l-346 -1176h-246z" glyph-name="wdieresis.aalt" horiz-adv-x="1751"/><glyph d="M1006 1544l213 -276h-179l-161 159l-164 -159h-178l211 276h258zM1110 0l-233 852l-232 -852h-246l-348 1176h279l213 -879l233 879h201l233 -879l215 879h277l-346 -1176h-246z" glyph-name="wcircumflex.aalt" horiz-adv-x="1751"/><glyph d="M893 1268h-209l254 276h303zM1110 0l-233 852l-232 -852h-246l-348 1176h279l213 -879l233 879h201l233 -879l215 879h277l-346 -1176h-246z" glyph-name="wacute.aalt" horiz-adv-x="1751"/><glyph d="M1110 0l-233 852l-232 -852h-246l-348 1176h279l213 -879l233 879h201l233 -879l215 879h277l-346 -1176h-246z" glyph-name="w.sc" horiz-adv-x="1751"/><glyph d="M236 1649l227 -670l227 670h217l-340 -861h-207l-340 861h216z" glyph-name="V.ordn" horiz-adv-x="927"/><glyph d="M233 553l228 -670l227 670h217l-340 -860h-207l-340 860h215z" glyph-name="V.sinf" horiz-adv-x="925"/><glyph d="M250 582q0 -58 41 -98t111 -40t117 26q48 26 71 56q-2 96 -52 146t-127 51q-77 0 -119 -42t-42 -99zM254 135q113 1 198 61t119 179q-88 -70 -218 -70t-210 76q-80 75 -80 197q1 122 95 209t263 87t263 -108t94 -272q0 -220 -145 -364t-379 -144q-75 0 -131 14l43 143 q39 -8 88 -8z" glyph-name="nine.dnom" horiz-adv-x="854"/><glyph d="M402 1018q70 0 117 26q48 26 71 56q-2 96 -52 146t-127 50t-119 -42t-42 -99t41 -97t111 -40zM254 709q113 0 198 60t119 179q-88 -70 -218 -70t-210 76t-80 198q1 122 95 209t263 87t263 -109t94 -272q0 -219 -145 -363t-379 -145q-75 0 -131 14l43 144q39 -8 88 -8z " glyph-name="nine.frac" horiz-adv-x="854"/><glyph d="M336 700q0 -108 70 -184t188 -76t200 49t119 111v4q0 164 -83 264t-217 100q-133 0 -205 -80t-72 -188zM367 -78q178 0 324 110t198 341q-137 -133 -351 -133t-340 127t-126 329t146 344q146 143 388 144q279 0 425 -177t149 -429q2 -401 -230 -637t-579 -236 q-83 0 -183 16l-24 7l63 209q62 -15 140 -15z" glyph-name="nine.oldstyle" horiz-adv-x="1269"/><glyph d="M630 711q118 0 201 49q82 49 119 110v7q0 162 -83 262t-217 100t-206 -81q-72 -80 -72 -188t70 -184q70 -75 188 -75zM403 193q178 0 325 109q146 110 198 341q-142 -131 -354 -131t-338 127t-126 329t147 345q146 143 388 143q279 0 425 -178t149 -428q1 -401 -231 -637 t-578 -236q-112 0 -183 17l-24 6l63 207q61 -14 139 -14z" glyph-name="nine.tnum" horiz-adv-x="1351"/><glyph d="M319 1176l324 -928l326 928h282l-473 -1176h-268l-471 1176h280z" glyph-name="v.sc" horiz-adv-x="1290"/><glyph d="M1155 1176v-705q0 -229 -112 -359q-111 -130 -395 -130t-396 130t-113 359v705h244v-723q0 -125 56 -194t208 -69t208 69t56 194v723h244zM508 1538q55 0 149 -49t123 -49q51 0 105 94l119 -57q-46 -99 -94 -149t-114 -50t-161 49q-94 49 -123 49q-51 0 -104 -94l-119 55 q35 68 56 103q22 34 65 66t98 32z" glyph-name="utilde.aalt" horiz-adv-x="1296"/><glyph d="M279 338v-78q135 92 266 92q199 0 198 -205v-454h-178v413q0 106 -90 107q-100 0 -196 -82v-438h-179v645h179z" glyph-name="n.sinf" horiz-adv-x="839"/><glyph d="M854 1649v-512q0 -171 -81 -267t-290 -96t-292 96t-82 267v512h186v-529q0 -90 40 -139t146 -49t147 50q40 50 40 138v529h186z" glyph-name="U.ordn" horiz-adv-x="964"/><glyph d="M1155 1176v-705q0 -229 -112 -359q-111 -130 -395 -130t-396 130t-113 359v705h244v-723q0 -125 56 -194t208 -69t208 69t56 194v723h244zM549 1470q0 -40 28 -68q29 -28 69 -28t69 28t29 68t-29 69q-29 28 -69 28t-68 -28t-29 -69zM646 1247q-92 1 -158 65t-66 157 t65 159q66 66 159 66t159 -66q65 -66 65 -159t-66 -157t-158 -65z" glyph-name="uring.aalt" horiz-adv-x="1296"/><glyph d="M637 -195q0 -71 105 -71h53l-27 -123q-174 0 -240 44t-65 126q0 111 166 201q-274 6 -382 135t-108 354v705h244v-723q0 -125 57 -194t209 -69t208 69t56 194v723h244v-705q0 -186 -73 -308t-253 -163q-59 -35 -89 -54q-30 -20 -68 -62t-37 -79z" glyph-name="uogonek.aalt" horiz-adv-x="1296"/><glyph d="M336 1319v154h620v-154h-620zM1155 1176v-705q0 -229 -112 -359q-111 -130 -395 -130t-396 130t-113 359v705h244v-723q0 -125 56 -194t208 -69t208 69t56 194v723h244z" glyph-name="umacron.aalt" horiz-adv-x="1296"/><glyph d="M559 729l-47 -285h279l47 285h-279zM86 268v176h242l47 285h-213v178h241l46 269h184l-45 -269h278l45 269h183l-45 -269h215v-178h-244l-47 -285h215v-176h-244l-43 -268h-182l43 268h-281l-43 -268h-182l43 268h-213z" glyph-name="numbersign.oldstyle" horiz-adv-x="1351"/><glyph d="M408 223l-33 -203h194l33 203h-194zM63 -115v135h173l32 203h-151v135h174l33 195h137l-31 -195h195l32 195h140l-33 -195h154v-135h-177l-32 -203h153v-135h-174l-31 -192h-139l31 192h-195l-30 -192h-140l31 192h-152z" glyph-name="numbersign.sinf" horiz-adv-x="983"/><glyph d="M408 1319l-33 -203h194l33 203h-194zM63 981v135h173l32 203h-151v135h174l33 195h137l-31 -195h195l32 195h140l-33 -195h154v-135h-177l-32 -203h153v-135h-174l-31 -193h-139l31 193h-195l-30 -193h-140l31 193h-152z" glyph-name="numbersign.ordn" horiz-adv-x="983"/><glyph d="M854 553v-512q0 -170 -81 -266q-81 -97 -290 -97t-292 96t-82 267v512h186v-528q0 -89 40 -139t146 -50t147 50q40 50 40 139v528h186z" glyph-name="U.sinf" horiz-adv-x="964"/><glyph d="M516 1268h-156l166 276h246zM860 1268h-153l163 276h246zM1155 1176v-705q0 -229 -112 -359q-111 -130 -395 -130t-396 130t-113 359v705h244v-723q0 -125 56 -194t208 -69t208 69t56 194v723h244z" glyph-name="uhungarumlaut.aalt" horiz-adv-x="1296"/><glyph d="M840 1268h-207l-348 276h301zM1155 1176v-705q0 -229 -112 -359q-111 -130 -395 -130t-396 130t-113 359v705h244v-723q0 -125 56 -194t208 -69t208 69t56 194v723h244z" glyph-name="ugrave.aalt" horiz-adv-x="1296"/><glyph d="M723 1288v219h211v-219h-211zM360 1288v219h213v-219h-213zM1155 1176v-705q0 -229 -112 -359q-111 -130 -395 -130t-396 130t-113 359v705h244v-723q0 -125 56 -194t208 -69t208 69t56 194v723h244z" glyph-name="udieresis.aalt" horiz-adv-x="1296"/><glyph d="M776 1544l213 -276h-180l-164 159l-160 -159h-180l213 276h258zM1155 1176v-705q0 -229 -112 -359q-111 -130 -395 -130t-396 130t-113 359v705h244v-723q0 -125 56 -194t208 -69t208 69t56 194v723h244z" glyph-name="ucircumflex.aalt" horiz-adv-x="1296"/><glyph d="M1155 1176v-705q0 -229 -112 -359q-111 -130 -395 -130t-396 130t-113 359v705h244v-723q0 -125 56 -194t208 -69t208 69t56 194v723h244zM646 1268q-152 0 -236 64t-84 175h161q0 -96 159 -96t159 96h164q0 -111 -85 -175t-238 -64z" glyph-name="ubreve.aalt" horiz-adv-x="1296"/><glyph d="M664 1268h-209l254 276h303zM1155 1176v-705q0 -229 -112 -359q-111 -130 -395 -130t-396 130t-113 359v705h244v-723q0 -125 56 -194t208 -69t208 69t56 194v723h244z" glyph-name="uacute.aalt" horiz-adv-x="1296"/><glyph d="M1155 1176v-705q0 -229 -112 -359q-111 -130 -395 -130t-396 130t-113 359v705h244v-723q0 -125 56 -194t208 -69t208 69t56 194v723h244z" glyph-name="u.sc" horiz-adv-x="1296"/><glyph d="M764 1493h-268v-705h-187v705h-268v156h723v-156z" glyph-name="T.ordn" horiz-adv-x="804"/><glyph d="M573 14q-1 199 -167 199t-166 -199t166 -198q167 -1 167 198zM754 14q0 -160 -90 -248t-257 -88t-257 88t-90 250q0 160 88 248q90 88 258 88t258 -89t90 -249z" glyph-name="o.sinf" horiz-adv-x="815"/><glyph d="M764 397h-268v-704h-187v704h-268v156h723v-156z" glyph-name="T.sinf" horiz-adv-x="804"/><glyph d="M899 608q0 98 -72 136t-213 38h-217v-352h217q141 0 213 40t72 138zM653 985q494 0 494 -378t-494 -378h-256v-229h-243v1176h243v-191h256z" glyph-name="thorn.aalt" horiz-adv-x="1224"/><glyph d="M444 0h-186v688l-158 -80l-75 121l243 131h176v-860z" glyph-name="one.dnom" horiz-adv-x="565"/><glyph d="M444 573h-186v689l-158 -80l-75 121l243 131h176v-861z" glyph-name="one.frac" horiz-adv-x="565"/><glyph d="M651 0h-262v926l-252 -133l-106 174l375 209h245v-1176z" glyph-name="one.oldstyle" horiz-adv-x="811"/><glyph d="M150 0v219h419v965l-315 -164l-104 174l438 240h243v-1215h422v-219h-1103z" glyph-name="one.tnum" horiz-adv-x="1351"/><glyph d="M418 0v969h-373v207h989v-207h-370v-969h-62q80 -100 80 -188t-64 -134t-161 -47q-98 0 -174 41l53 133q55 -27 100 -26q104 0 105 82q0 63 -58 139h-65z" glyph-name="tcommaaccent.aalt" horiz-adv-x="1079"/><glyph d="M1049 524q0 -59 116 -94q121 35 121 94q0 33 -33 59q-33 25 -86 25t-86 -25q-32 -26 -32 -59zM1331 193q1 37 -27 63t-58 41q-30 14 -79 33q-162 -59 -161 -131q0 -43 46 -70t116 -27t117 27q46 27 46 64zM408 471h-152v565l-135 -63l-64 96l207 107h144v-705zM1065 1176 l-590 -1176h-164l590 1176h164zM852 188q0 127 176 195q-129 66 -129 152t73 134q72 48 196 48t196 -48t72 -126q0 -96 -129 -160q178 -70 178 -195q0 -92 -86 -146q-85 -54 -231 -54t-231 54t-85 146z" glyph-name="oneeighth.aalt" horiz-adv-x="1568"/><glyph d="M473 573h-186v689l-156 -80l-76 121l242 131h176v-861zM1231 1434l-678 -1434h-199l678 1434h199zM1665 860v-153h-405l-13 -166q66 20 135 20q152 0 237 -82q85 -83 85 -203t-89 -205t-258 -85t-341 106l84 133q123 -82 217 -82t144 37q50 36 50 96t-44 99t-128 39 t-178 -49l-104 63l49 432h559z" glyph-name="glyph603" horiz-adv-x="1804"/><glyph d="M408 471h-152v565l-135 -63l-64 96l207 107h144v-705zM1065 1176l-590 -1176h-164l590 1176h164zM1438 705v-123h-355l-12 -142q63 18 121 19q131 0 204 -67q72 -67 72 -165t-76 -169q-76 -70 -218 -70q-143 0 -291 86l67 108q102 -68 186 -68t132 32q47 30 47 79t-41 82 t-119 33t-156 -39l-81 49l40 355h480z" glyph-name="glyph604" horiz-adv-x="1568"/><glyph d="M881 1544l-213 -276h-258l-211 276h178l162 -160l163 160h179zM1034 969h-370v-969h-246v969h-373v207h989v-207z" glyph-name="tcaron.aalt" horiz-adv-x="1079"/><glyph d="M1464 123v-123h-577v68q0 98 63 161t213 152q23 12 31 17q8 6 26 16t26 16q6 6 20 15t19 17t15 19q10 12 9 40q0 29 -33 51t-90 22q-102 0 -211 -66l-70 95q154 94 287 94t202 -55q68 -55 68 -147t-89 -158q-59 -45 -150 -92q-91 -48 -125 -77t-33 -65h399zM1065 1176 l-590 -1176h-164l590 1176h164zM408 471h-152v565l-135 -63l-64 96l207 107h144v-705z" glyph-name="onehalf.aalt" horiz-adv-x="1564"/><glyph d="M252 358v140h174v471h-373v207h989v-207h-370v-471h174v-140h-174v-358h-246v358h-174z" glyph-name="tbar.aalt" horiz-adv-x="1095"/><glyph d="M1034 969h-370v-969h-246v969h-373v207h989v-207z" glyph-name="t.sc" horiz-adv-x="1079"/><glyph d="M1184 260v330l-248 -330h248zM408 471h-152v565l-135 -63l-64 96l207 107h144v-705zM1065 1176l-590 -1176h-164l590 1176h164zM1184 0v137h-412v103l363 465h200v-445h119v-123h-119v-137h-151z" glyph-name="onequarter.aalt" horiz-adv-x="1536"/><glyph d="M1320 416q-70 0 -118 -26t-69 -58q2 -98 52 -148t127 -49q77 0 120 43q43 42 43 100t-43 98q-42 40 -112 40zM473 573h-186v689l-156 -80l-76 121l242 131h176v-861zM1231 1434l-678 -1434h-199l678 1434h199zM1468 723q-112 0 -198 -60t-121 -182q86 72 217 72t212 -76 q81 -77 81 -197t-94 -207t-263 -87t-264 108q-94 109 -94 273q0 219 146 363t376 144q76 0 136 -14l-43 -145q-42 8 -91 8z" glyph-name="glyph610" horiz-adv-x="1753"/><glyph d="M1280 227q0 47 -38 81t-100 34q-64 0 -108 -23t-63 -49q2 -78 47 -120t116 -41q70 -1 108 35t38 83zM408 471h-152v565l-135 -63l-64 96l207 107h144v-705zM1065 1176l-590 -1176h-164l590 1176h164zM1268 596q-100 0 -177 -51t-106 -152q74 59 191 59q116 0 186 -60 q70 -62 70 -162t-81 -172q-81 -70 -225 -70t-226 89q-81 89 -81 222q0 180 125 299t322 119q74 0 116 -12l-34 -115q-37 6 -80 6z" glyph-name="glyph611" horiz-adv-x="1523"/><glyph d="M801 1032q0 -118 -90 -188t-238 -70q-219 0 -410 117l84 131q174 -94 318 -94q59 0 100 22t41 57q0 34 -13 51q-13 18 -44 32t-60 23t-81 25t-86 27q-238 80 -238 244q0 113 86 183t252 71q166 0 348 -90l-84 -133q-152 70 -272 69q-59 0 -99 -21q-39 -22 -39 -55t14 -51 q21 -27 158 -67q137 -41 180 -61q116 -57 150 -124q23 -43 23 -98z" glyph-name="S.ordn" horiz-adv-x="866"/><glyph d="M801 -63q0 -117 -90 -188t-238 -71q-219 0 -410 117l84 131q174 -94 318 -94q59 0 100 23t41 57t-13 50q-13 18 -44 32t-60 23t-81 25t-86 28q-238 80 -238 243q0 113 86 184t252 71t348 -91l-84 -133q-152 70 -272 70q-58 0 -98 -22t-40 -54t15 -53q15 -20 69 -37 q54 -18 103 -33q125 -38 171 -60q109 -51 144 -120q23 -43 23 -98z" glyph-name="S.sinf" horiz-adv-x="866"/><glyph d="M1163 113q66 -1 108 25t42 69q0 106 -230 106h-32v125h41q188 0 188 86q0 70 -115 70q-84 0 -202 -59l-64 92q123 90 289 90q119 0 181 -49t63 -121q0 -111 -138 -158q76 -18 124 -68t48 -128t-71 -142q-71 -63 -215 -63t-316 86l68 102q117 -63 231 -63zM1065 1176 l-590 -1176h-164l590 1176h164zM408 471h-152v565l-135 -63l-64 96l207 107h144v-705z" glyph-name="onethird.aalt" horiz-adv-x="1556"/><glyph d="M623 -18q-145 0 -296 47t-257 108l108 176q92 -51 218 -91t216 -40t150 33q59 33 59 97t-78 101q-78 36 -218 78t-203 71q-62 30 -115 69q-111 82 -111 229q0 148 119 241t317 93q256 0 502 -121l-110 -178q-221 96 -383 96q-80 -1 -134 -31q-55 -30 -55 -92t70 -92 t198 -67q204 -57 330 -144q125 -87 125 -240t-125 -248t-327 -95zM483 -350v229h205l19 -250l-172 -219l-60 66l103 174h-95z" glyph-name="scommaaccent.aalt" horiz-adv-x="1148"/><glyph d="M623 -18q-145 0 -296 47t-257 108l108 176q92 -51 218 -91t216 -40t150 33q59 33 59 97t-78 101q-78 36 -218 78t-203 71q-62 30 -115 69q-111 82 -111 229q0 148 119 241t317 93q256 0 502 -121l-110 -178q-221 96 -383 96q-80 -1 -134 -31q-55 -30 -55 -92t70 -92 t198 -67q204 -57 330 -144q125 -87 125 -240t-125 -248t-327 -95zM702 1544l211 -276h-176l-164 159l-161 -159h-179l211 276h258z" glyph-name="scircumflex.aalt" horiz-adv-x="1148"/><glyph d="M756 -191q0 -85 -62 -131t-162 -47q-98 0 -174 41l52 133q59 -27 102 -26q102 0 102 82q0 57 -45 123q-264 16 -499 153l108 176q92 -51 218 -91t216 -40t150 33q59 33 59 97t-78 101q-78 36 -218 78t-203 71q-62 30 -115 69q-111 82 -111 229q0 148 119 241t317 93 q256 0 502 -121l-110 -178q-221 96 -383 96q-80 -1 -134 -31q-55 -30 -55 -92t70 -92t198 -67q204 -57 330 -144q125 -87 125 -234t-106 -239t-281 -106q68 -92 68 -177z" glyph-name="scedilla.aalt" horiz-adv-x="1148"/><glyph d="M623 -18q-145 0 -296 47t-257 108l108 176q92 -51 218 -91t216 -40t150 33q59 33 59 97t-78 101q-78 36 -218 78t-203 71q-62 30 -115 69q-111 82 -111 229q0 148 119 241t317 93q256 0 502 -121l-110 -178q-221 96 -383 96q-80 -1 -134 -31q-55 -30 -55 -92t70 -92 t198 -67q204 -57 330 -144q125 -87 125 -240t-125 -248t-327 -95zM913 1544l-211 -276h-258l-213 276h181l159 -160l164 160h178z" glyph-name="scaron.aalt" horiz-adv-x="1148"/><glyph d="M623 -18q-145 0 -296 47t-257 108l108 176q92 -51 218 -91t216 -40t150 33q59 33 59 97t-78 101q-78 36 -218 78t-203 71q-62 30 -115 69q-111 82 -111 229q0 148 119 241t317 93q256 0 502 -121l-110 -178q-221 96 -383 96q-80 -1 -134 -31q-55 -30 -55 -92t70 -92 t198 -67q204 -57 330 -144q125 -87 125 -240t-125 -248t-327 -95zM590 1268h-209l254 276h303z" glyph-name="sacute.aalt" horiz-adv-x="1148"/><glyph d="M623 -18q-145 0 -296 47t-257 108l108 176q92 -51 218 -91t216 -40t150 33q59 33 59 97t-78 101q-78 36 -218 78t-203 71q-62 30 -115 69q-111 82 -111 229q0 148 119 241t317 93q256 0 502 -121l-110 -178q-221 96 -383 96q-80 -1 -134 -31q-55 -30 -55 -92t70 -92 t198 -67q204 -57 330 -144q125 -87 125 -240t-125 -248t-327 -95z" glyph-name="s.sc" horiz-adv-x="1148"/><glyph d="M690 1384q0 119 -180 119h-201v-237h199q182 -1 182 118zM309 1122v-334h-186v861h397q358 0 359 -265q0 -207 -226 -251l228 -345h-201l-213 334h-158z" glyph-name="R.ordn" horiz-adv-x="952"/><glyph d="M690 289q0 119 -180 119h-201v-238h199q182 0 182 119zM309 27v-334h-186v860h397q358 0 359 -264q0 -207 -226 -252l228 -344h-201l-213 334h-158z" glyph-name="R.sinf" horiz-adv-x="954"/><glyph d="M903 -313v1489h201v-1489h-201zM545 1176h198v-1487h-202v688q-211 0 -343 100t-132 301q0 202 126 300t353 98z" glyph-name="paragraph.aalt"/><glyph d="M526 -350v229h205l17 -250l-173 -219l-57 66l100 174h-92zM936 817q0 166 -254 166h-285v-332h281q258 0 258 166zM397 459v-459h-243v1176h538q494 0 494 -359q0 -287 -314 -344l316 -473h-264l-297 459h-230z" glyph-name="rcommaaccent.aalt" horiz-adv-x="1273"/><glyph d="M147 150v868q0 80 4 119q3 39 21 88t58 75q102 67 290 109l62 -135q-133 -43 -162 -77t-29 -126v-975q0 -92 29 -126t162 -76l-62 -134q-187 42 -290 109q-40 27 -58 76t-21 87q-4 38 -4 118z" glyph-name="parenleft.sc" horiz-adv-x="647"/><glyph d="M1012 1544l-213 -276h-258l-211 276h180l160 -160l161 160h181zM936 817q0 166 -254 166h-285v-332h281q258 0 258 166zM397 459v-459h-243v1176h538q494 0 494 -359q0 -287 -314 -344l316 -473h-264l-297 459h-230z" glyph-name="rcaron.aalt" horiz-adv-x="1273"/><glyph d="M686 1268h-209l254 276h301zM936 817q0 166 -254 166h-285v-332h281q258 0 258 166zM397 459v-459h-243v1176h538q494 0 494 -359q0 -287 -314 -344l316 -473h-264l-297 459h-230z" glyph-name="racute.aalt" horiz-adv-x="1273"/><glyph d="M936 817q0 166 -254 166h-285v-332h281q258 0 258 166zM397 459v-459h-243v1176h538q494 0 494 -359q0 -287 -314 -344l316 -473h-264l-297 459h-230z" glyph-name="r.sc" horiz-adv-x="1273"/><glyph d="M498 1018v-868q0 -98 -6 -144t-41 -98q-35 -53 -111 -85t-211 -63l-63 134q132 42 160 76t28 126v975q0 92 -29 126t-159 77l63 135q135 -31 211 -63t111 -84t41 -98t6 -146z" glyph-name="parenright.sc" horiz-adv-x="645"/><glyph d="M1458 891q-166 0 -297 -148v-413q131 -147 297 -148q111 0 169 92q59 92 59 262t-58 263q-58 92 -170 92zM51 887v188h148v86q0 332 323 332q156 0 385 -59v59h254v-543q173 148 363 148t305 -142t115 -418t-115 -418t-304 -142t-364 145v-123h-254v1227q-215 47 -336 47 t-120 -105v-94h274v-188h-274v-887h-252v887h-148z" glyph-name="f_b.ss01" horiz-adv-x="2031"/><glyph d="M508 -164q240 0 240 286t-240 286t-240 -286t240 -286zM78 123q0 199 105 321t325 123q220 0 324 -123q106 -123 106 -321q0 -311 -231 -408l139 -106l-121 -125l-217 194q-219 0 -325 123q-105 123 -105 322z" glyph-name="Q.sinf" horiz-adv-x="1017"/><glyph d="M682 190q338 0 338 398t-338 397q-338 1 -338 -397t338 -398zM682 1194q301 0 445 -167t145 -439q0 -201 -80 -348t-246 -213l193 -144l-164 -168l-293 267q-301 0 -444 166q-144 166 -144 440q0 272 144 439t444 167z" glyph-name="q.sc" horiz-adv-x="1366"/><glyph d="M483 1243q179 0 179 126t-179 126h-174v-252h174zM492 1649q358 1 358 -277t-358 -278h-183v-306h-186v861h369z" glyph-name="P.ordn" horiz-adv-x="903"/><glyph d="M578 878q0 81 -43 126t-119 45t-119 -45t-43 -126t43 -125t119 -44t119 44t43 125zM756 879q0 -147 -90 -231t-250 -83q-160 0 -250 83q-90 82 -90 230t90 232t250 84t250 -84t90 -231zM1325 1176l-649 -1176h-184l645 1176h188zM1561 295q0 82 -43 127t-119 45t-119 -45 t-43 -127t43 -125t120 -43t119 43t42 125zM1741 295q0 -147 -91 -230t-250 -83t-250 83t-91 231t91 232q91 82 250 82t250 -84t91 -231z" glyph-name="percent.oldstyle" horiz-adv-x="1818"/><glyph d="M1124 -91q0 122 -114 122t-113 -122q-1 -122 113 -122t114 122zM1257 -91q-1 -110 -65 -170q-64 -61 -182 -61t-183 60t-65 171q0 110 65 170q66 60 184 60t182 -60t64 -170zM958 553l-477 -875h-139l475 875h141zM410 336q0 121 -113 121t-113 -121t113 -121t113 121z M296 567q118 0 184 -61t65 -171q0 -110 -66 -169q-67 -60 -185 -60t-182 60t-65 169q0 110 65 171q66 61 184 61z" glyph-name="percent.sinf" horiz-adv-x="1306"/><glyph d="M897 1004q-1 -122 113 -121q114 0 114 122t-112 121q-115 0 -115 -122zM1257 1005q-1 -110 -65 -170q-64 -61 -182 -61t-183 60t-65 171q0 110 65 170q66 60 184 60t182 -60t64 -170zM958 1649l-477 -875h-139l475 875h141zM410 1432q0 121 -115 120q-111 0 -111 -120 t113 -121q113 0 113 121zM296 1663q118 0 184 -61t65 -171q0 -110 -66 -169q-67 -60 -185 -60t-182 60t-65 169q0 110 65 171q66 61 184 61z" glyph-name="percent.ordn" horiz-adv-x="1306"/><glyph d="M483 147q179 0 179 126t-179 126h-174v-252h174zM492 553q358 1 358 -277t-358 -278h-183v-305h-186v860h369z" glyph-name="P.sinf" horiz-adv-x="903"/><glyph d="M899 797q0 176 -256 176h-246v-352h246q256 0 256 176zM1147 797q0 -377 -494 -377h-256v-420h-243v1176h499q238 0 366 -94t128 -285z" glyph-name="p.sc" horiz-adv-x="1206"/><glyph d="M542 1538q56 0 150 -49t123 -49q51 0 105 94l118 -57q-47 -99 -94 -149q-48 -50 -114 -50t-160 49t-123 49q-52 0 -105 -94l-118 55q35 68 56 103q22 34 64 66t98 32zM682 190q338 0 338 398t-338 397q-338 1 -338 -397t338 -398zM682 1194q301 0 445 -167 q145 -167 145 -439t-144 -440t-446 -166q-301 0 -444 166q-144 166 -144 440q0 272 144 439t444 167z" glyph-name="otilde.aalt" horiz-adv-x="1366"/><glyph d="M508 932q240 0 240 286t-240 285q-240 1 -240 -285t240 -286zM508 1663q218 0 324 -123q106 -124 106 -322t-105 -321t-325 -123t-325 123t-105 322t106 321t324 123z" glyph-name="O.ordn" horiz-adv-x="1017"/><glyph d="M698 1268h-209l254 276h304zM682 190q336 0 336 398q0 147 -49 243l-484 -589q80 -52 197 -52zM344 588q0 -150 49 -246l484 592q-76 51 -195 51q-338 0 -338 -397zM682 -18q-207 0 -342 81l-51 -63h-174l121 150q-144 158 -144 434t144 443t446 167q205 0 340 -84l53 66 h174l-123 -152q144 -162 144 -434t-144 -440t-444 -168z" glyph-name="oslashacute.aalt" horiz-adv-x="1361"/><glyph d="M1327 1176l-649 -1176h-184l645 1176h188zM2341 295q0 82 -42 127t-119 45t-120 -45t-43 -127t43 -125t120 -43t119 43t42 125zM2521 295q0 -147 -90 -230t-250 -83t-251 83t-91 231t91 232q91 82 251 82t250 -84t90 -231zM1563 295q0 82 -43 127t-119 45t-119 -45 t-43 -127t43 -125t120 -43t119 43t42 125zM1743 295q0 -147 -91 -230t-250 -83t-250 83t-91 231t91 232q91 82 250 82t250 -84t91 -231zM580 878q0 81 -43 126t-119 45t-119 -45t-43 -126t43 -125t119 -44t119 44t43 125zM758 879q0 -147 -90 -231t-250 -83q-160 0 -250 83 q-90 82 -90 230t90 232t250 84t250 -84t90 -231z" glyph-name="perthousand.aalt" horiz-adv-x="2596"/><glyph d="M373 1319v154h618v-154h-618zM682 190q338 0 338 398t-338 397q-338 1 -338 -397t338 -398zM682 1194q301 0 445 -167q145 -167 145 -439t-144 -440t-446 -166q-301 0 -444 166q-144 166 -144 440q0 272 144 439t444 167z" glyph-name="omacron.aalt" horiz-adv-x="1366"/><glyph d="M664 621q225 0 249 137h-495v-137h246zM418 973v-139h495q-25 139 -249 139h-246zM121 758v76h53v342h500q465 0 489 -342h49v-76h-49q-25 -338 -489 -338h-256v-420h-244v758h-53z" glyph-name="peseta.oldstyle" horiz-adv-x="1280"/><glyph d="M483 147q156 0 176 95h-348v-95h172zM311 399v-94h348q-18 94 -176 94h-172zM86 242v63h39v248h367q340 0 358 -248h37v-63h-37q-20 -244 -358 -244h-181v-305h-186v549h-39z" glyph-name="peseta.sinf" horiz-adv-x="925"/><glyph d="M483 1243q156 0 176 94h-348v-94h172zM311 1495v-94h348q-18 94 -176 94h-172zM86 1337v64h39v248h367q340 0 358 -248h37v-64h-37q-20 -244 -358 -243h-181v-306h-186v549h-39z" glyph-name="peseta.ordn" horiz-adv-x="925"/><glyph d="M508 -164q240 0 240 286t-240 286t-240 -286t240 -286zM508 567q218 0 324 -123q106 -124 106 -322t-105 -321t-325 -123t-325 123t-105 322t106 321t324 123z" glyph-name="O.sinf" horiz-adv-x="1017"/><glyph d="M455 209q-96 0 -176 -84v-221q78 -82 176 -82q133 0 133 194t-133 193zM279 338v-74q109 88 229 88t190 -86q72 -86 72 -251t-72 -251t-192 -86t-227 86v-321h-179v895h179z" glyph-name="p.sinf" horiz-adv-x="833"/><glyph d="M551 1268h-154l164 276h246zM893 1268h-152l162 276h248zM682 190q338 0 338 398t-338 397q-338 1 -338 -397t338 -398zM682 1194q301 0 445 -167q145 -167 145 -439t-144 -440t-446 -166q-301 0 -444 166q-144 166 -144 440q0 272 144 439t444 167z" glyph-name="ohungarumlaut.aalt" horiz-adv-x="1366"/><glyph d="M328 391h137v-221h262v-135h-262v-223h-137v223h-265v135h265v221z" glyph-name="plus.sinf" horiz-adv-x="790"/><glyph d="M877 1268h-209l-349 276h302zM682 190q338 0 338 398t-338 397q-338 1 -338 -397t338 -398zM682 1194q301 0 445 -167q145 -167 145 -439t-144 -440t-446 -166q-301 0 -444 166q-144 166 -144 440q0 272 144 439t444 167z" glyph-name="ograve.aalt" horiz-adv-x="1366"/><glyph d="M758 1288v219h213v-219h-213zM393 1288v219h215v-219h-215zM682 190q338 0 338 398t-338 397q-338 1 -338 -397t338 -398zM682 1194q301 0 445 -167q145 -167 145 -439t-144 -440t-446 -166q-301 0 -444 166q-144 166 -144 440q0 272 144 439t444 167z" glyph-name="odieresis.aalt" horiz-adv-x="1366"/><glyph d="M811 1544l211 -276h-176l-164 159l-162 -159h-178l211 276h258zM682 190q338 0 338 398t-338 397q-338 1 -338 -397t338 -398zM682 1194q301 0 445 -167q145 -167 145 -439t-144 -440t-446 -166q-301 0 -444 166q-144 166 -144 440q0 272 144 439t444 167z" glyph-name="ocircumflex.aalt" horiz-adv-x="1366"/><glyph d="M455 1305q-96 0 -176 -84v-222q76 -82 176 -81q133 0 133 194t-133 193zM279 1434v-74q109 88 229 88t190 -86q72 -86 72 -251t-72 -251t-196 -86t-223 86v-321h-179v895h179z" glyph-name="p.ordn" horiz-adv-x="833"/><glyph d="M681 1268q-151 0 -236 64t-85 175h164q0 -96 159 -96t159 96h162q0 -111 -86 -175t-237 -64zM682 190q338 0 338 398t-338 397q-338 1 -338 -397t338 -398zM682 1194q301 0 445 -167q145 -167 145 -439t-144 -440t-446 -166q-301 0 -444 166q-144 166 -144 440 q0 272 144 439t444 167z" glyph-name="obreve.aalt" horiz-adv-x="1366"/><glyph d="M381 -178q92 0 174 82v221q-84 84 -174 84q-135 1 -135 -193t135 -194zM555 -557v321q-106 -86 -226 -86t-193 86t-73 251t73 251t192 86t227 -88v74h178v-895h-178z" glyph-name="q.sinf" horiz-adv-x="833"/><glyph d="M381 918q96 0 174 81v222q-84 84 -174 84q-135 1 -135 -193t135 -194zM555 539v321q-100 -86 -223 -86t-196 86t-73 251t73 251t192 86t227 -88v74h178v-895h-178z" glyph-name="q.ordn" horiz-adv-x="833"/><glyph d="M698 1268h-209l254 276h304zM682 190q338 0 338 398t-338 397q-338 1 -338 -397t338 -398zM682 1194q301 0 445 -167q145 -167 145 -439t-144 -440t-446 -166q-301 0 -444 166q-144 166 -144 440q0 272 144 439t444 167z" glyph-name="oacute.aalt" horiz-adv-x="1366"/><glyph d="M889 887q0 -143 -111 -227t-295 -128l-12 -155h-154l-14 282q182 35 261 76t79 109t-52 108q-52 39 -138 39q-131 0 -291 -92l-103 164q217 131 409 131t307 -82q114 -82 114 -225zM270 0v252h246v-252h-246z" glyph-name="question.sc" horiz-adv-x="966"/><glyph d="M682 190q338 0 338 398t-338 397q-338 1 -338 -397t338 -398zM1894 0h-870v63q-135 -82 -342 -81q-301 0 -444 166q-144 166 -144 440q0 272 144 439t444 167q203 0 342 -84v66h858v-207h-614v-281h506v-201h-506v-280h626v-207z" glyph-name="oe.aalt" horiz-adv-x="1986"/><glyph d="M696 1176v-252h-247v252h247zM78 285q0 102 61 177q61 74 143 112t201 69l13 154h153l15 -281q-182 -35 -262 -76t-78 -109q0 -67 51 -107t139 -40q129 0 289 92l104 -163q-217 -131 -432 -131q-170 0 -284 81q-113 83 -113 222z" glyph-name="questiondown.sc" horiz-adv-x="970"/><glyph d="M506 553v-186h-187v186h187zM236 -65q0 -103 149 -103q78 0 193 68l77 -125q-162 -97 -301 -97t-222 61t-83 163q0 190 297 262l8 110h115l12 -204q-133 -27 -189 -57t-56 -78z" glyph-name="questiondown.sinf" horiz-adv-x="688"/><glyph d="M506 1649v-187h-187v187h187zM236 1031q0 -103 149 -103q78 0 193 67l77 -125q-162 -96 -301 -96t-222 60t-83 163q0 190 297 263l8 110h115l12 -205q-133 -27 -189 -57t-56 -77z" glyph-name="questiondown.ordn" horiz-adv-x="690"/><glyph d="M329 567q142 1 225 -61t83 -168t-81 -164q-81 -59 -216 -94l-8 -111h-115l-10 207q131 24 187 54t56 78t-35 77q-36 29 -114 29t-192 -68l-78 123q156 98 298 98zM180 -307v186h189v-186h-189z" glyph-name="question.sinf" horiz-adv-x="688"/><glyph d="M331 1663q142 1 225 -61t83 -168t-81 -164q-81 -59 -216 -94l-8 -111h-115l-10 207q131 24 187 54t56 78t-35 77q-36 29 -114 29t-192 -68l-78 123q156 98 298 98zM182 788v187h189v-187h-189z" glyph-name="question.ordn" horiz-adv-x="688"/><glyph d="M682 190q338 0 338 398t-338 397q-338 1 -338 -397t338 -398zM682 1194q301 0 445 -167q145 -167 145 -439t-144 -440t-446 -166q-301 0 -444 166q-144 166 -144 440q0 272 144 439t444 167z" glyph-name="o.sc" horiz-adv-x="1366"/><glyph d="M549 1538q49 0 144 -49t122 -49q51 0 105 94l120 -57q-48 -94 -79 -132q-54 -67 -125 -67q-70 0 -165 49t-122 49q-52 0 -105 -94l-120 55q55 100 84 137q28 36 60 50t81 14zM950 1176h244v-1176h-250l-547 840v-840h-243v1176h249l547 -840v840z" glyph-name="ntilde.aalt" horiz-adv-x="1347"/><glyph d="M309 788h-186v861h190l385 -592v592h189v-861h-193l-385 596v-596z" glyph-name="N.ordn" horiz-adv-x="1009"/><glyph d="M309 -307h-186v860h190l385 -592v592h189v-860h-193l-385 596v-596z" glyph-name="N.sinf" horiz-adv-x="1009"/><glyph d="M573 -350v229h205l19 -250l-172 -219l-60 66l101 174h-93zM950 1176h244v-1176h-250l-547 840v-840h-243v1176h249l547 -840v840z" glyph-name="ncommaaccent.aalt" horiz-adv-x="1347"/><glyph d="M1024 1544l-211 -276h-258l-213 276h180l160 -160l164 160h178zM950 1176h244v-1176h-250l-547 840v-840h-243v1176h249l547 -840v840z" glyph-name="ncaron.aalt" horiz-adv-x="1347"/><glyph d="M690 1268h-211l254 276h305zM950 1176h244v-1176h-250l-547 840v-840h-243v1176h249l547 -840v840z" glyph-name="nacute.aalt" horiz-adv-x="1347"/><glyph d="M397 0h-243v1176h249l547 -840v840h244v-1176h-250l-547 840v-840z" glyph-name="n.sc" horiz-adv-x="1347"/><glyph d="M844 788v572l-213 -428h-107l-215 432v-576h-186v861h190l265 -525l262 525h190v-861h-186z" glyph-name="M.ordn" horiz-adv-x="1153"/><glyph d="M844 -307v571l-213 -428h-107l-215 432v-575h-186v860h190l265 -524l262 524h190v-860h-186z" glyph-name="M.sinf" horiz-adv-x="1153"/><glyph d="M1149 0v813l-311 -616h-129l-312 618v-815h-243v1176h252l368 -725l369 725h250v-1176h-244z" glyph-name="m.sc" horiz-adv-x="1546"/><glyph d="M739 788h-616v861h186v-705h430v-156z" glyph-name="L.ordn" horiz-adv-x="778"/><glyph d="M1018 0h-842v401l-125 -65v217l125 65v558h244v-426l239 129v-217l-239 -130v-325h598v-207z" glyph-name="lslash.aalt" horiz-adv-x="1062"/><glyph d="M739 -307h-616v860h186v-705h430v-155z" glyph-name="L.sinf" horiz-adv-x="778"/><glyph d="M279 338v-135q11 27 33 55t82 60t138 28v-168q-161 0 -230 -134q-15 -30 -19 -52l-4 -21v-278h-179v645h179z" glyph-name="r.sinf" horiz-adv-x="567"/><glyph d="M690 514v221h213v-221h-213zM993 0h-839v1176h243v-973h596v-203z" glyph-name="ldot.aalt" horiz-adv-x="1042"/><glyph d="M461 -350v229h205l18 -250l-172 -219l-57 66l100 174h-94zM993 0h-839v1176h243v-973h596v-203z" glyph-name="lcommaaccent.aalt" horiz-adv-x="1038"/><glyph d="M479 946v230h205l18 -250l-172 -219l-57 65l100 174h-94zM993 0h-839v1176h243v-973h596v-203z" glyph-name="lcaron.aalt" horiz-adv-x="1038"/><glyph d="M1470 1493v-555q221 160 428 160q313 0 314 -336v-762h-252v707q0 190 -156 190q-84 0 -178 -47t-156 -102v-748h-253v1372h-148q-107 0 -167 -56t-60 -148t37 -148q49 -18 86 -37l-105 -168q-205 88 -354 88q-76 0 -120 -29t-44 -77q0 -83 148 -124q32 -9 88 -23 q224 -55 329 -136q105 -82 105 -226t-115 -228t-305 -83q-138 0 -282 41t-244 95l104 182q88 -47 208 -84t200 -37t129 30t49 72t-18 60q-56 56 -162 83l-75 19q-176 44 -295 120q-118 76 -118 222t109 232t297 86q106 0 245 -33q-25 53 -24 121q0 141 96 224t272 83h387z " glyph-name="s_h.dlig" horiz-adv-x="2344"/><glyph d="M1470 0h-253v1372h-148q-107 0 -167 -56t-60 -148t37 -148q49 -18 86 -37l-105 -168q-205 88 -354 88q-76 0 -120 -29t-44 -77q0 -83 148 -124q32 -9 88 -23q224 -55 329 -136q105 -82 105 -226t-115 -228t-305 -83q-138 0 -282 41t-244 95l104 182q88 -47 208 -84 t200 -37t129 30t49 72t-18 60q-56 56 -162 83l-75 19q-176 44 -295 120q-118 76 -118 222t109 232t297 86q106 0 245 -33q-25 53 -24 121q0 141 96 224t272 83h387v-905l385 487h287l-362 -430l426 -645h-267l-313 465l-156 -186v-279z" glyph-name="s_k.dlig" horiz-adv-x="2213"/><glyph d="M1477 0h-254v1372h-154q-107 0 -167 -56t-60 -148t37 -148q49 -18 86 -37l-105 -168q-205 88 -354 88q-76 0 -120 -29t-44 -77q0 -83 148 -124q32 -9 88 -23q224 -55 329 -136q105 -82 105 -226t-115 -228t-305 -83q-138 0 -282 41t-244 95l104 182q88 -47 208 -84 t200 -37t129 30t49 72t-18 60q-56 56 -162 83l-75 19q-176 44 -295 120q-118 76 -118 222t109 232t297 86q106 0 245 -33q-25 53 -24 121q0 141 96 224t272 83h394v-1493z" glyph-name="s_l.dlig" horiz-adv-x="1622"/><glyph d="M293 1268h-209l254 276h303zM995 0h-841v1176h245v-973h596v-203z" glyph-name="lacute.aalt" horiz-adv-x="1038"/><glyph d="M993 0h-839v1176h243v-969h596v-207z" glyph-name="l.sc" horiz-adv-x="1038"/><glyph d="M123 788v861h186v-420l363 420h219l-363 -410l385 -451h-221l-276 324l-107 -121v-203h-186z" glyph-name="K.ordn" horiz-adv-x="931"/><glyph d="M123 -307v860h186v-420l363 420h219l-363 -410l385 -450h-221l-276 323l-107 -118v-205h-186z" glyph-name="K.sinf" horiz-adv-x="931"/><glyph d="M516 -350v229h205l18 -250l-174 -219l-57 66l100 174h-92zM154 0v1176h243v-584l510 584h289l-500 -560l535 -616h-293l-391 453l-150 -170v-283h-243z" glyph-name="kcommaaccent.aalt" horiz-adv-x="1247"/><glyph d="M154 0v1176h243v-584l510 584h289l-500 -560l535 -616h-293l-391 453l-150 -170v-283h-243z" glyph-name="k.sc" horiz-adv-x="1247"/><glyph d="M309 1649v-783q0 -152 -35 -187q-52 -55 -113 -74t-130 -34l-60 138q109 33 131 57t21 90v793h186z" glyph-name="J.ordn" horiz-adv-x="430"/><glyph d="M309 553v-782q0 -153 -35 -188q-52 -55 -113 -74t-130 -33l-60 137q109 33 131 57t21 90v793h186z" glyph-name="J.sinf" horiz-adv-x="430"/><glyph d="M111 -307v203h186l14 -226l-153 -174l-52 60l89 137h-84zM111 78v203h186v-203h-186z" glyph-name="semicolon.sinf" horiz-adv-x="411"/><glyph d="M111 788v203h186l14 -225l-153 -174l-52 59l89 137h-84zM111 1174v202h186v-202h-186z" glyph-name="semicolon.ordn" horiz-adv-x="411"/><glyph d="M403 1544l213 -276h-180l-162 159l-159 -159h-181l213 276h256zM397 1176v-1074q0 -181 -28 -223q-51 -73 -99 -93q-110 -47 -245 -79l-80 180q80 25 121 42t61 43t24 46q3 20 3 74v1084h243z" glyph-name="jcircumflex.aalt" horiz-adv-x="550"/><glyph d="M397 1176v-1074q0 -181 -28 -223q-51 -73 -99 -93q-110 -47 -245 -79l-80 180q80 25 121 42t61 43t24 46q3 20 3 74v1084h243z" glyph-name="j.sc" horiz-adv-x="550"/><glyph d="M352 0h-192q0 111 44 238t129 262t144 207h-428v153h631v-143q-33 -33 -102 -135q-68 -101 -111 -183q-43 -83 -79 -193t-36 -206z" glyph-name="seven.dnom" horiz-adv-x="716"/><glyph d="M352 573h-192q0 111 44 238t129 262t144 207h-428v154h631v-144q-32 -32 -101 -134q-69 -101 -112 -183t-79 -193t-36 -207z" glyph-name="seven.frac" horiz-adv-x="716"/><glyph d="M508 -258h-272q0 154 50 332t112 312q131 283 343 568h-692v222h983v-203q-20 -27 -56 -73t-126 -187t-160 -281t-126 -330q-56 -192 -56 -360z" glyph-name="seven.oldstyle" horiz-adv-x="1067"/><glyph d="M377 0q0 154 50 332q82 294 234 542q151 248 224 338h-692v222h981v-203q-20 -27 -56 -73t-127 -187t-159 -281t-124 -330q-56 -192 -57 -360h-274z" glyph-name="seven.tnum" horiz-adv-x="1351"/><glyph d="M397 0h-243v1176h243v-1176zM141 1538q49 0 145 -49t122 -49q51 0 104 94l121 -57q-48 -94 -79 -132q-54 -67 -125 -67q-69 0 -165 49t-123 49q-51 0 -104 -94l-121 55q55 100 84 137q28 36 60 50t81 14z" glyph-name="itilde.aalt" horiz-adv-x="550"/><glyph d="M1044 524q0 -59 121 -94q119 37 119 94q0 33 -33 59q-33 25 -86 25t-87 -26t-34 -58zM1327 193q0 37 -27 63q-26 26 -56 41q-30 14 -79 33q-162 -57 -161 -131q0 -43 46 -70t116 -27t115 27q46 27 46 64zM170 471q0 249 274 580h-374v125h542v-115q-28 -28 -88 -111 q-61 -84 -99 -150t-69 -158q-31 -91 -30 -171h-156zM1061 1176l-590 -1176h-162l590 1176h162zM850 188q0 125 176 195q-127 66 -127 152t71 134q70 48 194 48t198 -48t74 -126q0 -96 -129 -160q176 -68 176 -195q0 -92 -86 -146q-87 -54 -231 -54t-230 54t-86 146z" glyph-name="seveneighths.aalt" horiz-adv-x="1562"/><glyph d="M309 788h-186v861h186v-861z" glyph-name="I.ordn" horiz-adv-x="432"/><glyph d="M197 -195q0 -71 104 -71h53l-24 -123q-174 0 -240 44t-65 126q0 123 200 219h-71v1176h245v-1176h-6q-148 -86 -179 -137q-17 -29 -17 -58z" glyph-name="iogonek.aalt" horiz-adv-x="552"/><glyph d="M664 -130q0 -89 -73 -140q-73 -52 -225 -52t-313 84l70 125q147 -73 255 -73t107 51q0 46 -111 70q-13 3 -37 9l-36 9q-236 57 -235 205q0 88 69 141t209 53t291 -71l-74 -115q-127 51 -222 51t-95 -49q0 -42 73 -60q21 -4 33 -8t37 -9l35 -7q114 -29 178 -77t64 -137z " glyph-name="s.sinf" horiz-adv-x="716"/><glyph d="M-35 1319v154h619v-154h-619zM397 0h-243v1176h243v-1176z" glyph-name="imacron.aalt" horiz-adv-x="548"/><glyph d="M450 416q-70 0 -116 -26q-47 -26 -70 -58q2 -98 52 -148t127 -49q77 0 120 43q43 42 43 100t-43 98t-113 40zM600 723q-113 0 -199 -60t-118 -180q90 70 219 70t209 -75q80 -74 80 -196q-1 -122 -95 -209t-263 -87t-263 108t-94 273q0 219 145 363t377 144q79 0 135 -14 l-43 -145q-41 8 -90 8z" glyph-name="six.dnom" horiz-adv-x="856"/><glyph d="M450 989q-70 1 -116 -25q-47 -26 -70 -59q2 -98 52 -147t127 -49t120 43t43 100t-43 97t-113 40zM600 1296q-113 0 -199 -60t-118 -179q90 69 219 69t209 -74t80 -197q-1 -122 -95 -209t-263 -87t-263 109t-94 272q0 220 145 364t377 144q79 0 135 -14l-43 -146 q-41 8 -90 8z" glyph-name="six.frac" horiz-adv-x="856"/><glyph d="M687 721q-120 0 -202 -50t-116 -112v-2q0 -164 83 -264t217 -100q133 1 205 81t72 188t-69 183q-70 76 -190 76zM915 1239q-180 0 -326 -110t-198 -343q139 136 353 136t340 -127t126 -329t-146 -345t-388 -144q-279 -1 -425 177t-149 430q-2 401 230 637t579 235 q116 0 183 -16l24 -6l-61 -209q-64 14 -142 14z" glyph-name="six.oldstyle" horiz-adv-x="1288"/><glyph d="M699 193q134 1 206 81t72 188q1 108 -69 183q-70 76 -190 76t-202 -50t-117 -112v-2q0 -164 83 -264t217 -100zM946 1239q-180 0 -326 -110t-198 -343q139 136 353 136t340 -127t126 -329t-146 -345t-388 -144q-279 -1 -425 177t-149 430q-1 401 231 637t578 235 q118 0 182 -16l25 -6l-62 -209q-63 14 -141 14z" glyph-name="six.tnum" horiz-adv-x="1351"/><glyph d="M309 -307h-186v860h186v-860z" glyph-name="I.sinf" horiz-adv-x="432"/><glyph d="M469 1268h-209l-348 276h301zM399 0h-245v1176h245v-1176z" glyph-name="igrave.aalt" horiz-adv-x="552"/><glyph d="M348 1288v219h213v-219h-213zM-14 1288v219h215v-219h-215zM395 0h-243v1176h243v-1176z" glyph-name="idieresis.aalt" horiz-adv-x="550"/><glyph d="M813 1327l-586 -1479h-182l588 1479h180z" glyph-name="slash.sc" horiz-adv-x="868"/><glyph d="M401 1544l213 -276h-178l-162 159l-161 -159h-179l211 276h256zM397 0h-243v1176h243v-1176z" glyph-name="icircumflex.aalt" horiz-adv-x="550"/><glyph glyph-name="space.sinf" horiz-adv-x="333"/><glyph glyph-name="space.ordn" horiz-adv-x="333"/><glyph d="M397 0h-243v1176h243v-1176zM274 1268q-152 0 -236 64t-85 175h164q1 -96 159 -96t158 96h162q0 -111 -85 -175t-237 -64z" glyph-name="ibreve.aalt" horiz-adv-x="550"/><glyph d="M293 1268h-209l254 276h303zM399 0h-245v1176h245v-1176z" glyph-name="iacute.aalt" horiz-adv-x="552"/><glyph d="M127 420v141h164q-15 29 -57 93q-90 136 -89 259q-1 123 99 202t286 79t433 -141l-107 -158q-186 96 -282 96t-140 -36q-43 -36 -43 -91t65 -152t81 -151h288v-141h-276q-12 -72 -54 -130t-81 -87h530v-203h-838v164q8 4 40 18t77 58q91 88 96 180h-192z" glyph-name="sterling.aalt" horiz-adv-x="1052"/><glyph d="M940 1176v-1074q0 -182 -29 -223q-51 -72 -99 -93q-108 -47 -245 -79l-80 180q80 25 121 42t62 43q20 26 23 46t3 74v1084h244zM397 0h-243v1176h243v-1176z" glyph-name="ij.aalt" horiz-adv-x="1101"/><glyph d="M397 0h-243v1176h243v-1176z" glyph-name="i.sc" horiz-adv-x="550"/><glyph d="M678 788v375h-369v-375h-186v861h186v-332h369v332h186v-861h-186z" glyph-name="H.ordn" horiz-adv-x="987"/><glyph d="M678 -307v375h-369v-375h-186v860h186v-332h369v332h186v-860h-186z" glyph-name="H.sinf" horiz-adv-x="987"/><glyph d="M416 866v-149h524v149h-524zM940 0v516h-524v-516h-244v866h-135v138h135v172h244v-172h524v172h244v-172h135v-138h-135v-866h-244z" glyph-name="hbar.aalt" horiz-adv-x="1355"/><glyph d="M922 0v516h-525v-516h-243v1176h243v-459h525v459h243v-1176h-243z" glyph-name="h.sc" horiz-adv-x="1318"/><glyph d="M690 788v86q-122 -100 -264 -100t-244 114t-102 331t104 331t272 113q168 0 398 -129l-88 -135q-184 96 -284 96t-155 -74q-55 -73 -55 -203t54 -208t152 -78q99 0 212 96v107h-217v147h393v-494h-176z" glyph-name="G.ordn" horiz-adv-x="960"/><glyph d="M395 139q74 0 119 31t45 84q0 127 -256 127h-43v154h49q84 1 149 25t64 79q0 82 -117 82t-243 -74l-76 117q145 111 340 110q139 0 211 -59t72 -149q0 -131 -154 -191q84 -25 138 -85q55 -60 55 -154t-81 -173q-81 -77 -259 -77t-363 106l84 127q141 -80 266 -80z" glyph-name="three.dnom" horiz-adv-x="823"/><glyph d="M395 713q74 1 119 31t45 83q0 127 -256 127h-43v154h49q84 0 149 25t64 79q0 82 -117 82t-243 -73l-76 116q145 111 340 111q139 0 211 -59t72 -150q0 -131 -154 -190q84 -25 138 -85q55 -60 55 -155t-81 -173t-259 -76q-178 0 -363 106l84 127q141 -80 266 -80z" glyph-name="three.frac" horiz-adv-x="823"/><glyph d="M584 -63q127 0 207 58t79 159q0 183 -284 230q-68 11 -140 11h-61v223h72q139 0 244 48t106 151q0 72 -57 114t-160 42q-174 0 -367 -119l-110 166q225 174 518 174q213 0 327 -98t113 -244q-1 -109 -65 -193t-187 -131q139 -37 229 -140t89 -238q0 -180 -130 -308 t-411 -127q-281 0 -549 168l119 183q229 -129 418 -129z" glyph-name="three.oldstyle" horiz-adv-x="1222"/><glyph d="M645 199q127 0 206 58t79 159q0 184 -283 230q-68 11 -139 11h-64v224h74q139 0 245 48q105 48 105 150q0 72 -57 114t-160 42q-176 0 -368 -119l-111 166q236 174 518 174q213 0 327 -98t113 -244q0 -108 -64 -192t-187 -131q139 -37 228 -141t89 -238q0 -180 -129 -308 t-389 -127q-307 0 -569 168l116 183q229 -129 420 -129z" glyph-name="three.tnum" horiz-adv-x="1351"/><glyph d="M690 -307v88q-122 -103 -264 -103t-244 114t-102 331t104 331t272 114t398 -130l-88 -135q-184 96 -284 96q-100 1 -155 -73t-55 -204t54 -208t151 -78q98 0 213 98v105h-217v147h393v-493h-176z" glyph-name="G.sinf" horiz-adv-x="960"/><glyph d="M1235 524q0 -59 121 -94q119 37 119 94q0 33 -33 59q-33 25 -85 25t-87 -26t-35 -58zM1518 193q0 37 -27 63t-57 41q-30 14 -78 33q-162 -59 -162 -131q0 -43 46 -70t117 -27t116 27t45 64zM1253 1176l-591 -1176h-160l590 1176h161zM528 677q0 43 -51 75t-176 32h-37 v123h41q74 0 131 22t58 66q0 68 -106 68t-210 -59l-63 94q127 90 288 90q117 0 179 -49t63 -123q0 -113 -135 -156q76 -20 124 -70t48 -127t-72 -141t-223 -63q-151 0 -309 86l69 102q115 -66 230 -65q67 0 109 26t42 69zM1040 188q0 125 177 195q-127 66 -127 152t71 134 q72 48 196 48q125 0 197 -48t72 -126q0 -96 -129 -160q176 -68 176 -195q0 -92 -86 -146t-230 -54t-231 54q-86 54 -86 146z" glyph-name="threeeighths.aalt" horiz-adv-x="1755"/><glyph d="M1442 1434l-676 -1434h-199l676 1434h199zM426 713q74 1 120 31t46 83q0 127 -258 127h-41v154h47q84 0 148 25t65 79q0 82 -118 82t-240 -73l-76 116q145 111 338 111q139 0 211 -59t71 -150q0 -133 -153 -190q86 -25 140 -85t54 -155t-82 -173t-260 -76 q-178 0 -362 106l84 127q141 -80 266 -80zM1878 860v-153h-408l-12 -166q68 20 137 20q152 0 235 -82q83 -83 83 -203t-89 -205t-259 -85t-336 106l80 133q129 -82 221 -82t143 37q51 36 51 96t-46 99t-128 39t-180 -49l-100 63l47 432h561z" glyph-name="glyph736" horiz-adv-x="2009"/><glyph d="M1253 1176l-591 -1176h-160l590 1176h161zM528 677q0 43 -51 75t-176 32h-37v123h41q74 0 131 22t58 66q0 68 -106 68t-210 -59l-63 94q127 90 288 90q117 0 179 -49t63 -123q0 -113 -135 -156q76 -20 124 -70t48 -127t-72 -141t-223 -63q-151 0 -309 86l69 102 q115 -66 230 -65q67 0 109 26t42 69zM1626 705v-123h-354l-12 -142q63 18 120 19q131 0 204 -67t73 -165t-76 -169q-76 -70 -219 -70t-291 86l66 108q100 -68 204 -67q68 1 115 31t47 79t-42 82q-41 33 -117 33t-154 -39l-84 49l43 355h477z" glyph-name="glyph737" horiz-adv-x="1751"/><glyph d="M526 1288v219h215v-219h-215zM938 0v121q-168 -139 -364 -139t-337 154t-141 453q0 297 142 451t376 154t539 -176l-117 -178q-254 135 -393 135q-139 1 -218 -103t-79 -285t77 -290t211 -109t304 136v153h-301v195h534v-672h-233z" glyph-name="gdotaccent.aalt" horiz-adv-x="1288"/><glyph d="M561 -350v229h203l20 -250l-174 -219l-59 66l104 174h-94zM938 0v121q-168 -139 -364 -139t-337 154t-141 453q0 297 142 451t376 154t539 -176l-117 -178q-254 135 -393 135q-139 1 -218 -103t-79 -285t77 -290t211 -109t304 136v153h-301v195h534v-672h-233z" glyph-name="gcommaaccent.aalt" horiz-adv-x="1288"/><glyph d="M1372 260v330l-248 -330h248zM1253 1176l-591 -1176h-160l590 1176h161zM528 677q0 43 -51 75t-176 32h-37v123h41q74 0 131 22t58 66q0 68 -106 68t-210 -59l-63 94q127 90 288 90q117 0 179 -49t63 -123q0 -113 -135 -156q76 -20 124 -70t48 -127t-72 -141t-223 -63 q-151 0 -309 86l69 102q115 -66 230 -65q67 0 109 26t42 69zM961 137v103l362 465h201v-445h121v-123h-121v-137h-152v137h-411z" glyph-name="threequarters.aalt" horiz-adv-x="1720"/><glyph d="M631 1268q-152 0 -236 64t-84 175h162q0 -96 159 -96t159 96h163q0 -111 -86 -175t-237 -64zM938 0v121q-168 -139 -364 -139t-337 154t-141 453q0 297 142 451t376 154t539 -176l-117 -178q-254 135 -393 135q-139 1 -218 -103t-79 -285t77 -290t211 -109t304 136v153 h-301v195h534v-672h-233z" glyph-name="gbreve.aalt" horiz-adv-x="1288"/><glyph d="M938 0v121q-168 -139 -364 -139t-337 154t-141 453q0 297 142 451t376 154t539 -176l-117 -178q-254 135 -393 135q-139 1 -218 -103t-79 -285t77 -290t211 -109t304 136v153h-301v195h534v-672h-233z" glyph-name="g.sc" horiz-adv-x="1288"/><glyph d="M41 207v131h92v162l180 24v-186h183v-131h-183v-311q0 -63 56 -64q39 0 108 31l64 -133q-127 -51 -215 -52q-193 0 -193 218v311h-92z" glyph-name="t.sinf" horiz-adv-x="577"/><glyph d="M754 1493h-445v-199h353v-153h-353v-353h-186v861h631v-156z" glyph-name="F.ordn" horiz-adv-x="802"/><glyph d="M754 397h-445v-198h353v-154h-353v-352h-186v860h631v-156z" glyph-name="F.sinf" horiz-adv-x="802"/><glyph d="M1014 973h-617v-285h490v-203h-490v-485h-243v1176h860v-203z" glyph-name="f.sc" horiz-adv-x="1069"/><glyph d="M739 154v-154h-673v84q0 119 74 199q75 80 208 159q12 6 36 22t35 21q11 6 50 33t50 41t21 29t11 48q0 34 -36 60t-101 25q-109 0 -240 -80l-84 119q174 114 332 114t238 -68q79 -68 79 -176t-90 -186q-65 -56 -131 -93t-110 -62q-118 -68 -119 -135h450z" glyph-name="two.dnom" horiz-adv-x="823"/><glyph d="M739 727v-154h-673v84q0 119 74 199q75 80 208 160q29 14 75 45q46 29 55 37q10 8 24 19t21 21t17 23q10 14 11 48q0 34 -36 60t-101 25q-109 0 -240 -80l-84 119q174 115 332 115t238 -68q79 -68 79 -176t-79 -177t-144 -104q-64 -37 -108 -61q-118 -67 -119 -135h450z " glyph-name="two.frac" horiz-adv-x="823"/><glyph d="M86 0v129q0 158 120 270t332 203q213 90 255 135q41 45 48 66q7 20 7 39q0 68 -56 104t-155 35q-182 0 -397 -129l-117 166q254 176 532 176q211 0 331 -89t120 -253q0 -126 -96 -235q-86 -93 -387 -224q-82 -39 -121 -59q-103 -53 -125 -121h731v-213h-1022z" glyph-name="two.oldstyle" horiz-adv-x="1218"/><glyph d="M1184 219v-219h-1043v131q0 234 198 409q99 86 274 200q174 114 218 157q87 80 87 160t-62 129t-174 49q-178 0 -381 -131l-121 172q256 180 535 180q219 0 343 -108t124 -287q0 -180 -146 -309q-80 -72 -128 -106t-119 -76q-199 -119 -267 -190q-69 -70 -69 -161h731z " glyph-name="two.tnum" horiz-adv-x="1351"/><glyph d="M1493 1434l-676 -1434h-199l676 1434h199zM766 727v-154h-676v84q0 119 75 199t212 163t168 116t31 71t-36 63q-36 26 -102 25q-102 0 -239 -80l-84 119q179 115 335 115t235 -68t79 -172q0 -134 -135 -228q-53 -38 -73 -49t-94 -52q-73 -41 -111 -75t-38 -77h453z M1929 860v-153h-405l-13 -166q66 20 136 20q153 0 235 -82q82 -83 82 -203t-88 -205t-256 -85t-340 106l82 133q123 -82 237 -82q74 0 125 37q52 36 52 96t-45 99t-127 39t-181 -49l-102 63l49 432h559z" glyph-name="glyph751" horiz-adv-x="2056"/><glyph d="M1294 1176l-589 -1176h-162l592 1176h159zM668 592v-121h-578v68q0 68 40 126t85 91t149 91t127 87t23 57q0 29 -33 51t-109 21q-76 0 -192 -66l-67 97q154 94 286 94q133 0 201 -55t68 -148t-89 -159q-48 -36 -76 -51q-29 -15 -97 -51t-102 -66t-34 -66h398zM1669 705 v-123h-354l-12 -144q61 20 122 21q129 0 203 -67t74 -165t-77 -169q-77 -70 -218 -70t-295 86l68 108q108 -68 190 -68t128 32q46 30 46 79t-40 82t-116 33t-157 -39l-80 49l41 355h477z" glyph-name="glyph752" horiz-adv-x="1789"/><glyph d="M61 1264v82h86q29 156 126 236t246 81q149 0 370 -125l-88 -135q-166 92 -271 92q-137 0 -186 -149h305v-82h-319q-2 -14 -2 -48t2 -51h319v-80h-303q49 -145 184 -145q102 0 271 94l88 -137q-225 -123 -371 -123t-243 78q-95 78 -125 233h-89v80h78q-2 16 -2 54v45h-76z " glyph-name="Euro.ordn" horiz-adv-x="950"/><glyph d="M61 168v82h86q29 156 126 236t246 81q149 0 370 -125l-88 -135q-166 92 -271 92q-137 0 -186 -149h305v-82h-319q-2 -14 -2 -48t2 -50h319v-80h-303q49 -145 184 -146q102 0 271 95l88 -138q-225 -123 -371 -123t-243 79q-95 79 -125 233h-89v80h78q-2 16 -2 53v45h-76z " glyph-name="Euro.sinf" horiz-adv-x="950"/><glyph d="M88 649v115h121q41 214 173 322t336 108t505 -170l-113 -178q-236 129 -379 129q-197 0 -262 -211h430v-115h-453q-2 -20 -2 -65t2 -68h453v-115h-428q68 -203 260 -202q137 0 379 129l113 -176q-299 -170 -503 -170t-336 106t-173 313h-123v115h109q-2 23 -2 68t2 65 h-109z" glyph-name="Euro.oldstyle" horiz-adv-x="1318"/><glyph d="M1376 113q170 0 170 94q0 106 -227 106h-35v125h41q186 0 186 86q0 70 -101 70t-214 -59l-63 92q123 90 288 90q119 0 181 -49t63 -121q0 -111 -137 -158q76 -18 124 -68t48 -128q0 -77 -71 -141t-219 -64t-312 86l67 102q121 -63 211 -63zM1296 1176l-589 -1176h-162 l592 1176h159zM670 592v-121h-578v68q0 68 40 126t85 91t147 90t127 86q25 28 25 58t-33 52t-109 21q-76 0 -192 -66l-67 97q154 94 286 94q133 0 201 -55t68 -148t-89 -159q-48 -36 -76 -51q-29 -15 -97 -51t-102 -66t-34 -66h398z" glyph-name="twothirds.aalt" horiz-adv-x="1783"/><glyph d="M987 588q0 209 -96 295t-299 86h-168v-285h268v-192h-268v-285h168q203 0 299 86t96 295zM1231 588q0 -308 -157 -448t-462 -140h-432v492h-133v192h133v492h432q305 0 462 -140t157 -448z" glyph-name="eth.aalt" horiz-adv-x="1327"/><glyph d="M762 788h-639v861h631v-156h-445v-199h367v-151h-367v-199h453v-156z" glyph-name="E.ordn" horiz-adv-x="835"/><glyph d="M821 -195q0 -71 106 -71h52l-25 -123q-174 0 -240 44t-65 126q0 125 201 219h-696v1176h860v-203h-617v-285h506v-201h-506v-284h627v-203h-6q-148 -86 -179 -137q-18 -29 -18 -58z" glyph-name="eogonek.aalt" horiz-adv-x="1116"/><glyph d="M1194 1176v-1108q0 -86 -9 -131t-45 -93t-112 -76q-76 -30 -207 -61l-80 180q111 33 152 56t51 59l-547 838v-840h-243v1176h249l547 -840v840h244z" glyph-name="eng.aalt" horiz-adv-x="1347"/><glyph d="M276 1319v154h619v-154h-619zM1024 0h-870v1176h860v-203h-617v-285h506v-201h-506v-284h627v-203z" glyph-name="emacron.aalt" horiz-adv-x="1116"/><glyph d="M762 -307h-639v860h631v-156h-445v-198h367v-152h-367v-199h453v-155z" glyph-name="E.sinf" horiz-adv-x="835"/><glyph d="M780 1268h-207l-348 276h301zM1024 0h-870v1176h860v-203h-617v-285h506v-201h-506v-284h627v-203z" glyph-name="egrave.aalt" horiz-adv-x="1116"/><glyph d="M559 -307v78q-141 -92 -264 -93q-201 0 -201 205v455h178v-416q0 -104 93 -104q98 0 194 82v438h178v-645h-178z" glyph-name="u.sinf" horiz-adv-x="839"/><glyph d="M479 1288v219h215v-219h-215zM1024 0h-870v1176h860v-203h-617v-285h506v-201h-506v-284h627v-203z" glyph-name="edotaccent.aalt" horiz-adv-x="1116"/><glyph d="M664 1288v219h210v-219h-210zM299 1288v219h215v-219h-215zM1024 0h-870v1176h860v-203h-617v-285h506v-201h-506v-284h627v-203z" glyph-name="edieresis.aalt" horiz-adv-x="1116"/><glyph d="M717 1544l211 -276h-178l-164 159l-160 -159h-180l213 276h258zM1024 0h-870v1176h860v-203h-617v-285h506v-201h-506v-284h627v-203z" glyph-name="ecircumflex.aalt" horiz-adv-x="1116"/><glyph d="M928 1544l-211 -276h-258l-213 276h180l160 -160l164 160h178zM1024 0h-870v1176h860v-203h-617v-285h506v-201h-506v-284h627v-203z" glyph-name="ecaron.aalt" horiz-adv-x="1116"/><glyph d="M440 -350v229h203l21 -250l-177 -219l-57 66l102 174h-92zM1034 969h-370v-969h-246v969h-373v207h989v-207z" glyph-name="uni021A.aalt" horiz-adv-x="1079"/><glyph d="M604 1268h-209l254 276h303zM1024 0h-870v1176h860v-203h-617v-285h506v-201h-506v-284h627v-203z" glyph-name="eacute.aalt" horiz-adv-x="1116"/><glyph d="M1024 0h-870v1176h860v-203h-617v-285h506v-201h-506v-284h627v-203z" glyph-name="e.sc" horiz-adv-x="1116"/><glyph d="M512 709l98 -406l109 406h-207zM1171 709l111 -410l100 410h-211zM106 412v139h201l-47 158h-156v141h115l-96 326h274l80 -326h281l88 326h201l88 -326h280l80 326h277l-97 -326h113v-141h-156l-47 -158h203v-139h-244l-121 -412h-243l-234 846l-233 -846h-242l-123 412 h-242z" glyph-name="uni20A9.oldstyle" horiz-adv-x="1890"/><glyph d="M379 217l70 -291l77 291h-147zM854 217l78 -293l69 293h-147zM78 -4v106h143l-33 115h-110v105h80l-68 231h209l55 -231h199l63 231h150l61 -231h199l55 231h211l-67 -231h78v-105h-109l-35 -115h144v-106h-175l-88 -303h-184l-166 608l-166 -608h-182l-90 303h-174z" glyph-name="uni20A9.sinf" horiz-adv-x="1382"/><glyph d="M379 1313l70 -291l77 291h-147zM854 1313l78 -293l69 293h-147zM78 1092v106h143l-33 115h-110v104h80l-68 232h209l55 -232h199l63 232h150l61 -232h199l55 232h211l-67 -232h78v-104h-109l-35 -115h144v-106h-175l-88 -304h-184l-166 609l-166 -609h-182l-90 304h-174z " glyph-name="uni20A9.ordn" horiz-adv-x="1384"/><glyph d="M426 944q145 0 214 62t69 212q0 151 -70 213t-213 62h-115v-549h115zM895 1219q0 -223 -115 -327t-336 -104h-321v861h321q221 1 336 -103t115 -327z" glyph-name="D.ordn" horiz-adv-x="972"/><glyph d="M1360 252v139h596v-139h-596zM1815 813q0 186 -159 186t-159 -186t160 -186q84 0 121 46t37 140zM2007 812q0 -169 -90 -258t-260 -89t-259 89t-89 258t89 259t259 90t260 -90t90 -259zM403 0h-243v1176h252l546 -840v840h244v-1176h-248l-551 842v-842z" glyph-name="afii61352.oldstyle" horiz-adv-x="2101"/><glyph d="M1360 252v139h596v-139h-596zM1815 813q0 186 -159 186t-159 -186t160 -186q84 0 121 46t37 140zM2007 812q0 -169 -90 -258t-260 -89t-259 89t-89 258t89 259t259 90t260 -90t90 -259zM403 0h-243v1176h252l546 -840v840h244v-1176h-248l-551 842v-842z" glyph-name="afii61352.sc" horiz-adv-x="2099"/><glyph d="M426 -152q145 0 214 62t69 212q0 151 -70 213t-213 62h-115v-549h115zM895 123q0 -225 -115 -327t-336 -103h-321v860h321q221 -1 336 -103t115 -327z" glyph-name="D.sinf" horiz-adv-x="972"/><glyph d="M168 588q0 -238 143 -390t397 -153q254 0 399 153q144 152 144 390t-144 390t-398 152q-253 0 -397 -152t-144 -390zM98 588q0 264 163 435t449 171t446 -171t161 -435q0 -264 -161 -435q-160 -171 -446 -171t-449 171t-163 435zM762 582q162 0 162 144t-162 144h-156 v-288h156zM762 940q248 0 248 -216t-248 -216h-156v-275h-86v707h242z" glyph-name="uni2117.aalt" horiz-adv-x="1415"/><glyph d="M987 588q0 209 -96 295t-299 86h-168v-285h268v-192h-268v-285h168q203 0 299 86t96 295zM1231 588q0 -308 -157 -448t-462 -140h-432v492h-133v192h133v492h432q305 0 462 -140t157 -448z" glyph-name="dcroat.aalt" horiz-adv-x="1327"/><glyph d="M1020 1544l-211 -276h-258l-213 276h180l160 -160l162 160h180zM961 588q-1 211 -97 298t-299 87h-168v-770h168q205 0 301 87t95 298zM1208 588q0 -307 -158 -448q-159 -140 -464 -140h-432v1176h432q306 0 464 -140t158 -448z" glyph-name="dcaron.aalt" horiz-adv-x="1304"/><glyph d="M961 588q-1 209 -97 295t-299 86h-168v-762h168q203 0 299 86t97 295zM1208 588q0 -307 -158 -448q-159 -140 -464 -140h-432v1176h432q306 0 464 -140t158 -448z" glyph-name="d.sc" horiz-adv-x="1304"/><glyph d="M559 788v76q-137 -90 -264 -90q-201 0 -201 205v455h178v-416q0 -104 93 -105q104 0 194 82v439h178v-646h-178z" glyph-name="u.ordn" horiz-adv-x="839"/><glyph d="M478 1495q-99 0 -152 -74q-54 -75 -54 -203t54 -203t150 -75q97 0 269 94l89 -137q-229 -123 -388 -123t-263 114q-103 114 -103 331t103 331t265 113q162 0 386 -125l-89 -135q-168 92 -267 92z" glyph-name="C.ordn" horiz-adv-x="890"/><glyph d="M478 399q-99 1 -152 -73q-54 -74 -54 -203t54 -204t150 -75q97 0 269 95l89 -138q-229 -123 -388 -123t-263 114q-103 114 -103 331t103 331q210 233 651 -12l-89 -135q-168 92 -267 92z" glyph-name="C.sinf" horiz-adv-x="890"/><glyph d="M457 -307h-176l-269 645h193l164 -469l166 469h192z" glyph-name="v.sinf" horiz-adv-x="739"/><glyph d="M457 788h-176l-269 646h193l164 -471l166 471h192z" glyph-name="v.ordn" horiz-adv-x="741"/><glyph d="M522 1288v219h215v-219h-215zM636 975q-136 1 -213 -103t-77 -284t77 -284t216 -103q139 0 371 129l116 -178q-303 -170 -525 -170t-363 154t-142 452q0 298 142 452t364 154q223 0 524 -172l-116 -176q-238 129 -374 129z" glyph-name="cdotaccent.aalt" horiz-adv-x="1191"/><glyph d="M598 -139q0 59 -47 123q-205 18 -330 171t-125 443t142 442q142 154 364 154q223 0 524 -172l-116 -176q-238 129 -374 129q-136 1 -213 -103t-77 -284t77 -284t216 -103q139 0 371 129l116 -178q-264 -150 -456 -166q68 -92 68 -177t-64 -131t-160 -47q-96 0 -176 41 l55 133q53 -27 101 -26q104 0 104 82z" glyph-name="ccedilla.aalt" horiz-adv-x="1191"/><glyph d="M979 1544l-211 -276h-258l-211 276h178l162 -160l164 160h176zM636 975q-136 1 -213 -103t-77 -284t77 -284t216 -103q139 0 371 129l116 -178q-303 -170 -525 -170t-363 154t-142 452q0 298 142 452t364 154q223 0 524 -172l-116 -176q-238 129 -374 129z" glyph-name="ccaron.aalt" horiz-adv-x="1191"/><glyph d="M692 1268h-207l254 276h301zM636 975q-136 1 -213 -103t-77 -284t77 -284t216 -103q139 0 371 129l116 -178q-303 -170 -525 -170t-363 154t-142 452q0 298 142 452t364 154q223 0 524 -172l-116 -176q-238 129 -374 129z" glyph-name="cacute.aalt" horiz-adv-x="1191"/><glyph d="M636 975q-136 1 -213 -103t-77 -284t77 -284t216 -103q139 0 371 129l116 -178q-303 -170 -525 -170t-363 154t-142 452q0 298 142 452t364 154q223 0 524 -172l-116 -176q-238 129 -374 129z" glyph-name="c.sc" horiz-adv-x="1191"/><glyph d="M680 -307l-137 442l-140 -442h-167l-211 645h190l117 -467l135 467h149l136 -463l116 463h191l-207 -645h-172z" glyph-name="w.sinf" horiz-adv-x="1083"/><glyph d="M506 930q178 0 178 121t-205 120h-170v-241h197zM635 1409q0 96 -162 96h-164v-200h160q166 0 166 104zM866 1020q0 -231 -323 -232h-420v861h360q336 0 336 -211q0 -80 -49 -130t-102 -61q72 -11 135 -67t63 -160z" glyph-name="B.ordn" horiz-adv-x="937"/><glyph d="M506 -166q178 0 178 121t-205 121h-170v-242h197zM635 313q0 96 -162 97h-164v-201h160q166 0 166 104zM866 -76q0 -231 -323 -231h-420v860h360q336 0 336 -211q0 -80 -49 -130t-102 -60q72 -10 135 -67t63 -161z" glyph-name="B.sinf" horiz-adv-x="937"/><glyph d="M569 -307l-170 233l-168 -233h-213l271 321l-258 324h207l161 -232l160 232h207l-258 -324l272 -321h-211z" glyph-name="x.sinf" horiz-adv-x="800"/><glyph d="M680 188q248 0 248 170t-291 170h-240v-340h283zM858 848q0 137 -229 137h-232v-280h226q235 0 235 143zM1167 312q-1 -146 -111 -230q-110 -82 -331 -82h-571v1176h487q225 0 342 -74t117 -213q0 -111 -67 -181t-140 -81q98 -13 186 -91t88 -224z" glyph-name="b.sc" horiz-adv-x="1253"/><glyph d="M649 965l-188 -535h377zM510 1538q55 0 149 -49t123 -49q51 0 105 94l119 -57q-46 -99 -94 -149t-114 -50t-160 49t-124 49q-51 0 -104 -94l-119 55q35 68 56 103q22 34 65 66t98 32zM989 0l-84 236h-514l-82 -236h-266l471 1176h270l471 -1176h-266z" glyph-name="atilde.aalt" horiz-adv-x="1298"/><glyph d="M463 1493l-133 -389h264zM702 788l-59 170h-364l-58 -170h-203l340 861h207l340 -861h-203z" glyph-name="A.ordn" horiz-adv-x="925"/><glyph d="M553 1470q0 -40 28 -68q29 -28 69 -28t68 28t28 68t-29 69q-29 28 -69 28t-68 -28t-27 -69zM649 965l-188 -535h377zM648 1247q-94 1 -158 65t-64 157t64 159q65 66 158 66t159 -66q65 -66 65 -159t-66 -157t-158 -65zM989 0l-84 236h-514l-82 -236h-266l471 1176h270 l471 -1176h-266z" glyph-name="aring.aalt" horiz-adv-x="1298"/><glyph d="M649 965l-188 -535h377zM1055 -195q0 -71 105 -71h54l-28 -123q-172 0 -238 43t-65 127q0 123 200 219h-94l-84 236h-514l-82 -236h-266l471 1176h270l471 -1176h-6q-59 -35 -89 -54q-30 -20 -68 -62t-37 -79z" glyph-name="aogonek.aalt" horiz-adv-x="1298"/><glyph d="M340 1319v154h618v-154h-618zM649 965l-188 -535h377zM989 0l-84 236h-514l-82 -236h-266l471 1176h270l471 -1176h-266z" glyph-name="amacron.aalt" horiz-adv-x="1298"/><glyph d="M182 481v140h232l-353 555h275l297 -523l301 523h272l-352 -555h231v-140h-319l-10 -16v-80h329v-139h-329l2 -246h-244v246h-332v139h332v76l-12 20h-320z" glyph-name="yen.oldstyle" horiz-adv-x="1269"/><glyph d="M121 49v105h160l-250 399h207l211 -377l210 377h207l-252 -399h162v-105h-227l-8 -14v-60h235v-104h-235v-178h-185v178h-235v104h235v60l-10 14h-225z" glyph-name="yen.sinf" horiz-adv-x="897"/><glyph d="M121 1145v104h160l-250 400h207l211 -377l210 377h207l-252 -400h162v-104h-227l-8 -15v-59h235v-104h-235v-179h-185v179h-235v104h235v59l-10 15h-225z" glyph-name="yen.ordn" horiz-adv-x="899"/><glyph d="M463 397l-133 -389h264zM702 -307l-59 170h-364l-58 -170h-203l340 860h207l340 -860h-203z" glyph-name="A.sinf" horiz-adv-x="925"/><glyph d="M12 338h193l164 -434l166 434h192l-373 -895h-192l114 254z" glyph-name="y.sinf" horiz-adv-x="739"/><glyph d="M844 1268h-209l-346 276h301zM649 965l-188 -535h377zM989 0l-84 236h-514l-82 -236h-266l471 1176h270l471 -1176h-266z" glyph-name="agrave.aalt" horiz-adv-x="1298"/><glyph d="M725 1288v219h213v-219h-213zM362 1288v219h216v-219h-216zM649 965l-188 -535h377zM989 0l-84 236h-514l-82 -236h-266l471 1176h270l471 -1176h-266z" glyph-name="adieresis.aalt" horiz-adv-x="1298"/><glyph d="M649 965l-188 -535h377zM778 1544l213 -276h-180l-162 159l-160 -159h-180l213 276h256zM989 0l-84 236h-514l-82 -236h-266l471 1176h270l471 -1176h-266z" glyph-name="acircumflex.aalt" horiz-adv-x="1298"/><glyph d="M649 1268q-151 0 -235 64t-84 175h162q0 -96 158 -96t159 96h162q0 -111 -85 -175t-237 -64zM649 965l-188 -535h377zM989 0l-84 236h-514l-82 -236h-266l471 1176h270l471 -1176h-266z" glyph-name="abreve.aalt" horiz-adv-x="1298"/><glyph d="M668 1268h-209l254 276h303zM649 965l-188 -535h377zM989 0l-84 236h-514l-82 -236h-266l471 1176h270l471 -1176h-266z" glyph-name="aacute.aalt" horiz-adv-x="1298"/></font>
</defs>
</svg>
