<?xml version="1.0" standalone="no"?>
<!DOCTYPE svg PUBLIC "-//W3C//DTD SVG 1.1//EN" "http://www.w3.org/Graphics/SVG/1.1/DTD/svg11.dtd" >
<svg xmlns="http://www.w3.org/2000/svg">
<metadata></metadata>
<defs>
<font id="verbbold" horiz-adv-x="1304" >
<font-face units-per-em="2048" ascent="1638" descent="-410" />
<missing-glyph horiz-adv-x="555" />
<glyph unicode="&#xfb01;" horiz-adv-x="1333" d="M45 858v217h148v55q0 186 77 274.5t230 88.5q74 0 155.5 -21.5t135.5 -46.5l-70 -215q-96 29 -143 29q-42 0 -67.5 -20.5t-25.5 -79.5v-64h269v-217h-269v-858h-292v858h-148zM905 1231v256h312v-256h-312zM911 0v1075h295v-1075h-295z" />
<glyph unicode="&#xfb02;" horiz-adv-x="1343" d="M45 858v217h148v55q0 186 77 274.5t230 88.5q74 0 155.5 -21.5t135.5 -46.5l-70 -215q-96 29 -143 29q-42 0 -67.5 -20.5t-25.5 -79.5v-64h269v-217h-269v-858h-292v858h-148zM918 0v1493h292v-1493h-292z" />
<glyph unicode="&#xfb03;" horiz-adv-x="2109" d="M45 858v217h148v55q0 187 77 275t234 88q91 0 190 -26.5t172 -57.5l-78 -211q-160 41 -210 41q-42 0 -67.5 -20.5t-25.5 -79.5v-64h242v-217h-242v-858h-292v858h-148zM821 858v217h148v55q0 186 77 274.5t230 88.5q74 0 155.5 -21.5t135.5 -46.5l-70 -215 q-101 29 -143 29t-67 -20t-25 -80v-64h268v-217h-268v-858h-293v858h-148zM1681 1231v256h312v-256h-312zM1688 0v1075h294v-1075h-294z" />
<glyph unicode="&#xfb04;" horiz-adv-x="2119" d="M45 858v217h148v55q0 187 77 275t234 88q91 0 190 -26.5t172 -57.5l-78 -211q-160 41 -210 41q-42 0 -67.5 -20.5t-25.5 -79.5v-64h242v-217h-242v-858h-292v858h-148zM821 858v217h148v55q0 186 77 274.5t230 88.5q74 0 155.5 -21.5t135.5 -46.5l-70 -215 q-101 29 -143 29t-67 -20t-25 -80v-64h268v-217h-268v-858h-293v858h-148zM1692 0v1493h295v-1493h-295z" />
<glyph horiz-adv-x="2048" />
<glyph horiz-adv-x="2048" />
<glyph unicode="&#xd;" horiz-adv-x="2048" />
<glyph unicode=" "  horiz-adv-x="555" />
<glyph unicode="&#x09;" horiz-adv-x="555" />
<glyph unicode="&#xa0;" horiz-adv-x="555" />
<glyph unicode="!" horiz-adv-x="579" d="M111 1434h358l-90 -930h-178zM137 0v311h305v-311h-305z" />
<glyph unicode="&#x22;" horiz-adv-x="892" d="M90 1434h283l-49 -560h-187zM520 1434h281l-49 -560h-185z" />
<glyph unicode="#" horiz-adv-x="1513" d="M78 324v223h272l53 340h-239v223h272l51 324h228l-51 -324h305l51 324h227l-51 -324h240v-223h-273l-53 -340h240v-223h-273l-49 -324h-229l49 324h-303l-49 -324h-230l49 324h-237zM578 547h305l53 340h-305z" />
<glyph unicode="$" horiz-adv-x="1327" d="M74 170l137 219q157 -91 354 -139v348l-86 31q-59 21 -104.5 42t-98.5 57t-88 77t-58.5 102t-23.5 133q0 174 122.5 287.5t336.5 126.5v186h215v-196q231 -37 426 -135l-137 -224q-133 63 -289 99v-330q38 -12 78 -27q62 -22 107.5 -42t103.5 -57.5t95 -79.5t63 -106.5 t26 -140.5q0 -180 -128.5 -293.5t-344.5 -127.5v-185h-215v195q-138 20 -267.5 70t-223.5 110zM428 1061q0 -50 34.5 -82t102.5 -57v272q-62 -11 -99.5 -44.5t-37.5 -88.5zM780 236q68 13 110 49t42 94q0 51 -38 84.5t-114 64.5v-292z" />
<glyph unicode="%" horiz-adv-x="2066" d="M70 1071q0 182 105 283.5t292 101.5t292 -101.5t105 -283.5q0 -180 -105 -281.5t-292 -101.5t-292 101.5t-105 281.5zM291 1071q0 -99 45.5 -150t130.5 -51q84 0 130 51t46 150t-46 151t-130 52q-85 0 -130.5 -52t-45.5 -151zM547 0l743 1434h232l-744 -1434h-231z M1206 360q0 182 104.5 283.5t291.5 101.5t292 -101.5t105 -283.5q0 -180 -105 -281.5t-292 -101.5t-291.5 101.5t-104.5 281.5zM1427 360q0 -99 45.5 -149.5t129.5 -50.5q86 0 132 50.5t46 149.5t-46.5 151t-131.5 52q-84 0 -129.5 -52t-45.5 -151z" />
<glyph unicode="&#x26;" horiz-adv-x="1480" d="M111 360q0 68 23 127.5t67 109t91 87.5t111 78q-90 92 -139 173.5t-49 178.5q0 105 57.5 184t152 118.5t210.5 39.5q180 0 291.5 -93t111.5 -233q0 -60 -21.5 -115t-63 -104t-85 -87.5t-104.5 -82.5l258 -260q77 135 86 275h297q-15 -107 -64 -230.5t-131 -230.5 l297 -295h-342l-123 123q-199 -146 -450 -146q-207 0 -344 107t-137 276zM401 373q0 -68 54.5 -121t158.5 -53q128 0 254 98l-303 303q-79 -61 -121.5 -115t-42.5 -112zM481 1104q0 -53 33 -102.5t94 -110.5q79 53 121.5 104.5t42.5 112.5q0 54 -36 95.5t-105 41.5 q-70 0 -110 -42t-40 -99z" />
<glyph unicode="'" horiz-adv-x="464" d="M90 1434h283l-49 -560h-187z" />
<glyph unicode="(" horiz-adv-x="679" d="M125 188v1047q0 71 1.5 107t9.5 87t25.5 78t48.5 62t79.5 57.5t117 46.5t162.5 45l76 -168q-46 -16 -78 -29.5t-56 -26t-38.5 -28.5t-23.5 -29.5t-13 -37t-5 -42.5t-1 -54v-1180q0 -41 1.5 -62t8 -47.5t19.5 -40.5t37.5 -32t59.5 -33t89 -33l-76 -168q-94 21 -162.5 45 t-117 46t-79.5 57t-48.5 61.5t-25.5 77.5t-9.5 87t-1.5 107z" />
<glyph unicode=")" horiz-adv-x="679" d="M37 -125q53 18 88 33t59.5 33t37 32t19 40.5t8 47.5t1.5 62v1180q0 41 -1.5 62t-8 47t-19 40t-37.5 32t-59.5 33t-87.5 33l76 168q83 -19 145.5 -37.5t109 -43.5t78.5 -44.5t53 -54t32.5 -58t16.5 -72t6 -79t1 -94.5v-1047q0 -64 -1 -94.5t-6.5 -78.5t-16.5 -71.5 t-32 -58t-53 -54t-78.5 -44t-109 -43t-145.5 -37.5z" />
<glyph unicode="*" horiz-adv-x="976" d="M84 938l322 88l-322 92l125 213l237 -233l-81 319h247l-82 -319l236 233l123 -215l-309 -88l309 -90l-123 -215l-231 223l77 -311h-247l81 321l-239 -231z" />
<glyph unicode="+" d="M125 571v224h414v372h223v-372h416v-224h-416v-372h-223v372h-414z" />
<glyph unicode="," horiz-adv-x="544" d="M111 -227l145 227h-137v338h301l22 -375l-249 -291z" />
<glyph unicode="-" horiz-adv-x="890" d="M121 463v239h649v-239h-649z" />
<glyph unicode="." horiz-adv-x="540" d="M117 0v338h307v-338h-307z" />
<glyph unicode="/" horiz-adv-x="976" d="M39 -184l674 1802h225l-674 -1802h-225z" />
<glyph unicode="0" horiz-adv-x="1390" d="M98 717q0 353 154 546t446 193t444 -192.5t152 -546.5t-153 -547t-445 -193t-445 193t-153 547zM410 717q0 -256 71 -379t215 -123q289 0 289 502q0 256 -71.5 378t-215.5 122t-216 -122.5t-72 -377.5z" />
<glyph unicode="1" horiz-adv-x="847" d="M12 1217l387 217h289v-1434h-305v1147l-250 -131z" />
<glyph unicode="2" horiz-adv-x="1253" d="M72 0v141q0 71 17 135.5t51 119.5t72 100t94.5 91t102.5 78t111 74q20 13 63.5 40t62 39.5t52.5 36t49.5 37t38 35.5t32 39t17 39t7.5 44q0 66 -55.5 109.5t-157.5 43.5q-166 0 -383 -133l-137 199q265 188 561 188q229 0 355 -110.5t126 -284.5q0 -56 -15 -108.5 t-36 -93.5t-60 -83t-71 -70.5t-85.5 -65t-86.5 -56.5t-91 -54q-16 -9 -24 -14q-62 -37 -98 -61.5t-74.5 -58t-56 -68.5t-17.5 -74h717v-254h-1081z" />
<glyph unicode="3" horiz-adv-x="1259" d="M43 156l135 209q239 -129 424 -129q118 0 188 49t70 137q0 63 -39.5 107.5t-104.5 66t-128.5 30.5t-132.5 9h-64v256h74q59 0 113.5 8.5t106.5 27t83 54t31 84.5q0 64 -50 100.5t-143 36.5q-166 0 -373 -121l-127 193q250 182 547 182q221 0 337 -99t116 -247 q0 -108 -63 -189.5t-179 -129.5q134 -39 220.5 -141t86.5 -232q0 -67 -17.5 -129t-58 -119.5t-100.5 -100t-151 -67.5t-203 -25q-303 0 -598 179z" />
<glyph unicode="4" horiz-adv-x="1380" d="M47 276v216l653 942h406v-904h217v-254h-217v-276h-307v276h-752zM360 530h439v648z" />
<glyph unicode="5" horiz-adv-x="1239" d="M59 154l136 221q201 -135 376 -135q118 0 196.5 61t78.5 164q0 95 -70 160t-198 65q-132 0 -283 -80l-168 103l78 721h897v-254h-643l-19 -273q105 31 209 31q123 0 221.5 -38.5t160 -104.5t94 -150.5t32.5 -179.5q0 -97 -34 -183t-99 -155t-171.5 -109.5t-240.5 -40.5 q-280 0 -553 177z" />
<glyph unicode="6" horiz-adv-x="1300" d="M92 588q-1 198 64 363t178 274.5t267 170t331 60.5q56 0 109 -5.5t79 -10.5l25 -6l-72 -240q-63 12 -139 12q-80 0 -154 -21.5t-143.5 -66.5t-123.5 -125t-83 -188q55 48 143 83.5t201 35.5q206 0 333.5 -125.5t127.5 -323.5q0 -101 -38 -191t-107 -158.5t-173.5 -108.5 t-230.5 -40q-150 0 -266.5 51.5t-186.5 139t-105.5 194.5t-35.5 226zM401 555q0 -153 78.5 -240.5t198.5 -87.5q123 0 187.5 71t64.5 167t-65.5 162.5t-182.5 66.5q-98 0 -173 -43t-108 -96z" />
<glyph unicode="7" horiz-adv-x="1091" d="M49 1180v254h1008v-236q-11 -13 -29.5 -37t-72.5 -100t-103.5 -155t-109.5 -194t-103 -225t-72.5 -240t-29.5 -247h-318q0 149 49 321t112.5 304.5t144.5 265.5t124.5 192.5t73.5 96.5h-674z" />
<glyph unicode="8" horiz-adv-x="1331" d="M76 385q0 61 18 114.5t46.5 93.5t71.5 76t86.5 61.5t96.5 49.5q-229 127 -229 324q0 158 133.5 255t366.5 97t367 -97t134 -255q0 -195 -231 -324q67 -31 119 -64.5t100 -81t74 -111t26 -138.5q0 -189 -157.5 -298.5t-431.5 -109.5t-432 109.5t-158 298.5zM387 408 q0 -88 78.5 -142.5t200.5 -54.5q123 0 201.5 54.5t78.5 142.5q0 45 -22 84t-64 70t-87.5 54.5t-106.5 47.5q-61 -24 -106.5 -47.5t-87 -54.5t-63.5 -70t-22 -84zM465 1075q0 -36 17 -67.5t48.5 -55t63 -39.5t72.5 -32q42 16 73 32t63 39.5t49 55t17 67.5q0 61 -55.5 108.5 t-146.5 47.5q-90 0 -145.5 -47.5t-55.5 -108.5z" />
<glyph unicode="9" horiz-adv-x="1302" d="M68 958q0 101 38 191t107 158.5t174 108.5t231 40q149 0 265.5 -51.5t186 -138.5t105 -194t35.5 -226q1 -198 -63.5 -363t-177.5 -275t-266.5 -170.5t-329.5 -60.5q-56 0 -110 5.5t-79 11.5l-26 6l73 240q62 -13 138 -13q63 0 122 12.5t118.5 42.5t108.5 75t89 115 t63 157q-138 -119 -342 -119q-206 0 -333 125t-127 323zM373 969q0 -97 65.5 -163.5t182.5 -66.5q97 0 170.5 43t109.5 97q0 153 -77.5 240t-196.5 87q-124 0 -189 -70.5t-65 -166.5z" />
<glyph unicode=":" horiz-adv-x="561" d="M129 0v338h305v-338h-305zM129 645v338h305v-338h-305z" />
<glyph unicode=";" horiz-adv-x="577" d="M127 -227l145 227h-137v338h301l23 -375l-250 -291zM135 645v338h303v-338h-303z" />
<glyph unicode="&#x3c;" d="M96 582v202l1051 420v-252l-737 -268l737 -272v-250z" />
<glyph unicode="=" d="M125 379v223h1053v-223h-1053zM125 768v223h1053v-223h-1053z" />
<glyph unicode="&#x3e;" d="M156 162v250l735 272l-735 268v252l1052 -420v-202z" />
<glyph unicode="?" horiz-adv-x="1103" d="M59 1294q250 162 504 162q203 0 335 -101t132 -272q0 -76 -26.5 -140t-69 -109t-105.5 -82.5t-127.5 -61t-142.5 -43.5l-16 -184h-187l-16 342q209 43 296 91t87 140q0 73 -55.5 119.5t-153.5 46.5q-145 0 -326 -112zM299 0v311h303v-311h-303z" />
<glyph unicode="@" horiz-adv-x="1959" d="M88 518q0 191 63.5 353.5t180 281t291 185.5t387.5 67q209 0 375.5 -66t275 -184t165.5 -279.5t58 -355.5q-1 -119 -24 -219.5t-69.5 -183.5t-128 -130.5t-189.5 -47.5q-61 0 -110.5 16.5t-80 42t-52.5 60t-32 65t-14 61.5q-149 -137 -336 -137q-134 0 -225 79.5 t-91 225.5q0 149 94.5 229.5t239.5 80.5q47 0 105 -8.5t128.5 -23t82.5 -16.5v88q0 91 -38 129.5t-134 38.5q-153 0 -338 -79l-76 153q247 94 453 94q177 0 262.5 -81t85.5 -257v-348q0 -46 1 -73.5t4.5 -63.5t12 -57t22 -41.5t35.5 -29.5t52 -9q45 0 87.5 25t79.5 75.5 t60 140.5t23 207q0 129 -29 243.5t-90.5 212t-151 167.5t-216 109.5t-279.5 39.5q-193 0 -348 -61t-254.5 -167.5t-152 -247.5t-52.5 -304q0 -222 90.5 -398t262 -278t396.5 -102q69 0 134.5 9t109.5 21.5t78.5 25t50.5 21.5l16 9l68 -86q-6 -4 -18.5 -11.5t-56.5 -26 t-93 -32.5t-128.5 -25.5t-164.5 -11.5q-189 0 -350 67.5t-272 185t-173.5 281t-62.5 351.5zM752 369q0 -78 44 -116t117 -38q135 0 269 121v166q-11 2 -50 9t-64.5 11.5t-62.5 8.5t-65 4q-96 0 -142 -45.5t-46 -120.5z" />
<glyph unicode="A" horiz-adv-x="1452" d="M18 0l541 1434h336l539 -1434h-332l-92 285h-566l-92 -285h-334zM522 526h408l-205 631z" />
<glyph unicode="B" horiz-adv-x="1415" d="M154 0v1434h577q264 0 399.5 -89.5t135.5 -259.5q0 -71 -24 -131.5t-61 -98t-76 -60.5t-75 -29q37 -6 75.5 -21t82 -45.5t77.5 -71.5t56 -104.5t22 -138.5q0 -182 -129 -283.5t-389 -101.5h-671zM461 238h303q138 0 207 52t69 146q0 205 -317 205h-262v-403zM461 862h246 q120 0 188 43t68 129q0 162 -250 162h-252v-334z" />
<glyph unicode="C" horiz-adv-x="1339" d="M90 717q0 185 45 328t125.5 232t187 134t234.5 45q155 0 297 -54.5t311 -152.5l-143 -225q-131 75 -233.5 116.5t-196.5 41.5q-146 0 -228.5 -124.5t-82.5 -340.5t82.5 -340.5t228.5 -124.5q94 0 196.5 41.5t233.5 116.5l143 -226q-169 -98 -311 -152.5t-297 -54.5 q-128 0 -234.5 45t-187 134t-125.5 232.5t-45 328.5z" />
<glyph unicode="D" horiz-adv-x="1478" d="M154 0v1434h512q356 0 538 -171.5t182 -545.5t-182 -545.5t-538 -171.5h-512zM461 260h178q225 0 332.5 103t107.5 354t-107.5 354t-332.5 103h-178v-914z" />
<glyph unicode="E" horiz-adv-x="1261" d="M154 0v1434h1007v-260h-700v-330h573v-254h-573v-330h713v-260h-1020z" />
<glyph unicode="F" horiz-adv-x="1204" d="M154 0v1434h1007v-260h-700v-330h557v-256h-557v-588h-307z" />
<glyph unicode="G" horiz-adv-x="1458" d="M90 715q0 186 45.5 329.5t127 232.5t189 134t236.5 45q166 0 316 -56.5t321 -156.5l-145 -225q-71 39 -116 61.5t-108.5 50t-120 40t-110.5 12.5q-150 0 -234.5 -124.5t-84.5 -340.5q0 -220 81 -349.5t234 -129.5q152 0 332 161v181h-338v241h628v-821h-290v141 q-190 -164 -398 -164q-115 0 -215.5 45.5t-179.5 133.5t-124.5 232t-45.5 327z" />
<glyph unicode="H" horiz-adv-x="1492" d="M154 0v1434h307v-555h573v555h305v-1434h-305v625h-573v-625h-307z" />
<glyph unicode="I" horiz-adv-x="614" d="M154 0v1434h307v-1434h-307z" />
<glyph unicode="J" horiz-adv-x="614" d="M-84 -133q46 15 78.5 27t59 25.5t42.5 23t28 26t17.5 26.5t8.5 33t3.5 37.5t0.5 47.5v1321h307v-1305q0 -65 -1 -96.5t-6 -80.5t-16.5 -72.5t-32.5 -58.5t-53 -54.5t-79 -44.5t-110.5 -44t-146.5 -38z" />
<glyph unicode="K" horiz-adv-x="1419" d="M154 0v1434h307v-689l565 689h360l-575 -680l608 -754h-364l-428 537l-166 -197v-340h-307z" />
<glyph unicode="L" horiz-adv-x="1175" d="M154 0v1434h307v-1174h678v-260h-985z" />
<glyph unicode="M" horiz-adv-x="1755" d="M154 0v1434h313l412 -865l409 865h316v-1434h-308v942l-333 -702h-168l-334 700v-940h-307z" />
<glyph unicode="N" horiz-adv-x="1525" d="M154 0v1434h311l602 -979v979h305v-1434h-311l-600 975v-975h-307z" />
<glyph unicode="O" horiz-adv-x="1556" d="M90 717q0 127 23.5 236t76 202.5t131.5 159.5t195.5 103.5t261.5 37.5t261 -37.5t195 -103.5t131.5 -159.5t76.5 -202.5t24 -236q0 -126 -23.5 -235t-76.5 -203t-132 -160.5t-195 -104t-261 -37.5t-261.5 37.5t-195.5 104t-131.5 160.5t-76 202.5t-23.5 235.5zM406 717 q0 -107 20 -191t62.5 -149.5t115.5 -101t174 -35.5q100 0 173.5 35.5t116.5 101t63 150t20 190.5q0 84 -12.5 154.5t-40.5 131t-70.5 102.5t-106 65.5t-143.5 23.5q-81 0 -144.5 -23.5t-106 -65.5t-70 -102.5t-39.5 -131t-12 -154.5z" />
<glyph unicode="P" horiz-adv-x="1368" d="M154 0v1434h591q282 0 428 -115.5t146 -349.5q0 -232 -146 -346.5t-428 -114.5h-284v-508h-307zM461 760h270q62 0 109.5 10t86.5 33t60 64.5t21 101.5q0 211 -277 211h-270v-420z" />
<glyph unicode="Q" horiz-adv-x="1556" d="M90 717q0 127 23.5 236t76 202.5t131.5 159.5t195.5 103.5t261.5 37.5t261 -37.5t195 -103.5t131.5 -159.5t76.5 -202.5t24 -236q0 -242 -90 -420t-276 -260l223 -176l-203 -209l-342 325q-145 0 -261.5 37.5t-195.5 104t-131.5 160.5t-76 202.5t-23.5 235.5zM406 717 q0 -107 20 -191t62.5 -149.5t115.5 -101t174 -35.5q100 0 173.5 35.5t116.5 101t63 150t20 190.5q0 84 -12.5 154.5t-40.5 131t-70.5 102.5t-106 65.5t-143.5 23.5q-81 0 -144.5 -23.5t-106 -65.5t-70 -102.5t-39.5 -131t-12 -154.5z" />
<glyph unicode="R" horiz-adv-x="1441" d="M154 0v1434h634q576 0 576 -439q0 -350 -356 -422l358 -573h-330l-338 555h-237v-555h-307zM461 797h309q135 0 210 45t75 153t-74.5 152.5t-206.5 44.5h-313v-395z" />
<glyph unicode="S" d="M61 170l138 219q104 -60 250.5 -109t252.5 -49q92 0 155 38.5t63 109.5q0 28 -11.5 51t-35.5 41.5t-52 33.5t-71.5 30.5t-83 28t-96.5 31.5t-103 36q-58 19 -105 40t-99 56.5t-87.5 77t-58.5 102.5t-23 133q0 186 137 301t375 115q148 0 308 -42t280 -105l-137 -224 q-97 46 -221.5 81.5t-210.5 35.5q-90 0 -149.5 -35.5t-59.5 -105.5q0 -33 16.5 -58.5t42.5 -42.5t70.5 -34t86 -29t104.5 -31.5t112 -38.5q62 -22 107 -42t103 -57.5t94.5 -79.5t62.5 -106.5t26 -140.5q0 -191 -144 -307.5t-384 -116.5q-173 0 -351 58t-301 135z" />
<glyph unicode="T" horiz-adv-x="1224" d="M35 1174v260h1153v-260h-420v-1174h-307v1174h-426z" />
<glyph unicode="U" horiz-adv-x="1472" d="M139 578v856h307v-881q0 -71 12 -123t42.5 -97.5t89.5 -69t147 -23.5q86 0 145 23.5t89.5 68.5t42.5 97.5t12 123.5v881h305v-856q0 -88 -11 -161t-36.5 -143t-70.5 -122.5t-109 -92.5t-157 -61t-210 -21q-101 0 -184.5 16t-144.5 44.5t-108 71t-77 92.5t-49 112t-27 126 t-8 139z" />
<glyph unicode="V" horiz-adv-x="1447" d="M14 1434h355l352 -1100l354 1100h355l-539 -1434h-338z" />
<glyph unicode="W" horiz-adv-x="1986" d="M33 1434h348l227 -1026l260 1026h250l258 -1020l230 1020h350l-402 -1434h-305l-256 991l-258 -991h-303z" />
<glyph unicode="X" horiz-adv-x="1351" d="M10 0l482 721l-457 713h354l287 -531l289 531h354l-459 -713l483 -721h-364l-303 514l-301 -514h-365z" />
<glyph unicode="Y" horiz-adv-x="1357" d="M8 1434h344l326 -613l326 613h344l-519 -869l2 -565h-307v567z" />
<glyph unicode="Z" horiz-adv-x="1310" d="M66 0v236l755 938h-710v260h1108v-236l-756 -938h766v-260h-1163z" />
<glyph unicode="[" horiz-adv-x="741" d="M139 -293v2011h557v-176h-252v-1661h252v-174h-557z" />
<glyph unicode="\" horiz-adv-x="976" d="M39 1618h225l672 -1802h-223z" />
<glyph unicode="]" horiz-adv-x="741" d="M45 -119h250v1661h-250v176h555v-2011h-555v174z" />
<glyph unicode="^" d="M117 670l385 764h301l385 -764h-320l-217 489l-217 -489h-317z" />
<glyph unicode="_" horiz-adv-x="1454" d="M119 -147h1214v-211h-1214v211z" />
<glyph unicode="`" horiz-adv-x="479" d="M-57 1493h338l256 -283h-242z" />
<glyph unicode="a" horiz-adv-x="1220" d="M59 330q0 164 110.5 255t283.5 91q44 0 102 -7t92 -12.5t96.5 -18t65.5 -13.5v82q0 91 -42 129t-149 38q-77 0 -166.5 -19.5t-226.5 -61.5l-92 204q307 101 539 101q226 0 329 -93.5t103 -310.5v-694h-295v127q-162 -150 -377 -150q-161 0 -267 95.5t-106 257.5zM358 354 q0 -74 45 -110.5t121 -36.5q152 0 285 115v157q-172 35 -254 35q-98 0 -147.5 -42.5t-49.5 -117.5z" />
<glyph unicode="b" horiz-adv-x="1277" d="M127 0v1493h295v-539q77 67 163 105.5t197 38.5q190 0 304 -143t114 -418q0 -273 -114 -416.5t-304 -143.5q-194 0 -360 140v-117h-295zM422 352q57 -66 127.5 -101.5t144.5 -35.5q102 0 154.5 83t52.5 241q0 156 -52.5 238.5t-154.5 82.5q-74 0 -144.5 -36t-127.5 -103 v-369z" />
<glyph unicode="c" horiz-adv-x="1071" d="M74 539q0 140 40.5 249t109.5 175.5t155 100.5t184 34q65 0 133 -13t135 -37.5t104 -40t91 -40.5l-119 -217q-4 2 -33 15.5t-41 18.5t-40.5 17t-47 18t-44 13.5t-49 10.5t-44.5 3q-107 0 -170 -83.5t-63 -223.5t63 -225t170 -85q25 0 55 5.5t51.5 11.5t56.5 20t48 19.5 t49.5 22.5t38.5 18l119 -217q-270 -132 -463 -132q-98 0 -184 34.5t-155 101.5t-109.5 176.5t-40.5 249.5z" />
<glyph unicode="d" horiz-adv-x="1277" d="M76 537q0 276 113.5 418.5t304.5 142.5q110 0 195.5 -38.5t164.5 -105.5v539h295v-1493h-295v117q-79 -65 -164.5 -102.5t-195.5 -37.5q-191 0 -304.5 143.5t-113.5 416.5zM375 539q0 -158 52.5 -241t154.5 -83q153 0 272 137v369q-58 67 -129 103t-143 36 q-102 0 -154.5 -82.5t-52.5 -238.5z" />
<glyph unicode="e" horiz-adv-x="1191" d="M74 535q0 266 143.5 414.5t392.5 148.5q245 0 375.5 -130.5t130.5 -344.5q0 -38 -4 -75.5t-8 -55.5l-4 -19h-723q12 -135 72 -205.5t165 -70.5q148 0 396 131l112 -185q-47 -26 -67.5 -37t-86.5 -40.5t-116 -45t-123.5 -29.5t-142.5 -14q-108 0 -199.5 34.5t-162 101 t-110.5 175t-40 247.5zM379 633h448q1 126 -53.5 190t-161.5 64q-101 0 -159.5 -65t-73.5 -189z" />
<glyph unicode="f" horiz-adv-x="784" d="M45 858v217h148v55q0 187 77 275t234 88q91 0 190 -26.5t172 -57.5l-98 -211q-144 41 -190 41q-42 0 -67.5 -20.5t-25.5 -79.5v-64h269v-217h-269v-858h-292v858h-148z" />
<glyph unicode="g" horiz-adv-x="1277" d="M76 537q0 276 113.5 418.5t304.5 142.5q110 0 195.5 -38.5t164.5 -105.5v121h295v-1079q0 -223 -116 -328.5t-349 -105.5q-120 0 -273 23.5t-288 62.5l59 235q115 -34 241.5 -59t203.5 -25q124 0 175.5 43t51.5 140v135q-79 -65 -164.5 -102.5t-195.5 -37.5 q-191 0 -304.5 143.5t-113.5 416.5zM375 539q0 -158 52.5 -241t154.5 -83q153 0 272 137v369q-58 67 -129 103t-143 36q-102 0 -154.5 -82.5t-52.5 -238.5z" />
<glyph unicode="h" horiz-adv-x="1280" d="M127 0v1493h295v-547q216 152 418 152q166 0 243.5 -89.5t77.5 -248.5v-760h-295v692q0 84 -31 130t-110 46q-76 0 -160.5 -42.5t-142.5 -96.5v-729h-295z" />
<glyph unicode="i" horiz-adv-x="548" d="M121 1272v256h311v-256h-311zM129 0v1075h295v-1075h-295z" />
<glyph unicode="j" horiz-adv-x="548" d="M-113 -248q47 16 79 27.5t58.5 25.5t42.5 22.5t28 25.5t17.5 27t8.5 34.5t3.5 40t0.5 51.5v1069h295v-1046q0 -53 -0.5 -78t-3 -67.5t-8 -62.5t-16.5 -53t-27 -50t-39.5 -42t-55.5 -39.5t-74 -33.5t-95 -34t-119 -30zM117 1272v256h311v-256h-311z" />
<glyph unicode="k" horiz-adv-x="1167" d="M127 0v1493h295v-862l350 444h334l-363 -426l426 -649h-309l-293 440l-145 -172v-268h-295z" />
<glyph unicode="l" horiz-adv-x="559" d="M131 0v1493h295v-1493h-295z" />
<glyph unicode="m" horiz-adv-x="1912" d="M127 0v1075h295v-137q74 64 170.5 112t198.5 48q224 0 292 -185q69 69 175 127t219 58q317 0 317 -338v-760h-295v692q0 83 -27.5 129.5t-101.5 46.5q-69 0 -140.5 -43.5t-123.5 -101.5v-723h-293v692q0 40 -5.5 69.5t-19 55t-40.5 38.5t-66 13q-67 0 -137.5 -41.5 t-122.5 -97.5v-729h-295z" />
<glyph unicode="n" horiz-adv-x="1280" d="M127 0v1075h295v-129q216 152 418 152q166 0 243.5 -89.5t77.5 -248.5v-760h-295v692q0 84 -31 130t-110 46q-76 0 -160.5 -42.5t-142.5 -96.5v-729h-295z" />
<glyph unicode="o" horiz-adv-x="1259" d="M74 539q0 266 144.5 412.5t412.5 146.5q267 0 411 -147.5t144 -413.5t-144 -413t-411 -147q-268 0 -412.5 147.5t-144.5 414.5zM373 539q0 -160 63.5 -247t194.5 -87q130 0 194 86.5t64 245.5q0 160 -64 246.5t-194 86.5q-258 0 -258 -331z" />
<glyph unicode="p" horiz-adv-x="1277" d="M127 -418v1493h295v-121q77 67 163 105.5t197 38.5q190 0 304 -143t114 -418q0 -273 -114 -416.5t-304 -143.5q-194 0 -360 140v-535h-295zM422 352q57 -66 127.5 -101.5t144.5 -35.5q102 0 154.5 83t52.5 241q0 156 -52.5 238.5t-154.5 82.5q-74 0 -144.5 -36 t-127.5 -103v-369z" />
<glyph unicode="q" horiz-adv-x="1277" d="M76 537q0 276 113.5 418.5t304.5 142.5q110 0 195.5 -38.5t164.5 -105.5v121h295v-1493h-295v535q-79 -65 -164.5 -102.5t-195.5 -37.5q-191 0 -304.5 143.5t-113.5 416.5zM375 539q0 -158 52.5 -241t154.5 -83q153 0 272 137v369q-58 67 -129 103t-143 36 q-102 0 -154.5 -82.5t-52.5 -238.5z" />
<glyph unicode="r" horiz-adv-x="860" d="M127 0v1075h295v-225q10 23 24 48t48.5 63.5t76 66.5t109.5 46q53 14 112 14q16 0 33 -1v-276q-74 0 -136 -19t-102.5 -49.5t-72 -67t-48 -73t-27.5 -67t-14 -49.5l-3 -19v-467h-295z" />
<glyph unicode="s" horiz-adv-x="1091" d="M55 117l117 207q93 -46 215.5 -83.5t204.5 -37.5q67 0 107 24.5t40 63.5q0 18 -9.5 33.5t-29 28t-39.5 22t-51.5 19t-53.5 15t-57.5 14t-52.5 13.5q-59 15 -105.5 32t-98 45.5t-85.5 63.5t-56.5 86.5t-22.5 114.5q0 144 110.5 232t307.5 88q127 0 260 -35t233 -82 l-115 -193q-83 34 -185.5 60t-172.5 26q-66 0 -104.5 -24.5t-38.5 -63.5q0 -17 8 -32t25.5 -26.5t35.5 -20t47.5 -17t51 -14t57 -14t55.5 -13.5q65 -16 117 -34.5t103.5 -48.5t85.5 -66t55.5 -87.5t21.5 -113.5q0 -150 -116 -236t-316 -86q-145 0 -296.5 42t-252.5 98z" />
<glyph unicode="t" horiz-adv-x="862" d="M51 858v217h148v271l293 40v-311h292v-217h-292v-522q0 -61 25 -82t67 -21q47 0 168 50l104 -220q-189 -86 -346 -86q-156 0 -233.5 88t-77.5 275v518h-148z" />
<glyph unicode="u" horiz-adv-x="1280" d="M119 315v760h295v-692q0 -84 30 -130t109 -46q75 0 160.5 42t144.5 95v731h293v-1075h-293v129q-221 -152 -420 -152q-166 0 -242.5 89.5t-76.5 248.5z" />
<glyph unicode="v" horiz-adv-x="1191" d="M23 1075h317l254 -770l256 770h317l-426 -1075h-290z" />
<glyph unicode="w" horiz-adv-x="1718" d="M33 1075h313l178 -766l213 766h246l211 -766l180 766h312l-334 -1075h-277l-215 723l-215 -723h-278z" />
<glyph unicode="x" horiz-adv-x="1232" d="M6 0l428 539l-405 536h336l249 -370l248 370h338l-405 -536l430 -539h-348l-263 381l-260 -381h-348z" />
<glyph unicode="y" horiz-adv-x="1191" d="M25 1075h317l254 -721l254 721h319l-594 -1493h-315l186 420z" />
<glyph unicode="z" horiz-adv-x="1132" d="M68 0v207l587 624h-567v244h967v-207l-588 -624h588v-244h-987z" />
<glyph unicode="{" horiz-adv-x="808" d="M23 621v184q119 0 164 57.5t30 173.5l-24 191q-33 245 108.5 368t423.5 123h37v-170h-37q-61 0 -106 -17.5t-69 -46.5t-38.5 -67t-14.5 -80t3 -84l22 -161q20 -174 -49 -262t-229 -117q160 -29 229 -117t49 -262l-22 -162q-3 -43 -3 -85t14.5 -80t38.5 -67t69 -46 t106 -17h37v-170h-37q-282 0 -424 123.5t-108 368.5l26 190q15 116 -31 174t-165 58z" />
<glyph unicode="|" horiz-adv-x="499" d="M141 -252v1927h219v-1927h-219z" />
<glyph unicode="}" horiz-adv-x="808" d="M45 -123h37q61 0 106 17t69.5 46t38.5 67t13.5 80t-4.5 85l-20 162q-23 173 46.5 261.5t229.5 117.5q-160 29 -229.5 117.5t-46.5 261.5l20 161q4 42 4.5 84t-13.5 80t-38.5 67t-69.5 46.5t-106 17.5h-37v170h37q283 0 423 -122.5t107 -368.5l-24 -191 q-15 -115 31.5 -173t164.5 -58v-184q-117 0 -163 -58.5t-31 -173.5l24 -190q33 -246 -108 -369t-424 -123h-37v170z" />
<glyph unicode="~" d="M45 446q133 310 365 310q69 0 140 -24t120.5 -52t112.5 -52t118 -24q51 0 94 27t88 108l174 -69q-130 -310 -364 -310q-65 0 -136 24t-122.5 52t-115.5 52t-118 24q-51 0 -92 -27.5t-90 -107.5z" />
<glyph unicode="&#xa1;" horiz-adv-x="579" d="M111 0l90 971h178l90 -971h-358zM137 1122v312h305v-312h-305z" />
<glyph unicode="&#xa2;" horiz-adv-x="1150" d="M90 719q0 132 36.5 238t99.5 172.5t142 103.5t171 43v158h213v-179q134 -30 315 -118l-121 -217q-140 66 -194 84v-572q75 23 194 84l121 -217q-184 -90 -315 -121v-178h-213v158q-92 7 -171 44.5t-142 105t-99.5 173.5t-36.5 238zM391 719q0 -108 39.5 -185t108.5 -108 v584q-69 -29 -108.5 -106t-39.5 -185z" />
<glyph unicode="&#xa3;" horiz-adv-x="1185" d="M100 0v207q9 4 24.5 11.5t55 35t71 59.5t59.5 85t34 112h-221v178h188q-16 34 -49 89.5t-55.5 95.5t-41 101t-18.5 124q0 166 115.5 262t317.5 96q82 0 159.5 -15.5t149 -46t113.5 -52.5t104 -58l-135 -199q-212 117 -336 117q-88 0 -134 -42t-46 -109q0 -41 19 -87.5 t43.5 -83.5t54 -90.5t44.5 -101.5h332v-178h-317q-13 -84 -58.5 -153.5t-89.5 -102.5h600v-254h-983z" />
<glyph unicode="&#xa5;" horiz-adv-x="1452" d="M55 1434h344l326 -613l326 613h344l-404 -674h258v-174h-360l-12 -21v-94h372v-174h-372l2 -297h-308v297h-370v174h370v96l-10 19h-360v174h256z" />
<glyph unicode="&#xa6;" horiz-adv-x="503" d="M143 -252v846h219v-846h-219zM143 829v846h219v-846h-219z" />
<glyph unicode="&#xa7;" horiz-adv-x="1173" d="M86 645q0 171 174 246q-135 89 -135 244q0 145 112 233t308 88q127 0 258.5 -35t232.5 -82l-114 -192q-82 34 -184.5 60t-176.5 26q-68 0 -105.5 -22.5t-37.5 -61.5q0 -18 8.5 -33.5t26.5 -27.5t37 -21t48.5 -17.5t52 -14.5t57 -14t54.5 -13q65 -17 117.5 -36t104 -48.5 t86 -64.5t56 -85t21.5 -110q0 -170 -176 -246q136 -92 136 -246q0 -144 -111.5 -231.5t-308.5 -87.5q-126 0 -259 34.5t-235 81.5l115 193q84 -35 185 -60.5t175 -25.5q68 0 105 22.5t37 61.5q0 18 -8 33.5t-26 27.5t-35.5 21t-48 17.5t-51 13.5t-56.5 13t-54 13 q-385 95 -385 346zM369 676q0 -21 10 -39t31 -32t42.5 -25t55.5 -21t59 -17t64 -16q22 -5 33 -8q71 11 106 43t35 70q0 16 -5.5 29.5t-18 25.5t-24.5 21.5t-34 19t-37.5 15.5t-44 14t-43.5 12t-46.5 12t-43.5 11q-71 -13 -105 -45t-34 -70z" />
<glyph unicode="&#xa8;" horiz-adv-x="507" d="M-49 1231v235h237v-235h-237zM322 1231v235h235v-235h-235z" />
<glyph unicode="&#xa9;" horiz-adv-x="1642" d="M92 717q0 156 49 290.5t140 234.5t230.5 157t311.5 57t311 -57t230 -157t139.5 -234.5t48.5 -290.5t-48.5 -290.5t-139.5 -234.5t-230 -157.5t-311 -57.5t-311.5 57.5t-230.5 157.5t-140 234.5t-49 290.5zM174 717q0 -141 43 -261t123 -209.5t204 -140.5t277 -51 q154 0 278.5 51t205.5 140.5t124.5 209.5t43.5 261q0 140 -43.5 260.5t-124.5 210t-205.5 140t-278.5 50.5q-203 0 -351.5 -88t-222 -236t-73.5 -337zM453 715q0 212 101.5 329t254.5 117q72 0 143 -23t109 -45.5t90 -58.5l-64 -73q-38 30 -68 49.5t-88.5 40t-117.5 20.5 q-114 0 -184 -97.5t-70 -258.5q0 -159 70 -256t184 -97q59 0 118 20.5t87.5 38.5t68.5 48l64 -72q-52 -36 -90 -58.5t-109 -45.5t-143 -23q-152 0 -254 117t-102 328z" />
<glyph unicode="&#xaa;" horiz-adv-x="862" d="M74 987q0 98 69.5 153.5t182.5 55.5q26 0 61 -3.5t57.5 -7.5t58.5 -10.5t42 -7.5v39q0 49 -26 68.5t-89 19.5q-94 0 -248 -45l-63 137q204 62 348 62q148 0 215.5 -58.5t67.5 -193.5v-408h-205v72q-101 -86 -236 -86q-103 0 -169 59t-66 154zM281 1006q0 -37 26 -56.5 t70 -19.5q89 0 168 59v78q-123 20 -150 20q-114 0 -114 -81z" />
<glyph unicode="&#xab;" horiz-adv-x="1396" d="M59 467v178l625 434v-276l-379 -248l379 -246v-278zM664 467v178l624 434v-276l-379 -248l379 -246v-278z" />
<glyph unicode="&#xac;" d="M39 571v224h1204v-611h-239v387h-965z" />
<glyph unicode="&#xad;" horiz-adv-x="890" d="M121 463v239h649v-239h-649z" />
<glyph unicode="&#xae;" horiz-adv-x="987" d="M88 1024q0 178 108.5 294t297.5 116q188 0 295.5 -116t107.5 -294t-107.5 -294t-295.5 -116q-189 0 -297.5 116t-108.5 294zM162 1024q0 -152 85 -247t247 -95q161 0 245 95t84 247t-84 247t-245 95q-162 0 -247 -95t-85 -247zM342 823v412h190q64 0 102 -33t38 -86 q0 -41 -29 -72.5t-74 -42.5l97 -178h-76l-90 174h-90v-174h-68zM410 1061h120q72 0 72 55q0 58 -67 58h-125v-113z" />
<glyph unicode="&#xaf;" horiz-adv-x="628" d="M0 1262v174h629v-174h-629z" />
<glyph unicode="&#xb0;" horiz-adv-x="864" d="M70 1073q0 151 106 257t256 106q151 0 257 -106t106 -257q0 -149 -106.5 -255.5t-256.5 -106.5q-149 0 -255.5 106.5t-106.5 255.5zM244 1073q0 -78 55 -133t133 -55t134.5 55t56.5 133t-56.5 134.5t-134.5 56.5t-133 -56.5t-55 -134.5z" />
<glyph unicode="&#xb1;" d="M125 0v193h1053v-193h-1053zM125 604v223h410v285h225v-285h418v-223h-418v-285h-225v285h-410z" />
<glyph unicode="&#xb2;" horiz-adv-x="831" d="M57 788v91q0 62 23 116t69 99.5t87.5 76t103.5 68.5q16 10 45.5 26.5t44 25.5t36 22.5t32 23t22.5 22t16.5 25t4.5 25.5q0 34 -32 57t-91 23q-101 0 -242 -80l-94 133q180 121 364 121q148 0 229 -69.5t81 -174.5q0 -40 -11 -75t-33.5 -64.5t-45.5 -52.5t-59.5 -46.5 t-62 -38.5t-64.5 -36q-4 -2 -5.5 -3t-4.5 -2.5l-5 -2.5q-72 -38 -111 -69.5t-39 -65.5h441v-175h-699z" />
<glyph unicode="&#xb3;" horiz-adv-x="827" d="M37 887l94 143q146 -80 268 -80q68 0 109 26t41 71q0 108 -248 108h-43v176h49q205 0 205 90q0 31 -29.5 49.5t-83.5 18.5q-108 0 -235 -74l-86 131q28 22 67.5 44.5t122 47.5t166.5 25q143 0 216 -60t73 -151q0 -130 -148 -188q81 -24 134 -85t53 -137q0 -52 -18 -97.5 t-55.5 -85t-105 -62.5t-157.5 -23q-196 0 -389 113z" />
<glyph unicode="&#xb4;" horiz-adv-x="479" d="M-57 1210l256 283h338l-353 -283h-241z" />
<glyph unicode="&#xb5;" horiz-adv-x="1286" d="M141 -418v1493h295v-715q3 -73 35.5 -113t106.5 -40q73 0 158.5 42t144.5 95v731h295v-1075h-295v129q-221 -152 -420 -152h-25v-395h-295z" />
<glyph unicode="&#xb6;" horiz-adv-x="1458" d="M63 944q0 248 148.5 369t413.5 121h245v-1813h-249v834q-118 0 -217 29t-176.5 86.5t-121 153t-43.5 220.5zM1044 -381v1815h250v-1815h-250z" />
<glyph unicode="&#xb7;" horiz-adv-x="546" d="M121 416v336h307v-336h-307z" />
<glyph unicode="&#xb8;" horiz-adv-x="374" d="M-18 -330l59 146q51 -25 98 -25q99 0 99 78q0 28 -14.5 62t-29.5 53l-14 20h131q3 -4 8.5 -10.5t20 -27t25 -41.5t19.5 -51.5t9 -59.5q0 -94 -64.5 -141.5t-166.5 -47.5q-105 0 -180 45z" />
<glyph unicode="&#xb9;" horiz-adv-x="583" d="M14 1513l252 136h201v-861h-211v666l-156 -78z" />
<glyph unicode="&#xba;" horiz-adv-x="864" d="M76 1112q0 160 92 248t264 88t264 -88.5t92 -249.5t-92 -248.5t-264 -87.5q-171 0 -263.5 88.5t-92.5 249.5zM281 1112q0 -182 151 -182q152 0 152 180q0 182 -152 182q-151 0 -151 -180z" />
<glyph unicode="&#xbb;" horiz-adv-x="1396" d="M109 31v278l374 246l-374 248v274l622 -432v-178zM713 31v278l377 246l-377 248v274l624 -432v-178z" />
<glyph unicode="&#xbc;" horiz-adv-x="1816" d="M49 1298l252 136h201v-861h-211v666l-156 -78zM367 0l673 1434h228l-674 -1434h-227zM915 158v145l406 557h283v-528h135v-174h-135v-158h-215v158h-474zM1133 332h256v362z" />
<glyph unicode="&#xbd;" horiz-adv-x="1837" d="M49 1298l252 136h201v-861h-211v666l-156 -78zM367 0l673 1434h228l-674 -1434h-227zM1040 0v90q0 62 23 116.5t68 99.5t86.5 76t103.5 69q14 8 46 26t44.5 26t35.5 22.5t32.5 23.5t21.5 22t16.5 25t4.5 25q0 34 -32 56.5t-91 22.5q-107 0 -240 -79l-94 133 q173 120 362 120q149 0 229.5 -69t80.5 -174q0 -40 -11 -75t-34 -65t-45.5 -53t-60.5 -47.5t-62 -38.5t-65 -36q-3 -2 -4.5 -2.5t-4 -2t-4.5 -2.5q-72 -38 -111 -69.5t-39 -65.5h441v-174h-697z" />
<glyph unicode="&#xbe;" horiz-adv-x="2009" d="M68 672l94 143q146 -80 268 -80q68 0 109 25.5t41 70.5q0 109 -248 109h-41v176h47q205 0 205 90q0 32 -28.5 50t-82.5 18q-110 0 -237 -74l-86 131q21 16 47.5 31.5t73 37t108.5 35t127 13.5q143 0 216 -60t73 -151q0 -130 -148 -188q83 -24 136 -84.5t53 -137.5 q0 -52 -18.5 -97.5t-56.5 -85t-105.5 -62.5t-157.5 -23q-189 0 -389 113zM567 0l674 1434h227l-675 -1434h-226zM1114 158v145l408 557h278v-528h137v-174h-137v-158h-211v158h-475zM1333 332h256v362z" />
<glyph unicode="&#xbf;" horiz-adv-x="1101" d="M76 350q0 76 26.5 140t69.5 109t106.5 82.5t128 61t142.5 43.5l14 185h189l18 -342q-207 -42 -296 -91.5t-89 -140.5q0 -73 55.5 -119.5t153.5 -46.5q144 0 326 113l127 -207q-256 -160 -504 -160q-203 0 -335 101t-132 272zM506 1122v312h305v-312h-305z" />
<glyph unicode="&#xc0;" horiz-adv-x="1452" d="M18 0l541 1434h336l539 -1434h-332l-92 285h-566l-92 -285h-334zM342 1802h338l256 -282h-242zM522 526h408l-205 631z" />
<glyph unicode="&#xc1;" horiz-adv-x="1452" d="M18 0l541 1434h336l539 -1434h-332l-92 285h-566l-92 -285h-334zM518 1520l256 282h338l-350 -282h-244zM522 526h408l-205 631z" />
<glyph unicode="&#xc2;" horiz-adv-x="1452" d="M18 0l541 1434h336l539 -1434h-332l-92 285h-566l-92 -285h-334zM369 1520l213 282h288l217 -282h-204l-156 153l-156 -153h-202zM522 526h408l-205 631z" />
<glyph unicode="&#xc3;" horiz-adv-x="1452" d="M18 0l541 1434h336l539 -1434h-332l-92 285h-566l-92 -285h-334zM350 1595q21 42 33.5 65t35.5 56t43.5 49.5t51 29.5t64.5 13q47 0 104 -24t105 -48t75 -24q16 0 29 5t33.5 27t42.5 62l135 -65q-17 -32 -24.5 -46t-24 -42t-27.5 -41t-29.5 -32.5t-35.5 -28.5t-39.5 -16 t-47.5 -7q-48 0 -105 24.5t-105.5 49t-75.5 24.5q-25 0 -49 -18.5t-56 -75.5zM522 526h408l-205 631z" />
<glyph unicode="&#xc4;" horiz-adv-x="1452" d="M18 0l541 1434h336l539 -1434h-332l-92 285h-566l-92 -285h-334zM424 1548v234h238v-234h-238zM522 526h408l-205 631zM795 1548v234h237v-234h-237z" />
<glyph unicode="&#xc5;" horiz-adv-x="1452" d="M18 0l541 1434h336l539 -1434h-332l-92 285h-566l-92 -285h-334zM500 1729q0 95 67 162t162 67t162 -67t67 -162t-67 -162.5t-162 -67.5t-162 67.5t-67 162.5zM522 526h408l-205 631zM643 1729q0 -37 24.5 -62t61.5 -25t62.5 25t25.5 62t-25.5 62.5t-62.5 25.5 t-61.5 -25.5t-24.5 -62.5z" />
<glyph unicode="&#xc6;" horiz-adv-x="2172" d="M-53 0l975 1434h1151v-260h-703v-330h578v-254h-578v-330h715v-260h-1022v285h-565l-185 -285h-366zM657 532h406v625z" />
<glyph unicode="&#xc7;" horiz-adv-x="1339" d="M90 717q0 185 45 328t125.5 232t187 134t234.5 45q155 0 297 -54.5t311 -152.5l-143 -225q-131 75 -233.5 116.5t-196.5 41.5q-146 0 -228.5 -124.5t-82.5 -340.5t82.5 -340.5t228.5 -124.5q94 0 196.5 41.5t233.5 116.5l143 -226q-145 -85 -266 -135.5t-250 -64.5 q64 -84 64 -170q0 -94 -65 -141.5t-167 -47.5q-108 0 -180 45l57 146q54 -25 99 -25t72.5 19t27.5 59q0 45 -39 111q-121 6 -220.5 54t-174.5 137t-116.5 228.5t-41.5 317.5z" />
<glyph unicode="&#xc8;" horiz-adv-x="1261" d="M154 0v1434h1007v-260h-700v-330h573v-254h-573v-330h713v-260h-1020zM281 1802h335l258 -282h-243z" />
<glyph unicode="&#xc9;" horiz-adv-x="1261" d="M154 0v1434h1007v-260h-700v-330h573v-254h-573v-330h713v-260h-1020zM457 1520l256 282h336l-351 -282h-241z" />
<glyph unicode="&#xca;" horiz-adv-x="1261" d="M154 0v1434h1007v-260h-700v-330h573v-254h-573v-330h713v-260h-1020zM303 1520l217 282h287l217 -282h-205l-155 153l-156 -153h-205z" />
<glyph unicode="&#xcb;" horiz-adv-x="1261" d="M154 0v1434h1007v-260h-700v-330h573v-254h-573v-330h713v-260h-1020zM360 1540v236h238v-236h-238zM731 1540v236h238v-236h-238z" />
<glyph unicode="&#xcc;" horiz-adv-x="614" d="M-78 1802h336l256 -282h-242zM154 0v1434h305v-1434h-305z" />
<glyph unicode="&#xcd;" horiz-adv-x="614" d="M100 1520l256 282h338l-352 -282h-242zM156 0v1434h305v-1434h-305z" />
<glyph unicode="&#xce;" horiz-adv-x="614" d="M-53 1520l217 282h287l217 -282h-205l-156 153l-155 -153h-205zM154 0v1434h307v-1434h-307z" />
<glyph unicode="&#xcf;" horiz-adv-x="614" d="M2 1538v236h238v-236h-238zM152 0v1434h307v-1434h-307zM373 1538v236h237v-236h-237z" />
<glyph unicode="&#xd0;" horiz-adv-x="1507" d="M33 598v238h151v598h510q356 0 538.5 -171.5t182.5 -545.5t-182.5 -545.5t-538.5 -171.5h-510v598h-151zM492 260h176q112 0 191.5 23t137 75.5t85.5 141.5t28 217t-28 217t-85.5 141.5t-137 75.5t-191.5 23h-176v-338h296v-238h-296v-338z" />
<glyph unicode="&#xd1;" horiz-adv-x="1525" d="M154 0v1434h311l602 -979v979h305v-1434h-311l-600 975v-975h-307zM397 1610q57 107 87 142q60 71 141 71q48 0 105 -24.5t105.5 -49.5t75.5 -25q24 0 48.5 19t56.5 76l133 -64q-25 -52 -42 -81.5t-45.5 -65t-62.5 -52t-77 -16.5q-47 0 -104 24.5t-105.5 49t-75.5 24.5 q-26 0 -49.5 -18t-57.5 -76z" />
<glyph unicode="&#xd2;" horiz-adv-x="1556" d="M90 717q0 127 23.5 236t76 202.5t131.5 159.5t195.5 103.5t261.5 37.5t261 -37.5t195 -103.5t131.5 -159.5t76.5 -202.5t24 -236q0 -126 -23.5 -235t-76.5 -203t-132 -160.5t-195 -104t-261 -37.5t-261.5 37.5t-195.5 104t-131.5 160.5t-76 202.5t-23.5 235.5zM393 1802 h336l256 -282h-240zM406 717q0 -107 20 -191t62.5 -149.5t115.5 -101t174 -35.5q100 0 173.5 35.5t116.5 101t63 150t20 190.5q0 84 -12.5 154.5t-40.5 131t-70.5 102.5t-106 65.5t-143.5 23.5q-81 0 -144.5 -23.5t-106 -65.5t-70 -102.5t-39.5 -131t-12 -154.5z" />
<glyph unicode="&#xd3;" horiz-adv-x="1556" d="M90 717q0 127 23.5 236t76 202.5t131.5 159.5t195.5 103.5t261.5 37.5t261 -37.5t195 -103.5t131.5 -159.5t76.5 -202.5t24 -236q0 -126 -23.5 -235t-76.5 -203t-132 -160.5t-195 -104t-261 -37.5t-261.5 37.5t-195.5 104t-131.5 160.5t-76 202.5t-23.5 235.5zM406 717 q0 -107 20 -191t62.5 -149.5t115.5 -101t174 -35.5q100 0 173.5 35.5t116.5 101t63 150t20 190.5q0 84 -12.5 154.5t-40.5 131t-70.5 102.5t-106 65.5t-143.5 23.5q-81 0 -144.5 -23.5t-106 -65.5t-70 -102.5t-39.5 -131t-12 -154.5zM569 1520l256 282h336l-348 -282h-244z " />
<glyph unicode="&#xd4;" horiz-adv-x="1556" d="M90 717q0 127 23.5 236t76 202.5t131.5 159.5t195.5 103.5t261.5 37.5t261 -37.5t195 -103.5t131.5 -159.5t76.5 -202.5t24 -236q0 -126 -23.5 -235t-76.5 -203t-132 -160.5t-195 -104t-261 -37.5t-261.5 37.5t-195.5 104t-131.5 160.5t-76 202.5t-23.5 235.5zM406 717 q0 -107 20 -191t62.5 -149.5t115.5 -101t174 -35.5q100 0 173.5 35.5t116.5 101t63 150t20 190.5q0 84 -12.5 154.5t-40.5 131t-70.5 102.5t-106 65.5t-143.5 23.5q-81 0 -144.5 -23.5t-106 -65.5t-70 -102.5t-39.5 -131t-12 -154.5zM418 1520l217 282h287l217 -282h-205 l-156 153l-155 -153h-205z" />
<glyph unicode="&#xd5;" horiz-adv-x="1556" d="M90 717q0 127 23.5 236t76 202.5t131.5 159.5t195.5 103.5t261.5 37.5t261 -37.5t195 -103.5t131.5 -159.5t76.5 -202.5t24 -236q0 -126 -23.5 -235t-76.5 -203t-132 -160.5t-195 -104t-261 -37.5t-261.5 37.5t-195.5 104t-131.5 160.5t-76 202.5t-23.5 235.5zM399 1595 q20 39 29 55t28.5 47.5t34 46t36.5 32.5t46.5 25t53.5 7q48 0 105 -24t105.5 -48t75.5 -24q16 0 29 5t33.5 27t42.5 62l133 -65q-26 -52 -42.5 -80t-45 -64t-62.5 -52.5t-77 -16.5q-47 0 -104 24.5t-105.5 49t-75.5 24.5q-26 0 -49.5 -18t-57.5 -76zM406 717q0 -107 20 -191 t62.5 -149.5t115.5 -101t174 -35.5q100 0 173.5 35.5t116.5 101t63 150t20 190.5q0 84 -12.5 154.5t-40.5 131t-70.5 102.5t-106 65.5t-143.5 23.5q-81 0 -144.5 -23.5t-106 -65.5t-70 -102.5t-39.5 -131t-12 -154.5z" />
<glyph unicode="&#xd6;" horiz-adv-x="1556" d="M90 717q0 127 23.5 236t76 202.5t131.5 159.5t195.5 103.5t261.5 37.5t261 -37.5t195 -103.5t131.5 -159.5t76.5 -202.5t24 -236q0 -126 -23.5 -235t-76.5 -203t-132 -160.5t-195 -104t-261 -37.5t-261.5 37.5t-195.5 104t-131.5 160.5t-76 202.5t-23.5 235.5zM406 717 q0 -107 20 -191t62.5 -149.5t115.5 -101t174 -35.5q100 0 173.5 35.5t116.5 101t63 150t20 190.5q0 84 -12.5 154.5t-40.5 131t-70.5 102.5t-106 65.5t-143.5 23.5q-81 0 -144.5 -23.5t-106 -65.5t-70 -102.5t-39.5 -131t-12 -154.5zM475 1540v236h238v-236h-238zM846 1540 v236h235v-236h-235z" />
<glyph unicode="&#xd7;" d="M199 950l161 162l291 -268l291 266l164 -164l-283 -260l285 -260l-162 -162l-291 266l-288 -264l-166 164l282 258z" />
<glyph unicode="&#xd8;" horiz-adv-x="1554" d="M88 717q0 127 24 236t76.5 202.5t131.5 159.5t195 103.5t261 37.5q230 0 391 -96l58 74h217l-144 -185q166 -195 166 -532q0 -126 -23.5 -235t-76.5 -203t-132 -160.5t-195 -104t-261 -37.5q-232 0 -391 97l-57 -74h-215l141 182q-166 195 -166 535zM403 717 q0 -170 50 -279l538 695q-86 61 -215 61q-80 0 -143.5 -23.5t-106 -65.5t-70.5 -102.5t-40.5 -131t-12.5 -154.5zM561 299q83 -59 215 -59q101 0 174.5 35.5t116 101t62.5 149.5t20 191q0 170 -49 276z" />
<glyph unicode="&#xd9;" horiz-adv-x="1472" d="M139 578v856h307v-881q0 -71 12 -123t42.5 -97.5t89.5 -69t147 -23.5q86 0 145 23.5t89.5 68.5t42.5 97.5t12 123.5v881h305v-856q0 -88 -11 -161t-36.5 -143t-70.5 -122.5t-109 -92.5t-157 -61t-210 -21q-101 0 -184.5 16t-144.5 44.5t-108 71t-77 92.5t-49 112t-27 126 t-8 139zM352 1802h336l256 -282h-239z" />
<glyph unicode="&#xda;" horiz-adv-x="1472" d="M139 578v856h307v-881q0 -71 12 -123t42.5 -97.5t89.5 -69t147 -23.5q86 0 145 23.5t89.5 68.5t42.5 97.5t12 123.5v881h305v-856q0 -88 -11 -161t-36.5 -143t-70.5 -122.5t-109 -92.5t-157 -61t-210 -21q-101 0 -184.5 16t-144.5 44.5t-108 71t-77 92.5t-49 112t-27 126 t-8 139zM528 1520l256 282h336l-350 -282h-242z" />
<glyph unicode="&#xdb;" horiz-adv-x="1470" d="M139 578v856h307v-881q0 -71 12 -123t42.5 -97.5t89.5 -69t147 -23.5q86 0 145 23.5t89.5 68.5t42.5 97.5t12 123.5v881h305v-856q0 -88 -11 -161t-36.5 -143t-70.5 -122.5t-109 -92.5t-157 -61t-210 -21q-101 0 -184.5 16t-144.5 44.5t-108 71t-77 92.5t-49 112t-27 126 t-8 139zM377 1520l215 282h289l217 -282h-205l-156 153l-157 -153h-203z" />
<glyph unicode="&#xdc;" horiz-adv-x="1472" d="M139 578v856h307v-881q0 -71 12 -123t42.5 -97.5t89.5 -69t147 -23.5q86 0 145 23.5t89.5 68.5t42.5 97.5t12 123.5v881h305v-856q0 -88 -11 -161t-36.5 -143t-70.5 -122.5t-109 -92.5t-157 -61t-210 -21q-101 0 -184.5 16t-144.5 44.5t-108 71t-77 92.5t-49 112t-27 126 t-8 139zM432 1540v236h236v-236h-236zM803 1540v236h237v-236h-237z" />
<glyph unicode="&#xdd;" horiz-adv-x="1357" d="M8 1434h344l326 -613l326 613h344l-519 -869l2 -565h-307v567zM471 1520l256 282h336l-352 -282h-240z" />
<glyph unicode="&#xde;" horiz-adv-x="1384" d="M154 0v1434h307v-230h284q281 0 427.5 -115.5t146.5 -347.5q0 -462 -574 -462h-284v-279h-307zM461 530h231q160 0 238 46.5t78 164.5q0 117 -77.5 162t-238.5 45h-231v-418z" />
<glyph unicode="&#xdf;" horiz-adv-x="1456" d="M127 0v985q0 106 34 190t105.5 148t191 98.5t281.5 34.5q163 0 283.5 -35t191 -99t104.5 -146.5t34 -184.5v-10l-140 -182q-51 26 -137 50.5t-143 24.5q-54 0 -83.5 -24t-29.5 -62q0 -13 3.5 -25t12 -21.5t17 -17.5t24.5 -15.5t28 -13t33.5 -12.5t35.5 -11t39.5 -11.5 t40.5 -11.5q73 -22 127 -47t107 -65.5t81.5 -101t28.5 -138.5q0 -149 -102.5 -234.5t-286.5 -85.5q-132 0 -272 42t-232 98l114 207q75 -44 185 -81.5t176 -37.5q52 0 86.5 23.5t34.5 62.5q0 13 -4 25t-13.5 22t-19 18.5t-26.5 16.5t-30 14t-35.5 13.5t-37 12t-40.5 12 t-40 11.5q-53 16 -94 33t-88 46t-78 63.5t-51.5 86.5t-20.5 115q0 143 99.5 230.5t279.5 87.5q63 0 139 -13q-26 71 -97 107.5t-204 36.5q-95 0 -158 -18t-97.5 -55t-48 -84t-13.5 -114v-958h-295z" />
<glyph unicode="&#xe0;" horiz-adv-x="1220" d="M59 330q0 164 110.5 255t283.5 91q44 0 102 -7t92 -12.5t96.5 -18t65.5 -13.5v82q0 91 -42 129t-149 38q-77 0 -166.5 -19.5t-226.5 -61.5l-92 204q307 101 539 101q226 0 329 -93.5t103 -310.5v-694h-295v127q-162 -150 -377 -150q-161 0 -267 95.5t-106 257.5z M236 1493h335l256 -283h-241zM358 354q0 -74 45 -110.5t121 -36.5q152 0 285 115v157q-172 35 -254 35q-98 0 -147.5 -42.5t-49.5 -117.5z" />
<glyph unicode="&#xe1;" horiz-adv-x="1220" d="M59 330q0 164 110.5 255t283.5 91q44 0 102 -7t92 -12.5t96.5 -18t65.5 -13.5v82q0 91 -42 129t-149 38q-77 0 -166.5 -19.5t-226.5 -61.5l-92 204q307 101 539 101q226 0 329 -93.5t103 -310.5v-694h-295v127q-162 -150 -377 -150q-161 0 -267 95.5t-106 257.5zM358 354 q0 -74 45 -110.5t121 -36.5q152 0 285 115v157q-172 35 -254 35q-98 0 -147.5 -42.5t-49.5 -117.5zM412 1210l254 283h338l-353 -283h-239z" />
<glyph unicode="&#xe2;" horiz-adv-x="1220" d="M59 330q0 164 110.5 255t283.5 91q44 0 102 -7t92 -12.5t96.5 -18t65.5 -13.5v82q0 91 -42 129t-149 38q-77 0 -166.5 -19.5t-226.5 -61.5l-92 204q307 101 539 101q226 0 329 -93.5t103 -310.5v-694h-295v127q-162 -150 -377 -150q-161 0 -267 95.5t-106 257.5z M258 1210l217 283h287l215 -283h-205l-156 154l-153 -154h-205zM358 354q0 -74 45 -110.5t121 -36.5q152 0 285 115v157q-172 35 -254 35q-98 0 -147.5 -42.5t-49.5 -117.5z" />
<glyph unicode="&#xe3;" horiz-adv-x="1220" d="M59 330q0 164 110.5 255t283.5 91q44 0 102 -7t92 -12.5t96.5 -18t65.5 -13.5v82q0 91 -42 129t-149 38q-77 0 -166.5 -19.5t-226.5 -61.5l-92 204q307 101 539 101q226 0 329 -93.5t103 -310.5v-694h-295v127q-162 -150 -377 -150q-161 0 -267 95.5t-106 257.5z M242 1286q19 36 25 47.5t23.5 41.5t27.5 41.5t29 32t35.5 28.5t39 15t47.5 7q48 0 105.5 -24t106 -48t75.5 -24q16 0 29 5t33 27t42 62l133 -65q-26 -52 -42.5 -80t-45 -64t-62.5 -52.5t-77 -16.5q-47 0 -104 24.5t-105.5 49t-75.5 24.5q-26 0 -49 -18t-57 -76zM358 354 q0 -74 45 -110.5t121 -36.5q152 0 285 115v157q-172 35 -254 35q-98 0 -147.5 -42.5t-49.5 -117.5z" />
<glyph unicode="&#xe4;" horiz-adv-x="1220" d="M59 330q0 164 110.5 255t283.5 91q44 0 102 -7t92 -12.5t96.5 -18t65.5 -13.5v82q0 91 -42 129t-149 38q-77 0 -166.5 -19.5t-226.5 -61.5l-92 204q307 101 539 101q226 0 329 -93.5t103 -310.5v-694h-295v127q-162 -150 -377 -150q-161 0 -267 95.5t-106 257.5z M313 1231v235h238v-235h-238zM358 354q0 -74 45 -110.5t121 -36.5q152 0 285 115v157q-172 35 -254 35q-98 0 -147.5 -42.5t-49.5 -117.5zM686 1231v235h236v-235h-236z" />
<glyph unicode="&#xe5;" horiz-adv-x="1220" d="M59 330q0 164 110.5 255t283.5 91q44 0 102 -7t92 -12.5t96.5 -18t65.5 -13.5v82q0 91 -42 129t-149 38q-77 0 -166.5 -19.5t-226.5 -61.5l-92 204q307 101 539 101q226 0 329 -93.5t103 -310.5v-694h-295v127q-162 -150 -377 -150q-161 0 -267 95.5t-106 257.5zM358 354 q0 -74 45 -110.5t121 -36.5q152 0 285 115v157q-172 35 -254 35q-98 0 -147.5 -42.5t-49.5 -117.5zM389 1419q0 95 67 162.5t162 67.5t162.5 -67.5t67.5 -162.5t-67.5 -162t-162.5 -67t-162 67t-67 162zM532 1419q0 -37 24.5 -61.5t61.5 -24.5t63 25t26 61q0 37 -26 62.5 t-63 25.5t-61.5 -25.5t-24.5 -62.5z" />
<glyph unicode="&#xe6;" horiz-adv-x="1900" d="M59 330q0 164 110.5 255t283.5 91q34 0 70 -3t79.5 -11t64 -11.5t69.5 -14.5l48 -11q5 51 23 118q-6 70 -49.5 100.5t-139.5 30.5q-77 0 -166.5 -19.5t-226.5 -61.5l-92 204q307 101 539 101q219 0 323 -88q133 88 322 88q245 0 375.5 -130.5t130.5 -344.5 q0 -38 -4.5 -75.5t-9.5 -55.5l-5 -19h-723q12 -134 73.5 -205t166.5 -71q145 0 397 131l111 -185q-59 -32 -91.5 -48t-112.5 -50t-164 -51t-169 -17q-135 0 -244.5 52.5t-177.5 156.5q-194 -209 -438 -209q-161 0 -267 95.5t-106 257.5zM358 354q0 -74 45 -110.5t121 -36.5 q146 0 285 117q-21 67 -27 149q-12 3 -50.5 12t-62 14t-57 10t-57.5 5q-98 0 -147.5 -42.5t-49.5 -117.5zM1083 633h449q1 126 -53.5 190t-161.5 64q-101 0 -160 -65.5t-74 -188.5z" />
<glyph unicode="&#xe7;" horiz-adv-x="1073" d="M74 539q0 140 40.5 249t109.5 175.5t155 100.5t184 34q65 0 133 -13t135 -37.5t104 -40t91 -40.5l-119 -217q-4 2 -33 15.5t-41 18.5t-40.5 17t-47 18t-44 13.5t-49 10.5t-44.5 3q-107 0 -170 -83.5t-63 -223.5t63 -225t170 -85q25 0 55 5.5t51.5 11.5t56.5 20t48 19.5 t49.5 22.5t38.5 18l119 -217q-224 -112 -399 -127q63 -83 63 -168q0 -93 -65.5 -141t-167.5 -48q-103 0 -181 45l60 146q54 -25 98 -25q45 0 73 19t28 59q0 42 -43 115q-86 11 -160.5 50.5t-132.5 106.5t-91.5 169.5t-33.5 228.5z" />
<glyph unicode="&#xe8;" horiz-adv-x="1191" d="M74 535q0 266 143.5 414.5t392.5 148.5q245 0 375.5 -130.5t130.5 -344.5q0 -38 -4 -75.5t-8 -55.5l-4 -19h-723q12 -135 72 -205.5t165 -70.5q148 0 396 131l112 -185q-47 -26 -67.5 -37t-86.5 -40.5t-116 -45t-123.5 -29.5t-142.5 -14q-108 0 -199.5 34.5t-162 101 t-110.5 175t-40 247.5zM233 1493h338l254 -283h-239zM379 633h448q1 126 -53.5 190t-161.5 64q-101 0 -159.5 -65t-73.5 -189z" />
<glyph unicode="&#xe9;" horiz-adv-x="1191" d="M74 535q0 266 143.5 414.5t392.5 148.5q245 0 375.5 -130.5t130.5 -344.5q0 -38 -4 -75.5t-8 -55.5l-4 -19h-723q12 -135 72 -205.5t165 -70.5q148 0 396 131l112 -185q-47 -26 -67.5 -37t-86.5 -40.5t-116 -45t-123.5 -29.5t-142.5 -14q-108 0 -199.5 34.5t-162 101 t-110.5 175t-40 247.5zM379 633h448q1 126 -53.5 190t-161.5 64q-101 0 -159.5 -65t-73.5 -189zM412 1210l252 283h340l-353 -283h-239z" />
<glyph unicode="&#xea;" horiz-adv-x="1191" d="M74 535q0 266 143.5 414.5t392.5 148.5q245 0 375.5 -130.5t130.5 -344.5q0 -38 -4 -75.5t-8 -55.5l-4 -19h-723q12 -135 72 -205.5t165 -70.5q148 0 396 131l112 -185q-47 -26 -67.5 -37t-86.5 -40.5t-116 -45t-123.5 -29.5t-142.5 -14q-108 0 -199.5 34.5t-162 101 t-110.5 175t-40 247.5zM258 1210l217 283h285l217 -283h-205l-156 154l-153 -154h-205zM379 633h448q1 126 -53.5 190t-161.5 64q-101 0 -159.5 -65t-73.5 -189z" />
<glyph unicode="&#xeb;" horiz-adv-x="1191" d="M74 535q0 266 143.5 414.5t392.5 148.5q245 0 375.5 -130.5t130.5 -344.5q0 -38 -4 -75.5t-8 -55.5l-4 -19h-723q12 -135 72 -205.5t165 -70.5q148 0 396 131l112 -185q-47 -26 -67.5 -37t-86.5 -40.5t-116 -45t-123.5 -29.5t-142.5 -14q-108 0 -199.5 34.5t-162 101 t-110.5 175t-40 247.5zM313 1231v235h238v-235h-238zM379 633h448q1 126 -53.5 190t-161.5 64q-101 0 -159.5 -65t-73.5 -189zM686 1231v235h236v-235h-236z" />
<glyph unicode="&#xec;" horiz-adv-x="548" d="M-111 1493h338l256 -283h-241zM127 0v1075h295v-1075h-295z" />
<glyph unicode="&#xed;" horiz-adv-x="548" d="M68 1210l256 283h338l-353 -283h-241zM129 0v1075h293v-1075h-293z" />
<glyph unicode="&#xee;" horiz-adv-x="548" d="M-86 1210l217 283h287l217 -283h-205l-156 154l-155 -154h-205zM127 0v1075h295v-1075h-295z" />
<glyph unicode="&#xef;" horiz-adv-x="548" d="M-29 1231v235h238v-235h-238zM129 0v1075h295v-1075h-295zM342 1231v235h238v-235h-238z" />
<glyph unicode="&#xf0;" horiz-adv-x="1288" d="M76 477q0 224 136 361t349 137q69 0 129.5 -14.5t98 -35.5t65.5 -41.5t40 -35.5l11 -14q-31 110 -107.5 197.5t-191.5 129.5l-92 -94h-246l127 133h-8q-44 0 -86 -4t-62 -8l-20 -4l-37 227q80 23 211 23q99 0 207 -23l78 82h248l-140 -145q204 -100 315 -300.5 t111 -453.5q0 -302 -156 -459.5t-423 -157.5q-260 0 -408.5 135t-148.5 365zM383 475q0 -119 65 -194.5t201 -75.5q134 0 200 75t66 195q0 123 -64.5 198t-201.5 75q-70 0 -122.5 -22t-83 -61t-45.5 -86.5t-15 -103.5z" />
<glyph unicode="&#xf1;" horiz-adv-x="1280" d="M127 0v1075h295v-129q216 152 418 152q166 0 243.5 -89.5t77.5 -248.5v-760h-295v692q0 84 -31 130t-110 46q-76 0 -160.5 -42.5t-142.5 -96.5v-729h-295zM266 1280q17 32 24.5 46t24 42t27.5 41t29.5 32.5t35.5 28.5t39.5 16t47.5 7q47 0 104 -24.5t105 -49t75 -24.5 q25 0 49 18.5t56 75.5l133 -64q-20 -40 -33 -65t-35.5 -57t-43.5 -49.5t-51.5 -30.5t-64.5 -13q-47 0 -104 25t-105 49.5t-75 24.5q-24 0 -48.5 -19t-56.5 -76z" />
<glyph unicode="&#xf2;" horiz-adv-x="1259" d="M74 539q0 266 144.5 412.5t412.5 146.5q267 0 411 -147.5t144 -413.5t-144 -413t-411 -147q-268 0 -412.5 147.5t-144.5 414.5zM246 1493h336l258 -283h-242zM373 539q0 -160 63.5 -247t194.5 -87q130 0 194 86.5t64 245.5q0 160 -64 246.5t-194 86.5q-258 0 -258 -331z " />
<glyph unicode="&#xf3;" horiz-adv-x="1259" d="M74 539q0 266 144.5 412.5t412.5 146.5q267 0 411 -147.5t144 -413.5t-144 -413t-411 -147q-268 0 -412.5 147.5t-144.5 414.5zM373 539q0 -160 63.5 -247t194.5 -87q130 0 194 86.5t64 245.5q0 160 -64 246.5t-194 86.5q-258 0 -258 -331zM422 1210l256 283h336 l-348 -283h-244z" />
<glyph unicode="&#xf4;" horiz-adv-x="1259" d="M74 539q0 266 144.5 412.5t412.5 146.5q267 0 411 -147.5t144 -413.5t-144 -413t-411 -147q-268 0 -412.5 147.5t-144.5 414.5zM270 1210l217 283h287l217 -283h-205l-155 154l-156 -154h-205zM373 539q0 -160 63.5 -247t194.5 -87q130 0 194 86.5t64 245.5 q0 160 -64 246.5t-194 86.5q-258 0 -258 -331z" />
<glyph unicode="&#xf5;" horiz-adv-x="1259" d="M74 539q0 266 144.5 412.5t412.5 146.5q267 0 411 -147.5t144 -413.5t-144 -413t-411 -147q-268 0 -412.5 147.5t-144.5 414.5zM262 1264q14 34 19.5 46.5t20.5 42.5t24.5 42.5t27.5 33.5t34.5 30t40.5 16.5t50 7.5q55 0 149 -39t136 -41q71 -5 108 78l127 -43 q-45 -100 -66 -132q-60 -87 -153 -87q-55 0 -149 38.5t-133 40.5q-73 4 -111 -77zM373 539q0 -160 63.5 -247t194.5 -87q130 0 194 86.5t64 245.5q0 160 -64 246.5t-194 86.5q-258 0 -258 -331z" />
<glyph unicode="&#xf6;" horiz-adv-x="1259" d="M74 539q0 266 144.5 412.5t412.5 146.5q267 0 411 -147.5t144 -413.5t-144 -413t-411 -147q-268 0 -412.5 147.5t-144.5 414.5zM328 1231v235h237v-235h-237zM373 539q0 -160 63.5 -247t194.5 -87q130 0 194 86.5t64 245.5q0 160 -64 246.5t-194 86.5q-258 0 -258 -331z M698 1231v235h238v-235h-238z" />
<glyph unicode="&#xf7;" d="M125 571v224h1053v-224h-1053zM500 311q0 61 44.5 103.5t106.5 42.5q63 0 107.5 -42.5t44.5 -103.5q0 -60 -44.5 -101.5t-107.5 -41.5q-62 0 -106.5 41.5t-44.5 101.5zM500 1055q0 60 45 102.5t108 42.5q62 0 106 -42.5t44 -102.5t-44 -103t-106 -43q-63 0 -108 43 t-45 103z" />
<glyph unicode="&#xf8;" horiz-adv-x="1257" d="M72 539q0 266 144.5 412.5t412.5 146.5q178 0 309 -70l39 47h176l-106 -131q139 -148 139 -407q0 -266 -144.5 -413t-412.5 -147q-185 0 -314 72l-41 -49h-180l111 135q-133 145 -133 404zM371 539q0 -102 24 -172l379 462q-56 41 -145 41q-258 0 -258 -331zM477 248 q58 -43 152 -43q258 0 258 332q0 99 -29 178z" />
<glyph unicode="&#xf9;" horiz-adv-x="1280" d="M119 315v760h295v-692q0 -84 30 -130t109 -46q75 0 160.5 42t144.5 95v731h293v-1075h-293v129q-221 -152 -420 -152q-166 0 -242.5 89.5t-76.5 248.5zM250 1493h336l256 -283h-240z" />
<glyph unicode="&#xfa;" horiz-adv-x="1280" d="M119 315v760h295v-692q0 -84 30 -130t109 -46q75 0 160.5 42t144.5 95v731h293v-1075h-293v129q-221 -152 -420 -152q-166 0 -242.5 89.5t-76.5 248.5zM426 1210l256 283h336l-350 -283h-242z" />
<glyph unicode="&#xfb;" horiz-adv-x="1280" d="M119 315v760h295v-692q0 -84 30 -130t109 -46q75 0 160.5 42t144.5 95v731h293v-1075h-293v129q-221 -152 -420 -152q-166 0 -242.5 89.5t-76.5 248.5zM274 1210l215 283h287l217 -283h-202l-156 154l-156 -154h-205z" />
<glyph unicode="&#xfc;" horiz-adv-x="1280" d="M119 315v760h295v-692q0 -84 30 -130t109 -46q75 0 160.5 42t144.5 95v731h293v-1075h-293v129q-221 -152 -420 -152q-166 0 -242.5 89.5t-76.5 248.5zM330 1231v235h237v-235h-237zM702 1231v235h236v-235h-236z" />
<glyph unicode="&#xfd;" horiz-adv-x="1191" d="M25 1075h317l254 -721l254 721h319l-594 -1493h-315l186 420zM387 1210l256 283h336l-348 -283h-244z" />
<glyph unicode="&#xfe;" horiz-adv-x="1277" d="M127 -418v1911h295v-539q77 67 163 105.5t197 38.5q190 0 304 -143t114 -418q0 -273 -114 -416.5t-304 -143.5q-194 0 -360 140v-535h-295zM422 352q57 -66 127.5 -101.5t144.5 -35.5q102 0 154.5 83t52.5 241q0 156 -52.5 238.5t-154.5 82.5q-74 0 -144.5 -36 t-127.5 -103v-369z" />
<glyph unicode="&#xff;" horiz-adv-x="1191" d="M25 1075h317l254 -721l254 721h319l-594 -1493h-315l186 420zM293 1231v235h237v-235h-237zM664 1231v235h237v-235h-237z" />
<glyph unicode="&#x152;" horiz-adv-x="2263" d="M90 717q0 127 23.5 236t76 202.5t131.5 159.5t195.5 103.5t261.5 37.5q220 0 377 -88v66h1008v-260h-703v-330h576v-254h-576v-330h713v-260h-1018v66q-153 -89 -377 -89q-145 0 -261.5 37.5t-195.5 104t-131.5 160.5t-76 202.5t-23.5 235.5zM406 717q0 -107 20 -191 t62.5 -149.5t115.5 -101t174 -35.5q100 0 173.5 35.5t116.5 101t63 150t20 190.5q0 84 -12.5 154.5t-40.5 131t-70.5 102.5t-106 65.5t-143.5 23.5q-81 0 -144.5 -23.5t-106 -65.5t-70 -102.5t-39.5 -131t-12 -154.5z" />
<glyph unicode="&#x153;" horiz-adv-x="2007" d="M74 539q0 266 144.5 412.5t412.5 146.5q260 0 407 -144q144 144 389 144q244 0 374 -131t130 -344q0 -38 -4 -75.5t-8 -55.5l-4 -19h-723q12 -135 71 -205.5t164 -70.5q150 0 398 131l110 -185q-53 -30 -89.5 -48t-113.5 -50.5t-161.5 -50t-169.5 -17.5q-230 0 -367 140 q-146 -140 -403 -140q-268 0 -412.5 147.5t-144.5 414.5zM373 539q0 -160 63.5 -247t194.5 -87q130 0 194 86.5t64 245.5q0 160 -64 246.5t-194 86.5q-258 0 -258 -331zM1194 633h448q0 126 -55 190t-160 64q-202 0 -233 -254z" />
<glyph unicode="&#x178;" horiz-adv-x="1357" d="M8 1434h344l326 -613l326 613h344l-519 -869l2 -565h-307v567zM373 1540v236h237v-236h-237zM748 1540v236h233v-236h-233z" />
<glyph unicode="&#x2c6;" horiz-adv-x="593" d="M-63 1210l217 283h286l217 -283h-204l-156 154l-156 -154h-204z" />
<glyph unicode="&#x2dc;" horiz-adv-x="616" d="M-68 1286q21 42 33.5 65t35.5 56t43.5 49.5t51 29.5t64.5 13q47 0 104 -24t105 -48t75 -24q17 0 30 5t33.5 26.5t43.5 62.5l133 -65q-23 -45 -34 -64.5t-35 -54.5t-43.5 -51t-50 -29.5t-64.5 -13.5q-48 0 -105.5 24.5t-106 49t-75.5 24.5q-25 0 -48.5 -18.5t-55.5 -75.5z " />
<glyph unicode="&#x2000;" horiz-adv-x="979" />
<glyph unicode="&#x2001;" horiz-adv-x="1958" />
<glyph unicode="&#x2002;" horiz-adv-x="979" />
<glyph unicode="&#x2003;" horiz-adv-x="1958" />
<glyph unicode="&#x2004;" horiz-adv-x="652" />
<glyph unicode="&#x2005;" horiz-adv-x="489" />
<glyph unicode="&#x2006;" horiz-adv-x="326" />
<glyph unicode="&#x2007;" horiz-adv-x="326" />
<glyph unicode="&#x2008;" horiz-adv-x="244" />
<glyph unicode="&#x2009;" horiz-adv-x="391" />
<glyph unicode="&#x200a;" horiz-adv-x="108" />
<glyph unicode="&#x2010;" horiz-adv-x="890" d="M121 463v239h649v-239h-649z" />
<glyph unicode="&#x2011;" horiz-adv-x="890" d="M121 463v239h649v-239h-649z" />
<glyph unicode="&#x2012;" horiz-adv-x="890" d="M121 463v239h649v-239h-649z" />
<glyph unicode="&#x2013;" horiz-adv-x="1157" d="M121 465v235h913v-235h-913z" />
<glyph unicode="&#x2014;" horiz-adv-x="1376" d="M121 465v235h1134v-235h-1134z" />
<glyph unicode="&#x2018;" horiz-adv-x="532" d="M94 1184l250 291l82 -101l-143 -227h135v-338h-301z" />
<glyph unicode="&#x2019;" horiz-adv-x="507" d="M100 868l146 228h-137v338h301l22 -375l-250 -291z" />
<glyph unicode="&#x201a;" horiz-adv-x="544" d="M111 -227l145 227h-137v338h301l22 -375l-249 -291z" />
<glyph unicode="&#x201c;" horiz-adv-x="993" d="M94 1184l250 291l82 -101l-143 -227h135v-338h-301zM553 1184l252 291l82 -101l-144 -227h136v-338h-304z" />
<glyph unicode="&#x201d;" horiz-adv-x="968" d="M100 868l146 228h-137v338h301l22 -375l-250 -291zM561 868l144 228h-138v338h305l23 -375l-254 -291z" />
<glyph unicode="&#x201e;" horiz-adv-x="1005" d="M111 -227l145 227h-137v338h301l22 -375l-249 -291zM571 -227l144 227h-137v338h305l22 -375l-254 -291z" />
<glyph unicode="&#x2022;" horiz-adv-x="942" d="M147 584q0 134 94.5 228.5t229.5 94.5t230.5 -94.5t95.5 -228.5q0 -135 -95.5 -229.5t-230.5 -94.5t-229.5 94.5t-94.5 229.5z" />
<glyph unicode="&#x2026;" horiz-adv-x="1538" d="M117 0v338h307v-338h-307zM616 0v338h306v-338h-306zM1116 0v338h305v-338h-305z" />
<glyph unicode="&#x202f;" horiz-adv-x="391" />
<glyph unicode="&#x2039;" horiz-adv-x="792" d="M59 467v178l625 434v-276l-379 -248l379 -246v-278z" />
<glyph unicode="&#x203a;" horiz-adv-x="792" d="M109 31v278l374 246l-374 248v274l622 -432v-178z" />
<glyph unicode="&#x205f;" horiz-adv-x="489" />
<glyph unicode="&#x20ac;" horiz-adv-x="1488" d="M82 481v160h125q-2 25 -2 76q0 42 2 65h-125v158h141q48 255 200.5 385.5t373.5 130.5q154 0 297 -54.5t311 -152.5l-143 -225q-130 74 -234 116t-197 42q-102 0 -174 -63t-108 -179h471v-158h-498q-2 -23 -2 -65q0 -51 2 -76h498v-160h-467q37 -110 108 -169.5 t170 -59.5q93 0 197 42t234 116l143 -226q-168 -98 -311 -152.5t-297 -54.5q-219 0 -371 127t-201 377h-143z" />
<glyph unicode="&#x2122;" horiz-adv-x="1306" d="M117 1333v101h442v-101h-162v-358h-123v358h-157zM618 975v459h130l149 -263l150 263h127v-459h-121v285l-119 -209h-74l-121 215v-291h-121z" />
<glyph unicode="&#xe000;" horiz-adv-x="1075" d="M0 0v1075h1075v-1075h-1075z" />
</font>
</defs>
</svg>
