<svg width="24" height="23" viewBox="0 0 24 23" xmlns="http://www.w3.org/2000/svg"><title>Shape</title><path d="M20.6 9.7h-2c.1.6.2 1.2.2 1.8 0 3.9-3.2 7.1-7.1 7.1-3.9 0-7.1-3.2-7.1-7.1 0-.6.1-1.2.2-1.8h-2v9.7c0 .5.4.9.9.9h15.9c.5 0 .9-.4.9-.9V9.7h.1zm0-6.2c0-.5-.4-.9-.9-.9H17c-.5 0-.9.4-.9.9v2.6c0 .5.4.9.9.9h2.6c.5 0 .9-.4.9-.9V3.5h.1zm-8.9 3.6c-2.4 0-4.4 2-4.4 4.4 0 2.4 2 4.4 4.4 4.4 2.4 0 4.4-2 4.4-4.4.1-2.5-1.9-4.4-4.4-4.4zM20.6 23H2.9C1.4 23 .3 21.8.3 20.3V2.6C.3 1.2 1.4 0 2.9 0h17.7c1.5 0 2.6 1.2 2.6 2.6v17.7c0 1.5-1.2 2.7-2.6 2.7z" fill="#265187" fill-rule="evenodd"/></svg>