<svg xmlns="http://www.w3.org/2000/svg" viewBox="0 0 23.5 23"><linearGradient id="a" gradientUnits="userSpaceOnUse" x1="9.837" y1="22.994" x2="9.837" y2=".493" gradientTransform="matrix(1.0222 0 0 -1.0222 1.7 23.504)"><stop offset="0" stop-color="#e52d27"/><stop offset="1" stop-color="#b31217"/></linearGradient><path fill="url(#a)" d="M22.3 0H1.2C.5 0 0 .5 0 1.2v20.5c0 .7.5 1.3 1.2 1.3h21.1c.6 0 1.2-.5 1.2-1.2V1.2C23.5.5 23 0 22.3 0z"/><path opacity=".12" d="M10.1 9.1l3.7 2.5.5-.3-4.2-2.2z"/><path fill="#FFF" d="M19.4 8.4s-.1-1.1-.6-1.5c-.6-.6-1.2-.6-1.5-.6-2.2-.3-5.4-.3-5.4-.3s-3.3 0-5.4.2c-.3 0-.9 0-1.5.6-.7.5-.9 1.6-.9 1.6s-.2 1.2-.2 2.6v1.2c0 1.2.2 2.6.2 2.6s.1 1.1.6 1.5c.6.6 1.3.6 1.7.7 1.2.1 5.3.2 5.3.2s3.3 0 5.4-.2c.3 0 .9 0 1.5-.6.5-.5.6-1.5.6-1.5s.2-1.2.2-2.6V11c.1-1.4 0-2.6 0-2.6zm-9.3 5.1V9.1l4.2 2.1-4.2 2.3z"/></svg>