<svg id="Layer_1" xmlns="http://www.w3.org/2000/svg" width="80" height="80" viewBox="0 0 80 80"><style>.st0{fill:#fff}.st1{fill:#ffe100}</style><path class="st0" d="M66.1 43.5h-.6c-1.9-7-8.3-12.2-15.9-12.2-9.1 0-16.5 7.4-16.5 16.5 0 .9.1 1.8.2 2.6h-.2c-5.8 0-10.4 4.7-10.4 10.4S27.3 71.3 33 71.3h33c7.7 0 13.9-6.2 13.9-13.9s-6.1-13.9-13.8-13.9z"/><path class="st1" d="M31.3 19.1h-3.5V8.7h3.5v10.4zm19.2.7L48 17.4l-6.1 6.1 2.5 2.5 6.1-6.2zM8.7 56.7l2.5 2.5 6.1-6.1-2.5-2.5-6.1 6.1zM0 36.5V40h10.4v-3.5H0zm11.1-19.1l-2.5 2.5 6.1 6.1 2.5-2.5-6.1-6.1zm12.4 33.4c1.7-1.6 3.8-2.8 6.1-3.4.2-7.7 4.7-14.2 11.1-17.5-2.5-3.4-6.6-5.6-11.1-5.6-7.7 0-13.9 6.2-13.9 13.9 0 5.6 3.2 10.3 7.8 12.6z"/></svg>