<svg id="Layer_1" xmlns="http://www.w3.org/2000/svg" width="24" height="26" viewBox="0 0 24 26"><style>.st0{fill:none}.st1{fill:#231f20}</style><path class="st0" d="M14.5 2.4c4 0 7.2 3.2 7.2 7.2s-3.2 7.2-7.2 7.2c-1.3 0-2.5-.4-3.6-1l4.3-5-2.3-2-4.2 5c-.9-1.2-1.4-2.6-1.4-4.2 0-4 3.2-7.2 7.2-7.2z"/><path class="st1" d="M0 24l7.5-8.8c.6.8 1.4 1.5 2.3 2l-7.4 8.7L0 24z"/><path class="st1" d="M5.5 9.6c0 2.1.7 4.1 2 5.6.6.8 1.4 1.5 2.3 2 1.4.9 3 1.4 4.8 1.4 5 0 9-4 9-9s-4-9-9-9-9.1 4-9.1 9zm1.8 0c0-4 3.2-7.2 7.2-7.2s7.2 3.2 7.2 7.2-3.2 7.2-7.2 7.2c-1.3 0-2.5-.4-3.6-1-.9-.5-1.6-1.2-2.2-2-.9-1.2-1.4-2.7-1.4-4.2z"/><path class="st1" d="M9.5 17.6c-.9-.6-1.7-1.3-2.4-2.1C5.7 13.8 5 11.8 5 9.6 5 4.4 9.3.1 14.5.1S24 4.4 24 9.6s-4.3 9.5-9.5 9.5c-1.8 0-3.5-.5-5-1.5zM6 9.6c0 2 .6 3.8 1.9 5.3.6.7 1.3 1.4 2.1 1.9 1.4.9 2.9 1.3 4.5 1.3 4.7 0 8.5-3.8 8.5-8.5S19.2 1 14.5 1 6 4.9 6 9.6zm4.7 6.6c-.9-.5-1.7-1.3-2.4-2.2-1-1.3-1.5-2.9-1.5-4.5 0-4.2 3.5-7.7 7.7-7.7s7.7 3.5 7.7 7.7-3.5 7.7-7.7 7.7c-1.3.1-2.7-.3-3.8-1zM7.8 9.6c0 1.4.4 2.8 1.3 3.9.6.8 1.3 1.4 2.1 1.9 1 .6 2.2.9 3.3.9a6.7 6.7 0 1 0-6.7-6.7z"/></svg>