<?xml version="1.0" standalone="no"?>
<!DOCTYPE svg PUBLIC "-//W3C//DTD SVG 1.1//EN" "http://www.w3.org/Graphics/SVG/1.1/DTD/svg11.dtd" >
<svg>
<metadata>
Created by FontForge 20090914 at Wed Nov  5 16:57:10 2014
 By www-data
4.1 (c)1986-92 by Richard A. Ware. All Rights Reserved.
</metadata>
<defs>
<font id="BodoniFLF-Roman" horiz-adv-x="376" >
  <font-face 
    font-family="BodoniFLF"
    font-weight="500"
    font-stretch="normal"
    units-per-em="1000"
    panose-1="2 0 6 6 9 0 0 2 0 3"
    ascent="800"
    descent="-200"
    x-height="392"
    cap-height="672"
    bbox="-15.999 -268.001 1060 873.001"
    underline-thickness="20"
    underline-position="-156"
    unicode-range="U+0005-U+E011"
  />
<missing-glyph horiz-adv-x="500" 
 />
    <glyph glyph-name=".notdef" horiz-adv-x="500" 
 />
    <glyph glyph-name="breve" horiz-adv-x="371" 
d="M196 517c21.333 0 41.5029 4.5 60.5029 13.5s35.167 22.833 48.5 41.5l-13 13c-12.667 -13.333 -27.5 -23.5 -44.5 -30.5s-34.833 -10.5 -53.5 -10.5s-36.834 3.5 -54.501 10.5s-33.167 17.167 -46.5 30.5l-13 -13c15.333 -18.667 33.166 -32.5 53.499 -41.5
s41.166 -13.5 62.499 -13.5z" />
    <glyph glyph-name="dotaccent" horiz-adv-x="357" 
d="M234 545c0 15.333 -5.16699 28.166 -15.5 38.499s-23.166 15.5 -38.499 15.5s-28.166 -5.16699 -38.499 -15.5s-15.5 -23.166 -15.5 -38.499s5.16699 -28.166 15.5 -38.499s23.166 -15.5 38.499 -15.5s28.166 5.16699 38.499 15.5s15.5 23.166 15.5 38.499z" />
    <glyph glyph-name="ring" horiz-adv-x="382" 
d="M274 552c0 20.667 -7.33301 38.334 -22 53.001s-32.334 22 -53.001 22s-38.334 -7.33301 -53.001 -22s-22 -32.334 -22 -53.001s7.33301 -38.334 22 -53.001s32.334 -22 53.001 -22s38.334 7.33301 53.001 22s22 32.334 22 53.001zM140 552
c0 16.667 5.66699 30.667 17 42s25.333 17 42 17s30.667 -5.66699 42 -17s17 -25.333 17 -42s-5.66699 -30.667 -17 -42s-25.333 -17 -42 -17s-30.667 5.66699 -42 17s-17 25.333 -17 42z" />
    <glyph glyph-name="hungarumlaut" unicode="&#xa;" horiz-adv-x="468" 
d="M141 730l-8 -174l9 -1l76 212zM244 730l-7 -174l8 -1l77 212z" />
    <glyph glyph-name="ogonek" horiz-adv-x="360" 
d="M175 -92c0 28 7.33105 58.6689 21.998 92.002h-19c-10 -14 -19 -28.667 -27 -44s-12 -32 -12 -50c0 -20 6 -35.167 18 -45.5s27 -15.5 45 -15.5c15.333 0 29.5 3 42.5 9s19.5 10.667 19.5 14c0 4 -2.66699 6 -8 6c-2.66699 0 -6.66699 -0.666992 -12 -2
c-3.33301 -0.666992 -7.16602 -1.33398 -11.499 -2.00098s-9.5 -1 -15.5 -1c-17.333 0 -28.666 4.16699 -33.999 12.5s-8 17.166 -8 26.499z" />
    <glyph glyph-name="caron" horiz-adv-x="428" 
d="M207 479h6l132 133l-6 3l-129 -67l-128 67l-7 -3z" />
    <glyph glyph-name="dotlessi" unicode="&#xd;" horiz-adv-x="294" 
d="M197 16v376h-161v-16h75v-360h-75v-16h236v16h-75z" />
    <glyph glyph-name="fraction" horiz-adv-x="575" 
d="M527 720l-532 -790h43l532 790h-43z" />
    <glyph glyph-name="fi" horiz-adv-x="516" 
d="M341 376v-360h-156v360h156zM24 16l-0.00292969 -16h478v16h-75v376h-242v145c0 44 6.83301 75.833 20.5 95.5s36.5 29.5 68.5 29.5c26.667 0 49.167 -3.33301 67.5 -10s27.5 -13.667 27.5 -21c0 -2 -1.33301 -3.33301 -4 -4
c-9.33301 -3.33301 -17.166 -9.33301 -23.499 -18s-9.5 -19.334 -9.5 -32.001c0 -13.333 5.16699 -25 15.5 -35s23.833 -15 40.5 -15c17.333 0 30.333 5 39 15s13 22.667 13 38c0 14.667 -4.66699 28 -14 40s-21.666 22.333 -36.999 31s-33 15.334 -53 20.001s-41 7 -63 7
c-57.333 0 -100.666 -17.5 -129.999 -52.5s-44 -85.167 -44 -150.5v-83h-74v-16h74v-360h-75z" />
    <glyph glyph-name="fl" horiz-adv-x="516" 
d="M427 673l-86 -25v-8c-6 8 -16.833 16.333 -32.5 25s-36.167 13 -61.5 13c-30 0 -54.667 -6.5 -74 -19.5s-34.5 -29.833 -45.5 -50.5s-18.5 -44 -22.5 -70s-6 -52 -6 -78v-68h-75v-16h75v-360h-75v-16h478v16h-75v657zM185 376l75 0.00195312v16h-75v182
c0 10 0.666992 20.333 2 31s4.5 20.167 9.5 28.5s12.333 15.166 22 20.499s22.5 8 38.5 8c7.33301 0 15.166 -1.33301 23.499 -4s12.5 -4.66699 12.5 -6s-1.33301 -2.33301 -4 -3c-7.33301 -2 -13.5 -6.83301 -18.5 -14.5s-7.5 -15.834 -7.5 -24.501
c0 -10.667 4.33301 -20 13 -28s18.667 -12 30 -12c8 0 15.333 1.66699 22 5s11.334 7.33301 14.001 12l-1 -571h-156v360z" />
    <glyph glyph-name="Lslash" horiz-adv-x="599" 
d="M116 262l-73 -74v-24l73 74v-222h-83v-16h512c12 0 19.833 3.5 23.5 10.5s5.5 14.167 5.5 21.5v150c0 16 -2.66699 24 -8 24c-4.66699 0 -8.33398 -7 -11.001 -21c-5.33301 -25.333 -11 -48.333 -17 -69s-14 -38.5 -24 -53.5s-22.667 -26.5 -38 -34.5
s-34.666 -12 -57.999 -12h-205v294l129 129v24l-129 -129v323h93v16h-273v-16h83v-395z" />
    <glyph glyph-name="lslash" horiz-adv-x="285" 
d="M105 280l-79 -79v-24l79 79v-240h-68v-16h224v16h-70v315l77 77v24l-77 -77v317h-154v-16h68v-376z" />
    <glyph glyph-name="Zcaron" horiz-adv-x="509" 
d="M34 26l0.00195312 -26h449v201h-16c-1.33301 -34 -5.66602 -62.833 -12.999 -86.5s-17.333 -42.667 -30 -57s-27.834 -24.833 -45.501 -31.5s-37.834 -10 -60.501 -10h-191l349 632v24h-437v-174h14c0.666992 30.667 4.83398 56.167 12.501 76.5s17.667 36.5 30 48.5
s26.166 20.5 41.499 25.5s31.666 7.5 48.999 7.5h193zM276.002 699l133 133l-7 4l-129 -68l-128 68l-6 -4l131 -133h6z" />
    <glyph glyph-name="zcaron" horiz-adv-x="402" 
d="M362 392h-292v-120h12c2 20.667 5.66699 37.667 11 51s12 24 20 32s17.167 13.5 27.5 16.5s21.5 4.5 33.5 4.5h101l-223 -354v-22h320v131h-12c-2.66699 -40 -12.167 -69.167 -28.5 -87.5s-40.5 -27.5 -72.5 -27.5h-117l220 352v24zM207 479h6l132 133l-6 3l-129 -67
l-128 67l-7 -3z" />
    <glyph glyph-name="space" unicode=" " horiz-adv-x="269" 
 />
    <glyph glyph-name="exclam" unicode="!" horiz-adv-x="269" 
d="M134 167h12.0049l7 105c2.66699 40.667 7.66699 81.334 15 122.001c2 10 4.66699 22.167 8 36.5s6.66602 29.833 9.99902 46.5s6.16602 33.834 8.49902 51.501s3.5 34.5 3.5 50.5c0 18 -1.83301 33 -5.5 45s-8.16699 21.333 -13.5 28s-11.333 11.334 -18 14.001
s-13.334 4 -20.001 4c-7.33301 0 -14.5 -1.33301 -21.5 -4s-13.167 -7.33398 -18.5 -14.001s-9.83301 -16 -13.5 -28s-5.5 -27 -5.5 -45c0 -16 1.16699 -32.833 3.5 -50.5s5.16602 -34.834 8.49902 -51.501s6.66602 -32.167 9.99902 -46.5s6 -26.5 8 -36.5
c7.33301 -40.667 12.333 -81.334 15 -122.001zM196.005 50c0 15.333 -5.16699 28.166 -15.5 38.499s-23.166 15.5 -38.499 15.5s-28.166 -5.16699 -38.499 -15.5s-15.5 -23.166 -15.5 -38.499s5.16699 -28.166 15.5 -38.499s23.166 -15.5 38.499 -15.5
s28.166 5.16699 38.499 15.5s15.5 23.166 15.5 38.499z" />
    <glyph glyph-name="quotedbl" unicode="&#x22;" horiz-adv-x="325" 
d="M255 499c0 -11.333 -5.33496 -17 -16.002 -17s-16 5.66699 -16 17c0 3.33301 0.166992 6.83301 0.5 10.5s0.5 7.16699 0.5 10.5c0 19.333 -1.5 36.166 -4.5 50.499s-6.16699 27.166 -9.5 38.499c-3.33301 12 -6.66602 22.5 -9.99902 31.5s-5 17.5 -5 25.5
s3.16699 17.333 9.5 28s17.833 16 34.5 16s28.167 -5.33301 34.5 -16s9.5 -20 9.5 -28s-1.66699 -16.5 -5 -25.5s-6.66602 -19.5 -9.99902 -31.5c-3.33301 -11.333 -6.5 -24.166 -9.5 -38.499s-4.5 -31.166 -4.5 -50.499c0 -3.33301 0.166992 -6.83301 0.5 -10.5
s0.5 -7.16699 0.5 -10.5zM114.998 499c0 -11.333 -5.33496 -17 -16.002 -17s-16 5.66699 -16 17c0 3.33301 0.166992 6.83301 0.5 10.5s0.5 7.16699 0.5 10.5c0 19.333 -1.5 36.166 -4.5 50.499s-6.16699 27.166 -9.5 38.499c-3.33301 12 -6.66602 22.5 -9.99902 31.5
s-5 17.5 -5 25.5s3.16699 17.333 9.5 28s17.833 16 34.5 16s28.167 -5.33301 34.5 -16s9.5 -20 9.5 -28s-1.66699 -16.5 -5 -25.5s-6.66602 -19.5 -9.99902 -31.5c-3.33301 -11.333 -6.5 -24.166 -9.5 -38.499s-4.5 -31.166 -4.5 -50.499
c0 -3.33301 0.166992 -6.83301 0.5 -10.5s0.5 -7.16699 0.5 -10.5z" />
    <glyph glyph-name="numbersign" unicode="#" horiz-adv-x="570" 
d="M233 428l33 132h-26l-32 -132h-146l-8 -26h147l-29 -120h-134l-9 -26h137l-33 -133h26l32 133h147l-34 -138h26l33 138h141l9 26h-143l29 120h135l9 26h-138l33 132h-26l-32 -132h-147zM198 282l29 120h146l-29 -120h-146z" />
    <glyph glyph-name="dollar" unicode="$" horiz-adv-x="581" 
d="M346 -70l0.000976562 67.001c32 4.66699 59.333 13 82 25s41.5 26.667 56.5 44s26 37.166 33 59.499s10.5 46.166 10.5 71.499c0 28 -4.66699 53 -14 75s-22.166 40.833 -38.499 56.5s-35.5 28.334 -57.5 38.001s-46 16.5 -72 20.5v265
c9.33301 -1.33301 18.833 -3.33301 28.5 -6s18.5 -5.83398 26.5 -9.50098s14.5 -7.33398 19.5 -11.001s7.5 -7.16699 7.5 -10.5c0 -5.33301 -2.66699 -9.33301 -8 -12c-17.333 -8.66699 -26 -23 -26 -43c0 -13.333 4.66699 -24 14 -32s20.666 -12 33.999 -12
c16.667 0 29.167 5 37.5 15s12.5 22.333 12.5 37c0 20.667 -11.833 40.334 -35.5 59.001s-60.5 32.334 -110.5 41.001v69h-16v-68c-6 1.33301 -12.333 2 -19 2h-19c-18.667 0 -34.334 -1 -47.001 -3v69h-16v-72c-52 -12.667 -92.667 -36 -122 -70s-44 -74 -44 -120
s14.5 -85.167 43.5 -117.5s69.833 -52.166 122.5 -59.499v-282c-15.333 2 -30 5.16699 -44 9.5s-26.5 9 -37.5 14s-19.833 10.333 -26.5 16s-10 10.834 -10 15.501c0 3.33301 3.66699 6.66602 11 9.99902s13.5 8.83301 18.5 16.5s7.5 16.167 7.5 25.5
c0 10.667 -4 20.5 -12 29.5s-19.333 13.5 -34 13.5c-12.667 0 -23.334 -4.33301 -32.001 -13s-13 -20.334 -13 -35.001c0 -15.333 4.66699 -29.5 14 -42.5s22 -24.5 38 -34.5s34.333 -18.5 55 -25.5s42.334 -12.5 65.001 -16.5v-69h16v67c16.667 -2 32.667 -3 48 -3h18
c6 0 12.333 0.666992 19 2v-66h16zM330.001 285.001l-0.00195312 -272c-14 -2 -27.667 -3 -41 -3c-7.33301 0 -14.166 0.333008 -20.499 1s-14.166 1.66699 -23.499 3v281c12.667 -2 26 -3.66699 40 -5s29 -3 45 -5zM345.999 284.001c50.667 -9.33301 86.667 -24 108 -44
s32 -48 32 -84c0 -24 -4.33301 -44.333 -13 -61s-19.667 -30.5 -33 -41.5s-28.333 -19.5 -45 -25.5s-33 -10 -49 -12v268zM329.999 653.001l0.000976562 -264c-14 2.66699 -28.833 4.5 -44.5 5.5s-29.167 2.5 -40.5 4.5v252c7.33301 1.33301 15 2.33301 23 3s16.333 1 25 1
c6.66699 0 13.167 -0.166992 19.5 -0.5s12.166 -0.833008 17.499 -1.5zM229 647.001v-246c-43.333 9.33301 -74.5 22.5 -93.5 39.5s-28.5 40.167 -28.5 69.5c0 32.667 10.833 61.5 32.5 86.5s51.5 41.833 89.5 50.5z" />
    <glyph glyph-name="percent" unicode="%" horiz-adv-x="748" 
d="M166 -4l445 687h-35l-445 -687h35zM34 491c0 -24 3.49902 -47.668 10.499 -71.001s17.333 -44.166 31 -62.499s30.834 -33.166 51.501 -44.499s45 -17 73 -17c26.667 0 49.834 5.5 69.501 16.5s36 25.667 49 44s22.667 39.166 29 62.499s9.5 47.333 9.5 72
c0 24 -3.33301 47.5 -10 70.5s-16.667 43.5 -30 61.5s-30 32.5 -50 43.5s-43.667 16.5 -71 16.5s-51 -5.5 -71 -16.5s-36.833 -25.5 -50.5 -43.5s-23.834 -38.5 -30.501 -61.5s-10 -46.5 -10 -70.5zM117.999 502.999c0 22 0.500977 43 1.50098 63s4 37.667 9 53
s12.667 27.666 23 36.999s25.166 14 44.499 14c18.667 0 33.167 -4.5 43.5 -13.5s18 -21.167 23 -36.5s8 -33.166 9 -53.499s1.5 -41.5 1.5 -63.5v-24c0 -24 -0.5 -46.333 -1.5 -67s-3.83301 -38.667 -8.5 -54s-12 -27.333 -22 -36s-23.667 -13 -41 -13
c-20 0 -35.667 4.66699 -47 14s-19.5 21.666 -24.5 36.999s-8 33.333 -9 54s-1.5 42.334 -1.5 65.001v24zM387 183.999c0 -24 3.49902 -47.668 10.499 -71.001s17.333 -44.166 31 -62.499s30.834 -33.166 51.501 -44.499s45 -17 73 -17c26.667 0 49.834 5.5 69.501 16.5
s36 25.667 49 44s22.667 39.166 29 62.499s9.5 47.333 9.5 72c0 24 -3.33301 47.5 -10 70.5s-16.667 43.5 -30 61.5s-30 32.5 -50 43.5s-43.667 16.5 -71 16.5s-51 -5.5 -71 -16.5s-36.833 -25.5 -50.5 -43.5s-23.834 -38.5 -30.501 -61.5s-10 -46.5 -10 -70.5z
M470.999 195.998c0 22 0.500977 43 1.50098 63s4 37.667 9 53s12.667 27.666 23 36.999s25.166 14 44.499 14c18.667 0 33.167 -4.5 43.5 -13.5s18 -21.167 23 -36.5s8 -33.166 9 -53.499s1.5 -41.5 1.5 -63.5v-24c0 -24 -0.5 -46.333 -1.5 -67s-3.83301 -38.667 -8.5 -54
s-12 -27.333 -22 -36s-23.667 -13 -41 -13c-20 0 -35.667 4.66699 -47 14s-19.5 21.666 -24.5 36.999s-8 33.333 -9 54s-1.5 42.334 -1.5 65.001v24z" />
    <glyph glyph-name="ampersand" unicode="&#x26;" horiz-adv-x="753" 
d="M715 16l-105.001 0.00195312l-91 136c36.667 37.333 65 76 85 116s33.667 81.333 41 124h85v16h-195v-16h89c-6 -36 -18.667 -73 -38 -111s-46.333 -74 -81 -108l-168 256c24 12.667 44.167 24.5 60.5 35.5s29.5 22.167 39.5 33.5s17.167 23.333 21.5 36s6.5 27 6.5 43
c0 33.333 -12 58.5 -36 75.5s-54 25.5 -90 25.5c-23.333 0 -44.5 -3.66699 -63.5 -11s-35.167 -17.333 -48.5 -30s-23.5 -27.334 -30.5 -44.001s-10.5 -34.334 -10.5 -53.001c0 -10.667 1.33301 -21.667 4 -33s7.33398 -21.666 14.001 -30.999l47 -71
c-76 -36 -132.667 -74.833 -170 -116.5s-56 -87.834 -56 -138.501c0 -51.333 15.5 -91 46.5 -119s72.167 -42 123.5 -42c36 0 69.167 5.33301 99.5 16s57 22.667 80 36s41.5 25.833 55.5 37.5s22.333 18.5 25 20.5l64 -99h196v16zM404.999 565.002
c0 -18 -1.66504 -33.165 -4.99805 -45.498s-8.33301 -23 -15 -32s-15 -16.833 -25 -23.5s-21.333 -13 -34 -19l-63 94c-6.66699 9.33301 -11 19 -13 29s-3 19.667 -3 29c0 22.667 7.66699 39.5 23 50.5s33.333 16.5 54 16.5c15.333 0 28.166 -3.33301 38.499 -10
s18.666 -14.834 24.999 -24.501s10.833 -20.334 13.5 -32.001s4 -22.5 4 -32.5zM120.001 229.004c0 18 3 34.3311 9 48.998s15 28.334 27 41.001s26.833 24.667 44.5 36s38.167 22.666 61.5 33.999l179 -270l-37 -26c-13.333 -9.33301 -27.333 -17.666 -42 -24.999
s-29.834 -13.5 -45.501 -18.5s-30.834 -7.5 -45.501 -7.5c-22.667 0 -43.167 6.33301 -61.5 19s-34.166 28.334 -47.499 47.001s-23.666 39 -30.999 61s-11 42 -11 60z" />
    <glyph glyph-name="quotesingle" unicode="'" horiz-adv-x="210" 
d="M125 499c0 -11.333 -5.33496 -17 -16.002 -17s-16 5.66699 -16 17c0 3.33301 0.166992 6.83301 0.5 10.5s0.5 7.16699 0.5 10.5c0 19.333 -1.5 36.166 -4.5 50.499s-6.16699 27.166 -9.5 38.499c-3.33301 12 -6.66602 22.5 -9.99902 31.5s-5 17.5 -5 25.5
s3.16699 17.333 9.5 28s17.833 16 34.5 16s28.167 -5.33301 34.5 -16s9.5 -20 9.5 -28s-1.66699 -16.5 -5 -25.5s-6.66602 -19.5 -9.99902 -31.5c-3.33301 -11.333 -6.5 -24.166 -9.5 -38.499s-4.5 -31.166 -4.5 -50.499c0 -3.33301 0.166992 -6.83301 0.5 -10.5
s0.5 -7.16699 0.5 -10.5z" />
    <glyph glyph-name="parenleft" unicode="(" horiz-adv-x="231" 
d="M107 311c0 35.333 1.5 71.5 4.5 108.5s7.5 72.833 13.5 107.5s13.667 67.334 23 98.001s20.666 57 33.999 79c4.66699 8.66699 7 15.334 7 20.001c0 4 -1.33301 6 -4 6s-7 -3 -13 -9c-22 -22.667 -41.167 -49.667 -57.5 -81s-30 -65 -41 -101s-19.167 -73.5 -24.5 -112.5
s-8 -77.5 -8 -115.5s2.66699 -76.5 8 -115.5s13.5 -76.5 24.5 -112.5s24.667 -69.667 41 -101s35.5 -58.333 57.5 -81c2.66699 -4 6 -6 10 -6c3.33301 0 5 2.33301 5 7c0 5.33301 -1.66699 10.666 -5 15.999c-13.333 22 -24.666 48.167 -33.999 78.5s-17 62.833 -23 97.5
s-10.5 70.667 -13.5 108s-4.5 73.666 -4.5 108.999z" />
    <glyph glyph-name="parenright" unicode=")" horiz-adv-x="231" 
d="M127 311c0 -35.333 -1.49902 -71.666 -4.49902 -108.999s-7.5 -73.333 -13.5 -108s-13.833 -67.167 -23.5 -97.5s-20.834 -56.5 -33.501 -78.5c-3.33301 -5.33301 -5 -10.666 -5 -15.999c0 -4.66699 1.66699 -7 5 -7s6.66602 2 9.99902 6
c22 22.667 41.167 49.667 57.5 81s30 65 41 101s19.167 73.5 24.5 112.5s8 77.5 8 115.5s-2.66699 76.5 -8 115.5s-13.5 76.5 -24.5 112.5s-24.667 69.667 -41 101s-35.5 58.333 -57.5 81c-6 6 -10.333 9 -13 9s-4 -2 -4 -6c0 -4.66699 2.33301 -11.334 7 -20.001
c12.667 -22 23.834 -48.333 33.501 -79s17.5 -63.334 23.5 -98.001s10.5 -70.5 13.5 -107.5s4.5 -73.167 4.5 -108.5z" />
    <glyph glyph-name="asterisk" unicode="*" horiz-adv-x="409" 
d="M218 540c8 -5.33301 21.667 -12.666 41 -21.999s44 -16.333 74 -21c14 -2 23.833 -6.33301 29.5 -13s8.5 -13.667 8.5 -21c0 -8.66699 -3 -16.5 -9 -23.5s-13.667 -10.5 -23 -10.5c-12 0 -23 6.33301 -33 19c-19.333 23.333 -37.833 41.5 -55.5 54.5
s-30.834 21.833 -39.501 26.5c0 -18.667 1.5 -38.667 4.5 -60s8.83301 -42 17.5 -62c3.33301 -8.66699 5 -16 5 -22c0 -11.333 -3.33301 -19.666 -10 -24.999s-14.334 -8 -23.001 -8c-8 0 -15.5 2.66699 -22.5 8s-10.5 13.666 -10.5 24.999c0 6.66699 1.66699 14 5 22
c8.66699 20 14.5 40.667 17.5 62s4.5 41.333 4.5 60c-7.33301 -4 -20.333 -12.167 -39 -24.5s-37.667 -30.5 -57 -54.5c-10 -12.667 -21.333 -19 -34 -19c-9.33301 0 -17 3.33301 -23 10s-9 14.334 -9 23.001c0 7.33301 3 14.166 9 20.499s15.667 10.5 29 12.5
c31.333 5.33301 56.833 12.666 76.5 21.999s33.167 16.333 40.5 21c-7.33301 4.66699 -20.833 11.667 -40.5 21s-45.167 16.666 -76.5 21.999c-13.333 2 -23 6.16699 -29 12.5s-9 13.166 -9 20.499c0 8.66699 3 16.334 9 23.001s13.667 10 23 10
c12.667 0 24 -6.33301 34 -19c19.333 -24 38.333 -42.167 57 -54.5s31.667 -20.5 39 -24.5c0 18.667 -1.5 38.667 -4.5 60s-8.83301 42 -17.5 62c-3.33301 8 -5 15.333 -5 22c0 11.333 3.5 19.666 10.5 24.999s14.5 8 22.5 8c8.66699 0 16.334 -2.66699 23.001 -8
s10 -13.666 10 -24.999c0 -6 -1.66699 -13.333 -5 -22c-8.66699 -20 -14.5 -40.667 -17.5 -62s-4.5 -41.333 -4.5 -60c8.66699 4.66699 21.834 13.5 39.501 26.5s36.167 31.167 55.5 54.5c10 12.667 21 19 33 19c9.33301 0 17 -3.5 23 -10.5s9 -14.833 9 -23.5
c0 -7.33301 -2.83301 -14.333 -8.5 -21s-15.5 -11 -29.5 -13c-30 -4.66699 -54.667 -11.667 -74 -21s-33 -16.666 -41 -21.999z" />
    <glyph glyph-name="plus" unicode="+" horiz-adv-x="387" 
d="M170 304h-135v-54h135v-135h54v135h135v54h-135v135h-54v-135z" />
    <glyph glyph-name="comma" unicode="," horiz-adv-x="263" 
d="M217 49c0 20.667 -6.83301 37.499 -20.5 50.499s-30.167 19.5 -49.5 19.5s-35 -5.16699 -47 -15.5s-18 -24.166 -18 -41.499c0 -16.667 5.33301 -29.5 16 -38.5s24 -13.5 40 -13.5c10.667 0 20.334 3 29.001 9s13.667 14.667 15 26c0 6 1 9 3 9c6 0 9 -8 9 -24
c0 -8.66699 -1.83301 -18.5 -5.5 -29.5s-9.33398 -22.167 -17.001 -33.5s-17.5 -22.166 -29.5 -32.499s-26.333 -18.833 -43 -25.5c-3.33301 -2 -5 -3.66699 -5 -5c0 -2 1.66699 -3 5 -3c1.33301 0 3.33301 0.666992 6 2c20 8 37 17.667 51 29s25.5 23.666 34.5 36.999
s15.667 27 20 41s6.5 27 6.5 39z" />
    <glyph glyph-name="hyphen" unicode="-" horiz-adv-x="280" 
d="M235 298h-179v-54h179v54z" />
    <glyph glyph-name="period" unicode="." horiz-adv-x="215" 
d="M163 50c0 15.333 -5.16699 28.166 -15.5 38.499s-23.166 15.5 -38.499 15.5s-28.166 -5.16699 -38.499 -15.5s-15.5 -23.166 -15.5 -38.499s5.16699 -28.166 15.5 -38.499s23.166 -15.5 38.499 -15.5s28.166 5.16699 38.499 15.5s15.5 23.166 15.5 38.499z" />
    <glyph glyph-name="slash" unicode="/" horiz-adv-x="280" 
d="M247 720l-247 -790h27l247 790h-27z" />
    <glyph glyph-name="zero" unicode="0" horiz-adv-x="538" 
d="M31 328c0 -43.333 5.83301 -85.5 17.5 -126.5s28 -77.5 49 -109.5s46.167 -57.833 75.5 -77.5s61.666 -29.5 96.999 -29.5s67.666 9.83301 96.999 29.5s54.5 45.5 75.5 77.5s37.333 68.5 49 109.5s17.5 83.167 17.5 126.5c0 42.667 -5.83301 84.667 -17.5 126
s-28 78 -49 110s-46.167 57.833 -75.5 77.5s-61.666 29.5 -96.999 29.5s-67.666 -9.83301 -96.999 -29.5s-54.5 -45.5 -75.5 -77.5s-37.333 -68.667 -49 -110s-17.5 -83.333 -17.5 -126zM270 1c-20 0 -38 3.83691 -54 11.5039s-29.5 21.167 -40.5 40.5
s-19.5 45.166 -25.5 77.499s-9 73.166 -9 122.499v150c0 49.333 3 90.166 9 122.499s14.5 58.166 25.5 77.499s24.5 32.833 40.5 40.5s34 11.5 54 11.5s38 -3.66699 54 -11s29.5 -20.333 40.5 -39s19.5 -44.334 25.5 -77.001s9 -74.334 9 -125.001v-150
c0 -49.333 -3 -90.166 -9 -122.499s-14.5 -58.166 -25.5 -77.499s-24.5 -32.833 -40.5 -40.5s-34 -11.5 -54 -11.5z" />
    <glyph glyph-name="one" unicode="1" horiz-adv-x="538" 
d="M336 659l-9 7l-194 -25v-16l106 13v-622h-101v-16h299v16h-101v643z" />
    <glyph glyph-name="two" unicode="2" horiz-adv-x="538" 
d="M136 568c-2.66699 0 -5.00195 -0.166992 -7.00195 -0.5s-4.33301 -0.833008 -7 -1.5c-1.33301 0 -2.16602 -0.166992 -2.49902 -0.5s-0.833008 -0.5 -1.5 -0.5c-6 0 -9 3.66699 -9 11c0 10 4.33301 19.5 13 28.5s19.667 16.667 33 23s28.166 11.333 44.499 15
s32.5 5.5 48.5 5.5c46 0 79.5 -12.5 100.5 -37.5s31.5 -61.833 31.5 -110.5c0 -44 -7.5 -83.333 -22.5 -118s-39.167 -68 -72.5 -100l-245 -230v-52h443l11 186v8c0 16 -2.33301 24 -7 24c-3.33301 0 -5.66602 -2.16699 -6.99902 -6.5s-3.33301 -12.166 -6 -23.499
c-7.33301 -32.667 -17.833 -58.5 -31.5 -77.5s-35.5 -28.5 -65.5 -28.5h-281l212 184c24 20.667 46.5 41 67.5 61s39.333 40.167 55 60.5s28.167 41 37.5 62s14 42.5 14 64.5c0 28.667 -6.16699 52.834 -18.5 72.501s-28.5 35.667 -48.5 48s-42.5 21.166 -67.5 26.499
s-49.833 8 -74.5 8c-29.333 0 -57.166 -3.33301 -83.499 -10s-49.5 -16.5 -69.5 -29.5s-35.833 -28.833 -47.5 -47.5s-17.5 -40 -17.5 -64c0 -20 6 -36.333 18 -49s28.667 -19 50 -19c16.667 0 32.167 5 46.5 15s21.5 25.333 21.5 46c0 13.333 -5.16699 26.166 -15.5 38.499
s-23.5 18.5 -39.5 18.5z" />
    <glyph glyph-name="three" unicode="3" horiz-adv-x="538" 
d="M92 560c0 -19.333 5.6709 -34.332 17.0039 -44.999s25 -16 41 -16c18 0 32.667 4.83301 44 14.5s17 22.5 17 38.5s-4 28.333 -12 37s-17.667 14.667 -29 18c-6 2 -9 6 -9 12c0 3.33301 2 6.66602 6 9.99902c9.33301 7.33301 23 13.5 41 18.5s36.667 7.5 56 7.5
c26 0 46.667 -4.33301 62 -13s26.833 -19.667 34.5 -33s12.5 -28 14.5 -44s3 -31.667 3 -47c0 -27.333 -3.5 -50.666 -10.5 -69.999s-16.833 -35.166 -29.5 -47.499s-27.334 -21.333 -44.001 -27s-35 -8.5 -55 -8.5c-10.667 0 -22.5 0.666992 -35.5 2s-23.833 2 -32.5 2
c-8 0 -14 -1.5 -18 -4.5s-6 -6.5 -6 -10.5c0 -3.33301 2 -6.5 6 -9.5s10 -4.5 18 -4.5c8.66699 0 19.5 0.5 32.5 1.5s24.833 1.5 35.5 1.5c30 0 54.833 -4.83301 74.5 -14.5s35.167 -22.334 46.5 -38.001s19.166 -33.167 23.499 -52.5s6.5 -38.333 6.5 -57
c0 -30 -3.5 -56.333 -10.5 -79s-16.833 -41.5 -29.5 -56.5s-27.334 -26.333 -44.001 -34s-35 -11.5 -55 -11.5c-17.333 0 -35.5 2.83301 -54.5 8.5s-34.5 13.5 -46.5 23.5c-4.66699 4 -7 8.66699 -7 14c0 2 0.666992 4.33301 2 7s3.66602 4.66699 6.99902 6l13.5 5.5
c5.66699 2.33301 11 5.83301 16 10.5s9.33301 10.5 13 17.5s5.5 15.833 5.5 26.5c0 22.667 -6.33301 39.334 -19 50.001s-27.667 16 -45 16s-32.333 -6 -45 -18s-19 -29 -19 -51s5.83301 -41.333 17.5 -58s26.5 -30.5 44.5 -41.5s38.333 -19.333 61 -25s45 -8.5 67 -8.5
c32.667 0 62.667 5.33301 90 16s51 25.167 71 43.5s35.5 39.5 46.5 63.5s16.5 49.667 16.5 77c0 42 -13 77.667 -39 107s-67.333 50 -124 62c12 0.666992 26.5 4.5 43.5 11.5s33.5 17 49.5 30s29.667 29.167 41 48.5s17 42 17 68c0 28 -5.66699 52 -17 72
s-26.5 36.667 -45.5 50s-40.667 23.166 -65 29.499s-49.5 9.5 -75.5 9.5c-33.333 0 -61.333 -4 -84 -12s-41 -17.833 -55 -29.5s-24.167 -23.834 -30.5 -36.501s-9.5 -23.667 -9.5 -33z" />
    <glyph glyph-name="four" unicode="4" horiz-adv-x="538" 
d="M371 689h-39.999l-11 -15.5l-34 -49.5l-58.5 -88l-85.5 -131c-14.667 -22 -28.334 -43.667 -41.001 -65l-33.5 -57c-9.66699 -16.667 -17.167 -30.167 -22.5 -40.5l-8 -15.5v-21h239v-190h-88v-16h272v16h-89v190h117v-94h16v211h-16v-101h-117v467zM56.001 222
c2 4 7 13 15 27l27.5 48.5l33.5 57.5l33 54l30 45.5l35 52l30 44.5c8.66699 12.667 14 20.667 16 24v-353h-220z" />
    <glyph glyph-name="five" unicode="5" horiz-adv-x="538" 
d="M382 657l-254.001 0.00292969c-13.333 0 -23 -3.5 -29 -10.5s-9 -16.5 -9 -28.5v-247c18.667 10 38 17.167 58 21.5s47.667 6.5 83 6.5c24 0 46.167 -4.33301 66.5 -13s38 -21.167 53 -37.5s26.667 -36.333 35 -60s12.5 -50.834 12.5 -81.501
c0 -68.667 -13.5 -120.167 -40.5 -154.5s-64.5 -51.5 -112.5 -51.5c-24 0 -45.5 3.5 -64.5 10.5s-35.5 16.5 -49.5 28.5c-4.66699 4 -7 8 -7 12c0 2 0.333008 4 1 6s2.66699 3.66699 6 5c4.66699 1.33301 10 3 16 5s11.667 5 17 9s9.83301 9.33301 13.5 16s5.5 15 5.5 25
c0 19.333 -5.83301 33.666 -17.5 42.999s-25.167 14 -40.5 14s-29 -5.5 -41 -16.5s-18 -26.5 -18 -46.5c0 -21.333 5.5 -40 16.5 -56s25.167 -29.333 42.5 -40s36.666 -18.834 57.999 -24.501s42 -8.5 62 -8.5c32.667 0 64.167 5.16699 94.5 15.5s57.333 25.166 81 44.499
s42.667 42.833 57 70.5s21.5 59.167 21.5 94.5c0 38 -7.66699 70.333 -23 97s-35.666 48.5 -60.999 65.5s-54 29.5 -86 37.5s-64.667 12 -98 12c-35.333 0 -61.833 -2 -79.5 -6s-31.5 -8 -41.5 -12v169h244c16.667 0 30.5 3.5 41.5 10.5s19.833 15.333 26.5 25
s11.5 19.834 14.5 30.501s4.5 19.667 4.5 27c0 15.333 -3.33301 23 -10 23c-3.33301 0 -5.83301 -1.16699 -7.5 -3.5s-3.16699 -5.83301 -4.5 -10.5c-1.33301 -6.66699 -4.66602 -11 -9.99902 -13s-14.333 -3 -27 -3z" />
    <glyph glyph-name="six" unicode="6" horiz-adv-x="538" 
d="M173 355c3.33301 44.667 9.99902 82.6719 19.999 114.005s26.667 58.666 50 81.999c12.667 13.333 27 25.666 43 36.999s32.667 21.5 50 30.5s35 16.833 53 23.5s35.333 12 52 16v24c-16 -2.66699 -34.667 -7.33398 -56 -14.001s-44.333 -15.667 -69 -27
s-49.667 -25.833 -75 -43.5s-50 -38.834 -74 -63.501c-37.333 -38.667 -66.333 -81.834 -87 -129.501s-31 -96.167 -31 -145.5c0 -40.667 6.66699 -78.167 20 -112.5s31 -64 53 -89s47.5 -44.5 76.5 -58.5s59.167 -21 90.5 -21c32 0 61.333 6 88 18s49.834 28.333 69.501 49
s34.834 44.5 45.501 71.5s16 55.5 16 85.5c0 27.333 -4.5 54.333 -13.5 81s-22.333 50.667 -40 72s-39.5 38.5 -65.5 51.5s-56 19.5 -90 19.5c-28.667 0 -53.834 -6 -75.501 -18s-38.5 -29.667 -50.5 -53zM168.999 255.005c0 15.333 0.833008 28.334 2.5 39.001
s3.16699 19 4.5 25c6.66699 23.333 19.5 44 38.5 62s44.5 27 76.5 27c22.667 0 41.167 -3.83301 55.5 -11.5s25.5 -18.167 33.5 -31.5s13.333 -29 16 -47s4 -37.667 4 -59v-91c0 -23.333 -1.16699 -45.5 -3.5 -66.5s-7.5 -39.333 -15.5 -55s-19.5 -28 -34.5 -37
s-34.833 -13.5 -59.5 -13.5c-24 0 -43.667 4.33301 -59 13s-27.333 20.667 -36 36s-14.667 33.166 -18 53.499s-5 42.5 -5 66.5v90z" />
    <glyph glyph-name="seven" unicode="7" horiz-adv-x="538" 
d="M77 485l15 -0.00195312c7.33301 32 16.5 54.333 27.5 67s25.167 19 42.5 19h272l-166 -304c-26 -48.667 -44 -89.5 -54 -122.5s-15 -62.5 -15 -88.5c0 -20 3.83301 -37.167 11.5 -51.5s22.5 -21.5 44.5 -21.5c9.33301 0 17.333 2.16699 24 6.5s12 9.83301 16 16.5
s7 14.334 9 23.001s3 17.334 3 26.001c0 10 -1 18.333 -3 25l-7 23l-12 38.5c-3.33301 11 -5 26.167 -5 45.5c0 16 2.33301 34.667 7 56s14 45 28 71l176 324l-13 18h-366z" />
    <glyph glyph-name="eight" unicode="8" horiz-adv-x="538" 
d="M289 349c22.667 2.66699 44.4971 8.00098 65.4971 16.001s39.5 18.833 55.5 32.5s28.667 30 38 49s14 40.5 14 64.5c0 23.333 -5.16699 44.5 -15.5 63.5s-24.166 35 -41.499 48s-37.5 23 -60.5 30s-47.167 10.5 -72.5 10.5s-49.5 -3.5 -72.5 -10.5s-43.167 -17 -60.5 -30
s-31.166 -28.833 -41.499 -47.5s-15.5 -39.667 -15.5 -63c0 -24.667 4.66699 -46.5 14 -65.5s22 -35.333 38 -49s34.333 -24.5 55 -32.5s42.667 -13.333 66 -16l9 -2c0 -1.33301 -3 -2 -9 -2c-15.333 0 -34.166 -3.16699 -56.499 -9.5s-43.833 -16.5 -64.5 -30.5
s-38.167 -32.333 -52.5 -55s-21.5 -50.334 -21.5 -83.001c0 -31.333 6.33301 -58.333 19 -81s29 -41.5 49 -56.5s42.667 -26.167 68 -33.5s50.666 -11 75.999 -11s50.666 3.66699 75.999 11s48 18.5 68 33.5s36.333 34 49 57s19 50.167 19 81.5c0 32 -7.33301 59.333 -22 82
s-32.167 41 -52.5 55s-41.666 24.167 -63.999 30.5s-41.166 9.5 -56.499 9.5c-6 0 -9 0.666992 -9 2zM175.997 514.001c0 40 8.33105 72.333 24.998 97s40.334 37 71.001 37s54.334 -12.333 71.001 -37s25 -57 25 -97c0 -30.667 -4.33301 -56 -13 -76s-18.5 -36 -29.5 -48
s-21.833 -20.333 -32.5 -25s-17.667 -7 -21 -7s-10.333 2.33301 -21 7s-21.5 13 -32.5 25s-20.833 28 -29.5 48s-13 45.333 -13 76zM155.995 168.001c0 32.667 5.50195 59.833 16.502 81.5s23.333 39 37 52s26.667 22.167 39 27.5s20.166 8 23.499 8
s11.166 -2.66699 23.499 -8s25.333 -14.5 39 -27.5s26 -30.167 37 -51.5s16.5 -48 16.5 -80c0 -51.333 -9.16699 -92.5 -27.5 -123.5s-47.833 -46.5 -88.5 -46.5s-70.167 15.5 -88.5 46.5s-27.5 71.5 -27.5 121.5z" />
    <glyph glyph-name="nine" unicode="9" horiz-adv-x="538" 
d="M385 293c-3.33301 -44.667 -9.99902 -82.6719 -19.999 -114.005s-26.667 -58.666 -50 -81.999c-12.667 -13.333 -27 -25.666 -43 -36.999s-32.667 -21.5 -50 -30.5s-35 -16.833 -53 -23.5s-35.333 -12 -52 -16v-24c16 2.66699 34.667 7.33398 56 14.001
s44.333 15.667 69 27s49.667 25.833 75 43.5s50 38.834 74 63.501c37.333 38.667 66.333 81.834 87 129.501s31 96.167 31 145.5c0 40.667 -6.66699 78.167 -20 112.5s-31 64 -53 89s-47.5 44.5 -76.5 58.5s-59.167 21 -90.5 21c-32 0 -61.333 -6 -88 -18
s-49.834 -28.333 -69.501 -49s-34.834 -44.5 -45.501 -71.5s-16 -55.5 -16 -85.5c0 -27.333 4.5 -54.333 13.5 -81s22.333 -50.667 40 -72s39.5 -38.5 65.5 -51.5s56 -19.5 90 -19.5c28.667 0 53.834 6 75.501 18s38.5 29.667 50.5 53zM389.001 392.995
c0 -15.333 -0.833008 -28.334 -2.5 -39.001s-3.16699 -19 -4.5 -25c-3.33301 -12 -8.33301 -23.333 -15 -34s-14.667 -20 -24 -28s-20.333 -14.5 -33 -19.5s-27 -7.5 -43 -7.5c-23.333 0 -42 3.83301 -56 11.5s-25 18.167 -33 31.5s-13.333 29 -16 47s-4 37.667 -4 59v91
c0 23.333 1.16699 45.5 3.5 66.5s7.5 39.333 15.5 55s19.333 28 34 37s34.667 13.5 60 13.5c24 0 43.667 -4.33301 59 -13s27.333 -20.667 36 -36s14.667 -33.166 18 -53.499s5 -42.5 5 -66.5v-90z" />
    <glyph glyph-name="colon" unicode=":" horiz-adv-x="226" 
d="M171 50c0 15.333 -5.16699 28.166 -15.5 38.499s-23.166 15.5 -38.499 15.5s-28.166 -5.16699 -38.499 -15.5s-15.5 -23.166 -15.5 -38.499s5.16699 -28.166 15.5 -38.499s23.166 -15.5 38.499 -15.5s28.166 5.16699 38.499 15.5s15.5 23.166 15.5 38.499zM171 324
c0 15.333 -5.16699 28.166 -15.5 38.499s-23.166 15.5 -38.499 15.5s-28.166 -5.16699 -38.499 -15.5s-15.5 -23.166 -15.5 -38.499s5.16699 -28.166 15.5 -38.499s23.166 -15.5 38.499 -15.5s28.166 5.16699 38.499 15.5s15.5 23.166 15.5 38.499z" />
    <glyph glyph-name="semicolon" unicode=";" horiz-adv-x="242" 
d="M180 324c0 15.333 -5.16699 28.166 -15.5 38.499s-23.166 15.5 -38.499 15.5s-28.166 -5.16699 -38.499 -15.5s-15.5 -23.166 -15.5 -38.499s5.16699 -28.166 15.5 -38.499s23.166 -15.5 38.499 -15.5s28.166 5.16699 38.499 15.5s15.5 23.166 15.5 38.499zM196 49
c0 20.667 -6.83301 37.499 -20.5 50.499s-30.167 19.5 -49.5 19.5s-35 -5.16699 -47 -15.5s-18 -24.166 -18 -41.499c0 -16.667 5.33301 -29.5 16 -38.5s24 -13.5 40 -13.5c10.667 0 20.334 3 29.001 9s13.667 14.667 15 26c0 6 1 9 3 9c6 0 9 -8 9 -24
c0 -8.66699 -1.83301 -18.5 -5.5 -29.5s-9.33398 -22.167 -17.001 -33.5s-17.5 -22.166 -29.5 -32.499s-26.333 -18.833 -43 -25.5c-3.33301 -2 -5 -3.66699 -5 -5c0 -2 1.66699 -3 5 -3c1.33301 0 3.33301 0.666992 6 2c20 8 37 17.667 51 29s25.5 23.666 34.5 36.999
s15.667 27 20 41s6.5 27 6.5 39z" />
    <glyph glyph-name="less" unicode="&#x3c;" 
d="M317 430l-263 -161l263 -161v55l-177 106l177 107v54z" />
    <glyph glyph-name="equal" unicode="=" horiz-adv-x="392" 
d="M343 229h-282v-54h282v54zM343 364h-282v-54h282v54z" />
    <glyph glyph-name="greater" unicode="&#x3e;" 
d="M77 163v-55l264 161l-264 161v-54l178 -107z" />
    <glyph glyph-name="question" unicode="?" horiz-adv-x="403" 
d="M365 522c0 46 -13.835 80.6631 -41.502 103.996s-65.5 35 -113.5 35c-25.333 0 -47.833 -2.83301 -67.5 -8.5s-36.167 -13 -49.5 -22s-23.5 -19.333 -30.5 -31s-10.5 -23.5 -10.5 -35.5c0 -15.333 5.16699 -28 15.5 -38s23.166 -15 38.499 -15c17.333 0 31 5 41 15
s15 22.333 15 37c0 10.667 -3.33301 20.5 -10 29.5s-17.667 15.167 -33 18.5c-2.66699 0.666992 -4 1.66699 -4 3c0 2 1.66699 4.66699 5 8s8.83301 6.66602 16.5 9.99902s17.667 6.33301 30 9s27.5 4 45.5 4c34.667 0 60 -7.66699 76 -23s24 -32 24 -50
c0 -13.333 -3.33301 -26.666 -10 -39.999s-15.667 -27 -27 -41c-9.33301 -11.333 -18.666 -21.666 -27.999 -30.999l-27.5 -28.5c-9 -9.66699 -17.667 -20 -26 -31s-15.833 -24.167 -22.5 -39.5c-3.33301 -8.66699 -5.66602 -18.167 -6.99902 -28.5s-2 -21.166 -2 -32.499
c0 -20 1.5 -39.667 4.5 -59s5.5 -34.333 7.5 -45c0.666992 -4.66699 3.33398 -7 8.00098 -7c5.33301 0 8 2.33301 8 7c0 3.33301 -0.166992 6.5 -0.5 9.5s-0.833008 6.83301 -1.5 11.5c-0.666992 4 -1 9 -1 15v21c0 10.667 4.83301 22.334 14.5 35.001s21.667 26 36 40
l45.5 43c16 14.667 30 29.334 42 44.001c14 17.333 24.167 35 30.5 53s9.5 36 9.5 54zM234.998 49.9961c0 15.333 -5.16699 28.166 -15.5 38.499s-23.166 15.5 -38.499 15.5s-28.166 -5.16699 -38.499 -15.5s-15.5 -23.166 -15.5 -38.499s5.16699 -28.166 15.5 -38.499
s23.166 -15.5 38.499 -15.5s28.166 5.16699 38.499 15.5s15.5 23.166 15.5 38.499z" />
    <glyph glyph-name="at" unicode="@" horiz-adv-x="737" 
d="M371 10c40.667 0 78.5039 6.00391 113.504 18.0039s63.167 27 84.5 45c4.66699 4 7 8.66699 7 14c0 8 -4 12 -12 12c-2.66699 0 -6 -1 -10 -3c-24.667 -17.333 -52.834 -31.333 -84.501 -42s-64.5 -16 -98.5 -16c-42 0 -81.167 7.33301 -117.5 22s-67.833 35 -94.5 61
s-47.5 56.667 -62.5 92s-22.5 73.666 -22.5 114.999c0 42.667 7.66699 82 23 118s36.333 67.167 63 93.5s58.167 46.833 94.5 61.5s75.5 22 117.5 22c42.667 0 80.834 -7.16699 114.501 -21.5s62.334 -33.333 86.001 -57s41.834 -51 54.501 -82s19 -63.167 19 -96.5
c0 -34.667 -5 -64 -15 -88s-22.5 -43.333 -37.5 -58s-30.833 -25.167 -47.5 -31.5s-31.334 -9.5 -44.001 -9.5c-14.667 0 -27 3.66699 -37 11s-15 18.333 -15 33c0 3.33301 0.666992 8.33301 2 15l60 264h-66l-7 -30c-6.66699 12 -17.5 22.167 -32.5 30.5
s-32.167 12.5 -51.5 12.5c-26 0 -49.5 -7.33301 -70.5 -22s-38.833 -33.834 -53.5 -57.501s-25.834 -49.834 -33.501 -78.501s-11.5 -57 -11.5 -85c0 -22 2.5 -40.5 7.5 -55.5s11.667 -27.167 20 -36.5s17.666 -16 27.999 -20s21.166 -6 32.499 -6
c24 0 44.667 6.33301 62 19s32.666 25 45.999 37c1.33301 -11.333 5 -20.833 11 -28.5s13.667 -14 23 -19s19.666 -8.66699 30.999 -11s22.666 -3.5 33.999 -3.5c31.333 0 59 5.5 83 16.5s44.167 26.333 60.5 46s28.666 42.667 36.999 69s12.5 54.833 12.5 85.5
c0 38 -7 74.333 -21 109s-34.167 65.167 -60.5 91.5s-58.166 47.166 -95.499 62.499s-79 23 -125 23c-48 0 -91.833 -8 -131.5 -24s-74 -38.167 -103 -66.5s-51.5 -62.333 -67.5 -102s-24 -83.167 -24 -130.5c0 -46 8.16699 -88.5 24.5 -127.5s39 -72.667 68 -101
s63.333 -50.333 103 -66s82.834 -23.5 129.501 -23.5zM366.004 488.004c16 0 29.832 -3.83203 41.499 -11.499s19.834 -17.834 24.501 -30.501l-51 -206c-10.667 -17.333 -24.5 -30.833 -41.5 -40.5s-32.167 -14.5 -45.5 -14.5c-27.333 0 -41 24.667 -41 74
c0 24.667 3 50.5 9 77.5s14.167 51.667 24.5 74s22.333 40.833 36 55.5s28.167 22 43.5 22z" />
    <glyph glyph-name="A" unicode="A" horiz-adv-x="661" 
d="M22 16v-16h222v16h-118l63 193h201l65 -193h-103v-16h293v16h-87l-219 665h-12l-219 -665h-86zM289 511l96 -286h-190z" />
    <glyph glyph-name="B" unicode="B" horiz-adv-x="598" 
d="M525 516c0 24.667 -5.66504 46.834 -16.998 66.501s-26.5 36 -45.5 49s-40.833 23 -65.5 30s-50.334 10.5 -77.001 10.5h-291v-16h86v-640h-86v-16h299c69.333 0 123.166 16 161.499 48s57.5 76.333 57.5 133c0 29.333 -5.83301 55 -17.5 77s-26.167 40.667 -43.5 56
s-36.5 27.166 -57.5 35.499s-40.5 13.5 -58.5 15.5c22 4 42.5 9.83301 61.5 17.5s35.333 17.667 49 30s24.5 27 32.5 44s12 36.833 12 59.5zM212.002 371l0.000976562 284.999h108c16.667 0 31.667 -2.16699 45 -6.5s24.666 -11.666 33.999 -21.999s16.666 -24 21.999 -41
s8 -37.833 8 -62.5v-16c0 -26.667 -2.66699 -48.834 -8 -66.501s-12.666 -31.667 -21.999 -42s-20.833 -17.666 -34.5 -21.999s-28.5 -6.5 -44.5 -6.5h-108zM212.003 15.999v339.001h108c46 0 78.833 -14 98.5 -42s29.5 -68 29.5 -120v-24
c0 -48.667 -9.33301 -86.334 -28 -113.001s-52 -40 -100 -40h-108z" />
    <glyph glyph-name="C" unicode="C" horiz-adv-x="613" 
d="M571 203c-3.33301 0 -6.66797 -3.66211 -10.001 -10.9951c-12 -27.333 -25 -52.833 -39 -76.5s-30 -44.167 -48 -61.5s-38 -30.833 -60 -40.5s-46.333 -14.5 -73 -14.5c-60.667 0 -105.667 23.667 -135 71s-44 116.666 -44 207.999v112c0 88 15 155.833 45 203.5
s76.333 71.5 139 71.5c26 0 49.667 -4.16699 71 -12.5s40.666 -19.833 57.999 -34.5s32.333 -32.334 45 -53.001s23 -43 31 -67c2 -6.66699 4.33301 -10 7 -10c3.33301 0 5 4 5 12v163c0 6 -0.666992 10 -2 12s-3.33301 3 -6 3c-3.33301 0 -7.66602 -2.66699 -12.999 -8
l-39 -40c-21.333 17.333 -45.333 30.5 -72 39.5s-55 13.5 -85 13.5c-44 0 -84.833 -10 -122.5 -30s-70.334 -46.333 -98.001 -79s-49.167 -69.834 -64.5 -111.501s-23 -83.834 -23 -126.501c0 -49.333 8.83301 -95.5 26.5 -138.5s40.834 -80.5 69.501 -112.5
s61 -57.333 97 -76s72.667 -28 110 -28c31.333 0 61.333 6.16699 90 18.5s54.334 31.166 77.001 56.499l53 -58c3.33301 -3.33301 6.33301 -5 9 -5c4 0 6 2.33301 6 7v193c0 6.66699 -1.66699 10 -5 10z" />
    <glyph glyph-name="D" unicode="D" horiz-adv-x="662" 
d="M327 672h-295.001v-16h88v-640h-88v-16h295c46.667 0 89.334 8.16699 128.001 24.5s71.667 39.5 99 69.5s48.5 66.167 63.5 108.5s22.5 89.5 22.5 141.5c0 48.667 -7.66699 93.167 -23 133.5s-36.833 75 -64.5 104s-60.667 51.333 -99 67s-80.5 23.5 -126.5 23.5z
M529.999 369l0.000976562 -50c0 -59.333 -5.5 -108.5 -16.5 -147.5s-25.833 -70 -44.5 -93s-40.334 -39.167 -65.001 -48.5s-51 -14 -79 -14h-108v640h108c27.333 0 53.333 -4.83301 78 -14.5s46.5 -25.667 65.5 -48s34 -51.833 45 -88.5s16.5 -82 16.5 -136z" />
    <glyph glyph-name="E" unicode="E" horiz-adv-x="574" 
d="M216 346l79.002 -0.000976562c14.667 0 26.334 -2.16699 35.001 -6.5s15.5 -10.5 20.5 -18.5s8.83301 -17.667 11.5 -29s5.33398 -24 8.00098 -38c2 -9.33301 4.66699 -14 8 -14c4 0 6 4.33301 6 13v203c0 8 -2 12 -6 12c-3.33301 0 -6 -4.66699 -8 -14
c-2.66699 -14 -5.33398 -26.667 -8.00098 -38s-6.5 -21 -11.5 -29s-11.833 -14.167 -20.5 -18.5s-20.334 -6.5 -35.001 -6.5h-79v294h152c22.667 0 41.667 -5.5 57 -16.5s27.666 -24.667 36.999 -41s16.166 -33.666 20.499 -51.999s6.83301 -34.833 7.5 -49.5
c0 -9.33301 2.66699 -14 8 -14c4.66699 0 7 4.33301 7 13v152c0 16 -8.33301 24 -25 24h-447v-16h86v-640h-85v-16h470c19.333 0 29 10.667 29 32v150c0 16 -2.66699 24 -8 24c-4.66699 0 -8.33398 -7 -11.001 -21c-5.33301 -25.333 -11 -48.333 -17 -69
s-14 -38.5 -24 -53.5s-22.667 -26.5 -38 -34.5s-34.666 -12 -57.999 -12h-161v330z" />
    <glyph glyph-name="F" unicode="F" horiz-adv-x="548" 
d="M37 656l86.002 -0.000976562v-640h-84v-16h267v16h-86v330h79c14.667 0 26.334 -2.16699 35.001 -6.5s15.5 -10.5 20.5 -18.5s8.83301 -17.667 11.5 -29s5.33398 -24 8.00098 -38c2 -9.33301 4.66699 -14 8 -14c4 0 6 4.33301 6 13v203c0 8 -2 12 -6 12
c-3.33301 0 -6 -4.66699 -8 -14c-2.66699 -14 -5.33398 -26.667 -8.00098 -38s-6.5 -21 -11.5 -29s-11.833 -14.167 -20.5 -18.5s-20.334 -6.5 -35.001 -6.5h-79v294h152c22.667 0 41.667 -5.5 57 -16.5s27.666 -24.667 36.999 -41s16.166 -33.666 20.499 -51.999
s6.83301 -34.833 7.5 -49.5c0 -9.33301 2.66699 -14 8 -14c4.66699 0 7 4.33301 7 13v152c0 16 -8.33301 24 -25 24h-447v-16z" />
    <glyph glyph-name="G" unicode="G" horiz-adv-x="669" 
d="M343 683c-42 0 -81.666 -9.33203 -118.999 -27.999s-69.833 -44 -97.5 -76s-49.667 -69.333 -66 -112s-24.5 -87.667 -24.5 -135s8.33301 -92.333 25 -135s39 -80 67 -112s60.333 -57.333 97 -76s75 -28 115 -28c32 0 62.167 4.16699 90.5 12.5s53.333 21.166 75 38.499
s38.667 39.5 51 66.5s18.5 59.167 18.5 96.5v34h87v16h-297v-16h107v-94c0 -16 -1.66699 -32 -5 -48s-9.66602 -30.5 -18.999 -43.5s-22.5 -23.667 -39.5 -32s-39.167 -12.5 -66.5 -12.5c-58 0 -103 23 -135 69s-48 114.333 -48 205v123c0 47.333 4.5 88 13.5 122
s21.667 61.833 38 83.5s35.666 37.667 57.999 48s47.166 15.5 74.499 15.5c48.667 0 90.334 -14.167 125.001 -42.5s62.667 -76.5 84 -144.5c2 -6 5 -9 9 -9s6 3 6 9v189c0 7.33301 -2.66699 11 -8 11c-3.33301 0 -5.83301 -0.666992 -7.5 -2s-3.83398 -3.33301 -6.50098 -6
l-43 -43c-19.333 17.333 -42.833 31 -70.5 41s-57.167 15 -88.5 15z" />
    <glyph glyph-name="H" unicode="H" horiz-adv-x="685" 
d="M302 672h-269v-16h86v-640h-86v-16h269v16h-86v333h265v-333h-86v-16h269v16h-86v640h86v16h-269v-16h86v-290h-265v290h86v16z" />
    <glyph glyph-name="I" unicode="I" horiz-adv-x="355" 
d="M312 656v16h-269v-16h86v-640h-86v-16h269v16h-86v640h86z" />
    <glyph glyph-name="J" unicode="J" horiz-adv-x="370" 
d="M356 672l-264.002 -0.00195312v-16h92v-638c0 -36 -5 -61.833 -15 -77.5s-27.667 -23.5 -53 -23.5c-13.333 0 -25.666 2.5 -36.999 7.5s-20.333 11.833 -27 20.5c16 0 28 4.83301 36 14.5s12 21.834 12 36.501c0 11.333 -3.66699 21.5 -11 30.5s-18 13.5 -32 13.5
c-15.333 0 -26.666 -4.83301 -33.999 -14.5s-11 -22.167 -11 -37.5c0 -9.33301 2.33301 -19.166 7 -29.499s11.667 -19.833 21 -28.5s20.833 -16 34.5 -22s29.5 -9 47.5 -9c106 0 159 52.333 159 157v600h75v16z" />
    <glyph glyph-name="K" unicode="K" horiz-adv-x="672" 
d="M291 656v16h-257v-16h80v-640h-80v-16h257v16h-80v640h80zM506 656l-288 -288l247 -352h-87v-16h283v16h-80l-283 406l234 234h85v16h-197v-16h86z" />
    <glyph glyph-name="L" unicode="L" horiz-adv-x="599" 
d="M555 185c-5.33301 -25.333 -11 -48.333 -17 -69s-14 -38.5 -24 -53.5s-22.667 -26.5 -38 -34.5s-34.666 -12 -57.999 -12h-205v640h95v16h-278v-16h86v-640h-86v-16h515c19.333 0 29 10.667 29 32v150c0 16 -2.66699 24 -8 24c-4.66699 0 -8.33398 -7 -11.001 -21z" />
    <glyph glyph-name="M" unicode="M" horiz-adv-x="797" 
d="M34 16v-16h176v16h-80v623l223 -639h13l223 643v-627h-80v-16h257v16h-80v640h80v16h-185l-178 -514l-184 514h-185v-16h80v-640h-80z" />
    <glyph glyph-name="N" unicode="N" horiz-adv-x="657" 
d="M27 16v-16h188v16h-86v611l387 -635h34v664h86v16h-188v-16h86v-491l-310 507h-197v-16h86v-640h-86z" />
    <glyph glyph-name="O" unicode="O" horiz-adv-x="691" 
d="M350 -19c42.667 0 82.834 9.83301 120.501 29.5s70.5 45.834 98.5 78.501s50.167 70.167 66.5 112.5s24.5 86.166 24.5 131.499s-8.16699 89.166 -24.5 131.499s-38.5 79.666 -66.5 111.999s-60.833 58.166 -98.5 77.499s-77.834 29 -120.501 29
s-82.834 -9.66699 -120.501 -29s-70.5 -45.166 -98.5 -77.499s-50.167 -69.666 -66.5 -111.999s-24.5 -86.166 -24.5 -131.499s8.16699 -89.166 24.5 -131.499s38.5 -79.833 66.5 -112.5s60.833 -58.834 98.5 -78.501s77.834 -29.5 120.501 -29.5zM350 665
c30 0 56.667 -4.66699 80 -14s42.833 -25 58.5 -47s27.667 -51 36 -87s12.5 -80.667 12.5 -134v-100c0 -96.667 -16 -168.167 -48 -214.5s-78.333 -69.5 -139 -69.5s-107 23.167 -139 69.5s-48 117.833 -48 214.5v100c0 52 4.16699 95.833 12.5 131.5s20.333 64.667 36 87
s35.167 38.5 58.5 48.5s50 15 80 15z" />
    <glyph glyph-name="P" unicode="P" horiz-adv-x="542" 
d="M306 672l-276.998 0.000976562v-16h86v-640h-86v-16h269v16h-86v293h104c29.333 0 56.166 4.33301 80.499 13s45.166 21 62.499 37s30.833 35.167 40.5 57.5s14.5 47.166 14.5 74.499c0 26.667 -4.83301 51.167 -14.5 73.5s-23.5 41.5 -41.5 57.5
s-39.833 28.333 -65.5 37s-54.5 13 -86.5 13zM212.002 325.001v330.999h94c37.333 0 66.5 -11.167 87.5 -33.5s31.5 -60.166 31.5 -113.499v-36c0 -51.333 -10.333 -88.833 -31 -112.5s-46.667 -35.5 -78 -35.5h-104z" />
    <glyph glyph-name="Q" unicode="Q" horiz-adv-x="681" 
d="M350 665c30 0 56.667 -4.66699 80 -14s42.833 -25 58.5 -47s27.667 -51 36 -87s12.5 -80.667 12.5 -134v-100c0 -96.667 -16 -168.167 -48 -214.5s-78.333 -69.5 -139 -69.5s-107 23.167 -139 69.5s-48 117.833 -48 214.5v100c0 52 4.16699 95.833 12.5 131.5
s20.333 64.667 36 87s35.167 38.5 58.5 48.5s50 15 80 15zM412 -11c35.333 8.66699 68.1699 24 98.5029 46s56.5 48.5 78.5 79.5s39.333 65.167 52 102.5s19 76 19 116c0 45.333 -8.16699 89.166 -24.5 131.499s-38.5 79.666 -66.5 111.999s-60.833 58.166 -98.5 77.499
s-77.834 29 -120.501 29s-82.834 -9.66699 -120.501 -29s-70.5 -45.166 -98.5 -77.499s-50.167 -69.666 -66.5 -111.999s-24.5 -86.166 -24.5 -131.499c0 -40 6.33301 -78.667 19 -116s30 -71.5 52 -102.5s48.167 -57.5 78.5 -79.5s63.166 -37.333 98.499 -46l2 -26
c3.33301 -42.667 12.5 -76.667 27.5 -102s34.667 -44.5 59 -57.5s53 -21.333 86 -25s69.5 -5.5 109.5 -5.5c6 0 9 2 9 6c0 4.66699 -3 7 -9 7c-20.667 0 -40.5 2.33301 -59.5 7s-36 13.5 -51 26.5s-27 31.333 -36 55s-13.5 54.5 -13.5 92.5v22z" />
    <glyph glyph-name="R" unicode="R" horiz-adv-x="628" 
d="M528 43c-2 6.66699 -3.49902 16 -4.49902 28s-1.66699 25 -2 39l-1 43c-0.333008 14.667 -1.5 28.667 -3.5 42c-4 26.667 -10.667 48.667 -20 66s-20.666 31.5 -33.999 42.5s-28.666 19.667 -45.999 26s-36 12.166 -56 17.499c52 9.33301 92 27.833 120 55.5
s42 62.5 42 104.5c0 26 -5.5 49.333 -16.5 70s-25.833 38 -44.5 52s-40.834 24.667 -66.501 32s-52.834 11 -81.501 11h-282v-16h86v-640h-86v-16h269v16h-86v327h83c10.667 0 22 -1.83301 34 -5.5s23.167 -10.667 33.5 -21s19.333 -24.666 27 -42.999
s13.167 -41.833 16.5 -70.5c2 -17.333 3.16699 -35 3.5 -53s1.33301 -35.333 3 -52s4.66699 -32 9 -46s11.166 -26 20.499 -36c8.66699 -9.33301 18.834 -15.666 30.501 -18.999s24.167 -5 37.5 -5c11.333 0 22.666 1.16699 33.999 3.5s21.833 5.16602 31.5 8.49902
s18 6.83301 25 10.5s12.167 7.16699 15.5 10.5c2 2 3 4 3 6s-1 3 -3 3c-1.33301 0 -3.33301 -0.666992 -6 -2c-13.333 -9.33301 -28.333 -14 -45 -14c-20.667 0 -34 8.33301 -40 25zM215.001 359v297h99c76 0 114 -43.667 114 -131v-36c0 -86.667 -38 -130 -114 -130h-99z
" />
    <glyph glyph-name="S" unicode="S" horiz-adv-x="542" 
d="M451 679l-28.999 -37.0039c-12 6.66699 -23.333 12.667 -34 18s-21.5 9.66602 -32.5 12.999s-22.667 5.83301 -35 7.5s-26.5 2.5 -42.5 2.5c-32.667 0 -61.834 -5.33301 -87.501 -16s-47.5 -25 -65.5 -43s-31.667 -38.667 -41 -62s-14 -48 -14 -74
c0 -35.333 10.833 -67.666 32.5 -96.999s55.5 -51.666 101.5 -66.999c22 -7.33301 40.667 -13.333 56 -18l43 -13.5c13.333 -4.33301 26.833 -9 40.5 -14s29.5 -11.833 47.5 -20.5c22.667 -10.667 38 -25.5 46 -44.5s12 -38.167 12 -57.5c0 -24 -4.66699 -45.833 -14 -65.5
s-21.666 -36.167 -36.999 -49.5s-33 -23.666 -53 -30.999s-40.333 -11 -61 -11c-24 0 -47 4.16699 -69 12.5s-42.333 20.166 -61 35.499s-34.834 34.333 -48.501 57s-24.167 48 -31.5 76c-2 8.66699 -5.66699 13 -11 13c-4.66699 0 -7 -4.66699 -7 -14v-179
c0 -8.66699 3 -13 9 -13c4 0 8.33301 3.33301 13 10l36 52c8 -7.33301 17.833 -15 29.5 -23s24.667 -15.333 39 -22s29.666 -12.167 45.999 -16.5s33.166 -6.5 50.499 -6.5c32 0 61.667 5.83301 89 17.5s51 27.834 71 48.501s35.833 45.167 47.5 73.5s17.5 58.833 17.5 91.5
c0 44.667 -10.5 82.5 -31.5 113.5s-54.167 53.167 -99.5 66.5c-15.333 4.66699 -29.666 8.66699 -42.999 12s-27 7 -41 11s-28.667 8.5 -44 13.5s-32.333 11.167 -51 18.5c-20.667 8 -36.334 20.333 -47.001 37s-16 36 -16 58c0 20.667 4.33301 38.834 13 54.501
s19.834 28.5 33.501 38.5s29.334 17.5 47.001 22.5s35.5 7.5 53.5 7.5c27.333 0 51.333 -4.66699 72 -14s38 -21.666 52 -36.999s25.167 -33 33.5 -53s13.833 -40.667 16.5 -62c0.666992 -6.66699 3.66699 -10 9 -10c4.66699 0 7 3.33301 7 10v178c0 6.66699 -2 10 -6 10
c-3.33301 0 -7 -2.66699 -11 -8z" />
    <glyph glyph-name="T" unicode="T" horiz-adv-x="619" 
d="M361 16l0.00195312 640h86c30.667 0 57.5 -15.667 80.5 -47s38.167 -74 45.5 -128h21l-15 174c-0.666992 11.333 -7.33398 17 -20.001 17h-493c-12.667 0 -19.334 -5.66699 -20.001 -17l-15 -174h21c7.33301 54 22.5 96.667 45.5 128s49.833 47 80.5 47h86v-640h-86v-16
h269v16h-86z" />
    <glyph glyph-name="U" unicode="U" horiz-adv-x="638" 
d="M291 672h-268.999v-16h86v-489c0 -35.333 6.83301 -64.833 20.5 -88.5s31.334 -42.834 53.001 -57.501s45.834 -25 72.501 -31s53 -9 79 -9c63.333 0 112.666 15.5 147.999 46.5s53 77.5 53 139.5v489h86v16h-188v-16h86v-489c0 -26.667 -4.16699 -50.5 -12.5 -71.5
s-19.833 -38.667 -34.5 -53s-31.834 -25.166 -51.501 -32.499s-40.834 -11 -63.501 -11c-46.667 0 -83.5 14.5 -110.5 43.5s-40.5 70.5 -40.5 124.5v489h86v16z" />
    <glyph glyph-name="V" unicode="V" horiz-adv-x="632" 
d="M281 672h-270v-16h86l225 -666h18l214 666h72v16h-179v-16h86l-166 -517l-176 517h90v16z" />
    <glyph glyph-name="W" unicode="W" horiz-adv-x="899" 
d="M656 656v16h-629v-16h74l233 -666h13l109 311l112 -311h13l234 666h69v16h-173v-16h86l-185 -525l-100 289l83 236h61zM577 656l-74 -210l-74 210h148zM379 133l-183 523h138l113 -328z" />
    <glyph glyph-name="X" unicode="X" horiz-adv-x="685" 
d="M315 656v16h-287v-16h86l190 -334l-191 -306h-87v-16h209v16h-100l180 287l163 -287h-81v-16h268v16h-77l-213 375l164 265h90v16h-210v-16h97l-152 -246l-140 246h91z" />
    <glyph glyph-name="Y" unicode="Y" horiz-adv-x="662" 
d="M311 672h-279v-16h80l194 -326v-314h-96v-16h289v16h-96v340l165 300h81v16h-204v-16h97l-155 -282l-168 282h92v16z" />
    <glyph glyph-name="Z" unicode="Z" horiz-adv-x="509" 
d="M34 26l0.00195312 -26h449v201h-16c-1.33301 -34 -5.66602 -62.833 -12.999 -86.5s-17.333 -42.667 -30 -57s-27.834 -24.833 -45.501 -31.5s-37.834 -10 -60.501 -10h-191l349 632v24h-437v-174h14c0.666992 30.667 4.83398 56.167 12.501 76.5s17.667 36.5 30 48.5
s26.166 20.5 41.499 25.5s31.666 7.5 48.999 7.5h193z" />
    <glyph glyph-name="bracketleft" unicode="[" horiz-adv-x="215" 
d="M191 -70v16h-69v756h74v16h-156v-788h151z" />
    <glyph glyph-name="backslash" unicode="\" horiz-adv-x="296" 
d="M16 699l244 -769h27l-244 769h-27z" />
    <glyph glyph-name="bracketright" unicode="]" horiz-adv-x="215" 
d="M109 702v-756h-70v-16h152v788h-157v-16h75z" />
    <glyph glyph-name="asciicircum" unicode="^" horiz-adv-x="370" 
d="M310 336l-108 295h-26l-108 -295l14 -7l107 226l107 -226z" />
    <glyph glyph-name="underscore" unicode="_" horiz-adv-x="291" 
d="M0 -11v-21h298v21h-298z" />
    <glyph glyph-name="grave" unicode="`" horiz-adv-x="258" 
d="M54 629l159 -159l7 4l-80 155h-86z" />
    <glyph glyph-name="a" unicode="a" horiz-adv-x="443" 
d="M115 382c-21.333 -14 -31.998 -30.6689 -31.998 -50.002c0 -9.33301 3.16699 -17.833 9.5 -25.5s15.166 -11.5 26.499 -11.5s20.5 3.33301 27.5 10s10.5 15 10.5 25c0 4.66699 -0.833008 9.5 -2.5 14.5s-4.83398 9.83301 -9.50098 14.5
c-3.33301 3.33301 -6 5.66602 -8 6.99902s-3 3 -3 5c0 2.66699 2 5.33398 6 8.00098s9 5 15 7s12.833 3.66699 20.5 5s15.167 2 22.5 2c20.667 0 37 -4 49 -12s18 -23.333 18 -46v-118c-30.667 0 -59.334 -3.16699 -86.001 -9.5s-50 -15.5 -70 -27.5
s-35.667 -26.833 -47 -44.5s-17 -37.5 -17 -59.5c0 -16 2.83301 -29.833 8.5 -41.5s13.5 -21 23.5 -28s21.5 -12.167 34.5 -15.5s26.833 -5 41.5 -5c15.333 0 29.166 1.83301 41.499 5.5s23.333 8.33398 33 14.001s17.834 11.667 24.501 18s12 12.5 16 18.5
c2 -14 8.33301 -26.833 19 -38.5s29.334 -17.5 56.001 -17.5c17.333 0 31.833 2.66699 43.5 8s21.167 11.666 28.5 18.999s12.5 14.833 15.5 22.5s4.5 13.5 4.5 17.5c0 3.33301 -1 5 -3 5s-4.33301 -2.66699 -7 -8c-5.33301 -11.333 -12 -20.5 -20 -27.5
s-16.667 -10.5 -26 -10.5c-13.333 0 -21.333 5.5 -24 16.5s-4 26.167 -4 45.5v242c0 28.667 -10.667 50.834 -32 66.501s-54 23.5 -98 23.5c-20.667 0 -40.5 -2.16699 -59.5 -6.5s-34.5 -10.166 -46.5 -17.499zM265.002 206.998l0.000976562 -138.998
c0 -6 -2.83301 -12.333 -8.5 -19s-12.667 -12.834 -21 -18.501s-17 -10.167 -26 -13.5s-16.5 -5 -22.5 -5c-20.667 0 -36.334 8 -47.001 24s-16 37.667 -16 65c0 22 4 39.667 12 53s18.5 23.666 31.5 30.999s28 12.5 45 15.5s34.5 5.16699 52.5 6.5z" />
    <glyph glyph-name="b" unicode="b" horiz-adv-x="518" 
d="M194 348l-0.00390625 324.003h-162v-16h76v-640h-76v-16h162v51c4.66699 -6.66699 10.334 -13.834 17.001 -21.501s14.667 -14.667 24 -21s19.833 -11.5 31.5 -15.5s24.834 -6 39.501 -6c24.667 0 48.334 6.33301 71.001 19s42.334 29 59.001 49s30 42.5 40 67.5
s15 50.167 15 75.5c0 30 -5.83301 57.833 -17.5 83.5s-26.667 47.667 -45 66s-38.666 32.666 -60.999 42.999s-43.833 15.5 -64.5 15.5c-16.667 0 -30.834 -2 -42.501 -6s-21.667 -8.83301 -30 -14.5s-15.333 -11.834 -21 -18.501zM193.996 82.0029l-0.000976562 235.002
c4.66699 8 10 16.167 16 24.5s13.167 16.166 21.5 23.499s18 13.333 29 18s23.833 7 38.5 7c12.667 0 24.334 -1.83301 35.001 -5.5s20 -11.5 28 -23.5s14.167 -29.167 18.5 -51.5s6.5 -51.833 6.5 -88.5v-45c0 -34 -2.33301 -62.167 -7 -84.5s-11 -40 -19 -53
s-17 -22.167 -27 -27.5s-20.333 -8 -31 -8c-13.333 0 -25.5 2.33301 -36.5 7s-21 10.667 -30 18s-17 15.666 -24 24.999s-13.167 19 -18.5 29z" />
    <glyph glyph-name="c" unicode="c" horiz-adv-x="410" 
d="M137 173l0.00195312 43.9971c0 32.667 2 60 6 82s10.167 39.833 18.5 53.5s18.833 23.334 31.5 29.001s27.667 8.5 45 8.5c24.667 0 41.5 -3.16699 50.5 -9.5s13.5 -10.833 13.5 -13.5s-1 -5 -3 -7c-4.66699 -5.33301 -8.16699 -10.833 -10.5 -16.5
s-3.5 -12.834 -3.5 -21.501c0 -13.333 4.33301 -23.5 13 -30.5s18.667 -10.5 30 -10.5c13.333 0 24 4 32 12s12 18.333 12 31s-4.33301 24.167 -13 34.5s-19.5 19 -32.5 26s-27.167 12.333 -42.5 16s-30 5.5 -44 5.5c-26 0 -51.333 -5.16699 -76 -15.5
s-46.667 -24.666 -66 -42.999s-35 -40.5 -47 -66.5s-18 -54.667 -18 -86c0 -32 5.83301 -60.833 17.5 -86.5s27 -47.667 46 -66s40.667 -32.333 65 -42s48.833 -14.5 73.5 -14.5s46.334 3.83301 65.001 11.5s34.334 17.334 47.001 29.001s22.667 24 30 37
s12.666 24.833 15.999 35.5c1.33301 4 2 6.66699 2 8c0 6 -2.66699 9 -8 9c-4 0 -7 -3.33301 -9 -10c-4 -12.667 -10 -25.167 -18 -37.5s-17.833 -23.5 -29.5 -33.5s-25.334 -18 -41.001 -24s-32.834 -9 -51.501 -9c-20.667 0 -37.5 3 -50.5 9s-23.333 15.833 -31 29.5
s-12.834 31.334 -15.501 53.001s-4 48.167 -4 79.5z" />
    <glyph glyph-name="d" unicode="d" horiz-adv-x="518" 
d="M256 656h76v-304c-24.667 36 -61 54 -109 54c-24 0 -47.333 -6 -70 -18s-42.667 -27.833 -60 -47.5s-31.333 -42 -42 -67s-16 -50.5 -16 -76.5c0 -28 5.83301 -54.833 17.5 -80.5s26.5 -48.167 44.5 -67.5s38 -34.666 60 -45.999s43 -17 63 -17
c26.667 0 49 6.66699 67 20s33 28.666 45 45.999v-52h162v16h-76v656h-162v-16zM139 222c0 62 6.66895 105.502 20.002 130.502s36 37.5 68 37.5c14 0 26.5 -2.33301 37.5 -7s20.667 -10.834 29 -18.501s15.666 -15.834 21.999 -24.501s11.833 -17 16.5 -25v-234
c-14.667 -24.667 -30.834 -44 -48.501 -58s-37.5 -21 -59.5 -21c-14 0 -26.333 2.83301 -37 8.5s-19.5 15 -26.5 28s-12.333 30.5 -16 52.5s-5.5 49.333 -5.5 82v49z" />
    <glyph glyph-name="e" unicode="e" horiz-adv-x="434" 
d="M393 243c-0.666992 10.667 -4.16992 25.333 -10.5029 44s-16.166 36.667 -29.499 54s-31 32.5 -53 45.5s-49 19.5 -81 19.5c-26.667 0 -51.5 -6.33301 -74.5 -19s-42.833 -29 -59.5 -49s-29.667 -42.667 -39 -68s-14 -51 -14 -77s4.66699 -51.333 14 -76
s22.333 -46.667 39 -66s36.834 -35 60.501 -47s49.5 -18 77.5 -18c22.667 0 43.334 3.16699 62.001 9.5s35.167 15 49.5 26s26.5 23.833 36.5 38.5s18 30 24 46c2 4.66699 3 9.33398 3 14.001s-2 7 -6 7c-3.33301 0 -6.33301 -3.33301 -9 -10c-6 -14 -13.5 -28 -22.5 -42
s-20 -26.333 -33 -37s-27.833 -19.334 -44.5 -26.001s-36 -10 -58 -10c-26.667 0 -48.167 10 -64.5 30s-24.5 52 -24.5 96v102h241c10.667 0 16 4.33301 16 13zM135.997 245.999v39.999c0 22 2.5 39.833 7.5 53.5s11.5 24.167 19.5 31.5s17 12.333 27 15s20 4 30 4
c16 0 29.167 -2.83301 39.5 -8.5s18.5 -13.167 24.5 -22.5s10 -19.666 12 -30.999s3 -23 3 -35c0 -31.333 -5 -47 -15 -47h-148z" />
    <glyph glyph-name="f" unicode="f" horiz-adv-x="342" 
d="M24 16l-0.000976562 -15.998h236v16h-75v360h81v16h-81v196c0 50 17.333 75 52 75c13.333 0 24.166 -2 32.499 -6s12.5 -7.33301 12.5 -10c0 -2 -0.666992 -3.33301 -2 -4c-6.66699 -3.33301 -11.667 -7.83301 -15 -13.5s-5 -11.834 -5 -18.501
c0 -10.667 3.33301 -18.834 10 -24.501s14.667 -8.5 24 -8.5c11.333 0 19.5 3.5 24.5 10.5s7.5 15.167 7.5 24.5c0 16 -8.16699 31 -24.5 45s-38.5 21 -66.5 21c-21.333 0 -42.666 -6.33301 -63.999 -19s-38.666 -34.667 -51.999 -66c-9.33301 -22.667 -15 -48.667 -17 -78
s-3 -56.333 -3 -81v-43h-74v-16h74v-360h-75z" />
    <glyph glyph-name="g" unicode="g" horiz-adv-x="426" 
d="M131 250v34c0 40.667 5.66699 68.5 17 83.5s29 22.5 53 22.5s41.667 -7.5 53 -22.5s17 -42.833 17 -83.5v-34c0 -34 -4.66699 -60 -14 -78s-28 -27 -56 -27s-46.667 9 -56 27s-14 44 -14 78zM144 137c6 -2 13.8301 -3.83691 23.4971 -5.50391s20.834 -2.5 33.501 -2.5
c30 0 55.333 5 76 15s37.334 22.167 50.001 36.5s21.667 29.5 27 45.5s8 30 8 42c0 40 -15.667 74 -47 102c15.333 18 29.666 30 42.999 36c-2.66699 -5.33301 -4 -10.666 -4 -15.999c0 -8 2.83301 -14.667 8.5 -20s13.5 -8 23.5 -8c10.667 0 18.334 3.16699 23.001 9.5
s7 12.833 7 19.5c0 10 -3.66699 17.667 -11 23s-16 8 -26 8c-25.333 0 -50.666 -14.333 -75.999 -43c-9.33301 8 -23.333 14.5 -42 19.5s-38.667 7.5 -60 7.5c-26 0 -49.167 -3.83301 -69.5 -11.5s-37.166 -18 -50.499 -31s-23.5 -27.833 -30.5 -44.5
s-10.5 -33.667 -10.5 -51c0 -29.333 8.5 -54.666 25.5 -75.999s36.167 -37.333 57.5 -48c-32 -9.33301 -54.5 -21.333 -67.5 -36s-19.5 -33.667 -19.5 -57c0 -15.333 2.5 -28.666 7.5 -39.999s11.667 -21 20 -29s17.666 -14.167 27.999 -18.5s20.5 -7.16602 30.5 -8.49902
c-28 -10 -49.667 -24 -65 -42s-23 -40 -23 -66c0 -18.667 4.33301 -35 13 -49s21 -25.5 37 -34.5s35 -15.833 57 -20.5s46.333 -7 73 -7s51.667 3.66699 75 11s43.833 18.166 61.5 32.499s31.5 31.833 41.5 52.5s15 44.667 15 72c0 42 -11.167 72.833 -33.5 92.5
s-51.5 29.5 -87.5 29.5h-161c-42 0 -63 14.333 -63 43c0 19.333 7.66699 33.833 23 43.5s35 17.834 59 24.501zM369.997 -137.004c0 -20 -4.83203 -36.999 -14.499 -50.999s-21.834 -25.5 -36.501 -34.5s-31.167 -15.5 -49.5 -19.5s-35.833 -6 -52.5 -6
c-27.333 0 -49.666 3.66699 -66.999 11s-31 16.5 -41 27.5s-17 23.333 -21 37s-6 26.5 -6 38.5c0 12.667 2.16699 24.5 6.5 35.5s9.66602 20.333 15.999 28s13 13.667 20 18s13.167 6.5 18.5 6.5h127c16 0 30.167 -2.5 42.5 -7.5s22.833 -11.833 31.5 -20.5
s15.167 -18.334 19.5 -29.001s6.5 -22 6.5 -34z" />
    <glyph glyph-name="h" unicode="h" horiz-adv-x="539" 
d="M186 322l-0.000976562 350.001h-156v-16h70v-640h-70v-16h226v16h-70v250c0 10.667 2.83301 22.5 8.5 35.5s13.834 25.333 24.501 37s23 21.5 37 29.5s29.667 12 47 12c14 0 25 -2.33301 33 -7s14 -10.667 18 -18s6.5 -15.5 7.5 -24.5s1.5 -18.167 1.5 -27.5v-287h-69
v-16h225v16h-70v298c0 30 -10.167 52.833 -30.5 68.5s-48.5 23.5 -84.5 23.5c-39.333 0 -70.833 -8.33301 -94.5 -25s-41.5 -36.334 -53.5 -59.001z" />
    <glyph glyph-name="i" unicode="i" horiz-adv-x="294" 
d="M197 392h-161v-16h75v-360h-75v-16h236v16h-75v376zM205 577c0 14.667 -5 27 -15 37s-22.333 15 -37 15s-27 -5 -37 -15s-15 -22.333 -15 -37s5 -27 15 -37s22.333 -15 37 -15s27 5 37 15s15 22.333 15 37z" />
    <glyph glyph-name="j" unicode="j" horiz-adv-x="274" 
d="M214 -31v423.001h-167v-16h81v-551c0 -26 -6.66699 -44.5 -20 -55.5s-27 -16.5 -41 -16.5c-5.33301 0 -10 0.5 -14 1.5s-7 3.16699 -9 6.5c4.66699 2.66699 9.83398 7.16699 15.501 13.5s8.5 16.166 8.5 29.499c0 10.667 -3.33301 20.667 -10 30s-17 14 -31 14
c-13.333 0 -23.833 -4.66699 -31.5 -14s-11.5 -20.333 -11.5 -33c0 -18 8.16699 -33.167 24.5 -45.5s36.166 -18.5 59.499 -18.5c44.667 0 80.167 20 106.5 60s39.5 97.333 39.5 172zM217 577.001c0 14.667 -5 27 -15 37s-22.333 15 -37 15s-27 -5 -37 -15
s-15 -22.333 -15 -37s5 -27 15 -37s22.333 -15 37 -15s27 5 37 15s15 22.333 15 37z" />
    <glyph glyph-name="k" unicode="k" horiz-adv-x="540" 
d="M197 229v443h-166v-16h80v-640h-80v-16h236v16h-70v197h22l138 -197h-70v-16h242v16h-70l-179 243l116 117h79v16h-187v-16h85l-148 -147h-28z" />
    <glyph glyph-name="l" unicode="l" horiz-adv-x="285" 
d="M191 16v656h-156v-16h70v-640h-70v-16h226v16h-70z" />
    <glyph glyph-name="m" unicode="m" horiz-adv-x="762" 
d="M579 401c-40 0 -72.0039 -8.33398 -96.0039 -25.001s-42 -36.667 -54 -60c-1.33301 18 -5.16602 32.667 -11.499 44s-14 20 -23 26s-18.833 10 -29.5 12s-21 3 -31 3c-12 0 -24.833 -1.16699 -38.5 -3.5s-27.167 -6.66602 -40.5 -12.999s-26.166 -15 -38.499 -26
s-23.166 -25.167 -32.499 -42.5v76h-151v-16h65v-360h-65v-16h215v16h-64v252c0 8 2.83301 18.167 8.5 30.5s13.5 24.333 23.5 36s21.5 21.5 34.5 29.5s26.5 12 40.5 12s24.5 -2.83301 31.5 -8.5s12 -12.5 15 -20.5s4.66699 -16.167 5 -24.5s0.5 -15.5 0.5 -21.5v-285h-65
v-16h216v16h-65v244c0 10 2.66699 21.667 8 35s12.833 26 22.5 38s21 22.167 34 30.5s27.5 12.5 43.5 12.5c11.333 0 20.333 -2 27 -6s11.834 -9.5 15.501 -16.5s6 -15 7 -24s1.5 -18.5 1.5 -28.5v-285h-63v-16h214v16h-65v296c0 24 -7.16699 44.833 -21.5 62.5
s-38.833 26.5 -73.5 26.5z" />
    <glyph glyph-name="n" unicode="n" horiz-adv-x="531" 
d="M192 316l0.00195312 76.002h-156v-16h70v-360h-70v-16h226v16h-70v248c0 11.333 3 23.5 9 36.5s13.833 25.167 23.5 36.5s20.667 20.666 33 27.999s25.166 11 38.499 11c19.333 0 33.5 -6 42.5 -18s13.5 -31 13.5 -57v-285h-70v-16h226v16h-70v292
c0 34.667 -9.83301 58.667 -29.5 72s-44.834 20 -75.501 20c-36.667 0 -66.5 -8.33301 -89.5 -25s-40.167 -36.334 -51.5 -59.001z" />
    <glyph glyph-name="o" unicode="o" horiz-adv-x="447" 
d="M227 -14c30 0 57.167 6.83301 81.5 20.5s45 30.834 62 51.501s30.167 43.334 39.5 68.001s14 48 14 70s-4.66699 45.333 -14 70s-22.5 47.334 -39.5 68.001s-37.667 37.834 -62 51.501s-51.5 20.5 -81.5 20.5s-57.167 -6.83301 -81.5 -20.5
s-45.166 -30.834 -62.499 -51.501s-30.666 -43.334 -39.999 -68.001s-14 -48 -14 -70s4.66699 -45.333 14 -70s22.666 -47.334 39.999 -68.001s38.166 -37.834 62.499 -51.501s51.5 -20.5 81.5 -20.5zM133 218c0 28 1.16699 52.667 3.5 74s6.83301 39.333 13.5 54
s16.167 25.667 28.5 33s28.5 11 48.5 11s36.167 -3.66699 48.5 -11s21.666 -18.333 27.999 -33s10.666 -32.667 12.999 -54s3.5 -46 3.5 -74v-43c0 -30 -1.16699 -55.833 -3.5 -77.5s-6.66602 -39.5 -12.999 -53.5s-15.666 -24.5 -27.999 -31.5s-28.5 -10.5 -48.5 -10.5
s-36.167 3.5 -48.5 10.5s-21.833 17.5 -28.5 31.5s-11.167 31.833 -13.5 53.5s-3.5 47.5 -3.5 77.5v43z" />
    <glyph glyph-name="p" unicode="p" horiz-adv-x="500" 
d="M371 175c0 -37.333 -2 -67.167 -6 -89.5s-9.83301 -39.5 -17.5 -51.5s-16.834 -20 -27.501 -24s-22.667 -6 -36 -6c-14 0 -27.333 2.83301 -40 8.5s-24 13 -34 22s-18 18.833 -24 29.5s-9 21 -9 31v194c0 12 3.33301 24 10 36s15.334 22.833 26.001 32.5
s22.5 17.5 35.5 23.5s25.833 9 38.5 9c10.667 0 21 -1.83301 31 -5.5s19 -11.334 27 -23.001s14.333 -28.667 19 -51s7 -52.166 7 -89.499v-46zM177 340.999l-0.000976562 51h-151v-16h65v-628h-65v-16h216v16h-65v295c11.333 -16.667 26 -30.334 44 -41.001
s39.667 -16 65 -16c24 0 47.333 5.66699 70 17s42.834 26.5 60.501 45.5s31.834 41.333 42.501 67s16 52.834 16 81.501s-5.5 55.667 -16.5 81s-25.5 47.5 -43.5 66.5s-38.167 34 -60.5 45s-44.5 16.5 -66.5 16.5c-28 0 -50.833 -7 -68.5 -21s-31.834 -28.667 -42.501 -44z
" />
    <glyph glyph-name="q" unicode="q" horiz-adv-x="509" 
d="M488 376l-0.00488281 16.001h-151v-53c-11.333 17.333 -26.666 32.333 -45.999 45s-41.666 19 -66.999 19c-23.333 0 -46.166 -5.66699 -68.499 -17s-42.166 -26.5 -59.499 -45.5s-31.5 -40.833 -42.5 -65.5s-16.5 -50.667 -16.5 -78s5.5 -53.666 16.5 -78.999
s25.333 -47.833 43 -67.5s37.834 -35.334 60.501 -47.001s45.667 -17.5 69 -17.5c29.333 0 52.333 5.66699 69 17s30.667 24.666 42 39.999v-295h-65v-16h216v16h-65v628h65zM336.995 280.001l-0.000976562 -169.001c0 -14 -2.66699 -27.5 -8 -40.5
s-12.666 -24.5 -21.999 -34.5s-20.666 -18 -33.999 -24s-28.333 -9 -45 -9c-13.333 0 -25.333 1.83301 -36 5.5s-19.834 10.667 -27.501 21s-13.5 25 -17.5 44s-6 43.833 -6 74.5v110c0 24.667 2.33301 45.334 7 62.001s11 30.167 19 40.5s17 17.833 27 22.5s20.333 7 31 7
c12.667 0 25.667 -3.16699 39 -9.5s25.5 -14.5 36.5 -24.5s19.833 -21.667 26.5 -35s10 -27 10 -41z" />
    <glyph glyph-name="r" unicode="r" horiz-adv-x="400" 
d="M178 334l0.000976562 58.001h-156v-16h70v-360h-70v-16h226v16h-70v274c0 10.667 3.16699 21.667 9.5 33s14.666 21.666 24.999 30.999s21.833 16.833 34.5 22.5s25 8.5 37 8.5c7.33301 0 13.833 -0.5 19.5 -1.5s8.5 -3.5 8.5 -7.5
c0 -3.33301 -1.66699 -5.66602 -5 -6.99902c-4 -2.66699 -8.66699 -7.16699 -14 -13.5s-8 -16.166 -8 -29.499c0 -14 4.66699 -25.5 14 -34.5s21.666 -13.5 36.999 -13.5c13.333 0 25 4.5 35 13.5s15 21.5 15 37.5c0 13.333 -2.66699 24.5 -8 33.5
s-12.166 16.333 -20.499 22s-18 9.83398 -29 12.501s-22.167 4 -33.5 4c-16 0 -30.333 -2.33301 -43 -7s-24 -10.334 -34 -17.001s-18.333 -13.834 -25 -21.501s-11.667 -14.834 -15 -21.501z" />
    <glyph glyph-name="s" unicode="s" horiz-adv-x="356" 
d="M284 401l-23.002 -22.9951c-20.667 18.667 -46 28 -76 28c-21.333 0 -40.333 -3.5 -57 -10.5s-30.5 -16.5 -41.5 -28.5s-19.333 -25.667 -25 -41s-8.5 -31 -8.5 -47c0 -24.667 7.16699 -46.334 21.5 -65.001s35.833 -31.334 64.5 -38.001l29 -6.5
c10.667 -2.33301 21.5 -5 32.5 -8s21.667 -6.33301 32 -10s19.5 -7.83398 27.5 -12.501c13.333 -7.33301 22.5 -16 27.5 -26s7.5 -20.333 7.5 -31c0 -14 -3.5 -26.167 -10.5 -36.5s-15.833 -18.666 -26.5 -24.999s-22 -11 -34 -14s-23.333 -4.5 -34 -4.5
c-30.667 0 -57.667 8.5 -81 25.5s-39.666 43.167 -48.999 78.5c-2 6 -4.66699 9 -8 9c-4 0 -6 -2.66699 -6 -8v-107c0 -5.33301 2 -8 6 -8c2.66699 0 5 1.66699 7 5l21 31c12 -12.667 27.167 -22.834 45.5 -30.501s40.833 -11.5 67.5 -11.5c22 0 41.333 3.5 58 10.5
s30.834 16.667 42.501 29s20.5 26.666 26.5 42.999s9 34.166 9 53.499c0 25.333 -6.33301 49.333 -19 72s-36.667 40 -72 52c-6 2 -13.667 4.16699 -23 6.5l-29.5 7.5l-31 8c-10.333 2.66699 -18.833 5 -25.5 7c-13.333 4.66699 -22.833 10.5 -28.5 17.5
s-8.5 16.833 -8.5 29.5c0 17.333 8.33301 33 25 47s37.667 21 63 21c16 0 30.167 -3 42.5 -9s22.666 -13.667 30.999 -23s15 -19.833 20 -31.5s8.5 -23.167 10.5 -34.5c0.666992 -4 2.66699 -6 6 -6c2.66699 0 4 2 4 6v107c0 4.66699 -1 7 -3 7
c-1.33301 0 -3.66602 -1.66699 -6.99902 -5z" />
    <glyph glyph-name="t" unicode="t" horiz-adv-x="338" 
d="M177 392l0.000976562 156.999l-86 -43v-114h-68v-16h68v-270c0 -37.333 10 -66.666 30 -87.999s49 -32 87 -32c39.333 0 67.166 7.83301 83.499 23.5s26.833 37.167 31.5 64.5c0.666992 3.33301 1 5.33301 1 6v3c0 5.33301 -2 8 -6 8
c-5.33301 0 -8.33301 -3.33301 -9 -10c-3.33301 -22.667 -11 -40.5 -23 -53.5s-26.667 -19.5 -44 -19.5c-23.333 0 -40 8 -50 24s-15 40 -15 72v272h97v16h-97z" />
    <glyph glyph-name="u" unicode="u" horiz-adv-x="540" 
d="M353 75l0.00488281 -74.998h156v16h-70v376h-156v-16h70v-249c0 -10.667 -3.16699 -22.334 -9.5 -35.001s-14.833 -24.5 -25.5 -35.5s-23 -20.167 -37 -27.5s-28.333 -11 -43 -11c-23.333 0 -38.333 5.66699 -45 17s-10 29.666 -10 54.999v302h-156v-16h70v-279
c0 -21.333 2.66699 -39 8 -53s12.666 -25 21.999 -33s20.166 -13.667 32.499 -17s25.166 -5 38.499 -5c35.333 0 66.166 7.5 92.499 22.5s47.166 36.167 62.499 63.5z" />
    <glyph glyph-name="v" unicode="v" horiz-adv-x="490" 
d="M25 392v-16h65l160 -380h8l152 380h59v16h-148v-16h71l-104 -261l-106 261h70v16h-227z" />
    <glyph glyph-name="w" unicode="w" horiz-adv-x="649" 
d="M27 392v-16h65l140 -387h9l87 265l105 -265h8l121 387h69v16h-168v-16h83l-78 -251l-105 267h-7l-86 -266l-91 250h66v16h-218z" />
    <glyph glyph-name="x" unicode="x" horiz-adv-x="503" 
d="M30 392v-16h56l136 -196l-121 -164h-67v-16h161v16h-74l111 149l103 -149h-75v-16h226v16h-60l-145 209l113 151h64v16h-150v-16h64l-101 -137l-95 137h65v16h-211z" />
    <glyph glyph-name="y" unicode="y" horiz-adv-x="506" 
d="M30 392v-16h66l167 -380l-58 -153c-8.66699 -22 -18.167 -38.333 -28.5 -49s-20.166 -16 -29.499 -16c-5.33301 0 -8.83301 1.33301 -10.5 4s-3.5 6 -5.5 10c-4 8.66699 -9 15.167 -15 19.5s-14 6.5 -24 6.5c-11.333 0 -20 -3.66699 -26 -11s-9 -16 -9 -26
c0 -12.667 4.16699 -22.834 12.5 -30.501s21.166 -11.5 38.499 -11.5c23.333 0 45 8.83301 65 26.5s35.667 41.834 47 72.501l206 538h66v16h-158v-16h74l-104 -272l-116 272h77v16h-235z" />
    <glyph glyph-name="z" unicode="z" horiz-adv-x="402" 
d="M362 392h-292v-120h12c2 20.667 5.66699 37.667 11 51s12 24 20 32s17.167 13.5 27.5 16.5s21.5 4.5 33.5 4.5h101l-223 -354v-22h320v131h-12c-2.66699 -40 -12.167 -69.167 -28.5 -87.5s-40.5 -27.5 -72.5 -27.5h-117l220 352v24z" />
    <glyph glyph-name="braceleft" unicode="{" horiz-adv-x="274" 
d="M97 242v-188.001c0 -38 9.83301 -65.667 29.5 -83s44.5 -26 74.5 -26c21.333 0 36.833 0.333008 46.5 1s14.5 3.33398 14.5 8.00098c0 4 -3.33301 6.33301 -10 7s-16.667 1 -30 1c-10 0 -19.167 1.5 -27.5 4.5s-15.833 8.33301 -22.5 16s-11.834 18.167 -15.501 31.5
s-5.5 30.333 -5.5 51v180c0 14 -2.66699 25.333 -8 34s-12 15.5 -20 20.5s-17.167 8.66699 -27.5 11s-20.5 4.5 -30.5 6.5l30.5 6c10.333 2 19.5 5.5 27.5 10.5s14.667 11.833 20 20.5s8 20.667 8 36v200c0 20 1.83301 36.667 5.5 50s8.83398 23.833 15.501 31.5
s14.167 13 22.5 16s17.5 4.5 27.5 4.5c13.333 0 23.333 0.333008 30 1s10 3 10 7c0 4.66699 -4.83301 7.33398 -14.5 8.00098s-25.167 1 -46.5 1c-30 0 -54.833 -8.5 -74.5 -25.5s-29.5 -44.5 -29.5 -82.5v-209c0 -13.333 -2.66699 -24.333 -8 -33
s-11.833 -15.834 -19.5 -21.501s-16.167 -10.167 -25.5 -13.5s-18 -5.66602 -26 -6.99902c8 -1.33301 16.667 -3.33301 26 -6s18 -6.83398 26 -12.501s14.5 -13 19.5 -22s7.5 -20.5 7.5 -34.5z" />
    <glyph glyph-name="bar" unicode="|" horiz-adv-x="115" 
d="M46 699v-750h27v750h-27z" />
    <glyph glyph-name="braceright" unicode="}" horiz-adv-x="279" 
d="M79 -55c30 0 54.833 8.66797 74.5 26.001s29.5 45 29.5 83v188c0 14 2.5 25.5 7.5 34.5s11.5 16.333 19.5 22s16.667 9.83398 26 12.501s18 4.66699 26 6c-8 1.33301 -16.667 3.66602 -26 6.99902s-17.833 7.83301 -25.5 13.5s-14.167 12.834 -19.5 21.501
s-8 19.667 -8 33v209c0 38 -9.83301 65.5 -29.5 82.5s-44.5 25.5 -74.5 25.5c-21.333 0 -36.833 -0.333008 -46.5 -1s-14.5 -3.33398 -14.5 -8.00098c0 -4 3.33301 -6.33301 10 -7s16.667 -1 30 -1c10 0 19.167 -1.5 27.5 -4.5s15.833 -8.33301 22.5 -16
s11.834 -18.167 15.501 -31.5s5.5 -30 5.5 -50v-200c0 -15.333 2.66699 -27.333 8 -36s12 -15.5 20 -20.5s17.167 -8.5 27.5 -10.5l30.5 -6c-10 -2 -20.167 -4.16699 -30.5 -6.5s-19.5 -6 -27.5 -11s-14.667 -11.833 -20 -20.5s-8 -20 -8 -34v-180
c0 -20.667 -1.83301 -37.667 -5.5 -51s-8.83398 -23.833 -15.501 -31.5s-14.167 -13 -22.5 -16s-17.5 -4.5 -27.5 -4.5c-13.333 0 -23.333 -0.333008 -30 -1s-10 -3 -10 -7c0 -4.66699 4.83301 -7.33398 14.5 -8.00098s25.167 -1 46.5 -1z" />
    <glyph glyph-name="asciitilde" unicode="~" horiz-adv-x="425" 
d="M255 392c-17.333 7.33301 -34.832 13.333 -52.499 18s-35.167 7 -52.5 7c-20 0 -37 -2.83301 -51 -8.5s-25.5 -12.667 -34.5 -21s-15.667 -17.333 -20 -27s-6.5 -18.5 -6.5 -26.5c0 -12.667 4 -19 12 -19c6.66699 0 10.667 5 12 15c1.33301 12 6.33301 21.667 15 29
s19.667 11 33 11c11.333 0 22.5 -3 33.5 -9s23.5 -12 37.5 -18c20 -8.66699 38 -14.667 54 -18s33 -5 51 -5c22 0 40.167 2.83301 54.5 8.5s25.666 12.5 33.999 20.5s14 16.5 17 25.5s4.5 17.167 4.5 24.5c0 11.333 -3.66699 17 -11 17c-8 0 -12.667 -5.33301 -14 -16
c-0.666992 -9.33301 -3.5 -16.833 -8.5 -22.5s-15.833 -8.5 -32.5 -8.5c-12 0 -24.333 2.5 -37 7.5z" />
    <glyph glyph-name="exclamdown" unicode="&#xa1;" horiz-adv-x="269" 
d="M134 359l-7.00488 -105c-2.66699 -40.667 -7.66699 -81.334 -15 -122.001c-2 -10 -4.66699 -22.167 -8 -36.5s-6.66602 -29.833 -9.99902 -46.5s-6.16602 -33.834 -8.49902 -51.501s-3.5 -34.5 -3.5 -50.5c0 -18 1.83301 -33 5.5 -45s8.16699 -21.333 13.5 -28
s11.5 -11.334 18.5 -14.001s14.167 -4 21.5 -4c6.66699 0 13.334 1.33301 20.001 4s12.667 7.33398 18 14.001s9.83301 16 13.5 28s5.5 27 5.5 45c0 16 -1.16699 32.833 -3.5 50.5s-5.16602 34.834 -8.49902 51.501s-6.66602 32.167 -9.99902 46.5s-6 26.5 -8 36.5
c-7.33301 40.667 -12.333 81.334 -15 122.001l-7 105h-12zM195.995 476c0 15.333 -5.16699 28.166 -15.5 38.499s-23.166 15.5 -38.499 15.5s-28.166 -5.16699 -38.499 -15.5s-15.5 -23.166 -15.5 -38.499s5.16699 -28.166 15.5 -38.499s23.166 -15.5 38.499 -15.5
s28.166 5.16699 38.499 15.5s15.5 23.166 15.5 38.499z" />
    <glyph glyph-name="cent" unicode="&#xa2;" horiz-adv-x="344" 
d="M184 441c-46 -6.66699 -81.8311 -24 -107.498 -52s-38.5 -63.667 -38.5 -107c0 -22 4 -42.333 12 -61s18.667 -34.834 32 -48.501s28.833 -24.667 46.5 -33s36.167 -13.166 55.5 -14.499v-52h16v51c20 1.33301 37 5.5 51 12.5s25.5 15 34.5 24s15.833 18.333 20.5 28
s8 18.167 10 25.5c0.666992 2 1 4.33301 1 7c0 4.66699 -2 7 -6 7s-6.33301 -2 -7 -6c-4.66699 -22.667 -16.5 -42.167 -35.5 -58.5s-41.833 -24.833 -68.5 -25.5v292c15.333 0 26.666 -2.66699 33.999 -8s11 -10 11 -14c0 -2 -0.333008 -3.33301 -1 -4
c-6.66699 -8 -10 -17.333 -10 -28c0 -9.33301 3 -17 9 -23s13.667 -9 23 -9s17.166 3.16699 23.499 9.5s9.5 14.5 9.5 24.5c0 8 -2.83301 15.833 -8.5 23.5s-13 14.5 -22 20.5s-19.5 10.667 -31.5 14s-24.333 5 -37 5v39h-16v-39zM184.002 430v-292
c-28 3.33301 -46.167 14.5 -54.5 33.5s-12.5 48.5 -12.5 88.5v44c0 22 1 40.5 3 55.5s5.5 27.333 10.5 37s11.833 17.167 20.5 22.5s19.667 9 33 11z" />
    <glyph glyph-name="sterling" unicode="&#xa3;" horiz-adv-x="543" 
d="M330 685c-28.667 0 -57.334 -2.66602 -86.001 -7.99902s-54.5 -14.5 -77.5 -27.5s-41.833 -30.5 -56.5 -52.5s-22 -49.667 -22 -83c0 -14 0.666992 -26.333 2 -37s3.5 -21.5 6.5 -32.5s6.66699 -23.167 11 -36.5l15.5 -48h-85v-18h92l53 -161c-16 4 -30.333 6 -43 6
s-26.167 -2.16699 -40.5 -6.5s-27.5 -11 -39.5 -20s-22 -20.167 -30 -33.5s-12 -29 -12 -47c0 -10.667 1.83301 -21.167 5.5 -31.5s9 -19.5 16 -27.5s16 -14.333 27 -19s23.5 -7 37.5 -7c33.333 0 57.333 6 72 18s26 25.667 34 41c16 -20 36.333 -35.833 61 -47.5
s51.667 -17.5 81 -17.5c25.333 0 47.166 6.66699 65.499 20s33.833 29.833 46.5 49.5s23 41 31 64s14.333 44.167 19 63.5c0.666992 2 1 4.33301 1 7c0 6.66699 -2.33301 10 -7 10c-3.33301 0 -6 -2 -8 -6c-12.667 -29.333 -26.834 -53 -42.501 -71s-37.167 -27 -64.5 -27
c-15.333 0 -31.166 2.5 -47.499 7.5s-32.166 11.333 -47.499 19s-30 15.667 -44 24l-37 22.5v170h79v18h-79v170c0 27.333 2.66699 50 8 68s13 32.167 23 42.5s21.833 17.666 35.5 21.999s29.167 6.5 46.5 6.5c12.667 0 25.334 -1.83301 38.001 -5.5s24 -8.33398 34 -14.001
s18.167 -12.167 24.5 -19.5s9.5 -14.666 9.5 -21.999c0 -5.33301 -2 -8.66602 -6 -9.99902s-8.33301 -2 -13 -2c-7.33301 0 -14.5 -0.833008 -21.5 -2.5s-13.5 -4.5 -19.5 -8.5s-10.833 -9.5 -14.5 -16.5s-5.5 -16.167 -5.5 -27.5c0 -16 5.66699 -28.333 17 -37
s25 -13 41 -13c23.333 0 40 8.16699 50 24.5s15 35.166 15 56.499c0 16.667 -4.16699 32 -12.5 46s-19.5 26 -33.5 36s-30 17.667 -48 23s-36.333 8 -55 8zM104 13.001c-21.333 0 -38 6.99902 -50 20.999s-18 29.333 -18 46c0 10.667 1.66699 19.667 5 27
s7.5 13.5 12.5 18.5s10.5 8.66699 16.5 11s11.333 3.5 16 3.5c18 0 36.5 -7.16699 55.5 -21.5s36.167 -31.166 51.5 -50.499c-6 -14.667 -15.5 -27.5 -28.5 -38.5s-33.167 -16.5 -60.5 -16.5z" />
    <glyph glyph-name="yen" unicode="&#xa5;" horiz-adv-x="654" 
d="M395 333v23l165 300h81v16h-204v-16h97l-155 -282l-168 282h92v16h-279v-16h80l192 -323h-96v-16h98v-51h-98v-16h98v-234h-96v-16h289v16h-96v234h97v16h-97v51h97v16h-97z" />
    <glyph glyph-name="brokenbar" unicode="&#xa6;" horiz-adv-x="115" 
d="M73 270h-27v-270h27v270zM46 377h27v297h-27v-297z" />
    <glyph glyph-name="section" unicode="&#xa7;" 
d="M331 609c0 8.66699 -2.33496 18.001 -7.00195 28.001s-12.5 19.333 -23.5 28s-25.667 15.834 -44 21.501s-40.833 8.5 -67.5 8.5c-23.333 0 -44.166 -4.33301 -62.499 -13s-34 -20 -47 -34s-23 -30.167 -30 -48.5s-10.5 -37.5 -10.5 -57.5
c0 -30.667 7.33301 -56.667 22 -78s38 -36.333 70 -45c-24 -5.33301 -45.167 -19 -63.5 -41s-27.5 -51.333 -27.5 -88c0 -38.667 11.667 -71.334 35 -98.001s60 -43.667 110 -51c42 -6.66699 72.333 -19 91 -37s28 -38.667 28 -62c0 -28 -10.5 -51.333 -31.5 -70
s-50.5 -28 -88.5 -28c-16 0 -30.667 2.5 -44 7.5s-24.666 11 -33.999 18s-16.666 13.833 -21.999 20.5s-8 11.667 -8 15s3 5 9 5c11.333 0 20.333 3.33301 27 10s10 15 10 25c0 12 -3.33301 21 -10 27s-14.667 9 -24 9c-12 0 -21.167 -4.5 -27.5 -13.5
s-9.5 -19.833 -9.5 -32.5c0 -13.333 3.16699 -26.333 9.5 -39s15.333 -24 27 -34s25.667 -18.167 42 -24.5s34.5 -9.5 54.5 -9.5c51.333 0 91.666 15.167 120.999 45.5s44 70.5 44 120.5c0 12.667 -1.16699 25.334 -3.5 38.001s-6.5 24.667 -12.5 36s-14 21.666 -24 30.999
s-22.333 17 -37 23c25.333 9.33301 45 24.333 59 45s21 48 21 82c0 21.333 -3 41.333 -9 60s-15.667 35.167 -29 49.5s-30.666 26.666 -51.999 36.999s-47.333 17.833 -78 22.5c-31.333 4.66699 -56.166 13 -74.499 25s-27.5 29.667 -27.5 53c0 12.667 3.16699 24 9.5 34
s14.5 18.667 24.5 26s21.333 13 34 17s25.667 6 39 6c16.667 0 31.667 -1.66699 45 -5s24.666 -7 33.999 -11s16.333 -8 21 -12s7 -6.66699 7 -8c0 -0.666992 -0.333008 -1 -1 -1c-11.333 -0.666992 -19.833 -4.66699 -25.5 -12s-8.5 -15.666 -8.5 -24.999
c0 -10.667 3.66699 -18.834 11 -24.501s16 -8.5 26 -8.5c9.33301 0 17.166 3 23.499 9s9.5 15.333 9.5 28zM323.998 313.001c0 -18.667 -6.99805 -35.502 -20.998 -50.502s-31 -26.167 -51 -33.5c-32.667 6.66699 -59.834 13.834 -81.501 21.501s-39 15.834 -52 24.501
s-22.167 18.167 -27.5 28.5s-8 21.5 -8 33.5c0 22.667 7.16699 39.667 21.5 51s32.166 19.333 53.499 24c14 -2 30.5 -5.83301 49.5 -11.5s37.167 -12.667 54.5 -21s32 -18 44 -29s18 -23.5 18 -37.5z" />
    <glyph glyph-name="dieresis" unicode="&#xa8;" horiz-adv-x="419" 
d="M186 577c0 13.333 -4.5 24.5 -13.5 33.5s-20.167 13.5 -33.5 13.5s-24.5 -4.5 -33.5 -13.5s-13.5 -20.167 -13.5 -33.5s4.5 -24.5 13.5 -33.5s20.167 -13.5 33.5 -13.5s24.5 4.5 33.5 13.5s13.5 20.167 13.5 33.5zM338 577c0 13.333 -4.5 24.5 -13.5 33.5
s-20.167 13.5 -33.5 13.5s-24.5 -4.5 -33.5 -13.5s-13.5 -20.167 -13.5 -33.5s4.5 -24.5 13.5 -33.5s20.167 -13.5 33.5 -13.5s24.5 4.5 33.5 13.5s13.5 20.167 13.5 33.5z" />
    <glyph glyph-name="copyright" unicode="&#xa9;" horiz-adv-x="618" 
d="M594 372c0 38 -7.33301 73.833 -22 107.5s-34.5 63 -59.5 88s-54.333 44.833 -88 59.5s-69.5 22 -107.5 22s-73.833 -7.33301 -107.5 -22s-63 -34.5 -88 -59.5s-44.833 -54.333 -59.5 -88s-22 -69.5 -22 -107.5s7.33301 -73.833 22 -107.5s34.5 -63 59.5 -88
s54.333 -44.833 88 -59.5s69.5 -22 107.5 -22s73.833 7.33301 107.5 22s63 34.5 88 59.5s44.833 54.333 59.5 88s22 69.5 22 107.5zM63 373c0 35.333 6.66699 68.5 20 99.5s31.5 58 54.5 81s50 41.167 81 54.5s64.167 20 99.5 20s68.5 -6.66699 99.5 -20s58 -31.5 81 -54.5
s41.167 -50 54.5 -81s20 -64.167 20 -99.5s-6.66699 -68.5 -20 -99.5s-31.5 -58 -54.5 -81s-50 -41.167 -81 -54.5s-64.167 -20 -99.5 -20s-68.5 6.66699 -99.5 20s-58 31.5 -81 54.5s-41.167 50 -54.5 81s-20 64.167 -20 99.5zM409 333
c-3.33301 0 -5.33203 -1.66797 -5.99902 -5.00098c-10 -22.667 -22 -41 -36 -55s-31.333 -21 -52 -21c-48.667 0 -73 37 -73 111v45c0 74 25 111 75 111c21.333 0 38.666 -6 51.999 -18s23.333 -28.333 30 -49c1.33301 -2.66699 2.66602 -4 3.99902 -4c2 0 3 1.66699 3 5v68
c0 3.33301 -1 5 -3 5c-2.66699 0 -4.66699 -1 -6 -3l-16 -17c-8.66699 7.33301 -18.334 13 -29.001 17s-22.334 6 -35.001 6c-18 0 -34.667 -4.16699 -50 -12.5s-28.666 -19.333 -39.999 -33s-20.166 -29 -26.499 -46s-9.5 -34.167 -9.5 -51.5c0 -20 3.66699 -38.667 11 -56
s16.833 -32.5 28.5 -45.5s24.834 -23.333 39.501 -31s29.667 -11.5 45 -11.5c14 0 26.667 2.83301 38 8.5s21 12.834 29 21.501l23 -24c1.33301 -1.33301 2.33301 -2 3 -2c2 0 3 1 3 3v80c0 2.66699 -0.666992 4 -2 4z" />
    <glyph glyph-name="ordfeminine" unicode="&#xaa;" horiz-adv-x="344" 
d="M47 327v-31h262v31h-262zM117 611c-12.667 -8.66699 -19 -18.668 -19 -30.001c0 -6 1.83301 -11.333 5.5 -16s8.83398 -7 15.501 -7c7.33301 0 13 2 17 6s6 9 6 15c0 6.66699 -2.33301 12.667 -7 18c-2 2 -3.66699 3.33301 -5 4s-2 1.66699 -2 3
c0 2.66699 4.16699 5.16699 12.5 7.5s17.166 3.5 26.499 3.5c12 0 21.667 -2.16699 29 -6.5s11 -13.166 11 -26.499v-70c-18.667 0 -36 -2 -52 -6s-30 -9.66699 -42 -17s-21.333 -16.166 -28 -26.499s-10 -22.166 -10 -35.499c0 -19.333 6.5 -33.166 19.5 -41.499
s28.167 -12.5 45.5 -12.5c18 0 32.667 3.83301 44 11.5s19.666 15.167 24.999 22.5c1.33301 -8.66699 5.16602 -16.5 11.499 -23.5s17.5 -10.5 33.5 -10.5c10 0 18.5 1.66699 25.5 5s12.667 7.16602 17 11.499s7.5 8.66602 9.5 12.999s3 7.83301 3 10.5
c0 2 -0.666992 3 -2 3s-2.66602 -1.66699 -3.99902 -5c-3.33301 -6.66699 -7.33301 -12 -12 -16s-10 -6 -16 -6c-7.33301 0 -11.833 3.33301 -13.5 10s-2.5 15.667 -2.5 27v145c0 17.333 -6.5 30.666 -19.5 39.999s-32.5 14 -58.5 14c-12.667 0 -24.667 -1.16699 -36 -3.5
s-20.666 -5.83301 -27.999 -10.5zM207 505.999l0.000976562 -82c0 -4 -1.66699 -8 -5 -12s-7.33301 -7.66699 -12 -11s-9.83398 -6.16602 -15.501 -8.49902s-10.5 -3.5 -14.5 -3.5c-12 0 -21.333 4.83301 -28 14.5s-10 22.5 -10 38.5c0 12.667 2.33301 23.167 7 31.5
s11 14.666 19 18.999s17 7.5 27 9.5s20.667 3.33301 32 4z" />
    <glyph glyph-name="guillemotleft" unicode="&#xab;" horiz-adv-x="425" 
d="M199 425l-169 -156l169 -156h17l-121 156l121 156h-17zM345 425l-169 -156l169 -156h17l-121 156l121 156h-17z" />
    <glyph glyph-name="logicalnot" unicode="&#xac;" 
d="M44 360v-21h291v21h-291zM228 698l-4 3l-89 -11v-9l47 5v-275h-45v-10h136v10h-45v287zM205 157c22 3.33301 40.833 11.5 56.5 24.5s23.5 29.167 23.5 48.5c0 21.333 -9 38.166 -27 50.499s-38 18.5 -60 18.5c-23.333 0 -43.5 -6.16699 -60.5 -18.5
s-25.5 -28.833 -25.5 -49.5c0 -22.667 7.83301 -40 23.5 -52s34.167 -19.333 55.5 -22c2.66699 0 4 -0.333008 4 -1l-1 -0.5c-0.666992 -0.333008 -1.66699 -0.5 -3 -0.5c-7.33301 0 -16 -1.33301 -26 -4s-19.667 -7.16699 -29 -13.5s-17.166 -14.666 -23.499 -24.999
s-9.5 -22.833 -9.5 -37.5c0 -14 2.83301 -26 8.5 -36s13 -18.5 22 -25.5s19.167 -12.167 30.5 -15.5s22.666 -5 33.999 -5s22.666 1.66699 33.999 5s21.666 8.5 30.999 15.5s16.833 15.667 22.5 26s8.5 22.5 8.5 36.5c0 14.667 -3.33301 27 -10 37s-14.667 18.167 -24 24.5
s-19.166 10.833 -29.499 13.5s-18.833 4 -25.5 4c-1.33301 0 -2.16602 0.166992 -2.49902 0.5l-0.5 0.5c0 0.666992 1 1 3 1zM154 231c0 18 3.83301 32.167 11.5 42.5s18.5 15.5 32.5 15.5c28 0 42 -19.333 42 -58c0 -13.333 -1.83301 -24.5 -5.5 -33.5
s-8 -16.167 -13 -21.5s-9.83301 -9.16602 -14.5 -11.499s-7.66699 -3.5 -9 -3.5s-4.5 1.16699 -9.5 3.5s-10 6.16602 -15 11.499s-9.5 12.5 -13.5 21.5s-6 20.167 -6 33.5zM145 76c0 14 2.5 25.833 7.5 35.5s10.667 17.5 17 23.5s12.333 10.333 18 13s9.16699 4 10.5 4
s4.83301 -1.16699 10.5 -3.5s11.5 -6.5 17.5 -12.5s11.5 -13.833 16.5 -23.5s7.5 -21.5 7.5 -35.5c0 -23.333 -4.16699 -41.5 -12.5 -54.5s-21.5 -19.5 -39.5 -19.5s-31.333 6.33301 -40 19s-13 30.667 -13 54z" />
    <glyph glyph-name="registered" unicode="&#xae;" horiz-adv-x="435" 
d="M51 495c0 22.667 4.33301 43.834 13 63.501s20.334 36.834 35.001 51.501s31.834 26.167 51.501 34.5s40.834 12.5 63.501 12.5c22 0 42.833 -4.16699 62.5 -12.5s36.834 -19.833 51.501 -34.5s26.334 -31.834 35.001 -51.501s13 -40.834 13 -63.501
s-4.33301 -43.834 -13 -63.501s-20.334 -36.834 -35.001 -51.501s-31.834 -26.167 -51.501 -34.5s-40.5 -12.5 -62.5 -12.5c-22.667 0 -43.834 4.16699 -63.501 12.5s-36.834 19.833 -51.501 34.5s-26.334 31.834 -35.001 51.501s-13 40.834 -13 63.501zM397 495
c0 25.333 -4.83301 49.166 -14.5 71.499s-22.834 41.833 -39.501 58.5s-36.167 29.834 -58.5 39.501s-46.166 14.5 -71.499 14.5s-49.166 -4.83301 -71.499 -14.5s-41.833 -22.834 -58.5 -39.501s-29.834 -36.167 -39.501 -58.5s-14.5 -46.166 -14.5 -71.499
s4.83301 -49.166 14.5 -71.499s22.834 -41.833 39.501 -58.5s36.167 -29.834 58.5 -39.501s46.166 -14.5 71.499 -14.5s49.166 4.83301 71.499 14.5s41.833 22.834 58.5 39.501s29.834 36.167 39.501 58.5s14.5 46.166 14.5 71.499zM287 401
c-1.33301 4 -1.99805 11 -1.99805 21s-0.666992 19 -2 27c-2.66699 17.333 -8.33398 29 -17.001 35s-19.667 10.667 -33 14c34.667 6 52 23 52 51c0 17.333 -6.33301 30.5 -19 39.5s-28.667 13.5 -48 13.5h-90v-10h28v-195h-28v-10h86v10h-27v100h25
c7.33301 0 14.833 -2.83301 22.5 -8.5s12.5 -17.834 14.5 -36.501c1.33301 -11.333 2.16602 -22.5 2.49902 -33.5s3.5 -19.833 9.5 -26.5c3.33301 -4.66699 10.333 -7 21 -7c7.33301 0 14.333 1.16699 21 3.5s11 4.5 13 6.5c0.666992 0.666992 1 1.33398 1 2.00098h-1h-2
c-3.33301 -2.66699 -8 -4 -14 -4c-6.66699 0 -11 2.66699 -13 8zM187.002 507v84.999h31c24.667 0 37 -12.333 37 -37v-12c0 -13.333 -3.16699 -22.666 -9.5 -27.999s-15.5 -8 -27.5 -8h-31z" />
    <glyph glyph-name="macron" unicode="&#xaf;" horiz-adv-x="441" 
d="M108 566v-29h237v29h-237z" />
    <glyph glyph-name="degree" unicode="&#xb0;" horiz-adv-x="224" 
d="M192 606c0 20.667 -7.33301 38.334 -22 53.001s-32.334 22 -53.001 22s-38.334 -7.33301 -53.001 -22s-22 -32.334 -22 -53.001s7.33301 -38.334 22 -53.001s32.334 -22 53.001 -22s38.334 7.33301 53.001 22s22 32.334 22 53.001zM58 606c0 16.667 5.66699 30.667 17 42
s25.333 17 42 17s30.667 -5.66699 42 -17s17 -25.333 17 -42s-5.66699 -30.667 -17 -42s-25.333 -17 -42 -17s-30.667 5.66699 -42 17s-17 25.333 -17 42z" />
    <glyph glyph-name="plusminus" unicode="&#xb1;" horiz-adv-x="398" 
d="M343 185h-292v-54h292v54zM170 417h-135v-54h135v-135h54v135h135v54h-135v135h-54v-135z" />
    <glyph glyph-name="twosuperior" unicode="&#xb2;" horiz-adv-x="350" 
d="M130 647c-2.66699 0 -4.66797 -0.333008 -6.00098 -1h-2c-2.66699 0 -4 1.66699 -4 5c0 9.33301 6.83301 17 20.5 23s27.5 9 41.5 9c40 0 60 -22 60 -66c0 -20 -3.33301 -37.833 -10 -53.5s-17.667 -30.5 -33 -44.5l-110 -104v-23h199l5 83v4c0 7.33301 -1 11 -3 11
s-4 -4.66699 -6 -14c-3.33301 -14.667 -8.16602 -26.167 -14.499 -34.5s-16.166 -12.5 -29.499 -12.5h-126l95 82c21.333 18.667 39.833 37 55.5 55s23.5 37 23.5 57c0 12.667 -2.83301 23.5 -8.5 32.5s-13 16.333 -22 22s-19.167 9.66699 -30.5 12s-22.333 3.5 -33 3.5
c-26.667 0 -49.667 -6 -69 -18s-29 -28.667 -29 -50c0 -9.33301 2.66699 -16.833 8 -22.5s12.666 -8.5 21.999 -8.5c7.33301 0 14.333 2.33301 21 7s10 11.667 10 21c0 6 -2.33301 11.667 -7 17s-10.667 8 -18 8z" />
    <glyph glyph-name="threesuperior" unicode="&#xb3;" horiz-adv-x="325" 
d="M88 654c0 -9.33301 2.49902 -16.3311 7.49902 -20.998s11.167 -7 18.5 -7c8 0 14.5 2.16699 19.5 6.5s7.5 10.166 7.5 17.499s-1.66699 13 -5 17s-7.66602 6.66699 -12.999 8c-2.66699 0.666992 -4 2 -4 4s1 3.66699 3 5c4 3.33301 10 5.83301 18 7.5s16.333 2.5 25 2.5
c12 0 21.333 -1.83301 28 -5.5s11.834 -8.33398 15.501 -14.001s6 -12 7 -19s1.5 -13.833 1.5 -20.5c0 -24.667 -6 -42.334 -18 -53.001s-27 -16 -45 -16c-4.66699 0 -10 0.333008 -16 1s-11 1 -15 1c-6.66699 0 -10 -2.33301 -10 -7c0 -4 3.33301 -6 10 -6
c4 0 9 0.166992 15 0.5s11.333 0.5 16 0.5c13.333 0 24.5 -2.16699 33.5 -6.5s16 -10 21 -17s8.5 -14.833 10.5 -23.5s3 -17.334 3 -26.001c0 -27.333 -6 -47.333 -18 -60s-27 -19 -45 -19c-7.33301 0 -15.333 1 -24 3s-15.667 5.33301 -21 10c-2 2 -3 4 -3 6
c0 2.66699 1.33301 4.33398 4 5.00098c3.33301 1.33301 7.66602 3.83301 12.999 7.5s8 10.167 8 19.5c0 10.667 -2.83301 18.334 -8.5 23.001s-12.167 7 -19.5 7c-8 0 -14.833 -2.66699 -20.5 -8s-8.5 -13 -8.5 -23s2.66699 -18.833 8 -26.5s12 -14 20 -19
s17 -8.66699 27 -11s20 -3.5 30 -3.5c14.667 0 28.167 2.5 40.5 7.5s23 11.5 32 19.5s16 17.5 21 28.5s7.5 22.5 7.5 34.5c0 19.333 -5.83301 35.5 -17.5 48.5s-30.167 22.167 -55.5 27.5c5.33301 0.666992 12 2.5 20 5.5s15.667 7.5 23 13.5s13.666 13.333 18.999 22
s8 18.667 8 30c0 12.667 -2.66699 23.5 -8 32.5s-12.5 16.5 -21.5 22.5s-19 10.5 -30 13.5s-22.5 4.5 -34.5 4.5c-14.667 0 -27.167 -1.83301 -37.5 -5.5s-18.666 -8 -24.999 -13s-10.833 -10.5 -13.5 -16.5s-4 -11 -4 -15z" />
    <glyph glyph-name="acute" unicode="&#xb4;" horiz-adv-x="392" 
d="M263 648l-80 -154l7 -5l159 159h-86z" />
    <glyph glyph-name="mu" unicode="&#xb5;" 
d="M49 365v-22h292v22h-292zM228 698l-4 3l-89 -11v-9l47 5v-275h-45v-10h136v10h-45v287zM145 255c-2.66699 0 -4.66797 -0.332031 -6.00098 -0.999023h-2c-2.66699 0 -4 1.66699 -4 5c0 7.33301 6.83301 14.166 20.5 20.499s27.5 9.5 41.5 9.5c40 0 60 -21.333 60 -64
c0 -20 -3.33301 -37.833 -10 -53.5s-17.667 -30.5 -33 -44.5l-110 -104v-23h199l5 83v4c0 7.33301 -1 11 -3 11s-4 -4.66699 -6 -14c-3.33301 -14.667 -8.16602 -26.167 -14.499 -34.5s-16.166 -12.5 -29.499 -12.5h-126l95 82c21.333 18.667 39.833 37 55.5 55
s23.5 37 23.5 57c0 12.667 -2.83301 23.5 -8.5 32.5s-13 16.333 -22 22s-19.167 9.66699 -30.5 12s-22.333 3.5 -33 3.5c-26.667 0 -49.667 -6 -69 -18s-29 -28.667 -29 -50c0 -9.33301 2.66699 -16.833 8 -22.5s12.666 -8.5 21.999 -8.5c7.33301 0 14.333 2.33301 21 7
s10 11.667 10 21c0 6 -2.33301 11.667 -7 17s-10.667 8 -18 8z" />
    <glyph glyph-name="paragraph" unicode="&#xb6;" horiz-adv-x="645" 
d="M462 656v-764h54v764h86v16h-347c-30 0 -58.333 -3.66699 -85 -11s-49.834 -18.5 -69.501 -33.5s-35.167 -34 -46.5 -57s-17 -49.833 -17 -80.5c0 -31.333 5.66699 -58.333 17 -81s26.833 -41.5 46.5 -56.5s42.834 -26.167 69.501 -33.5s55 -11 85 -11h68v-416h53v764h86
z" />
    <glyph glyph-name="periodcentered" unicode="&#xb7;" horiz-adv-x="224" 
d="M163 322c0 15.333 -5.16699 28.166 -15.5 38.499s-23.166 15.5 -38.499 15.5s-28.166 -5.16699 -38.499 -15.5s-15.5 -23.166 -15.5 -38.499s5.16699 -28.166 15.5 -38.499s23.166 -15.5 38.499 -15.5s28.166 5.16699 38.499 15.5s15.5 23.166 15.5 38.499z" />
    <glyph glyph-name="periodcentered" unicode="&#x2219;" horiz-adv-x="224" 
d="M163 322c0 15.333 -5.16699 28.166 -15.5 38.499s-23.166 15.5 -38.499 15.5s-28.166 -5.16699 -38.499 -15.5s-15.5 -23.166 -15.5 -38.499s5.16699 -28.166 15.5 -38.499s23.166 -15.5 38.499 -15.5s28.166 5.16699 38.499 15.5s15.5 23.166 15.5 38.499z" />
    <glyph glyph-name="cedilla" unicode="&#xb8;" horiz-adv-x="349" 
d="M216 0h-23.999l-12 -54c7.33301 -3.33301 14.666 -8.33301 21.999 -15s11 -16.334 11 -29.001c0 -12 -4 -20.833 -12 -26.5s-17 -8.5 -27 -8.5c-7.33301 0 -14.5 1.5 -21.5 4.5s-13.167 7.83301 -18.5 14.5c-5.33301 5.33301 -9.33301 8 -12 8c-2 0 -3 -1.33301 -3 -4
s1.33301 -6.33398 4 -11.001c7.33301 -11.333 16.5 -21.166 27.5 -29.499s23.5 -12.5 37.5 -12.5c20 0 36 5.33301 48 16s18 24 18 40c0 8.66699 -1.66699 16.334 -5 23.001s-7.5 12.5 -12.5 17.5s-10.333 9 -16 12s-10.5 5.16699 -14.5 6.5z" />
    <glyph glyph-name="onesuperior" unicode="&#xb9;" horiz-adv-x="280" 
d="M178 698l-4 3l-89 -11v-9l47 5v-275h-45v-10h136v10h-45v287z" />
    <glyph glyph-name="ordmasculine" unicode="&#xba;" horiz-adv-x="317" 
d="M30 327v-31h261v31h-261zM162 371c18 0 34.333 4 49 12s27 18.333 37 31s17.833 26.5 23.5 41.5s8.5 29.167 8.5 42.5s-2.83301 27.333 -8.5 42s-13.5 28.167 -23.5 40.5s-22.333 22.5 -37 30.5s-31 12 -49 12s-34.333 -4 -49 -12s-27.167 -18.167 -37.5 -30.5
s-18.333 -25.833 -24 -40.5s-8.5 -28.667 -8.5 -42s2.83301 -27.5 8.5 -42.5s13.667 -28.833 24 -41.5s22.833 -23 37.5 -31s31 -12 49 -12zM105 510c0 34 3.5 59.667 10.5 77s22.5 26 46.5 26c24.667 0 40 -8.66699 46 -26s9 -43 9 -77v-26
c0 -36 -3.33301 -62.167 -10 -78.5s-21.667 -24.5 -45 -24.5c-24 0 -39.5 8.16699 -46.5 24.5s-10.5 42.5 -10.5 78.5v26z" />
    <glyph glyph-name="guillemotright" unicode="&#xbb;" horiz-adv-x="414" 
d="M217 113h17l169 156l-169 156h-17l122 -156zM66 113h17l169 156l-169 156h-17l121 -156z" />
    <glyph glyph-name="onequarter" unicode="&#xbc;" 
d="M57 371v-22h291v22h-291zM228 698l-4 3l-89 -11v-9l47 5v-275h-45v-10h136v10h-45v287zM251 309h-18l-20 -29l-65 -99c-13.333 -20 -24.5 -38.333 -33.5 -55l-13.5 -25v-11h107v-80h-39v-11h122v11h-40v80h52v-42h10v98h-10v-46h-52v209zM111 100
c0.666992 2 2.83301 6.16699 6.5 12.5l12.5 21.5l14.5 25c5 8.66699 9.83301 16.667 14.5 24l13.5 20.5l15 23l13.5 20c4 5.66699 6.33301 9.16699 7 10.5v-157h-97z" />
    <glyph glyph-name="onehalf" unicode="&#xbd;" 
d="M49 365v-22h292v22h-292zM228 698l-4 3l-89 -11v-9l47 5v-276h-45v-9h136v9h-45v288zM145 255c-2.66699 0 -4.66797 -0.333008 -6.00098 -1h-2c-2.66699 0 -4 1.66699 -4 5c0 9.33301 6.83301 17 20.5 23s27.5 9 41.5 9c40 0 60 -22 60 -66
c0 -20 -3.33301 -37.833 -10 -53.5s-17.667 -30.5 -33 -44.5l-110 -104v-23h199l5 83v4c0 7.33301 -1 11 -3 11s-4 -4.66699 -6 -14c-3.33301 -14.667 -8.16602 -26.167 -14.499 -34.5s-16.166 -12.5 -29.499 -12.5h-126l95 82c21.333 18.667 39.833 37 55.5 55
s23.5 37 23.5 57c0 12.667 -2.83301 23.5 -8.5 32.5s-13 16.333 -22 22s-19.167 9.66699 -30.5 12s-22.333 3.5 -33 3.5c-26.667 0 -49.667 -6 -69 -18s-29 -28.667 -29 -50c0 -9.33301 2.66699 -16.833 8 -22.5s12.666 -8.5 21.999 -8.5c7.33301 0 14.333 2.33301 21 7
s10 11.667 10 21c0 6 -2.33301 11.667 -7 17s-10.667 8 -18 8z" />
    <glyph glyph-name="threequarters" unicode="&#xbe;" 
d="M49 359v-21h292v21h-292zM123 654c0 -9.33301 2.49902 -16.3311 7.49902 -20.998s11.167 -7 18.5 -7c8 0 14.5 2.16699 19.5 6.5s7.5 10.166 7.5 17.499s-1.66699 13 -5 17s-7.66602 6.66699 -12.999 8c-2.66699 0.666992 -4 2 -4 4s1 3.66699 3 5
c4 3.33301 10 5.83301 18 7.5s16.333 2.5 25 2.5c12 0 21.333 -1.83301 28 -5.5s11.834 -8.33398 15.501 -14.001s6 -12 7 -19s1.5 -13.833 1.5 -20.5c0 -24.667 -6 -42.334 -18 -53.001s-27 -16 -45 -16c-4.66699 0 -10 0.333008 -16 1s-11 1 -15 1
c-6.66699 0 -10 -2.33301 -10 -7c0 -4 3.33301 -6 10 -6c4 0 9 0.166992 15 0.5s11.333 0.5 16 0.5c13.333 0 24.5 -2.16699 33.5 -6.5s16 -10 21 -17s8.5 -14.833 10.5 -23.5s3 -17.334 3 -26.001c0 -27.333 -6 -47.333 -18 -60s-27 -19 -45 -19
c-7.33301 0 -15.333 1 -24 3s-15.667 5.33301 -21 10c-2 2 -3 4 -3 6c0 2.66699 1.33301 4.33398 4 5.00098c3.33301 1.33301 7.66602 3.83301 12.999 7.5s8 10.167 8 19.5c0 10.667 -2.83301 18.334 -8.5 23.001s-12.167 7 -19.5 7c-8 0 -14.833 -2.66699 -20.5 -8
s-8.5 -13 -8.5 -23s2.66699 -18.833 8 -26.5s12 -14 20 -19s17 -8.66699 27 -11s20 -3.5 30 -3.5c14.667 0 28.167 2.5 40.5 7.5s23 11.5 32 19.5s16 17.5 21 28.5s7.5 22.5 7.5 34.5c0 19.333 -5.83301 35.5 -17.5 48.5s-30.167 22.167 -55.5 27.5
c5.33301 0.666992 12 2.5 20 5.5s15.667 7.5 23 13.5s13.666 13.333 18.999 22s8 18.667 8 30c0 12.667 -2.66699 23.5 -8 32.5s-12.5 16.5 -21.5 22.5s-19 10.5 -30 13.5s-22.5 4.5 -34.5 4.5c-14.667 0 -27.167 -1.83301 -37.5 -5.5s-18.666 -8 -24.999 -13
s-10.833 -10.5 -13.5 -16.5s-4 -11 -4 -15zM250.999 309.002h-18l-20 -29l-65 -99c-13.333 -20 -24.5 -38.333 -33.5 -55l-13.5 -25v-11h107v-80h-39v-11h122v11h-40v80h52v-42h10v98h-10v-46h-52v209zM110.999 100.002c0.666992 2 2.83301 6.16699 6.5 12.5l12.5 21.5
l14.5 25c5 8.66699 9.83301 16.667 14.5 24l13.5 20.5l15 23l13.5 20c4 5.66699 6.33301 9.16699 7 10.5v-157h-97z" />
    <glyph glyph-name="questiondown" unicode="&#xbf;" horiz-adv-x="403" 
d="M41 -1c0 -46 13.833 -80.6631 41.5 -103.996s65.5 -35 113.5 -35c25.333 0 47.833 2.83301 67.5 8.5s36.167 13 49.5 22s23.5 19.333 30.5 31s10.5 23.5 10.5 35.5c0 15.333 -5.16699 28 -15.5 38s-23.166 15 -38.499 15c-17.333 0 -31 -5 -41 -15s-15 -22.333 -15 -37
c0 -10.667 3.33301 -20.5 10 -29.5s17.667 -15.167 33 -18.5c2.66699 -0.666992 4 -1.66699 4 -3c0 -2 -1.66699 -4.66699 -5 -8s-8.83301 -6.66602 -16.5 -9.99902s-17.667 -6.33301 -30 -9s-27.5 -4 -45.5 -4c-34.667 0 -60 7.66699 -76 23s-24 32 -24 50
c0 13.333 3.33301 26.666 10 39.999s15.667 27 27 41c8.66699 11.333 17.834 21.666 27.501 30.999s19 18.833 28 28.5s17.667 20 26 31s15.833 24.167 22.5 39.5c3.33301 8.66699 5.66602 18.167 6.99902 28.5s2 21.166 2 32.499c0 20 -1.5 39.667 -4.5 59
s-5.5 34.333 -7.5 45c-0.666992 4.66699 -3.33398 7 -8.00098 7c-5.33301 0 -8 -2.33301 -8 -7c0 -3.33301 0.166992 -6.5 0.5 -9.5s0.833008 -6.83301 1.5 -11.5c0.666992 -4 1 -9.33301 1 -16v-20c0 -10.667 -4.83301 -22.334 -14.5 -35.001s-21.667 -26 -36 -40
l-45.5 -43c-16 -14.667 -30 -29.334 -42 -44.001c-14 -17.333 -24.167 -35 -30.5 -53s-9.5 -36 -9.5 -54zM171 471.004c0 -15.333 5.16699 -28.166 15.5 -38.499s23.166 -15.5 38.499 -15.5s28.166 5.16699 38.499 15.5s15.5 23.166 15.5 38.499
s-5.16699 28.166 -15.5 38.499s-23.166 15.5 -38.499 15.5s-28.166 -5.16699 -38.499 -15.5s-15.5 -23.166 -15.5 -38.499z" />
    <glyph glyph-name="Agrave" unicode="&#xc0;" horiz-adv-x="661" 
d="M209 853l143 -143l6 4l-72 139h-77zM22 16v-16h222v16h-118l63 193h201l65 -193h-103v-16h293v16h-87l-219 665h-12l-219 -665h-86zM289 511l96 -286h-190z" />
    <glyph glyph-name="Aacute" unicode="&#xc1;" horiz-adv-x="661" 
d="M381 853l-72 -139l6 -4l143 143h-77zM22 16v-16h222v16h-118l63 193h201l65 -193h-103v-16h293v16h-87l-219 665h-12l-219 -665h-86zM289 511l96 -286h-190z" />
    <glyph glyph-name="Acircumflex" unicode="&#xc2;" horiz-adv-x="661" 
d="M465 725l-133 133h-6l-131 -133l6 -4l128 68l129 -68zM22 16v-16h222v16h-118l63 193h201l65 -193h-103v-16h293v16h-87l-219 665h-12l-219 -665h-86zM289 511l96 -286h-190z" />
    <glyph glyph-name="Atilde" unicode="&#xc3;" horiz-adv-x="661" 
d="M369 805c-15.333 6.66699 -31.0029 12.1689 -47.0029 16.502s-31.667 6.5 -47 6.5c-18 0 -33.333 -2.66699 -46 -8s-23 -11.833 -31 -19.5s-14 -15.834 -18 -24.501s-6 -16.334 -6 -23.001c0 -11.333 3.66699 -17 11 -17c6.66699 0 10 4.66699 10 14
c1.33301 10.667 6 19.334 14 26.001s18 10 30 10c10 0 19.833 -2.83301 29.5 -8.5s21.167 -11.167 34.5 -16.5c18 -7.33301 34.167 -12.5 48.5 -15.5s29.5 -4.5 45.5 -4.5c20.667 0 37.334 2.66699 50.001 8s22.667 11.666 30 18.999s12.333 15 15 23s4 15 4 21
c0 10 -3.33301 15 -10 15s-10.667 -4.66699 -12 -14c-0.666992 -7.33301 -3.16699 -13.833 -7.5 -19.5s-14.166 -8.5 -29.499 -8.5c-11.333 0 -22.666 2.16699 -33.999 6.5zM21.9971 16.002v-16h222v16h-118l63 193h201l65 -193h-103v-16h293v16h-87l-219 665h-12l-219 -665
h-86zM288.997 511.002l96 -286h-190z" />
    <glyph glyph-name="Adieresis" unicode="&#xc4;" horiz-adv-x="661" 
d="M302 781c0 13.333 -4.5 24.5 -13.5 33.5s-20.167 13.5 -33.5 13.5s-24.5 -4.5 -33.5 -13.5s-13.5 -20.167 -13.5 -33.5s4.5 -24.5 13.5 -33.5s20.167 -13.5 33.5 -13.5s24.5 4.5 33.5 13.5s13.5 20.167 13.5 33.5zM454 781c0 13.333 -4.5 24.5 -13.5 33.5
s-20.167 13.5 -33.5 13.5s-24.5 -4.5 -33.5 -13.5s-13.5 -20.167 -13.5 -33.5s4.5 -24.5 13.5 -33.5s20.167 -13.5 33.5 -13.5s24.5 4.5 33.5 13.5s13.5 20.167 13.5 33.5zM22 16v-16h222v16h-118l63 193h201l65 -193h-103v-16h293v16h-87l-219 665h-12l-219 -665h-86z
M289 511l96 -286h-190z" />
    <glyph glyph-name="Aring" unicode="&#xc5;" horiz-adv-x="661" 
d="M405 798c0 20.667 -7.33301 38.334 -22 53.001s-32.334 22 -53.001 22s-38.334 -7.33301 -53.001 -22s-22 -32.334 -22 -53.001s7.33301 -38.334 22 -53.001s32.334 -22 53.001 -22s38.334 7.33301 53.001 22s22 32.334 22 53.001zM271 798
c0 16.667 5.66699 30.667 17 42s25.333 17 42 17s30.667 -5.66699 42 -17s17 -25.333 17 -42s-5.66699 -30.667 -17 -42s-25.333 -17 -42 -17s-30.667 5.66699 -42 17s-17 25.333 -17 42zM22 16v-16h222v16h-118l63 193h201l65 -193h-103v-16h293v16h-87l-219 665h-12
l-219 -665h-86zM289 511l96 -286h-190z" />
    <glyph glyph-name="AE" unicode="&#xc6;" horiz-adv-x="957" 
d="M317 301l199 316v-316h-199zM905 648c0 8 -2.49902 13.999 -7.49902 17.999s-13.5 6 -25.5 6h-440v-16h86l-408 -640h-84v-16h218v16h-109l171 269h210v-269h-83v-16h470c12.667 0 20.834 3.5 24.501 10.5s5.5 14.167 5.5 21.5v150c0 16 -2.66699 24 -8 24
c-4.66699 0 -8.33398 -7 -11.001 -21c-5.33301 -25.333 -11 -48.333 -17 -69s-14 -38.5 -24 -53.5s-22.667 -26.5 -38 -34.5s-34.666 -12 -57.999 -12h-161v330h79c14.667 0 26.334 -2.16699 35.001 -6.5s15.5 -10.5 20.5 -18.5s8.83301 -17.667 11.5 -29
s5.33398 -24 8.00098 -38c2 -9.33301 4.66699 -14 8 -14c4 0 6 4.33301 6 13v203c0 8 -2 12 -6 12c-3.33301 0 -6 -4.66699 -8 -14c-2.66699 -14 -5.33398 -26.667 -8.00098 -38s-6.5 -21 -11.5 -29s-11.833 -14.167 -20.5 -18.5s-20.334 -6.5 -35.001 -6.5h-79v294h152
c22.667 0 41.667 -5.5 57 -16.5s27.666 -24.667 36.999 -41s16.166 -33.666 20.499 -51.999s6.83301 -34.833 7.5 -49.5c0 -9.33301 2.66699 -14 8 -14c4.66699 0 7 4.33301 7 13v152z" />
    <glyph glyph-name="Ccedilla" unicode="&#xc7;" horiz-adv-x="613" 
d="M38 336c0 -48 8.33398 -93.165 25.001 -135.498s38.667 -79.5 66 -111.5s58.333 -57.667 93 -77s70 -30 106 -32l-10 -43c7.33301 -3.33301 14.666 -8.33301 21.999 -15s11 -16.334 11 -29.001c0 -12 -4 -20.833 -12 -26.5s-17 -8.5 -27 -8.5
c-7.33301 0 -14.5 1.5 -21.5 4.5s-13.167 7.83301 -18.5 14.5c-5.33301 5.33301 -9.33301 8 -12 8c-2 0 -3 -1.33301 -3 -4s1.33301 -6.33398 4 -11.001c7.33301 -11.333 16.5 -21.166 27.5 -29.499s23.5 -12.5 37.5 -12.5c20 0 36 5.33301 48 16s18 24 18 40
c0 8.66699 -1.66699 16.334 -5 23.001s-7.5 12.5 -12.5 17.5s-10.333 9 -16 12s-10.5 5.16699 -14.5 6.5l7 37c29.333 1.33301 57.5 8.33301 84.5 21s51.167 30.667 72.5 54l53 -58c3.33301 -3.33301 6.33301 -5 9 -5c4 0 6 2.33301 6 7v193c0 6.66699 -1.66699 10 -5 10
s-6.66602 -3.66699 -9.99902 -11c-12 -27.333 -25.167 -52.666 -39.5 -75.999s-30.5 -43.333 -48.5 -60s-38 -29.667 -60 -39s-46.333 -14 -73 -14c-60.667 0 -105.5 23.167 -134.5 69.5s-43.5 115.166 -43.5 206.499v112c0 88 14.833 155.5 44.5 202.5
s75.834 70.5 138.501 70.5c27.333 0 52.666 -4.16699 75.999 -12.5s43.666 -20.833 60.999 -37.5c15.333 -15.333 28.833 -33 40.5 -53s21.167 -40.667 28.5 -62c2 -6.66699 4.33301 -10 7 -10c3.33301 0 5 4 5 12v163c0 6 -0.666992 10 -2 12s-3.33301 3 -6 3
c-3.33301 0 -7.66602 -2.66699 -12.999 -8l-39 -40c-21.333 17.333 -45.333 30.5 -72 39.5s-55 13.5 -85 13.5c-44 0 -84.833 -10 -122.5 -30s-70.334 -46.333 -98.001 -79s-49.167 -69.834 -64.5 -111.501s-23 -83.834 -23 -126.501z" />
    <glyph glyph-name="Egrave" unicode="&#xc8;" horiz-adv-x="574" 
d="M163 853l143 -143l7 4l-72 139h-78zM216 346l79.002 -0.000976562c14.667 0 26.334 -2.16699 35.001 -6.5s15.5 -10.5 20.5 -18.5s8.83301 -17.667 11.5 -29s5.33398 -24 8.00098 -38c2 -9.33301 4.66699 -14 8 -14c4 0 6 4.33301 6 13v203c0 8 -2 12 -6 12
c-3.33301 0 -6 -4.66699 -8 -14c-2.66699 -14 -5.33398 -26.667 -8.00098 -38s-6.5 -21 -11.5 -29s-11.833 -14.167 -20.5 -18.5s-20.334 -6.5 -35.001 -6.5h-79v294h152c22.667 0 41.667 -5.5 57 -16.5s27.666 -24.667 36.999 -41s16.166 -33.666 20.499 -51.999
s6.83301 -34.833 7.5 -49.5c0 -9.33301 2.66699 -14 8 -14c4.66699 0 7 4.33301 7 13v152c0 16 -8.33301 24 -25 24h-447v-16h86v-640h-85v-16h470c19.333 0 29 10.667 29 32v150c0 16 -2.66699 24 -8 24c-4.66699 0 -8.33398 -7 -11.001 -21
c-5.33301 -25.333 -11 -48.333 -17 -69s-14 -38.5 -24 -53.5s-22.667 -26.5 -38 -34.5s-34.666 -12 -57.999 -12h-161v330z" />
    <glyph glyph-name="Eacute" unicode="&#xc9;" horiz-adv-x="574" 
d="M358 853l-72 -139l6 -4l143 143h-77zM216 346l79.002 -0.000976562c14.667 0 26.334 -2.16699 35.001 -6.5s15.5 -10.5 20.5 -18.5s8.83301 -17.667 11.5 -29s5.33398 -24 8.00098 -38c2 -9.33301 4.66699 -14 8 -14c4 0 6 4.33301 6 13v203c0 8 -2 12 -6 12
c-3.33301 0 -6 -4.66699 -8 -14c-2.66699 -14 -5.33398 -26.667 -8.00098 -38s-6.5 -21 -11.5 -29s-11.833 -14.167 -20.5 -18.5s-20.334 -6.5 -35.001 -6.5h-79v294h152c22.667 0 41.667 -5.5 57 -16.5s27.666 -24.667 36.999 -41s16.166 -33.666 20.499 -51.999
s6.83301 -34.833 7.5 -49.5c0 -9.33301 2.66699 -14 8 -14c4.66699 0 7 4.33301 7 13v152c0 16 -8.33301 24 -25 24h-447v-16h86v-640h-85v-16h470c19.333 0 29 10.667 29 32v150c0 16 -2.66699 24 -8 24c-4.66699 0 -8.33398 -7 -11.001 -21
c-5.33301 -25.333 -11 -48.333 -17 -69s-14 -38.5 -24 -53.5s-22.667 -26.5 -38 -34.5s-34.666 -12 -57.999 -12h-161v330z" />
    <glyph glyph-name="Ecircumflex" unicode="&#xca;" horiz-adv-x="574" 
d="M439 725l-133 133h-6l-131 -133l6 -4l128 68l129 -68zM216 346l79.002 -0.000976562c14.667 0 26.334 -2.16699 35.001 -6.5s15.5 -10.5 20.5 -18.5s8.83301 -17.667 11.5 -29s5.33398 -24 8.00098 -38c2 -9.33301 4.66699 -14 8 -14c4 0 6 4.33301 6 13v203
c0 8 -2 12 -6 12c-3.33301 0 -6 -4.66699 -8 -14c-2.66699 -14 -5.33398 -26.667 -8.00098 -38s-6.5 -21 -11.5 -29s-11.833 -14.167 -20.5 -18.5s-20.334 -6.5 -35.001 -6.5h-79v294h152c22.667 0 41.667 -5.5 57 -16.5s27.666 -24.667 36.999 -41
s16.166 -33.666 20.499 -51.999s6.83301 -34.833 7.5 -49.5c0 -9.33301 2.66699 -14 8 -14c4.66699 0 7 4.33301 7 13v152c0 16 -8.33301 24 -25 24h-447v-16h86v-640h-85v-16h470c19.333 0 29 10.667 29 32v150c0 16 -2.66699 24 -8 24c-4.66699 0 -8.33398 -7 -11.001 -21
c-5.33301 -25.333 -11 -48.333 -17 -69s-14 -38.5 -24 -53.5s-22.667 -26.5 -38 -34.5s-34.666 -12 -57.999 -12h-161v330z" />
    <glyph glyph-name="Edieresis" unicode="&#xcb;" horiz-adv-x="574" 
d="M271 781c0 13.333 -4.5 24.5 -13.5 33.5s-20.167 13.5 -33.5 13.5s-24.5 -4.5 -33.5 -13.5s-13.5 -20.167 -13.5 -33.5s4.5 -24.5 13.5 -33.5s20.167 -13.5 33.5 -13.5s24.5 4.5 33.5 13.5s13.5 20.167 13.5 33.5zM423 781c0 13.333 -4.5 24.5 -13.5 33.5
s-20.167 13.5 -33.5 13.5s-24.5 -4.5 -33.5 -13.5s-13.5 -20.167 -13.5 -33.5s4.5 -24.5 13.5 -33.5s20.167 -13.5 33.5 -13.5s24.5 4.5 33.5 13.5s13.5 20.167 13.5 33.5zM216 346l79.002 -0.000976562c14.667 0 26.334 -2.16699 35.001 -6.5s15.5 -10.5 20.5 -18.5
s8.83301 -17.667 11.5 -29s5.33398 -24 8.00098 -38c2 -9.33301 4.66699 -14 8 -14c4 0 6 4.33301 6 13v203c0 8 -2 12 -6 12c-3.33301 0 -6 -4.66699 -8 -14c-2.66699 -14 -5.33398 -26.667 -8.00098 -38s-6.5 -21 -11.5 -29s-11.833 -14.167 -20.5 -18.5
s-20.334 -6.5 -35.001 -6.5h-79v294h152c22.667 0 41.667 -5.5 57 -16.5s27.666 -24.667 36.999 -41s16.166 -33.666 20.499 -51.999s6.83301 -34.833 7.5 -49.5c0 -9.33301 2.66699 -14 8 -14c4.66699 0 7 4.33301 7 13v152c0 16 -8.33301 24 -25 24h-447v-16h86v-640h-85
v-16h470c19.333 0 29 10.667 29 32v150c0 16 -2.66699 24 -8 24c-4.66699 0 -8.33398 -7 -11.001 -21c-5.33301 -25.333 -11 -48.333 -17 -69s-14 -38.5 -24 -53.5s-22.667 -26.5 -38 -34.5s-34.666 -12 -57.999 -12h-161v330z" />
    <glyph glyph-name="Igrave" unicode="&#xcc;" horiz-adv-x="355" 
d="M37 853l143 -143l6 4l-72 139h-77zM312 656v16h-269v-16h86v-640h-86v-16h269v16h-86v640h86z" />
    <glyph glyph-name="Iacute" unicode="&#xcd;" horiz-adv-x="355" 
d="M242 853l-72 -139l6 -4l143 143h-77zM312 656v16h-269v-16h86v-640h-86v-16h269v16h-86v640h86z" />
    <glyph glyph-name="Icircumflex" unicode="&#xce;" horiz-adv-x="355" 
d="M306 725l-132 133h-6l-131 -133l6 -4l128 68l129 -68zM312 656v16h-269v-16h86v-640h-86v-16h269v16h-86v640h86z" />
    <glyph glyph-name="Idieresis" unicode="&#xcf;" horiz-adv-x="355" 
d="M145 781c0 13.333 -4.5 24.5 -13.5 33.5s-20.167 13.5 -33.5 13.5s-24.5 -4.5 -33.5 -13.5s-13.5 -20.167 -13.5 -33.5s4.5 -24.5 13.5 -33.5s20.167 -13.5 33.5 -13.5s24.5 4.5 33.5 13.5s13.5 20.167 13.5 33.5zM297 781c0 13.333 -4.5 24.5 -13.5 33.5
s-20.167 13.5 -33.5 13.5s-24.5 -4.5 -33.5 -13.5s-13.5 -20.167 -13.5 -33.5s4.5 -24.5 13.5 -33.5s20.167 -13.5 33.5 -13.5s24.5 4.5 33.5 13.5s13.5 20.167 13.5 33.5zM312 656v16h-269v-16h86v-640h-86v-16h269v16h-86v640h86z" />
    <glyph glyph-name="Eth" unicode="&#xd0;" horiz-adv-x="662" 
d="M217 342l0.000976562 314h110c27.333 0 53.333 -4.83301 78 -14.5s46.167 -25.667 64.5 -48s33 -51.833 44 -88.5s16.5 -82 16.5 -136v-50c0 -59.333 -5.5 -108.5 -16.5 -147.5s-25.833 -70 -44.5 -93s-40.334 -39.167 -65.001 -48.5s-51 -14 -79 -14h-108v302h138v24
h-138zM120.001 318l-0.000976562 -302h-88v-16h295c46.667 0 89.334 8.16699 128.001 24.5s71.667 39.5 99 69.5s48.5 66.167 63.5 108.5s22.5 89.5 22.5 141.5c0 48.667 -7.66699 93.167 -23 133.5s-36.833 75 -64.5 104s-60.667 51.333 -99 67s-80.5 23.5 -126.5 23.5
h-295v-16h88v-314h-109v-24h109z" />
    <glyph glyph-name="Ntilde" unicode="&#xd1;" horiz-adv-x="657" 
d="M369 805c-15.333 6.66699 -31.0029 12.1689 -47.0029 16.502s-31.667 6.5 -47 6.5c-18 0 -33.333 -2.66699 -46 -8s-23 -11.833 -31 -19.5s-14 -15.834 -18 -24.501s-6 -16.334 -6 -23.001c0 -11.333 3.66699 -17 11 -17c6.66699 0 10 4.66699 10 14
c1.33301 10.667 6 19.334 14 26.001s18 10 30 10c10 0 19.833 -2.83301 29.5 -8.5s21.167 -11.167 34.5 -16.5c18 -7.33301 34.167 -12.5 48.5 -15.5s29.5 -4.5 45.5 -4.5c20.667 0 37.334 2.66699 50.001 8s22.667 11.666 30 18.999s12.333 15 15 23s4 15 4 21
c0 10 -3.33301 15 -10 15s-10.667 -4.66699 -12 -14c-0.666992 -7.33301 -3.16699 -13.833 -7.5 -19.5s-14.166 -8.5 -29.499 -8.5c-11.333 0 -22.666 2.16699 -33.999 6.5zM26.9971 16.002v-16h188v16h-86v611l387 -635h34v664h86v16h-188v-16h86v-491l-310 507h-197v-16
h86v-640h-86z" />
    <glyph glyph-name="Ograve" unicode="&#xd2;" horiz-adv-x="691" 
d="M209 853l143 -143l6 4l-72 139h-77zM350 -19c42.667 0 82.834 9.83301 120.501 29.5s70.5 45.834 98.5 78.501s50.167 70.167 66.5 112.5s24.5 86.166 24.5 131.499s-8.16699 89.166 -24.5 131.499s-38.5 79.666 -66.5 111.999s-60.833 58.166 -98.5 77.499
s-77.834 29 -120.501 29s-82.834 -9.66699 -120.501 -29s-70.5 -45.166 -98.5 -77.499s-50.167 -69.666 -66.5 -111.999s-24.5 -86.166 -24.5 -131.499s8.16699 -89.166 24.5 -131.499s38.5 -79.833 66.5 -112.5s60.833 -58.834 98.5 -78.501s77.834 -29.5 120.501 -29.5z
M350 665c30 0 56.667 -4.66699 80 -14s42.833 -25 58.5 -47s27.667 -51 36 -87s12.5 -80.667 12.5 -134v-100c0 -96.667 -16 -168.167 -48 -214.5s-78.333 -69.5 -139 -69.5s-107 23.167 -139 69.5s-48 117.833 -48 214.5v100c0 52 4.16699 95.833 12.5 131.5
s20.333 64.667 36 87s35.167 38.5 58.5 48.5s50 15 80 15z" />
    <glyph glyph-name="Oacute" unicode="&#xd3;" horiz-adv-x="691" 
d="M397 853l-72 -139l6 -4l143 143h-77zM350 -19c42.667 0 82.834 9.83301 120.501 29.5s70.5 45.834 98.5 78.501s50.167 70.167 66.5 112.5s24.5 86.166 24.5 131.499s-8.16699 89.166 -24.5 131.499s-38.5 79.666 -66.5 111.999s-60.833 58.166 -98.5 77.499
s-77.834 29 -120.501 29s-82.834 -9.66699 -120.501 -29s-70.5 -45.166 -98.5 -77.499s-50.167 -69.666 -66.5 -111.999s-24.5 -86.166 -24.5 -131.499s8.16699 -89.166 24.5 -131.499s38.5 -79.833 66.5 -112.5s60.833 -58.834 98.5 -78.501s77.834 -29.5 120.501 -29.5z
M350 665c30 0 56.667 -4.66699 80 -14s42.833 -25 58.5 -47s27.667 -51 36 -87s12.5 -80.667 12.5 -134v-100c0 -96.667 -16 -168.167 -48 -214.5s-78.333 -69.5 -139 -69.5s-107 23.167 -139 69.5s-48 117.833 -48 214.5v100c0 52 4.16699 95.833 12.5 131.5
s20.333 64.667 36 87s35.167 38.5 58.5 48.5s50 15 80 15z" />
    <glyph glyph-name="Ocircumflex" unicode="&#xd4;" horiz-adv-x="691" 
d="M488 725l-132 133h-7l-131 -133l7 -4l128 68l129 -68zM350 -19c42.667 0 82.834 9.83301 120.501 29.5s70.5 45.834 98.5 78.501s50.167 70.167 66.5 112.5s24.5 86.166 24.5 131.499s-8.16699 89.166 -24.5 131.499s-38.5 79.666 -66.5 111.999
s-60.833 58.166 -98.5 77.499s-77.834 29 -120.501 29s-82.834 -9.66699 -120.501 -29s-70.5 -45.166 -98.5 -77.499s-50.167 -69.666 -66.5 -111.999s-24.5 -86.166 -24.5 -131.499s8.16699 -89.166 24.5 -131.499s38.5 -79.833 66.5 -112.5s60.833 -58.834 98.5 -78.501
s77.834 -29.5 120.501 -29.5zM350 665c30 0 56.667 -4.66699 80 -14s42.833 -25 58.5 -47s27.667 -51 36 -87s12.5 -80.667 12.5 -134v-100c0 -96.667 -16 -168.167 -48 -214.5s-78.333 -69.5 -139 -69.5s-107 23.167 -139 69.5s-48 117.833 -48 214.5v100
c0 52 4.16699 95.833 12.5 131.5s20.333 64.667 36 87s35.167 38.5 58.5 48.5s50 15 80 15z" />
    <glyph glyph-name="Otilde" unicode="&#xd5;" horiz-adv-x="691" 
d="M381 805c-15.333 6.66699 -31.0029 12.1689 -47.0029 16.502s-31.667 6.5 -47 6.5c-18 0 -33.333 -2.66699 -46 -8s-23 -11.833 -31 -19.5s-14 -15.834 -18 -24.501s-6 -16.334 -6 -23.001c0 -11.333 3.66699 -17 11 -17c6.66699 0 10 4.66699 10 14
c1.33301 10.667 6 19.334 14 26.001s18 10 30 10c10 0 19.833 -2.83301 29.5 -8.5s21.167 -11.167 34.5 -16.5c18 -7.33301 34.167 -12.5 48.5 -15.5s29.5 -4.5 45.5 -4.5c20.667 0 37.334 2.66699 50.001 8s22.667 11.666 30 18.999s12.333 15 15 23s4 15 4 21
c0 10 -3.33301 15 -10 15s-10.667 -4.66699 -12 -14c-0.666992 -7.33301 -3.16699 -13.833 -7.5 -19.5s-14.166 -8.5 -29.499 -8.5c-11.333 0 -22.666 2.16699 -33.999 6.5zM349.997 -18.998c42.667 0 82.834 9.83301 120.501 29.5s70.5 45.834 98.5 78.501
s50.167 70.167 66.5 112.5s24.5 86.166 24.5 131.499s-8.16699 89.166 -24.5 131.499s-38.5 79.666 -66.5 111.999s-60.833 58.166 -98.5 77.499s-77.834 29 -120.501 29s-82.834 -9.66699 -120.501 -29s-70.5 -45.166 -98.5 -77.499s-50.167 -69.666 -66.5 -111.999
s-24.5 -86.166 -24.5 -131.499s8.16699 -89.166 24.5 -131.499s38.5 -79.833 66.5 -112.5s60.833 -58.834 98.5 -78.501s77.834 -29.5 120.501 -29.5zM349.997 665.002c30 0 56.667 -4.66699 80 -14s42.833 -25 58.5 -47s27.667 -51 36 -87s12.5 -80.667 12.5 -134v-100
c0 -96.667 -16 -168.167 -48 -214.5s-78.333 -69.5 -139 -69.5s-107 23.167 -139 69.5s-48 117.833 -48 214.5v100c0 52 4.16699 95.833 12.5 131.5s20.333 64.667 36 87s35.167 38.5 58.5 48.5s50 15 80 15z" />
    <glyph glyph-name="Odieresis" unicode="&#xd6;" horiz-adv-x="691" 
d="M323 781c0 13.333 -4.5 24.5 -13.5 33.5s-20.167 13.5 -33.5 13.5s-24.5 -4.5 -33.5 -13.5s-13.5 -20.167 -13.5 -33.5s4.5 -24.5 13.5 -33.5s20.167 -13.5 33.5 -13.5s24.5 4.5 33.5 13.5s13.5 20.167 13.5 33.5zM475 781c0 13.333 -4.5 24.5 -13.5 33.5
s-20.167 13.5 -33.5 13.5s-24.5 -4.5 -33.5 -13.5s-13.5 -20.167 -13.5 -33.5s4.5 -24.5 13.5 -33.5s20.167 -13.5 33.5 -13.5s24.5 4.5 33.5 13.5s13.5 20.167 13.5 33.5zM350 -19c42.667 0 82.834 9.83301 120.501 29.5s70.5 45.834 98.5 78.501s50.167 70.167 66.5 112.5
s24.5 86.166 24.5 131.499s-8.16699 89.166 -24.5 131.499s-38.5 79.666 -66.5 111.999s-60.833 58.166 -98.5 77.499s-77.834 29 -120.501 29s-82.834 -9.66699 -120.501 -29s-70.5 -45.166 -98.5 -77.499s-50.167 -69.666 -66.5 -111.999s-24.5 -86.166 -24.5 -131.499
s8.16699 -89.166 24.5 -131.499s38.5 -79.833 66.5 -112.5s60.833 -58.834 98.5 -78.501s77.834 -29.5 120.501 -29.5zM350 665c30 0 56.667 -4.66699 80 -14s42.833 -25 58.5 -47s27.667 -51 36 -87s12.5 -80.667 12.5 -134v-100c0 -96.667 -16 -168.167 -48 -214.5
s-78.333 -69.5 -139 -69.5s-107 23.167 -139 69.5s-48 117.833 -48 214.5v100c0 52 4.16699 95.833 12.5 131.5s20.333 64.667 36 87s35.167 38.5 58.5 48.5s50 15 80 15z" />
    <glyph glyph-name="multiply" unicode="&#xd7;" horiz-adv-x="564" 
d="M38 449l196 -196l-196 -197l48 -48l196 197l197 -197l48 48l-197 197l197 196l-48 48l-197 -197l-196 197z" />
    <glyph glyph-name="Oslash" unicode="&#xd8;" horiz-adv-x="718" 
d="M456 636c26.667 -18.667 46.833 -48 60.5 -88s20.5 -95 20.5 -165v-100c0 -96.667 -16 -168.167 -48 -214.5s-78.333 -69.5 -139 -69.5c-52 0 -93.333 17 -124 51zM209.999 70c-31.333 48.667 -47.002 119.668 -47.002 213.001v100c0 52 4.16699 95.833 12.5 131.5
s20.333 64.667 36 87s35.167 38.5 58.5 48.5s50 15 80 15c16.667 0 32.334 -1.33301 47.001 -4s28.334 -7.33398 41.001 -14.001zM194.997 31.001l-43.002 -109.002l20 -9l42 106c20.667 -12 42.334 -21.333 65.001 -28s46.334 -10 71.001 -10
c42.667 0 82.834 9.83301 120.501 29.5s70.5 45.834 98.5 78.501s50.167 70.167 66.5 112.5s24.5 86.166 24.5 131.499c0 34.667 -4.83301 68.5 -14.5 101.5s-23.167 63.833 -40.5 92.5s-38 54.167 -62 76.5s-50.333 40.166 -79 53.499l27 67l-20 7l-26 -66
c-30 12 -61.667 18 -95 18c-42.667 0 -82.834 -9.66699 -120.501 -29s-70.5 -45.166 -98.5 -77.499s-50.167 -69.666 -66.5 -111.999s-24.5 -86.166 -24.5 -131.499c0 -30.667 3.66699 -60.667 11 -90s17.833 -57 31.5 -83s30 -50 49 -72s40.167 -41 63.5 -57z" />
    <glyph glyph-name="Ugrave" unicode="&#xd9;" horiz-adv-x="638" 
d="M212 853l143 -143l6 4l-72 139h-77zM291 672h-268.999v-16h86v-489c0 -35.333 6.83301 -64.833 20.5 -88.5s31.334 -42.834 53.001 -57.501s45.834 -25 72.501 -31s53 -9 79 -9c63.333 0 112.666 15.5 147.999 46.5s53 77.5 53 139.5v489h86v16h-188v-16h86v-489
c0 -26.667 -4.16699 -50.5 -12.5 -71.5s-19.833 -38.667 -34.5 -53s-31.834 -25.166 -51.501 -32.499s-40.834 -11 -63.501 -11c-46.667 0 -83.5 14.5 -110.5 43.5s-40.5 70.5 -40.5 124.5v489h86v16z" />
    <glyph glyph-name="Uacute" unicode="&#xda;" horiz-adv-x="638" 
d="M410 853l-72 -139l6 -4l143 143h-77zM291 672h-268.999v-16h86v-489c0 -35.333 6.83301 -64.833 20.5 -88.5s31.334 -42.834 53.001 -57.501s45.834 -25 72.501 -31s53 -9 79 -9c63.333 0 112.666 15.5 147.999 46.5s53 77.5 53 139.5v489h86v16h-188v-16h86v-489
c0 -26.667 -4.16699 -50.5 -12.5 -71.5s-19.833 -38.667 -34.5 -53s-31.834 -25.166 -51.501 -32.499s-40.834 -11 -63.501 -11c-46.667 0 -83.5 14.5 -110.5 43.5s-40.5 70.5 -40.5 124.5v489h86v16z" />
    <glyph glyph-name="Ucircumflex" unicode="&#xdb;" horiz-adv-x="638" 
d="M475 725l-132 133h-6l-132 -133l7 -4l128 68l129 -68zM291 672h-268.999v-16h86v-489c0 -35.333 6.83301 -64.833 20.5 -88.5s31.334 -42.834 53.001 -57.501s45.834 -25 72.501 -31s53 -9 79 -9c63.333 0 112.666 15.5 147.999 46.5s53 77.5 53 139.5v489h86v16h-188
v-16h86v-489c0 -26.667 -4.16699 -50.5 -12.5 -71.5s-19.833 -38.667 -34.5 -53s-31.834 -25.166 -51.501 -32.499s-40.834 -11 -63.501 -11c-46.667 0 -83.5 14.5 -110.5 43.5s-40.5 70.5 -40.5 124.5v489h86v16z" />
    <glyph glyph-name="Udieresis" unicode="&#xdc;" horiz-adv-x="638" 
d="M309 781c0 13.333 -4.5 24.5 -13.5 33.5s-20.167 13.5 -33.5 13.5s-24.5 -4.5 -33.5 -13.5s-13.5 -20.167 -13.5 -33.5s4.5 -24.5 13.5 -33.5s20.167 -13.5 33.5 -13.5s24.5 4.5 33.5 13.5s13.5 20.167 13.5 33.5zM461 781c0 13.333 -4.5 24.5 -13.5 33.5
s-20.167 13.5 -33.5 13.5s-24.5 -4.5 -33.5 -13.5s-13.5 -20.167 -13.5 -33.5s4.5 -24.5 13.5 -33.5s20.167 -13.5 33.5 -13.5s24.5 4.5 33.5 13.5s13.5 20.167 13.5 33.5zM291 672h-268.999v-16h86v-489c0 -35.333 6.83301 -64.833 20.5 -88.5
s31.334 -42.834 53.001 -57.501s45.834 -25 72.501 -31s53 -9 79 -9c63.333 0 112.666 15.5 147.999 46.5s53 77.5 53 139.5v489h86v16h-188v-16h86v-489c0 -26.667 -4.16699 -50.5 -12.5 -71.5s-19.833 -38.667 -34.5 -53s-31.834 -25.166 -51.501 -32.499
s-40.834 -11 -63.501 -11c-46.667 0 -83.5 14.5 -110.5 43.5s-40.5 70.5 -40.5 124.5v489h86v16z" />
    <glyph glyph-name="Yacute" unicode="&#xdd;" horiz-adv-x="662" 
d="M438 853l-72 -139l6 -4l143 143h-77zM311 672h-279v-16h80l194 -326v-314h-96v-16h289v16h-96v340l165 300h81v16h-204v-16h97l-155 -282l-168 282h92v16z" />
    <glyph glyph-name="Thorn" unicode="&#xde;" horiz-adv-x="542" 
d="M212 526l0.00195312 130.001h86v16h-268c-0.666992 0.666992 -1 -2 -1 -8v-8h86v-640h-85v-16h268v16h-86v146h104c29.333 0 56.166 4.5 80.499 13.5s45.166 21.5 62.499 37.5s30.833 35.167 40.5 57.5s14.5 47.166 14.5 74.499c0 26.667 -4.83301 51.167 -14.5 73.5
s-23.5 41.5 -41.5 57.5s-39.833 28.333 -65.5 37s-54.5 13 -86.5 13h-94zM212.002 178.001v331.999h94c37.333 0 66.5 -11.167 87.5 -33.5s31.5 -60.166 31.5 -113.499v-36c0 -51.333 -10.333 -89 -31 -113s-46.667 -36 -78 -36h-104z" />
    <glyph glyph-name="germandbls" unicode="&#xdf;" horiz-adv-x="566" 
d="M34 16l-0.00195312 -15.9961h237v16h-75v507c0 50.667 8.33301 85.5 25 104.5s40 28.5 70 28.5c42 0 75.167 -12.5 99.5 -37.5s36.5 -58.833 36.5 -101.5c0 -18.667 -2.66699 -35.334 -8 -50.001s-12.5 -28.334 -21.5 -41.001s-19.5 -24.5 -31.5 -35.5
s-25 -22.167 -39 -33.5c-8.66699 -7.33301 -15.167 -14.166 -19.5 -20.499s-6.5 -14.833 -6.5 -25.5c0 -21.333 12.333 -36 37 -44c16 -5.33301 33.667 -12.333 53 -21s37.5 -19.334 54.5 -32.001s31.167 -27 42.5 -43s17 -34 17 -54c0 -17.333 -3.5 -32.833 -10.5 -46.5
s-16.5 -25.167 -28.5 -34.5s-25.667 -16.666 -41 -21.999s-31.333 -8 -48 -8s-29.667 1.5 -39 4.5s-14 5.16699 -14 6.5c0 2 1.66699 3.66699 5 5c4.66699 2 9.16699 5.33301 13.5 10s6.5 11.667 6.5 21c0 12 -3.16699 21 -9.5 27s-13.5 9 -21.5 9
c-9.33301 0 -17.5 -3.33301 -24.5 -10s-10.5 -16.667 -10.5 -30c0 -21.333 8.33301 -36.5 25 -45.5s39.334 -13.5 68.001 -13.5c22.667 0 43.834 3.33301 63.501 10s36.667 17.334 51 32.001s25.666 33 33.999 55s12.5 48.667 12.5 80c0 26.667 -4.66699 50 -14 70
s-21.833 37 -37.5 51s-33.5 25.667 -53.5 35s-40.667 16.666 -62 21.999c-3.33301 1.33301 -6.16602 2.66602 -8.49902 3.99902s-3.5 3.66602 -3.5 6.99902c0 5.33301 3.66699 11 11 17c9.33301 8 18.333 16.5 27 25.5s16.5 19.167 23.5 30.5s12.667 24.166 17 38.499
s6.5 30.833 6.5 49.5c0 48.667 -13.333 86.667 -40 114s-64 41 -112 41c-54 0 -97.667 -16.667 -131 -50s-50 -86.333 -50 -159v-71h-76v-16h76v-360h-76z" />
    <glyph glyph-name="agrave" unicode="&#xe0;" horiz-adv-x="443" 
d="M60 639l159 -159l8 4l-81 155h-86zM115 382c-21.333 -14 -31.998 -30.6689 -31.998 -50.002c0 -9.33301 3.16699 -17.833 9.5 -25.5s15.166 -11.5 26.499 -11.5s20.5 3.33301 27.5 10s10.5 15 10.5 25c0 4.66699 -0.833008 9.5 -2.5 14.5s-4.83398 9.83301 -9.50098 14.5
c-3.33301 3.33301 -6 5.66602 -8 6.99902s-3 3 -3 5c0 2.66699 2 5.33398 6 8.00098s9 5 15 7s12.833 3.66699 20.5 5s15.167 2 22.5 2c20.667 0 37 -4 49 -12s18 -23.333 18 -46v-118c-30.667 0 -59.334 -3.16699 -86.001 -9.5s-50 -15.5 -70 -27.5
s-35.667 -26.833 -47 -44.5s-17 -37.5 -17 -59.5c0 -16 2.83301 -29.833 8.5 -41.5s13.5 -21 23.5 -28s21.5 -12.167 34.5 -15.5s26.833 -5 41.5 -5c15.333 0 29.166 1.83301 41.499 5.5s23.333 8.33398 33 14.001s17.834 11.667 24.501 18s12 12.5 16 18.5
c2 -14 8.33301 -26.833 19 -38.5s29.334 -17.5 56.001 -17.5c17.333 0 31.833 2.66699 43.5 8s21.167 11.666 28.5 18.999s12.5 14.833 15.5 22.5s4.5 13.5 4.5 17.5c0 3.33301 -1 5 -3 5s-4.33301 -2.66699 -7 -8c-5.33301 -11.333 -12 -20.5 -20 -27.5
s-16.667 -10.5 -26 -10.5c-13.333 0 -21.333 5.5 -24 16.5s-4 26.167 -4 45.5v242c0 28.667 -10.667 50.834 -32 66.501s-54 23.5 -98 23.5c-20.667 0 -40.5 -2.16699 -59.5 -6.5s-34.5 -10.166 -46.5 -17.499zM265.002 206.998l0.000976562 -138.998
c0 -6 -2.83301 -12.333 -8.5 -19s-12.667 -12.834 -21 -18.501s-17 -10.167 -26 -13.5s-16.5 -5 -22.5 -5c-20.667 0 -36.334 8 -47.001 24s-16 37.667 -16 65c0 22 4 39.667 12 53s18.5 23.666 31.5 30.999s28 12.5 45 15.5s34.5 5.16699 52.5 6.5z" />
    <glyph glyph-name="aacute" unicode="&#xe1;" horiz-adv-x="443" 
d="M259 639l-81 -155l8 -4l159 159h-86zM115 382c-21.333 -14 -31.998 -30.6689 -31.998 -50.002c0 -9.33301 3.16699 -17.833 9.5 -25.5s15.166 -11.5 26.499 -11.5s20.5 3.33301 27.5 10s10.5 15 10.5 25c0 4.66699 -0.833008 9.5 -2.5 14.5
s-4.83398 9.83301 -9.50098 14.5c-3.33301 3.33301 -6 5.66602 -8 6.99902s-3 3 -3 5c0 2.66699 2 5.33398 6 8.00098s9 5 15 7s12.833 3.66699 20.5 5s15.167 2 22.5 2c20.667 0 37 -4 49 -12s18 -23.333 18 -46v-118c-30.667 0 -59.334 -3.16699 -86.001 -9.5
s-50 -15.5 -70 -27.5s-35.667 -26.833 -47 -44.5s-17 -37.5 -17 -59.5c0 -16 2.83301 -29.833 8.5 -41.5s13.5 -21 23.5 -28s21.5 -12.167 34.5 -15.5s26.833 -5 41.5 -5c15.333 0 29.166 1.83301 41.499 5.5s23.333 8.33398 33 14.001s17.834 11.667 24.501 18
s12 12.5 16 18.5c2 -14 8.33301 -26.833 19 -38.5s29.334 -17.5 56.001 -17.5c17.333 0 31.833 2.66699 43.5 8s21.167 11.666 28.5 18.999s12.5 14.833 15.5 22.5s4.5 13.5 4.5 17.5c0 3.33301 -1 5 -3 5s-4.33301 -2.66699 -7 -8c-5.33301 -11.333 -12 -20.5 -20 -27.5
s-16.667 -10.5 -26 -10.5c-13.333 0 -21.333 5.5 -24 16.5s-4 26.167 -4 45.5v242c0 28.667 -10.667 50.834 -32 66.501s-54 23.5 -98 23.5c-20.667 0 -40.5 -2.16699 -59.5 -6.5s-34.5 -10.166 -46.5 -17.499zM265.002 206.998l0.000976562 -138.998
c0 -6 -2.83301 -12.333 -8.5 -19s-12.667 -12.834 -21 -18.501s-17 -10.167 -26 -13.5s-16.5 -5 -22.5 -5c-20.667 0 -36.334 8 -47.001 24s-16 37.667 -16 65c0 22 4 39.667 12 53s18.5 23.666 31.5 30.999s28 12.5 45 15.5s34.5 5.16699 52.5 6.5z" />
    <glyph glyph-name="acircumflex" unicode="&#xe2;" horiz-adv-x="443" 
d="M348 499l-132 133h-6l-132 -133l7 -3l128 67l129 -67zM115 382c-21.333 -14 -31.998 -30.6689 -31.998 -50.002c0 -9.33301 3.16699 -17.833 9.5 -25.5s15.166 -11.5 26.499 -11.5s20.5 3.33301 27.5 10s10.5 15 10.5 25c0 4.66699 -0.833008 9.5 -2.5 14.5
s-4.83398 9.83301 -9.50098 14.5c-3.33301 3.33301 -6 5.66602 -8 6.99902s-3 3 -3 5c0 2.66699 2 5.33398 6 8.00098s9 5 15 7s12.833 3.66699 20.5 5s15.167 2 22.5 2c20.667 0 37 -4 49 -12s18 -23.333 18 -46v-118c-30.667 0 -59.334 -3.16699 -86.001 -9.5
s-50 -15.5 -70 -27.5s-35.667 -26.833 -47 -44.5s-17 -37.5 -17 -59.5c0 -16 2.83301 -29.833 8.5 -41.5s13.5 -21 23.5 -28s21.5 -12.167 34.5 -15.5s26.833 -5 41.5 -5c15.333 0 29.166 1.83301 41.499 5.5s23.333 8.33398 33 14.001s17.834 11.667 24.501 18
s12 12.5 16 18.5c2 -14 8.33301 -26.833 19 -38.5s29.334 -17.5 56.001 -17.5c17.333 0 31.833 2.66699 43.5 8s21.167 11.666 28.5 18.999s12.5 14.833 15.5 22.5s4.5 13.5 4.5 17.5c0 3.33301 -1 5 -3 5s-4.33301 -2.66699 -7 -8c-5.33301 -11.333 -12 -20.5 -20 -27.5
s-16.667 -10.5 -26 -10.5c-13.333 0 -21.333 5.5 -24 16.5s-4 26.167 -4 45.5v242c0 28.667 -10.667 50.834 -32 66.501s-54 23.5 -98 23.5c-20.667 0 -40.5 -2.16699 -59.5 -6.5s-34.5 -10.166 -46.5 -17.499zM265.002 206.998l0.000976562 -138.998
c0 -6 -2.83301 -12.333 -8.5 -19s-12.667 -12.834 -21 -18.501s-17 -10.167 -26 -13.5s-16.5 -5 -22.5 -5c-20.667 0 -36.334 8 -47.001 24s-16 37.667 -16 65c0 22 4 39.667 12 53s18.5 23.666 31.5 30.999s28 12.5 45 15.5s34.5 5.16699 52.5 6.5z" />
    <glyph glyph-name="atilde" unicode="&#xe3;" horiz-adv-x="443" 
d="M249 583c-15.333 6.66699 -31.0029 12.1689 -47.0029 16.502s-31.667 6.5 -47 6.5c-18 0 -33.333 -2.66699 -46 -8s-23 -11.833 -31 -19.5s-14 -15.834 -18 -24.501s-6 -16.334 -6 -23.001c0 -11.333 3.66699 -17 11 -17c6.66699 0 10 4.66699 10 14
c1.33301 10.667 6 19.334 14 26.001s18 10 30 10c10 0 19.833 -2.83301 29.5 -8.5s21.167 -11.167 34.5 -16.5c18 -7.33301 34.167 -12.5 48.5 -15.5s29.5 -4.5 45.5 -4.5c20.667 0 37.334 2.66699 50.001 8s22.667 11.666 30 18.999s12.333 15 15 23s4 15 4 21
c0 10 -3.33301 15 -10 15s-10.667 -4.66699 -12 -14c-0.666992 -7.33301 -3.16699 -13.833 -7.5 -19.5s-14.166 -8.5 -29.499 -8.5c-11.333 0 -22.666 2.16699 -33.999 6.5zM114.997 382.002c-21.333 -14 -31.998 -30.6689 -31.998 -50.002
c0 -9.33301 3.16699 -17.833 9.5 -25.5s15.166 -11.5 26.499 -11.5s20.5 3.33301 27.5 10s10.5 15 10.5 25c0 4.66699 -0.833008 9.5 -2.5 14.5s-4.83398 9.83301 -9.50098 14.5c-3.33301 3.33301 -6 5.66602 -8 6.99902s-3 3 -3 5c0 2.66699 2 5.33398 6 8.00098s9 5 15 7
s12.833 3.66699 20.5 5s15.167 2 22.5 2c20.667 0 37 -4 49 -12s18 -23.333 18 -46v-118c-30.667 0 -59.334 -3.16699 -86.001 -9.5s-50 -15.5 -70 -27.5s-35.667 -26.833 -47 -44.5s-17 -37.5 -17 -59.5c0 -16 2.83301 -29.833 8.5 -41.5s13.5 -21 23.5 -28
s21.5 -12.167 34.5 -15.5s26.833 -5 41.5 -5c15.333 0 29.166 1.83301 41.499 5.5s23.333 8.33398 33 14.001s17.834 11.667 24.501 18s12 12.5 16 18.5c2 -14 8.33301 -26.833 19 -38.5s29.334 -17.5 56.001 -17.5c17.333 0 31.833 2.66699 43.5 8
s21.167 11.666 28.5 18.999s12.5 14.833 15.5 22.5s4.5 13.5 4.5 17.5c0 3.33301 -1 5 -3 5s-4.33301 -2.66699 -7 -8c-5.33301 -11.333 -12 -20.5 -20 -27.5s-16.667 -10.5 -26 -10.5c-13.333 0 -21.333 5.5 -24 16.5s-4 26.167 -4 45.5v242
c0 28.667 -10.667 50.834 -32 66.501s-54 23.5 -98 23.5c-20.667 0 -40.5 -2.16699 -59.5 -6.5s-34.5 -10.166 -46.5 -17.499zM264.999 207l0.000976562 -138.998c0 -6 -2.83301 -12.333 -8.5 -19s-12.667 -12.834 -21 -18.501s-17 -10.167 -26 -13.5s-16.5 -5 -22.5 -5
c-20.667 0 -36.334 8 -47.001 24s-16 37.667 -16 65c0 22 4 39.667 12 53s18.5 23.666 31.5 30.999s28 12.5 45 15.5s34.5 5.16699 52.5 6.5z" />
    <glyph glyph-name="adieresis" unicode="&#xe4;" horiz-adv-x="443" 
d="M184 577c0 13.333 -4.5 24.5 -13.5 33.5s-20.167 13.5 -33.5 13.5s-24.5 -4.5 -33.5 -13.5s-13.5 -20.167 -13.5 -33.5s4.5 -24.5 13.5 -33.5s20.167 -13.5 33.5 -13.5s24.5 4.5 33.5 13.5s13.5 20.167 13.5 33.5zM336 577c0 13.333 -4.5 24.5 -13.5 33.5
s-20.167 13.5 -33.5 13.5s-24.5 -4.5 -33.5 -13.5s-13.5 -20.167 -13.5 -33.5s4.5 -24.5 13.5 -33.5s20.167 -13.5 33.5 -13.5s24.5 4.5 33.5 13.5s13.5 20.167 13.5 33.5zM115 382c-21.333 -14 -31.998 -30.6689 -31.998 -50.002c0 -9.33301 3.16699 -17.833 9.5 -25.5
s15.166 -11.5 26.499 -11.5s20.5 3.33301 27.5 10s10.5 15 10.5 25c0 4.66699 -0.833008 9.5 -2.5 14.5s-4.83398 9.83301 -9.50098 14.5c-3.33301 3.33301 -6 5.66602 -8 6.99902s-3 3 -3 5c0 2.66699 2 5.33398 6 8.00098s9 5 15 7s12.833 3.66699 20.5 5s15.167 2 22.5 2
c20.667 0 37 -4 49 -12s18 -23.333 18 -46v-118c-30.667 0 -59.334 -3.16699 -86.001 -9.5s-50 -15.5 -70 -27.5s-35.667 -26.833 -47 -44.5s-17 -37.5 -17 -59.5c0 -16 2.83301 -29.833 8.5 -41.5s13.5 -21 23.5 -28s21.5 -12.167 34.5 -15.5s26.833 -5 41.5 -5
c15.333 0 29.166 1.83301 41.499 5.5s23.333 8.33398 33 14.001s17.834 11.667 24.501 18s12 12.5 16 18.5c2 -14 8.33301 -26.833 19 -38.5s29.334 -17.5 56.001 -17.5c17.333 0 31.833 2.66699 43.5 8s21.167 11.666 28.5 18.999s12.5 14.833 15.5 22.5s4.5 13.5 4.5 17.5
c0 3.33301 -1 5 -3 5s-4.33301 -2.66699 -7 -8c-5.33301 -11.333 -12 -20.5 -20 -27.5s-16.667 -10.5 -26 -10.5c-13.333 0 -21.333 5.5 -24 16.5s-4 26.167 -4 45.5v242c0 28.667 -10.667 50.834 -32 66.501s-54 23.5 -98 23.5c-20.667 0 -40.5 -2.16699 -59.5 -6.5
s-34.5 -10.166 -46.5 -17.499zM265.002 206.998l0.000976562 -138.998c0 -6 -2.83301 -12.333 -8.5 -19s-12.667 -12.834 -21 -18.501s-17 -10.167 -26 -13.5s-16.5 -5 -22.5 -5c-20.667 0 -36.334 8 -47.001 24s-16 37.667 -16 65c0 22 4 39.667 12 53
s18.5 23.666 31.5 30.999s28 12.5 45 15.5s34.5 5.16699 52.5 6.5z" />
    <glyph glyph-name="aring" unicode="&#xe5;" horiz-adv-x="435" 
d="M290 552c0 20.667 -7.33301 38.334 -22 53.001s-32.334 22 -53.001 22s-38.334 -7.33301 -53.001 -22s-22 -32.334 -22 -53.001s7.33301 -38.334 22 -53.001s32.334 -22 53.001 -22s38.334 7.33301 53.001 22s22 32.334 22 53.001zM156 552
c0 16.667 5.66699 30.667 17 42s25.333 17 42 17s30.667 -5.66699 42 -17s17 -25.333 17 -42s-5.66699 -30.667 -17 -42s-25.333 -17 -42 -17s-30.667 5.66699 -42 17s-17 25.333 -17 42zM115 382c-21.333 -14 -31.998 -30.6689 -31.998 -50.002
c0 -9.33301 3.16699 -17.833 9.5 -25.5s15.166 -11.5 26.499 -11.5s20.5 3.33301 27.5 10s10.5 15 10.5 25c0 4.66699 -0.833008 9.5 -2.5 14.5s-4.83398 9.83301 -9.50098 14.5c-3.33301 3.33301 -6 5.66602 -8 6.99902s-3 3 -3 5c0 2.66699 2 5.33398 6 8.00098s9 5 15 7
s12.833 3.66699 20.5 5s15.167 2 22.5 2c20.667 0 37 -4 49 -12s18 -23.333 18 -46v-118c-30.667 0 -59.334 -3.16699 -86.001 -9.5s-50 -15.5 -70 -27.5s-35.667 -26.833 -47 -44.5s-17 -37.5 -17 -59.5c0 -16 2.83301 -29.833 8.5 -41.5s13.5 -21 23.5 -28
s21.5 -12.167 34.5 -15.5s26.833 -5 41.5 -5c15.333 0 29.166 1.83301 41.499 5.5s23.333 8.33398 33 14.001s17.834 11.667 24.501 18s12 12.5 16 18.5c2 -14 8.33301 -26.833 19 -38.5s29.334 -17.5 56.001 -17.5c17.333 0 31.833 2.66699 43.5 8
s21.167 11.666 28.5 18.999s12.5 14.833 15.5 22.5s4.5 13.5 4.5 17.5c0 3.33301 -1 5 -3 5s-4.33301 -2.66699 -7 -8c-5.33301 -11.333 -12 -20.5 -20 -27.5s-16.667 -10.5 -26 -10.5c-13.333 0 -21.333 5.5 -24 16.5s-4 26.167 -4 45.5v242
c0 28.667 -10.667 50.834 -32 66.501s-54 23.5 -98 23.5c-20.667 0 -40.5 -2.16699 -59.5 -6.5s-34.5 -10.166 -46.5 -17.499zM265.002 206.998l0.000976562 -138.998c0 -6 -2.83301 -12.333 -8.5 -19s-12.667 -12.834 -21 -18.501s-17 -10.167 -26 -13.5s-16.5 -5 -22.5 -5
c-20.667 0 -36.334 8 -47.001 24s-16 37.667 -16 65c0 22 4 39.667 12 53s18.5 23.666 31.5 30.999s28 12.5 45 15.5s34.5 5.16699 52.5 6.5z" />
    <glyph glyph-name="ae" unicode="&#xe6;" horiz-adv-x="652" 
d="M441 406c-20 0 -38.8311 -3.50293 -56.498 -10.5029s-33.834 -16.833 -48.501 -29.5c-20.667 26.667 -59 40 -115 40c-20.667 0 -40.5 -2.16699 -59.5 -6.5s-34.5 -10.166 -46.5 -17.499c-21.333 -14 -32 -30.667 -32 -50c0 -9.33301 3.16699 -17.833 9.5 -25.5
s15.166 -11.5 26.499 -11.5s20.5 3.33301 27.5 10s10.5 15 10.5 25c0 4.66699 -0.833008 9.5 -2.5 14.5s-4.83398 9.83301 -9.50098 14.5c-3.33301 3.33301 -6 5.66602 -8 6.99902s-3 3 -3 5c0 2.66699 2 5.33398 6 8.00098s9 5 15 7s12.833 3.66699 20.5 5s15.167 2 22.5 2
c20.667 0 37 -4 49 -12s18 -23.333 18 -46v-118c-30.667 0 -59.334 -3.16699 -86.001 -9.5s-50 -15.5 -70 -27.5s-35.667 -26.833 -47 -44.5s-17 -37.5 -17 -59.5c0 -16 2.83301 -29.833 8.5 -41.5s13.5 -21 23.5 -28s21.5 -12.167 34.5 -15.5s26.833 -5 41.5 -5
c15.333 0 29.333 2 42 6s24 9 34 15s18.667 12.5 26 19.5s13 13.5 17 19.5c16.667 -19.333 38.5 -34.166 65.5 -44.499s62.833 -15.5 107.5 -15.5c22.667 0 43.334 3.16699 62.001 9.5s35.167 15 49.5 26s26.5 23.833 36.5 38.5s18 30 24 46c2 4.66699 3 9.33398 3 14.001
s-2 7 -6 7c-3.33301 0 -6.33301 -3.33301 -9 -10c-6 -14 -13.5 -28 -22.5 -42s-19.833 -26.333 -32.5 -37s-27.5 -19.334 -44.5 -26.001s-36.5 -10 -58.5 -10c-26.667 0 -48.167 10 -64.5 30s-24.5 52 -24.5 96v102h241c12 0 17.333 4.33301 16 13
c-0.666992 10.667 -4.16699 25.334 -10.5 44.001s-16.166 36.667 -29.499 54s-31 32.5 -53 45.5s-49 19.5 -81 19.5zM265.002 206.997l0.000976562 -138.998c0 -6 -2.83301 -12.333 -8.5 -19s-12.667 -12.834 -21 -18.501s-17 -10.167 -26 -13.5s-16.5 -5 -22.5 -5
c-20.667 0 -36.334 8 -47.001 24s-16 37.667 -16 65c0 22 4 39.667 12 53s18.5 23.666 31.5 30.999s28 12.5 45 15.5s34.5 5.16699 52.5 6.5zM358.003 245.999v39.999c0 22 2.5 39.833 7.5 53.5s11.5 24.167 19.5 31.5s17 12.333 27 15s20 4 30 4
c16 0 29.167 -2.83301 39.5 -8.5s18.5 -13.167 24.5 -22.5s10 -19.666 12 -30.999s3 -23 3 -35c0 -31.333 -5 -47 -15 -47h-148z" />
    <glyph glyph-name="ccedilla" unicode="&#xe7;" horiz-adv-x="412" 
d="M246 -14c23.333 1.33301 43.5029 6.16699 60.5029 14.5s31.5 18.166 43.5 29.499s21.333 23.166 28 35.499s11.667 23.5 15 33.5c1.33301 4 2 6.66699 2 8c0 6 -2.66699 9 -8 9c-4 0 -7 -3.33301 -9 -10c-4 -12.667 -10 -25.167 -18 -37.5s-17.833 -23.5 -29.5 -33.5
s-25.334 -18 -41.001 -24s-32.834 -9 -51.501 -9c-20.667 0 -37.5 3 -50.5 9s-23.333 15.833 -31 29.5s-12.834 31.334 -15.501 53.001s-4 48.167 -4 79.5v44c0 32.667 2 60 6 82s10.167 39.833 18.5 53.5s18.833 23.334 31.5 29.001s27.667 8.5 45 8.5
c24.667 0 41.5 -3.16699 50.5 -9.5s13.5 -10.833 13.5 -13.5s-1 -5 -3 -7c-4.66699 -5.33301 -8.16699 -10.833 -10.5 -16.5s-3.5 -12.834 -3.5 -21.501c0 -13.333 4.33301 -23.5 13 -30.5s18.667 -10.5 30 -10.5c13.333 0 24 4 32 12s12 18.333 12 31
s-4.33301 24.167 -13 34.5s-19.5 19 -32.5 26s-27.167 12.333 -42.5 16s-30 5.5 -44 5.5c-26 0 -51.333 -5.16699 -76 -15.5s-46.667 -24.666 -66 -42.999s-35 -40.5 -47 -66.5s-18 -54.667 -18 -86c0 -30.667 5.5 -58.5 16.5 -83.5s25.333 -46.5 43 -64.5
s37.834 -32.333 60.501 -43s46 -16.667 70 -18l-9 -40c7.33301 -3.33301 14.666 -8.33301 21.999 -15s11 -16.334 11 -29.001c0 -12 -4 -20.833 -12 -26.5s-17 -8.5 -27 -8.5c-7.33301 0 -14.5 1.5 -21.5 4.5s-13.167 7.83301 -18.5 14.5c-5.33301 5.33301 -9.33301 8 -12 8
c-2 0 -3 -1.33301 -3 -4s1.33301 -6.33398 4 -11.001c7.33301 -11.333 16.5 -21.166 27.5 -29.499s23.5 -12.5 37.5 -12.5c20 0 36 5.33301 48 16s18 24 18 40c0 8.66699 -1.66699 16.334 -5 23.001s-7.5 12.5 -12.5 17.5s-10.333 9 -16 12s-10.5 5.16699 -14.5 6.5z" />
    <glyph glyph-name="egrave" unicode="&#xe8;" horiz-adv-x="434" 
d="M80 639l159 -159l7 4l-80 155h-86zM393 243c-0.666992 10.667 -4.16992 25.333 -10.5029 44s-16.166 36.667 -29.499 54s-31 32.5 -53 45.5s-49 19.5 -81 19.5c-26.667 0 -51.5 -6.33301 -74.5 -19s-42.833 -29 -59.5 -49s-29.667 -42.667 -39 -68s-14 -51 -14 -77
s4.66699 -51.333 14 -76s22.333 -46.667 39 -66s36.834 -35 60.501 -47s49.5 -18 77.5 -18c22.667 0 43.334 3.16699 62.001 9.5s35.167 15 49.5 26s26.5 23.833 36.5 38.5s18 30 24 46c2 4.66699 3 9.33398 3 14.001s-2 7 -6 7c-3.33301 0 -6.33301 -3.33301 -9 -10
c-6 -14 -13.5 -28 -22.5 -42s-20 -26.333 -33 -37s-27.833 -19.334 -44.5 -26.001s-36 -10 -58 -10c-26.667 0 -48.167 10 -64.5 30s-24.5 52 -24.5 96v102h241c10.667 0 16 4.33301 16 13zM135.997 245.999v39.999c0 22 2.5 39.833 7.5 53.5s11.5 24.167 19.5 31.5
s17 12.333 27 15s20 4 30 4c16 0 29.167 -2.83301 39.5 -8.5s18.5 -13.167 24.5 -22.5s10 -19.666 12 -30.999s3 -23 3 -35c0 -31.333 -5 -47 -15 -47h-148z" />
    <glyph glyph-name="eacute" unicode="&#xe9;" horiz-adv-x="434" 
d="M285 639l-81 -155l8 -4l159 159h-86zM393 243c-0.666992 10.667 -4.16992 25.333 -10.5029 44s-16.166 36.667 -29.499 54s-31 32.5 -53 45.5s-49 19.5 -81 19.5c-26.667 0 -51.5 -6.33301 -74.5 -19s-42.833 -29 -59.5 -49s-29.667 -42.667 -39 -68s-14 -51 -14 -77
s4.66699 -51.333 14 -76s22.333 -46.667 39 -66s36.834 -35 60.501 -47s49.5 -18 77.5 -18c22.667 0 43.334 3.16699 62.001 9.5s35.167 15 49.5 26s26.5 23.833 36.5 38.5s18 30 24 46c2 4.66699 3 9.33398 3 14.001s-2 7 -6 7c-3.33301 0 -6.33301 -3.33301 -9 -10
c-6 -14 -13.5 -28 -22.5 -42s-20 -26.333 -33 -37s-27.833 -19.334 -44.5 -26.001s-36 -10 -58 -10c-26.667 0 -48.167 10 -64.5 30s-24.5 52 -24.5 96v102h241c10.667 0 16 4.33301 16 13zM135.997 245.999v39.999c0 22 2.5 39.833 7.5 53.5s11.5 24.167 19.5 31.5
s17 12.333 27 15s20 4 30 4c16 0 29.167 -2.83301 39.5 -8.5s18.5 -13.167 24.5 -22.5s10 -19.666 12 -30.999s3 -23 3 -35c0 -31.333 -5 -47 -15 -47h-148z" />
    <glyph glyph-name="ecircumflex" unicode="&#xea;" horiz-adv-x="434" 
d="M366 499l-133 133h-6l-131 -133l6 -3l128 67l129 -67zM393 243c-0.666992 10.667 -4.16992 25.333 -10.5029 44s-16.166 36.667 -29.499 54s-31 32.5 -53 45.5s-49 19.5 -81 19.5c-26.667 0 -51.5 -6.33301 -74.5 -19s-42.833 -29 -59.5 -49s-29.667 -42.667 -39 -68
s-14 -51 -14 -77s4.66699 -51.333 14 -76s22.333 -46.667 39 -66s36.834 -35 60.501 -47s49.5 -18 77.5 -18c22.667 0 43.334 3.16699 62.001 9.5s35.167 15 49.5 26s26.5 23.833 36.5 38.5s18 30 24 46c2 4.66699 3 9.33398 3 14.001s-2 7 -6 7
c-3.33301 0 -6.33301 -3.33301 -9 -10c-6 -14 -13.5 -28 -22.5 -42s-20 -26.333 -33 -37s-27.833 -19.334 -44.5 -26.001s-36 -10 -58 -10c-26.667 0 -48.167 10 -64.5 30s-24.5 52 -24.5 96v102h241c10.667 0 16 4.33301 16 13zM135.997 245.999v39.999
c0 22 2.5 39.833 7.5 53.5s11.5 24.167 19.5 31.5s17 12.333 27 15s20 4 30 4c16 0 29.167 -2.83301 39.5 -8.5s18.5 -13.167 24.5 -22.5s10 -19.666 12 -30.999s3 -23 3 -35c0 -31.333 -5 -47 -15 -47h-148z" />
    <glyph glyph-name="edieresis" unicode="&#xeb;" horiz-adv-x="434" 
d="M196 577c0 13.333 -4.5 24.5 -13.5 33.5s-20.167 13.5 -33.5 13.5s-24.5 -4.5 -33.5 -13.5s-13.5 -20.167 -13.5 -33.5s4.5 -24.5 13.5 -33.5s20.167 -13.5 33.5 -13.5s24.5 4.5 33.5 13.5s13.5 20.167 13.5 33.5zM348 577c0 13.333 -4.5 24.5 -13.5 33.5
s-20.167 13.5 -33.5 13.5s-24.5 -4.5 -33.5 -13.5s-13.5 -20.167 -13.5 -33.5s4.5 -24.5 13.5 -33.5s20.167 -13.5 33.5 -13.5s24.5 4.5 33.5 13.5s13.5 20.167 13.5 33.5zM393 243c-0.666992 10.667 -4.16992 25.333 -10.5029 44s-16.166 36.667 -29.499 54
s-31 32.5 -53 45.5s-49 19.5 -81 19.5c-26.667 0 -51.5 -6.33301 -74.5 -19s-42.833 -29 -59.5 -49s-29.667 -42.667 -39 -68s-14 -51 -14 -77s4.66699 -51.333 14 -76s22.333 -46.667 39 -66s36.834 -35 60.501 -47s49.5 -18 77.5 -18c22.667 0 43.334 3.16699 62.001 9.5
s35.167 15 49.5 26s26.5 23.833 36.5 38.5s18 30 24 46c2 4.66699 3 9.33398 3 14.001s-2 7 -6 7c-3.33301 0 -6.33301 -3.33301 -9 -10c-6 -14 -13.5 -28 -22.5 -42s-20 -26.333 -33 -37s-27.833 -19.334 -44.5 -26.001s-36 -10 -58 -10c-26.667 0 -48.167 10 -64.5 30
s-24.5 52 -24.5 96v102h241c10.667 0 16 4.33301 16 13zM135.997 245.999v39.999c0 22 2.5 39.833 7.5 53.5s11.5 24.167 19.5 31.5s17 12.333 27 15s20 4 30 4c16 0 29.167 -2.83301 39.5 -8.5s18.5 -13.167 24.5 -22.5s10 -19.666 12 -30.999s3 -23 3 -35
c0 -31.333 -5 -47 -15 -47h-148z" />
    <glyph glyph-name="igrave" unicode="&#xec;" horiz-adv-x="294" 
d="M-8 639l160 -159l7 4l-81 155h-86zM198 16v376h-161v-16h75v-360h-75v-16h236v16h-75z" />
    <glyph glyph-name="iacute" unicode="&#xed;" horiz-adv-x="294" 
d="M208 639l-81 -155l7 -4l160 159h-86zM198 16v376h-161v-16h75v-360h-75v-16h236v16h-75z" />
    <glyph glyph-name="icircumflex" unicode="&#xee;" horiz-adv-x="294" 
d="M284 499l-132 133h-7l-131 -133l6 -3l128 67l129 -67zM198 16v376h-161v-16h75v-360h-75v-16h236v16h-75z" />
    <glyph glyph-name="idieresis" unicode="&#xef;" horiz-adv-x="294" 
d="M122 577c0 13.333 -4.5 24.5 -13.5 33.5s-20.167 13.5 -33.5 13.5s-24.5 -4.5 -33.5 -13.5s-13.5 -20.167 -13.5 -33.5s4.5 -24.5 13.5 -33.5s20.167 -13.5 33.5 -13.5s24.5 4.5 33.5 13.5s13.5 20.167 13.5 33.5zM274 577c0 13.333 -4.5 24.5 -13.5 33.5
s-20.167 13.5 -33.5 13.5s-24.5 -4.5 -33.5 -13.5s-13.5 -20.167 -13.5 -33.5s4.5 -24.5 13.5 -33.5s20.167 -13.5 33.5 -13.5s24.5 4.5 33.5 13.5s13.5 20.167 13.5 33.5zM198 16v376h-161v-16h75v-360h-75v-16h236v16h-75z" />
    <glyph glyph-name="eth" unicode="&#xf0;" horiz-adv-x="447" 
d="M133 219c0 28 1.16699 52.667 3.5 74s6.83301 39.333 13.5 54s16.167 25.667 28.5 33s28.5 11 48.5 11c20.667 0 37 -3.66699 49 -11s21.333 -18.333 28 -33s11 -32.667 13 -54s3 -46 3 -74v-44c0 -30 -1.16699 -55.833 -3.5 -77.5s-6.83301 -39.5 -13.5 -53.5
s-16 -24.5 -28 -31.5s-28 -10.5 -48 -10.5s-36 3.5 -48 10.5s-21.5 17.5 -28.5 31.5s-11.667 31.833 -14 53.5s-3.5 47.5 -3.5 77.5v44zM298 391c-10.667 4.66699 -21.832 8.33301 -33.499 11s-24.167 4 -37.5 4c-30 0 -57.167 -6.66699 -81.5 -20
s-45.166 -30.333 -62.499 -51s-30.666 -43.334 -39.999 -68.001s-14 -48 -14 -70s4.66699 -45.5 14 -70.5s22.666 -47.833 39.999 -68.5s38.166 -37.834 62.499 -51.501s51.5 -20.5 81.5 -20.5s57.167 6.83301 81.5 20.5s45 30.834 62 51.501s30.167 43.5 39.5 68.5
s14 48.5 14 70.5v28c0 11.333 -0.666992 22.666 -2 33.999c-6.66699 68 -24.834 127.667 -54.501 179s-68.834 93 -117.501 125l40 59l-38 22l-41 -60c-13.333 6 -27.166 11.333 -41.499 16s-29.5 8.66699 -45.5 12l-16 -26c33.333 -10.667 60 -23 80 -37l-38 -57l38 -22
l35 52c19.333 -17.333 34.833 -37.166 46.5 -59.499s21.167 -46.166 28.5 -71.499z" />
    <glyph glyph-name="ntilde" unicode="&#xf1;" horiz-adv-x="531" 
d="M295 583c-15.333 6.66699 -31.0029 12.1689 -47.0029 16.502s-31.667 6.5 -47 6.5c-18 0 -33.333 -2.66699 -46 -8s-23 -11.833 -31 -19.5s-14 -15.834 -18 -24.501s-6 -16.334 -6 -23.001c0 -11.333 3.66699 -17 11 -17c6.66699 0 10 4.66699 10 14
c1.33301 10.667 6 19.334 14 26.001s18 10 30 10c10 0 19.833 -2.83301 29.5 -8.5s21.167 -11.167 34.5 -16.5c18 -7.33301 34.167 -12.5 48.5 -15.5s29.5 -4.5 45.5 -4.5c20.667 0 37.334 2.66699 50.001 8s22.667 11.666 30 18.999s12.333 15 15 23s4 15 4 21
c0 10 -3.33301 15 -10 15s-10.667 -4.66699 -12 -14c-0.666992 -7.33301 -3.16699 -13.833 -7.5 -19.5s-14.166 -8.5 -29.499 -8.5c-11.333 0 -22.666 2.16699 -33.999 6.5zM191.997 316.002l0.00195312 76.002h-156v-16h70v-360h-70v-16h226v16h-70v248
c0 11.333 3 23.5 9 36.5s13.833 25.167 23.5 36.5s20.667 20.666 33 27.999s25.166 11 38.499 11c19.333 0 33.5 -6 42.5 -18s13.5 -31 13.5 -57v-285h-70v-16h226v16h-70v292c0 34.667 -9.83301 58.667 -29.5 72s-44.834 20 -75.501 20c-36.667 0 -66.5 -8.33301 -89.5 -25
s-40.167 -36.334 -51.5 -59.001z" />
    <glyph glyph-name="ograve" unicode="&#xf2;" horiz-adv-x="447" 
d="M82 639l159 -159l7 4l-80 155h-86zM227 -14c30 0 57.167 6.83301 81.5 20.5s45 30.834 62 51.501s30.167 43.334 39.5 68.001s14 48 14 70s-4.66699 45.333 -14 70s-22.5 47.334 -39.5 68.001s-37.667 37.834 -62 51.501s-51.5 20.5 -81.5 20.5
s-57.167 -6.83301 -81.5 -20.5s-45.166 -30.834 -62.499 -51.501s-30.666 -43.334 -39.999 -68.001s-14 -48 -14 -70s4.66699 -45.333 14 -70s22.666 -47.334 39.999 -68.001s38.166 -37.834 62.499 -51.501s51.5 -20.5 81.5 -20.5zM133 218c0 28 1.16699 52.667 3.5 74
s6.83301 39.333 13.5 54s16.167 25.667 28.5 33s28.5 11 48.5 11s36.167 -3.66699 48.5 -11s21.666 -18.333 27.999 -33s10.666 -32.667 12.999 -54s3.5 -46 3.5 -74v-43c0 -30 -1.16699 -55.833 -3.5 -77.5s-6.66602 -39.5 -12.999 -53.5s-15.666 -24.5 -27.999 -31.5
s-28.5 -10.5 -48.5 -10.5s-36.167 3.5 -48.5 10.5s-21.833 17.5 -28.5 31.5s-11.167 31.833 -13.5 53.5s-3.5 47.5 -3.5 77.5v43z" />
    <glyph glyph-name="oacute" unicode="&#xf3;" horiz-adv-x="447" 
d="M304 639l-80 -155l7 -4l159 159h-86zM227 -14c30 0 57.167 6.83301 81.5 20.5s45 30.834 62 51.501s30.167 43.334 39.5 68.001s14 48 14 70s-4.66699 45.333 -14 70s-22.5 47.334 -39.5 68.001s-37.667 37.834 -62 51.501s-51.5 20.5 -81.5 20.5
s-57.167 -6.83301 -81.5 -20.5s-45.166 -30.834 -62.499 -51.501s-30.666 -43.334 -39.999 -68.001s-14 -48 -14 -70s4.66699 -45.333 14 -70s22.666 -47.334 39.999 -68.001s38.166 -37.834 62.499 -51.501s51.5 -20.5 81.5 -20.5zM133 218c0 28 1.16699 52.667 3.5 74
s6.83301 39.333 13.5 54s16.167 25.667 28.5 33s28.5 11 48.5 11s36.167 -3.66699 48.5 -11s21.666 -18.333 27.999 -33s10.666 -32.667 12.999 -54s3.5 -46 3.5 -74v-43c0 -30 -1.16699 -55.833 -3.5 -77.5s-6.66602 -39.5 -12.999 -53.5s-15.666 -24.5 -27.999 -31.5
s-28.5 -10.5 -48.5 -10.5s-36.167 3.5 -48.5 10.5s-21.833 17.5 -28.5 31.5s-11.167 31.833 -13.5 53.5s-3.5 47.5 -3.5 77.5v43z" />
    <glyph glyph-name="ocircumflex" unicode="&#xf4;" horiz-adv-x="447" 
d="M362 499l-132 133h-6l-132 -133l7 -3l128 67l129 -67zM227 -14c30 0 57.167 6.83301 81.5 20.5s45 30.834 62 51.501s30.167 43.334 39.5 68.001s14 48 14 70s-4.66699 45.333 -14 70s-22.5 47.334 -39.5 68.001s-37.667 37.834 -62 51.501s-51.5 20.5 -81.5 20.5
s-57.167 -6.83301 -81.5 -20.5s-45.166 -30.834 -62.499 -51.501s-30.666 -43.334 -39.999 -68.001s-14 -48 -14 -70s4.66699 -45.333 14 -70s22.666 -47.334 39.999 -68.001s38.166 -37.834 62.499 -51.501s51.5 -20.5 81.5 -20.5zM133 218c0 28 1.16699 52.667 3.5 74
s6.83301 39.333 13.5 54s16.167 25.667 28.5 33s28.5 11 48.5 11s36.167 -3.66699 48.5 -11s21.666 -18.333 27.999 -33s10.666 -32.667 12.999 -54s3.5 -46 3.5 -74v-43c0 -30 -1.16699 -55.833 -3.5 -77.5s-6.66602 -39.5 -12.999 -53.5s-15.666 -24.5 -27.999 -31.5
s-28.5 -10.5 -48.5 -10.5s-36.167 3.5 -48.5 10.5s-21.833 17.5 -28.5 31.5s-11.167 31.833 -13.5 53.5s-3.5 47.5 -3.5 77.5v43z" />
    <glyph glyph-name="otilde" unicode="&#xf5;" horiz-adv-x="447" 
d="M263 583c-15.333 6.66699 -31.0029 12.1689 -47.0029 16.502s-31.667 6.5 -47 6.5c-18 0 -33.333 -2.66699 -46 -8s-23 -11.833 -31 -19.5s-14 -15.834 -18 -24.501s-6 -16.334 -6 -23.001c0 -11.333 3.66699 -17 11 -17c6.66699 0 10 4.66699 10 14
c1.33301 10.667 6 19.334 14 26.001s18 10 30 10c10 0 19.833 -2.83301 29.5 -8.5s21.167 -11.167 34.5 -16.5c18 -7.33301 34.167 -12.5 48.5 -15.5s29.5 -4.5 45.5 -4.5c20.667 0 37.334 2.66699 50.001 8s22.667 11.666 30 18.999s12.333 15 15 23s4 15 4 21
c0 10 -3.33301 15 -10 15s-10.667 -4.66699 -12 -14c-0.666992 -7.33301 -3.16699 -13.833 -7.5 -19.5s-14.166 -8.5 -29.499 -8.5c-11.333 0 -22.666 2.16699 -33.999 6.5zM226.997 -13.998c30 0 57.167 6.83301 81.5 20.5s45 30.834 62 51.501s30.167 43.334 39.5 68.001
s14 48 14 70s-4.66699 45.333 -14 70s-22.5 47.334 -39.5 68.001s-37.667 37.834 -62 51.501s-51.5 20.5 -81.5 20.5s-57.167 -6.83301 -81.5 -20.5s-45.166 -30.834 -62.499 -51.501s-30.666 -43.334 -39.999 -68.001s-14 -48 -14 -70s4.66699 -45.333 14 -70
s22.666 -47.334 39.999 -68.001s38.166 -37.834 62.499 -51.501s51.5 -20.5 81.5 -20.5zM132.997 218.002c0 28 1.16699 52.667 3.5 74s6.83301 39.333 13.5 54s16.167 25.667 28.5 33s28.5 11 48.5 11s36.167 -3.66699 48.5 -11s21.666 -18.333 27.999 -33
s10.666 -32.667 12.999 -54s3.5 -46 3.5 -74v-43c0 -30 -1.16699 -55.833 -3.5 -77.5s-6.66602 -39.5 -12.999 -53.5s-15.666 -24.5 -27.999 -31.5s-28.5 -10.5 -48.5 -10.5s-36.167 3.5 -48.5 10.5s-21.833 17.5 -28.5 31.5s-11.167 31.833 -13.5 53.5s-3.5 47.5 -3.5 77.5
v43z" />
    <glyph glyph-name="odieresis" unicode="&#xf6;" horiz-adv-x="447" 
d="M202 577c0 13.333 -4.5 24.5 -13.5 33.5s-20.167 13.5 -33.5 13.5s-24.5 -4.5 -33.5 -13.5s-13.5 -20.167 -13.5 -33.5s4.5 -24.5 13.5 -33.5s20.167 -13.5 33.5 -13.5s24.5 4.5 33.5 13.5s13.5 20.167 13.5 33.5zM354 577c0 13.333 -4.5 24.5 -13.5 33.5
s-20.167 13.5 -33.5 13.5s-24.5 -4.5 -33.5 -13.5s-13.5 -20.167 -13.5 -33.5s4.5 -24.5 13.5 -33.5s20.167 -13.5 33.5 -13.5s24.5 4.5 33.5 13.5s13.5 20.167 13.5 33.5zM227 -14c30 0 57.167 6.83301 81.5 20.5s45 30.834 62 51.501s30.167 43.334 39.5 68.001
s14 48 14 70s-4.66699 45.333 -14 70s-22.5 47.334 -39.5 68.001s-37.667 37.834 -62 51.501s-51.5 20.5 -81.5 20.5s-57.167 -6.83301 -81.5 -20.5s-45.166 -30.834 -62.499 -51.501s-30.666 -43.334 -39.999 -68.001s-14 -48 -14 -70s4.66699 -45.333 14 -70
s22.666 -47.334 39.999 -68.001s38.166 -37.834 62.499 -51.501s51.5 -20.5 81.5 -20.5zM133 218c0 28 1.16699 52.667 3.5 74s6.83301 39.333 13.5 54s16.167 25.667 28.5 33s28.5 11 48.5 11s36.167 -3.66699 48.5 -11s21.666 -18.333 27.999 -33
s10.666 -32.667 12.999 -54s3.5 -46 3.5 -74v-43c0 -30 -1.16699 -55.833 -3.5 -77.5s-6.66602 -39.5 -12.999 -53.5s-15.666 -24.5 -27.999 -31.5s-28.5 -10.5 -48.5 -10.5s-36.167 3.5 -48.5 10.5s-21.833 17.5 -28.5 31.5s-11.167 31.833 -13.5 53.5s-3.5 47.5 -3.5 77.5
v43z" />
    <glyph glyph-name="divide" unicode="&#xf7;" horiz-adv-x="371" 
d="M322 291h-266v-53h266v53zM243 404c0 15.333 -5.16699 28.166 -15.5 38.499s-23.166 15.5 -38.499 15.5s-28.166 -5.16699 -38.499 -15.5s-15.5 -23.166 -15.5 -38.499s5.16699 -28.166 15.5 -38.499s23.166 -15.5 38.499 -15.5s28.166 5.16699 38.499 15.5
s15.5 23.166 15.5 38.499zM244 117c0 15.333 -5.16699 28.166 -15.5 38.499s-23.166 15.5 -38.499 15.5s-28.166 -5.16699 -38.499 -15.5s-15.5 -23.166 -15.5 -38.499s5.16699 -28.166 15.5 -38.499s23.166 -15.5 38.499 -15.5s28.166 5.16699 38.499 15.5
s15.5 23.166 15.5 38.499zM244 403c0 15.333 -5.16699 28.166 -15.5 38.499s-23.166 15.5 -38.499 15.5s-28.166 -5.16699 -38.499 -15.5s-15.5 -23.166 -15.5 -38.499s5.16699 -28.166 15.5 -38.499s23.166 -15.5 38.499 -15.5s28.166 5.16699 38.499 15.5
s15.5 23.166 15.5 38.499zM243 118c0 15.333 -5.16699 28.166 -15.5 38.499s-23.166 15.5 -38.499 15.5s-28.166 -5.16699 -38.499 -15.5s-15.5 -23.166 -15.5 -38.499s5.16699 -28.166 15.5 -38.499s23.166 -15.5 38.499 -15.5s28.166 5.16699 38.499 15.5
s15.5 23.166 15.5 38.499z" />
    <glyph glyph-name="oslash" unicode="&#xf8;" horiz-adv-x="449" 
d="M148 47c-6 14.667 -10 32.5 -12 53.5s-3 45.833 -3 74.5v43c0 28 1.16699 52.667 3.5 74s6.83301 39.333 13.5 54s16.167 25.667 28.5 33s28.5 11 48.5 11c22.667 0 39.667 -4.33301 51 -13zM292 365c11.333 -13.333 18.8311 -32.333 22.498 -57s5.5 -54.667 5.5 -90v-43
c0 -30 -1.16699 -55.833 -3.5 -77.5s-6.66602 -39.5 -12.999 -53.5s-15.666 -24.5 -27.999 -31.5s-28.5 -10.5 -48.5 -10.5c-31.333 0 -54 9 -68 27zM300.998 389l24.9951 63.999l-16 5l-25 -62c-9.33301 3.33301 -18.666 5.83301 -27.999 7.5s-19.333 2.5 -30 2.5
c-30 0 -57.167 -6.83301 -81.5 -20.5s-45.166 -30.834 -62.499 -51.501s-30.666 -43.334 -39.999 -68.001s-14 -48 -14 -70c0 -16 2.33301 -32.5 7 -49.5s11.5 -33.833 20.5 -50.5s20 -32.167 33 -46.5s27.833 -26.833 44.5 -37.5l-4 -10.5l-9 -23.5l-9 -23.5l-4 -10.5
l16 -5l25 65c12 -5.33301 24.5 -9.66602 37.5 -12.999s26.5 -5 40.5 -5c30 0 57.167 6.83301 81.5 20.5s45 30.834 62 51.501s30.167 43.334 39.5 68.001s14 48 14 70c0 17.333 -2.83301 35.5 -8.5 54.5s-13.667 37.167 -24 54.5s-23.166 33.333 -38.499 48
s-32.666 26.667 -51.999 36z" />
    <glyph glyph-name="ugrave" unicode="&#xf9;" horiz-adv-x="540" 
d="M102 639l159 -159l8 4l-81 155h-86zM353 75l0.00488281 -74.998h156v16h-70v376h-156v-16h70v-249c0 -10.667 -3.16699 -22.334 -9.5 -35.001s-14.833 -24.5 -25.5 -35.5s-23 -20.167 -37 -27.5s-28.333 -11 -43 -11c-23.333 0 -38.333 5.66699 -45 17
s-10 29.666 -10 54.999v302h-156v-16h70v-279c0 -21.333 2.66699 -39 8 -53s12.666 -25 21.999 -33s20.166 -13.667 32.499 -17s25.166 -5 38.499 -5c35.333 0 66.166 7.5 92.499 22.5s47.166 36.167 62.499 63.5z" />
    <glyph glyph-name="uacute" unicode="&#xfa;" horiz-adv-x="540" 
d="M320 639l-80 -155l7 -4l159 159h-86zM353 75l0.00488281 -74.998h156v16h-70v376h-156v-16h70v-249c0 -10.667 -3.16699 -22.334 -9.5 -35.001s-14.833 -24.5 -25.5 -35.5s-23 -20.167 -37 -27.5s-28.333 -11 -43 -11c-23.333 0 -38.333 5.66699 -45 17
s-10 29.666 -10 54.999v302h-156v-16h70v-279c0 -21.333 2.66699 -39 8 -53s12.666 -25 21.999 -33s20.166 -13.667 32.499 -17s25.166 -5 38.499 -5c35.333 0 66.166 7.5 92.499 22.5s47.166 36.167 62.499 63.5z" />
    <glyph glyph-name="ucircumflex" unicode="&#xfb;" horiz-adv-x="540" 
d="M387 499l-132 133h-7l-131 -133l7 -3l128 67l129 -67zM353 75l0.00488281 -74.998h156v16h-70v376h-156v-16h70v-249c0 -10.667 -3.16699 -22.334 -9.5 -35.001s-14.833 -24.5 -25.5 -35.5s-23 -20.167 -37 -27.5s-28.333 -11 -43 -11c-23.333 0 -38.333 5.66699 -45 17
s-10 29.666 -10 54.999v302h-156v-16h70v-279c0 -21.333 2.66699 -39 8 -53s12.666 -25 21.999 -33s20.166 -13.667 32.499 -17s25.166 -5 38.499 -5c35.333 0 66.166 7.5 92.499 22.5s47.166 36.167 62.499 63.5z" />
    <glyph glyph-name="udieresis" unicode="&#xfc;" horiz-adv-x="540" 
d="M234 577c0 13.333 -4.5 24.5 -13.5 33.5s-20.167 13.5 -33.5 13.5s-24.5 -4.5 -33.5 -13.5s-13.5 -20.167 -13.5 -33.5s4.5 -24.5 13.5 -33.5s20.167 -13.5 33.5 -13.5s24.5 4.5 33.5 13.5s13.5 20.167 13.5 33.5zM386 577c0 13.333 -4.5 24.5 -13.5 33.5
s-20.167 13.5 -33.5 13.5s-24.5 -4.5 -33.5 -13.5s-13.5 -20.167 -13.5 -33.5s4.5 -24.5 13.5 -33.5s20.167 -13.5 33.5 -13.5s24.5 4.5 33.5 13.5s13.5 20.167 13.5 33.5zM353 75l0.00488281 -74.998h156v16h-70v376h-156v-16h70v-249
c0 -10.667 -3.16699 -22.334 -9.5 -35.001s-14.833 -24.5 -25.5 -35.5s-23 -20.167 -37 -27.5s-28.333 -11 -43 -11c-23.333 0 -38.333 5.66699 -45 17s-10 29.666 -10 54.999v302h-156v-16h70v-279c0 -21.333 2.66699 -39 8 -53s12.666 -25 21.999 -33
s20.166 -13.667 32.499 -17s25.166 -5 38.499 -5c35.333 0 66.166 7.5 92.499 22.5s47.166 36.167 62.499 63.5z" />
    <glyph glyph-name="yacute" unicode="&#xfd;" horiz-adv-x="506" 
d="M362 648l-80 -154l7 -5l159 159h-86zM30 392v-16h66l167 -380l-58 -153c-8.66699 -22 -18.167 -38.333 -28.5 -49s-20.166 -16 -29.499 -16c-5.33301 0 -8.83301 1.33301 -10.5 4s-3.5 6 -5.5 10c-4 8.66699 -9 15.167 -15 19.5s-14 6.5 -24 6.5
c-11.333 0 -20 -3.66699 -26 -11s-9 -16 -9 -26c0 -12.667 4.16699 -22.834 12.5 -30.501s21.166 -11.5 38.499 -11.5c23.333 0 45 8.83301 65 26.5s35.667 41.834 47 72.501l206 538h66v16h-158v-16h74l-104 -272l-116 272h77v16h-235z" />
    <glyph glyph-name="thorn" unicode="&#xfe;" horiz-adv-x="518" 
d="M186 83l-0.000976562 233.002c4.66699 8 10 16.167 16 24.5s13.167 16.166 21.5 23.499s18 13.333 29 18s23.833 7 38.5 7c13.333 0 25.333 -1.83301 36 -5.5s19.834 -11.5 27.501 -23.5s13.667 -29.167 18 -51.5s6.5 -51.833 6.5 -88.5v-44
c0 -34 -2.33301 -62.167 -7 -84.5s-11 -40 -19 -53s-17 -22 -27 -27s-20.333 -7.5 -31 -7.5c-13.333 0 -25.5 2.33301 -36.5 7s-21 10.667 -30 18s-17 15.666 -24 24.999s-13.167 19 -18.5 29zM185.999 -251.998l0.000976562 303.002
c4.66699 -6.66699 10.334 -13.834 17.001 -21.501s14.667 -14.667 24 -21s19.833 -11.5 31.5 -15.5s24.834 -6 39.501 -6c26 0 50.333 6 73 18s42.5 27.833 59.5 47.5s30.5 42.167 40.5 67.5s15 51.333 15 78c0 32 -6 60.833 -18 86.5s-27.333 47.5 -46 65.5
s-39.334 31.833 -62.001 41.5s-44.334 14.5 -65.001 14.5c-16.667 0 -30.834 -2 -42.501 -6s-21.667 -8.83301 -30 -14.5s-15.333 -11.834 -21 -18.501l-15.5 -19v324h-142v-16h56v-908h-56v-16h207v16h-65z" />
    <glyph glyph-name="ydieresis" unicode="&#xff;" horiz-adv-x="506" 
d="M250 577c0 13.333 -4.5 24.5 -13.5 33.5s-20.167 13.5 -33.5 13.5s-24.5 -4.5 -33.5 -13.5s-13.5 -20.167 -13.5 -33.5s4.5 -24.5 13.5 -33.5s20.167 -13.5 33.5 -13.5s24.5 4.5 33.5 13.5s13.5 20.167 13.5 33.5zM402 577c0 13.333 -4.5 24.5 -13.5 33.5
s-20.167 13.5 -33.5 13.5s-24.5 -4.5 -33.5 -13.5s-13.5 -20.167 -13.5 -33.5s4.5 -24.5 13.5 -33.5s20.167 -13.5 33.5 -13.5s24.5 4.5 33.5 13.5s13.5 20.167 13.5 33.5zM30 392v-16h66l167 -380l-58 -153c-8.66699 -22 -18.167 -38.333 -28.5 -49
s-20.166 -16 -29.499 -16c-5.33301 0 -8.83301 1.33301 -10.5 4s-3.5 6 -5.5 10c-4 8.66699 -9 15.167 -15 19.5s-14 6.5 -24 6.5c-11.333 0 -20 -3.66699 -26 -11s-9 -16 -9 -26c0 -12.667 4.16699 -22.834 12.5 -30.501s21.166 -11.5 38.499 -11.5
c23.333 0 45 8.83301 65 26.5s35.667 41.834 47 72.501l206 538h66v16h-158v-16h74l-104 -272l-116 272h77v16h-235z" />
    <glyph glyph-name="OE" unicode="&#x152;" horiz-adv-x="968" 
d="M527 672l0.00195312 -56.0039c-25.333 21.333 -52.833 37.833 -82.5 49.5s-61.167 17.5 -94.5 17.5c-42.667 0 -82.834 -9.66699 -120.501 -29s-70.5 -45.166 -98.5 -77.499s-50.167 -69.666 -66.5 -111.999s-24.5 -86.166 -24.5 -131.499s8.16699 -89.166 24.5 -131.499
s38.5 -79.833 66.5 -112.5s60.833 -58.834 98.5 -78.501s77.834 -29.5 120.501 -29.5c33.333 0 64.833 6.16699 94.5 18.5s57.167 28.833 82.5 49.5v-49h385c11.333 0 19 2.5 23 7.5s6 13.167 6 24.5v150c0 16 -2.66699 24 -8 24c-4.66699 0 -8.33398 -7 -11.001 -21
c-5.33301 -25.333 -11 -48.333 -17 -69s-14 -38.5 -24 -53.5s-22.667 -26.5 -38 -34.5s-34.666 -12 -57.999 -12h-161v330h79c14.667 0 26.334 -2.16699 35.001 -6.5s15.5 -10.5 20.5 -18.5s8.83301 -17.667 11.5 -29s5.33398 -24 8.00098 -38c2 -9.33301 4.66699 -14 8 -14
c4 0 6 4.33301 6 13v203c0 8 -2 12 -6 12c-3.33301 0 -6 -4.66699 -8 -14c-2.66699 -14 -5.33398 -26.667 -8.00098 -38s-6.5 -21 -11.5 -29s-11.833 -14.167 -20.5 -18.5s-20.334 -6.5 -35.001 -6.5h-79v294h152c22.667 0 41.667 -5.5 57 -16.5s27.666 -24.667 36.999 -41
s16.166 -33.666 20.499 -51.999s6.83301 -34.833 7.5 -49.5c0 -9.33301 2.66699 -14 8 -14c4.66699 0 7 4.33301 7 13v152c0 16 -8.33301 24 -25 24h-361zM350.002 664.996c30 0 56.668 -4.66699 80.001 -14s42.833 -25 58.5 -47s27.667 -51 36 -87s12.5 -80.667 12.5 -134
v-100c0 -96.667 -15.833 -168.167 -47.5 -214.5s-77.834 -69.5 -138.501 -69.5c-62 0 -108.833 23.167 -140.5 69.5s-47.5 117.833 -47.5 214.5v100c0 52 4.16699 95.833 12.5 131.5s20.333 64.667 36 87s35.167 38.5 58.5 48.5s50 15 80 15z" />
    <glyph glyph-name="oe" unicode="&#x153;" horiz-adv-x="708" 
d="M509 406c-28 0 -53.6699 -6.83203 -77.0029 -20.499s-43.666 -31.167 -60.999 -52.5c-17.333 21.333 -38.166 38.833 -62.499 52.5s-51.5 20.5 -81.5 20.5s-57.167 -6.66699 -81.5 -20s-45.166 -30.333 -62.499 -51s-30.666 -43.334 -39.999 -68.001s-14 -48 -14 -70
s4.66699 -45.5 14 -70.5s22.666 -47.833 39.999 -68.5s38.166 -37.834 62.499 -51.501s51.5 -20.5 81.5 -20.5s57 6.83301 81 20.5s44.667 30.5 62 50.5c17.333 -21.333 38 -38.5 62 -51.5s51 -19.5 81 -19.5c22.667 0 43.167 3.16699 61.5 9.5s34.833 15 49.5 26
s27 23.833 37 38.5s18 30 24 46c2 4.66699 3 9.33398 3 14.001s-2 7 -6 7c-3.33301 0 -6.33301 -3.33301 -9 -10c-6 -14 -13.5 -28 -22.5 -42s-19.833 -26.333 -32.5 -37s-27.5 -19.334 -44.5 -26.001s-36.5 -10 -58.5 -10c-26.667 0 -48.167 10 -64.5 30s-24.5 52 -24.5 96
v102h241c12 0 17.333 4.33301 16 13c-0.666992 10.667 -4.16699 25.334 -10.5 44.001s-16.166 36.667 -29.499 54s-31 32.5 -53 45.5s-49 19.5 -81 19.5zM132.997 218.001c0 28 1.16699 52.666 3.5 73.999s6.83301 39.333 13.5 54s16.167 25.667 28.5 33s28.5 11 48.5 11
c20.667 0 37 -3.83301 49 -11.5s21.333 -18.667 28 -33s11 -32.166 13 -53.499s3 -46 3 -74v-43c0 -30 -1.16699 -55.833 -3.5 -77.5s-6.83301 -39.5 -13.5 -53.5s-16 -24.5 -28 -31.5s-28 -10.5 -48 -10.5s-36 3.5 -48 10.5s-21.5 17.5 -28.5 31.5s-11.667 31.833 -14 53.5
s-3.5 47.5 -3.5 77.5v43zM425.997 246v39.999c0 22 2.5 39.833 7.5 53.5s11.5 24.167 19.5 31.5s17 12.333 27 15s20 4 30 4c16 0 29.167 -2.83301 39.5 -8.5s18.5 -13.167 24.5 -22.5s10 -19.666 12 -30.999s3 -23 3 -35c0 -31.333 -5 -47 -15 -47h-148z" />
    <glyph glyph-name="Scaron" unicode="&#x160;" horiz-adv-x="542" 
d="M281 699l133 133l-7 4l-129 -68l-128 68l-6 -4l131 -133h6zM451 679l-28.999 -37.0039c-12 6.66699 -23.333 12.667 -34 18s-21.5 9.66602 -32.5 12.999s-22.667 5.83301 -35 7.5s-26.5 2.5 -42.5 2.5c-32.667 0 -61.834 -5.33301 -87.501 -16s-47.5 -25 -65.5 -43
s-31.667 -38.667 -41 -62s-14 -48 -14 -74c0 -35.333 10.833 -67.666 32.5 -96.999s55.5 -51.666 101.5 -66.999c22 -7.33301 40.667 -13.333 56 -18l43 -13.5c13.333 -4.33301 26.833 -9 40.5 -14s29.5 -11.833 47.5 -20.5c22.667 -10.667 38 -25.5 46 -44.5
s12 -38.167 12 -57.5c0 -24 -4.66699 -45.833 -14 -65.5s-21.666 -36.167 -36.999 -49.5s-33 -23.666 -53 -30.999s-40.333 -11 -61 -11c-24 0 -47 4.16699 -69 12.5s-42.333 20.166 -61 35.499s-34.834 34.333 -48.501 57s-24.167 48 -31.5 76
c-2 8.66699 -5.66699 13 -11 13c-4.66699 0 -7 -4.66699 -7 -14v-179c0 -8.66699 3 -13 9 -13c4 0 8.33301 3.33301 13 10l36 52c8 -7.33301 17.833 -15 29.5 -23s24.667 -15.333 39 -22s29.666 -12.167 45.999 -16.5s33.166 -6.5 50.499 -6.5c32 0 61.667 5.83301 89 17.5
s51 27.834 71 48.501s35.833 45.167 47.5 73.5s17.5 58.833 17.5 91.5c0 44.667 -10.5 82.5 -31.5 113.5s-54.167 53.167 -99.5 66.5c-15.333 4.66699 -29.666 8.66699 -42.999 12s-27 7 -41 11s-28.667 8.5 -44 13.5s-32.333 11.167 -51 18.5
c-20.667 8 -36.334 20.333 -47.001 37s-16 36 -16 58c0 20.667 4.33301 38.834 13 54.501s19.834 28.5 33.501 38.5s29.334 17.5 47.001 22.5s35.5 7.5 53.5 7.5c27.333 0 51.333 -4.66699 72 -14s38 -21.666 52 -36.999s25.167 -33 33.5 -53s13.833 -40.667 16.5 -62
c0.666992 -6.66699 3.66699 -10 9 -10c4.66699 0 7 3.33301 7 10v178c0 6.66699 -2 10 -6 10c-3.33301 0 -7 -2.66699 -11 -8z" />
    <glyph glyph-name="scaron" unicode="&#x161;" horiz-adv-x="356" 
d="M284 401l-23.002 -22.9951c-20.667 18.667 -46 28 -76 28c-21.333 0 -40.333 -3.5 -57 -10.5s-30.5 -16.5 -41.5 -28.5s-19.333 -25.667 -25 -41s-8.5 -31 -8.5 -47c0 -24.667 7.16699 -46.334 21.5 -65.001s35.833 -31.334 64.5 -38.001l29 -6.5
c10.667 -2.33301 21.5 -5 32.5 -8s21.667 -6.33301 32 -10s19.5 -7.83398 27.5 -12.501c13.333 -7.33301 22.5 -16 27.5 -26s7.5 -20.333 7.5 -31c0 -14 -3.5 -26.167 -10.5 -36.5s-15.833 -18.666 -26.5 -24.999s-22 -11 -34 -14s-23.333 -4.5 -34 -4.5
c-30.667 0 -57.667 8.5 -81 25.5s-39.666 43.167 -48.999 78.5c-2 6 -4.66699 9 -8 9c-4 0 -6 -2.66699 -6 -8v-107c0 -5.33301 2 -8 6 -8c2.66699 0 5 1.66699 7 5l21 31c12 -12.667 27.167 -22.834 45.5 -30.501s40.833 -11.5 67.5 -11.5c22 0 41.333 3.5 58 10.5
s30.834 16.667 42.501 29s20.5 26.666 26.5 42.999s9 34.166 9 53.499c0 25.333 -6.33301 49.333 -19 72s-36.667 40 -72 52c-6 2 -13.667 4.16699 -23 6.5l-29.5 7.5l-31 8c-10.333 2.66699 -18.833 5 -25.5 7c-13.333 4.66699 -22.833 10.5 -28.5 17.5
s-8.5 16.833 -8.5 29.5c0 17.333 8.33301 33 25 47s37.667 21 63 21c16 0 30.167 -3 42.5 -9s22.666 -13.667 30.999 -23s15 -19.833 20 -31.5s8.5 -23.167 10.5 -34.5c0.666992 -4 2.66699 -6 6 -6c2.66699 0 4 2 4 6v107c0 4.66699 -1 7 -3 7
c-1.33301 0 -3.66602 -1.66699 -6.99902 -5zM181.998 479.005h6l132 133l-6 3l-129 -67l-128 67l-7 -3z" />
    <glyph glyph-name="Ydieresis" unicode="&#x178;" horiz-adv-x="662" 
d="M330 781c0 13.333 -4.5 24.5 -13.5 33.5s-20.167 13.5 -33.5 13.5s-24.5 -4.5 -33.5 -13.5s-13.5 -20.167 -13.5 -33.5s4.5 -24.5 13.5 -33.5s20.167 -13.5 33.5 -13.5s24.5 4.5 33.5 13.5s13.5 20.167 13.5 33.5zM482 781c0 13.333 -4.5 24.5 -13.5 33.5
s-20.167 13.5 -33.5 13.5s-24.5 -4.5 -33.5 -13.5s-13.5 -20.167 -13.5 -33.5s4.5 -24.5 13.5 -33.5s20.167 -13.5 33.5 -13.5s24.5 4.5 33.5 13.5s13.5 20.167 13.5 33.5zM311 672h-279v-16h80l194 -326v-314h-96v-16h289v16h-96v340l165 300h81v16h-204v-16h97l-155 -282
l-168 282h92v16z" />
    <glyph glyph-name="florin" unicode="&#x192;" horiz-adv-x="628" 
d="M542 465h-465v-465h465v465z" />
    <glyph glyph-name="circumflex" unicode="&#x2c6;" horiz-adv-x="328" 
d="M303 499l-132 133h-6l-132 -133l7 -3l128 67l129 -67z" />
    <glyph glyph-name="tilde" unicode="&#x2dc;" horiz-adv-x="451" 
d="M273 583c-15.333 6.66699 -31.0029 12.1689 -47.0029 16.502s-31.667 6.5 -47 6.5c-18 0 -33.333 -2.66699 -46 -8s-23 -11.833 -31 -19.5s-14 -15.834 -18 -24.501s-6 -16.334 -6 -23.001c0 -11.333 3.66699 -17 11 -17c6.66699 0 10 4.66699 10 14
c1.33301 10.667 6 19.334 14 26.001s18 10 30 10c10 0 19.833 -2.83301 29.5 -8.5s21.167 -11.167 34.5 -16.5c18 -7.33301 34.167 -12.5 48.5 -15.5s29.5 -4.5 45.5 -4.5c20.667 0 37.334 2.66699 50.001 8s22.667 11.666 30 18.999s12.333 15 15 23s4 15 4 21
c0 10 -3.33301 15 -10 15s-10.667 -4.66699 -12 -14c-0.666992 -7.33301 -3.16699 -13.833 -7.5 -19.5s-14.166 -8.5 -29.499 -8.5c-11.333 0 -22.666 2.16699 -33.999 6.5z" />
    <glyph glyph-name="endash" unicode="&#x2013;" horiz-adv-x="360" 
d="M322 298h-276v-54h276v54z" />
    <glyph glyph-name="emdash" unicode="&#x2014;" horiz-adv-x="694" 
d="M644 298h-592v-54h592v54z" />
    <glyph glyph-name="quoteleft" unicode="&#x2018;" horiz-adv-x="253" 
d="M54 564c0 -20.667 6.83301 -37.5 20.5 -50.5s30.167 -19.5 49.5 -19.5s35 5.16699 47 15.5s18 24.166 18 41.499c0 16.667 -5.33301 29.5 -16 38.5s-24 13.5 -40 13.5c-10.667 0 -20.334 -3 -29.001 -9s-13.667 -14.667 -15 -26c0 -6 -1 -9 -3 -9c-6 0 -9 8 -9 24
c0 8.66699 1.83301 18.5 5.5 29.5s9.33398 22.167 17.001 33.5s17.5 22 29.5 32s26.333 18.667 43 26c3.33301 1.33301 5 3 5 5s-1.66699 3 -5 3c-1.33301 0 -3.33301 -0.666992 -6 -2c-20 -8 -37.167 -17.667 -51.5 -29s-26 -23.666 -35 -36.999s-15.5 -27 -19.5 -41
s-6 -27 -6 -39z" />
    <glyph glyph-name="quoteright" unicode="&#x2019;" horiz-adv-x="237" 
d="M202 630c0 20.667 -6.83301 37.499 -20.5 50.499s-30.167 19.5 -49.5 19.5s-35 -5.16699 -47 -15.5s-18 -24.166 -18 -41.499c0 -16.667 5.33301 -29.5 16 -38.5s24 -13.5 40 -13.5c10.667 0 20.334 3 29.001 9s13.667 14.667 15 26c0 6 1 9 3 9c6 0 9 -8 9 -24
c0 -8.66699 -1.83301 -18.5 -5.5 -29.5s-9.33398 -22.167 -17.001 -33.5s-17.5 -22.166 -29.5 -32.499s-26.333 -18.833 -43 -25.5c-3.33301 -2 -5 -3.66699 -5 -5c0 -2 1.66699 -3 5 -3c1.33301 0 3.33301 0.666992 6 2c20 8 37 17.667 51 29s25.5 23.666 34.5 36.999
s15.667 27 20 41s6.5 27 6.5 39z" />
    <glyph glyph-name="quotesinglbase" unicode="&#x201a;" horiz-adv-x="235" 
d="M202 92c0 20.667 -6.83301 37.499 -20.5 50.499s-30.167 19.5 -49.5 19.5s-35 -5.16699 -47 -15.5s-18 -24.166 -18 -41.499c0 -16.667 5.33301 -29.5 16 -38.5s24 -13.5 40 -13.5c10.667 0 20.334 3 29.001 9s13.667 14.667 15 26c0 6 1 9 3 9c6 0 9 -8 9 -24
c0 -8.66699 -1.83301 -18.5 -5.5 -29.5s-9.33398 -22.167 -17.001 -33.5s-17.5 -22.166 -29.5 -32.499s-26.333 -18.833 -43 -25.5c-3.33301 -2 -5 -3.66699 -5 -5c0 -2 1.66699 -3 5 -3c1.33301 0 3.33301 0.666992 6 2c20 8 37 17.667 51 29s25.5 23.666 34.5 36.999
s15.667 27 20 41s6.5 27 6.5 39z" />
    <glyph glyph-name="quotedblleft" unicode="&#x201c;" horiz-adv-x="446" 
d="M62 563c0 -20.667 6.83301 -37.5 20.5 -50.5s30.167 -19.5 49.5 -19.5s35 5.16699 47 15.5s18 24.166 18 41.499c0 16.667 -5.33301 29.5 -16 38.5s-24 13.5 -40 13.5c-10.667 0 -20.334 -3 -29.001 -9s-13.667 -14.667 -15 -26c0 -6 -1 -9 -3 -9c-6 0 -9 8 -9 24
c0 8.66699 1.83301 18.5 5.5 29.5s9.33398 22.167 17.001 33.5s17.5 22 29.5 32s26.333 18.667 43 26c3.33301 1.33301 5 3 5 5s-1.66699 3 -5 3c-1.33301 0 -3.33301 -0.666992 -6 -2c-20 -8 -37.167 -17.667 -51.5 -29s-26 -23.666 -35 -36.999s-15.5 -27 -19.5 -41
s-6 -27 -6 -39zM242 563c0 -20.667 6.83301 -37.5 20.5 -50.5s30.167 -19.5 49.5 -19.5s35 5.16699 47 15.5s18 24.166 18 41.499c0 16.667 -5.33301 29.5 -16 38.5s-24 13.5 -40 13.5c-10.667 0 -20.334 -3 -29.001 -9s-13.667 -14.667 -15 -26c0 -6 -1 -9 -3 -9
c-6 0 -9 8 -9 24c0 8.66699 1.83301 18.5 5.5 29.5s9.33398 22.167 17.001 33.5s17.5 22 29.5 32s26.333 18.667 43 26c3.33301 1.33301 5 3 5 5s-1.66699 3 -5 3c-1.33301 0 -3.33301 -0.666992 -6 -2c-20 -8 -37.167 -17.667 -51.5 -29s-26 -23.666 -35 -36.999
s-15.5 -27 -19.5 -41s-6 -27 -6 -39z" />
    <glyph glyph-name="quotedblright" unicode="&#x201d;" horiz-adv-x="453" 
d="M394 630c0 20.667 -6.83301 37.499 -20.5 50.499s-30.167 19.5 -49.5 19.5s-35 -5.16699 -47 -15.5s-18 -24.166 -18 -41.499c0 -16.667 5.33301 -29.5 16 -38.5s24 -13.5 40 -13.5c10.667 0 20.334 3 29.001 9s13.667 14.667 15 26c0 6 1 9 3 9c6 0 9 -8 9 -24
c0 -8.66699 -1.83301 -18.5 -5.5 -29.5s-9.33398 -22.167 -17.001 -33.5s-17.5 -22.166 -29.5 -32.499s-26.333 -18.833 -43 -25.5c-3.33301 -2 -5 -3.66699 -5 -5c0 -2 1.66699 -3 5 -3c1.33301 0 3.33301 0.666992 6 2c20 8 37 17.667 51 29s25.5 23.666 34.5 36.999
s15.667 27 20 41s6.5 27 6.5 39zM214 629.999c0 20.667 -6.83301 37.499 -20.5 50.499s-30.167 19.5 -49.5 19.5s-35 -5.16699 -47 -15.5s-18 -24.166 -18 -41.499c0 -16.667 5.33301 -29.5 16 -38.5s24 -13.5 40 -13.5c10.667 0 20.334 3 29.001 9s13.667 14.667 15 26
c0 6 1 9 3 9c6 0 9 -8 9 -24c0 -8.66699 -1.83301 -18.5 -5.5 -29.5s-9.33398 -22.167 -17.001 -33.5s-17.5 -22.166 -29.5 -32.499s-26.333 -18.833 -43 -25.5c-3.33301 -2 -5 -3.66699 -5 -5c0 -2 1.66699 -3 5 -3c1.33301 0 3.33301 0.666992 6 2c20 8 37 17.667 51 29
s25.5 23.666 34.5 36.999s15.667 27 20 41s6.5 27 6.5 39z" />
    <glyph glyph-name="quotedblbase" unicode="&#x201e;" horiz-adv-x="453" 
d="M396 92c0 20.667 -6.83301 37.499 -20.5 50.499s-30.167 19.5 -49.5 19.5s-35 -5.16699 -47 -15.5s-18 -24.166 -18 -41.499c0 -16.667 5.33301 -29.5 16 -38.5s24 -13.5 40 -13.5c10.667 0 20.334 3 29.001 9s13.667 14.667 15 26c0 6 1 9 3 9c6 0 9 -8 9 -24
c0 -8.66699 -1.83301 -18.5 -5.5 -29.5s-9.33398 -22.167 -17.001 -33.5s-17.5 -22.166 -29.5 -32.499s-26.333 -18.833 -43 -25.5c-3.33301 -2 -5 -3.66699 -5 -5c0 -2 1.66699 -3 5 -3c1.33301 0 3.33301 0.666992 6 2c20 8 37 17.667 51 29s25.5 23.666 34.5 36.999
s15.667 27 20 41s6.5 27 6.5 39zM216 91.999c0 20.667 -6.83301 37.499 -20.5 50.499s-30.167 19.5 -49.5 19.5s-35 -5.16699 -47 -15.5s-18 -24.166 -18 -41.499c0 -16.667 5.33301 -29.5 16 -38.5s24 -13.5 40 -13.5c10.667 0 20.334 3 29.001 9s13.667 14.667 15 26
c0 6 1 9 3 9c6 0 9 -8 9 -24c0 -8.66699 -1.83301 -18.5 -5.5 -29.5s-9.33398 -22.167 -17.001 -33.5s-17.5 -22.166 -29.5 -32.499s-26.333 -18.833 -43 -25.5c-3.33301 -2 -5 -3.66699 -5 -5c0 -2 1.66699 -3 5 -3c1.33301 0 3.33301 0.666992 6 2c20 8 37 17.667 51 29
s25.5 23.666 34.5 36.999s15.667 27 20 41s6.5 27 6.5 39z" />
    <glyph glyph-name="dagger" unicode="&#x2020;" horiz-adv-x="263" 
d="M146 472l0.00195312 72c0 6 1 11.833 3 17.5l6 16.5l6 16c2 5.33301 3 11.333 3 18c0 5.33301 -0.666992 10.666 -2 15.999s-3 11.333 -5 18c-2.66699 8 -4.83398 15.333 -6.50098 22s-3.5 15.334 -5.5 26.001c-3.33301 16 -7.33301 24 -12 24
c-5.33301 0 -9.33301 -8 -12 -24c-2 -10.667 -3.83301 -19.334 -5.5 -26.001s-3.83398 -14 -6.50098 -22c-2 -6.66699 -3.66699 -12.667 -5 -18s-2 -10.666 -2 -15.999c0 -6.66699 1 -12.667 3 -18l6 -16l6 -16.5c2 -5.66699 3 -11.5 3 -17.5v-72h-64v-26h64v-377h26v377h65
v26h-65z" />
    <glyph glyph-name="daggerdbl" unicode="&#x2021;" horiz-adv-x="263" 
d="M145 210v236h65v26h-65v72c0 6 1 11.833 3 17.5l6 16.5l6 16c2 5.33301 3 11.333 3 18c0 5.33301 -0.666992 10.666 -2 15.999s-3 11.333 -5 18c-2.66699 8 -4.83398 15.333 -6.50098 22s-3.5 15.334 -5.5 26.001c-3.33301 16 -7.33301 24 -12 24
c-5.33301 0 -9.33301 -8 -12 -24c-2 -10.667 -3.83301 -19.334 -5.5 -26.001s-3.83398 -14 -6.50098 -22c-2 -6.66699 -3.66699 -12.667 -5 -18s-2 -10.666 -2 -15.999c0 -6.66699 1 -12.667 3 -18l6 -16l6 -16.5c2 -5.66699 3 -11.5 3 -17.5v-72h-64v-26h64v-236h-64v-26
h64v-72c0 -6 -1 -11.833 -3 -17.5l-6 -16.5l-6 -16c-2 -5.33301 -3 -11.333 -3 -18c0 -5.33301 0.666992 -10.666 2 -15.999s3 -11.333 5 -18c2.66699 -8 4.83398 -15.333 6.50098 -22s3.5 -15.334 5.5 -26.001c2.66699 -16 6.66699 -24 12 -24c4.66699 0 8.66699 8 12 24
c2 10.667 3.83301 19.334 5.5 26.001s3.83398 14 6.50098 22c2 6.66699 3.66699 12.667 5 18s2 10.666 2 15.999c0 6.66699 -1 12.667 -3 18l-6 16l-6 16.5c-2 5.66699 -3 11.5 -3 17.5v72h65v26h-65z" />
    <glyph glyph-name="bullet" unicode="&#x2022;" horiz-adv-x="457" 
d="M389 236c0 22 -4.33301 42.833 -13 62.5s-20.334 36.834 -35.001 51.501s-31.834 26.334 -51.501 35.001s-40.5 13 -62.5 13s-42.833 -4.33301 -62.5 -13s-36.834 -20.334 -51.501 -35.001s-26.334 -31.834 -35.001 -51.501s-13 -40.5 -13 -62.5
s4.33301 -42.833 13 -62.5s20.334 -36.834 35.001 -51.501s31.834 -26.334 51.501 -35.001s40.5 -13 62.5 -13s42.833 4.33301 62.5 13s36.834 20.334 51.501 35.001s26.334 31.834 35.001 51.501s13 40.5 13 62.5z" />
    <glyph glyph-name="ellipsis" unicode="&#x2026;" horiz-adv-x="803" 
d="M219 50c0 15.333 -5.16699 28.166 -15.5 38.499s-23.166 15.5 -38.499 15.5s-28.166 -5.16699 -38.499 -15.5s-15.5 -23.166 -15.5 -38.499s5.16699 -28.166 15.5 -38.499s23.166 -15.5 38.499 -15.5s28.166 5.16699 38.499 15.5s15.5 23.166 15.5 38.499zM457 50
c0 15.333 -5.16699 28.166 -15.5 38.499s-23.166 15.5 -38.499 15.5s-28.166 -5.16699 -38.499 -15.5s-15.5 -23.166 -15.5 -38.499s5.16699 -28.166 15.5 -38.499s23.166 -15.5 38.499 -15.5s28.166 5.16699 38.499 15.5s15.5 23.166 15.5 38.499zM695 50
c0 15.333 -5.16699 28.166 -15.5 38.499s-23.166 15.5 -38.499 15.5s-28.166 -5.16699 -38.499 -15.5s-15.5 -23.166 -15.5 -38.499s5.16699 -28.166 15.5 -38.499s23.166 -15.5 38.499 -15.5s28.166 5.16699 38.499 15.5s15.5 23.166 15.5 38.499z" />
    <glyph glyph-name="perthousand" unicode="&#x2030;" horiz-adv-x="1105" 
d="M166 -4l445 687h-35l-445 -687h35zM34 491c0 -24 3.49902 -47.668 10.499 -71.001s17.333 -44.166 31 -62.499s30.834 -33.166 51.501 -44.499s45 -17 73 -17c26.667 0 49.834 5.5 69.501 16.5s36 25.667 49 44s22.667 39.166 29 62.499s9.5 47.333 9.5 72
c0 24 -3.33301 47.5 -10 70.5s-16.667 43.5 -30 61.5s-30 32.5 -50 43.5s-43.667 16.5 -71 16.5s-51 -5.5 -71 -16.5s-36.833 -25.5 -50.5 -43.5s-23.834 -38.5 -30.501 -61.5s-10 -46.5 -10 -70.5zM117.999 502.999c0 22 0.500977 43 1.50098 63s4 37.667 9 53
s12.667 27.666 23 36.999s25.166 14 44.499 14c18.667 0 33.167 -4.5 43.5 -13.5s18 -21.167 23 -36.5s8 -33.166 9 -53.499s1.5 -41.5 1.5 -63.5v-24c0 -24 -0.5 -46.333 -1.5 -67s-3.83301 -38.667 -8.5 -54s-12 -27.333 -22 -36s-23.667 -13 -41 -13
c-20 0 -35.667 4.66699 -47 14s-19.5 21.666 -24.5 36.999s-8 33.333 -9 54s-1.5 42.334 -1.5 65.001v24zM387 183.999c0 -24 3.49902 -47.668 10.499 -71.001s17.333 -44.166 31 -62.499s30.834 -33.166 51.501 -44.499s45 -17 73 -17c26.667 0 49.834 5.5 69.501 16.5
s36 25.667 49 44s22.667 39.166 29 62.499s9.5 47.333 9.5 72c0 24 -3.33301 47.5 -10 70.5s-16.667 43.5 -30 61.5s-30 32.5 -50 43.5s-43.667 16.5 -71 16.5s-51 -5.5 -71 -16.5s-36.833 -25.5 -50.5 -43.5s-23.834 -38.5 -30.501 -61.5s-10 -46.5 -10 -70.5z
M470.999 195.998c0 22 0.500977 43 1.50098 63s4 37.667 9 53s12.667 27.666 23 36.999s25.166 14 44.499 14c18.667 0 33.167 -4.5 43.5 -13.5s18 -21.167 23 -36.5s8 -33.166 9 -53.499s1.5 -41.5 1.5 -63.5v-24c0 -24 -0.5 -46.333 -1.5 -67s-3.83301 -38.667 -8.5 -54
s-12 -27.333 -22 -36s-23.667 -13 -41 -13c-20 0 -35.667 4.66699 -47 14s-19.5 21.666 -24.5 36.999s-8 33.333 -9 54s-1.5 42.334 -1.5 65.001v24zM737 183.998c0 -24 3.49902 -47.668 10.499 -71.001s17.333 -44.166 31 -62.499s30.834 -33.166 51.501 -44.499
s45 -17 73 -17c26.667 0 49.834 5.5 69.501 16.5s36 25.667 49 44s22.667 39.166 29 62.499s9.5 47.333 9.5 72c0 24 -3.33301 47.5 -10 70.5s-16.667 43.5 -30 61.5s-30 32.5 -50 43.5s-43.667 16.5 -71 16.5s-51 -5.5 -71 -16.5s-36.833 -25.5 -50.5 -43.5
s-23.834 -38.5 -30.501 -61.5s-10 -46.5 -10 -70.5zM820.999 195.997c0 22 0.500977 43 1.50098 63s4 37.667 9 53s12.667 27.666 23 36.999s25.166 14 44.499 14c18.667 0 33.167 -4.5 43.5 -13.5s18 -21.167 23 -36.5s8 -33.166 9 -53.499s1.5 -41.5 1.5 -63.5v-24
c0 -24 -0.5 -46.333 -1.5 -67s-3.83301 -38.667 -8.5 -54s-12 -27.333 -22 -36s-23.667 -13 -41 -13c-20 0 -35.667 4.66699 -47 14s-19.5 21.666 -24.5 36.999s-8 33.333 -9 54s-1.5 42.334 -1.5 65.001v24z" />
    <glyph glyph-name="guilsinglleft" unicode="&#x2039;" horiz-adv-x="263" 
d="M204 425l-169 -156l169 -156h18l-122 156l122 156h-18z" />
    <glyph glyph-name="guilsinglright" unicode="&#x203a;" horiz-adv-x="263" 
d="M43 113h17l169 156l-169 156h-17l122 -156z" />
    <glyph glyph-name="trademark" unicode="&#x2122;" horiz-adv-x="495" 
d="M138 491v172h26c19.333 0 30.333 -10.333 33 -31h8l-3 40h-159l-4 -40h8c2.66699 20.667 13.667 31 33 31h26v-172h-26v-8h86v8h-28zM235 491v-8h66v8h-28v149l59 -157h6l54 168v-160h-27v-8h84v8h-26v172h26v9h-59l-47 -143l-54 143h-54v-9h28v-172h-28z" />
    <glyph glyph-name="NUL" unicode="&#xe000;" horiz-adv-x="0" 
 />
    <glyph glyph-name="HT" unicode="&#xe001;" horiz-adv-x="0" 
 />
    <glyph glyph-name="nonmarkingreturn" unicode="&#xe002;" horiz-adv-x="0" 
 />
    <glyph glyph-name="minus" unicode="&#xe003;" horiz-adv-x="455" 
d="M400 298h-344v-54h344v54z" />
    <glyph glyph-name="notequal" unicode="&#xe004;" horiz-adv-x="392" 
d="M343 229h-137l34 81h103v53h-80l35 83h-48l-36 -83h-153v-53h131l-35 -81h-96v-54h74l-36 -84h49l36 84h159v54z" />
    <glyph glyph-name="infinity" unicode="&#xe005;" horiz-adv-x="899" 
d="M425 303l-42.998 -41.501c-17.333 -16.333 -36 -31.833 -56 -46.5s-40.5 -27.167 -61.5 -37.5s-40.833 -15.5 -59.5 -15.5c-16 0 -29.5 4.16699 -40.5 12.5s-19.833 19.333 -26.5 33s-11.5 29.167 -14.5 46.5s-4.5 35.333 -4.5 54c0 16.667 2 33.667 6 51
s10.167 33 18.5 47s18.666 25.5 30.999 34.5s27.166 13.5 44.499 13.5c18 0 37 -5.16699 57 -15.5s39.167 -23.166 57.5 -38.499s35.5 -31.833 51.5 -49.5s29.333 -33.5 40 -47.5zM483.002 307.999l46.499 43.499c17.667 16.333 36.334 31.666 56.001 45.999
s39.5 26.333 59.5 36s39 14.5 57 14.5c16.667 0 30.5 -4.16699 41.5 -12.5s19.833 -19.166 26.5 -32.499s11.5 -28.833 14.5 -46.5s4.5 -35.5 4.5 -53.5c0 -17.333 -2 -34.666 -6 -51.999s-10.167 -33 -18.5 -47s-18.833 -25.333 -31.5 -34s-27.667 -13 -45 -13
c-18 0 -36.833 5.16699 -56.5 15.5s-38.667 23.333 -57 39s-35.5 32.167 -51.5 49.5s-29.333 33 -40 47zM700.001 479.998c-22 0 -44.3369 -4.83496 -67.0039 -14.502s-44.834 -21.5 -66.501 -35.5s-42 -29 -61 -45l-49.5 -43l-51 53
c-16 16.667 -33.167 31.334 -51.5 44.001s-38.666 22.667 -60.999 30s-48.5 11 -78.5 11c-23.333 0 -44.666 -4.83301 -63.999 -14.5s-36 -22.5 -50 -38.5s-25 -34.667 -33 -56s-12 -43.666 -12 -66.999c0 -22 3.66699 -43.5 11 -64.5s17.833 -39.5 31.5 -55.5
s29.834 -28.833 48.501 -38.5s39.334 -14.5 62.001 -14.5c22 0 44.667 5 68 15s45.666 22.167 66.999 36.5s41.5 29.5 60.5 45.5l49.5 42c12.667 -15.333 27.5 -31.333 44.5 -48s35.5 -31.667 55.5 -45s41.833 -24.333 65.5 -33s48.834 -13 75.501 -13
c22.667 0 43.834 4.83301 63.501 14.5s36.5 22.5 50.5 38.5s25 34.5 33 55.5s12 43.167 12 66.5c0 22.667 -3.83301 44.5 -11.5 65.5s-18.167 39.5 -31.5 55.5s-29.5 28.833 -48.5 38.5s-39.5 14.5 -61.5 14.5z" />
    <glyph glyph-name="lessequal" unicode="&#xe006;" horiz-adv-x="419" 
d="M361 185h-277v-48h277v48zM343 558l-263 -161l263 -161v55l-177 106l177 107v54z" />
    <glyph glyph-name="greaterequal" unicode="&#xe007;" horiz-adv-x="398" 
d="M61 185v-48h277v48h-277zM79 558v-54l177 -107l-177 -106v-55l263 161z" />
    <glyph glyph-name="partialdiff" unicode="&#xe008;" 
d="M57 362v-21h291v21h-291zM228 698l-4 3l-89 -11v-9l47 5v-275h-45v-10h136v10h-45v287zM127 249c0 -9.33301 2.49902 -16.3311 7.49902 -20.998s11.167 -7 18.5 -7c8 0 14.5 2.16699 19.5 6.5s7.5 10.166 7.5 17.499s-1.66699 13 -5 17s-7.66602 6.66699 -12.999 8
c-2.66699 0.666992 -4 2 -4 4s1 3.66699 3 5c4 3.33301 10 5.83301 18 7.5s16.333 2.5 25 2.5c12 0 21.333 -1.83301 28 -5.5s11.834 -8.33398 15.501 -14.001s6 -12 7 -19s1.5 -13.833 1.5 -20.5c0 -24.667 -6 -42.334 -18 -53.001s-27 -16 -45 -16
c-4.66699 0 -10 0.333008 -16 1s-11 1 -15 1c-6.66699 0 -10 -2.33301 -10 -7c0 -4 3.33301 -6 10 -6c4 0 9 0.166992 15 0.5s11.333 0.5 16 0.5c13.333 0 24.5 -2.16699 33.5 -6.5s16 -10 21 -17s8.5 -14.833 10.5 -23.5s3 -17.334 3 -26.001c0 -27.333 -6 -47.333 -18 -60
s-27 -19 -45 -19c-7.33301 0 -15.333 1 -24 3s-15.667 5.33301 -21 10c-2 2 -3 4 -3 6c0 2.66699 1.33301 4.33398 4 5.00098c3.33301 1.33301 7.66602 3.83301 12.999 7.5s8 10.167 8 19.5c0 10.667 -2.83301 18.334 -8.5 23.001s-12.167 7 -19.5 7
c-8 0 -14.833 -2.66699 -20.5 -8s-8.5 -13 -8.5 -23s2.66699 -18.833 8 -26.5s12 -14 20 -19s17 -8.66699 27 -11s20 -3.5 30 -3.5c14.667 0 28.167 2.5 40.5 7.5s23 11.5 32 19.5s16 17.5 21 28.5s7.5 22.5 7.5 34.5c0 19.333 -5.83301 35.5 -17.5 48.5
s-30.167 22.167 -55.5 27.5c5.33301 0.666992 12 2.5 20 5.5s15.667 7.5 23 13.5s13.666 13.333 18.999 22s8 18.667 8 30c0 12.667 -2.66699 23.5 -8 32.5s-12.5 16.5 -21.5 22.5s-19 10.5 -30 13.5s-22.5 4.5 -34.5 4.5c-14.667 0 -27.167 -1.83301 -37.5 -5.5
s-18.666 -8 -24.999 -13s-10.833 -10.5 -13.5 -16.5s-4 -11 -4 -15z" />
    <glyph glyph-name="summation" unicode="&#xe009;" 
d="M57 371v-22h291v22h-291zM228 698l-4 3l-89 -11v-9l47 5v-275h-45v-10h136v10h-45v287zM251 309h-18l-20 -29l-65 -99c-13.333 -20 -24.5 -38.333 -33.5 -55l-13.5 -25v-11h107v-80h-39v-11h122v11h-40v80h52v-42h10v98h-10v-46h-52v209zM111 100
c0.666992 2 2.83301 6.16699 6.5 12.5l12.5 21.5l14.5 25c5 8.66699 9.83301 16.667 14.5 24l13.5 20.5l15 23l13.5 20c4 5.66699 6.33301 9.16699 7 10.5v-157h-97z" />
    <glyph glyph-name="product" unicode="&#xe00a;" 
d="M49 357v-22h292v22h-292zM145 648c-2.66699 0 -4.66797 -0.333008 -6.00098 -1h-2c-2.66699 0 -4 1.66699 -4 5c0 8.66699 6.83301 16 20.5 22s27.5 9 41.5 9c40 0 60 -21.667 60 -65c0 -20 -3.33301 -37.833 -10 -53.5s-17.667 -30.5 -33 -44.5l-110 -104v-23h199l5 83
v4c0 7.33301 -1 11 -3 11s-4 -4.66699 -6 -14c-3.33301 -14.667 -8.16602 -26.167 -14.499 -34.5s-16.166 -12.5 -29.499 -12.5h-126l95 82c21.333 18.667 39.833 37 55.5 55s23.5 37 23.5 57c0 12.667 -2.83301 23.5 -8.5 32.5s-13 16.333 -22 22s-19.167 9.66699 -30.5 12
s-22.333 3.5 -33 3.5c-26.667 0 -49.667 -6 -69 -18s-29 -28.667 -29 -50c0 -9.33301 2.66699 -16.833 8 -22.5s12.666 -8.5 21.999 -8.5c7.33301 0 14.333 2.33301 21 7s10 11.667 10 21c0 6 -2.33301 11.667 -7 17s-10.667 8 -18 8zM119.999 249
c0 -9.33301 2.49902 -16.3311 7.49902 -20.998s11.167 -7 18.5 -7c8 0 14.5 2.16699 19.5 6.5s7.5 10.166 7.5 17.499s-1.66699 13 -5 17s-7.66602 6.66699 -12.999 8c-2.66699 0.666992 -4 2 -4 4s1 3.66699 3 5c4 3.33301 10 5.83301 18 7.5s16.333 2.5 25 2.5
c12 0 21.333 -1.83301 28 -5.5s11.834 -8.33398 15.501 -14.001s6 -12 7 -19s1.5 -13.833 1.5 -20.5c0 -24.667 -6 -42.334 -18 -53.001s-27 -16 -45 -16c-4.66699 0 -10 0.333008 -16 1s-11 1 -15 1c-6.66699 0 -10 -2.33301 -10 -7c0 -4 3.33301 -6 10 -6
c4 0 9 0.166992 15 0.5s11.333 0.5 16 0.5c13.333 0 24.5 -2.16699 33.5 -6.5s16 -10 21 -17s8.5 -14.833 10.5 -23.5s3 -17.334 3 -26.001c0 -27.333 -6 -47.333 -18 -60s-27 -19 -45 -19c-7.33301 0 -15.333 1 -24 3s-15.667 5.33301 -21 10c-2 2 -3 4 -3 6
c0 2.66699 1.33301 4.33398 4 5.00098c3.33301 1.33301 7.66602 3.83301 12.999 7.5s8 10.167 8 19.5c0 10.667 -2.83301 18.334 -8.5 23.001s-12.167 7 -19.5 7c-8 0 -14.833 -2.66699 -20.5 -8s-8.5 -13 -8.5 -23s2.66699 -18.833 8 -26.5s12 -14 20 -19
s17 -8.66699 27 -11s20 -3.5 30 -3.5c14.667 0 28.167 2.5 40.5 7.5s23 11.5 32 19.5s16 17.5 21 28.5s7.5 22.5 7.5 34.5c0 19.333 -5.83301 35.5 -17.5 48.5s-30.167 22.167 -55.5 27.5c5.33301 0.666992 12 2.5 20 5.5s15.667 7.5 23 13.5s13.666 13.333 18.999 22
s8 18.667 8 30c0 12.667 -2.66699 23.5 -8 32.5s-12.5 16.5 -21.5 22.5s-19 10.5 -30 13.5s-22.5 4.5 -34.5 4.5c-14.667 0 -27.167 -1.83301 -37.5 -5.5s-18.666 -8 -24.999 -13s-10.833 -10.5 -13.5 -16.5s-4 -11 -4 -15z" />
    <glyph glyph-name="pi" unicode="&#xe00b;" 
d="M49 359v-21h292v21h-292zM123 654c0 -9.33301 2.49902 -16.333 7.49902 -21s11.167 -7 18.5 -7c8 0 14.5 2.16699 19.5 6.5s7.5 10.166 7.5 17.499s-1.66699 13 -5 17s-7.66602 6.66699 -12.999 8c-2.66699 0.666992 -4 2.33398 -4 5.00098c0 2 1 3.66699 3 5
c4 3.33301 10 6.16602 18 8.49902s16.333 3.5 25 3.5c12 0 21.333 -2 28 -6s11.834 -9 15.501 -15s6 -12.667 7 -20s1.5 -14.333 1.5 -21c0 -24.667 -6 -42.334 -18 -53.001s-27 -16 -45 -16c-4.66699 0 -10 0.333008 -16 1s-11 1 -15 1c-6.66699 0 -10 -2.33301 -10 -7
c0 -4 3.33301 -6 10 -6c4 0 9 0.166992 15 0.5s11.333 0.5 16 0.5c13.333 0 24.5 -2.16699 33.5 -6.5s16 -10 21 -17s8.5 -14.833 10.5 -23.5s3 -17.334 3 -26.001c0 -27.333 -6 -47.666 -18 -60.999s-27 -20 -45 -20c-7.33301 0 -15.333 1.16699 -24 3.5
s-15.667 5.83301 -21 10.5c-2 2 -3 4.33301 -3 7s1.33301 4.33398 4 5.00098c3.33301 1.33301 7.66602 3.83301 12.999 7.5s8 10.167 8 19.5c0 10.667 -2.83301 18.334 -8.5 23.001s-12.167 7 -19.5 7c-8 0 -14.833 -2.66699 -20.5 -8s-8.5 -13 -8.5 -23
s2.66699 -18.833 8 -26.5s12 -14 20 -19s17 -8.66699 27 -11s20 -3.5 30 -3.5c14.667 0 28.167 2.5 40.5 7.5s23 11.5 32 19.5s16 17.5 21 28.5s7.5 22.5 7.5 34.5c0 19.333 -5.83301 35.5 -17.5 48.5s-30.167 22.167 -55.5 27.5c5.33301 0.666992 12 2.5 20 5.5
s15.667 7.5 23 13.5s13.666 13.333 18.999 22s8 18.667 8 30c0 12.667 -2.66699 23.5 -8 32.5s-12.5 16.5 -21.5 22.5s-19 10.5 -30 13.5s-22.5 4.5 -34.5 4.5c-14.667 0 -27.167 -1.83301 -37.5 -5.5s-18.666 -8 -24.999 -13s-10.833 -10.5 -13.5 -16.5s-4 -11 -4 -15z
M250.999 309h-18l-20 -29l-65 -99c-13.333 -20 -24.5 -38.333 -33.5 -55l-13.5 -25v-11h107v-80h-39v-11h122v11h-40v80h52v-42h10v98h-10v-46h-52v209zM110.999 100c0.666992 2 2.83301 6.16699 6.5 12.5l12.5 21.5l14.5 25c5 8.66699 9.83301 16.667 14.5 24l13.5 20.5
l15 23l13.5 20c4 5.66699 6.33301 9.16699 7 10.5v-157h-97z" />
    <glyph glyph-name="integral" unicode="&#xe00c;" horiz-adv-x="785" 
d="M710 645h-645v-645h645v645zM688 624v-602h-602v602h602z" />
    <glyph glyph-name="radical" unicode="&#xe00d;" horiz-adv-x="681" 
d="M83 266l-53.0049 -79.9951c25.333 -19.333 49.833 -43.833 73.5 -73.5s44.834 -60.5 63.501 -92.5c22.667 52 50.834 103.167 84.501 153.5s70.667 97.166 111 140.499s83 82.166 128 116.499s90.167 62.166 135.5 83.499v108c-35.333 -18.667 -70 -41.167 -104 -67.5
s-66.667 -55 -98 -86s-60.666 -63.333 -87.999 -97s-52.166 -67.334 -74.499 -101.001s-41.5 -66.167 -57.5 -97.5s-28 -60.333 -36 -87c-13.333 39.333 -26.166 72.666 -38.499 99.999s-27.833 54 -46.5 80z" />
    <glyph glyph-name="approxequal" unicode="&#xe00e;" horiz-adv-x="820" 
d="M342 273v126h124v-126h-124zM301 541v-100.999h-101c-34 0 -60.333 9.5 -79 28.5s-28 43.5 -28 73.5c0 33.333 9.83301 59.166 29.5 77.499s45.167 27.5 76.5 27.5c34 0 59.5 -10.333 76.5 -31s25.5 -45.667 25.5 -75zM199 399.001l102.002 -0.00292969v-126h-102
c-20 0 -38.833 -3.5 -56.5 -10.5s-33.167 -17 -46.5 -30s-23.833 -28.333 -31.5 -46s-11.5 -36.834 -11.5 -57.501s3.66699 -39.667 11 -57s17.333 -32.333 30 -45s27.667 -22.5 45 -29.5s36.333 -10.5 57 -10.5c24 0 45.167 3.66699 63.5 11s33.666 17.5 45.999 30.5
s21.5 28.333 27.5 46s9 36.5 9 56.5v102h124v-102c0 -20 3.16699 -38.833 9.5 -56.5s15.666 -33 27.999 -46s27.5 -23.167 45.5 -30.5s39 -11 63 -11c20.667 0 39.667 3.66699 57 11s32.333 17.333 45 30s22.667 27.667 30 45s11 36 11 56
c0 20.667 -3.83301 39.834 -11.5 57.501s-18.167 33 -31.5 46s-28.833 23 -46.5 30s-36.5 10.5 -56.5 10.5h-102v126h102c20 0 38.833 3.66699 56.5 11s33.167 17.5 46.5 30.5s23.833 28.333 31.5 46s11.5 36.834 11.5 57.501s-3.66699 39.834 -11 57.501
s-17.333 32.834 -30 45.501s-27.834 22.5 -45.501 29.5s-36.5 10.5 -56.5 10.5c-24 0 -45 -3.83301 -63 -11.5s-33.167 -18 -45.5 -31s-21.666 -28.333 -27.999 -46s-9.5 -36.5 -9.5 -56.5v-102h-124v102c0 20 -3 38.833 -9 56.5s-15.167 33 -27.5 46
s-27.666 23.333 -45.999 31s-39.5 11.5 -63.5 11.5c-20 0 -38.833 -3.83301 -56.5 -11.5s-32.834 -18 -45.501 -31s-22.667 -28.167 -30 -45.5s-11 -35.666 -11 -54.999c0 -21.333 3.66699 -40.833 11 -58.5s17.5 -32.834 30.5 -45.501s28.333 -22.667 46 -30
s37.167 -11 58.5 -11zM608.002 439.998l-101 -0.000976562v101c0 29.333 8.5 54.333 25.5 75s42.5 31 76.5 31c30.667 0 56 -9.16699 76 -27.5s30 -44.166 30 -77.499c0 -30 -9.5 -54.5 -28.5 -73.5s-45.167 -28.5 -78.5 -28.5zM200.002 232.997h101v-101
c0 -30 -8.5 -55.167 -25.5 -75.5s-42.5 -30.5 -76.5 -30.5c-31.333 0 -56.833 9 -76.5 27s-29.5 44 -29.5 78c0 30 9.33301 54.5 28 73.5s45 28.5 79 28.5zM507.002 131.997v101h101c33.333 0 59.5 -9.5 78.5 -28.5s28.5 -43.5 28.5 -73.5c0 -34 -10 -60 -30 -78
s-45.333 -27 -76 -27c-34 0 -59.5 10.167 -76.5 30.5s-25.5 45.5 -25.5 75.5z" />
    <glyph glyph-name="nonbreakingspace" unicode="&#xe00f;" horiz-adv-x="269" 
 />
    <glyph glyph-name="lozenge" unicode="&#xe010;" horiz-adv-x="449" 
d="M227 434l164 -164l-165 -166l-165 165zM28 269l198 -198l199 199l-198 198z" />
    <glyph glyph-name="apple" unicode="&#xe011;" horiz-adv-x="827" 
d="M279 556c-28 0 -54 -4.49609 -78 -13.4961s-44.833 -22.5 -62.5 -40.5s-31.667 -40 -42 -66s-15.5 -56 -15.5 -90c0 -26 4 -52.833 12 -80.5s18.5 -54.834 31.5 -81.501s28.167 -52 45.5 -76s35 -45 53 -63s35.833 -32.333 53.5 -43s33.834 -16 48.501 -16
c28 0 51.667 11.667 71 35c5.33301 6 12 10.833 20 14.5s16 5.5 24 5.5c9.33301 0 17 -2.16699 23 -6.5s11.333 -8.83301 16 -13.5c20 -23.333 45.333 -35 76 -35c28 0 53.667 8.33301 77 25s43.666 36.5 60.999 59.5s32 46 44 69s20.667 41.167 26 54.5
c-12 4 -24.333 10.167 -37 18.5s-24.167 18.666 -34.5 30.999s-18.833 26.166 -25.5 41.499s-10 31.666 -10 48.999c0 34 6.5 64.167 19.5 90.5s34.5 46.833 64.5 61.5c-2.66699 8 -8 16.167 -16 24.5s-18 15.833 -30 22.5s-25.667 12.167 -41 16.5s-32 6.5 -50 6.5
c-17.333 0 -34.333 -1.83301 -51 -5.5s-31 -10.167 -43 -19.5c-13.333 -10.667 -25.333 -18 -36 -22s-21.667 -6 -33 -6c-10.667 0 -20 2.16699 -28 6.5s-19.667 11.5 -35 21.5c-12 8 -27 14.167 -45 18.5s-35.667 6.5 -53 6.5zM550 702.004
c-14 0 -28.498 -4.33105 -43.498 -12.998s-28.5 -19.834 -40.5 -33.501s-22 -28.834 -30 -45.501s-12 -33 -12 -49c0 -4.66699 1.16699 -8.5 3.5 -11.5s7.16602 -4.5 14.499 -4.5c12 0 25 4.66699 39 14s27.167 21 39.5 35s22.666 29.167 30.999 45.5s12.5 31.5 12.5 45.5
c0 11.333 -4.66699 17 -14 17z" />
    </font>
</defs>
</svg>
