<?xml version="1.0" encoding="UTF-8"?><svg xmlns="http://www.w3.org/2000/svg" width="100%" height="100%"><defs><font id="web" horiz-adv-x="946"><!--



NOTICE: This font software is the valuable property 
of Webtype LLC, The Font Bureau, Ascender Corp and/or 
its suppliers and its use by you is covered under the 
terms of the Web Font license agreement between you 
and Webtype LLC. You may ONLY use this font software 
with the licensed web site. Except as specifically 
permitted by the license, you may not copy this font 
software. If you have any questions, please contact 
Webtype.com. 

For more information, please visit http://www.webtype.com/store/license/?id=23

Licensed to: calottery.com

Serial number: SH-192
--><font-face font-family="" units-per-em="2048" panose-1="2 0 5 6 3 0 0 2 0 4" ascent="1872" descent="-432" alphabetic="0"/><missing-glyph horiz-adv-x="451"/><glyph unicode=" " horiz-adv-x="451"/><glyph unicode="!" horiz-adv-x="508" d="M354 721L322 414H186L154 721V1434H354V721ZM393 117Q393 88 382 63T353 18T309 -12T254 -23Q225 -23 200 -12T155 18T126 62T115 117Q115 146 125 172T155 217T199 247T254 258Q283 258 308 247T352 217T382 172T393 117Z"/><glyph unicode="&quot;" horiz-adv-x="905" d="M778 1434L727 764H590L539 1434H778ZM367 1434L315 764H178L127 1434H367Z"/><glyph unicode="#" horiz-adv-x="1229" d="M1137 328H942V0H752V328H477V0H287V328H92V512H287V922H92V1106H287V1434H477V1106H752V1434H942V1106H1137V922H942V512H1137V328ZM752 512V922H477V512H752Z"/><glyph unicode="$" horiz-adv-x="907" d="M825 381Q825 308 807 246T753 135T664 55T541 8V-164H340V8Q243 28 175 87T55 231L213 358Q242 312 270 281T326 230T383 202T446 193Q528 193 573 238T618 371Q618 412 608 445T571 510T498 578T379 662Q318 702 266 741T174 830T113 941T90 1087Q90 1152 107 1206T156 1304T235 1376T340 1421V1597H541V1427Q627 1412 687 1364T801 1241L653 1110Q627 1144 605 1169T558 1210T507 1233T446 1241Q374 1241 336 1202T297 1094Q297 1054 307 1023T341 963T406 904T506 836Q573 793 631 750T732 655T800 537T825 381Z"/><glyph unicode="%" horiz-adv-x="1751" d="M711 1012Q711 914 693 832T636 691T539 599T403 565Q325 565 268 597T175 689T120 829T102 1008Q102 1107 120 1189T175 1331T270 1423T408 1456Q489 1456 546 1423T640 1332T694 1191T711 1012ZM1337 1434L582 0H401L1157 1434H1337ZM1649 424Q1649 326 1631 244T1574 103T1477 11T1341 -23Q1263 -23 1206 9T1113 101T1058 241T1040 420Q1040 519 1058 601T1113 743T1208 835T1346 868Q1427 868 1484 835T1578 744T1632 603T1649 424ZM543 1008Q543 1072 536 1125T512 1216T469 1275T406 1296Q369 1296 344 1276T302 1218T279 1128T272 1012Q272 948 279 895T303 803T345 743T408 721Q444 721 469 744T511 806T535 897T543 1008ZM1481 420Q1481 484 1474 537T1450 628T1407 687T1343 709Q1306 709 1281 689T1240 631T1217 541T1210 424Q1210 360 1217 307T1241 215T1283 155T1346 133Q1382 133 1407 156T1449 218T1473 309T1481 420Z"/><glyph unicode="&amp;" horiz-adv-x="983" d="M965 0H758L686 121Q630 49 561 13T397 -23Q312 -23 250 3T147 76T86 188T66 332Q66 459 126 571T299 774L264 836Q236 884 214 925T176 1004T152 1080T143 1159Q143 1225 167 1279T234 1373T338 1434T471 1456Q522 1456 565 1449T647 1427T721 1391T793 1341L696 1178Q664 1200 637 1217T584 1245T529 1262T469 1268Q406 1268 375 1237T344 1163Q344 1112 359 1063T412 948L670 504Q684 550 697 603T725 719L889 674Q863 564 837 474T782 309L965 0ZM590 285L389 625Q320 552 291 483T262 354Q262 257 300 212T416 166Q471 166 513 194T590 285Z"/><glyph unicode="'" horiz-adv-x="494" d="M367 1434L315 764H178L127 1434H367Z"/><glyph unicode="(" horiz-adv-x="635" d="M561 -143L453 -225Q381 -141 318 -52T206 138T130 356T102 614Q102 760 129 878T203 1097T314 1287T453 1466L561 1384Q503 1305 456 1223T375 1049T323 853T305 625Q305 498 323 392T374 193T455 18T561 -143Z"/><glyph unicode=")" horiz-adv-x="635" d="M532 627Q532 481 506 363T432 144T321 -46T182 -225L74 -143Q132 -64 179 18T260 192T312 388T330 616Q330 743 312 849T261 1049T180 1224T74 1384L182 1466Q254 1382 317 1293T428 1104T504 886T532 627Z"/><glyph unicode="*" horiz-adv-x="879" d="M811 946L727 801L492 969L522 682H358L387 971L152 801L68 946L330 1063L70 1182L154 1325L387 1153L358 1440H522L492 1159L725 1327L809 1182L541 1063L811 946Z"/><glyph unicode="+" horiz-adv-x="928" d="M856 608H563V285H365V608H72V801H365V1124H563V801H856V608Z"/><glyph unicode="," horiz-adv-x="475" d="M383 258L246 -231H113L139 258H383Z"/><glyph unicode="-" horiz-adv-x="614" d="M532 647H82V852H532V647Z"/><glyph unicode="." horiz-adv-x="475" d="M381 121Q381 91 370 65T340 19T294 -12T238 -23Q208 -23 182 -12T136 18T105 64T94 121Q94 151 105 177T135 223T181 254T238 266Q268 266 294 255T339 224T370 178T381 121Z"/><glyph unicode="/" horiz-adv-x="717" d="M729 1618L186 -184H-12L530 1618H729Z"/><glyph unicode="0" horiz-adv-x="1022" d="M934 719Q934 563 910 428T835 192T703 35T508 -23Q394 -23 315 34T185 190T111 424T88 715Q88 871 111 1006T185 1241T316 1398T510 1456Q624 1456 704 1400T836 1246T910 1012T934 719ZM733 715Q733 819 722 917T685 1092T615 1214T506 1260Q441 1260 399 1215T333 1095T299 922T289 719Q289 614 299 516T336 342T405 220T514 174Q579 174 621 219T688 339T723 512T733 715Z"/><glyph unicode="1" horiz-adv-x="563" d="M430 0H231V1128H39V1268Q87 1274 124 1285T189 1316T236 1364T266 1434H430V0Z"/><glyph unicode="2" horiz-adv-x="971" d="M860 0H98Q104 108 117 196T154 358T209 492T283 608T379 714T498 819Q535 850 562 878T608 937T634 998T643 1067Q643 1158 597 1206T469 1255Q404 1255 347 1224T229 1137L104 1282Q140 1319 179 1350T265 1405T364 1442T481 1456Q571 1456 639 1430T754 1356T824 1242T848 1094Q848 1029 835 975T794 870T720 771T608 668Q551 620 504 573T422 472T362 352T328 201H860V0Z"/><glyph unicode="3" horiz-adv-x="952" d="M856 412Q856 307 824 226T737 90T606 6T442 -23Q375 -23 319 -9T214 35T123 107T43 207L190 332Q223 287 254 257T317 208T382 181T453 172Q496 172 533 187T597 231T639 303T655 401Q655 532 584 597T373 662H326V854H377Q432 854 477 869T555 913T605 984T623 1081Q623 1118 613 1151T582 1208T528 1247T449 1262Q392 1262 341 1231T227 1141L104 1282Q143 1322 181 1354T262 1409T352 1444T457 1456Q538 1456 605 1433T720 1363T796 1248T823 1087Q823 1021 808 971T765 882T701 817T621 772Q664 758 706 732T781 663T835 559T856 412Z"/><glyph unicode="4" horiz-adv-x="973" d="M905 346H807V0H612V346H57V504L616 1434H807V537H905V346ZM618 1114Q594 1069 568 1022T510 922L371 694Q340 644 318 608T270 535Q301 535 337 536T418 537H612V909Q612 962 614 1011T618 1114Z"/><glyph unicode="5" horiz-adv-x="971" d="M883 487Q883 369 855 275T771 114T631 13T434 -23Q325 -23 236 19T78 133L190 285Q243 235 307 204T444 172Q561 172 622 253T684 479Q684 538 672 589T634 679T571 740T481 762Q413 762 370 736T295 659L123 692L160 1434H838V1237H344L326 903Q364 928 405 942T510 956Q600 956 669 924T786 831T858 683T883 487Z"/><glyph unicode="6" horiz-adv-x="958" d="M891 442Q891 336 862 250T778 104T647 10T473 -23Q388 -23 317 8T195 103T116 268T88 508Q88 715 130 883T254 1174T456 1368T735 1456V1268Q644 1256 570 1215T442 1110T352 966T301 793Q341 838 396 861T526 885Q607 885 674 853T790 761T864 621T891 442ZM696 438Q696 495 682 542T640 623T574 675T485 694Q388 694 336 624T283 426Q283 369 296 322T335 240T399 187T485 168Q536 168 575 187T641 241T682 326T696 438Z"/><glyph unicode="7" horiz-adv-x="901" d="M823 1229Q716 1104 648 964T541 668T486 346T471 0H270Q270 191 287 364T345 693T449 985T608 1239H61V1434H823V1229Z"/><glyph unicode="8" horiz-adv-x="979" d="M895 432Q895 328 865 244T781 101T655 10T498 -23Q417 -23 343 5T214 88T125 228T92 424Q92 493 105 548T142 648T198 725T268 784Q203 826 163 895T123 1061Q123 1152 150 1225T227 1349T344 1428T496 1456Q580 1456 648 1428T764 1348T839 1224T866 1065Q866 1015 855 973T823 895T777 832T719 784Q797 732 846 645T895 432ZM670 1065Q670 1159 624 1211T494 1264Q410 1264 365 1212T319 1065Q319 1023 331 988T366 926T421 885T496 870Q539 870 571 885T626 926T659 987T670 1065ZM698 428Q698 486 685 532T645 612T582 662T496 680Q448 680 410 663T344 612T303 533T289 428Q289 299 347 235T502 170Q593 170 645 235T698 428Z"/><glyph unicode="9" horiz-adv-x="958" d="M870 926Q870 719 828 551T704 260T501 65T223 -23V166Q314 178 388 219T517 323T607 468T657 641Q617 596 562 573T432 549Q351 549 284 581T169 672T95 812T68 991Q68 1097 97 1183T180 1329T312 1423T485 1456Q570 1456 641 1425T763 1330T842 1165T870 926ZM676 1008Q676 1065 663 1112T623 1193T559 1247T473 1266Q422 1266 383 1247T317 1193T276 1107T262 995Q262 938 276 891T318 811T384 758T473 739Q570 739 623 810T676 1008Z"/><glyph unicode=":" horiz-adv-x="475" d="M381 952Q381 922 370 896T340 851T294 820T238 809Q208 809 182 820T136 850T105 896T94 952Q94 982 105 1008T135 1055T181 1086T238 1098Q268 1098 294 1087T339 1055T370 1009T381 952ZM381 121Q381 91 370 65T340 19T294 -12T238 -23Q208 -23 182 -12T136 18T105 64T94 121Q94 151 105 177T135 223T181 254T238 266Q268 266 294 255T339 224T370 178T381 121Z"/><glyph unicode=";" horiz-adv-x="475" d="M381 952Q381 922 370 896T340 851T294 820T238 809Q208 809 182 820T136 850T105 896T94 952Q94 982 105 1008T135 1055T181 1086T238 1098Q268 1098 294 1087T339 1055T370 1009T381 952ZM362 258L225 -231H92L119 258H362Z"/><glyph unicode="&lt;" horiz-adv-x="664" d="M569 184L76 614V795L569 1225V979L248 707L569 432V184Z"/><glyph unicode="=" horiz-adv-x="1024" d="M891 842H133V1036H891V842ZM891 373H133V567H891V373Z"/><glyph unicode="&gt;" horiz-adv-x="664" d="M588 614L94 184V430L416 702L94 977V1225L588 795V614Z"/><glyph unicode="?" horiz-adv-x="924" d="M842 1100Q842 1027 826 972T782 874T714 798T629 733Q589 705 567 677T533 613T519 529T516 414H309Q309 504 314 570T341 689T404 788T518 881Q578 921 606 969T635 1081Q635 1124 622 1156T585 1210T528 1242T455 1253Q378 1253 310 1218T164 1112L37 1262Q81 1305 128 1341T228 1402T339 1442T463 1456Q556 1456 627 1431T745 1358T817 1246T842 1100ZM559 117Q559 88 548 63T519 18T475 -12T420 -23Q391 -23 366 -12T321 18T292 62T281 117Q281 146 291 172T321 217T365 247T420 258Q449 258 474 247T518 217T548 172T559 117Z"/><glyph unicode="@" horiz-adv-x="1323" d="M1231 737Q1231 615 1213 534T1163 404T1087 335T991 315Q929 315 887 349T823 438Q809 414 789 392T742 352T686 325T621 315Q576 315 533 332T456 384T402 472T381 596Q381 661 400 710T450 791T524 840T612 856Q636 856 661 852T709 840T751 823T784 803V907Q784 972 750 1000T643 1028Q600 1028 565 1017T492 979L446 1079Q491 1110 546 1129T655 1149Q774 1149 839 1089T905 903V559Q905 531 909 507T925 466T955 438T1001 428Q1066 428 1092 505T1118 739Q1118 883 1085 995T991 1183T846 1299T662 1339Q558 1339 475 1295T333 1170T243 975T211 719Q211 578 243 462T334 264T478 137T666 92Q720 92 769 102T866 139L907 43Q874 23 844 11T785 -9T726 -20T662 -23Q538 -23 434 29T253 178T135 412T92 717Q92 885 134 1021T253 1254T433 1403T662 1456Q788 1456 892 1405T1072 1259T1189 1032T1231 737ZM784 549V678Q761 701 721 720T629 739Q566 739 536 702T506 600Q506 563 512 533T534 482T574 450T637 438Q680 438 721 468T784 549Z"/><glyph unicode="A" horiz-adv-x="1012" d="M961 0H741L657 379H346L264 0H51L403 1434H610L961 0ZM616 569L563 811Q555 846 546 892T529 983T513 1066T502 1124Q498 1104 491 1066T475 984T457 893T440 811L387 569H616Z"/><glyph unicode="B" horiz-adv-x="1018" d="M926 432Q926 324 897 243T814 108T687 27T524 0H143V1434H504Q589 1434 661 1412T787 1344T871 1227T901 1055Q901 1011 891 967T860 883T808 811T733 758Q778 742 814 711T875 638T913 543T926 432ZM696 1049Q696 1102 682 1138T644 1196T585 1229T510 1239H342V850H506Q546 850 580 861T640 897T681 959T696 1049ZM721 432Q721 492 705 534T659 604T589 644T502 657H342V195H522Q567 195 604 208T667 249T707 322T721 432Z"/><glyph unicode="C" horiz-adv-x="983" d="M895 340Q878 259 850 193T776 78T667 4T514 -23Q398 -23 318 35T187 193T115 427T92 715Q92 871 116 1006T192 1241T325 1398T520 1456Q610 1456 674 1430T783 1358T854 1247T893 1106L690 1055Q680 1103 667 1140T634 1202T585 1240T514 1253Q470 1253 438 1231T381 1171T341 1081T316 970T303 846T299 719Q299 620 310 524T348 351T419 227T528 180Q564 180 591 192T640 232T677 300T709 399L895 340Z"/><glyph unicode="D" horiz-adv-x="1038" d="M946 723Q946 563 918 430T833 202T691 53T492 0H143V1434H492Q611 1434 696 1383T837 1239T919 1014T946 723ZM739 723Q739 786 734 848T718 968T687 1074T640 1160T574 1216T485 1237H344V197H492Q540 197 577 218T641 277T687 365T717 474T734 596T739 723Z"/><glyph unicode="E" horiz-adv-x="911" d="M844 0H143V1434H817V1239H344V856H653V664H344V195H844V0Z"/><glyph unicode="F" horiz-adv-x="877" d="M827 1239H344V846H653V653H344V0H143V1434H827V1239Z"/><glyph unicode="G" horiz-adv-x="1047" d="M928 420Q928 329 906 249T835 108T709 12T524 -23Q410 -23 328 35T194 193T117 428T92 717Q92 879 118 1014T199 1248T335 1401T530 1456Q618 1456 683 1432T794 1362T869 1252T913 1106L713 1053Q701 1108 684 1146T645 1208T593 1242T524 1253Q465 1253 423 1213T353 1100T312 930T299 717Q299 656 303 593T319 470T348 357T392 265T455 203T539 180Q640 180 681 243T723 438V541H563V737H928V420Z"/><glyph unicode="H" horiz-adv-x="1090" d="M946 0H745V664H344V0H143V1434H344V860H745V1434H946V0Z"/><glyph unicode="I" horiz-adv-x="508" d="M354 0H154V1434H354V0Z"/><glyph unicode="J" horiz-adv-x="897" d="M760 410Q760 307 738 227T670 91T556 6T395 -23Q305 -23 241 4T134 81T67 198T33 348L215 395Q227 335 242 294T278 226T328 188T395 176Q442 176 473 192T524 238T551 310T559 403V1434H760V410Z"/><glyph unicode="K" horiz-adv-x="987" d="M946 0H729L463 719L344 526V0H143V1434H344V1071Q344 1051 344 1019T343 954T342 890T340 842Q348 857 363 883T394 938T427 996T455 1044L690 1434H918L606 930L946 0Z"/><glyph unicode="L" horiz-adv-x="856" d="M803 0H143V1434H344V197H803V0Z"/><glyph unicode="M" horiz-adv-x="1253" d="M1110 0H913V578Q913 612 913 663T914 768T916 866T918 932Q912 910 899 864T869 764T836 655T807 561L623 -39L438 561Q426 600 410 655T377 764T348 864T328 932Q329 911 329 866T330 768T331 664T332 578V0H143V1434H354L539 838Q549 806 562 760T588 668T611 583T627 524Q632 544 643 585T667 673T693 766T717 844L901 1434H1110V0Z"/><glyph unicode="N" horiz-adv-x="1090" d="M946 0H782L436 768Q425 791 411 825T383 893T356 958T336 1004Q337 984 337 946T338 866T339 784T340 717V0H143V1434H344L653 752Q664 729 678 695T707 627T734 562T754 516Q753 536 753 573T752 653T751 736T750 803V1434H946V0Z"/><glyph unicode="O" horiz-adv-x="1051" d="M958 719Q958 563 933 428T854 192T718 35T522 -23Q408 -23 327 34T194 190T117 424T92 715Q92 871 117 1006T194 1241T328 1398T524 1456Q638 1456 720 1400T855 1244T933 1010T958 719ZM754 715Q754 815 742 911T703 1084T630 1208T520 1255Q476 1255 443 1234T385 1176T343 1087T316 977T302 851T297 719Q297 652 302 587T318 461T347 349T390 259T450 200T528 178Q571 178 605 199T664 258T706 347T734 457T749 583T754 715Z"/><glyph unicode="P" horiz-adv-x="979" d="M926 1016Q926 907 892 826T801 691T668 611T512 584H344V0H143V1434H522Q598 1434 670 1411T800 1337T891 1207T926 1016ZM719 1010Q719 1070 702 1113T657 1183T590 1224T508 1237H344V778H514Q558 778 595 792T660 835T703 907T719 1010Z"/><glyph unicode="Q" horiz-adv-x="1051" d="M958 717Q958 528 920 374T803 121L874 8L733 -74L676 14Q644 -3 606 -13T524 -23Q410 -23 329 34T195 191T117 426T92 717Q92 873 117 1008T194 1242T328 1399T524 1456Q638 1456 720 1399T855 1243T933 1008T958 717ZM754 717Q754 817 743 913T704 1086T633 1208T524 1255Q459 1255 415 1209T345 1086T308 914T297 717Q297 617 308 520T345 345T415 220T524 172Q535 172 546 173T569 180L471 330L612 412L688 295Q707 335 720 384T740 488T751 600T754 717Z"/><glyph unicode="R" horiz-adv-x="1044" d="M950 0H727L510 625H344V0H143V1434H547Q625 1434 697 1412T825 1342T913 1219T946 1036Q946 958 930 897T885 790T814 712T721 659L950 0ZM739 1030Q739 1085 724 1125T680 1190T614 1227T530 1239H344V817H530Q627 817 683 867T739 1030Z"/><glyph unicode="S" horiz-adv-x="907" d="M825 371Q825 285 800 213T725 88T602 6T434 -23Q366 -23 310 -6T208 42T124 116T55 211L213 338Q242 292 270 261T326 212T383 186T446 178Q528 178 573 225T618 360Q618 402 608 436T571 505T498 576T379 662Q318 702 266 743T174 835T113 949T90 1098Q90 1176 115 1242T187 1355T302 1429T453 1456Q515 1456 565 1443T656 1406T733 1345T801 1262L653 1130Q627 1165 605 1189T558 1227T507 1248T446 1255Q374 1255 336 1214T297 1104Q297 1064 307 1032T341 968T406 906T506 836Q573 793 631 749T732 650T800 529T825 371Z"/><glyph unicode="T" horiz-adv-x="864" d="M797 1237H532V0H332V1237H68V1434H797V1237Z"/><glyph unicode="U" horiz-adv-x="1077" d="M940 426Q940 321 912 238T832 97T705 8T539 -23Q450 -23 376 8T249 98T167 236T137 414V1434H338V422Q338 377 348 334T382 257T444 201T539 180Q598 180 637 202T699 258T731 335T741 420V1434H940V426Z"/><glyph unicode="V" horiz-adv-x="991" d="M940 1434L569 0H420L51 1434H270L436 715Q442 687 451 644T470 555T488 471T500 412Q504 431 512 470T529 554T548 642T563 715L727 1434H940Z"/><glyph unicode="W" horiz-adv-x="1266" d="M1208 1434L950 0H797L698 502Q693 524 687 559T674 634T659 716T646 795T635 860T629 901Q627 888 623 860T613 796T599 718T585 637T572 563T561 508L463 0H313L57 1434H258L344 918Q347 896 353 859T366 777T381 685T394 597T405 525T412 481Q413 494 418 525T429 597T442 686T456 776T468 857T477 915L559 1434H713L797 915Q800 893 806 857T819 776T833 685T847 597T858 525T864 481Q866 494 870 525T881 597T894 684T908 775T920 857T930 918L1014 1434H1208Z"/><glyph unicode="X" horiz-adv-x="952" d="M895 0H674L565 279Q555 305 541 341T514 414T489 483T473 532Q468 514 457 482T432 413T405 340T381 279L272 0H57L371 737L78 1434H299L387 1206Q397 1181 411 1144T438 1069T463 998T479 948Q485 966 496 999T521 1070T548 1145T571 1206L659 1434H874L582 743L895 0Z"/><glyph unicode="Y" horiz-adv-x="1010" d="M965 1434L610 641V0H410V635L45 1434H272L399 1135Q411 1108 428 1065T462 977T493 893T512 836Q517 855 531 894T561 978T594 1066T623 1137L745 1434H965Z"/><glyph unicode="Z" horiz-adv-x="942" d="M846 0H84V186L494 993Q512 1028 532 1067T572 1143T608 1207T633 1251Q617 1250 593 1250T540 1249T482 1248T426 1247H137V1434H834V1247L422 438Q404 403 384 365T344 290T308 226T283 182Q299 183 323 183T376 184T433 185T489 186H846V0Z"/><glyph unicode="[" horiz-adv-x="666" d="M561 -205H154V1434H561V1266H344V-37H561V-205Z"/><glyph unicode="\" horiz-adv-x="717" d="M729 -184H530L-12 1618H186L729 -184Z"/><glyph unicode="]" horiz-adv-x="666" d="M512 -205H104V-43H322V1272H104V1434H512V-205Z"/><glyph unicode="^" horiz-adv-x="909" d="M848 782H629L453 1196L276 782H61L373 1434H537L848 782Z"/><glyph unicode="_" horiz-adv-x="717" d="M717 -348H0V-168H717V-348Z"/><glyph unicode="`" horiz-adv-x="819" d="M608 1219H440L143 1546H420L608 1219Z"/><glyph unicode="a" horiz-adv-x="889" d="M774 0H578V74Q536 26 483 2T356 -23Q297 -23 244 -1T151 67T87 179T63 338Q63 425 89 491T161 601T272 668T414 690Q463 690 504 681T578 655V760Q578 838 548 875T438 913Q387 913 338 898T227 846L143 995Q218 1045 298 1071T453 1098Q540 1098 601 1082T700 1027T756 928T774 776V0ZM578 256V471Q542 493 507 502T416 512Q347 512 304 471T260 342Q260 246 296 201T395 156Q458 156 504 182T578 256Z"/><glyph unicode="b" horiz-adv-x="918" d="M838 526Q838 257 749 117T500 -23Q443 -23 399 -4T313 57V0H117V1391L313 1493V1004Q332 1025 352 1042T397 1071T449 1091T514 1098Q587 1098 647 1069T749 973T815 796T838 526ZM639 516Q639 621 629 696T599 820T547 890T473 913Q424 913 382 886T313 815V258Q345 209 391 186T483 162Q522 162 551 181T599 243T629 353T639 516Z"/><glyph unicode="c" horiz-adv-x="840" d="M768 168Q741 126 711 91T643 30T559 -9T455 -23Q371 -23 302 11T184 113T107 286T80 532Q80 673 106 779T181 956T302 1062T463 1098Q521 1098 567 1083T649 1043T714 983T766 909L625 786Q604 819 585 842T546 880T505 902T457 909Q410 909 377 884T321 811T289 694T279 537Q279 451 289 383T322 266T380 192T463 166Q512 166 549 194T627 285L768 168Z"/><glyph unicode="d" horiz-adv-x="918" d="M801 0H604V72Q585 51 565 34T521 4T468 -16T403 -23Q330 -23 271 6T169 102T103 279T80 549Q80 683 103 785T169 957T275 1062T418 1098Q475 1098 519 1079T604 1018V1391L801 1493V0ZM604 260V817Q572 867 527 890T434 913Q396 913 367 894T319 832T289 722T279 559Q279 454 289 379T319 256T371 185T444 162Q494 162 536 189T604 260Z"/><glyph unicode="e" horiz-adv-x="922" d="M842 541Q842 527 842 507T840 471H276Q286 311 339 239T479 166Q513 166 539 170T587 184T630 209T674 246L795 121Q767 90 733 64T659 19T572 -12T475 -23Q379 -23 306 16T182 128T106 303T80 532Q80 673 108 779T186 956T307 1062T463 1098Q544 1098 613 1064T733 960T813 786T842 541ZM641 641Q639 701 626 751T589 837T533 893T459 913Q383 913 337 847T279 641H641Z"/><glyph unicode="f" horiz-adv-x="596" d="M569 1303Q533 1315 487 1315Q415 1315 389 1288T362 1200V1075H539V891H362V0H166V891H57V1075H166V1227Q166 1293 184 1342T234 1423T311 1471T408 1487Q459 1487 497 1482T569 1466V1303Z"/><glyph unicode="g" horiz-adv-x="918" d="M801 94Q801 -21 778 -107T704 -252T568 -347T362 -395L307 -238Q396 -226 453 -206T544 -151T591 -63T604 66V74Q585 52 565 34T521 4T468 -16T403 -23Q330 -23 271 6T169 102T103 279T80 549Q80 683 103 785T169 957T275 1062T418 1098Q475 1098 519 1079T604 1018V1075H801V94ZM604 260V817Q572 867 527 890T434 913Q396 913 367 894T319 832T289 722T279 559Q279 454 289 379T319 256T371 185T444 162Q494 162 536 189T604 260Z"/><glyph unicode="h" horiz-adv-x="913" d="M803 0H606V662Q606 795 576 853T473 911Q427 911 385 886T313 813V0H117V1391L313 1493V1001Q345 1043 399 1070T522 1098Q600 1098 653 1073T740 998T788 872T803 694V0Z"/><glyph unicode="i" horiz-adv-x="451" d="M346 1364Q346 1339 337 1317T311 1279T272 1253T225 1243Q200 1243 178 1252T139 1278T112 1317T102 1364Q102 1389 112 1411T138 1451T177 1477T225 1487Q250 1487 272 1478T310 1451T336 1412T346 1364ZM324 0H127V1075H324V0Z"/><glyph unicode="j" horiz-adv-x="451" d="M346 1364Q346 1339 337 1317T311 1279T272 1253T225 1243Q200 1243 178 1252T139 1278T112 1317T102 1364Q102 1389 112 1411T138 1451T177 1477T225 1487Q250 1487 272 1478T310 1451T336 1412T346 1364ZM324 39Q324 -64 303 -139T238 -267T127 -350T-33 -395L-84 -236Q-25 -222 15 -202T80 -152T116 -78T127 27V1075H324V39Z"/><glyph unicode="k" horiz-adv-x="868" d="M813 0H598L420 502L313 332V0H117V1391L313 1493V848Q313 822 313 791T312 727T311 666T309 616Q317 632 328 653T351 696T375 741T397 782L559 1075H782L551 702L813 0Z"/><glyph unicode="l" horiz-adv-x="451" d="M324 0H127V1391L324 1493V0Z"/><glyph unicode="m" horiz-adv-x="1362" d="M1251 0H1055V662Q1055 729 1051 776T1035 853T1001 897T942 911Q896 911 854 886T782 813V0H586V662Q586 729 582 776T566 853T532 897T473 911Q427 911 385 886T313 813V0H117V1075H313V1001Q345 1043 395 1070T514 1098Q595 1098 646 1070T731 983Q788 1048 849 1073T983 1098Q1064 1098 1116 1072T1198 993T1239 860T1251 674V0Z"/><glyph unicode="n" horiz-adv-x="913" d="M803 0H606V662Q606 795 576 853T473 911Q427 911 385 886T313 813V0H117V1075H313V1001Q345 1043 399 1070T522 1098Q600 1098 653 1073T740 998T788 872T803 694V0Z"/><glyph unicode="o" horiz-adv-x="934" d="M854 541Q854 400 826 294T747 118T623 12T461 -23Q377 -23 307 11T187 113T108 286T80 532Q80 673 107 779T184 956T307 1062T469 1098Q554 1098 625 1064T747 960T826 786T854 541ZM655 537Q655 720 607 814T465 909Q372 909 326 816T279 537Q279 351 326 259T467 166Q513 166 548 192T607 267T643 384T655 537Z"/><glyph unicode="p" horiz-adv-x="918" d="M838 526Q838 257 749 117T500 -23Q443 -23 399 -4T313 57V-293L117 -395V1075H313V1004Q332 1025 352 1042T397 1071T449 1091T514 1098Q587 1098 647 1069T749 973T815 796T838 526ZM639 516Q639 621 629 696T599 820T547 890T473 913Q424 913 382 886T313 815V258Q345 209 391 186T483 162Q522 162 551 181T599 243T629 353T639 516Z"/><glyph unicode="q" horiz-adv-x="918" d="M801 -293L604 -395V72Q585 51 565 34T521 4T468 -16T403 -23Q330 -23 271 6T169 102T103 279T80 549Q80 683 103 785T169 957T275 1062T418 1098Q475 1098 519 1079T604 1018V1075H801V-293ZM604 260V817Q572 867 527 890T434 913Q396 913 367 894T319 832T289 722T279 559Q279 454 289 379T319 256T371 185T444 162Q494 162 536 189T604 260Z"/><glyph unicode="r" horiz-adv-x="688" d="M651 1061L604 864Q575 881 544 889T467 897Q425 897 386 880T313 813V0H117V1075H313V1001Q345 1043 394 1070T504 1098Q555 1098 590 1087T651 1061Z"/><glyph unicode="s" horiz-adv-x="797" d="M719 295Q719 218 696 159T630 60T525 -2T385 -23Q298 -23 213 8T55 92L131 256Q205 210 266 187T381 164Q447 164 484 196T522 281Q522 309 511 331T475 376T411 424T315 481Q265 510 224 539T154 605T108 688T92 799Q92 869 112 924T172 1018T269 1077T399 1098Q481 1098 556 1071T692 997L612 831Q560 869 503 890T395 911Q340 911 315 884T289 817Q289 793 296 773T322 733T376 690T465 635Q526 600 573 567T652 496T702 409T719 295Z"/><glyph unicode="t" horiz-adv-x="653" d="M565 209L543 27Q508 4 465 -9T367 -23Q259 -23 210 49T160 252V891H43V1075H160V1389L356 1493V1075H563V891H356V270Q356 213 377 189T438 164Q476 164 510 177T565 209Z"/><glyph unicode="u" horiz-adv-x="913" d="M797 0H600V74Q568 32 514 5T391 -23Q313 -23 260 2T173 77T126 204T111 381V1075H307V414Q307 347 314 300T336 222T377 178T440 164Q487 164 529 189T600 262V1075H797V0Z"/><glyph unicode="v" horiz-adv-x="852" d="M811 1075L543 0H315L45 1075H246L377 496Q383 470 391 432T407 354T422 279T432 225Q435 244 441 279T456 355T472 435T485 500L610 1075H811Z"/><glyph unicode="w" horiz-adv-x="1223" d="M1174 1075L952 0H768L657 518Q652 543 645 580T630 656T617 729T608 782Q605 763 599 729T586 655T572 578T559 512L451 0H266L49 1075H238L317 616Q321 592 328 548T342 455T356 365T365 303Q367 316 371 340T380 395T392 458T404 523T415 579T424 621L522 1075H700L803 621Q806 605 811 580T823 523T835 459T847 395T857 341T864 303Q865 316 868 340T876 393T885 456T894 519T903 575T909 616L985 1075H1174Z"/><glyph unicode="x" horiz-adv-x="903" d="M848 0H625L526 227Q518 245 509 270T489 322T470 372T455 412Q449 396 440 374T421 326T399 273T377 221L279 0H55L330 561L78 1075H299L377 895Q384 877 394 852T415 801T435 751T451 711Q456 727 464 750T483 798T504 850T526 901L602 1075H825L575 561L848 0Z"/><glyph unicode="y" horiz-adv-x="889" d="M844 1075L420 -379H227L344 0L45 1075H254L379 565Q386 534 395 493T414 409T430 330T442 272Q446 293 454 330T471 409T490 494T508 567L635 1075H844Z"/><glyph unicode="z" horiz-adv-x="834" d="M739 0H74V168L432 743Q461 790 486 830T532 895Q518 894 494 894T443 893T389 893T342 893H109V1075H739V909L391 332Q363 285 337 245T291 180Q306 181 330 181T381 182T434 182T481 182H739V0Z"/><glyph unicode="{" horiz-adv-x="707" d="M633 -225Q508 -225 428 -198T302 -116T237 19T219 207V346Q219 401 212 436T191 491T159 520T117 528H63V700H117Q140 700 158 708T190 736T211 792T219 883V1024Q219 1131 237 1212T301 1347T428 1428T633 1456V1313Q564 1305 522 1286T457 1235T426 1156T418 1047V934Q418 862 410 809T382 718T332 655T254 614Q300 598 331 573T382 511T409 420T418 295V184Q418 121 425 75T456 -4T522 -55T633 -82V-225Z"/><glyph unicode="|" horiz-adv-x="504" d="M344 -379H160V1638H344V-379Z"/><glyph unicode="}" horiz-adv-x="707" d="M643 530H590Q567 530 548 522T516 494T495 438T487 348V207Q487 100 469 19T405 -116T279 -197T74 -225V-82Q143 -74 185 -55T250 -4T281 74T289 184V297Q289 369 297 422T325 512T375 575T453 616Q407 632 376 657T325 720T298 811T289 936V1047Q289 1110 282 1156T251 1234T185 1286T74 1313V1456Q198 1456 278 1429T405 1347T469 1212T487 1024V885Q487 830 494 795T515 739T548 710T590 702H643V530Z"/><glyph unicode="~" horiz-adv-x="1151" d="M1065 868Q1037 797 1006 744T938 654T855 599T752 580Q720 580 695 584T648 596T603 618T555 649Q522 671 497 687T452 712T416 726T385 731Q360 731 342 724T306 698T272 650T233 575L86 651Q114 722 145 776T213 866T296 921T399 940Q430 940 455 936T503 923T548 901T596 870Q655 830 696 809T764 788Q788 788 807 795T843 821T878 869T918 944L1065 868Z"/><glyph unicode=" " horiz-adv-x="225"/><glyph unicode="¡" horiz-adv-x="508" d="M393 1317Q393 1288 382 1262T353 1217T309 1187T254 1176Q225 1176 200 1187T155 1217T126 1262T115 1317Q115 1346 125 1371T155 1415T199 1445T254 1456Q283 1456 308 1445T352 1416T382 1372T393 1317ZM354 0H154V713L186 1020H322L354 713V0Z"/><glyph unicode="¢" horiz-adv-x="840" d="M768 360Q726 294 673 247T547 180V-23H344V186Q283 205 235 248T152 358T99 516T80 725Q80 958 148 1094T344 1272V1456H547V1280Q625 1263 677 1214T766 1102L627 981Q588 1044 549 1076T457 1108Q410 1108 377 1082T321 1007T289 888T279 729Q279 644 289 575T322 456T380 379T463 352Q512 352 550 383T627 477L768 360Z"/><glyph unicode="£" horiz-adv-x="961" d="M913 1303L791 1153Q755 1184 726 1203T670 1234T612 1250T541 1255Q465 1255 422 1211T379 1092Q379 1038 393 988T428 889Q444 855 455 824T475 758H709V580H485Q482 518 472 467T443 369T399 277T338 182H885V0H123V209Q171 260 202 304T253 392T282 480T293 580H123V758H272Q263 783 253 808T229 860Q206 907 190 969T174 1094Q174 1178 199 1245T271 1359T388 1431T545 1456Q606 1456 655 1448T747 1420T830 1372T913 1303Z"/><glyph unicode="¤" horiz-adv-x="1152" d="M1056 392L940 284L740 500Q668 452 572 452Q480 452 408 500L208 284L92 392L300 608Q272 648 262 686T252 780Q252 828 262 870T300 952L92 1168L208 1276L408 1060Q480 1108 572 1108Q668 1108 740 1060L944 1276L1060 1156L852 952Q880 912 890 872T900 780Q900 684 848 608L1056 392ZM748 780Q748 860 698 910T572 960Q496 960 448 910T400 780Q400 700 450 652T572 604Q652 604 700 652T748 780Z"/><glyph unicode="¥" horiz-adv-x="948" d="M903 1434L575 610V430H784V248H575V0H383V248H174V430H383V604L45 1434H270L377 1135Q390 1099 405 1055T435 966T462 882T481 815Q488 842 500 882T526 966T556 1055T584 1137L686 1434H903Z"/><glyph unicode="¦" horiz-adv-x="640" d="M216 788V1636H424V788H216ZM216 -412V440H424V-412H216Z"/><glyph unicode="§" horiz-adv-x="1038" d="M946 535Q946 476 931 430T890 346T830 279T756 227Q808 181 834 127T860 -2Q860 -77 837 -138T768 -244T655 -312T500 -336Q448 -336 403 -329T318 -306T239 -270T162 -219L270 -63Q332 -108 387 -126T506 -145Q571 -145 609 -112T647 -14Q647 13 637 36T602 82T536 129T430 186Q343 229 279 268T174 353T112 454T92 586Q92 644 107 690T148 774T209 841T283 893Q230 939 204 993T178 1122Q178 1197 201 1258T270 1364T383 1432T539 1456Q590 1456 635 1449T721 1426T800 1389T877 1339L768 1184Q706 1228 651 1247T532 1266Q467 1266 429 1233T391 1135Q391 1107 401 1084T435 1038T502 990T608 934Q696 891 759 852T864 767T926 667T946 535ZM735 516Q735 556 725 586T689 644T620 697T510 756Q493 765 477 772T444 788Q379 758 341 714T303 604Q303 564 313 534T349 477T418 424T528 365Q545 355 561 348T594 332Q659 363 697 406T735 516Z"/><glyph unicode="¨" horiz-adv-x="819" d="M719 1346Q719 1320 709 1297T681 1257T640 1230T592 1219Q566 1219 543 1229T502 1257T474 1297T463 1346Q463 1372 473 1395T501 1436T542 1464T592 1475Q617 1475 640 1465T680 1437T708 1396T719 1346ZM356 1346Q356 1320 346 1297T318 1257T278 1230T229 1219Q203 1219 180 1229T139 1257T111 1297T100 1346Q100 1372 110 1395T138 1436T179 1464T229 1475Q254 1475 277 1465T318 1437T345 1396T356 1346Z"/><glyph unicode="©" horiz-adv-x="1323" d="M1231 717Q1231 549 1189 412T1070 179T890 30T662 -23Q538 -23 434 29T253 178T135 412T92 717Q92 885 134 1021T253 1254T433 1403T662 1456Q785 1456 889 1404T1070 1255T1188 1022T1231 717ZM1112 715Q1112 856 1081 972T991 1170T849 1298T662 1343Q558 1343 475 1298T333 1172T243 975T211 719Q211 578 243 462T334 264T478 136T666 90Q769 90 852 135T992 262T1081 459T1112 715ZM877 512Q868 467 852 429T810 362T748 319T662 303Q596 303 551 335T477 425T437 558T424 721Q424 809 437 885T480 1018T555 1106T666 1139Q717 1139 753 1125T814 1084T854 1021T877 940L758 911Q747 963 727 990T662 1018Q626 1018 603 992T567 923T550 828T545 723Q545 669 551 616T571 520T609 451T670 424Q708 424 730 454T768 547L877 512Z"/><glyph unicode="ª" horiz-adv-x="774" d="M662 567H502V627Q437 549 324 549Q276 549 233 567T158 621T106 712T86 840Q86 911 107 964T166 1054T256 1108T371 1126Q411 1126 443 1118T502 1098V1182Q502 1245 478 1276T389 1307Q349 1307 309 1295T219 1251L152 1372Q212 1412 275 1434T397 1456Q469 1456 519 1443T601 1399T647 1318T662 1196V567ZM502 774V948Q474 965 446 973T371 981Q315 981 281 948T246 844Q246 766 274 729T354 692Q407 692 443 714T502 774Z"/><glyph unicode="«" horiz-adv-x="1004" d="M911 0H711L434 537L711 1075H911L645 539L911 0ZM518 0H317L41 537L317 1075H518L252 539L518 0Z"/><glyph unicode="¬" horiz-adv-x="1536" d="M1116 352V728H212V920H1296V352H1116Z"/><glyph unicode="­" horiz-adv-x="614" d="M532 647H82V852H532V647Z"/><glyph unicode="®" horiz-adv-x="1323" d="M1231 717Q1231 549 1189 412T1070 179T890 30T662 -23Q538 -23 434 29T253 178T135 412T92 717Q92 885 134 1021T253 1254T433 1403T662 1456Q785 1456 889 1404T1070 1255T1188 1022T1231 717ZM1112 715Q1112 856 1081 972T991 1170T849 1298T662 1343Q558 1343 475 1298T333 1172T243 975T211 719Q211 578 243 462T334 264T478 136T666 90Q769 90 852 135T992 262T1081 459T1112 715ZM915 907Q915 824 879 773T786 698L913 330H782L664 676H578V330H459V1137H686Q731 1137 772 1124T845 1084T896 1012T915 907ZM793 907Q793 938 785 959T761 994T726 1014T682 1020H578V791H678Q732 791 762 818T793 907Z"/><glyph unicode="¯" horiz-adv-x="819" d="M676 1249H143V1423H676V1249Z"/><glyph unicode="°" horiz-adv-x="819" d="M754 1114Q754 1040 728 977T655 868T546 795T410 768Q338 768 275 794T166 867T93 977T66 1114Q66 1186 92 1248T165 1356T275 1429T410 1456Q483 1456 545 1430T654 1357T727 1248T754 1114ZM592 1114Q592 1151 578 1184T540 1242T482 1281T410 1296Q372 1296 339 1282T281 1242T242 1184T227 1114Q227 1075 241 1041T280 982T338 943T410 928Q448 928 481 942T539 982T578 1041T592 1114Z"/><glyph unicode="±" horiz-adv-x="1536" d="M672 352V764H200V936H672V1352H864V936H1340V764H864V352H672ZM204 24V216H1336V24H204Z"/><glyph unicode="²" horiz-adv-x="896" d="M56 628V768L400 1108Q472 1176 512 1230T552 1352Q552 1404 506 1436T400 1468Q336 1468 276 1430T172 1348L64 1456Q124 1520 220 1570T428 1620Q568 1620 658 1540T748 1344Q748 1236 658 1134T492 976L268 788H776V628H56Z"/><glyph unicode="³" horiz-adv-x="896" d="M48 732L152 864Q216 816 284 796T424 776Q524 776 572 818T620 928Q620 1004 552 1040T384 1076H312V1204H372Q472 1204 530 1242T588 1336Q588 1400 536 1428T412 1456Q332 1456 272 1430T176 1384L88 1516Q176 1572 268 1596T448 1620Q596 1620 684 1556T772 1376Q772 1276 710 1222T548 1148Q664 1136 738 1080T812 904Q812 764 700 688T432 612Q300 612 206 646T48 732Z"/><glyph unicode="´" horiz-adv-x="819" d="M676 1546L379 1219H211L399 1546H676Z"/><glyph unicode="µ" horiz-adv-x="1408" d="M252 -424Q196 -424 168 -392T140 -280Q140 -200 144 -106T156 100Q164 200 168 256T172 328Q176 348 176 356T176 368V1176H368V320Q368 228 450 176T628 124Q760 124 858 190T1008 380V1176H1200V308L1220 0H1056L1020 176Q952 68 836 14T572 -40Q520 -40 444 -14T324 60Q324 -28 352 -112T380 -264Q380 -424 252 -424Z"/><glyph unicode="¶" horiz-adv-x="1243" d="M1110 -379H915V1237H754V-379H559V584H487Q416 584 345 607T216 681T122 811T86 1001Q86 1110 120 1191T211 1327T344 1407T500 1434H1110V-379Z"/><glyph unicode="·" horiz-adv-x="475" d="M381 752Q381 722 370 696T340 650T294 619T238 608Q208 608 182 619T136 649T105 695T94 752Q94 782 105 808T135 854T181 885T238 897Q268 897 294 886T339 854T370 808T381 752Z"/><glyph unicode="¸" horiz-adv-x="819" d="M635 -225Q635 -313 577 -354T416 -395Q354 -395 306 -380T209 -336L250 -270Q285 -289 325 -297T399 -305Q450 -305 475 -285T500 -231Q500 -197 485 -181T446 -164Q422 -164 407 -169T371 -188L305 -162L344 25H440L418 -98Q448 -80 504 -80Q531 -80 554 -88T596 -115T624 -160T635 -225Z"/><glyph unicode="¹" horiz-adv-x="768" d="M324 628V1424L144 1384V1528L392 1636H508V628H324Z"/><glyph unicode="º" horiz-adv-x="786" d="M707 1006Q707 891 684 806T619 663T518 578T387 549Q319 549 263 576T166 658T103 798T80 997Q80 1112 102 1198T165 1341T264 1427T395 1456Q464 1456 521 1429T620 1345T684 1205T707 1006ZM545 1001Q545 1150 506 1226T391 1303Q316 1303 278 1227T240 1001Q240 852 279 776T393 700Q430 700 458 721T506 783T535 878T545 1001Z"/><glyph unicode="»" horiz-adv-x="1004" d="M963 539L686 0H485L752 537L485 1075H686L963 539ZM569 539L293 0H92L358 537L92 1075H293L569 539Z"/><glyph unicode="¼" horiz-adv-x="1920" d="M368 0L1340 1524H1520L548 0H368ZM292 628V1424L112 1384V1528L360 1636H476V628H292ZM1540 0V220H1060V360L1512 980H1724V376H1844V220H1724V0H1540ZM1260 368H1540V768L1260 368Z"/><glyph unicode="½" horiz-adv-x="1920" d="M276 0L1248 1524H1428L456 0H276ZM268 628V1424L88 1384V1528L336 1636H452V628H268ZM1136 0V140L1480 480Q1552 548 1592 602T1632 724Q1632 776 1586 808T1480 840Q1416 840 1356 802T1252 720L1144 828Q1204 892 1300 942T1508 992Q1648 992 1738 912T1828 716Q1828 608 1738 506T1572 348L1348 160H1856V0H1136Z"/><glyph unicode="¾" horiz-adv-x="1920" d="M440 0L1412 1524H1592L620 0H440ZM48 732L152 864Q216 816 284 796T424 776Q524 776 572 818T620 928Q620 1004 552 1040T384 1076H312V1204H372Q472 1204 530 1242T588 1336Q588 1400 536 1428T412 1456Q332 1456 272 1430T176 1384L88 1516Q176 1572 268 1596T448 1620Q596 1620 684 1556T772 1376Q772 1276 710 1222T548 1148Q664 1136 738 1080T812 904Q812 764 700 688T432 612Q300 612 206 646T48 732ZM1564 0V220H1084V360L1536 980H1748V376H1868V220H1748V0H1564ZM1284 368H1564V768L1284 368Z"/><glyph unicode="¿" horiz-adv-x="924" d="M643 1317Q643 1288 632 1262T603 1217T559 1187T504 1176Q475 1176 450 1187T405 1217T376 1262T365 1317Q365 1346 375 1371T405 1415T449 1445T504 1456Q533 1456 558 1445T602 1416T632 1372T643 1317ZM887 172Q843 128 796 92T696 31T585 -9T461 -23Q368 -23 297 3T179 76T107 188T82 334Q82 407 98 461T142 559T210 635T295 700Q335 728 357 756T391 820T405 904T408 1020H614Q614 930 609 864T582 744T520 646T406 553Q346 513 318 464T289 352Q289 309 302 277T339 224T396 191T469 180Q507 180 542 189T613 215T685 259T760 322L887 172Z"/><glyph unicode="À" horiz-adv-x="1012" d="M961 0H741L657 379H346L264 0H51L403 1434H610L961 0ZM616 569L563 811Q555 846 546 892T529 983T513 1066T502 1124Q498 1104 491 1066T475 984T457 893T440 811L387 569H616ZM608 1526H440L143 1853H420L608 1526Z"/><glyph unicode="Á" horiz-adv-x="1012" d="M961 0H741L657 379H346L264 0H51L403 1434H610L961 0ZM616 569L563 811Q555 846 546 892T529 983T513 1066T502 1124Q498 1104 491 1066T475 984T457 893T440 811L387 569H616ZM869 1853L572 1526H404L592 1853H869Z"/><glyph unicode="Â" horiz-adv-x="1012" d="M961 0H741L657 379H346L264 0H51L403 1434H610L961 0ZM616 569L563 811Q555 846 546 892T529 983T513 1066T502 1124Q498 1104 491 1066T475 984T457 893T440 811L387 569H616ZM821 1504H661L504 1684L346 1504H190L399 1831H612L821 1504Z"/><glyph unicode="Ã" horiz-adv-x="1012" d="M961 0H741L657 379H346L264 0H51L403 1434H610L961 0ZM616 569L563 811Q555 846 546 892T529 983T513 1066T502 1124Q498 1104 491 1066T475 984T457 893T440 811L387 569H616ZM854 1773Q854 1710 840 1662T799 1581T738 1532T661 1515Q635 1515 611 1520T562 1535T508 1560T444 1597Q406 1622 377 1622Q346 1622 329 1601T305 1526H170Q170 1589 185 1636T226 1716T289 1764T366 1780Q392 1780 415 1775T463 1760T516 1735T579 1698Q619 1673 651 1673Q682 1673 697 1696T719 1773H854Z"/><glyph unicode="Ä" horiz-adv-x="1012" d="M961 0H741L657 379H346L264 0H51L403 1434H610L961 0ZM616 569L563 811Q555 846 546 892T529 983T513 1066T502 1124Q498 1104 491 1066T475 984T457 893T440 811L387 569H616ZM815 1653Q815 1627 805 1604T777 1564T736 1537T688 1526Q662 1526 639 1536T598 1564T570 1604T559 1653Q559 1679 569 1702T597 1743T638 1771T688 1782Q713 1782 736 1772T776 1744T804 1703T815 1653ZM452 1653Q452 1627 442 1604T414 1564T374 1537T325 1526Q299 1526 276 1536T235 1564T207 1604T196 1653Q196 1679 206 1702T234 1743T275 1771T325 1782Q350 1782 373 1772T414 1744T441 1703T452 1653Z"/><glyph unicode="Å" horiz-adv-x="1012" d="M961 0H741L657 379H346L264 0H51L375 1317Q328 1346 301 1396T274 1509Q274 1559 291 1601T340 1675T413 1723T506 1741Q556 1741 598 1724T671 1675T719 1602T737 1509Q737 1447 711 1398T639 1319L961 0ZM618 1509Q618 1534 610 1555T586 1591T551 1615T506 1624Q482 1624 462 1616T426 1592T402 1555T393 1509Q393 1485 401 1464T425 1428T461 1404T506 1395Q530 1395 550 1403T586 1427T609 1464T618 1509ZM616 569L563 811Q555 846 546 892T529 983T513 1066T502 1124Q498 1104 491 1066T475 984T457 893T440 811L387 569H616Z"/><glyph unicode="Æ" horiz-adv-x="1366" d="M1298 0H629V338H348L238 0H35L530 1434H1272V1239H819V856H1108V664H819V195H1298V0ZM633 1223Q626 1198 615 1162T591 1086T567 1010T547 946L410 528H629V965Q629 989 629 1022T630 1090T631 1161T633 1223Z"/><glyph unicode="Ç" horiz-adv-x="983" d="M895 340Q879 262 852 197T782 85T679 9T537 -23L522 -98Q538 -89 558 -85T608 -80Q635 -80 659 -88T700 -115T728 -160T739 -225Q739 -313 681 -354T520 -395Q458 -395 411 -380T313 -336L354 -270Q389 -289 429 -297T504 -305Q555 -305 579 -285T604 -231Q604 -197 589 -181T551 -164Q526 -164 512 -169T475 -188L410 -162L440 -16Q345 2 279 66T171 227T111 450T92 715Q92 871 116 1006T192 1241T325 1398T520 1456Q610 1456 674 1430T783 1358T854 1247T893 1106L690 1055Q680 1103 667 1140T634 1202T585 1240T514 1253Q470 1253 438 1231T381 1171T341 1081T316 970T303 846T299 719Q299 620 310 524T348 351T419 227T528 180Q564 180 591 192T640 232T677 300T709 399L895 340Z"/><glyph unicode="È" horiz-adv-x="911" d="M844 0H143V1434H817V1239H344V856H653V664H344V195H844V0ZM576 1526H408L111 1853H388L576 1526Z"/><glyph unicode="É" horiz-adv-x="911" d="M844 0H143V1434H817V1239H344V856H653V664H344V195H844V0ZM836 1853L539 1526H371L559 1853H836Z"/><glyph unicode="Ê" horiz-adv-x="911" d="M844 0H143V1434H817V1239H344V856H653V664H344V195H844V0ZM788 1526H628L471 1706L313 1526H157L366 1853H579L788 1526Z"/><glyph unicode="Ë" horiz-adv-x="911" d="M844 0H143V1434H817V1239H344V856H653V664H344V195H844V0ZM782 1653Q782 1627 772 1604T744 1564T703 1537T655 1526Q629 1526 606 1536T565 1564T537 1604T526 1653Q526 1679 536 1702T564 1743T605 1771T655 1782Q680 1782 703 1772T743 1744T771 1703T782 1653ZM419 1653Q419 1627 409 1604T381 1564T341 1537T292 1526Q266 1526 243 1536T202 1564T174 1604T163 1653Q163 1679 173 1702T201 1743T242 1771T292 1782Q317 1782 340 1772T381 1744T408 1703T419 1653Z"/><glyph unicode="Ì" horiz-adv-x="508" d="M354 0H154V1434H354V0ZM347 1526H179L-118 1853H159L347 1526Z"/><glyph unicode="Í" horiz-adv-x="508" d="M354 0H154V1434H354V0ZM628 1853L331 1526H163L351 1853H628Z"/><glyph unicode="Î" horiz-adv-x="508" d="M354 0H154V1434H354V0ZM570 1512H410L253 1692L95 1512H-61L148 1839H361L570 1512Z"/><glyph unicode="Ï" horiz-adv-x="508" d="M354 0H154V1434H354V0ZM564 1653Q564 1627 554 1604T526 1564T485 1537T437 1526Q411 1526 388 1536T347 1564T319 1604T308 1653Q308 1679 318 1702T346 1743T387 1771T437 1782Q462 1782 485 1772T525 1744T553 1703T564 1653ZM201 1653Q201 1627 191 1604T163 1564T123 1537T74 1526Q48 1526 25 1536T-16 1564T-44 1604T-55 1653Q-55 1679 -45 1702T-17 1743T24 1771T74 1782Q99 1782 122 1772T163 1744T190 1703T201 1653Z"/><glyph unicode="Ð" horiz-adv-x="1059" d="M967 723Q967 563 939 430T853 202T711 53T512 0H164V657H61V842H164V1434H512Q631 1434 717 1383T858 1239T940 1014T967 723ZM760 723Q760 786 755 848T739 968T708 1074T661 1160T595 1216T506 1237H360V842H526V657H360V197H512Q560 197 597 218T662 277T708 365T738 474T755 596T760 723Z"/><glyph unicode="Ñ" horiz-adv-x="1090" d="M946 0H782L436 768Q425 791 411 825T383 893T356 958T336 1004Q337 984 337 946T338 866T339 784T340 717V0H143V1434H344L653 752Q664 729 678 695T707 627T734 562T754 516Q753 536 753 573T752 653T751 736T750 803V1434H946V0ZM893 1777Q893 1714 879 1666T838 1585T777 1536T700 1519Q674 1519 650 1524T601 1539T547 1564T483 1601Q445 1626 416 1626Q385 1626 368 1605T344 1530H209Q209 1593 224 1640T265 1720T328 1768T405 1784Q431 1784 454 1779T502 1764T555 1739T618 1702Q658 1677 690 1677Q721 1677 736 1700T758 1777H893Z"/><glyph unicode="Ò" horiz-adv-x="1051" d="M958 719Q958 563 933 428T854 192T718 35T522 -23Q408 -23 327 34T194 190T117 424T92 715Q92 871 117 1006T194 1241T328 1398T524 1456Q638 1456 720 1400T855 1244T933 1010T958 719ZM754 715Q754 815 742 911T703 1084T630 1208T520 1255Q476 1255 443 1234T385 1176T343 1087T316 977T302 851T297 719Q297 652 302 587T318 461T347 349T390 259T450 200T528 178Q571 178 605 199T664 258T706 347T734 457T749 583T754 715ZM622 1526H454L157 1853H434L622 1526Z"/><glyph unicode="Ó" horiz-adv-x="1051" d="M958 719Q958 563 933 428T854 192T718 35T522 -23Q408 -23 327 34T194 190T117 424T92 715Q92 871 117 1006T194 1241T328 1398T524 1456Q638 1456 720 1400T855 1244T933 1010T958 719ZM754 715Q754 815 742 911T703 1084T630 1208T520 1255Q476 1255 443 1234T385 1176T343 1087T316 977T302 851T297 719Q297 652 302 587T318 461T347 349T390 259T450 200T528 178Q571 178 605 199T664 258T706 347T734 457T749 583T754 715ZM883 1853L586 1526H418L606 1853H883Z"/><glyph unicode="Ô" horiz-adv-x="1051" d="M958 719Q958 563 933 428T854 192T718 35T522 -23Q408 -23 327 34T194 190T117 424T92 715Q92 871 117 1006T194 1241T328 1398T524 1456Q638 1456 720 1400T855 1244T933 1010T958 719ZM754 715Q754 815 742 911T703 1084T630 1208T520 1255Q476 1255 443 1234T385 1176T343 1087T316 977T302 851T297 719Q297 652 302 587T318 461T347 349T390 259T450 200T528 178Q571 178 605 199T664 258T706 347T734 457T749 583T754 715ZM836 1516H676L519 1696L361 1516H205L414 1843H627L836 1516Z"/><glyph unicode="Õ" horiz-adv-x="1051" d="M958 719Q958 563 933 428T854 192T718 35T522 -23Q408 -23 327 34T194 190T117 424T92 715Q92 871 117 1006T194 1241T328 1398T524 1456Q638 1456 720 1400T855 1244T933 1010T958 719ZM754 715Q754 815 742 911T703 1084T630 1208T520 1255Q476 1255 443 1234T385 1176T343 1087T316 977T302 851T297 719Q297 652 302 587T318 461T347 349T390 259T450 200T528 178Q571 178 605 199T664 258T706 347T734 457T749 583T754 715ZM869 1773Q869 1710 855 1662T814 1581T753 1532T676 1515Q650 1515 626 1520T577 1535T523 1560T459 1597Q421 1622 392 1622Q361 1622 344 1601T320 1526H185Q185 1589 200 1636T241 1716T304 1764T381 1780Q407 1780 430 1775T478 1760T531 1735T594 1698Q634 1673 666 1673Q697 1673 712 1696T734 1773H869Z"/><glyph unicode="Ö" horiz-adv-x="1051" d="M958 719Q958 563 933 428T854 192T718 35T522 -23Q408 -23 327 34T194 190T117 424T92 715Q92 871 117 1006T194 1241T328 1398T524 1456Q638 1456 720 1400T855 1244T933 1010T958 719ZM754 715Q754 815 742 911T703 1084T630 1208T520 1255Q476 1255 443 1234T385 1176T343 1087T316 977T302 851T297 719Q297 652 302 587T318 461T347 349T390 259T450 200T528 178Q571 178 605 199T664 258T706 347T734 457T749 583T754 715ZM828 1653Q828 1627 818 1604T790 1564T749 1537T701 1526Q675 1526 652 1536T611 1564T583 1604T572 1653Q572 1679 582 1702T610 1743T651 1771T701 1782Q726 1782 749 1772T789 1744T817 1703T828 1653ZM465 1653Q465 1627 455 1604T427 1564T387 1537T338 1526Q312 1526 289 1536T248 1564T220 1604T209 1653Q209 1679 219 1702T247 1743T288 1771T338 1782Q363 1782 386 1772T427 1744T454 1703T465 1653Z"/><glyph unicode="×" horiz-adv-x="1536" d="M472 376L352 492L648 792L352 1088L480 1212L768 912L1068 1204L1184 1088L892 792L1184 492L1068 376L768 668L472 376Z"/><glyph unicode="Ø" horiz-adv-x="1051" d="M958 719Q958 563 933 428T854 192T718 35T522 -23Q479 -23 441 -14T369 10L332 -102H156L233 125Q159 227 126 379T92 715Q92 871 117 1006T194 1241T328 1398T524 1456Q568 1456 605 1448T676 1423L715 1536H891L813 1309Q850 1259 877 1195T923 1056T949 896T958 719ZM612 1233Q592 1247 569 1254T520 1262Q476 1262 442 1241T383 1181T341 1091T313 979T298 853T293 719Q293 628 301 544T328 391L612 1233ZM758 715Q758 808 750 891T721 1047L434 203Q454 187 478 180T528 172Q594 172 638 219T709 342T747 516T758 715Z"/><glyph unicode="Ù" horiz-adv-x="1077" d="M940 426Q940 321 912 238T832 97T705 8T539 -23Q450 -23 376 8T249 98T167 236T137 414V1434H338V422Q338 377 348 334T382 257T444 201T539 180Q598 180 637 202T699 258T731 335T741 420V1434H940V426ZM643 1506H475L178 1833H455L643 1506Z"/><glyph unicode="Ú" horiz-adv-x="1077" d="M940 426Q940 321 912 238T832 97T705 8T539 -23Q450 -23 376 8T249 98T167 236T137 414V1434H338V422Q338 377 348 334T382 257T444 201T539 180Q598 180 637 202T699 258T731 335T741 420V1434H940V426ZM903 1833L606 1506H438L626 1833H903Z"/><glyph unicode="Û" horiz-adv-x="1077" d="M940 426Q940 321 912 238T832 97T705 8T539 -23Q450 -23 376 8T249 98T167 236T137 414V1434H338V422Q338 377 348 334T382 257T444 201T539 180Q598 180 637 202T699 258T731 335T741 420V1434H940V426ZM856 1526H696L539 1706L381 1526H225L434 1853H647L856 1526Z"/><glyph unicode="Ü" horiz-adv-x="1077" d="M940 426Q940 321 912 238T832 97T705 8T539 -23Q450 -23 376 8T249 98T167 236T137 414V1434H338V422Q338 377 348 334T382 257T444 201T539 180Q598 180 637 202T699 258T731 335T741 420V1434H940V426ZM848 1653Q848 1627 838 1604T810 1564T769 1537T721 1526Q695 1526 672 1536T631 1564T603 1604T592 1653Q592 1679 602 1702T630 1743T671 1771T721 1782Q746 1782 769 1772T809 1744T837 1703T848 1653ZM485 1653Q485 1627 475 1604T447 1564T407 1537T358 1526Q332 1526 309 1536T268 1564T240 1604T229 1653Q229 1679 239 1702T267 1743T308 1771T358 1782Q383 1782 406 1772T447 1744T474 1703T485 1653Z"/><glyph unicode="Ý" horiz-adv-x="1010" d="M965 1434L610 641V0H410V635L45 1434H272L399 1135Q411 1108 428 1065T462 977T493 893T512 836Q517 855 531 894T561 978T594 1066T623 1137L745 1434H965ZM871 1843L574 1516H406L594 1843H871Z"/><glyph unicode="Þ" horiz-adv-x="979" d="M926 754Q926 645 892 564T801 429T668 349T512 322H344V0H143V1434H344V1171H522Q598 1171 670 1148T800 1074T891 945T926 754ZM719 748Q719 808 702 851T657 921T590 962T508 975H344V516H514Q558 516 595 530T660 573T703 645T719 748Z"/><glyph unicode="ß" horiz-adv-x="948" d="M862 446Q862 339 840 256T769 116T643 30T455 0H432V180H457Q565 180 614 245T664 440Q664 584 614 652T453 721H432V899H451Q493 899 523 914T574 957T604 1021T614 1102Q614 1201 579 1253T461 1305Q378 1305 346 1256T313 1110V-289L117 -395V1087Q117 1192 137 1267T199 1391T307 1463T465 1487Q549 1487 614 1462T723 1390T790 1275T813 1118Q813 1059 803 1013T774 931T728 869T668 823Q713 805 749 776T810 702T848 594T862 446Z"/><glyph unicode="à" horiz-adv-x="889" d="M774 0H578V74Q536 26 483 2T356 -23Q297 -23 244 -1T151 67T87 179T63 338Q63 425 89 491T161 601T272 668T414 690Q463 690 504 681T578 655V760Q578 838 548 875T438 913Q387 913 338 898T227 846L143 995Q218 1045 298 1071T453 1098Q540 1098 601 1082T700 1027T756 928T774 776V0ZM578 256V471Q542 493 507 502T416 512Q347 512 304 471T260 342Q260 246 296 201T395 156Q458 156 504 182T578 256ZM806 1219H638L341 1546H618L806 1219Z"/><glyph unicode="á" horiz-adv-x="889" d="M774 0H578V74Q536 26 483 2T356 -23Q297 -23 244 -1T151 67T87 179T63 338Q63 425 89 491T161 601T272 668T414 690Q463 690 504 681T578 655V760Q578 838 548 875T438 913Q387 913 338 898T227 846L143 995Q218 1045 298 1071T453 1098Q540 1098 601 1082T700 1027T756 928T774 776V0ZM578 256V471Q542 493 507 502T416 512Q347 512 304 471T260 342Q260 246 296 201T395 156Q458 156 504 182T578 256ZM809 1546L512 1219H344L532 1546H809Z"/><glyph unicode="â" horiz-adv-x="889" d="M774 0H578V74Q536 26 483 2T356 -23Q297 -23 244 -1T151 67T87 179T63 338Q63 425 89 491T161 601T272 668T414 690Q463 690 504 681T578 655V760Q578 838 548 875T438 913Q387 913 338 898T227 846L143 995Q218 1045 298 1071T453 1098Q540 1098 601 1082T700 1027T756 928T774 776V0ZM578 256V471Q542 493 507 502T416 512Q347 512 304 471T260 342Q260 246 296 201T395 156Q458 156 504 182T578 256ZM762 1466H602L445 1646L287 1466H131L340 1793H553L762 1466Z"/><glyph unicode="ã" horiz-adv-x="889" d="M774 0H578V74Q536 26 483 2T356 -23Q297 -23 244 -1T151 67T87 179T63 338Q63 425 89 491T161 601T272 668T414 690Q463 690 504 681T578 655V760Q578 838 548 875T438 913Q387 913 338 898T227 846L143 995Q218 1045 298 1071T453 1098Q540 1098 601 1082T700 1027T756 928T774 776V0ZM578 256V471Q542 493 507 502T416 512Q347 512 304 471T260 342Q260 246 296 201T395 156Q458 156 504 182T578 256ZM795 1466Q795 1403 781 1355T740 1274T679 1225T602 1208Q576 1208 552 1213T503 1228T449 1253T385 1290Q347 1315 318 1315Q287 1315 270 1294T246 1219H111Q111 1282 126 1329T167 1409T230 1457T307 1473Q333 1473 356 1468T404 1453T457 1428T520 1391Q560 1366 592 1366Q623 1366 638 1389T660 1466H795Z"/><glyph unicode="ä" horiz-adv-x="889" d="M774 0H578V74Q536 26 483 2T356 -23Q297 -23 244 -1T151 67T87 179T63 338Q63 425 89 491T161 601T272 668T414 690Q463 690 504 681T578 655V760Q578 838 548 875T438 913Q387 913 338 898T227 846L143 995Q218 1045 298 1071T453 1098Q540 1098 601 1082T700 1027T756 928T774 776V0ZM578 256V471Q542 493 507 502T416 512Q347 512 304 471T260 342Q260 246 296 201T395 156Q458 156 504 182T578 256ZM756 1593Q756 1567 746 1544T718 1504T677 1477T629 1466Q603 1466 580 1476T539 1504T511 1544T500 1593Q500 1619 510 1642T538 1683T579 1711T629 1722Q654 1722 677 1712T717 1684T745 1643T756 1593ZM393 1593Q393 1567 383 1544T355 1504T315 1477T266 1466Q240 1466 217 1476T176 1504T148 1544T137 1593Q137 1619 147 1642T175 1683T216 1711T266 1722Q291 1722 314 1712T355 1684T382 1643T393 1593Z"/><glyph unicode="å" horiz-adv-x="889" d="M774 0H578V74Q536 26 483 2T356 -23Q297 -23 244 -1T151 67T87 179T63 338Q63 425 89 491T161 601T272 668T414 690Q463 690 504 681T578 655V760Q578 838 548 875T438 913Q387 913 338 898T227 846L143 995Q218 1045 298 1071T453 1098Q540 1098 601 1082T700 1027T756 928T774 776V0ZM578 256V471Q542 493 507 502T416 512Q347 512 304 471T260 342Q260 246 296 201T395 156Q458 156 504 182T578 256ZM678 1448Q678 1398 661 1356T613 1284T540 1236T447 1219Q397 1219 355 1236T281 1283T233 1356T215 1448Q215 1498 232 1540T281 1613T354 1661T447 1679Q497 1679 539 1662T612 1614T660 1541T678 1448ZM559 1448Q559 1472 551 1493T527 1529T492 1554T447 1563Q423 1563 403 1554T367 1530T343 1493T334 1448Q334 1423 342 1402T366 1366T402 1342T447 1333Q471 1333 491 1341T527 1365T550 1402T559 1448Z"/><glyph unicode="æ" horiz-adv-x="1403" d="M1323 541Q1323 527 1323 507T1321 471H758Q767 311 821 239T961 166Q995 166 1021 170T1069 184T1111 209T1155 246L1276 121Q1248 90 1214 64T1140 19T1054 -12T956 -23Q905 -23 864 -13T789 17T729 66T680 133Q648 96 614 67T541 18T457 -12T356 -23Q297 -23 244 -1T151 67T87 179T63 338Q63 425 89 491T161 601T272 668T414 690Q463 690 504 681T578 655V760Q578 838 548 875T438 913Q387 913 338 898T227 846L143 995Q218 1045 296 1071T446 1098Q506 1098 547 1090T617 1066T667 1026T705 971Q722 996 745 1019T798 1059T864 1087T944 1098Q1025 1098 1094 1064T1214 960T1294 786T1323 541ZM1122 641Q1120 701 1107 751T1071 837T1015 893T940 913Q865 913 819 847T760 641H1122ZM578 256V471Q542 493 507 502T416 512Q347 512 304 471T260 342Q260 246 296 201T395 156Q458 156 504 182T578 256Z"/><glyph unicode="ç" horiz-adv-x="840" d="M768 168Q742 127 713 93T648 34T568 -6T469 -23L455 -98Q485 -80 541 -80Q568 -80 591 -88T633 -115T661 -160T672 -225Q672 -313 614 -354T453 -395Q391 -395 343 -380T246 -336L287 -270Q322 -289 362 -297T436 -305Q487 -305 512 -285T537 -231Q537 -197 522 -181T483 -164Q459 -164 444 -169T408 -188L342 -162L373 -14Q306 1 252 42T160 151T101 314T80 532Q80 673 106 779T181 956T302 1062T463 1098Q521 1098 567 1083T649 1043T714 983T766 909L625 786Q604 819 585 842T546 880T505 902T457 909Q410 909 377 884T321 811T289 694T279 537Q279 451 289 383T322 266T380 192T463 166Q512 166 549 194T627 285L768 168Z"/><glyph unicode="è" horiz-adv-x="922" d="M842 541Q842 527 842 507T840 471H276Q286 311 339 239T479 166Q513 166 539 170T587 184T630 209T674 246L795 121Q767 90 733 64T659 19T572 -12T475 -23Q379 -23 306 16T182 128T106 303T80 532Q80 673 108 779T186 956T307 1062T463 1098Q544 1098 613 1064T733 960T813 786T842 541ZM641 641Q639 701 626 751T589 837T533 893T459 913Q383 913 337 847T279 641H641ZM820 1219H652L355 1546H632L820 1219Z"/><glyph unicode="é" horiz-adv-x="922" d="M842 541Q842 527 842 507T840 471H276Q286 311 339 239T479 166Q513 166 539 170T587 184T630 209T674 246L795 121Q767 90 733 64T659 19T572 -12T475 -23Q379 -23 306 16T182 128T106 303T80 532Q80 673 108 779T186 956T307 1062T463 1098Q544 1098 613 1064T733 960T813 786T842 541ZM641 641Q639 701 626 751T589 837T533 893T459 913Q383 913 337 847T279 641H641ZM823 1546L526 1219H358L546 1546H823Z"/><glyph unicode="ê" horiz-adv-x="922" d="M842 541Q842 527 842 507T840 471H276Q286 311 339 239T479 166Q513 166 539 170T587 184T630 209T674 246L795 121Q767 90 733 64T659 19T572 -12T475 -23Q379 -23 306 16T182 128T106 303T80 532Q80 673 108 779T186 956T307 1062T463 1098Q544 1098 613 1064T733 960T813 786T842 541ZM641 641Q639 701 626 751T589 837T533 893T459 913Q383 913 337 847T279 641H641ZM776 1456H616L459 1636L301 1456H145L354 1783H567L776 1456Z"/><glyph unicode="ë" horiz-adv-x="922" d="M842 541Q842 527 842 507T840 471H276Q286 311 339 239T479 166Q513 166 539 170T587 184T630 209T674 246L795 121Q767 90 733 64T659 19T572 -12T475 -23Q379 -23 306 16T182 128T106 303T80 532Q80 673 108 779T186 956T307 1062T463 1098Q544 1098 613 1064T733 960T813 786T842 541ZM641 641Q639 701 626 751T589 837T533 893T459 913Q383 913 337 847T279 641H641ZM770 1593Q770 1567 760 1544T732 1504T691 1477T643 1466Q617 1466 594 1476T553 1504T525 1544T514 1593Q514 1619 524 1642T552 1683T593 1711T643 1722Q668 1722 691 1712T731 1684T759 1643T770 1593ZM407 1593Q407 1567 397 1544T369 1504T329 1477T280 1466Q254 1466 231 1476T190 1504T162 1544T151 1593Q151 1619 161 1642T189 1683T230 1711T280 1722Q305 1722 328 1712T369 1684T396 1643T407 1593Z"/><glyph unicode="ì" horiz-adv-x="451" d="M324 0H127V1075H324V0ZM318 1219H150L-147 1546H130L318 1219Z"/><glyph unicode="í" horiz-adv-x="451" d="M324 0H127V1075H324V0ZM855 1546L558 1219H390L578 1546H855Z"/><glyph unicode="î" horiz-adv-x="451" d="M324 0H127V1075H324V0ZM542 1189H382L225 1369L67 1189H-89L120 1516H333L542 1189Z"/><glyph unicode="ï" horiz-adv-x="451" d="M324 0H127V1075H324V0ZM536 1346Q536 1320 526 1297T498 1257T457 1230T409 1219Q383 1219 360 1229T319 1257T291 1297T280 1346Q280 1372 290 1395T318 1436T359 1464T409 1475Q434 1475 457 1465T497 1437T525 1396T536 1346ZM173 1346Q173 1320 163 1297T135 1257T95 1230T46 1219Q20 1219 -3 1229T-44 1257T-72 1297T-83 1346Q-83 1372 -73 1395T-45 1436T-4 1464T46 1475Q71 1475 94 1465T135 1437T162 1396T173 1346Z"/><glyph unicode="ð" horiz-adv-x="934" d="M854 596Q854 430 832 313T761 121T639 12T461 -23Q377 -23 307 6T187 96T108 250T80 471Q80 595 106 689T179 848T294 946T442 979Q478 979 507 975T562 959T611 930T657 885Q636 1037 561 1141L481 1057L367 1157L446 1241Q377 1279 291 1288V1456Q372 1448 441 1427T567 1368L651 1456L766 1356L680 1266Q770 1157 812 991T854 596ZM655 475Q655 639 606 712T465 786Q419 786 384 769T326 714T291 617T279 475Q279 392 291 334T327 238T386 183T467 166Q560 166 607 244T655 475Z"/><glyph unicode="ñ" horiz-adv-x="913" d="M803 0H606V662Q606 795 576 853T473 911Q427 911 385 886T313 813V0H117V1075H313V1001Q345 1043 399 1070T522 1098Q600 1098 653 1073T740 998T788 872T803 694V0ZM801 1466Q801 1403 787 1355T746 1274T685 1225T608 1208Q582 1208 558 1213T509 1228T455 1253T391 1290Q353 1315 324 1315Q293 1315 276 1294T252 1219H117Q117 1282 132 1329T173 1409T236 1457T313 1473Q339 1473 362 1468T410 1453T463 1428T526 1391Q566 1366 598 1366Q629 1366 644 1389T666 1466H801Z"/><glyph unicode="ò" horiz-adv-x="934" d="M854 541Q854 400 826 294T747 118T623 12T461 -23Q377 -23 307 11T187 113T108 286T80 532Q80 673 107 779T184 956T307 1062T469 1098Q554 1098 625 1064T747 960T826 786T854 541ZM655 537Q655 720 607 814T465 909Q372 909 326 816T279 537Q279 351 326 259T467 166Q513 166 548 192T607 267T643 384T655 537ZM822 1219H654L357 1546H634L822 1219Z"/><glyph unicode="ó" horiz-adv-x="934" d="M854 541Q854 400 826 294T747 118T623 12T461 -23Q377 -23 307 11T187 113T108 286T80 532Q80 673 107 779T184 956T307 1062T469 1098Q554 1098 625 1064T747 960T826 786T854 541ZM655 537Q655 720 607 814T465 909Q372 909 326 816T279 537Q279 351 326 259T467 166Q513 166 548 192T607 267T643 384T655 537ZM826 1546L529 1219H361L549 1546H826Z"/><glyph unicode="ô" horiz-adv-x="934" d="M854 541Q854 400 826 294T747 118T623 12T461 -23Q377 -23 307 11T187 113T108 286T80 532Q80 673 107 779T184 956T307 1062T469 1098Q554 1098 625 1064T747 960T826 786T854 541ZM655 537Q655 720 607 814T465 909Q372 909 326 816T279 537Q279 351 326 259T467 166Q513 166 548 192T607 267T643 384T655 537ZM778 1456H618L461 1636L303 1456H147L356 1783H569L778 1456Z"/><glyph unicode="õ" horiz-adv-x="934" d="M854 541Q854 400 826 294T747 118T623 12T461 -23Q377 -23 307 11T187 113T108 286T80 532Q80 673 107 779T184 956T307 1062T469 1098Q554 1098 625 1064T747 960T826 786T854 541ZM655 537Q655 720 607 814T465 909Q372 909 326 816T279 537Q279 351 326 259T467 166Q513 166 548 192T607 267T643 384T655 537ZM811 1466Q811 1403 797 1355T756 1274T695 1225T618 1208Q592 1208 568 1213T519 1228T465 1253T401 1290Q363 1315 334 1315Q303 1315 286 1294T262 1219H127Q127 1282 142 1329T183 1409T246 1457T323 1473Q349 1473 372 1468T420 1453T473 1428T536 1391Q576 1366 608 1366Q639 1366 654 1389T676 1466H811Z"/><glyph unicode="ö" horiz-adv-x="934" d="M854 541Q854 400 826 294T747 118T623 12T461 -23Q377 -23 307 11T187 113T108 286T80 532Q80 673 107 779T184 956T307 1062T469 1098Q554 1098 625 1064T747 960T826 786T854 541ZM655 537Q655 720 607 814T465 909Q372 909 326 816T279 537Q279 351 326 259T467 166Q513 166 548 192T607 267T643 384T655 537ZM772 1583Q772 1557 762 1534T734 1494T693 1467T645 1456Q619 1456 596 1466T555 1494T527 1534T516 1583Q516 1609 526 1632T554 1673T595 1701T645 1712Q670 1712 693 1702T733 1674T761 1633T772 1583ZM409 1583Q409 1557 399 1534T371 1494T331 1467T282 1456Q256 1456 233 1466T192 1494T164 1534T153 1583Q153 1609 163 1632T191 1673T232 1701T282 1712Q307 1712 330 1702T371 1674T398 1633T409 1583Z"/><glyph unicode="÷" horiz-adv-x="1536" d="M208 684V896H1328V684H208ZM768 228Q704 228 656 276T608 388Q608 452 650 500T768 548Q840 548 884 500T928 388Q928 324 880 276T768 228ZM768 1028Q704 1028 656 1076T608 1188Q608 1252 650 1300T768 1348Q840 1348 884 1300T928 1188Q928 1124 880 1076T768 1028Z"/><glyph unicode="ø" horiz-adv-x="934" d="M854 541Q854 400 826 294T747 118T623 12T461 -23Q432 -23 403 -19T348 -6L313 -102H145L213 80Q150 149 115 261T80 532Q80 673 107 779T184 956T307 1062T469 1098Q528 1098 582 1081L616 1178H784L717 995Q782 927 818 815T854 541ZM518 909Q494 918 465 918Q371 918 321 822T270 537Q270 464 276 408T297 307L518 909ZM664 537Q664 611 657 669T635 770L412 166Q426 161 439 160T467 158Q514 158 550 185T612 262T651 381T664 537Z"/><glyph unicode="ù" horiz-adv-x="913" d="M797 0H600V74Q568 32 514 5T391 -23Q313 -23 260 2T173 77T126 204T111 381V1075H307V414Q307 347 314 300T336 222T377 178T440 164Q487 164 529 189T600 262V1075H797V0ZM808 1219H640L343 1546H620L808 1219Z"/><glyph unicode="ú" horiz-adv-x="913" d="M797 0H600V74Q568 32 514 5T391 -23Q313 -23 260 2T173 77T126 204T111 381V1075H307V414Q307 347 314 300T336 222T377 178T440 164Q487 164 529 189T600 262V1075H797V0ZM811 1546L514 1219H346L534 1546H811Z"/><glyph unicode="û" horiz-adv-x="913" d="M797 0H600V74Q568 32 514 5T391 -23Q313 -23 260 2T173 77T126 204T111 381V1075H307V414Q307 347 314 300T336 222T377 178T440 164Q487 164 529 189T600 262V1075H797V0ZM764 1219H604L447 1399L289 1219H133L342 1546H555L764 1219Z"/><glyph unicode="ü" horiz-adv-x="913" d="M797 0H600V74Q568 32 514 5T391 -23Q313 -23 260 2T173 77T126 204T111 381V1075H307V414Q307 347 314 300T336 222T377 178T440 164Q487 164 529 189T600 262V1075H797V0ZM758 1346Q758 1320 748 1297T720 1257T679 1230T631 1219Q605 1219 582 1229T541 1257T513 1297T502 1346Q502 1372 512 1395T540 1436T581 1464T631 1475Q656 1475 679 1465T719 1437T747 1396T758 1346ZM395 1346Q395 1320 385 1297T357 1257T317 1230T268 1219Q242 1219 219 1229T178 1257T150 1297T139 1346Q139 1372 149 1395T177 1436T218 1464T268 1475Q293 1475 316 1465T357 1437T384 1396T395 1346Z"/><glyph unicode="ý" horiz-adv-x="889" d="M844 1075L420 -379H227L344 0L45 1075H254L379 565Q386 534 395 493T414 409T430 330T442 272Q446 293 454 330T471 409T490 494T508 567L635 1075H844ZM801 1783L504 1456H336L524 1783H801Z"/><glyph unicode="þ" horiz-adv-x="918" d="M838 526Q838 257 749 117T500 -23Q443 -23 399 -4T313 57V-293L117 -395V1391L313 1493V1004Q332 1025 352 1042T397 1071T449 1091T514 1098Q587 1098 647 1069T749 973T815 796T838 526ZM639 516Q639 621 629 696T599 820T547 890T473 913Q424 913 382 886T313 815V258Q345 209 391 186T483 162Q522 162 551 181T599 243T629 353T639 516Z"/><glyph unicode="ÿ" horiz-adv-x="889" d="M844 1075L420 -379H227L344 0L45 1075H254L379 565Q386 534 395 493T414 409T430 330T442 272Q446 293 454 330T471 409T490 494T508 567L635 1075H844ZM748 1583Q748 1557 738 1534T710 1494T669 1467T621 1456Q595 1456 572 1466T531 1494T503 1534T492 1583Q492 1609 502 1632T530 1673T571 1701T621 1712Q646 1712 669 1702T709 1674T737 1633T748 1583ZM385 1583Q385 1557 375 1534T347 1494T307 1467T258 1456Q232 1456 209 1466T168 1494T140 1534T129 1583Q129 1609 139 1632T167 1673T208 1701T258 1712Q283 1712 306 1702T347 1674T374 1633T385 1583Z"/><glyph unicode="ı" horiz-adv-x="451" d="M324 0H127V1075H324V0Z"/><glyph unicode="Ł" horiz-adv-x="877" d="M823 0H164V465L82 397V612L164 680V1434H360V819L571 987V772L360 604V197H823V0Z"/><glyph unicode="ł" horiz-adv-x="508" d="M438 696L350 625V0H158V485L70 416V631L158 700V1391L350 1493V840L438 911V696Z"/><glyph unicode="Œ" horiz-adv-x="1505" d="M1438 0H778V129Q733 60 669 19T522 -23Q408 -23 327 34T194 190T117 424T92 715Q92 871 117 1006T194 1241T328 1398T524 1456Q611 1456 677 1416T778 1296V1434H1411V1239H938V856H1247V664H938V195H1438V0ZM754 715Q754 815 742 911T703 1084T630 1208T520 1255Q476 1255 443 1234T385 1176T343 1087T316 977T302 851T297 719Q297 652 302 587T318 461T347 349T390 259T450 200T528 178Q571 178 605 199T664 258T706 347T734 457T749 583T754 715Z"/><glyph unicode="œ" horiz-adv-x="1485" d="M1405 541Q1405 527 1405 507T1403 471H840Q844 391 860 334T903 239T964 184T1042 166Q1076 166 1102 170T1150 184T1193 209T1237 246L1358 121Q1330 90 1296 64T1222 19T1136 -12T1038 -23Q984 -23 939 -10T858 27T795 83T750 152Q730 114 702 82T638 27T557 -10T461 -23Q377 -23 307 11T187 113T108 286T80 532Q80 673 107 779T184 956T307 1062T469 1098Q568 1098 638 1051T748 926Q790 1003 858 1050T1026 1098Q1107 1098 1176 1064T1296 960T1376 786T1405 541ZM1204 641Q1202 701 1189 751T1153 837T1097 893T1022 913Q947 913 901 847T842 641H1204ZM655 537Q655 720 607 814T465 909Q372 909 326 816T279 537Q279 351 326 259T467 166Q513 166 548 192T607 267T643 384T655 537Z"/><glyph unicode="Š" horiz-adv-x="907" d="M825 371Q825 285 800 213T725 88T602 6T434 -23Q366 -23 310 -6T208 42T124 116T55 211L213 338Q242 292 270 261T326 212T383 186T446 178Q528 178 573 225T618 360Q618 402 608 436T571 505T498 576T379 662Q318 702 266 743T174 835T113 949T90 1098Q90 1176 115 1242T187 1355T302 1429T453 1456Q515 1456 565 1443T656 1406T733 1345T801 1262L653 1130Q627 1165 605 1189T558 1227T507 1248T446 1255Q374 1255 336 1214T297 1104Q297 1064 307 1032T341 968T406 906T506 836Q573 793 631 749T732 650T800 529T825 371ZM754 1863L545 1536H332L123 1863H283L441 1683L598 1863H754Z"/><glyph unicode="š" horiz-adv-x="797" d="M719 295Q719 218 696 159T630 60T525 -2T385 -23Q298 -23 213 8T55 92L131 256Q205 210 266 187T381 164Q447 164 484 196T522 281Q522 309 511 331T475 376T411 424T315 481Q265 510 224 539T154 605T108 688T92 799Q92 869 112 924T172 1018T269 1077T399 1098Q481 1098 556 1071T692 997L612 831Q560 869 503 890T395 911Q340 911 315 884T289 817Q289 793 296 773T322 733T376 690T465 635Q526 600 573 567T652 496T702 409T719 295ZM957 1546L748 1219H535L326 1546H486L644 1366L801 1546H957Z"/><glyph unicode="Ÿ" horiz-adv-x="1010" d="M965 1434L610 641V0H410V635L45 1434H272L399 1135Q411 1108 428 1065T462 977T493 893T512 836Q517 855 531 894T561 978T594 1066T623 1137L745 1434H965ZM815 1643Q815 1617 805 1594T777 1554T736 1527T688 1516Q662 1516 639 1526T598 1554T570 1594T559 1643Q559 1669 569 1692T597 1733T638 1761T688 1772Q713 1772 736 1762T776 1734T804 1693T815 1643ZM452 1643Q452 1617 442 1594T414 1554T374 1527T325 1516Q299 1516 276 1526T235 1554T207 1594T196 1643Q196 1669 206 1692T234 1733T275 1761T325 1772Q350 1772 373 1762T414 1734T441 1693T452 1643Z"/><glyph unicode="Ž" horiz-adv-x="942" d="M846 0H84V186L494 993Q512 1028 532 1067T572 1143T608 1207T633 1251Q617 1250 593 1250T540 1249T482 1248T426 1247H137V1434H834V1247L422 438Q404 403 384 365T344 290T308 226T283 182Q299 183 323 183T376 184T433 185T489 186H846V0ZM791 1853L582 1526H369L160 1853H320L478 1673L635 1853H791Z"/><glyph unicode="ž" horiz-adv-x="834" d="M739 0H74V168L432 743Q461 790 486 830T532 895Q518 894 494 894T443 893T389 893T342 893H109V1075H739V909L391 332Q363 285 337 245T291 180Q306 181 330 181T381 182T434 182T481 182H739V0ZM729 1546L520 1219H307L98 1546H258L416 1366L573 1546H729Z"/><glyph unicode="ƒ" horiz-adv-x="696" d="M633 1268Q608 1274 574 1277T518 1280Q455 1280 431 1253T406 1165V1075H602V895H406V-289L209 -395V895H100V1075H209V1196Q209 1268 226 1318T276 1398T355 1442T461 1456Q509 1456 552 1451T633 1436V1268Z"/><glyph unicode="ˆ" horiz-adv-x="819" d="M725 1219H565L408 1399L250 1219H94L303 1546H516L725 1219Z"/><glyph unicode="ˇ" horiz-adv-x="819" d="M725 1546L516 1219H303L94 1546H254L412 1366L569 1546H725Z"/><glyph unicode="˘" horiz-adv-x="819" d="M727 1546Q717 1472 693 1412T630 1309T536 1243T410 1219Q272 1219 192 1304T96 1546H238Q254 1466 294 1424T414 1382Q452 1382 480 1392T529 1424T563 1475T586 1546H727Z"/><glyph unicode="˙" horiz-adv-x="819" d="M541 1350Q541 1324 530 1300T501 1258T460 1230T410 1219Q383 1219 359 1229T316 1258T287 1300T276 1350Q276 1377 287 1401T316 1443T358 1472T410 1483Q436 1483 459 1472T501 1443T530 1401T541 1350Z"/><glyph unicode="˚" horiz-adv-x="819" d="M641 1448Q641 1398 624 1356T576 1284T503 1236T410 1219Q360 1219 318 1236T244 1283T196 1356T178 1448Q178 1498 195 1540T244 1613T317 1661T410 1679Q460 1679 502 1662T575 1614T623 1541T641 1448ZM522 1448Q522 1472 514 1493T490 1529T455 1554T410 1563Q386 1563 366 1554T330 1530T306 1493T297 1448Q297 1423 305 1402T329 1366T365 1342T410 1333Q434 1333 454 1341T490 1365T513 1402T522 1448Z"/><glyph unicode="˛" horiz-adv-x="819" d="M627 -307Q573 -345 518 -370T399 -395Q305 -395 258 -353T211 -236Q211 -202 224 -170T260 -107T316 -50T387 0H489Q424 -65 397 -114T369 -205Q369 -243 386 -266T446 -289Q461 -289 475 -287T506 -278T540 -263T582 -240L627 -307Z"/><glyph unicode="˜" horiz-adv-x="819" d="M758 1466Q758 1403 744 1355T703 1274T642 1225T565 1208Q539 1208 515 1213T466 1228T412 1253T348 1290Q310 1315 281 1315Q250 1315 233 1294T209 1219H74Q74 1282 89 1329T130 1409T193 1457T270 1473Q296 1473 319 1468T367 1453T420 1428T483 1391Q523 1366 555 1366Q586 1366 601 1389T623 1466H758Z"/><glyph unicode="˝" horiz-adv-x="819" d="M868 1546L571 1219H403L602 1546H868ZM479 1546L182 1219H14L213 1546H479Z"/><glyph unicode="̄" horiz-adv-x="819" d="M676 1249H143V1423H676V1249Z"/><glyph unicode="Δ" horiz-adv-x="1536" d="M76 0L652 1536H884L1456 0H76ZM352 148H1164L752 1256L352 148Z"/><glyph unicode="Ω" horiz-adv-x="1664" d="M832 1376Q644 1376 510 1234T376 836Q376 592 464 432T724 180V0H88V196H536Q416 240 304 406T192 848Q192 1112 358 1330T832 1548Q1140 1548 1306 1338T1472 848Q1472 572 1360 406T1128 196H1576V0H940V180Q1112 272 1200 432T1288 836Q1288 1044 1162 1210T832 1376Z"/><glyph unicode="μ" horiz-adv-x="1408" d="M252 -424Q196 -424 168 -392T140 -280Q140 -200 144 -106T156 100Q164 200 168 256T172 328Q176 348 176 356T176 368V1176H368V320Q368 228 450 176T628 124Q760 124 858 190T1008 380V1176H1200V308L1220 0H1056L1020 176Q952 68 836 14T572 -40Q520 -40 444 -14T324 60Q324 -28 352 -112T380 -264Q380 -424 252 -424Z"/><glyph unicode="π" horiz-adv-x="1408" d="M296 0V1028H12V1176H1316V1028H996V344Q996 228 1042 184T1152 140Q1200 140 1232 142T1296 156V28Q1248 4 1206 -6T1088 -16Q960 -16 886 64T812 336V1028H484V0H296Z"/><glyph unicode="–" horiz-adv-x="819" d="M737 653H82V846H737V653Z"/><glyph unicode="—" horiz-adv-x="1126" d="M1044 653H82V846H1044V653Z"/><glyph unicode="‘" horiz-adv-x="496" d="M369 1434L342 944H98L236 1434H369Z"/><glyph unicode="’" horiz-adv-x="496" d="M397 1434L260 944H127L154 1434H397Z"/><glyph unicode="‚" horiz-adv-x="496" d="M397 258L260 -231H127L154 258H397Z"/><glyph unicode="“" horiz-adv-x="936" d="M809 1434L782 944H539L676 1434H809ZM369 1434L342 944H98L236 1434H369Z"/><glyph unicode="”" horiz-adv-x="936" d="M838 1434L700 944H567L594 1434H838ZM397 1434L260 944H127L154 1434H397Z"/><glyph unicode="„" horiz-adv-x="936" d="M838 258L700 -231H567L594 258H838ZM397 258L260 -231H127L154 258H397Z"/><glyph unicode="†" horiz-adv-x="905" d="M840 786H551V-205H354V786H66V971H354V1434H551V971H840V786Z"/><glyph unicode="‡" horiz-adv-x="905" d="M840 260H551V-205H354V260H66V444H354V786H66V971H354V1434H551V971H840V786H551V444H840V260Z"/><glyph unicode="•" horiz-adv-x="819" d="M717 750Q717 685 693 629T628 532T531 466T410 442Q345 442 289 466T192 531T126 629T102 750Q102 814 126 871T191 970T289 1036T410 1061Q474 1061 530 1037T628 970T693 871T717 750Z"/><glyph unicode="…" horiz-adv-x="1425" d="M1333 123Q1333 92 1322 66T1292 20T1246 -11T1188 -23Q1157 -23 1131 -12T1085 19T1054 65T1042 123Q1042 154 1053 180T1084 227T1130 258T1188 270Q1219 270 1245 259T1291 227T1322 181T1333 123ZM858 123Q858 92 847 66T817 20T771 -11T713 -23Q682 -23 656 -12T610 19T579 65T567 123Q567 154 578 180T609 227T655 258T713 270Q744 270 770 259T816 227T847 181T858 123ZM383 123Q383 92 372 66T341 20T295 -11T238 -23Q207 -23 181 -12T135 19T104 65T92 123Q92 154 103 180T134 227T180 258T238 270Q268 270 294 259T340 227T371 181T383 123Z"/><glyph unicode="‰" horiz-adv-x="2464" d="M711 1012Q711 914 693 832T636 691T539 599T403 565Q325 565 268 597T175 689T120 829T102 1008Q102 1107 120 1189T175 1331T270 1423T408 1456Q489 1456 546 1423T640 1332T694 1191T711 1012ZM1337 1434L582 0H401L1157 1434H1337ZM2376 424Q2376 326 2358 244T2301 103T2204 11T2068 -23Q1990 -23 1933 9T1840 101T1785 241T1767 420Q1767 519 1785 601T1840 743T1935 835T2073 868Q2154 868 2211 835T2305 744T2359 603T2376 424ZM1649 424Q1649 326 1631 244T1574 103T1477 11T1341 -23Q1263 -23 1206 9T1113 101T1058 241T1040 420Q1040 519 1058 601T1113 743T1208 835T1346 868Q1427 868 1484 835T1578 744T1632 603T1649 424ZM543 1008Q543 1072 536 1125T512 1216T469 1275T406 1296Q369 1296 344 1276T302 1218T279 1128T272 1012Q272 948 279 895T303 803T345 743T408 721Q444 721 469 744T511 806T535 897T543 1008ZM2208 420Q2208 484 2201 537T2177 628T2134 687T2071 709Q2034 709 2009 689T1967 631T1944 541T1937 424Q1937 360 1944 307T1968 215T2010 155T2073 133Q2109 133 2134 156T2176 218T2200 309T2208 420ZM1481 420Q1481 484 1474 537T1450 628T1407 687T1343 709Q1306 709 1281 689T1240 631T1217 541T1210 424Q1210 360 1217 307T1241 215T1283 155T1346 133Q1382 133 1407 156T1449 218T1473 309T1481 420Z"/><glyph unicode="‹" horiz-adv-x="610" d="M518 0H317L41 537L317 1075H518L252 539L518 0Z"/><glyph unicode="›" horiz-adv-x="610" d="M569 539L293 0H92L358 537L92 1075H293L569 539Z"/><glyph unicode="⁄" horiz-adv-x="797" d="M903 1434L106 0H-106L690 1434H903Z"/><glyph unicode="€" horiz-adv-x="952" d="M285 799Q283 779 283 759T283 719Q283 699 283 681T285 643H645V485H301Q313 417 331 359T376 259T436 194T514 170Q594 170 636 228T705 399L891 340Q870 256 840 189T763 74T653 2T500 -23Q388 -23 310 35T182 193T111 427T88 715Q88 871 112 1006T188 1241T319 1398T506 1456Q597 1456 662 1430T772 1358T845 1247T889 1106L696 1053Q681 1109 665 1149T626 1214T575 1252T504 1264Q461 1264 428 1240T370 1173T328 1075T301 956H645V799H285Z"/><glyph unicode="℗" horiz-adv-x="1323" d="M1231 717Q1231 549 1189 412T1070 179T890 30T662 -23Q538 -23 434 29T253 178T135 412T92 717Q92 885 134 1021T253 1254T433 1403T662 1456Q785 1456 889 1404T1070 1255T1188 1022T1231 717ZM1112 715Q1112 856 1081 972T991 1170T849 1298T662 1343Q558 1343 475 1298T333 1172T243 975T211 719Q211 578 243 462T334 264T478 136T666 90Q769 90 852 135T992 262T1081 459T1112 715ZM926 885Q926 823 907 777T854 701T779 655T690 639H588V313H469V1120H696Q737 1120 778 1107T852 1066T905 993T926 885ZM803 881Q803 915 794 938T768 977T732 999T690 1006H588V754H690Q738 754 770 786T803 881Z"/><glyph unicode="™" horiz-adv-x="1178" d="M451 1317H305V629H188V1317H39V1434H451V1317ZM1104 629H989V954Q989 971 989 995T990 1045T990 1095T991 1137Q986 1120 979 1096T964 1044T948 991T934 946L829 610L725 946Q720 964 713 988T698 1037T683 1086T670 1128Q670 1110 670 1087T671 1040T671 993T672 954V629H559V1434H680L784 1098Q790 1082 797 1061T811 1016T824 971T834 930Q837 949 842 972T854 1019T866 1064T879 1102L983 1434H1104V629Z"/><glyph unicode="Ω" horiz-adv-x="1664" d="M832 1376Q644 1376 510 1234T376 836Q376 592 464 432T724 180V0H88V196H536Q416 240 304 406T192 848Q192 1112 358 1330T832 1548Q1140 1548 1306 1338T1472 848Q1472 572 1360 406T1128 196H1576V0H940V180Q1112 272 1200 432T1288 836Q1288 1044 1162 1210T832 1376Z"/><glyph unicode="∂" horiz-adv-x="1280" d="M476 -32Q276 -32 166 80T56 360Q56 580 214 750T604 920Q700 920 802 886T964 816Q976 900 976 984Q976 1172 908 1278T720 1384Q592 1384 518 1356T368 1280L324 1444Q400 1488 492 1518T720 1548Q956 1548 1064 1394T1172 968Q1172 552 968 260T476 -32ZM488 128Q660 128 774 268T944 684Q912 716 824 748T648 780Q456 780 360 654T264 372Q264 264 318 196T488 128Z"/><glyph unicode="∆" horiz-adv-x="1536" d="M76 0L652 1536H884L1456 0H76ZM352 148H1164L752 1256L352 148Z"/><glyph unicode="∏" horiz-adv-x="1536" d="M332 0V1348H80V1524H1456V1348H1212V0H1004V1356H540V0H332Z"/><glyph unicode="∑" horiz-adv-x="1152" d="M1084 1524V1344H332L796 784L304 188H1080V0H40V172L560 788L68 1380V1524H1084Z"/><glyph unicode="−" horiz-adv-x="1536" d="M200 692V888H1336V692H200Z"/><glyph unicode="∕" horiz-adv-x="797" d="M903 1434L106 0H-106L690 1434H903Z"/><glyph unicode="∙" horiz-adv-x="475" d="M381 752Q381 722 370 696T340 650T294 619T238 608Q208 608 182 619T136 649T105 695T94 752Q94 782 105 808T135 854T181 885T238 897Q268 897 294 886T339 854T370 808T381 752Z"/><glyph unicode="√" horiz-adv-x="1004" d="M973 1434L500 0H297L45 696H264L324 496Q333 465 343 427T364 350T383 276T397 217Q403 241 413 277T435 354T458 433T479 504L762 1434H973Z"/><glyph unicode="∞" horiz-adv-x="1536" d="M468 1216Q616 1216 706 1134T848 840Q856 660 920 608T1072 556Q1156 556 1218 626T1280 816Q1280 916 1234 988T1080 1060Q972 1060 920 968T836 752Q796 596 688 496T440 396Q284 396 190 508T96 808Q96 984 208 1100T468 1216ZM1072 396Q924 396 840 482T712 764Q672 924 614 986T472 1048Q376 1048 316 982T256 792Q256 668 302 610T448 552Q540 552 608 624T716 864Q764 1044 860 1130T1100 1216Q1248 1216 1346 1112T1444 820Q1444 640 1340 518T1072 396Z"/><glyph unicode="∫" horiz-adv-x="1152" d="M-8 -392L56 -260Q80 -268 104 -274T164 -280Q212 -280 242 -246T288 -112L516 1224Q544 1384 636 1464T880 1544Q972 1544 1042 1522T1152 1476L1088 1304Q1044 1332 988 1356T868 1380Q776 1380 730 1322T672 1188L448 -224Q428 -332 350 -382T176 -432Q116 -432 66 -420T-8 -392Z"/><glyph unicode="≈" horiz-adv-x="1536" d="M236 400Q228 444 228 480Q228 580 288 652T476 724Q576 724 650 696T788 642T912 598T1020 580Q1096 580 1128 610T1160 684Q1160 700 1156 716H1300Q1308 672 1308 636Q1308 536 1248 464T1060 392Q960 392 886 418T748 470T624 512T516 528Q440 528 408 500T376 432Q376 416 380 400H236ZM236 860Q228 904 228 940Q228 1040 288 1112T476 1184Q576 1184 650 1156T788 1102T912 1058T1020 1040Q1096 1040 1128 1070T1160 1144Q1160 1160 1156 1176H1300Q1308 1132 1308 1096Q1308 996 1248 924T1060 852Q960 852 886 878T748 930T624 972T516 988Q440 988 408 960T376 892Q376 876 380 860H236Z"/><glyph unicode="≠" horiz-adv-x="1536" d="M212 404V604H1328V404H212ZM212 976V1176H1328V976H212ZM548 188H372L996 1356H1168L548 188Z"/><glyph unicode="≤" horiz-adv-x="1536" d="M1348 236L208 708V872L1348 1344V1128L448 792L1348 452V236ZM212 24V216H1348V24H212Z"/><glyph unicode="≥" horiz-adv-x="1536" d="M212 236V452L1112 792L212 1128V1344L1352 872V708L212 236ZM212 24V216H1348V24H212Z"/><glyph unicode="◊" horiz-adv-x="1152" d="M472 -48L68 756L472 1560H656L1084 756L656 -48H472ZM556 152L876 768L572 1356L252 740L556 152Z"/><glyph unicode="" horiz-adv-x="1536" d="M1495 709L1128 453Q1109 441 1096 449Q1085 458 1082 466T1083 489L1122 614H862V334L991 375Q1004 380 1011 377T1028 362Q1031 356 1031 348T1022 328L768 -37L510 328Q504 340 504 348T506 362Q515 373 524 377T547 375L674 334V614H414L453 489Q458 474 454 466T438 449Q432 445 424 445T403 453L41 709L408 965Q426 977 438 971Q449 961 452 953T453 932L414 803H674V1077L547 1038Q533 1032 524 1037T506 1053Q503 1059 503 1067T510 1087L768 1450L1022 1085Q1030 1074 1030 1067T1028 1053Q1019 1042 1012 1039T991 1038L862 1077V803H1122L1083 932Q1080 944 1082 952T1096 971Q1109 978 1128 965L1495 709Z"/><glyph unicode="ﬁ" horiz-adv-x="1034" d="M930 1364Q930 1339 920 1317T894 1279T855 1253T809 1243Q783 1243 761 1252T722 1278T696 1317T686 1364Q686 1389 695 1411T722 1451T761 1477T809 1487Q833 1487 855 1478T893 1451T920 1412T930 1364ZM569 1303Q533 1315 487 1315Q415 1315 389 1288T362 1200V1075H539V891H362V0H166V891H57V1075H166V1227Q166 1293 184 1342T234 1423T311 1471T408 1487Q459 1487 497 1482T569 1466V1303ZM907 0H711V1075H907V0Z"/><glyph unicode="ﬂ" horiz-adv-x="1034" d="M907 0H711V1391L907 1493V0ZM569 1303Q533 1315 487 1315Q415 1315 389 1288T362 1200V1075H539V891H362V0H166V891H57V1075H166V1227Q166 1293 184 1342T234 1423T311 1471T408 1487Q459 1487 497 1482T569 1466V1303Z"/></font>
</defs>
</svg>
