<?xml version="1.0" encoding="utf-8"?>
<!-- Generator: Adobe Illustrator 21.1.0, SVG Export Plug-In . SVG Version: 6.00 Build 0)  -->
<svg version="1.1" id="b66d341e-cea6-4ad2-af17-d71d79543188"
	 xmlns="http://www.w3.org/2000/svg" xmlns:xlink="http://www.w3.org/1999/xlink" x="0px" y="0px" viewBox="0 0 108 22"
	 style="enable-background:new 0 0 108 22;" xml:space="preserve">
<style type="text/css">
	.st0{fill:#FFFFFF;}
</style>
<title>topnav-hubnasvhille-white</title>
<g>
	<g>
		<g>
			<path class="st0" d="M20.4,2.3v3.1c0.3-0.3,0.5-0.5,0.8-0.7c0.3-0.2,0.5-0.4,0.8-0.4s0.6-0.2,1-0.2c0.5,0,1,0.1,1.4,0.4
				c0.4,0.3,0.8,0.6,1,1.1c0.2,0.3,0.3,0.5,0.3,0.8c0.1,0.3,0.1,0.6,0.1,1.1v4c0,0.4-0.1,0.7-0.3,1c-0.2,0.2-0.4,0.4-0.8,0.4
				c-0.7,0-1.1-0.4-1.1-1.3V8c0-0.7-0.1-1.2-0.3-1.5c-0.2-0.4-0.6-0.5-1.2-0.5c-0.4,0-0.7,0.1-1,0.4c-0.3,0.2-0.5,0.5-0.7,0.9
				c-0.1,0.4-0.2,0.9-0.2,1.7v2.8c0,0.4-0.1,0.7-0.3,1c-0.2,0.2-0.4,0.4-0.8,0.4c-0.7,0-1.1-0.4-1.1-1.3V2.3c0-0.4,0.1-0.7,0.3-1
				C18.6,1.1,18.9,1,19.3,1s0.6,0.1,0.8,0.4C20.3,1.6,20.4,2,20.4,2.3z"/>
			<path class="st0" d="M32.6,11.6v-0.3c-0.3,0.4-0.5,0.6-0.8,0.8c-0.3,0.2-0.6,0.4-0.9,0.4c-0.3,0.1-0.7,0.2-1.1,0.2
				c-0.5,0-1-0.1-1.3-0.4c-0.4-0.2-0.7-0.5-0.9-0.9c-0.3-0.4-0.4-1.1-0.4-2V5.5c0-0.4,0.1-0.7,0.3-1c0.2-0.2,0.4-0.3,0.7-0.3
				c0.4,0,0.5,0.1,0.8,0.4c0.2,0.2,0.3,0.5,0.3,1V9c0,0.4,0,0.9,0.1,1.3s0.3,0.6,0.4,0.8c0.2,0.2,0.5,0.3,0.9,0.3s0.7-0.1,1-0.4
				c0.4-0.2,0.5-0.4,0.7-0.8c0.1-0.3,0.2-1,0.2-2V5.5c0-0.4,0.1-0.7,0.3-1c0.2-0.2,0.4-0.4,0.8-0.4c0.4,0,0.5,0.1,0.7,0.3
				c0.2,0.2,0.3,0.5,0.3,1v6.1c0,0.4-0.1,0.7-0.3,0.9c-0.2,0.2-0.4,0.3-0.7,0.3c-0.3,0-0.5-0.1-0.7-0.3C32.7,12.3,32.6,12,32.6,11.6
				z"/>
			<path class="st0" d="M37.9,2.3v3.2c0.4-0.4,0.8-0.8,1.2-1c0.4-0.2,0.9-0.4,1.5-0.4c0.7,0,1.3,0.2,1.9,0.5
				c0.5,0.4,0.9,0.8,1.3,1.4c0.3,0.6,0.4,1.3,0.4,2.2c0,0.6-0.1,1.3-0.3,1.8c-0.2,0.5-0.4,1-0.7,1.3c-0.3,0.4-0.7,0.7-1.2,0.9
				c-0.4,0.2-0.9,0.4-1.4,0.4c-0.4,0-0.6,0-0.9-0.1c-0.3-0.1-0.5-0.2-0.7-0.3c-0.2-0.1-0.4-0.3-0.5-0.4s-0.4-0.4-0.5-0.6v0.2
				c0,0.4-0.1,0.7-0.3,0.9c-0.3,0.2-0.4,0.3-0.7,0.3s-0.5-0.1-0.7-0.3s-0.3-0.5-0.3-0.9V2.4c0-0.4,0.1-0.7,0.3-1
				c0.1-0.3,0.4-0.4,0.7-0.4c0.4,0,0.5,0.1,0.7,0.3C37.8,1.6,37.9,1.9,37.9,2.3z M38,8.6c0,0.8,0.2,1.5,0.5,2
				c0.4,0.4,0.9,0.7,1.5,0.7c0.5,0,1-0.3,1.3-0.7c0.4-0.4,0.5-1.2,0.5-2c0-0.5-0.1-1.1-0.3-1.4S41.3,6.4,41,6.3
				c-0.3-0.2-0.6-0.4-1-0.4S39.3,6,38.9,6.3c-0.4,0.2-0.5,0.5-0.7,1C38.1,7.5,38,8,38,8.6z"/>
		</g>
		<g>
			<g>
				<path class="st0" d="M48.2,2.4l4.4,6.7V2.4c0-0.4,0.1-0.8,0.3-1c0.2-0.3,0.4-0.4,0.8-0.4c0.4,0,0.6,0.1,0.8,0.4
					c0.2,0.2,0.3,0.5,0.3,1v9c0,1-0.4,1.5-1.3,1.5c-0.2,0-0.4,0-0.5-0.1c-0.2-0.1-0.4-0.2-0.4-0.3c-0.2-0.1-0.3-0.3-0.4-0.4
					c-0.1-0.2-0.3-0.4-0.4-0.5l-4.3-6.6v6.6c0,0.4-0.1,0.7-0.3,1c-0.2,0.2-0.4,0.4-0.8,0.4c-0.4,0-0.6-0.1-0.8-0.4
					c-0.2-0.3-0.3-0.5-0.3-1V2.8c0-0.4,0-0.6,0.1-0.9c0.1-0.3,0.3-0.4,0.4-0.5c0.3-0.2,0.4-0.2,0.7-0.2c0.2,0,0.4,0,0.5,0.1
					c0.2,0.1,0.3,0.2,0.4,0.3c0.1,0.1,0.3,0.3,0.4,0.4C48,2,48.1,2.2,48.2,2.4z"/>
				<path class="st0" d="M61.7,11.6c-0.5,0.4-1,0.7-1.5,0.9c-0.4,0.2-1,0.3-1.6,0.3c-0.5,0-1-0.1-1.4-0.4c-0.4-0.2-0.7-0.5-1-0.9
					c-0.2-0.4-0.4-0.8-0.4-1.2c0-0.5,0.2-1.1,0.5-1.4c0.4-0.4,0.9-0.7,1.5-0.8c0.1,0,0.4-0.1,1-0.2c0.5-0.1,1-0.2,1.3-0.3
					c0.4-0.1,0.8-0.2,1.3-0.4c0-0.5-0.2-1-0.4-1.3C61,5.8,60.6,5.6,60,5.6c-0.5,0-0.9,0.1-1.3,0.3c-0.3,0.2-0.4,0.4-0.7,0.6
					c-0.2,0.3-0.4,0.5-0.4,0.6S57.3,7.3,57,7.3s-0.4-0.1-0.6-0.3c-0.2-0.2-0.3-0.4-0.3-0.6c0-0.4,0.1-0.7,0.4-1.1
					c0.3-0.4,0.7-0.6,1.3-0.9c0.5-0.3,1.3-0.4,2.1-0.4c0.9,0,1.6,0.1,2.2,0.4c0.5,0.2,0.9,0.5,1.2,1.1c0.2,0.4,0.4,1.1,0.4,1.9
					c0,0.5,0,0.9,0,1.3s0,0.7,0,1.2c0,0.4,0.1,0.8,0.2,1.3c0.1,0.4,0.2,0.7,0.2,0.8c0,0.2-0.1,0.4-0.3,0.6c-0.1,0.2-0.4,0.3-0.6,0.3
					c-0.2,0-0.4-0.1-0.6-0.3C62.2,12.3,61.9,12,61.7,11.6z M61.5,8.6c-0.3,0.1-0.7,0.3-1.3,0.4c-0.6,0.1-1,0.2-1.3,0.3
					s-0.4,0.2-0.6,0.4C58.1,9.8,58,10,58,10.3c0,0.4,0.1,0.6,0.4,0.8c0.3,0.3,0.5,0.4,1,0.4c0.4,0,0.8-0.1,1.2-0.3
					c0.4-0.2,0.6-0.4,0.8-0.7c0.2-0.4,0.3-0.8,0.3-1.6L61.5,8.6L61.5,8.6z"/>
				<path class="st0" d="M71.8,10c0,0.6-0.2,1.1-0.4,1.5c-0.3,0.4-0.7,0.7-1.3,1c-0.5,0.2-1.3,0.4-2.1,0.4c-0.7,0-1.4-0.1-2-0.4
					c-0.5-0.3-1-0.5-1.2-0.9c-0.3-0.4-0.4-0.7-0.4-1.1c0-0.3,0.1-0.4,0.3-0.6s0.4-0.3,0.6-0.3c0.2,0,0.4,0.1,0.5,0.2
					c0.1,0.1,0.3,0.3,0.4,0.4c0.2,0.4,0.4,0.6,0.8,0.8c0.3,0.2,0.7,0.3,1.3,0.3c0.4,0,0.8-0.1,1.1-0.3c0.3-0.2,0.4-0.4,0.4-0.6
					c0-0.4-0.2-0.6-0.4-0.8c-0.3-0.2-0.7-0.4-1.3-0.4c-0.7-0.2-1.3-0.4-1.8-0.5c-0.4-0.2-0.8-0.4-1.1-0.8c-0.3-0.4-0.4-0.7-0.4-1.2
					s0.1-0.8,0.4-1.2s0.6-0.7,1.1-0.9c0.4-0.3,1.1-0.4,1.8-0.4c0.5,0,1.1,0.1,1.4,0.2c0.4,0.1,0.8,0.3,1.1,0.4s0.5,0.4,0.6,0.6
					c0.2,0.3,0.3,0.4,0.3,0.7s-0.1,0.4-0.3,0.6s-0.4,0.3-0.7,0.3c-0.2,0-0.4-0.1-0.5-0.2c-0.2-0.1-0.4-0.3-0.5-0.5
					c-0.2-0.2-0.4-0.4-0.5-0.5c-0.2-0.1-0.5-0.2-0.9-0.2c-0.4,0-0.7,0.1-1,0.3c-0.2,0-0.4,0.2-0.4,0.4c0,0.2,0.1,0.4,0.3,0.5
					c0.2,0.2,0.4,0.3,0.7,0.4c0.4,0.1,0.8,0.2,1.3,0.3C69.5,7.8,70,8,70.5,8.1c0.4,0.2,0.7,0.4,1,0.8C71.7,9.3,71.8,9.7,71.8,10z"/>
				<path class="st0" d="M74.8,2.3v3.1c0.3-0.3,0.5-0.5,0.8-0.7c0.3-0.2,0.5-0.4,0.8-0.4s0.6-0.2,1-0.2c0.5,0,1,0.1,1.4,0.4
					c0.4,0.3,0.7,0.5,1,1C80,5.7,80.1,6,80.1,6.3c0.1,0.3,0.1,0.6,0.1,1.1v4c0,0.4-0.1,0.7-0.3,1c-0.2,0.2-0.4,0.4-0.8,0.4
					c-0.7,0-1.1-0.4-1.1-1.3V7.9c0-0.7-0.1-1.2-0.3-1.5c-0.2-0.4-0.6-0.5-1.2-0.5c-0.4,0-0.7,0.1-1,0.4c-0.3,0.2-0.5,0.5-0.7,0.9
					c-0.1,0.4-0.2,0.9-0.2,1.7v2.8c0,0.4-0.1,0.7-0.3,1c-0.1,0.2-0.4,0.3-0.7,0.3c-0.7,0-1.1-0.4-1.1-1.3V2.3c0-0.4,0.1-0.7,0.3-1
					c0.3-0.2,0.5-0.3,0.8-0.3c0.4,0,0.6,0.1,0.8,0.4C74.7,1.6,74.8,2,74.8,2.3z"/>
				<path class="st0" d="M83.1,5.5l1.7,4.8l1.9-5c0.2-0.4,0.3-0.7,0.4-0.9c0.2-0.2,0.4-0.3,0.6-0.3c0.3,0,0.5,0.1,0.7,0.3
					c0.2,0.2,0.3,0.4,0.3,0.6c0,0.1,0,0.2-0.1,0.4c0,0.1-0.1,0.3-0.1,0.4s-0.1,0.3-0.2,0.4l-2.1,5c-0.1,0.2-0.1,0.4-0.2,0.5
					c-0.1,0.2-0.2,0.4-0.3,0.5c-0.1,0.2-0.3,0.3-0.4,0.4c-0.2,0.1-0.4,0.1-0.6,0.1c-0.3,0-0.5-0.1-0.7-0.2c-0.2-0.2-0.3-0.3-0.4-0.4
					c-0.1-0.2-0.3-0.4-0.4-1l-2-5c-0.1-0.1-0.1-0.3-0.2-0.4C81,5.6,81,5.5,81,5.4c-0.1,0-0.1-0.2-0.1-0.3c0-0.2,0-0.3,0.1-0.4
					s0.2-0.3,0.4-0.4s0.4-0.2,0.5-0.2c0.4,0,0.6,0.1,0.7,0.3C82.8,4.7,82.9,5,83.1,5.5z"/>
				<path class="st0" d="M90.4,3.2c-0.3,0-0.5-0.1-0.7-0.3s-0.3-0.4-0.3-0.8c0-0.3,0.1-0.5,0.4-0.7c0.2-0.2,0.4-0.3,0.7-0.3
					s0.5,0.1,0.7,0.3c0.2,0.2,0.4,0.4,0.4,0.8S91.5,2.8,91.3,3C91,3.1,90.7,3.2,90.4,3.2z M91.5,5.4v6.1c0,0.4-0.1,0.7-0.3,1
					c-0.2,0.2-0.4,0.4-0.8,0.4c-0.3,0-0.5-0.1-0.7-0.4c-0.2-0.2-0.3-0.5-0.3-1v-6c0-0.4,0.1-0.7,0.3-1c0.2-0.2,0.4-0.4,0.7-0.4
					s0.5,0.1,0.8,0.4C91.4,4.7,91.5,5,91.5,5.4z"/>
				<path class="st0" d="M92.8,11.6V2.3c0-0.4,0.1-0.7,0.3-1C93.3,1.1,93.6,1,93.9,1s0.5,0.1,0.8,0.4c0.2,0.2,0.3,0.5,0.3,1v9.2
					c0,0.4-0.1,0.7-0.3,1c-0.2,0.2-0.4,0.4-0.8,0.4c-0.3,0-0.5-0.1-0.7-0.4C92.9,12.3,92.8,11.9,92.8,11.6z"/>
				<path class="st0" d="M96.3,11.6V2.3c0-0.4,0.1-0.7,0.3-1C96.8,1.1,97.1,1,97.4,1c0.4,0,0.5,0.1,0.8,0.4c0.2,0.2,0.3,0.5,0.3,1
					v9.2c0,0.4-0.1,0.7-0.3,1c-0.2,0.2-0.4,0.4-0.8,0.4c-0.3,0-0.5-0.1-0.7-0.4C96.4,12.3,96.3,11.9,96.3,11.6z"/>
				<path class="st0" d="M105.8,9h-4.1c0,0.4,0.1,0.9,0.3,1.3c0.2,0.4,0.4,0.6,0.7,0.8c0.3,0.2,0.6,0.3,1.1,0.3c0.3,0,0.4,0,0.7-0.1
					c0.2-0.1,0.4-0.2,0.6-0.3c0.2-0.1,0.4-0.3,0.5-0.4s0.4-0.4,0.6-0.6c0.1-0.1,0.3-0.2,0.4-0.2c0.2,0,0.4,0.1,0.5,0.2
					c0.1,0.1,0.2,0.3,0.2,0.5c0,0.2-0.1,0.4-0.3,0.6c-0.2,0.3-0.4,0.5-0.7,0.7c-0.3,0.3-0.7,0.4-1.2,0.6c-0.4,0.2-1,0.3-1.6,0.3
					c-1.3,0-2.4-0.4-3.1-1.2c-0.7-0.8-1.2-1.8-1.2-3.1c0-0.6,0.1-1.2,0.3-1.7s0.4-1,0.8-1.3s0.8-0.7,1.3-0.9s1.1-0.3,1.7-0.3
					c0.8,0,1.5,0.2,2.2,0.5c0.6,0.4,1.1,0.8,1.3,1.3s0.4,1.1,0.4,1.7c0,0.5-0.2,0.9-0.4,1.1C106.8,9,106.3,9,105.8,9z M101.6,7.8
					h3.9c-0.1-0.7-0.3-1.3-0.6-1.6s-0.8-0.5-1.3-0.5s-1,0.2-1.3,0.5C101.9,6.5,101.7,7.1,101.6,7.8z"/>
			</g>
		</g>
	</g>
	<g>
		<g>
			<circle class="st0" cx="1.8" cy="1.7" r="1.4"/>
			<path class="st0" d="M7.7,6.4H2.2c-0.7,0-1.3-0.5-1.3-1.3V3.7h0.7v1.5c0,0.4,0.3,0.6,0.6,0.6h5.5L7.7,6.4z"/>
			<path class="st0" d="M11.7,0.9h-1.6c-0.7,0-1.3,0.5-1.3,1.3v2.7h0.7V2.1c0-0.4,0.3-0.6,0.6-0.6h1.6L11.7,0.9z"/>
			<path class="st0" d="M3.7,0.9h1.6c0.7,0,1.3,0.5,1.3,1.3v2.7H5.9V2.1c0-0.4-0.3-0.6-0.6-0.6H3.7V0.9z"/>
			
				<ellipse transform="matrix(2.221176e-02 -0.9998 0.9998 2.221176e-02 11.924 15.5162)" class="st0" cx="13.9" cy="1.7" rx="1.4" ry="1.4"/>
			<path class="st0" d="M7.9,6.4h5.4c0.7,0,1.3-0.5,1.3-1.3V3.7h-0.7v1.5c0,0.4-0.3,0.6-0.6,0.6H7.9L7.9,6.4z"/>
		</g>
		<g>
			<circle class="st0" cx="13.9" cy="12.2" r="1.4"/>
			<path class="st0" d="M7.9,7.4h5.5c0.7,0,1.3,0.5,1.3,1.3v1.5H14V8.7c0-0.4-0.3-0.6-0.6-0.6H7.9L7.9,7.4z"/>
			<path class="st0" d="M3.8,13h1.6c0.7,0,1.3-0.5,1.3-1.3V9H6v2.7c0,0.4-0.3,0.6-0.6,0.6H3.7L3.8,13z"/>
			<path class="st0" d="M11.8,13h-1.6c-0.7,0-1.3-0.5-1.3-1.3V9h0.7v2.7c0,0.4,0.3,0.6,0.6,0.6h1.5V13z"/>
			
				<ellipse transform="matrix(2.221113e-02 -0.9998 0.9998 2.221113e-02 -10.4872 13.6553)" class="st0" cx="1.7" cy="12.2" rx="1.4" ry="1.4"/>
			<path class="st0" d="M7.7,7.4H2.3C1.6,7.4,1,8,1,8.7v1.5h0.7V8.7c0-0.4,0.3-0.6,0.6-0.6h5.4L7.7,7.4z"/>
		</g>
	</g>
</g>
<g>
	<path class="st0" d="M21.3,15.3c-0.7,0-1.1,0.3-1.5,0.6c-0.4,0.5-0.5,1-0.5,1.9c0,0.8,0.1,1.4,0.5,1.9c0.4,0.4,0.8,0.6,1.5,0.6
		c0.3,0,0.5,0,0.8-0.1c0.3,0,0.5-0.1,0.8-0.3v0.9c-0.5,0.3-1.1,0.3-1.7,0.3c-0.9,0-1.7-0.3-2.3-0.9c-0.5-0.6-0.8-1.4-0.8-2.6
		c0-0.8,0.1-1.3,0.4-1.8c0.3-0.5,0.7-0.9,1.1-1.2c0.5-0.3,1.1-0.4,1.7-0.4c0.7,0,1.3,0.1,1.9,0.4l-0.4,0.9c-0.3-0.1-0.5-0.3-0.7-0.3
		C21.9,15.3,21.6,15.3,21.3,15.3z"/>
	<path class="st0" d="M29.8,14.4v4.4c0,0.5-0.1,0.9-0.3,1.3c-0.3,0.4-0.5,0.6-0.9,0.9c-0.4,0.3-0.9,0.3-1.5,0.3
		c-0.8,0-1.5-0.3-2-0.6c-0.4-0.4-0.7-1-0.7-1.8v-4.4h1.1v4.4c0,0.5,0.1,1,0.4,1.3c0.3,0.3,0.7,0.4,1.2,0.4c1.1,0,1.6-0.5,1.6-1.7
		v-4.2h1.1V14.4z"/>
	<path class="st0" d="M35.4,19.4c0,0.6-0.3,1-0.7,1.4c-0.4,0.4-1.1,0.5-1.7,0.5s-1.3-0.1-1.9-0.4v-1c0.3,0.1,0.7,0.3,0.9,0.4
		c0.4,0.1,0.7,0.1,0.9,0.1c0.4,0,0.8-0.1,0.9-0.3c0.3-0.1,0.3-0.4,0.3-0.6S34.1,19,34,18.9c-0.1-0.1-0.5-0.4-1.2-0.6
		c-0.7-0.3-1.1-0.5-1.3-0.9c-0.3-0.4-0.4-0.8-0.4-1.2c0-0.5,0.1-1,0.5-1.3c0.4-0.4,0.9-0.5,1.6-0.5c0.7,0,1.3,0.1,1.9,0.4l-0.4,0.9
		c-0.5-0.3-1.2-0.4-1.6-0.4c-0.4,0-0.7,0.1-0.8,0.3c-0.1,0.1-0.3,0.4-0.3,0.6c0,0.1,0,0.4,0.1,0.5c0.1,0.1,0.1,0.3,0.4,0.4
		c0.1,0.1,0.5,0.3,0.9,0.4c0.5,0.3,0.8,0.4,1.1,0.6c0.3,0.1,0.4,0.4,0.5,0.6C35.4,18.9,35.4,19.1,35.4,19.4z"/>
	<path class="st0" d="M39.1,21.2H38v-5.9h-2v-0.9h5.1v0.9h-2V21.2z"/>
	<path class="st0" d="M48.2,17.8c0,1.2-0.3,1.9-0.8,2.6s-1.3,0.9-2.3,0.9c-1.1,0-1.7-0.3-2.4-0.9c-0.5-0.6-0.8-1.4-0.8-2.6
		c0-1.2,0.3-1.9,0.8-2.6s1.3-0.9,2.4-0.9s1.7,0.3,2.3,0.9C47.9,15.9,48.2,16.7,48.2,17.8z M43,17.8c0,0.9,0.1,1.4,0.5,1.9
		c0.4,0.4,0.8,0.6,1.5,0.6s1.2-0.3,1.5-0.6c0.4-0.4,0.5-1,0.5-1.9c0-0.8-0.1-1.4-0.5-1.9c-0.3-0.4-0.8-0.6-1.5-0.6s-1.2,0.3-1.5,0.6
		C43.1,16.3,43,16.9,43,17.8z"/>
	<path class="st0" d="M52.5,21.2l-2-5.6l0,0c0,0.9,0.1,1.7,0.1,2.3v3.3h-1.1v-6.8h1.6l1.9,5.4l0,0l1.9-5.4h1.6v6.8h-1.1v-3.3
		c0-0.4,0-0.8,0-1.3s0-0.9,0-1l0,0l-2,5.6H52.5z"/>
	<path class="st0" d="M62.1,21.2h-3.9v-6.8h3.9v0.9h-2.7v1.8H62V18h-2.5v2.3h2.7V21.2z"/>
	<path class="st0" d="M64.8,18.5v2.7h-1.1v-6.8h1.9c0.9,0,1.5,0.1,1.9,0.5c0.4,0.4,0.7,0.8,0.7,1.5c0,0.9-0.4,1.4-1.3,1.8l1.9,2.9
		h-1.2l-1.6-2.7C65.9,18.5,64.8,18.5,64.8,18.5z M64.8,17.6h0.8c0.5,0,0.9-0.1,1.1-0.3c0.3-0.1,0.4-0.5,0.4-0.9
		c0-0.4-0.1-0.6-0.4-0.8c-0.3-0.1-0.7-0.3-1.1-0.3H65v2.2H64.8z"/>
	<path class="st0" d="M76.1,19.4c0,0.6-0.3,1-0.7,1.4c-0.4,0.4-1.1,0.5-1.7,0.5s-1.3-0.1-1.9-0.4v-1c0.3,0.1,0.7,0.3,0.9,0.4
		c0.4,0.1,0.7,0.1,0.9,0.1c0.4,0,0.8-0.1,0.9-0.3c0.3-0.1,0.3-0.4,0.3-0.6s-0.1-0.5-0.3-0.6c-0.1-0.1-0.5-0.4-1.2-0.6
		c-0.7-0.3-1.1-0.5-1.3-0.9c-0.3-0.4-0.4-0.8-0.4-1.2c0-0.5,0.1-1,0.5-1.3c0.4-0.4,0.9-0.5,1.6-0.5c0.7,0,1.3,0.1,1.9,0.4l-0.4,0.9
		c-0.5-0.3-1.2-0.4-1.6-0.4s-0.7,0.1-0.8,0.3c-0.1,0.1-0.3,0.4-0.3,0.6c0,0.1,0,0.4,0.1,0.5s0.1,0.3,0.4,0.4
		c0.1,0.1,0.5,0.3,0.9,0.4c0.5,0.3,0.8,0.4,1.1,0.6c0.3,0.1,0.4,0.4,0.5,0.6C76.1,18.9,76.1,19.1,76.1,19.4z"/>
	<path class="st0" d="M81.2,21.2h-3.9v-6.8h3.9v0.9h-2.7v1.8h2.5V18h-2.5v2.3h2.7V21.2z"/>
	<path class="st0" d="M83.9,18.5v2.7h-1.2v-6.8h1.9c0.9,0,1.5,0.1,1.9,0.5c0.4,0.4,0.7,0.8,0.7,1.5c0,0.9-0.4,1.4-1.3,1.8l1.9,2.9
		h-1.2l-1.6-2.7C84.8,18.5,83.9,18.5,83.9,18.5z M83.9,17.6h0.8c0.5,0,0.9-0.1,1.1-0.3c0.3-0.1,0.4-0.5,0.4-0.9
		c0-0.4-0.1-0.6-0.4-0.8c-0.3-0.1-0.7-0.3-1.1-0.3H84v2.2H83.9z"/>
	<path class="st0" d="M92.6,14.4h1.2l-2.4,6.8h-1.2l-2.4-6.8H89l1.5,4.2c0.1,0.3,0.1,0.5,0.3,0.8s0.1,0.5,0.1,0.8
		c0-0.3,0.1-0.5,0.1-0.8c0.1-0.3,0.1-0.5,0.3-0.6L92.6,14.4z"/>
	<path class="st0" d="M94.8,21.2v-6.8h1.1v6.8H94.8z"/>
	<path class="st0" d="M100.5,15.3c-0.7,0-1.1,0.3-1.5,0.6c-0.4,0.5-0.5,1-0.5,1.9c0,0.8,0.1,1.4,0.5,1.9c0.4,0.4,0.8,0.6,1.5,0.6
		c0.3,0,0.5,0,0.8-0.1c0.3,0,0.5-0.1,0.8-0.3v0.9c-0.5,0.3-1.1,0.3-1.7,0.3c-0.9,0-1.7-0.3-2.3-0.9c-0.5-0.6-0.8-1.4-0.8-2.6
		c0-0.8,0.1-1.3,0.4-1.8c0.3-0.5,0.7-0.9,1.1-1.2c0.5-0.3,1.1-0.4,1.7-0.4c0.7,0,1.3,0.1,1.9,0.4l-0.4,0.9c-0.3-0.1-0.5-0.3-0.7-0.3
		C101.1,15.3,100.8,15.3,100.5,15.3z"/>
	<path class="st0" d="M107.5,21.2h-3.9v-6.8h3.9v0.9h-2.7v1.8h2.5V18h-2.5v2.3h2.7V21.2z"/>
</g>
</svg>
